<svg width="32" height="24" viewBox="0 0 32 24" fill="none" xmlns="http://www.w3.org/2000/svg">
<g clip-path="url(#clip0_30_17987)">
<rect width="32" height="24" fill="white"/>
<path fill-rule="evenodd" clip-rule="evenodd" d="M8 0H24V24H8V0Z" fill="#FFD018"/>
<path fill-rule="evenodd" clip-rule="evenodd" d="M0 0H8V24H0V0Z" fill="#2E42A5"/>
<path fill-rule="evenodd" clip-rule="evenodd" d="M24 0H32V24H24V0Z" fill="#E31D1C"/>
<path fill-rule="evenodd" clip-rule="evenodd" d="M16.2991 19.4236C16.5201 19.3615 16.7102 18.9771 16.7102 18.9771C16.7102 18.9771 16.8545 19.09 17.0834 19.2047C17.3122 19.3195 17.5501 18.9771 17.5501 18.9771C17.5501 18.9771 17.8751 18.9771 18.0176 18.5937C18.1602 18.2103 17.7332 18.0459 17.7332 18.0459C17.7332 18.0459 18.2323 17.5216 19.0749 17.5216C19.9176 17.5216 20.5734 17.5216 21.1232 17.2883C21.6731 17.0549 22.2073 16.6536 22.4072 15.8203C22.6071 14.9869 21.9744 14.4621 21.9744 14.4621C21.9744 14.4621 22.1145 14.5064 22.4072 14.267C22.6999 14.0276 22.2281 13.2572 21.9744 13.2572C21.7208 13.2572 21.6906 13.3998 21.6906 13.3998C21.6906 13.3998 21.5339 13.2638 21.3192 12.8014C21.1044 12.3389 21.5339 11.933 21.5339 11.933C21.5339 11.933 21.7692 12.0678 21.9744 11.8454C22.1797 11.6229 21.8678 11.2821 21.8678 11.2821C21.8678 11.2821 22.8559 10.9458 22.713 9.68175C22.5702 8.41772 21.2673 8.48961 21.2673 8.48961C21.2673 8.48961 21.3068 8.27944 21.1232 8.15966C20.9397 8.03989 20.8036 8.27944 20.8036 8.27944C20.6596 7.94604 21.082 7.48995 21.42 7.12495C21.5247 7.01184 21.6214 6.90749 21.6906 6.81824C21.983 6.44096 21.7994 5.97488 20.731 5.46615C19.6625 4.95742 19.0792 5.64114 18.9936 5.88341C18.908 6.12569 19.2395 6.27561 19.2395 6.27561C18.9691 6.5129 18.4461 6.6035 18.0897 6.43956C17.7332 6.27561 17.8912 5.77703 17.9649 5.64114C17.973 5.62627 17.9837 5.60825 17.9961 5.58744C18.0968 5.41808 18.3075 5.06399 18.0897 4.71965C17.8451 4.33299 17.4216 4.33299 17.0834 4.55256C16.7938 4.74048 16.3823 4.84013 16.2696 4.86495C16.157 4.84013 15.7455 4.74048 15.4559 4.55256C15.1177 4.33299 14.6942 4.33299 14.4496 4.71965C14.2318 5.06399 14.4424 5.41808 14.5432 5.58744C14.5556 5.60825 14.5663 5.62627 14.5744 5.64114C14.6481 5.77703 14.8061 6.27561 14.4496 6.43956C14.0931 6.6035 13.5702 6.5129 13.2998 6.27561C13.2998 6.27561 13.6313 6.12569 13.5457 5.88341C13.4601 5.64114 12.8768 4.95742 11.8083 5.46615C10.7399 5.97488 10.5563 6.44096 10.8487 6.81824C10.9179 6.90749 11.0145 7.01184 11.1193 7.12495C11.4573 7.48995 11.8797 7.94604 11.7356 8.27944C11.7356 8.27944 11.5996 8.03989 11.4161 8.15966C11.2325 8.27944 11.272 8.48961 11.272 8.48961C11.272 8.48961 9.9691 8.41772 9.82625 9.68175C9.68341 10.9458 10.6715 11.2821 10.6715 11.2821C10.6715 11.2821 10.3596 11.6229 10.5648 11.8454C10.7701 12.0678 11.0054 11.933 11.0054 11.933C11.0054 11.933 11.4348 12.3389 11.2201 12.8014C11.0054 13.2638 10.8487 13.3998 10.8487 13.3998C10.8487 13.3998 10.8185 13.2572 10.5648 13.2572C10.3112 13.2572 9.83938 14.0276 10.1321 14.267C10.4247 14.5064 10.5648 14.4621 10.5648 14.4621C10.5648 14.4621 9.93218 14.9869 10.1321 15.8203C10.332 16.6536 10.8662 17.0549 11.4161 17.2883C11.9659 17.5216 12.6217 17.5216 13.4644 17.5216C14.307 17.5216 14.8061 18.0459 14.8061 18.0459C14.8061 18.0459 14.3791 18.2103 14.5217 18.5937C14.6642 18.9771 14.9891 18.9771 14.9891 18.9771C14.9891 18.9771 15.2271 19.3195 15.4559 19.2047C15.6847 19.09 15.8291 18.9771 15.8291 18.9771C15.8291 18.9771 16.0192 19.3615 16.2402 19.4236V19.4321C16.25 19.4321 16.2599 19.4313 16.2696 19.4299C16.2794 19.4313 16.2892 19.4321 16.2991 19.4321V19.4236Z" fill="#BF9937"/>
<path d="M12.1102 15.9978L12.2153 15.7437C13.423 16.2614 14.7973 16.5206 16.3392 16.5206C17.8802 16.5206 19.2176 16.2616 20.3521 15.7449L20.4627 15.9966C19.2913 16.5301 17.9165 16.7963 16.3392 16.7963C14.7626 16.7963 13.3526 16.5304 12.1102 15.9978Z" fill="#805440"/>
</g>
<defs>
<clipPath id="clip0_30_17987">
<rect width="32" height="24" fill="white"/>
</clipPath>
</defs>
</svg>
