<svg width="32" height="24" viewBox="0 0 32 24" fill="none" xmlns="http://www.w3.org/2000/svg">
<g clip-path="url(#clip0_30_17905)">
<rect width="32" height="24" fill="white"/>
<path fill-rule="evenodd" clip-rule="evenodd" d="M22 0H32V24H22V0Z" fill="#67BD38"/>
<path fill-rule="evenodd" clip-rule="evenodd" d="M10 0H22V24H10V0Z" fill="#D51700"/>
<path fill-rule="evenodd" clip-rule="evenodd" d="M0 0H10V24H0V0Z" fill="#272727"/>
<path fill-rule="evenodd" clip-rule="evenodd" d="M12.4877 7.97685L12.8337 8.19401C12.2571 9.16449 11.8698 10.0538 11.6695 10.8622C11.7543 10.9403 11.8074 11.0088 11.8616 11.1028C12.0181 11.3737 12.1496 11.6368 12.2563 11.892L11.7964 12.0878C11.7242 11.915 11.6392 11.7374 11.5412 11.5549C11.4944 11.9492 11.4976 12.3218 11.5506 12.6728C11.6347 12.6814 11.7053 12.6991 11.787 12.7288C12.081 12.8358 12.3508 12.9527 12.5966 13.0797L12.3702 13.5253C12.1607 13.417 11.9306 13.316 11.6799 13.2222L11.6848 13.2374C11.8986 13.8833 12.2257 14.4776 12.6671 15.0205C12.736 15.0056 12.8003 15 12.8754 15C13.1883 15 13.4819 15.0176 13.7562 15.0528L13.6958 15.549C13.5091 15.525 13.3116 15.5098 13.1033 15.5034C13.5 15.9003 13.9656 16.2663 14.5006 16.6016L14.2895 16.9574C13.6261 16.5416 13.0614 16.078 12.5963 15.5669C12.5356 15.5906 12.4618 15.6219 12.3679 15.663L12.3325 15.6783C12.7386 16.104 13.2186 16.4955 13.7731 16.853L13.5576 17.206C12.9169 16.7929 12.3684 16.334 11.9128 15.8296C11.6953 15.8854 11.5119 15.8842 11.2973 15.8213L11.4309 15.3405C11.4631 15.35 11.4947 15.357 11.5264 15.3615C11.1033 14.7985 10.7845 14.1845 10.5707 13.5199C10.533 13.4025 10.5006 13.283 10.4737 13.1614C10.308 13.1298 10.1682 13.0676 10.0231 12.9608L10.3131 12.5547C10.3381 12.5731 10.3633 12.5894 10.3893 12.6036C10.3373 11.9911 10.4089 11.33 10.603 10.6202C10.4814 10.4803 10.4071 10.3353 10.3613 10.1468L10.7861 10.0371C11.015 9.38876 11.3388 8.70274 11.7567 7.97909L12.1053 8.19177C11.6496 8.98086 11.3119 9.71803 11.0913 10.4034C11.1532 10.4595 11.2288 10.5196 11.3214 10.5883C11.543 9.78223 11.9323 8.91168 12.4877 7.97685ZM11.1982 11.1185C11.1533 11.0835 11.0993 11.0431 11.0337 10.9947C11.0022 10.9715 10.972 10.9489 10.9431 10.9267C10.7887 11.5626 10.7432 12.1502 10.8056 12.6895C10.88 12.6901 10.9644 12.6869 11.0617 12.6807L11.141 12.6759C11.0749 12.1893 11.0942 11.6701 11.1982 11.1185ZM11.0833 13.1782C11.1426 13.1745 11.1945 13.1715 11.2403 13.1693C11.2587 13.2374 11.2789 13.3048 11.301 13.3715C11.5155 14.0197 11.8355 14.6183 12.2602 15.167L12.1775 15.2029C12.1065 15.2339 12.0427 15.2603 11.9842 15.2824C11.5195 14.7081 11.177 14.0772 10.9556 13.3891C10.9342 13.3226 10.9148 13.2552 10.8973 13.187C10.9557 13.1854 11.0175 13.1824 11.0833 13.1782Z" fill="#F7FCFF"/>
<path fill-rule="evenodd" clip-rule="evenodd" d="M19.499 7.97685L19.153 8.19401C19.7296 9.16449 20.1169 10.0538 20.3172 10.8622C20.2325 10.9403 20.1794 11.0088 20.1251 11.1028C19.9687 11.3737 19.8371 11.6368 19.7305 11.892L20.1903 12.0878C20.2625 11.915 20.3476 11.7374 20.4455 11.5549C20.4924 11.9492 20.4892 12.3218 20.4362 12.6728C20.3521 12.6814 20.2815 12.6991 20.1998 12.7288C19.9058 12.8358 19.6359 12.9527 19.3902 13.0797L19.6166 13.5253C19.8261 13.417 20.0562 13.316 20.3069 13.2222L20.3019 13.2374C20.0882 13.8833 19.7611 14.4776 19.3197 15.0205C19.2507 15.0056 19.1865 15 19.1113 15C18.7985 15 18.5049 15.0176 18.2305 15.0528L18.2909 15.549C18.4776 15.525 18.6752 15.5098 18.8834 15.5034C18.4868 15.9003 18.0212 16.2663 17.4861 16.6016L17.6972 16.9574C18.3607 16.5416 18.9253 16.078 19.3905 15.5669C19.4511 15.5906 19.5249 15.6219 19.6189 15.663L19.6542 15.6783C19.2482 16.104 18.7682 16.4955 18.2137 16.853L18.4291 17.206C19.0699 16.7929 19.6184 16.334 20.074 15.8296C20.2915 15.8854 20.4749 15.8842 20.6894 15.8213L20.5559 15.3405C20.5236 15.35 20.4921 15.357 20.4604 15.3615C20.8835 14.7985 21.2023 14.1845 21.416 13.5199C21.4538 13.4025 21.4861 13.283 21.5131 13.1614C21.6788 13.1298 21.8185 13.0676 21.9636 12.9608L21.6737 12.5547C21.6487 12.5731 21.6235 12.5894 21.5975 12.6036C21.6494 11.9911 21.5779 11.33 21.3838 10.6202C21.5053 10.4803 21.5797 10.3353 21.6254 10.1468L21.2007 10.0371C20.9718 9.38876 20.648 8.70274 20.23 7.97909L19.8814 8.19177C20.3372 8.98086 20.6748 9.71803 20.8954 10.4034C20.8336 10.4595 20.758 10.5196 20.6653 10.5883C20.4438 9.78223 20.0544 8.91168 19.499 7.97685ZM20.7886 11.1185C20.8335 11.0835 20.8875 11.0431 20.9531 10.9947C20.9846 10.9715 21.0147 10.9489 21.0436 10.9267C21.198 11.5626 21.2436 12.1502 21.1811 12.6895C21.1067 12.6901 21.0224 12.6869 20.925 12.6807L20.8457 12.6759C20.9118 12.1893 20.8926 11.6701 20.7886 11.1185ZM20.9035 13.1782C20.8441 13.1745 20.7922 13.1715 20.7464 13.1693C20.728 13.2374 20.7078 13.3048 20.6858 13.3715C20.4712 14.0197 20.1513 14.6183 19.7266 15.167L19.8093 15.2029C19.8802 15.2339 19.9441 15.2603 20.0025 15.2824C20.4673 14.7081 20.8098 14.0772 21.0311 13.3891C21.0525 13.3226 21.072 13.2552 21.0895 13.187C21.0311 13.1854 20.9693 13.1824 20.9035 13.1782Z" fill="#F7FCFF"/>
<path fill-rule="evenodd" clip-rule="evenodd" d="M14.253 16.2641L13.1367 17.3687C13.1367 17.3687 14.0994 17.9582 15.9137 17.9582C17.728 17.9582 18.7844 17.3687 18.7844 17.3687L17.9358 16.2641C17.9358 16.2641 16.7795 16.7122 15.9606 16.7122C15.1416 16.7122 14.253 16.2641 14.253 16.2641Z" fill="#F7FCFF"/>
<path d="M14.2764 16.969C14.2764 16.969 15.2215 17.192 15.946 17.192C16.6705 17.192 17.6156 16.969 17.6156 16.969" stroke="#C00001" stroke-width="0.5"/>
<path fill-rule="evenodd" clip-rule="evenodd" d="M16.8919 9.45833C16.8919 9.89556 16.4926 10.25 16 10.25C15.5075 10.25 15.1081 9.89556 15.1081 9.45833C15.1081 9.02111 15.5075 8.66667 16 8.66667C16.4926 8.66667 16.8919 9.02111 16.8919 9.45833ZM16 10.25H15.0398L14.7754 10.4527H14.7238V8.868H14.2373V10.4527H13.8108V10.723H14.2373V13.5806C14.1797 14.0371 14.0463 14.2952 13.8594 14.3848L12.8663 14.8614H18.8437L18.4141 14.4321C18.0368 14.0551 17.8564 13.7652 17.8564 13.5964V10.723H18.0271V10.4527H17.8564V8.868H17.37V10.4527H17.2128L16.8993 10.25H16ZM14.7238 10.723H17.37V13.5964C17.37 13.8282 17.4795 14.0797 17.6935 14.3614H14.5232C14.6211 14.1643 14.6866 13.9185 14.7238 13.612V10.723ZM16.0811 12H15.0271V14.0833H17.1352L16.0811 12Z" fill="#F7FCFF"/>
<path fill-rule="evenodd" clip-rule="evenodd" d="M17.1696 6.15617L17.1715 6.1592L17.171 6.15806L17.1696 6.15617ZM18.7109 6.69779L18.7118 6.70709L18.7112 6.70032L18.7109 6.69779ZM19.0101 6.73469L19.0117 6.73013L19.011 6.73237L19.0101 6.73469ZM17.7984 7.34836L17.804 7.34831L17.8013 7.34865L17.7984 7.34836Z" fill="#F7FCFF"/>
<path fill-rule="evenodd" clip-rule="evenodd" d="M12.9929 10.6681L12.7936 10.8115L12.9991 11.113C12.8231 11.1762 12.5401 11.3361 12.5401 11.712C12.5401 12.2575 12.3485 12.7044 12.3485 12.7044L12.9207 13.0719C12.9207 13.0719 12.9804 12.4357 13.1362 12.0738C13.2143 11.8924 13.3358 11.802 13.4377 11.7569L14.3272 13.0625L14.5264 12.9191L12.9929 10.6681Z" fill="#F7FCFF"/>
<path fill-rule="evenodd" clip-rule="evenodd" d="M19.0713 10.6681L19.2705 10.8115L19.0651 11.113C19.2411 11.1762 19.5241 11.3361 19.5241 11.712C19.5241 12.2575 19.7156 12.7044 19.7156 12.7044L19.1434 13.0719C19.1434 13.0719 19.0837 12.4357 18.928 12.0738C18.8499 11.8924 18.7283 11.802 18.6265 11.7569L17.737 13.0625L17.5377 12.9191L19.0713 10.6681Z" fill="#F7FCFF"/>
</g>
<defs>
<clipPath id="clip0_30_17905">
<rect width="32" height="24" fill="white"/>
</clipPath>
</defs>
</svg>
