<svg width="32" height="24" viewBox="0 0 32 24" fill="none" xmlns="http://www.w3.org/2000/svg">
<g clip-path="url(#clip0_30_17906)">
<rect width="32" height="24" fill="white"/>
<path fill-rule="evenodd" clip-rule="evenodd" d="M0 0V24H32V0H0Z" fill="#2E42A5"/>
<mask id="mask0_30_17906" style="mask-type:luminance" maskUnits="userSpaceOnUse" x="0" y="0" width="32" height="24">
<path fill-rule="evenodd" clip-rule="evenodd" d="M0 0V24H32V0H0Z" fill="white"/>
</mask>
<g mask="url(#mask0_30_17906)">
<path fill-rule="evenodd" clip-rule="evenodd" d="M20.9431 11.8562L20.9462 12.2067C20.9732 15.1566 21.082 17.0865 21.2756 18.011C21.4365 18.7788 22.0209 20.0518 22.7083 21.0726C23.5725 22.3561 24.4946 23.1368 25.3771 23.1368C26.2628 23.1368 27.1856 22.4108 28.0461 21.2011C28.7524 20.2082 29.3573 18.9486 29.5982 18.0204C29.8963 16.8714 30.0352 14.9356 30.0184 12.2036L30.0162 11.8556L29.6983 12.0202C29.0576 12.3519 28.3678 12.5174 27.6257 12.5174C26.8922 12.5174 26.1843 12.2982 25.4977 11.8563L25.38 11.7805L25.2605 11.8538C24.536 12.2979 23.8551 12.5174 23.2169 12.5174C22.5706 12.5174 21.9205 12.3521 21.2647 12.0194L20.9431 11.8562ZM21.4886 17.9695C21.2987 17.0627 21.1903 15.1411 21.1635 12.2048C21.8496 12.5529 22.5341 12.7269 23.2169 12.7269C23.8997 12.7269 24.6198 12.4948 25.3771 12.0306C26.0984 12.4948 26.848 12.7269 27.6257 12.7269C28.4035 12.7269 29.1286 12.5529 29.8011 12.2048C29.8179 14.9205 29.68 16.8421 29.3874 17.9695C28.9486 19.6607 27.1083 22.9273 25.3771 22.9273C23.6459 22.9273 21.7736 19.3298 21.4886 17.9695Z" fill="#FBE625"/>
<path fill-rule="evenodd" clip-rule="evenodd" d="M21.1635 12.2048C21.1635 12.2048 21.2037 16.6093 21.4886 17.9695C21.7735 19.3298 23.6458 22.9273 25.3771 22.9273C27.1083 22.9273 28.9486 19.6607 29.3874 17.9695C29.8262 16.2783 29.8011 12.2048 29.8011 12.2048C29.8011 12.2048 28.7924 12.7269 27.6257 12.7269C26.4591 12.7269 25.3771 12.0306 25.3771 12.0306C25.3771 12.0306 24.2411 12.7269 23.2169 12.7269C22.1926 12.7269 21.1635 12.2048 21.1635 12.2048Z" fill="#F5FBFF"/>
<mask id="mask1_30_17906" style="mask-type:luminance" maskUnits="userSpaceOnUse" x="21" y="12" width="9" height="11">
<path fill-rule="evenodd" clip-rule="evenodd" d="M21.1635 12.2048C21.1635 12.2048 21.2037 16.6093 21.4886 17.9695C21.7735 19.3298 23.6458 22.9273 25.3771 22.9273C27.1083 22.9273 28.9486 19.6607 29.3874 17.9695C29.8262 16.2783 29.8011 12.2048 29.8011 12.2048C29.8011 12.2048 28.7924 12.7269 27.6257 12.7269C26.4591 12.7269 25.3771 12.0306 25.3771 12.0306C25.3771 12.0306 24.2411 12.7269 23.2169 12.7269C22.1926 12.7269 21.1635 12.2048 21.1635 12.2048Z" fill="white"/>
</mask>
<g mask="url(#mask1_30_17906)">
<path fill-rule="evenodd" clip-rule="evenodd" d="M24.6399 15.4883C24.6399 15.776 24.2288 16.6134 23.9907 16.8277C23.8144 16.9863 23.8689 16.6179 23.909 16.3459L23.909 16.3459C23.9231 16.2504 23.9355 16.1668 23.9355 16.1221L23.9355 16.1025C23.9356 16.046 23.9356 16.0152 23.9299 15.9855C23.9232 15.9499 23.9082 15.9159 23.8754 15.8411L23.8754 15.8411C23.863 15.8131 23.8482 15.7793 23.8303 15.7376C23.4488 14.9237 23.7188 14.534 23.8387 14.3609C23.857 14.3344 23.8719 14.313 23.8803 14.2959C23.8984 14.2593 23.9325 14.2264 23.9705 14.1897C24.0663 14.0974 24.1871 13.9808 24.1415 13.7195C24.0779 13.3544 24.464 12.886 24.464 12.886C24.464 12.886 24.3703 13.7944 24.8141 13.5718C25.1025 13.4272 25.6252 13.6347 26.0901 13.8193C26.3404 13.9187 26.574 14.0114 26.7452 14.039C27.0911 14.0946 27.2805 13.9493 27.3977 13.8594C27.4463 13.8221 27.4825 13.7944 27.5123 13.7944C27.614 13.7944 27.734 13.8147 27.734 13.889C27.734 13.9632 27.2785 14.1805 27.0496 14.2483C26.877 14.2994 27.0541 14.4402 27.2024 14.5581C27.2509 14.5967 27.2964 14.6328 27.3255 14.6626C27.4437 14.7833 27.5521 15.4416 27.2785 15.0275C27.005 14.6133 26.4227 14.3364 25.9278 14.2959C25.4329 14.2553 24.8089 14.631 24.734 15.0275C24.659 15.424 25.3194 15.3513 25.3194 15.3513C25.3194 15.3513 25.2712 15.4131 25.0582 15.4883C24.8452 15.5634 24.6399 15.4883 24.6399 15.4883ZM24.142 15.4571C24.142 15.515 24.0934 15.5619 24.0334 15.5619C23.9734 15.5619 23.9247 15.515 23.9247 15.4571C23.9247 15.3993 23.9734 15.3524 24.0334 15.3524C24.0934 15.3524 24.142 15.3993 24.142 15.4571ZM26.582 17.4011C26.2792 17.2967 25.3474 17.3432 25.0958 17.4827C25.0958 17.4827 25.0619 17.2666 24.893 17.1168C24.724 16.9669 24.6466 16.9547 24.6466 16.9547C24.6466 16.9547 25.0303 17.4971 24.6472 17.6238C24.264 17.7504 23.6329 17.3868 23.4285 16.9343C23.224 16.4818 23.1839 15.8382 23.4135 15.3982C23.6431 14.9582 23.1199 15.3721 23.0716 15.5341C23.0597 15.574 23.0501 15.6312 23.0399 15.6923C23.0087 15.8793 22.9714 16.1024 22.8431 15.9762C22.6728 15.8088 22.2619 15.5159 22.197 15.5518C22.1321 15.5878 22.1724 15.7026 22.2217 15.7916C22.2361 15.8176 22.278 15.8358 22.3341 15.8603C22.4696 15.9192 22.6885 16.0145 22.8075 16.3439C22.8665 16.507 22.8986 16.7563 22.933 17.0234C22.997 17.5195 23.0688 18.0773 23.3352 18.2594C23.745 18.5396 22.905 18.8981 22.905 18.8981C22.905 18.8981 23.5019 19.0087 23.7904 18.776C23.9969 18.6095 24.1574 18.6587 24.2846 18.6976C24.3351 18.7131 24.3804 18.727 24.4212 18.7251C24.4402 18.7242 24.4661 18.7268 24.4982 18.73C24.7077 18.7509 25.1794 18.7981 25.7063 18.0698C25.7341 18.034 25.7564 18.0047 25.775 17.9803L25.775 17.9802C25.8245 17.9153 25.847 17.8857 25.8749 17.8625C25.8981 17.8432 25.925 17.8283 25.9744 17.8009L25.9745 17.8009L25.9745 17.8009L25.9916 17.7914C26.0308 17.7697 26.1098 17.74 26.2002 17.7061L26.2002 17.7061L26.2002 17.7061C26.4576 17.6094 26.8062 17.4783 26.582 17.4011ZM25.3288 17.8816C25.3794 17.8536 25.444 17.8734 25.4731 17.9259C25.5022 17.9783 25.4847 18.0436 25.4341 18.0717C25.3835 18.0997 25.3189 18.0799 25.2898 18.0275C25.2607 17.975 25.2782 17.9097 25.3288 17.8816ZM25.8418 14.8743C25.9192 15.1852 26.4657 15.9412 26.7197 16.0763C26.7197 16.0763 26.557 16.2224 26.5233 16.4457C26.4897 16.669 26.5216 16.7406 26.5216 16.7406C26.5216 16.7406 26.7675 16.1234 27.0824 16.3757C27.3973 16.628 27.436 17.3554 27.1679 17.7733C26.8997 18.1912 26.3819 18.5754 25.8878 18.6224C25.3937 18.6695 26.0258 18.8829 26.1879 18.8352C26.2279 18.8235 26.2811 18.8003 26.3379 18.7756C26.5117 18.7 26.7191 18.6097 26.6832 18.7861C26.6356 19.0201 26.6136 19.5242 26.6792 19.5591C26.7448 19.5939 26.819 19.4976 26.8668 19.4078C26.8808 19.3815 26.8733 19.3365 26.8632 19.2761C26.8388 19.1303 26.7995 18.8949 27.011 18.6156C27.1156 18.4774 27.3072 18.3147 27.5125 18.1403C27.8937 17.8165 28.3224 17.4524 28.33 17.1298C28.3419 16.6335 29.1 17.1427 29.1 17.1427C29.1 17.1427 28.8677 16.5819 28.5154 16.4667C28.2632 16.3842 28.2171 16.2228 28.1805 16.095C28.166 16.0441 28.153 15.9986 28.1291 15.9654C28.118 15.95 28.1061 15.9268 28.0913 15.8982C27.9947 15.711 27.7773 15.2897 26.8796 15.2445C26.8344 15.2407 26.7976 15.2379 26.7671 15.2357C26.6856 15.2296 26.6486 15.2268 26.614 15.2161C26.5851 15.2071 26.5579 15.1926 26.5081 15.1661C26.5026 15.1631 26.4968 15.1601 26.4908 15.1568C26.4513 15.1358 26.3833 15.0857 26.3056 15.0284L26.3056 15.0284C26.0843 14.8652 25.7845 14.6442 25.8418 14.8743ZM26.9619 15.7034C26.9108 15.6762 26.8922 15.6112 26.9204 15.5583C26.9486 15.5053 27.0128 15.4844 27.0639 15.5115C27.115 15.5387 27.1336 15.6037 27.1054 15.6566C27.0772 15.7096 27.013 15.7305 26.9619 15.7034Z" fill="#FF9800"/>
<path fill-rule="evenodd" clip-rule="evenodd" d="M21.426 19.7524H28.705V23.2095H21.426V19.7524Z" fill="#36C6FF"/>
</g>
<g clip-path="url(#clip1_30_17906)">
<rect width="18" height="14" fill="#2E42A5"/>
<path d="M-2.00421 12.9998L1.95674 14.737L18.0899 1.88877L20.1792 -0.69276L15.9436 -1.27338L9.36323 4.26331L4.06673 7.99374L-2.00421 12.9998Z" fill="#F7FCFF"/>
<path d="M-1.46198 14.217L0.555946 15.2251L19.429 -0.932613H16.5956L-1.46198 14.217Z" fill="#F50100"/>
<path d="M20.0043 12.9998L16.0434 14.737L-0.0898132 1.88877L-2.17912 -0.69276L2.05654 -1.27338L8.63689 4.26331L13.9334 7.99374L20.0043 12.9998Z" fill="#F7FCFF"/>
<path d="M19.8692 13.8734L17.8513 14.8815L9.81495 7.96354L7.43235 7.19061L-2.38014 -0.68392H0.453255L10.2602 7.0037L12.8652 7.93053L19.8692 13.8734Z" fill="#F50100"/>
<path fill-rule="evenodd" clip-rule="evenodd" d="M9.98457 2.86102e-05H7.98457V6.00003H6.10352e-05V8.00003H7.98457V14H9.98457V8.00003H18.0001V6.00003H9.98457V2.86102e-05Z" fill="#F50100"/>
<path fill-rule="evenodd" clip-rule="evenodd" d="M6.48457 2.86102e-05H11.4846V4.50003H18.0001V9.50003H11.4846L11.5001 14H6.50006L6.48457 9.50003H6.10352e-05V4.50003H6.48457V2.86102e-05ZM7.98457 6.00003H6.10352e-05V8.00003H7.98457V14H9.98457V8.00003H18.0001V6.00003H9.98457V2.86102e-05H7.98457V6.00003Z" fill="#F7FCFF"/>
</g>
</g>
</g>
<defs>
<clipPath id="clip0_30_17906">
<rect width="32" height="24" fill="white"/>
</clipPath>
<clipPath id="clip1_30_17906">
<rect width="18" height="14" fill="white"/>
</clipPath>
</defs>
</svg>
