<svg width="32" height="24" viewBox="0 0 32 24" fill="none" xmlns="http://www.w3.org/2000/svg">
<g clip-path="url(#clip0_30_17922)">
<rect width="32" height="24" fill="white"/>
<path fill-rule="evenodd" clip-rule="evenodd" d="M0 0V24H32V0H0Z" fill="#1D1D1D"/>
<mask id="mask0_30_17922" style="mask-type:luminance" maskUnits="userSpaceOnUse" x="0" y="0" width="32" height="24">
<path fill-rule="evenodd" clip-rule="evenodd" d="M0 0V24H32V0H0Z" fill="white"/>
</mask>
<g mask="url(#mask0_30_17922)">
<path fill-rule="evenodd" clip-rule="evenodd" d="M0 0V12H32V0H0Z" fill="#F50100"/>
<path d="M9.93302 5.89663L10.3598 4.49178C13.56 5.46847 15.4893 7.18072 16.032 9.62346C16.3921 11.244 16.2284 12.6925 15.6462 13.9823C15.2313 14.9013 14.7044 15.5873 13.9468 16.3597C12.6834 17.6476 10.6054 18.4693 8.72927 18.1209C7.42156 17.878 6.2169 17.4193 5.11975 16.7455L5.88521 15.4933C6.82784 16.0723 7.86335 16.4666 8.99619 16.6769C10.3509 16.9286 11.9571 16.2934 12.9021 15.3301C13.5494 14.6702 13.9815 14.1076 14.3113 13.3769C14.7648 12.3723 14.8919 11.2477 14.6019 9.94268C14.1879 8.07898 12.6701 6.73198 9.93302 5.89663Z" fill="#FFEA42"/>
<g filter="url(#filter0_d_30_17922)">
<path fill-rule="evenodd" clip-rule="evenodd" d="M9.84616 9.46429L8.89666 10.1216L9.23163 9.02008L8.30984 8.32479L9.46636 8.30135L9.84616 7.21429L10.226 8.30135L11.3825 8.32479L10.4607 9.02008L10.7957 10.1216L9.84616 9.46429Z" fill="#FCFF01"/>
<path fill-rule="evenodd" clip-rule="evenodd" d="M9.84616 9.46429L8.89666 10.1216L9.23163 9.02008L8.30984 8.32479L9.46636 8.30135L9.84616 7.21429L10.226 8.30135L11.3825 8.32479L10.4607 9.02008L10.7957 10.1216L9.84616 9.46429Z" fill="#FFEA42"/>
</g>
<g filter="url(#filter1_d_30_17922)">
<path fill-rule="evenodd" clip-rule="evenodd" d="M7.61411 9.85974C7.61411 9.85974 5.93026 12.3283 7.25618 13.2308C8.5821 14.1332 15.5933 17.9375 15.5933 17.9375C15.5933 17.9375 17.042 17.9291 17.2482 18.2373C17.4543 18.5455 17.8831 18.908 18.0638 18.908C18.2446 18.908 18.7114 18.5815 18.7114 18.5815C18.7114 18.5815 19.0753 18.2837 18.7114 17.9375C18.3475 17.5912 16.424 16.4056 16.424 16.4056C16.424 16.4056 8.91596 11.6142 8.27753 11.1398C7.6391 10.6654 7.61411 9.85974 7.61411 9.85974Z" fill="#FCFF01"/>
<path fill-rule="evenodd" clip-rule="evenodd" d="M7.61411 9.85974C7.61411 9.85974 5.93026 12.3283 7.25618 13.2308C8.5821 14.1332 15.5933 17.9375 15.5933 17.9375C15.5933 17.9375 17.042 17.9291 17.2482 18.2373C17.4543 18.5455 17.8831 18.908 18.0638 18.908C18.2446 18.908 18.7114 18.5815 18.7114 18.5815C18.7114 18.5815 19.0753 18.2837 18.7114 17.9375C18.3475 17.5912 16.424 16.4056 16.424 16.4056C16.424 16.4056 8.91596 11.6142 8.27753 11.1398C7.6391 10.6654 7.61411 9.85974 7.61411 9.85974Z" fill="#FFEA42"/>
</g>
<path fill-rule="evenodd" clip-rule="evenodd" d="M11.7117 4.0742L11.3219 4.95705L12.6002 5.51044L12.9627 4.62736L11.7117 4.0742ZM14.3245 5.48412L13.6208 6.14447L14.5812 7.15333L15.2599 6.48208L14.3245 5.48412ZM15.286 8.1365L16.1859 7.78787L16.6793 9.06354L15.7986 9.43167L15.286 8.1365ZM17.039 10.6361L16.0744 10.6054L16.0402 11.9979L16.9947 12.0032L17.039 10.6361ZM15.8471 13.1941L16.73 13.5839L16.1768 14.8348L15.2937 14.4723L15.8471 13.1941ZM15.3236 16.202L14.6632 15.4983L13.6544 16.4587L14.3256 17.1374L15.3236 16.202ZM12.6765 17.1671L13.0251 18.067L11.7495 18.5604L11.3813 17.6797L12.6765 17.1671ZM10.1832 18.9214L10.2139 17.9568L8.82139 17.9225L8.81612 18.8771L10.1832 18.9214ZM7.63153 17.7283L7.24172 18.6111L5.99081 18.058L6.35328 17.1749L7.63153 17.7283Z" fill="#FFEA42"/>
</g>
</g>
<defs>
<filter id="filter0_d_30_17922" x="8.30984" y="7.21429" width="3.07263" height="2.90735" filterUnits="userSpaceOnUse" color-interpolation-filters="sRGB">
<feFlood flood-opacity="0" result="BackgroundImageFix"/>
<feColorMatrix in="SourceAlpha" type="matrix" values="0 0 0 0 0 0 0 0 0 0 0 0 0 0 0 0 0 0 127 0" result="hardAlpha"/>
<feOffset/>
<feColorMatrix type="matrix" values="0 0 0 0 0 0 0 0 0 0 0 0 0 0 0 0 0 0 0.2 0"/>
<feBlend mode="normal" in2="BackgroundImageFix" result="effect1_dropShadow_30_17922"/>
<feBlend mode="normal" in="SourceGraphic" in2="effect1_dropShadow_30_17922" result="shape"/>
</filter>
<filter id="filter1_d_30_17922" x="6.74722" y="9.85974" width="12.1259" height="9.04821" filterUnits="userSpaceOnUse" color-interpolation-filters="sRGB">
<feFlood flood-opacity="0" result="BackgroundImageFix"/>
<feColorMatrix in="SourceAlpha" type="matrix" values="0 0 0 0 0 0 0 0 0 0 0 0 0 0 0 0 0 0 127 0" result="hardAlpha"/>
<feOffset/>
<feColorMatrix type="matrix" values="0 0 0 0 0 0 0 0 0 0 0 0 0 0 0 0 0 0 0.2 0"/>
<feBlend mode="normal" in2="BackgroundImageFix" result="effect1_dropShadow_30_17922"/>
<feBlend mode="normal" in="SourceGraphic" in2="effect1_dropShadow_30_17922" result="shape"/>
</filter>
<clipPath id="clip0_30_17922">
<rect width="32" height="24" fill="white"/>
</clipPath>
</defs>
</svg>
