<svg width="32" height="24" viewBox="0 0 32 24" fill="none" xmlns="http://www.w3.org/2000/svg">
<g clip-path="url(#clip0_30_17907)">
<rect width="32" height="24" fill="white"/>
<path fill-rule="evenodd" clip-rule="evenodd" d="M0 0V24H32V0H0Z" fill="#5196ED"/>
<mask id="mask0_30_17907" style="mask-type:luminance" maskUnits="userSpaceOnUse" x="0" y="0" width="32" height="24">
<path fill-rule="evenodd" clip-rule="evenodd" d="M0 0V24H32V0H0Z" fill="white"/>
</mask>
<g mask="url(#mask0_30_17907)">
<path fill-rule="evenodd" clip-rule="evenodd" d="M8.71735 7.89376C8.71735 7.89376 10.7815 9.02624 11.0685 9.33948C11.3555 9.65278 11.8154 10.8032 12.5327 10.1526C13.2501 9.50226 13.9674 10.0079 13.9674 8.9717C13.9674 7.93558 15.0385 5.53204 16.5926 6.13434C18.1468 6.73658 19.4246 6.35982 19.7831 6.6006C20.1419 6.84154 21.0027 8.03802 21.6722 8.03802C22.3419 8.03802 22.6764 8.7367 22.7243 9.74876C22.7719 10.7609 22.5092 10.8576 23.1307 10.9782C23.7526 11.0986 23.9915 11.5566 23.681 12.1589C23.3701 12.7613 23.3938 12.4962 23.4416 13.1228C23.4896 13.7493 22.8202 17.444 20.7634 17.8058C18.7068 18.1671 16.7575 17.9745 17.2838 17.2754C17.8098 16.5768 18.538 15.7727 17.4622 15.604C16.3859 15.4351 15.7078 15.2915 14.6316 15.5806C13.5554 15.8698 12.4316 16.3274 11.7618 15.4602C11.0924 14.5926 11.2361 13.9661 10.686 13.5564C10.1361 13.1468 9.46632 13.2191 10.0166 12.4239C10.5662 11.6287 11.0206 11.9256 10.5662 11.2991C10.1123 10.6728 8.39733 10.3998 8.39733 9.77352C8.39733 9.14674 7.30653 7.77324 8.71735 7.89376Z" fill="#F5F8FB"/>
</g>
</g>
<defs>
<clipPath id="clip0_30_17907">
<rect width="32" height="24" fill="white"/>
</clipPath>
</defs>
</svg>
