<svg width="32" height="24" viewBox="0 0 32 24" fill="none" xmlns="http://www.w3.org/2000/svg">
<g clip-path="url(#clip0_30_17980)">
<rect width="32" height="24" fill="white"/>
<path fill-rule="evenodd" clip-rule="evenodd" d="M0 0H32V24H0V0Z" fill="#F7FCFF"/>
<path d="M0 -1H-1V0V11.307L-2.848 12L-1 12.693V24V25H0H32L32.3511 23.0637L2.848 12L32.3511 0.936329L32 -1H0Z" fill="#3547A0" stroke="#E31D1C" stroke-width="2"/>
<path fill-rule="evenodd" clip-rule="evenodd" d="M29.0224 5.11007C29.0224 5.11007 27.0121 5.65253 26.2852 5.84972C26.1871 5.87632 26 5.9239 26.0134 5.6569C25.5528 5.95251 24.8104 6.2513 24.5061 6.33608C24.3529 6.37874 24.3938 6.11374 24.3284 6.03789C24.1959 6.23326 23.8553 6.5195 23.7586 6.54746C22.8004 6.82475 22.1641 7.02631 21.8499 7.15214C21.8499 7.15214 21.4008 7.58408 21.4008 7.92654C21.4008 8.26899 21.3529 8.56147 21.0438 8.56147C20.7347 8.56147 20.0217 9.18352 20.2829 9.53405C20.544 9.88458 21.4008 9.69793 21.4008 9.53405C21.4008 9.37018 22.0115 9.16516 22.0115 9.34961C22.0115 9.53405 21.8499 9.86766 21.8499 9.86766H22.5242L22.0115 10.1328H22.5242L22.0115 10.4469H22.9714L22.3579 10.7206H22.7835L22.5242 11.0807H23.1891C23.1891 11.0807 23.4479 11.3424 23.6918 11.4855C23.9357 11.6285 24.4764 12.8457 24.206 13.317C23.9357 13.7884 24.2674 13.8585 24.3284 13.6514C24.3895 13.4443 24.5159 13.1476 24.6244 13.1476C24.7329 13.1476 24.9412 13.1476 24.9412 13.1476L25.0884 13.5348L25.4377 13.9081C25.4377 13.9081 25.4625 13.5836 25.5281 13.5348C25.5281 13.5348 25.8008 13.5626 25.933 13.5305C25.933 13.5305 25.8743 13.0587 25.879 12.9952C25.879 12.9952 26.3018 13.1387 26.4829 13.1355C26.4829 13.1355 26.2108 12.71 26.2108 12.5647C26.2108 12.5647 26.7162 12.5905 26.7162 12.8054L26.6602 12.2689C26.6602 12.2689 27.1387 12.0654 27.1554 11.8941L26.8419 11.8558C26.8419 11.8558 27.0047 11.6491 26.9896 11.6083L26.5264 11.5496C26.5264 11.5496 27.0325 11.3734 27.0707 11.2621C27.0707 11.2621 26.9571 11.0836 26.853 11.0136L26.4995 10.7845C26.4995 10.7845 27.2901 10.7896 27.4224 10.7896C27.4224 10.7896 27.629 10.7154 27.47 10.5883C27.47 10.5883 27.3143 10.4947 27.3356 10.4043C27.3356 10.4043 27.4414 10.201 27.4172 10.1657C27.4172 10.1657 27.5301 10.3153 27.5301 9.94547C27.5301 9.94547 27.533 9.57372 27.4618 9.55584C27.4618 9.55584 27.6699 9.40278 27.5881 9.30509C27.5062 9.2074 26.6301 8.94735 26.4205 8.94735L28.0257 7.92991C28.0257 7.92991 28.1369 7.50968 28.2998 7.2585C28.2998 7.2585 28.7264 6.87557 28.8123 6.57551C28.8983 6.27545 29.1404 5.53538 29.1404 5.53538V5.1967L29.0224 5.11007Z" fill="#9C3900"/>
<path fill-rule="evenodd" clip-rule="evenodd" d="M26.2108 12.5647C26.2316 12.5658 26.2518 12.5671 26.2756 12.569C26.5425 12.5906 26.6881 12.6577 26.7125 12.7701L26.7241 12.8701C26.7241 12.8354 26.7203 12.8021 26.7125 12.7701L26.6602 12.2689C26.9792 12.1332 27.1442 12.0083 27.1554 11.8941L26.9164 11.8649L26.893 11.8948L26.8785 11.8602L26.8419 11.8558L26.8644 11.8269L26.8499 11.7926L26.887 11.7971C26.964 11.6944 26.9981 11.6314 26.9896 11.6083L26.6657 11.5672C26.6287 11.581 26.5895 11.5951 26.548 11.6096C26.548 11.6096 26.5362 11.5462 26.541 11.5445L26.5347 11.4864L26.6576 11.502C26.9111 11.406 27.0487 11.3261 27.0707 11.2621C26.995 11.1431 26.9224 11.0603 26.853 11.0136L26.5988 10.8488L26.4991 10.8481C26.4991 10.8481 26.5123 10.7846 26.5187 10.7846L26.5351 10.7313L26.6183 10.7852C27.073 10.7882 27.3411 10.7896 27.4224 10.7896C27.5602 10.7401 27.576 10.673 27.47 10.5883C27.3662 10.5259 27.3214 10.4646 27.3356 10.4043C27.3697 10.3388 27.3936 10.2864 27.4075 10.2471C27.3927 10.2357 27.3784 10.2211 27.3652 10.2036L27.4172 10.1657L27.4708 10.1301C27.4846 10.1502 27.4893 10.1743 27.4854 10.2052C27.5152 10.1872 27.5301 10.1007 27.5301 9.94547C27.5314 9.7798 27.5216 9.66684 27.5005 9.60683L27.4618 9.55584L27.4778 9.49416C27.4921 9.49774 27.5047 9.50389 27.5159 9.51273C27.6107 9.43001 27.6347 9.3608 27.5881 9.30509C27.5161 9.21921 26.8303 9.00784 26.5231 8.958L26.4555 9.00087C26.4555 9.00087 26.4264 8.94735 26.4365 8.93721L26.4205 8.88369C26.4439 8.88369 26.4739 8.88636 26.5089 8.89129L28.0257 7.92991C28.0998 7.64976 28.1912 7.42595 28.2998 7.2585C28.5842 7.00322 28.755 6.77555 28.8123 6.57551C28.8696 6.37547 28.979 6.02876 29.1404 5.53538V5.1967L29.0224 5.11007C27.6822 5.47171 26.7698 5.71826 26.2852 5.84972C26.1871 5.87632 26 5.9239 26.0134 5.6569C25.5528 5.95251 24.8104 6.2513 24.5061 6.33608C24.4081 6.36337 24.3895 6.26475 24.3718 6.17029C24.3618 6.11709 24.352 6.06521 24.3284 6.03789C24.1959 6.23326 23.8553 6.5195 23.7586 6.54746C22.8004 6.82475 22.1641 7.02631 21.8499 7.15214C21.5505 7.4401 21.4008 7.69823 21.4008 7.92654C21.4008 8.26899 21.3529 8.56147 21.0438 8.56147C20.7347 8.56147 20.0217 9.18352 20.2829 9.53405C20.544 9.88458 21.4008 9.69793 21.4008 9.53405C21.4008 9.37018 22.0115 9.16516 22.0115 9.34961C22.0115 9.47257 21.9576 9.64526 21.8499 9.86766H22.3851L22.4941 9.81131L22.51 9.87497L22.5242 9.93133H22.4011L22.0115 10.1328H22.4018L22.49 10.0788L22.5085 10.1425L22.5242 10.1965H22.4203L22.0115 10.4469H22.8147L22.9447 10.389L22.9587 10.4526L22.9714 10.5106H22.8287L22.3579 10.7206H22.7042L22.7307 10.6838L22.75 10.7206H22.7835L22.7641 10.7474L22.7835 10.7842H22.7376L22.5242 11.0807H23.1891C23.3616 11.2552 23.5292 11.3901 23.6918 11.4855C23.9357 11.6285 24.4764 12.8457 24.206 13.317C23.9357 13.7884 24.2674 13.8585 24.3284 13.6514C24.3895 13.4443 24.5159 13.1476 24.6244 13.1476H24.9412L25.0884 13.5348L25.4377 13.9081C25.4377 13.9081 25.4625 13.5836 25.5281 13.5348C25.7099 13.5533 25.8449 13.5519 25.933 13.5305C25.9303 13.5082 25.9276 13.4866 25.925 13.4656C25.9014 13.2744 25.8847 13.1396 25.8579 13.0554L25.879 12.9952C25.879 12.9952 25.9432 13.0093 25.9434 13.0167C26.1917 13.0978 26.3715 13.1374 26.4829 13.1355C26.3355 12.905 26.248 12.7361 26.2178 12.6186C26.2131 12.5983 26.2108 12.5803 26.2108 12.5647ZM26.5049 11.4895L26.2491 11.5785L26.9026 11.6615C26.8794 11.6997 26.8421 11.7517 26.7908 11.8168L26.7212 11.9052L27.0644 11.9471C27.0086 12.0211 26.8659 12.1121 26.6346 12.2105L26.5911 12.229L26.6282 12.5851C26.5326 12.5375 26.3935 12.5103 26.2141 12.5012L26.1461 12.4977V12.5647C26.1461 12.6638 26.2174 12.8259 26.3605 13.061C26.2474 13.0426 26.0934 13.0006 25.9 12.935L25.8205 12.908L25.8144 12.9906C25.8111 13.0362 25.8266 13.1941 25.8614 13.4784C25.7825 13.4877 25.6732 13.4856 25.5347 13.4715L25.489 13.4841C25.4434 13.5181 25.4191 13.5911 25.3983 13.7073C25.395 13.7253 25.3921 13.7437 25.3893 13.7624L25.1445 13.5009L24.9861 13.0839H24.6244C24.4849 13.0839 24.3569 13.3265 24.2663 13.6337C24.2493 13.6915 24.2068 13.7096 24.1864 13.6914C24.1457 13.6552 24.1561 13.5335 24.2624 13.3483C24.3966 13.1143 24.3603 12.7123 24.203 12.2576C24.068 11.8676 23.8661 11.5136 23.7249 11.4308C23.5675 11.3385 23.4043 11.2071 23.2355 11.0363L23.2164 11.0171H22.6493L22.9086 10.6569H22.6573L23.2708 10.3833H22.2378L22.7505 10.0692H22.2736L22.7863 9.804H21.9506C22.0341 9.61661 22.0762 9.46584 22.0762 9.34961C22.0762 9.26587 22.0118 9.22069 21.9208 9.21408C21.8559 9.20937 21.7727 9.22305 21.6862 9.25065C21.4905 9.31306 21.3361 9.41925 21.3361 9.53405C21.3361 9.53882 21.3028 9.56676 21.2377 9.59383C21.1573 9.62724 21.0476 9.6528 20.9336 9.66358C20.6652 9.68895 20.4358 9.63166 20.335 9.49641C20.2397 9.36849 20.3051 9.16709 20.4973 8.95915C20.6727 8.76946 20.913 8.62513 21.0438 8.62513C21.216 8.62513 21.3333 8.54496 21.3976 8.39755C21.4473 8.28372 21.4655 8.13665 21.4655 7.92654C21.4655 7.72095 21.604 7.47994 21.886 7.20642C22.2017 7.08133 22.8326 6.88178 23.7769 6.60853C23.881 6.57842 24.1469 6.35553 24.3099 6.19102C24.3235 6.26321 24.3337 6.29971 24.3554 6.33498C24.3913 6.39321 24.4512 6.41753 24.5237 6.39734C24.8831 6.29722 25.5375 6.01675 25.9562 5.76732C25.9736 5.84899 26.0182 5.90203 26.0877 5.92401C26.151 5.94405 26.2082 5.93664 26.3024 5.91109C26.7833 5.78064 27.6855 5.53684 29.009 5.17969L29.0757 5.22863V5.52539C28.9158 6.01442 28.8073 6.35853 28.7501 6.55824C28.6967 6.74467 28.5325 6.96346 28.2453 7.22425C28.1358 7.39303 28.0441 7.61481 27.9695 7.88978L26.2006 9.01101H26.4205C26.6206 9.01101 27.474 9.26896 27.5381 9.34558C27.5608 9.37262 27.5361 9.42174 27.4231 9.50485L27.3147 9.58458L27.4346 9.61478C27.4403 9.62628 27.446 9.64596 27.4507 9.67301C27.4613 9.7335 27.4663 9.82453 27.4654 9.94498C27.4654 10.0405 27.4593 10.1074 27.4499 10.1411C27.4499 10.1411 27.3599 10.1882 27.3569 10.1875L27.3569 10.1872L27.3568 10.1874C27.3559 10.195 27.3529 10.207 27.3476 10.2227C27.3352 10.259 27.3119 10.3101 27.2725 10.39C27.2506 10.4831 27.3102 10.5658 27.4325 10.6403C27.4918 10.688 27.4914 10.6965 27.4109 10.7259C27.3097 10.7258 27.0059 10.7241 26.5 10.7208L26.2815 10.7194L26.8175 11.0667C26.8711 11.1029 26.9306 11.1682 26.9937 11.2621C26.9744 11.2804 26.9381 11.3055 26.8849 11.3335C26.7976 11.3797 26.6707 11.4318 26.5049 11.4895ZM27.3569 10.1875L27.3571 10.1896L27.3568 10.1879L27.3568 10.1875L27.3569 10.1875Z" fill="#212121"/>
<path fill-rule="evenodd" clip-rule="evenodd" d="M27.4068 10.7921C27.4068 10.7921 29.3153 11.0462 29.4308 11.0462C29.5462 11.0462 30.0266 10.924 29.8621 10.1552C29.6976 9.38642 29.7645 8.92137 29.2936 8.92137C28.8226 8.92137 28.3315 9.12597 28.1548 9.12597C27.9781 9.12597 28.149 9.12597 27.4068 9.12597C26.6645 9.12597 22.2429 9.10044 21.9245 9.45508C21.6061 9.80972 20.7106 10.3099 20.2958 10.4864C19.881 10.6628 19.7747 10.5395 19.5882 11.0462C19.4017 11.5528 19.263 11.5881 19.263 11.5881L19.5882 11.9508H20.5547C20.5547 11.9508 21.2202 11.1158 22.6018 11.0462C23.9833 10.9766 27.4068 10.7921 27.4068 10.7921Z" fill="white"/>
<path fill-rule="evenodd" clip-rule="evenodd" d="M22.6018 11.0462C23.5228 10.9998 25.1245 10.9151 27.4068 10.7921C28.6791 10.9615 29.3538 11.0462 29.4308 11.0462C29.5462 11.0462 30.0266 10.924 29.8621 10.1552C29.8242 9.9781 29.7986 9.81712 29.7758 9.67423C29.6999 9.19684 29.656 8.92137 29.2936 8.92137C29.0015 8.92137 28.7017 9.00005 28.474 9.05983C28.3344 9.09644 28.2219 9.12597 28.1548 9.12597H27.4068C27.3685 9.12597 27.3205 9.1259 27.2638 9.12582C26.2198 9.12435 22.2265 9.11871 21.9245 9.45508C21.6061 9.80972 20.7106 10.3099 20.2958 10.4864C20.1898 10.5314 20.104 10.557 20.0318 10.5784C19.8214 10.6409 19.727 10.669 19.5882 11.0462C19.4639 11.3839 19.3555 11.5646 19.263 11.5881L19.5882 11.9508H20.5547C20.9984 11.3941 21.6807 11.0926 22.6018 11.0462ZM20.5081 11.8553H19.632L19.4075 11.6048C19.4978 11.5118 19.5839 11.3382 19.6794 11.0787C19.7159 10.9796 19.7487 10.9067 19.7805 10.8531C19.8385 10.7554 19.8843 10.724 20.0071 10.6857C20.0097 10.6849 20.0194 10.682 20.0327 10.678C20.0663 10.6679 20.1232 10.6508 20.1476 10.643C20.2119 10.6225 20.2713 10.6008 20.3343 10.574C20.88 10.3419 21.7098 9.8384 21.9972 9.51831C22.0511 9.45828 22.3806 9.39015 22.8984 9.3415C23.366 9.29755 23.9813 9.26676 24.7119 9.24717C25.5258 9.22535 26.2786 9.21996 27.2247 9.22126C27.22 9.22125 27.3053 9.22137 27.3259 9.22139L27.4068 9.22146H28.1548C28.2056 9.22146 28.2685 9.2102 28.3645 9.18666C28.3884 9.1808 28.4562 9.16319 28.5195 9.14675C28.57 9.13365 28.6175 9.1213 28.6378 9.1162C28.8641 9.05939 29.0413 9.02732 29.2131 9.01889C29.2404 9.01754 29.2673 9.01686 29.2936 9.01686C29.5207 9.01686 29.5867 9.12353 29.6597 9.56358C29.6623 9.57928 29.6694 9.62318 29.6773 9.6726C29.6878 9.7378 29.6998 9.81259 29.7052 9.84488C29.7253 9.96548 29.7446 10.0697 29.7671 10.1749C29.8344 10.4894 29.7929 10.6988 29.6788 10.8257C29.6045 10.9082 29.4982 10.9507 29.4308 10.9507C29.361 10.9507 28.6747 10.8645 27.4015 10.6968C25.1193 10.8197 23.5177 10.9044 22.5968 10.9508C21.6696 10.9975 20.9709 11.2986 20.5081 11.8553Z" fill="#4D4D4D"/>
<path fill-rule="evenodd" clip-rule="evenodd" d="M19.507 11.3993C19.507 11.3993 18.779 11.8662 19.0462 12.18C19.3135 12.4937 19.3399 12.5335 19.3932 12.5335C19.3932 12.5335 19.4075 12.1976 19.4937 12.1976C19.5799 12.1976 20.2626 12.5238 20.5101 11.9724C20.7576 11.4209 19.507 11.3993 19.507 11.3993Z" fill="#FFC221"/>
<path fill-rule="evenodd" clip-rule="evenodd" d="M17.9221 12.9209L19.5976 12.6105L20.2403 13.3063L20.4257 12.6836L20.8864 12.7967V13.111H21.0564V13.5423L22.2612 13.7942L22.4124 13.381C22.4124 13.381 22.8047 14.0284 23.4074 13.9962C24.01 13.9639 24.1175 14.1347 24.2235 13.6562C24.3295 13.1778 24.625 12.9209 24.625 12.9209L25.3282 13.1577C25.3282 13.1577 24.5556 14.1066 24.925 14.4048L27.6788 15.042L27.57 15.3755H27.2539L27.3392 15.6628L24.3299 15.4549C24.3299 15.4549 23.9945 15.8798 23.9945 15.7713C23.9945 15.6628 23.9763 15.6628 23.8281 15.6628C23.68 15.6628 23.6031 15.4549 23.6031 15.4549L23.4074 15.5303C23.4074 15.5303 23.4369 15.5343 23.1908 15.4549C22.9446 15.3755 22.8004 15.3755 22.8004 15.3755L21.784 15.3006V15.4549C21.784 15.4549 21.5148 15.4684 21.6082 15.5303C21.7017 15.5922 23.6031 15.6628 23.6031 15.6628L23.4873 15.8765C23.4873 15.8765 24.4273 15.8798 24.625 15.7713C24.8226 15.6628 24.6955 16.0117 24.6955 16.0117H25.6293C25.6293 16.0117 25.3977 16.231 25.1008 16.231C24.804 16.231 25.953 16.5954 25.953 16.5954C25.953 16.5954 25.3116 16.7945 25.0145 16.6628C24.7175 16.5312 25.1406 16.9173 25.3282 17.0148C25.5158 17.1123 24.6683 17.1036 24.3299 16.7273C24.3299 16.7273 24.4362 17.0061 24.3299 17.0858C24.3299 17.0858 23.7369 16.3873 23.4407 16.3873C23.1446 16.3873 23.4873 16.8478 23.4873 16.8478C23.4873 16.8478 23.3181 16.607 23.1292 16.7048C22.9403 16.8026 22.8004 16.9134 22.8004 16.9134C22.8004 16.9134 22.6766 16.4867 22.0223 16.3102C21.3679 16.1338 21.5875 16.069 21.0564 16.0117C20.5254 15.9545 20.4986 15.6628 20.4257 15.6628C20.3528 15.6628 19.7911 15.1714 19.7911 15.1714C19.7911 15.1714 19.6662 14.7104 19.959 14.7104C20.2518 14.7104 20.7163 14.5726 20.8864 14.7104C21.0564 14.8482 21.1283 14.7104 21.1283 14.7104H21.4276L21.8564 15.042H22.7072C22.7072 15.042 22.8703 14.7901 23.1292 14.7104C23.3881 14.6306 23.1292 14.4048 23.1292 14.4048C23.1292 14.4048 22.5114 14.44 22.2612 14.5357C22.0111 14.6315 22.1714 14.0725 22.1714 14.0725L21.0564 13.87L20.8864 14.0725L20.5173 14.1836V14.4048L20.1283 14.3193L20.2403 13.6562L19.3299 14.0725L17.9221 12.9209Z" fill="#FFC221"/>
<path fill-rule="evenodd" clip-rule="evenodd" d="M23.5217 15.8129L23.6031 15.6628C22.4472 15.6199 21.7924 15.5794 21.638 15.5411C21.6236 15.5375 21.6136 15.5339 21.6082 15.5303C21.5148 15.4684 21.784 15.4549 21.784 15.4549V15.3596V15.3006L21.8487 15.3053L22.8004 15.3755C22.8966 15.3755 23.0267 15.402 23.1908 15.4549C23.2605 15.4774 23.3136 15.4949 23.3502 15.5073C23.3526 15.5017 23.3566 15.4961 23.364 15.486C23.3814 15.4749 23.3885 15.4704 23.3962 15.4686C23.4014 15.4673 23.407 15.4673 23.4163 15.4672C23.4163 15.4672 23.4115 15.5309 23.4074 15.5303C23.4074 15.5303 23.5425 15.4772 23.5443 15.4776L23.6031 15.4549C23.6267 15.5188 23.6553 15.5679 23.689 15.6023L23.7024 15.615C23.7388 15.6469 23.7808 15.6628 23.8281 15.6628C23.9763 15.6628 23.9945 15.6628 23.9945 15.7713C23.9945 15.8437 24.1063 15.7382 24.3299 15.4549L27.3392 15.6628L27.2539 15.4392L27.2675 15.4213L27.2539 15.3755H27.3024L27.316 15.3577L27.3213 15.3755H27.57L27.6788 15.042L24.925 14.4048C24.6788 14.206 24.8131 13.7903 25.3282 13.1577L24.625 12.9209C24.428 13.0922 24.2941 13.3373 24.2235 13.6562C24.1447 14.0121 24.065 14.0088 23.7813 13.997C23.6836 13.993 23.5617 13.9879 23.4074 13.9962C23.0056 14.0177 22.6739 13.8126 22.4124 13.381L22.2612 13.7942L21.0564 13.5423V13.111H20.8864V12.7967L20.4257 12.6836L20.2616 13.2347L20.2881 13.2635L20.2505 13.272L20.2403 13.3063L20.2158 13.2799L20.1782 13.2884L20.1893 13.2511L19.5976 12.6105L17.9221 12.9209L19.3299 14.0725L20.1692 13.6887L20.1764 13.6458L20.2093 13.6704L20.2403 13.6562L20.2347 13.6894L20.2675 13.714L20.2274 13.7323L20.1283 14.3193L20.5173 14.4048V14.1836L20.8864 14.0725L21.0564 13.87C21.0564 13.87 22.1086 14.0572 22.1134 14.062L22.1714 14.0725C22.1658 14.092 22.1606 14.1108 22.1544 14.1342C22.0684 14.4621 22.104 14.5959 22.2612 14.5357C22.428 14.4719 22.7173 14.4283 23.1292 14.4048C23.3018 14.5554 23.3018 14.6572 23.1292 14.7104C22.9566 14.7635 22.8159 14.8741 22.7072 15.042H21.8564L21.4276 14.7104H21.1283C21.0804 14.8022 20.9997 14.8022 20.8864 14.7104C20.772 14.6177 20.5244 14.6497 20.2854 14.6806C20.1691 14.6956 20.0549 14.7104 19.959 14.7104C19.7638 14.7104 19.7078 14.864 19.7911 15.1714C20.1655 15.499 20.3771 15.6628 20.4257 15.6628C20.446 15.6628 20.4627 15.6855 20.4878 15.7194C20.5527 15.8072 20.6734 15.9705 21.0564 16.0117C21.3442 16.0428 21.4115 16.076 21.517 16.128C21.6061 16.172 21.7225 16.2294 22.0223 16.3102C22.4585 16.4279 22.7179 16.6289 22.8004 16.9134C22.8004 16.9134 22.9403 16.8026 23.1292 16.7048C23.2512 16.6417 23.3671 16.6845 23.4767 16.8332C23.4975 16.8627 23.5098 16.8792 23.5098 16.8792C23.4988 16.8635 23.4878 16.8482 23.4767 16.8332C23.4214 16.7547 23.1762 16.3873 23.4407 16.3873C23.6382 16.3873 23.9346 16.6201 24.3299 17.0858C24.3833 17.0457 24.3965 16.9679 24.3693 16.8523C24.3372 16.8264 24.3077 16.7988 24.2814 16.7695C24.2814 16.7695 24.3313 16.7311 24.3379 16.7361L24.3904 16.705C24.4054 16.7442 24.4175 16.7812 24.4268 16.8159C24.8055 17.1043 25.4997 17.104 25.3282 17.0148C25.2163 16.9567 25.0208 16.796 24.9392 16.6977C24.8981 16.6463 24.8977 16.6187 24.9837 16.65C24.993 16.6536 25.0032 16.6578 25.0145 16.6628C25.2126 16.7506 25.5254 16.7281 25.953 16.5954C25.5071 16.454 25.2245 16.3537 25.0884 16.2859C25.0198 16.2493 25.024 16.231 25.1026 16.2309C25.101 16.2258 25.0986 16.2213 25.0952 16.2155C25.0992 16.2185 25.1054 16.2223 25.1206 16.2307C25.2589 16.2273 25.3864 16.1876 25.5032 16.1117H25.5546C25.5735 16.0891 25.5921 16.0649 25.6104 16.0391L25.6082 16.0311C25.6153 16.0248 25.6223 16.0183 25.6293 16.0117H25.6032L25.6082 16.0311C25.5742 16.0614 25.5392 16.0883 25.5032 16.1117H25.4404C25.4717 16.0828 25.5022 16.0495 25.532 16.0117H24.7641L24.7564 16.0332L24.741 16.0117H24.6955C24.7009 15.9969 24.7059 15.9826 24.7104 15.969L24.7172 15.9481C24.7746 15.765 24.7439 15.706 24.625 15.7713C24.4984 15.8408 24.1436 15.8759 23.5605 15.8765L23.5443 15.9064L23.5262 15.8765L23.4873 15.8765L23.5056 15.8426L23.4875 15.8128L23.5217 15.8129ZM19.3398 13.9978L18.0692 12.9584L19.574 12.6797L20.2699 13.4331L20.4703 12.7602L20.8217 12.8464V13.1747H20.9917V13.5939L22.303 13.868L22.4287 13.5242C22.6909 13.8999 23.0197 14.0807 23.4109 14.0598C23.5285 14.0535 23.6212 14.0542 23.7577 14.0598C23.9844 14.069 24.0343 14.0663 24.1082 14.0218C24.1952 13.9694 24.2423 13.8704 24.2867 13.6698C24.3512 13.3787 24.4693 13.1538 24.6404 12.9934L25.2208 13.1889C24.7321 13.808 24.608 14.2312 24.8956 14.4634L27.5958 15.0882L27.5228 15.3119H27.1676L27.2511 15.5929L24.2999 15.3891L24.2788 15.4159C24.1797 15.5415 24.1031 15.6312 24.0502 15.6844C24.0299 15.6136 23.9707 15.5992 23.8281 15.5992C23.7609 15.5992 23.7068 15.5491 23.6639 15.4332L23.6413 15.3719C23.6413 15.3719 23.3974 15.4562 23.3896 15.4535C23.3529 15.4407 23.2934 15.4211 23.2109 15.3944C23.0423 15.34 22.9068 15.3123 22.8029 15.3119L21.7193 15.232V15.3964C21.7046 15.398 21.6901 15.3999 21.6762 15.4021C21.6298 15.4093 21.5946 15.4185 21.5692 15.4336C21.5064 15.4706 21.5099 15.5419 21.5721 15.5831C21.6492 15.6341 22.25 15.6753 23.4974 15.7226L23.3796 15.9397L23.487 15.9401C24.1268 15.9424 24.5107 15.9069 24.6565 15.8269C24.6657 15.8218 24.6738 15.818 24.6805 15.8152C24.6799 15.8252 24.6783 15.8382 24.6752 15.8538C24.6683 15.8893 24.6548 15.9349 24.6346 15.9903L24.6036 16.0754H25.4404C25.336 16.1369 25.2231 16.1673 25.1008 16.1673C25.0684 16.1673 25.0446 16.1699 25.0252 16.1775C24.9786 16.1958 24.9592 16.2472 24.9897 16.2902C25.0104 16.3193 25.0558 16.3446 25.1397 16.3804C25.2574 16.4308 25.4544 16.5009 25.7315 16.5912C25.4211 16.6675 25.1904 16.6709 25.0411 16.6048C24.9994 16.5863 24.9676 16.5758 24.9424 16.5729C24.892 16.5673 24.8448 16.5939 24.8472 16.6513C24.849 16.6926 24.8813 16.7352 24.9435 16.7975C25.0114 16.8656 25.1051 16.9435 25.1885 17.0024C25.1433 17.0001 25.0911 16.9947 25.0367 16.9859C24.7646 16.9423 24.5152 16.8374 24.3783 16.6852L24.1462 16.4271L24.2693 16.7497C24.3078 16.8505 24.3223 16.9246 24.3181 16.9736C23.9408 16.5407 23.6536 16.3236 23.4407 16.3236C23.3429 16.3236 23.2772 16.3672 23.2598 16.4457C23.249 16.4948 23.2585 16.5517 23.2831 16.6167C23.2234 16.6059 23.1617 16.6161 23.0991 16.6485C23.0792 16.6588 23.0594 16.6694 23.0397 16.6804C22.9681 16.7204 22.9006 16.7631 22.8322 16.8107C22.7189 16.5471 22.4523 16.3602 22.0394 16.2489C21.8832 16.2067 21.7688 16.1689 21.6772 16.1313C21.6426 16.1171 21.6125 16.1035 21.5789 16.0872L21.567 16.0814C21.548 16.0721 21.5123 16.0546 21.4999 16.0487C21.3913 15.9978 21.2891 15.9728 21.0635 15.9485C20.8672 15.9273 20.7341 15.8732 20.6404 15.7939C20.6142 15.7717 20.5739 15.7236 20.5396 15.6829L20.5396 15.6828C20.5119 15.6498 20.4881 15.6215 20.4792 15.6156C20.4648 15.6062 20.4489 15.6004 20.4271 15.5974C20.4189 15.5937 20.4076 15.5873 20.3935 15.5785C20.3631 15.5593 20.322 15.5297 20.2706 15.4899C20.1688 15.4111 20.0281 15.2932 19.8487 15.1366C19.7814 14.8771 19.8221 14.774 19.959 14.774C20.044 14.774 20.1159 14.7667 20.3002 14.7429L20.3374 14.7381C20.6332 14.7003 20.775 14.7026 20.8452 14.7595C20.9733 14.8633 21.0911 14.8731 21.1644 14.774H21.4052L21.834 15.1056H22.7427L22.7618 15.0762C22.8625 14.9206 22.9909 14.8196 23.1485 14.7711C23.3777 14.7006 23.3777 14.5365 23.1721 14.3572L23.1255 14.3413C22.7073 14.3651 22.4125 14.4096 22.2378 14.4764C22.1902 14.4946 22.1842 14.4918 22.1772 14.4559C22.1647 14.3911 22.1828 14.2672 22.2337 14.0898L22.2529 14.0226L21.0308 13.8006L20.8489 14.0173L20.4526 14.1365V14.3254L20.2022 14.2703L20.3242 13.5477L19.3398 13.9978ZM23.4074 15.5322C23.4174 15.5336 23.4199 15.5326 23.4147 15.5294L23.4074 15.5322ZM21.6361 15.543L21.6357 15.5432L21.6369 15.5425L21.6361 15.543Z" fill="#4D4D4D"/>
</g>
<defs>
<clipPath id="clip0_30_17980">
<rect width="32" height="24" fill="white"/>
</clipPath>
</defs>
</svg>
