<svg width="32" height="24" viewBox="0 0 32 24" fill="none" xmlns="http://www.w3.org/2000/svg">
<g clip-path="url(#clip0_30_17939)">
<rect width="32" height="24" fill="white"/>
<path fill-rule="evenodd" clip-rule="evenodd" d="M0 0V24H32V0H0Z" fill="#FFD221"/>
<mask id="mask0_30_17939" style="mask-type:luminance" maskUnits="userSpaceOnUse" x="0" y="0" width="32" height="24">
<path fill-rule="evenodd" clip-rule="evenodd" d="M0 0V24H32V0H0Z" fill="white"/>
</mask>
<g mask="url(#mask0_30_17939)">
<path d="M-3.06699 10.6152L-1.059 6.03614L33.7677 21.3081L31.7597 25.8872L-3.06699 10.6152Z" fill="#313131"/>
<path d="M-3.01724 5.56951L-1.01009 0.990059L35.5485 17.0135L33.5414 21.5929L-3.01724 5.56951Z" fill="#FAF9F9"/>
<path fill-rule="evenodd" clip-rule="evenodd" d="M7.33085 12.3973C5.91229 10.6565 6.14944 9.47911 6.14944 9.47911C6.14944 9.47911 7.6012 9.53217 7.58501 10.4683C7.58501 10.8639 8.10574 11.2383 8.55436 11.5609C8.89384 11.805 9.19202 12.0194 9.19202 12.1908C9.19202 12.5887 9.49163 16.6006 9.49163 16.6006C9.49163 16.6006 9.28237 16.9659 8.28001 16.9659C7.27765 16.9659 7.33085 16.3885 7.33085 16.3885C7.93854 15.6434 7.33085 12.3973 7.33085 12.3973ZM24.6697 12.3973C26.0883 10.6565 25.8511 9.47911 25.8511 9.47911C25.8511 9.47911 24.3993 9.53217 24.4155 10.4683C24.4155 10.8639 23.8948 11.2383 23.4462 11.5609C23.1067 11.805 22.8085 12.0194 22.8085 12.1908C22.8085 12.5887 22.5089 16.6006 22.5089 16.6006C22.5089 16.6006 22.7182 16.9659 23.7205 16.9659C24.7229 16.9659 24.6697 16.3885 24.6697 16.3885C24.062 15.6434 24.6697 12.3973 24.6697 12.3973Z" fill="#CF1225"/>
<path fill-rule="evenodd" clip-rule="evenodd" d="M16.0598 2.87477L17.1866 3.67913L16.4482 3.87641L17.1866 4.51462L16.2673 4.28173V4.9265H17.1866L17.494 6.43789L17.1383 6.18555L16.7825 6.43789L16.4268 6.18555L16.071 6.43789L15.7045 6.18555L15.3381 6.43789L14.9716 6.18555L14.6052 6.43789L15.0668 4.9265H15.9174V2.87477H16.0598ZM21.0851 7.95141C21.0851 7.95141 20.7417 8.25503 20.0051 7.95141C19.759 7.84999 19.4893 7.67266 19.2079 7.48765C18.6469 7.11885 18.0395 6.71954 17.4807 6.83028C16.6416 6.99657 16.2687 7.39704 16.2687 7.39704V6.47469H16.167H16.0095H15.9078V7.39704C15.9078 7.39704 15.5349 6.99657 14.6958 6.83028C14.137 6.71954 13.5296 7.11885 12.9686 7.48765C12.6872 7.67266 12.4175 7.84999 12.1714 7.95141C11.4348 8.25503 11.0914 7.95141 11.0914 7.95141C11.0914 7.95141 11.0914 8.20844 11.639 8.60427C11.8766 8.776 12.1482 8.76363 12.3797 8.69459C12.2083 8.82391 12.1252 8.97583 12.3984 9.09758C12.9645 9.34987 13.8951 8.68588 13.9971 8.61105C13.8834 8.69556 12.7587 9.54137 13.2742 9.54137C13.8168 9.54137 14.6958 8.83039 14.6958 8.83039C14.6958 8.83039 13.6292 9.85371 14.203 10.0131C14.5683 10.1146 15.0044 9.58237 15.2093 9.26708C15.2159 9.33408 15.2775 9.3751 15.3446 9.41978C15.4305 9.47703 15.5255 9.54032 15.5255 9.67205C15.5255 9.84092 15.5674 9.86991 15.6042 9.89532C15.6328 9.91515 15.6584 9.93281 15.6584 10.0131V10.2464L15.5255 10.4424C15.5255 10.4424 15.5255 10.7471 15.6584 10.9894C15.759 11.1728 15.7072 11.3271 15.6184 11.5915C15.59 11.6762 15.5578 11.7722 15.5255 11.884C15.3927 12.3451 15.6584 13.1326 15.6584 13.1326H15.5255C15.5255 13.1326 15.6584 13.2296 15.6584 13.6179C15.6584 13.9342 15.5703 14.1137 15.404 14.4528C15.366 14.5302 15.324 14.6159 15.278 14.7134C15.0305 15.2383 15.5255 15.9056 15.5255 15.9056C15.5255 15.9056 14.6958 15.5414 14.8621 15.9056C14.9898 16.1852 15.6909 16.4573 16.0095 16.5685V16.621C16.0095 16.621 16.0386 16.612 16.0883 16.5954C16.1379 16.612 16.167 16.621 16.167 16.621V16.5685C16.4856 16.4573 17.1867 16.1852 17.3144 15.9056C17.4807 15.5414 16.651 15.9056 16.651 15.9056C16.651 15.9056 17.146 15.2383 16.8985 14.7134C16.8525 14.6159 16.8105 14.5302 16.7725 14.4528L16.7725 14.4528C16.6062 14.1137 16.5181 13.9342 16.5181 13.6179C16.5181 13.2296 16.651 13.1326 16.651 13.1326H16.5181C16.5181 13.1326 16.7838 12.3451 16.651 11.884C16.6188 11.7722 16.5865 11.6762 16.5581 11.5915C16.4693 11.3271 16.4175 11.1728 16.5181 10.9894C16.651 10.7471 16.651 10.4424 16.651 10.4424L16.5181 10.2464V10.0131C16.5181 9.93281 16.5437 9.91515 16.5723 9.89532C16.6091 9.86991 16.651 9.84092 16.651 9.67205C16.651 9.54032 16.746 9.47703 16.832 9.41978C16.899 9.3751 16.9606 9.33408 16.9672 9.26708C17.1721 9.58237 17.6082 10.1146 17.9735 10.0131C18.5473 9.85371 17.4807 8.83039 17.4807 8.83039C17.4807 8.83039 18.3597 9.54137 18.9023 9.54137C19.4178 9.54137 18.2931 8.69556 18.1794 8.61105C18.2814 8.68588 19.212 9.34987 19.7781 9.09758C20.0513 8.97583 19.9682 8.82391 19.7968 8.69459C20.0283 8.76363 20.2999 8.776 20.5375 8.60427C21.0851 8.20844 21.0851 7.95141 21.0851 7.95141ZM19.2613 8.41786C19.2613 8.41786 19.4948 8.60449 19.7968 8.69459C19.5921 8.5401 19.2613 8.41786 19.2613 8.41786ZM16.8985 9.09758C16.8085 8.97773 16.8502 9.08703 16.9672 9.26708C16.9714 9.22397 16.9529 9.1701 16.8985 9.09758ZM15.278 9.09758C15.368 8.97773 15.3263 9.08703 15.2093 9.26708C15.2051 9.22397 15.2236 9.1701 15.278 9.09758ZM14.0062 8.60427C14.0062 8.60427 14.0031 8.60663 13.9971 8.61105C14.0031 8.60661 14.0062 8.60427 14.0062 8.60427ZM12.9153 8.41786C12.9153 8.41786 12.6817 8.60449 12.3797 8.69459C12.5844 8.5401 12.9153 8.41786 12.9153 8.41786Z" fill="#CF1225"/>
<path fill-rule="evenodd" clip-rule="evenodd" d="M11.2293 9.57807C11.2293 9.57807 10.0356 11.2017 10.1685 12.9365C10.3013 14.6713 11.7167 18.7074 15.9158 18.7074C15.9518 18.7074 15.9877 18.7065 16.0234 18.7065C20.4728 18.7065 21.7358 14.2562 21.7358 12.6559C21.7358 11.0417 20.7291 9.57807 20.7291 9.57807C20.7291 9.57807 20.8467 11.7441 20.7291 12.6559C20.3743 15.4064 18.6415 16.6768 15.9936 16.6768C13.3293 16.6768 11.6807 15.3584 11.2293 12.6559C11.0833 11.7821 11.2293 9.57807 11.2293 9.57807Z" fill="#CF1225"/>
<path fill-rule="evenodd" clip-rule="evenodd" d="M9.06558 19.7512C9.06558 19.7512 9.28225 19.1307 9.54858 19.1307C9.81492 19.1307 9.039 18.5923 9.54858 18.44C10.0582 18.2876 10.8423 19.047 10.8423 18.2876C10.8423 17.5283 10.1792 17.114 10.6664 17.114C11.1537 17.114 11.662 16.9686 11.662 16.9686C11.662 16.9686 13.7352 19.1307 15.8107 19.1307C17.8863 19.1307 20.3822 17.114 20.3822 17.114C20.3822 17.114 21.3021 16.88 21.3021 17.2449C21.3021 17.6097 21.1003 18.1605 21.1003 18.1605C21.1003 18.1605 21.7449 18.0334 22.0728 18.1605C22.4007 18.2876 22.0728 18.8956 22.0728 18.8956V19.1307C22.0728 19.1307 22.926 18.9429 22.926 19.2791C22.926 19.6153 22.5142 19.4233 21.6795 19.5193C20.8448 19.6153 20.5281 20.2679 20.0037 20.2679C19.4794 20.2679 19.3664 19.7512 19.3664 19.7512C19.3664 19.7512 17.7415 20.632 15.8107 20.632C13.88 20.632 12.7137 19.7512 12.7137 19.7512C12.7137 19.7512 12.8958 20.6554 12.2789 20.4616C11.662 20.2679 11.031 19.0389 10.2898 19.2791C9.54858 19.5193 9.06558 19.7512 9.06558 19.7512Z" fill="#CF1225"/>
<path fill-rule="evenodd" clip-rule="evenodd" d="M12.0619 16.1648C12.0984 16.1308 12.135 16.093 12.1831 16.0408C12.3193 15.893 12.3562 15.8538 12.384 15.8359C12.3896 15.8612 12.3935 15.9025 12.3935 15.9592C12.3935 16.3357 12.4068 16.62 12.4435 16.8177C12.4696 16.9586 12.5059 17.0498 12.57 17.0932C12.6636 17.1566 12.758 17.1014 12.8455 16.9698C13.0458 16.6687 13.4228 16.6315 13.4228 16.7464C13.4228 16.7762 13.411 16.8085 13.3378 16.9878C13.3252 17.0187 13.3152 17.0438 13.3059 17.0682C13.2545 17.2035 13.2316 17.3014 13.2428 17.3866C13.2594 17.5137 13.3531 17.5852 13.5047 17.5852C13.6734 17.5852 13.7843 17.4761 13.9068 17.261C13.9187 17.24 13.9509 17.1816 13.9645 17.1568L13.9646 17.1566L13.9646 17.1566L13.9706 17.1456C13.9931 17.1054 14.0095 17.0782 14.0246 17.0572C14.0693 16.9949 14.079 16.9997 14.178 17.2336C14.2041 17.2953 14.2576 17.4252 14.304 17.5377C14.3406 17.6265 14.3727 17.7045 14.3833 17.7294C14.4483 17.8822 14.4939 17.9723 14.5418 18.0353C14.6521 18.1801 14.7836 18.179 14.9407 18.0446C14.9718 18.018 15.0066 17.9917 15.0468 17.9641C15.0677 17.9497 15.1175 17.9176 15.1651 17.887L15.1651 17.887C15.2103 17.8579 15.2535 17.8301 15.2681 17.8199C15.3593 17.7563 15.4045 17.7061 15.4036 17.6321C15.4025 17.5386 15.3244 17.4799 15.1688 17.422C15.138 17.4106 15.1141 17.3997 15.0967 17.3918L15.0966 17.3917L15.0966 17.3917C15.0839 17.386 15.0747 17.3818 15.069 17.3802C15.0729 17.3795 15.0785 17.3766 15.0874 17.3721L15.0952 17.3682C15.1929 17.3197 15.3899 17.2842 15.5659 17.2842L15.5669 17.2842C15.5751 17.2842 15.58 17.2842 15.5829 17.2867C15.5873 17.2903 15.587 17.2994 15.5865 17.3221L15.5865 17.3246C15.5853 17.3776 15.5738 17.4289 15.5304 17.5919L15.5154 17.6489C15.4662 17.8402 15.4525 17.956 15.4864 18.0557C15.536 18.2019 15.677 18.2527 15.896 18.2093C16.1923 18.1507 16.3365 18.033 16.3742 17.8527C16.3837 17.8075 16.3856 17.773 16.3856 17.7024C16.3858 17.5862 16.3864 17.5852 16.4857 17.5852C16.6269 17.5852 16.6829 17.6353 16.7423 17.7743C16.7475 17.7865 16.7528 17.7992 16.7634 17.8252C16.8325 17.9917 16.8966 18.0641 17.0411 18.0641C17.1376 18.0641 17.2047 18.0235 17.1928 17.9299C17.1898 17.9061 17.1818 17.8851 17.1673 17.8558L17.1557 17.833L17.1556 17.833C17.1479 17.8179 17.1387 17.8 17.135 17.7925C17.0453 17.609 17.0809 17.469 17.3893 17.2715C17.4774 17.2151 17.6135 17.1197 17.7314 17.0371L17.7315 17.0371L17.7315 17.037L17.7315 17.037C17.8164 16.9775 17.8919 16.9246 17.9331 16.8977C17.9364 16.9228 17.9388 16.9572 17.9411 17.0073C17.9419 17.0271 17.9442 17.0891 17.946 17.1392L17.9484 17.2035C17.9615 17.5383 18.0311 17.8448 18.1327 17.9692C18.3047 18.1799 18.4709 17.9852 18.5839 17.5215C18.692 17.0779 18.8463 16.6596 18.9966 16.4057C19.0704 16.2813 19.1394 16.2033 19.192 16.1796C19.2269 16.1639 19.2514 16.1751 19.2875 16.2407C19.4234 16.4874 19.6324 16.7163 19.8092 16.7844C20.0715 16.8854 20.2271 16.6726 20.2271 16.1993C20.2271 15.8025 20.2915 15.4861 20.3981 15.242C20.4348 15.158 20.4737 15.0893 20.5122 15.0347C20.5343 15.0034 20.5505 14.9845 20.5582 14.977L20.4449 14.8554C20.3929 14.9064 20.3199 15.0099 20.2485 15.1732C20.1324 15.4392 20.0632 15.7791 20.0632 16.1993C20.0632 16.5736 19.9896 16.6742 19.8668 16.6269C19.7335 16.5755 19.549 16.3735 19.4303 16.158C19.3557 16.0226 19.2451 15.972 19.1261 16.0256C19.0351 16.0666 18.9463 16.1669 18.8566 16.3184C18.6965 16.5887 18.5366 17.022 18.4248 17.4807C18.3762 17.6801 18.3257 17.807 18.2583 17.8612C18.1868 17.7735 18.1239 17.4969 18.1122 17.1968L18.1099 17.134L18.1098 17.1338C18.108 17.0835 18.1057 17.0203 18.1048 16.9997C18.102 16.9369 18.0989 16.8953 18.0937 16.8616C18.0771 16.7538 18.0225 16.6903 17.9245 16.716C17.886 16.7261 17.701 16.8546 17.5347 16.9703L17.5347 16.9703C17.442 17.0347 17.3551 17.0951 17.3025 17.1288C16.9211 17.373 16.8614 17.608 16.9885 17.8679L16.9986 17.888C16.9681 17.8739 16.9469 17.838 16.9143 17.7593C16.9038 17.7339 16.8981 17.72 16.8924 17.7067C16.8094 17.5127 16.7026 17.417 16.4857 17.417C16.2771 17.417 16.222 17.5046 16.2217 17.7022C16.2216 17.7611 16.2202 17.7874 16.2139 17.8174C16.1916 17.9241 16.102 17.9973 15.8649 18.0442C15.7168 18.0735 15.6589 18.0526 15.6412 18.0004C15.6221 17.9442 15.6333 17.8499 15.6739 17.6918L15.6885 17.6362C15.7366 17.4558 15.7487 17.4016 15.7504 17.3284C15.7532 17.2016 15.6911 17.116 15.5659 17.116C15.3673 17.116 15.1468 17.1557 15.0238 17.2168C14.8219 17.3171 14.8619 17.4868 15.1129 17.5802C15.1622 17.5985 15.1948 17.6142 15.2146 17.6237L15.2146 17.6237C15.2287 17.6305 15.2363 17.6341 15.2388 17.6334C15.2369 17.6338 15.2324 17.6375 15.2246 17.6438C15.2143 17.6521 15.1985 17.6651 15.1759 17.6809C15.164 17.6892 15.1261 17.7135 15.0843 17.7404L15.0842 17.7405L15.0842 17.7405L15.0841 17.7405L15.084 17.7406C15.0345 17.7724 14.9795 17.8078 14.9554 17.8244C14.9109 17.855 14.8716 17.8847 14.8358 17.9153C14.7441 17.9938 14.7184 17.994 14.671 17.9318C14.6341 17.8833 14.5932 17.8023 14.5335 17.6621C14.5233 17.6381 14.4919 17.5618 14.4558 17.4743C14.4093 17.3613 14.355 17.2295 14.3284 17.1666C14.1875 16.8336 14.0352 16.7587 13.8926 16.9574C13.8729 16.9849 13.8537 17.0167 13.8283 17.0621L13.8208 17.0757C13.8066 17.1017 13.7763 17.1568 13.7653 17.1761C13.6703 17.3429 13.595 17.417 13.5047 17.417C13.4302 17.417 13.4101 17.4016 13.4052 17.3642C13.3989 17.316 13.4169 17.2392 13.4587 17.1293C13.4674 17.1064 13.4769 17.0826 13.489 17.0528C13.5803 16.8293 13.5867 16.8116 13.5867 16.7464C13.5867 16.4053 12.9829 16.4649 12.7101 16.8749C12.6869 16.9098 12.6671 16.9326 12.6526 16.9439C12.6386 16.9223 12.6196 16.8673 12.6045 16.7862C12.5704 16.6023 12.5574 16.3253 12.5574 15.9592C12.5574 15.7273 12.4877 15.6046 12.3379 15.6715C12.2701 15.7017 12.2676 15.7043 12.064 15.9253C12.0185 15.9746 11.9845 16.0097 11.9517 16.0403C11.9093 16.0798 11.8725 16.1079 11.8409 16.1245C11.7944 16.1491 11.7765 16.1339 11.7514 16.0255C11.7253 15.9131 11.7168 15.7545 11.7169 15.4903L11.7172 15.3796L11.7175 15.2655C11.7175 15.078 11.6673 14.973 11.5449 14.973C11.503 14.973 11.4609 14.9872 11.4077 15.0143C11.389 15.0238 11.3695 15.0346 11.3433 15.0497L11.3333 15.0555L11.2775 15.0878C11.1647 15.1522 11.0897 15.1814 11.0192 15.1814C11.0061 15.1814 10.9984 15.1835 10.9949 15.1845L10.9949 15.1845C10.9936 15.1848 10.9928 15.185 10.9927 15.1848C10.9926 15.1846 10.9931 15.184 10.9942 15.1826C10.9973 15.179 11.0045 15.1703 11.0141 15.1515C11.0606 15.0601 11.1858 14.9124 11.3872 14.7145L11.2738 14.593C11.0602 14.803 10.926 14.9612 10.8688 15.0737C10.7896 15.2292 10.8509 15.3497 11.0192 15.3497C11.1256 15.3497 11.2215 15.3123 11.3572 15.2348C11.5143 15.1452 11.5221 15.1412 11.5449 15.1412C11.545 15.1412 11.5536 15.1592 11.5536 15.2655L11.5533 15.3789L11.5529 15.4903C11.5529 15.7679 11.5618 15.9348 11.5919 16.0645C11.6382 16.2641 11.7517 16.3608 11.9159 16.2741C11.9623 16.2497 12.0097 16.2134 12.0619 16.1648ZM12.4013 15.8257C12.4025 15.8259 12.4033 15.8259 12.4037 15.8257L12.4013 15.8257ZM15.064 17.3723C15.0611 17.3703 15.0596 17.3691 15.0596 17.3689C15.0612 17.3759 15.0628 17.38 15.0653 17.3818L15.064 17.3723ZM17.9653 16.879L17.9635 16.8794L17.9647 16.8792L17.9653 16.879Z" fill="#F6E017"/>
<path fill-rule="evenodd" clip-rule="evenodd" d="M13.8326 19.7503C13.7599 19.9465 13.6452 20.0114 13.5156 19.9134C13.4762 19.8836 13.4379 19.8411 13.3846 19.7726L13.3726 19.7569C13.3442 19.7195 13.2735 19.6266 13.2475 19.5942C13.1359 19.4553 13.0397 19.3683 12.9352 19.3238L12.9257 19.3197L12.9257 19.3197C12.7983 19.2654 12.7709 19.2537 12.744 19.241L12.7148 19.2268C12.5615 19.152 12.4741 19.0745 12.3899 18.9296C12.324 18.8162 12.2603 18.6626 12.1523 18.3657L12.3058 18.3069C12.4104 18.5944 12.4716 18.7416 12.5307 18.8434C12.5974 18.9584 12.66 19.0138 12.7852 19.0749L12.8113 19.0876C12.8369 19.0997 12.863 19.1109 12.9892 19.1646L12.9892 19.1646L12.9981 19.1684C13.1329 19.2258 13.2468 19.3289 13.374 19.4872C13.4024 19.5226 13.4783 19.6224 13.5041 19.6563L13.5041 19.6563L13.5127 19.6676C13.5575 19.7253 13.5884 19.7594 13.6129 19.778C13.6262 19.788 13.6269 19.7887 13.6252 19.7898C13.6366 19.7828 13.6568 19.7513 13.6794 19.6905C13.7297 19.5548 13.6855 19.4498 13.5633 19.3403C13.5588 19.3363 13.5463 19.3263 13.5299 19.3131L13.5299 19.3131L13.5299 19.3131L13.5299 19.3131C13.4831 19.2756 13.4045 19.2126 13.39 19.1911C13.3434 19.1218 13.3833 19.0514 13.4553 19.0323C13.4877 19.0237 13.5356 19.0205 13.612 19.0205C13.8767 19.0205 13.9495 19.176 13.9986 19.5736L13.9994 19.5802C14.0381 19.8936 14.0772 19.9797 14.211 19.9797C14.3619 19.9797 14.4538 19.9196 14.6143 19.7482L14.6494 19.7107C14.8539 19.493 14.9971 19.4198 15.2376 19.4864C15.4298 19.5396 15.5119 19.6341 15.5312 19.7806C15.5333 19.7969 15.5344 19.8087 15.5365 19.8366C15.5459 19.9601 15.5677 19.9797 15.8067 19.9797C15.9881 19.9797 16.1568 19.9893 16.3769 20.0088L16.4035 20.0112C16.4551 20.0159 16.5648 20.0259 16.5978 20.0286C16.6695 20.0345 16.7203 20.0373 16.7605 20.0373C16.7891 20.0373 16.8111 20.0358 16.8262 20.0332C16.8324 19.985 16.8608 19.9511 16.9757 19.821C16.989 19.806 16.9992 19.7942 17.0087 19.7829C17.0624 19.7196 17.0861 19.6772 17.0846 19.6704C17.0844 19.6691 17.0363 19.6518 16.9066 19.6518C16.7875 19.6518 16.7279 19.6369 16.7171 19.5529C16.7081 19.4826 16.7487 19.4486 16.8388 19.4007C16.9419 19.3459 17.1299 19.2746 17.3554 19.2028C17.5725 19.1336 17.8017 19.0714 17.9761 19.0349C18.0703 19.0151 18.147 19.0031 18.2029 18.9999C18.3095 18.9939 18.3729 19.0087 18.3729 19.1046C18.3729 19.1447 18.4854 19.2821 18.5976 19.3445C18.7316 19.4191 18.8268 19.3908 18.8924 19.2159C18.9883 18.9605 19.188 18.6847 19.3827 18.5268C19.4872 18.4421 19.5834 18.3965 19.6665 18.404C19.7788 18.4141 19.8375 18.5105 19.8375 18.6561H19.6735C19.6735 18.5878 19.6643 18.5726 19.6522 18.5715C19.6213 18.5688 19.5589 18.5983 19.4844 18.6588C19.3125 18.7982 19.1306 19.0493 19.0454 19.2763C18.9421 19.5516 18.736 19.6129 18.5195 19.4924C18.3868 19.4186 18.2599 19.2785 18.221 19.1675C18.1657 19.1705 18.096 19.1814 18.0089 19.1997C17.8403 19.2351 17.6162 19.2958 17.404 19.3634C17.2635 19.4082 17.1382 19.4527 17.0423 19.4918C17.1593 19.5086 17.227 19.5521 17.2447 19.634C17.2624 19.7158 17.2225 19.787 17.1325 19.8933C17.1221 19.9056 17.1112 19.9181 17.0972 19.934C17.0178 20.0238 16.9886 20.0622 16.9886 20.0638C16.9886 20.1749 16.9041 20.2055 16.7605 20.2055C16.7149 20.2055 16.6603 20.2025 16.5847 20.1963C16.5508 20.1935 16.4389 20.1833 16.388 20.1787L16.3629 20.1764C16.147 20.1573 15.9825 20.1479 15.8067 20.1479C15.4839 20.1479 15.3892 20.0627 15.3731 19.8496C15.3712 19.825 15.3703 19.8152 15.3687 19.8031C15.3583 19.7243 15.3238 19.6845 15.1949 19.6489C15.0268 19.6023 14.9348 19.6494 14.7674 19.8274L14.7325 19.8648C14.5436 20.0665 14.4191 20.1479 14.211 20.1479C13.9756 20.1479 13.8985 20.022 13.8497 19.6963C13.8451 19.714 13.8394 19.732 13.8326 19.7503ZM13.8463 19.6013L13.8453 19.5948C13.8298 19.4916 13.8139 19.4125 13.7934 19.3527C13.8744 19.4552 13.9027 19.5681 13.862 19.6963C13.8565 19.6664 13.8514 19.6347 13.8463 19.6013ZM16.8452 19.4791L16.8492 19.4804L16.8472 19.4796L16.8452 19.4791ZM16.842 20.0295L16.8379 20.0308L16.8406 20.0302L16.842 20.0295Z" fill="#F6E017"/>
</g>
</g>
<defs>
<clipPath id="clip0_30_17939">
<rect width="32" height="24" fill="white"/>
</clipPath>
</defs>
</svg>
