<svg width="32" height="24" viewBox="0 0 32 24" fill="none" xmlns="http://www.w3.org/2000/svg">
<g clip-path="url(#clip0_30_17915)">
<rect width="32" height="24" fill="white"/>
<path fill-rule="evenodd" clip-rule="evenodd" d="M0 0V24H32V0H0Z" fill="#FECA00"/>
<mask id="mask0_30_17915" style="mask-type:luminance" maskUnits="userSpaceOnUse" x="0" y="0" width="32" height="24">
<path fill-rule="evenodd" clip-rule="evenodd" d="M0 0V24H32V0H0Z" fill="white"/>
</mask>
<g mask="url(#mask0_30_17915)">
<path fill-rule="evenodd" clip-rule="evenodd" d="M0 0V8H32V0H0Z" fill="#DB501C"/>
<path fill-rule="evenodd" clip-rule="evenodd" d="M0 16V24H32V16H0Z" fill="#5EAA22"/>
<path d="M12.4461 9.95907L12.4824 9.92381L19.7021 16.8685L19.6657 16.9038L12.4461 9.95907Z" fill="#864C26"/>
<path d="M20.2213 16.4173L20.1901 16.4569L11.791 10.2874L11.8222 10.2478L20.2213 16.4173Z" fill="#864C26"/>
<path d="M20.3982 15.8016L20.3729 15.845L11.03 10.7594L11.0553 10.7161L20.3982 15.8016Z" fill="#A05A2C"/>
<path fill-rule="evenodd" clip-rule="evenodd" d="M11.6018 9.11223L12.3093 9.58031L12.2698 9.60728C12.2859 9.61655 12.3026 9.62649 12.3197 9.63711C12.3396 9.64944 12.3536 9.66432 12.3618 9.68141C12.3761 9.63915 12.3758 9.58783 12.3605 9.52664L12.3233 9.37761L12.4072 9.50824C12.5405 9.71583 12.5604 9.86437 12.4567 9.94841C12.3554 10.0305 12.196 10.0091 11.9806 9.89075L11.8931 9.84267L11.9929 9.84417C12.075 9.84541 12.1453 9.83574 12.2041 9.81533L12.1633 9.80438C12.1287 9.79511 12.1031 9.77089 12.0857 9.73294L12.0163 9.78029L11.6018 9.11223ZM10.7533 9.6413L11.5314 9.97941L11.4963 10.0137C11.5144 10.0203 11.5333 10.0274 11.5528 10.0352C11.5745 10.0439 11.5909 10.0561 11.6019 10.0715C11.6086 10.0275 11.5993 9.9771 11.5737 9.91962L11.5112 9.77931L11.6165 9.8934C11.7839 10.0747 11.8292 10.2175 11.7417 10.3183C11.6562 10.4167 11.4955 10.4233 11.2628 10.3442L11.1683 10.312L11.2669 10.2962C11.3481 10.2831 11.4158 10.2613 11.4703 10.2308L11.4278 10.2271C11.3915 10.2239 11.3617 10.2039 11.3378 10.1685L11.2776 10.2272L10.7533 9.6413ZM10.8046 10.4531L10 10.1841L10.5733 10.7221L10.628 10.6585C10.6551 10.6922 10.6867 10.7098 10.7235 10.7098H10.7662C10.7146 10.745 10.649 10.7726 10.5691 10.7928L10.4723 10.8171L10.5693 10.8409C10.8079 10.8995 10.9674 10.8789 11.044 10.7734C11.1224 10.6654 11.0648 10.5271 10.8823 10.3611L10.7674 10.2566L10.8419 10.3909C10.8724 10.4459 10.8861 10.4952 10.8833 10.5396C10.8709 10.5252 10.8536 10.5145 10.8312 10.5078C10.8107 10.5016 10.791 10.496 10.772 10.491L10.8046 10.4531ZM10.7166 10.4776L10.7174 10.4766L10.202 10.3043L10.5693 10.6489L10.5995 10.6138C10.5941 10.6033 10.5889 10.592 10.5839 10.58L10.5873 10.5787L10.5628 10.5523L10.6614 10.4669L10.6738 10.4691C10.6875 10.4715 10.7018 10.4743 10.7166 10.4776Z" fill="#E7E7E7"/>
<path fill-rule="evenodd" clip-rule="evenodd" d="M13.4714 16.2132L14.306 14.7244L15.477 15.0397L14.6343 16.3985H14.306V16.5467L13.4714 16.2132Z" fill="#925229"/>
<path fill-rule="evenodd" clip-rule="evenodd" d="M13.1135 10.4887L12.561 11.0628L12.36 14.857L14.3508 15.1472C14.3508 15.1472 13.4833 14.3856 13.3554 13.9155C13.2275 13.4454 13.1867 11.6906 13.4286 11.4238L13.6176 11.5341L13.7696 11.0827" fill="#FFE000"/>
<path fill-rule="evenodd" clip-rule="evenodd" d="M11.1892 10.7474C11.1892 10.7474 10.9753 13.71 10.9753 14.2304C10.9753 14.7507 11.417 15.9897 12.424 15.9897C13.431 15.9897 14.8128 15.4353 14.8128 15.2092C14.8128 14.9832 14.4003 14.8212 14.4003 14.8212C14.4003 14.8212 12.5484 14.9478 12.5484 14.2304C12.5484 13.5129 12.6742 11.3892 12.7841 11.1388C12.894 10.8884 13.2751 10.5108 13.2751 10.5108L12.5484 9.9707L12.424 10.5108L11.958 10.3522L11.8159 11.1388L11.1892 10.7474Z" fill="#D52C1E"/>
<path fill-rule="evenodd" clip-rule="evenodd" d="M13.7765 11.0761L13.6427 11.4952L13.3722 11.3811C13.3722 11.3811 12.9678 13.2772 13.3722 14.0716C13.7765 14.8659 14.7949 14.9235 14.7949 14.9235L14.3647 11.4952L13.7765 11.0761Z" fill="#027934"/>
<path fill-rule="evenodd" clip-rule="evenodd" d="M13.7171 13.6383L12.7466 14.4058C12.7466 14.4058 12.4804 14.7873 12.7466 15.0761C13.0128 15.3649 13.7507 15.6593 13.9248 15.3107C14.0989 14.9621 14.6161 14.5537 14.6161 14.5537L13.7171 13.6383Z" fill="#E8A30C"/>
<path fill-rule="evenodd" clip-rule="evenodd" d="M14.4788 10.7425C14.7149 10.5372 14.8333 10.2868 14.7432 10.1831C14.653 10.0794 14.3885 10.1618 14.1524 10.367C13.9163 10.5723 13.7979 10.8228 13.8881 10.9264C13.9782 11.0301 14.2427 10.9478 14.4788 10.7425Z" fill="#E1E5E8"/>
<path fill-rule="evenodd" clip-rule="evenodd" d="M13.8833 9.30333C13.8833 9.30333 13.7883 9.28386 13.7453 9.27734C13.4383 9.23082 13.2848 9.29341 13.2848 9.46513C13.2848 9.7588 13.4805 10.0759 13.4805 10.2977C13.4805 10.5195 13.49 10.8648 13.5841 10.6922C13.6782 10.5195 14.1568 10.0007 14.1568 10.0007L13.8833 9.55059C13.8833 9.55059 14.5621 9.62694 14.2641 9.46513" fill="#D52C1E"/>
<path fill-rule="evenodd" clip-rule="evenodd" d="M15.9699 15.3782L15.4609 15.3731C15.0829 15.7468 15.0481 16.2497 15.3456 16.857C15.3456 16.857 15.4433 16.9982 15.4775 16.985C15.5254 16.9665 15.5919 16.762 15.5919 16.762C15.5692 16.1689 15.9473 15.7761 15.9699 15.3782Z" fill="#D52C1E"/>
<path fill-rule="evenodd" clip-rule="evenodd" d="M15.3252 15.3936L15.5082 15.3085C15.6887 15.6833 15.5982 16.0714 15.2502 16.4568L15.0987 16.3248C15.2502 15.8827 15.2502 15.6995 15.3252 15.3936Z" fill="#FFE000"/>
<path d="M15.0914 15.3816L15.2824 15.3257C15.3743 15.6396 15.3284 15.9634 15.148 16.292L14.9736 16.1963C15.1295 15.9122 15.1677 15.6424 15.0914 15.3816Z" fill="#027934"/>
<path d="M19.5539 9.95907L19.5176 9.92381L12.2979 16.8685L12.3343 16.9038L19.5539 9.95907Z" fill="#864C26"/>
<path d="M11.7787 16.4173L11.8099 16.4569L20.209 10.2874L20.1778 10.2478L11.7787 16.4173Z" fill="#864C26"/>
<path d="M11.6018 15.8016L11.6271 15.845L20.97 10.7594L20.9447 10.7161L11.6018 15.8016Z" fill="#A05A2C"/>
<path fill-rule="evenodd" clip-rule="evenodd" d="M20.3982 9.11223L19.6907 9.58031L19.7302 9.60728C19.7141 9.61655 19.6974 9.62649 19.6803 9.63711C19.6604 9.64944 19.6464 9.66432 19.6382 9.68141C19.6239 9.63915 19.6242 9.58783 19.6395 9.52664L19.6767 9.37761L19.5928 9.50824C19.4595 9.71583 19.4396 9.86437 19.5433 9.94841C19.6446 10.0305 19.804 10.0091 20.0194 9.89075L20.1069 9.84267L20.0071 9.84417C19.925 9.84541 19.8547 9.83574 19.7959 9.81533L19.8367 9.80438C19.8713 9.79511 19.8969 9.77089 19.9143 9.73294L19.9837 9.78029L20.3982 9.11223ZM21.2467 9.6413L20.4686 9.97941L20.5037 10.0137C20.4856 10.0203 20.4667 10.0274 20.4472 10.0352C20.4255 10.0439 20.4091 10.0561 20.3981 10.0715C20.3914 10.0275 20.4007 9.9771 20.4263 9.91962L20.4888 9.77931L20.3835 9.8934C20.2161 10.0747 20.1708 10.2175 20.2583 10.3183C20.3438 10.4167 20.5045 10.4233 20.7372 10.3442L20.8317 10.312L20.7331 10.2962C20.6519 10.2831 20.5842 10.2613 20.5297 10.2308L20.5722 10.2271C20.6085 10.2239 20.6383 10.2039 20.6622 10.1685L20.7224 10.2272L21.2467 9.6413ZM21.1954 10.4531L22 10.1841L21.4267 10.7221L21.372 10.6585C21.3449 10.6922 21.3133 10.7098 21.2765 10.7098H21.2338C21.2854 10.745 21.351 10.7726 21.4309 10.7928L21.5277 10.8171L21.4307 10.8409C21.1921 10.8995 21.0326 10.8789 20.956 10.7734C20.8776 10.6654 20.9352 10.5271 21.1177 10.3611L21.2326 10.2566L21.1581 10.3909C21.1276 10.4459 21.1139 10.4952 21.1167 10.5396C21.1291 10.5252 21.1464 10.5145 21.1688 10.5078C21.1893 10.5016 21.209 10.496 21.228 10.491L21.1954 10.4531ZM21.2834 10.4776L21.2826 10.4766L21.798 10.3043L21.4307 10.6489L21.4005 10.6138C21.4059 10.6033 21.4111 10.592 21.4161 10.58L21.4127 10.5787L21.4372 10.5523L21.3386 10.4669L21.3262 10.4691C21.3125 10.4715 21.2982 10.4743 21.2834 10.4776Z" fill="#E7E7E7"/>
<path fill-rule="evenodd" clip-rule="evenodd" d="M18.5286 16.2132L17.694 14.7244L16.523 15.0397L17.3657 16.3985H17.694V16.5467L18.5286 16.2132Z" fill="#925229"/>
<path fill-rule="evenodd" clip-rule="evenodd" d="M18.8865 10.4887L19.439 11.0628L19.64 14.857L17.6492 15.1472C17.6492 15.1472 18.5167 14.3856 18.6446 13.9155C18.7725 13.4454 18.8133 11.6906 18.5714 11.4238L18.3824 11.5341L18.2304 11.0827" fill="#FFE000"/>
<path fill-rule="evenodd" clip-rule="evenodd" d="M20.8108 10.7474C20.8108 10.7474 21.0247 13.71 21.0247 14.2304C21.0247 14.7507 20.583 15.9897 19.576 15.9897C18.569 15.9897 17.1872 15.4353 17.1872 15.2092C17.1872 14.9832 17.5997 14.8212 17.5997 14.8212C17.5997 14.8212 19.4516 14.9478 19.4516 14.2304C19.4516 13.5129 19.3258 11.3892 19.2159 11.1388C19.106 10.8884 18.7249 10.5108 18.7249 10.5108L19.4516 9.9707L19.576 10.5108L20.042 10.3522L20.1841 11.1388L20.8108 10.7474Z" fill="#D52C1E"/>
<path fill-rule="evenodd" clip-rule="evenodd" d="M18.2235 11.0761L18.3573 11.4952L18.6278 11.3811C18.6278 11.3811 19.0322 13.2772 18.6278 14.0716C18.2235 14.8659 17.2051 14.9235 17.2051 14.9235L17.6353 11.4952L18.2235 11.0761Z" fill="#027934"/>
<path fill-rule="evenodd" clip-rule="evenodd" d="M18.2829 13.6383L19.2534 14.4058C19.2534 14.4058 19.5196 14.7873 19.2534 15.0761C18.9872 15.3649 18.2493 15.6593 18.0752 15.3107C17.9011 14.9621 17.3839 14.5537 17.3839 14.5537L18.2829 13.6383Z" fill="#E8A30C"/>
<path fill-rule="evenodd" clip-rule="evenodd" d="M17.5212 10.7425C17.2851 10.5372 17.1667 10.2868 17.2568 10.1831C17.347 10.0794 17.6115 10.1618 17.8476 10.367C18.0837 10.5723 18.2021 10.8228 18.1119 10.9264C18.0218 11.0301 17.7573 10.9478 17.5212 10.7425Z" fill="#E1E5E8"/>
<path fill-rule="evenodd" clip-rule="evenodd" d="M16.0301 15.3782L16.5391 15.3731C16.9171 15.7468 16.9519 16.2497 16.6544 16.857C16.6544 16.857 16.5567 16.9982 16.5225 16.985C16.4746 16.9665 16.4081 16.762 16.4081 16.762C16.4308 16.1689 16.0527 15.7761 16.0301 15.3782Z" fill="#D52C1E"/>
<path fill-rule="evenodd" clip-rule="evenodd" d="M16.6748 15.3936L16.4918 15.3085C16.3113 15.6833 16.4018 16.0714 16.7498 16.4568L16.9013 16.3248C16.7498 15.8827 16.7498 15.6995 16.6748 15.3936Z" fill="#FFE000"/>
<path d="M16.9086 15.3816L16.7176 15.3257C16.6257 15.6396 16.6716 15.9634 16.852 16.292L17.0264 16.1963C16.8705 15.9122 16.8323 15.6424 16.9086 15.3816Z" fill="#027934"/>
<path fill-rule="evenodd" clip-rule="evenodd" d="M13.5536 12.8209C13.5536 14.2601 14.6163 15.4577 15.9743 15.4577C17.3322 15.4577 18.3949 14.2601 18.3949 12.8209C18.3949 11.3817 17.3322 10.1841 15.9743 10.1841C14.6163 10.1841 13.5536 11.3817 13.5536 12.8209ZM17.8283 12.8209C17.8283 13.9749 16.9982 14.9104 15.9743 14.9104C14.9503 14.9104 14.1202 13.9749 14.1202 12.8209C14.1202 11.6669 14.9503 10.7313 15.9743 10.7313C16.9982 10.7313 17.8283 11.6669 17.8283 12.8209Z" fill="#00A6DE"/>
<path fill-rule="evenodd" clip-rule="evenodd" d="M15.9742 12.4478L15.7336 12.944L15.7396 12.396L15.2999 12.7422L15.5515 12.2511L14.9998 12.3787L15.447 12.0416L14.8927 11.9254L15.447 11.8091L14.9998 11.4721L15.5515 11.5997L15.2999 11.1085L15.7396 11.4547L15.7336 10.9068L15.9742 11.403L16.2149 10.9068L16.2089 11.4547L16.6486 11.1085L16.397 11.5997L16.9487 11.4721L16.5015 11.8091L17.0558 11.9254L16.5015 12.0416L16.9487 12.3787L16.397 12.2511L16.6486 12.7422L16.2089 12.396L16.2149 12.944L15.9742 12.4478Z" fill="#D52C1E"/>
<path fill-rule="evenodd" clip-rule="evenodd" d="M14.0411 12.9411C14.0411 12.9411 15.4911 11.9201 15.8473 11.9201C16.2035 11.9201 17.723 12.9466 18.0339 13.0863C18.3447 13.2259 18.0339 15.9642 18.0339 15.9642H13.921L14.0411 12.9411Z" fill="#027934"/>
<path fill-rule="evenodd" clip-rule="evenodd" d="M14.0304 11.7258L14.1198 11.7752C14.6083 10.9507 15.23 10.5418 15.9882 10.5418C16.8371 10.5891 17.4729 11.0524 17.8972 11.9384L17.9907 11.8966C17.5511 10.9789 16.883 10.492 15.9911 10.4424C15.1898 10.4423 14.5361 10.8724 14.0304 11.7258ZM13.6704 13.3159L13.8369 13.204L14.0034 13.3159L13.9447 13.1284L14.1063 13.01L13.9035 13.006L13.8369 12.8209L13.7703 13.006L13.5675 13.01L13.7291 13.1284L13.6704 13.3159ZM14.0429 13.9503L13.8764 14.0622L13.9352 13.8746L13.7735 13.7562L13.9763 13.7523L14.0429 13.5672L14.1095 13.7523L14.3123 13.7562L14.1507 13.8746L14.2094 14.0622L14.0429 13.9503ZM14.2884 14.6592L14.4549 14.5473L14.6214 14.6592L14.5627 14.4716L14.7243 14.3533L14.5215 14.3493L14.4549 14.1642L14.3883 14.3493L14.1855 14.3533L14.3472 14.4716L14.2884 14.6592ZM15.073 15.0448L14.9065 15.1567L14.9652 14.9692L14.8036 14.8508L15.0064 14.8468L15.073 14.6617L15.1396 14.8468L15.3424 14.8508L15.1807 14.9692L15.2395 15.1567L15.073 15.0448ZM15.782 15.4055L15.9485 15.2935L16.115 15.4055L16.0563 15.2179L16.2179 15.0995L16.0151 15.0955L15.9485 14.9105L15.8819 15.0955L15.6791 15.0995L15.8407 15.2179L15.782 15.4055ZM18.1116 13.204L18.2781 13.3159L18.2193 13.1284L18.381 13.01L18.1782 13.006L18.1116 12.8209L18.045 13.006L17.8422 13.01L18.0038 13.1284L17.9451 13.3159L18.1116 13.204ZM18.0721 14.0622L17.9056 13.9503L17.7391 14.0622L17.7978 13.8746L17.6362 13.7562L17.839 13.7523L17.9056 13.5672L17.9722 13.7523L18.175 13.7562L18.0133 13.8746L18.0721 14.0622ZM17.4936 14.5473L17.6601 14.6592L17.6013 14.4716L17.763 14.3533L17.5602 14.3493L17.4936 14.1642L17.427 14.3493L17.2242 14.3533L17.3858 14.4716L17.3271 14.6592L17.4936 14.5473ZM17.042 15.1567L16.8755 15.0448L16.709 15.1567L16.7678 14.9692L16.6061 14.8508L16.8089 14.8468L16.8755 14.6617L16.9421 14.8468L17.1449 14.8508L16.9833 14.9692L17.042 15.1567Z" fill="#FFC036"/>
<path d="M14.6834 7.007L14.8821 7.15161C14.3727 7.60871 14.277 8.11842 14.3745 8.55632C14.4761 9.01253 14.9279 9.49917 15.7491 9.9989L15.4472 10.462C14.5094 9.89132 13.9693 9.3633 13.8292 8.73448C13.6851 8.08735 14.0389 7.58521 14.6834 7.007Z" fill="#036A2D"/>
<path d="M17.3866 7.007L17.1879 7.15161C17.6973 7.60871 17.7931 8.11842 17.6955 8.55632C17.5939 9.01253 17.1421 9.49917 16.3209 9.9989L16.6228 10.462C17.5606 9.89132 18.1007 9.3633 18.2408 8.73448C18.3849 8.08735 18.0311 7.58521 17.3866 7.007Z" fill="#036A2D"/>
<path fill-rule="evenodd" clip-rule="evenodd" d="M12.7751 8.86152C12.7751 8.86152 13.6445 8.26039 14.0571 8.26039C14.4696 8.26039 15.0202 8.1227 15.1065 8.43896C15.1929 8.75522 15.356 8.66363 15.6756 8.66363C15.9951 8.66363 16.623 8.66363 16.623 8.66363C16.623 8.66363 16.4355 8.26039 16.783 8.26039C17.1305 8.26039 18.5819 8.46575 19.02 8.66363C19.4582 8.86152 19.4802 8.9785 19.4802 8.9785C19.4802 8.9785 19.0747 8.74453 18.6262 8.86152C18.1776 8.9785 17.3641 9.49356 16.9936 9.49356C16.623 9.49356 16.3264 9.8917 16.3264 9.8917C16.3264 9.8917 16.3508 9.68762 16.0132 9.78966C15.6756 9.8917 15.6835 10.3724 15.395 10.2841C15.1065 10.1959 15.4781 9.49356 15.395 9.49356C15.3119 9.49356 14.7229 9.26272 14.7229 9.26272C14.7229 9.26272 14.1514 8.74453 13.3028 8.86152C12.4542 8.9785 12.7751 8.86152 12.7751 8.86152Z" fill="#452C24"/>
<path fill-rule="evenodd" clip-rule="evenodd" d="M15.8712 9.28856C16.0419 9.28856 16.1803 9.16605 16.1803 9.01493C16.1803 8.8638 16.0419 8.74129 15.8712 8.74129C15.7006 8.74129 15.5622 8.8638 15.5622 9.01493C15.5622 9.16605 15.7006 9.28856 15.8712 9.28856Z" fill="#E7E7E7"/>
<path fill-rule="evenodd" clip-rule="evenodd" d="M15.2037 9.00716C15.2037 9.00716 15.3036 8.81821 15.5017 8.81821C15.6998 8.81821 16.0711 8.81821 16.0711 8.91268C16.0711 9.00716 16.1009 9.13058 15.8013 9.13058C15.5017 9.13058 15.6937 9.00716 15.5017 9.00716C15.3097 9.00716 15.2037 9.00716 15.2037 9.00716Z" fill="#E8A30C"/>
<path fill-rule="evenodd" clip-rule="evenodd" d="M18.7363 10.2834C18.8515 10.1628 18.9158 9.87043 18.9158 9.87043C18.9158 9.87043 18.4017 9.95274 18.2819 9.87043C18.1622 9.78813 18.1002 9.54694 18.1002 9.54694C18.1002 9.54694 17.6369 9.75862 17.8136 9.75862C17.9903 9.75862 18.1002 9.91517 18.1002 9.91517L18.4596 10.0476C18.4596 10.0476 18.221 10.2834 18.3403 10.2834C18.4596 10.2834 18.6212 10.404 18.7363 10.2834Z" fill="#E1E5E8"/>
<path d="M17.8308 10.3838L17.766 10.3065L18.2177 9.95293L18.2824 10.0303L17.8308 10.3838Z" fill="#925229"/>
</g>
</g>
<defs>
<clipPath id="clip0_30_17915">
<rect width="32" height="24" fill="white"/>
</clipPath>
</defs>
</svg>
