<svg width="32" height="24" viewBox="0 0 32 24" fill="none" xmlns="http://www.w3.org/2000/svg">
<g clip-path="url(#clip0_30_17925)">
<rect width="32" height="24" fill="white"/>
<path fill-rule="evenodd" clip-rule="evenodd" d="M0 0H32V24H0V0Z" fill="#73BE4A"/>
<path fill-rule="evenodd" clip-rule="evenodd" d="M0 0V16H32V0H0Z" fill="#AF0100"/>
<rect width="6" height="24" fill="#F7FCFF"/>
<path fill-rule="evenodd" clip-rule="evenodd" d="M0.444214 2.23605L1.89684 0.0568237L3.31207 2.23599L1.8968 4.31536L0.444214 2.23605ZM1.89149 3.42535L2.70566 2.22914L1.89145 0.975423L1.05579 2.22908L1.89149 3.42535ZM2 2.06451H1.75V2.58064H2V2.06451Z" fill="#B20000"/>
<path fill-rule="evenodd" clip-rule="evenodd" d="M1.13706 4.18587L0.444214 5.17656L1.13704 6.12182L1.81207 5.17653L1.13706 4.18587ZM1.46111 5.19335L1.14893 5.61713L0.832999 5.16807L1.14809 4.70301L1.46111 5.19335Z" fill="#B20000"/>
<path fill-rule="evenodd" clip-rule="evenodd" d="M2.63706 4.18587L1.94421 5.17656L2.63704 6.12182L3.31207 5.17653L2.63706 4.18587ZM2.96111 5.19335L2.64893 5.61713L2.333 5.16807L2.64809 4.70301L2.96111 5.19335Z" fill="#B20000"/>
<path fill-rule="evenodd" clip-rule="evenodd" d="M3.63706 4.18587L2.94421 5.17656L3.63704 6.12182L4.31207 5.17653L3.63706 4.18587ZM3.96111 5.19335L3.64893 5.61713L3.333 5.16807L3.64809 4.70301L3.96111 5.19335Z" fill="#B20000"/>
<path fill-rule="evenodd" clip-rule="evenodd" d="M5.13706 4.18587L4.44421 5.17656L5.13704 6.12182L5.81207 5.17653L5.13706 4.18587ZM5.46111 5.19335L5.14893 5.61713L4.833 5.16807L5.14809 4.70301L5.46111 5.19335Z" fill="#B20000"/>
<path fill-rule="evenodd" clip-rule="evenodd" d="M2.94421 2.23605L4.39684 0.0568237L5.81207 2.23599L4.3968 4.31536L2.94421 2.23605ZM4.39149 3.42535L5.20566 2.22914L4.39145 0.975423L3.55579 2.22908L4.39149 3.42535ZM4.5 2.06451H4.25V2.58064H4.5V2.06451Z" fill="#B20000"/>
<path d="M1.65618 12.4061L0.0370178 9.68706L0.462977 9.41678L1.63676 11.3879L3.06898 8.75594L4.53679 11.3942L5.57388 9.67287L5.99846 9.94545L4.5197 12.3998L3.0738 9.80096L1.65618 12.4061Z" fill="#B20000"/>
<path fill-rule="evenodd" clip-rule="evenodd" d="M0.75 0.516129H1.01882V1.03226H0.75V0.516129Z" fill="#B20000"/>
<path fill-rule="evenodd" clip-rule="evenodd" d="M3 0H3.26882V0.516129H3V0Z" fill="#B20000"/>
<path fill-rule="evenodd" clip-rule="evenodd" d="M5.25 0.516129H5.51882V1.03226H5.25V0.516129Z" fill="#B20000"/>
<path fill-rule="evenodd" clip-rule="evenodd" d="M0.75 3.6129H1V4.12903H0.75V3.6129ZM3 3.6129H3.25V4.12903H3V3.6129ZM5.5 3.6129H5.25V4.12903H5.5V3.6129Z" fill="#B20000"/>
<path fill-rule="evenodd" clip-rule="evenodd" d="M0.75 6.19354H1V6.70967H0.75V6.19354ZM3 6.19354H3.25V6.70967H3V6.19354ZM5.5 6.19354H5.25V6.70967H5.5V6.19354Z" fill="#B20000"/>
<path fill-rule="evenodd" clip-rule="evenodd" d="M2.2082 8.95472L1.544 9.92295L0.496338 8.03605L1.8761 5.88022L3.06266 7.75941L4.24923 5.88022L5.62899 8.03605L4.58133 9.92295L3.91713 8.95472L4.44153 7.86446L4.24923 7.42147L3.12899 9.23856V9.45373L3.06266 9.34615L2.99634 9.45373V9.23856L1.8761 7.42147L1.6838 7.86446L2.2082 8.95472Z" fill="#B20000"/>
<path fill-rule="evenodd" clip-rule="evenodd" d="M3 10.5806H3.25V11.0968H3V10.5806ZM3 13.1613H3.25V13.6774H3V13.1613ZM3 11.3548H2.75V11.871H3V12.129H2.75V12.6452H3V12.3871H3.25V12.6452H3.5V12.129H3.25V11.871H3.5V11.3548H3.25V11.871H3V11.3548ZM2.25 11.871H2.5V12.3871H2.25V11.871ZM4 11.871H3.75V12.3871H4V11.871ZM0.5 11.871H0.75V12.3871H0.5V11.871ZM5.75 11.871H5.5V12.3871H5.75V11.871Z" fill="#B20000"/>
<path fill-rule="evenodd" clip-rule="evenodd" d="M0.444214 21.7639L1.89684 23.9432L3.31207 21.764L1.8968 19.6846L0.444214 21.7639ZM1.89149 20.5747L2.70566 21.7709L1.89145 23.0246L1.05579 21.7709L1.89149 20.5747ZM2 21.9355H1.75V21.4194H2V21.9355Z" fill="#B20000"/>
<path fill-rule="evenodd" clip-rule="evenodd" d="M1.13706 19.8141L0.444214 18.8234L1.13704 17.8782L1.81207 18.8235L1.13706 19.8141ZM1.46111 18.8067L1.14893 18.3829L0.832999 18.8319L1.14809 19.297L1.46111 18.8067Z" fill="#B20000"/>
<path fill-rule="evenodd" clip-rule="evenodd" d="M2.63706 19.8141L1.94421 18.8234L2.63704 17.8782L3.31207 18.8235L2.63706 19.8141ZM2.96111 18.8067L2.64893 18.3829L2.333 18.8319L2.64809 19.297L2.96111 18.8067Z" fill="#B20000"/>
<path fill-rule="evenodd" clip-rule="evenodd" d="M3.63706 19.8141L2.94421 18.8234L3.63704 17.8782L4.31207 18.8235L3.63706 19.8141ZM3.96111 18.8067L3.64893 18.3829L3.333 18.8319L3.64809 19.297L3.96111 18.8067Z" fill="#B20000"/>
<path fill-rule="evenodd" clip-rule="evenodd" d="M5.13706 19.8141L4.44421 18.8234L5.13704 17.8782L5.81207 18.8235L5.13706 19.8141ZM5.46111 18.8067L5.14893 18.3829L4.833 18.8319L5.14809 19.297L5.46111 18.8067Z" fill="#B20000"/>
<path fill-rule="evenodd" clip-rule="evenodd" d="M2.94421 21.7639L4.39684 23.9432L5.81207 21.764L4.3968 19.6846L2.94421 21.7639ZM4.39149 20.5747L5.20566 21.7709L4.39145 23.0246L3.55579 21.7709L4.39149 20.5747ZM4.5 21.9355H4.25V21.4194H4.5V21.9355Z" fill="#B20000"/>
<path d="M1.65618 11.5939L0.0370178 14.3129L0.462977 14.5832L1.63676 12.6121L3.06898 15.2441L4.53679 12.6058L5.57388 14.3271L5.99846 14.0546L4.5197 11.6002L3.0738 14.199L1.65618 11.5939Z" fill="#B20000"/>
<path fill-rule="evenodd" clip-rule="evenodd" d="M0.75 23.4839H1.01882V22.9677H0.75V23.4839Z" fill="#B20000"/>
<path fill-rule="evenodd" clip-rule="evenodd" d="M3 24H3.26882V23.4839H3V24Z" fill="#B20000"/>
<path fill-rule="evenodd" clip-rule="evenodd" d="M5.25 23.4839H5.51882V22.9677H5.25V23.4839Z" fill="#B20000"/>
<path fill-rule="evenodd" clip-rule="evenodd" d="M0.75 20.3871H1V19.871H0.75V20.3871ZM3 20.3871H3.25V19.871H3V20.3871ZM5.5 20.3871H5.25V19.871H5.5V20.3871Z" fill="#B20000"/>
<path fill-rule="evenodd" clip-rule="evenodd" d="M0.75 17.8065H1V17.2903H0.75V17.8065ZM3 17.8065H3.25V17.2903H3V17.8065ZM5.5 17.8065H5.25V17.2903H5.5V17.8065Z" fill="#B20000"/>
<path fill-rule="evenodd" clip-rule="evenodd" d="M2.2082 15.1928L1.544 14.2246L0.496338 16.1115L1.8761 18.2673L3.06266 16.3881L4.24923 18.2673L5.62899 16.1115L4.58133 14.2246L3.91713 15.1928L4.44153 16.2831L4.24923 16.7261L3.12899 14.909V14.6938L3.06266 14.8014L2.99634 14.6938V14.909L1.8761 16.7261L1.6838 16.2831L2.2082 15.1928Z" fill="#B20000"/>
</g>
<defs>
<clipPath id="clip0_30_17925">
<rect width="32" height="24" fill="white"/>
</clipPath>
</defs>
</svg>
