<svg width="32" height="24" viewBox="0 0 32 24" fill="none" xmlns="http://www.w3.org/2000/svg">
<g clip-path="url(#clip0_30_18156)">
<rect width="32" height="24" fill="white"/>
<path fill-rule="evenodd" clip-rule="evenodd" d="M0 0V24H32V0H0Z" fill="#0168B4"/>
<mask id="mask0_30_18156" style="mask-type:luminance" maskUnits="userSpaceOnUse" x="0" y="0" width="32" height="24">
<path fill-rule="evenodd" clip-rule="evenodd" d="M0 0V24H32V0H0Z" fill="white"/>
</mask>
<g mask="url(#mask0_30_18156)">
<path fill-rule="evenodd" clip-rule="evenodd" d="M0 0V3H32V0H0Z" fill="#E93C43"/>
<path fill-rule="evenodd" clip-rule="evenodd" d="M0 21V24H32V21H0Z" fill="#E93C43"/>
<path d="M16 18C12.6863 18 10 15.3137 10 12C10 8.68629 12.6863 6 16 6C19.3137 6 22 8.68629 22 12C22 15.3137 19.3137 18 16 18Z" fill="#F7FCFF"/>
<path d="M16 20C11.5817 20 8 16.4183 8 12C8 7.58172 11.5817 4 16 4C20.4183 4 24 7.58172 24 12C24 16.4183 20.4183 20 16 20Z" fill="white"/>
<path fill-rule="evenodd" clip-rule="evenodd" d="M16 19C19.866 19 23 15.866 23 12C23 8.13401 19.866 5 16 5C12.134 5 9 8.13401 9 12C9 15.866 12.134 19 16 19Z" stroke="#9C4C17" stroke-width="0.5"/>
<path fill-rule="evenodd" clip-rule="evenodd" d="M15.5729 4.08286L15.4177 4.41775C15.6738 4.55683 15.771 4.87161 15.771 5.06231C15.771 5.25103 15.6708 5.39499 15.4177 5.52719L15.5729 5.87336C15.679 5.81796 15.7839 5.77136 15.8831 5.72729C16.2388 5.5693 16.521 5.44393 16.521 5.06231C16.521 4.596 16.0934 4.3646 15.6318 4.11478L15.5729 4.08286ZM17.8134 4.29271L17.5718 4.57184C17.7797 4.77613 17.7863 5.1055 17.7338 5.2888C17.6817 5.47022 17.5458 5.58099 17.266 5.6383L17.3198 6.01385C17.4371 5.98984 17.5508 5.97396 17.6582 5.95894C18.0437 5.9051 18.3495 5.86237 18.4547 5.49553C18.5832 5.04729 18.236 4.70701 17.8612 4.33963L17.8134 4.29271ZM19.6082 5.32241L19.9208 5.12609L19.9528 5.18494C20.2039 5.64587 20.4364 6.07279 20.1825 6.46387C19.9746 6.78392 19.6696 6.73536 19.2853 6.67416C19.1781 6.6571 19.0648 6.63905 18.9456 6.62773L19.004 6.25286C19.2883 6.27985 19.4507 6.21367 19.5535 6.05539C19.6573 5.89546 19.7473 5.57855 19.6082 5.32241ZM21.6917 6.51513L21.3371 6.61768C21.4002 6.90223 21.2264 7.18207 21.0825 7.30718C20.94 7.43099 20.7657 7.44985 20.4998 7.34554L20.3404 7.68981C20.4518 7.73352 20.5558 7.78212 20.6541 7.82806L20.6541 7.82807C21.0067 7.99283 21.2865 8.12357 21.5745 7.87321C21.9264 7.56728 21.8206 7.0928 21.7063 6.58053L21.6917 6.51513ZM22.6314 8.34623L23.0005 8.34539L22.9965 8.41227C22.9652 8.93619 22.9361 9.42148 22.5135 9.61854C22.1676 9.77982 21.9347 9.57703 21.6412 9.32147C21.5594 9.25019 21.4728 9.17482 21.3778 9.10209L21.6259 8.8151C21.8527 8.98864 22.0255 9.01857 22.1965 8.93881C22.3694 8.85822 22.6136 8.63713 22.6314 8.34623ZM23.7511 10.4835L23.3979 10.3764C23.2958 10.6494 22.9976 10.7894 22.8088 10.816C22.6219 10.8422 22.4654 10.7631 22.2993 10.5308L21.9781 10.7327C22.0477 10.8301 22.1084 10.9275 22.1659 11.0196C22.3718 11.3498 22.5353 11.6118 22.9132 11.5587C23.3749 11.4938 23.5446 11.0382 23.7277 10.5463L23.7511 10.4835ZM23.5515 12.531L23.8615 12.7314L23.8217 12.7853C23.51 13.2076 23.2214 13.5988 22.7596 13.5339C22.3817 13.4808 22.2968 13.1838 22.1899 12.8097C22.16 12.7053 22.1285 12.5949 22.0884 12.4822L22.4528 12.3766C22.5485 12.6457 22.6771 12.7649 22.864 12.7912C23.0528 12.8177 23.3781 12.7653 23.5515 12.531ZM23.3356 14.9361L23.0977 14.6539C22.8634 14.8272 22.537 14.7822 22.3642 14.7016C22.1932 14.6219 22.105 14.4703 22.0922 14.185L21.7128 14.1794C21.7182 14.2989 21.7161 14.4137 21.7141 14.5222C21.707 14.9113 21.7014 15.2201 22.0472 15.3814C22.4699 15.5784 22.8603 15.2888 23.2818 14.976L23.3356 14.9361ZM22.061 16.5497L22.2119 16.8865L22.1491 16.9101C21.6577 17.0945 21.2026 17.2654 20.8507 16.9595C20.5627 16.7091 20.6532 16.4138 20.7673 16.0418C20.7991 15.938 20.8328 15.8283 20.8606 15.7119L21.2237 15.8218C21.1574 16.0996 21.2003 16.2696 21.3427 16.3934C21.4866 16.5185 21.788 16.6517 22.061 16.5497ZM20.5857 18.4421L20.5335 18.0767C20.243 18.0996 19.99 17.8885 19.8862 17.7286C19.7834 17.5703 19.789 17.395 19.9293 17.1463L19.6105 16.9405C19.5517 17.0447 19.4891 17.1409 19.43 17.2319C19.2177 17.5581 19.0493 17.817 19.2572 18.137C19.5111 18.5281 19.9957 18.4893 20.5189 18.4474L20.5857 18.4421ZM18.6324 19.1241L18.5755 19.4888L18.51 19.4743C17.9975 19.3614 17.5227 19.2568 17.3942 18.8086C17.289 18.4417 17.5257 18.2434 17.824 17.9935C17.9072 17.9238 17.9952 17.8501 18.0819 17.7676L18.3266 18.0576C18.1197 18.2545 18.0631 18.4204 18.1151 18.6019C18.1677 18.7852 18.3478 19.061 18.6324 19.1241ZM16.3658 19.9172L16.521 19.5823C16.2649 19.4432 16.1677 19.1284 16.1677 18.9377C16.1677 18.749 16.2679 18.605 16.521 18.4728L16.3658 18.1266C16.2597 18.1821 16.1548 18.2287 16.0556 18.2727C15.6999 18.4307 15.4177 18.5561 15.4177 18.9377C15.4177 19.404 15.8453 19.6354 16.3068 19.8852L16.3658 19.9172ZM14.3669 19.4282L14.1253 19.7073L14.0775 19.6604C13.7027 19.293 13.3555 18.9527 13.484 18.5045C13.5892 18.1376 13.895 18.0949 14.2804 18.0411L14.2805 18.0411C14.388 18.0261 14.5016 18.0102 14.6189 17.9862L14.6727 18.3617C14.3929 18.419 14.257 18.5298 14.2049 18.7112C14.1524 18.8945 14.159 19.2239 14.3669 19.4282ZM12.0179 18.8739L12.3305 18.6776C12.1914 18.4215 12.2814 18.1046 12.3852 17.9446C12.488 17.7863 12.6504 17.7202 12.9347 17.7471L12.9931 17.3723C12.8739 17.361 12.7606 17.3429 12.6534 17.3258C12.2691 17.2647 11.9641 17.2161 11.7562 17.5361C11.5023 17.9272 11.7348 18.3541 11.9859 18.8151L12.0179 18.8739ZM10.6015 17.3823L10.247 17.4849L10.2324 17.4195C10.1181 16.9072 10.0123 16.4327 10.3642 16.1268C10.6522 15.8764 10.932 16.0072 11.2845 16.1719C11.3829 16.2179 11.4869 16.2665 11.5983 16.3102L11.4389 16.6545C11.173 16.5502 10.9987 16.569 10.8562 16.6928C10.7123 16.8179 10.5385 17.0978 10.6015 17.3823ZM8.93816 15.6546L9.30727 15.6538C9.32509 15.3629 9.56932 15.1418 9.74214 15.0612C9.91318 14.9814 10.086 15.0114 10.3128 15.1849L10.5609 14.8979C10.4659 14.8252 10.3793 14.7498 10.2974 14.6785C10.0039 14.423 9.77105 14.2202 9.42518 14.3815C9.00256 14.5785 8.97353 15.0638 8.94219 15.5877L8.93816 15.6546ZM8.54078 13.6236L8.18755 13.5165L8.21096 13.4537C8.39411 12.9618 8.56376 12.5062 9.02552 12.4413C9.40343 12.3882 9.56687 12.6503 9.77282 12.9805C9.83026 13.0725 9.891 13.1699 9.96063 13.2673L9.63943 13.4692C9.47329 13.2369 9.31679 13.1578 9.1299 13.184C8.94107 13.2106 8.64287 13.3506 8.54078 13.6236ZM8.07721 11.2686L8.38724 11.469C8.56061 11.2347 8.88585 11.1823 9.07469 11.2088C9.26158 11.2351 9.3902 11.3543 9.48588 11.6234L9.85029 11.5178C9.81019 11.4051 9.77864 11.2947 9.74881 11.1904L9.74881 11.1903C9.64186 10.8162 9.55698 10.5192 9.17907 10.4661C8.71731 10.4012 8.42865 10.7924 8.11702 11.2147L8.07721 11.2686ZM8.84101 9.34614L8.6031 9.06392L8.65693 9.02402C9.07842 8.71126 9.46883 8.42156 9.89144 8.61863C10.2373 8.77991 10.2317 9.08868 10.2246 9.47778C10.2226 9.5863 10.2205 9.70106 10.2258 9.82062L9.8465 9.81501C9.83366 9.52973 9.74552 9.37812 9.57448 9.29836C9.40165 9.21777 9.0753 9.1728 8.84101 9.34614ZM9.72683 7.11347L9.87773 7.45034C10.1507 7.34829 10.452 7.48148 10.596 7.60658C10.7384 7.7304 10.7813 7.90043 10.715 8.1782L11.0781 8.28815C11.1059 8.17174 11.1396 8.062 11.1714 7.95823C11.2855 7.58617 11.376 7.29092 11.088 7.04055C10.7361 6.73463 10.2809 6.90549 9.78957 7.08996L9.72683 7.11347ZM11.4052 5.9233L11.353 5.55789L11.4198 5.55257C11.943 5.51069 12.4276 5.4719 12.6815 5.86298C12.8894 6.18304 12.721 6.44189 12.5087 6.7681C12.4495 6.85907 12.3869 6.95529 12.3282 7.05953L12.0094 6.85375C12.1497 6.60502 12.1553 6.42973 12.0525 6.27146C11.9487 6.11153 11.6957 5.90045 11.4052 5.9233ZM13.3632 4.51124L13.3063 4.87594C13.5909 4.93904 13.771 5.21485 13.8236 5.39816C13.8756 5.57957 13.819 5.74556 13.6121 5.94241L13.8568 6.23238C13.9435 6.14988 14.0315 6.07618 14.1147 6.00648C14.413 5.75658 14.6497 5.55827 14.5445 5.19143C14.416 4.74319 13.9412 4.6386 13.4287 4.52568C13.4069 4.52089 13.3851 4.51608 13.3632 4.51124Z" fill="#5B8C39"/>
<path fill-rule="evenodd" clip-rule="evenodd" d="M12.2788 13.9869C12.2788 13.9869 11.179 13.9628 11.179 14.4681C11.179 14.9734 11.179 15.5332 11.7289 15.2533C12.2788 14.9734 12.9511 14.8629 13.3067 15.0581C13.6623 15.2533 14.4909 15.65 15.659 15.65C16.827 15.65 16.7491 15.2533 17.8248 15.2533C18.9006 15.2533 20.8212 15.1677 20.3764 14.8179C19.9316 14.4681 19.4081 14.2468 19.0084 14.2468C18.6087 14.2468 18.3023 14.2468 17.4619 13.8349C16.6216 13.4231 15.6834 13.3858 14.7381 13.5186C13.7928 13.6514 13.668 13.9869 13.109 13.9869C12.5499 13.9869 12.2788 13.9869 12.2788 13.9869Z" fill="#247805"/>
<path d="M16.1 15.65C16.1705 15.8898 16.1706 15.8898 16.1707 15.8898L16.171 15.8897L16.1717 15.8895L16.1736 15.8889L16.1796 15.8871L16.2 15.8806C16.2171 15.8751 16.2414 15.8669 16.2717 15.856C16.3322 15.8342 16.4173 15.8014 16.5187 15.756C16.7208 15.6656 16.9915 15.524 17.2636 15.319C17.8085 14.9084 18.3763 14.2278 18.3763 13.1918V13.1838V13.1759V13.1679V13.16V13.152V13.1441V13.1362V13.1282V13.1203V13.1124V13.1045V13.0966V13.0887V13.0808V13.0729V13.065V13.0571V13.0493V13.0414V13.0336V13.0257V13.0179V13.01V13.0022V12.9944V12.9865V12.9787V12.9709V12.9631V12.9553V12.9475V12.9397V12.932V12.9242V12.9164V12.9087V12.9009V12.8932V12.8855V12.8777V12.87V12.8623V12.8546V12.8469V12.8392V12.8315V12.8238V12.8161V12.8085V12.8008V12.7932V12.7855V12.7779V12.7702V12.7626V12.755V12.7474V12.7398V12.7322V12.7246V12.717V12.7095V12.7019V12.6944V12.6868V12.6793V12.6717V12.6642V12.6567V12.6492V12.6417V12.6342V12.6267V12.6192V12.6118V12.6043V12.5969V12.5894V12.582V12.5746V12.5672V12.5597V12.5523V12.545V12.5376V12.5302V12.5228V12.5155V12.5081V12.5008V12.4935V12.4861V12.4788V12.4715V12.4642V12.4569V12.4497V12.4424V12.4351V12.4279V12.4207V12.4134V12.4062V12.399V12.3918V12.3846V12.3774V12.3702V12.3631V12.3559V12.3488V12.3416V12.3345V12.3274V12.3203V12.3132V12.3061V12.299V12.292V12.2849V12.2779V12.2708V12.2638V12.2568V12.2498V12.2428V12.2358V12.2288V12.2219V12.2149V12.208V12.2011V12.1941V12.1872V12.1803V12.1734V12.1665V12.1597V12.1528V12.146V12.1391V12.1323V12.1255V12.1187V12.1119V12.1051V12.0984V12.0916V12.0848V12.0781V12.0714V12.0647V12.058V12.0513V12.0446V12.0379V12.0313V12.0246V12.018V12.0114V12.0048V11.9982V11.9916V11.985V11.9784V11.9719V11.9654V11.9588V11.9523V11.9458V11.9393V11.9328V11.9264V11.9199V11.9135V11.907V11.9006V11.8942V11.8878V11.8814V11.8751V11.8687V11.8624V11.8561V11.8497V11.8434V11.8371V11.8309V11.8246V11.8183V11.8121V11.8059V11.7997V11.7934V11.7873V11.7811V11.7749V11.7688V11.7626V11.7565V11.7504V11.7443V11.7382V11.7322V11.7261V11.7201V11.714V11.708V11.702V11.696V11.69V11.6841V11.6781V11.6722V11.6663V11.6604V11.6545V11.6486V11.6427V11.6369V11.6311V11.6252V11.6194V11.6136V11.6079V11.6021V11.5963V11.5906V11.5849V11.5792V11.5735V11.5678V11.5622V11.5565V11.5509V11.5453V11.5396V11.5341V11.5285V11.5229V11.5174V11.5118V11.5063V11.5008V11.4953V11.4899V11.4844V11.479V11.4736V11.4682V11.4628V11.4574V11.452V11.4467V11.4413V11.436V11.4307V11.4254V11.4202V11.4149V11.4097V11.4045V11.3992V11.3941V11.3889V11.3837V11.3786V11.3735V11.3683V11.3632V11.3582V11.3531V11.3481V11.343V11.338V11.333V11.328V11.3231V11.3181V11.3132V11.3083V11.3034V11.2985V11.2936V11.2888V11.284V11.2791V11.2743V11.2696V11.2648V11.26V11.2553V11.2506V11.2459V11.2412V11.2366V11.2319V11.2273V11.2227V11.2181V11.2135V11.209V11.2044V11.1999V11.1954V11.1909V11.1864V11.182V11.1775V11.1731V11.1687V11.1643V11.16V11.1556V11.1513V11.147V11.1427V11.1384V11.1342V11.1299V11.1257V11.1215V11.1173V11.1131V11.109V11.1049V11.1008V11.0967V11.0926V11.0885V11.0845V11.0805V11.0765V11.0725V11.0685V11.0646V11.0337V11.0299V11.0262V11.0225V11.0187V11.015V11.0114V11.0077V11.0041V11.0005V10.9969V10.9933V10.9897V10.9862V10.9827V10.9792V10.9757V10.9722V10.9688V10.9653V10.9619V10.9586V10.9552V10.9519V10.9485V10.9452V10.9419V10.9387V10.9354V10.9322V10.929V10.9258V10.9227V10.9195V10.9164V10.9133V10.9102V10.9072V10.9042V10.9011V10.8981V10.8952V10.8922V10.8893V10.8864V10.8835V10.8806V10.8777V10.8749V10.8721V10.8693V10.8666V10.8638V10.8611V10.8584V10.8557V10.8531V10.8504V10.8478V10.8452V10.8426V10.8401V10.8375V10.835V10.8326V10.8301V10.8276V10.8252V10.8228V10.8204V10.8181V10.8158V10.8134V10.8111V10.8089V10.8066V10.8044V10.8022V10.8V10.7979V10.7957V10.7936V10.7915V10.7895V10.7874V10.7854V10.7834V10.7814V10.7795V10.7775V10.7756V10.7737V10.7719V10.77V10.7682V10.7664V10.7646V10.7629V10.7612V10.7595V10.7578V10.7561V10.7545V10.7529V10.7513V10.7497V10.7482V10.7467V10.7452V10.7437V10.7423V10.7408V10.7394V10.7381V10.7367V10.7354V10.7341V10.7328V10.7315V10.7303V10.7291V10.7279V10.7268V10.7256V10.7245V10.7234V10.7224V10.7213V10.7203V10.7193V10.7183V10.7174V10.7165V10.7156V10.7147V10.7139V10.713V10.7122V10.7115V10.7107V10.71V10.7093V10.7086V10.708V10.7074V10.7068V10.7062V10.7056V10.7051V10.7046V10.7042V10.7037V10.7033V10.7029V10.7025V10.7022V10.7019V10.7016V10.7013V10.701V10.7008V10.7006V10.7005V10.7003V10.7002V10.7001V10.7V10.7L18.1263 10.7H18.3763V10.45H18.1263H14.0737H13.8237V10.7H14.0737L13.8237 10.7V10.7001V10.7001V10.7002V10.7004V10.7005V10.7007V10.701V10.7012V10.7015V10.7018V10.7022V10.7026V10.703V10.7034V10.7039V10.7044V10.7049V10.7055V10.7061V10.7067V10.7073V10.708V10.7087V10.7095V10.7102V10.711V10.7118V10.7127V10.7136V10.7145V10.7154V10.7164V10.7174V10.7184V10.7194V10.7205V10.7216V10.7228V10.7239V10.7251V10.7263V10.7276V10.7289V10.7302V10.7315V10.7329V10.7342V10.7357V10.7371V10.7386V10.7401V10.7416V10.7431V10.7447V10.7463V10.7479V10.7496V10.7513V10.753V10.7547V10.7565V10.7583V10.7601V10.762V10.7638V10.7657V10.7676V10.7696V10.7716V10.7736V10.7756V10.7777V10.7797V10.7818V10.784V10.7861V10.7883V10.7905V10.7927V10.795V10.7973V10.7996V10.8019V10.8043V10.8067V10.8091V10.8115V10.814V10.8164V10.819V10.8215V10.824V10.8266V10.8292V10.8319V10.8345V10.8372V10.8399V10.8426V10.8454V10.8481V10.8509V10.8537V10.8566V10.8595V10.8623V10.8653V10.8682V10.8712V10.8741V10.8772V10.8802V10.8832V10.8863V10.8894V10.8925V10.8957V10.8988V10.902V10.9052V10.9085V10.9117V10.915V10.9183V10.9216V10.925V10.9284V10.9317V10.9352V10.9386V10.942V10.9455V10.949V10.9525V10.9561V10.9596V10.9632V10.9668V10.9705V10.9741V10.9778V10.9815V10.9852V10.9889V10.9927V10.9964V11.0002V11.0041V11.0079V11.0117V11.0156V11.0195V11.0234V11.0274V11.0313V11.0353V11.0393V11.0433V11.0474V11.0514V11.0555V11.0596V11.0637V11.0678V11.072V11.0762V11.0803V11.0846V11.0888V11.093V11.0973V11.1016V11.1059V11.1102V11.1146V11.1189V11.1233V11.1277V11.1321V11.1366V11.141V11.1455V11.15V11.1545V11.159V11.1636V11.1681V11.1727V11.1773V11.1819V11.1866V11.1912V11.1959V11.2006V11.2053V11.21V11.2147V11.2195V11.2243V11.2291V11.2339V11.2387V11.2435V11.2484V11.2533V11.2581V11.2631V11.268V11.2729V11.2779V11.2828V11.2878V11.2928V11.2979V11.3029V11.3079V11.313V11.3181V11.3232V11.3283V11.3334V11.3386V11.3437V11.3489V11.3541V11.3593V11.3645V11.3698V11.375V11.3803V11.3856V11.3909V11.3962V11.4015V11.4069V11.4122V11.4176V11.423V11.4284V11.4338V11.4392V11.4446V11.4501V11.4556V11.461V11.4665V11.472V11.4776V11.4831V11.4887V11.4942V11.4998V11.5054V11.511V11.5166V11.5222V11.5279V11.5335V11.5392V11.5449V11.5506V11.5563V11.562V11.5677V11.5735V11.5792V11.585V11.5908V11.5966V11.6024V11.6082V11.614V11.6199V11.6257V11.6316V11.6375V11.6434V11.6493V11.6552V11.6611V11.667V11.673V11.6789V11.6849V11.6909V11.6969V11.7029V11.7089V11.7149V11.7209V11.727V11.733V11.7391V11.7452V11.7513V11.7574V11.7635V11.7696V11.7757V11.7819V11.788V11.7942V11.8003V11.8065V11.8127V11.8189V11.8251V11.8313V11.8375V11.8438V11.85V11.8563V11.8625V11.8688V11.8751V11.8814V11.8877V11.894V11.9003V11.9066V11.913V11.9193V11.9256V11.932V11.9384V11.9447V11.9511V11.9575V11.9639V11.9703V11.9767V11.9832V11.9896V11.996V12.0025V12.0089V12.0154V12.0219V12.0283V12.0348V12.0413V12.0478V12.0543V12.0608V12.0673V12.0739V12.0804V12.0869V12.0935V12.1V12.1066V12.1132V12.1197V12.1263V12.1329V12.1395V12.1461V12.1527V12.1593V12.1659V12.1725V12.1791V12.1858V12.1924V12.1991V12.2057V12.2124V12.219V12.2257V12.2324V12.239V12.2457V12.2524V12.2591V12.2658V12.2725V12.2792V12.2859V12.2926V12.2993V12.306V12.3128V12.3195V12.3262V12.333V12.3397V12.3465V12.3532V12.36V12.3667V12.3735V12.3803V12.387V12.3938V12.4006V12.4074V12.4141V12.4209V12.4277V12.4345V12.4413V12.4481V12.4549V12.4617V12.4685V12.4753V12.4821V12.489V12.4958V12.5026V12.5094V12.5162V12.5231V12.5299V12.5367V12.5436V12.5504V12.5572V12.5641V12.5709V12.5778V12.5846V12.5915V12.5983V12.6052V12.612V12.6189V12.6257V12.6326V12.6394V12.6463V12.6531V12.66V12.6668V12.6737V12.6806V12.6874V12.6943V12.7012V12.708V12.7149V12.7217V12.7286V12.756V12.8109V12.8384V12.8521V12.8658V12.8932V12.9205V12.9479V12.9752V13.0296V13.0839V13.111V13.138V13.1918C13.8237 14.2017 14.3934 14.8816 14.9347 15.2969C15.2059 15.505 15.4756 15.6516 15.6771 15.7463C15.7781 15.7938 15.8628 15.8286 15.9231 15.8518C15.9533 15.8634 15.9774 15.8721 15.9945 15.8781L16.0146 15.8851L16.0206 15.887L16.0224 15.8877L16.0231 15.8879L16.0233 15.8879C16.0234 15.888 16.0235 15.888 16.1 15.65ZM16.1 15.65L16.1705 15.8898L16.0968 15.9115L16.0235 15.888L16.1 15.65Z" fill="white" stroke="#565656" stroke-width="0.5"/>
<mask id="mask1_30_18156" style="mask-type:luminance" maskUnits="userSpaceOnUse" x="13" y="10" width="6" height="7">
<path d="M16.1 15.65C16.1705 15.8898 16.1706 15.8898 16.1707 15.8898L16.171 15.8897L16.1717 15.8895L16.1736 15.8889L16.1796 15.8871L16.2 15.8806C16.2171 15.8751 16.2414 15.8669 16.2717 15.856C16.3322 15.8342 16.4173 15.8014 16.5187 15.756C16.7208 15.6656 16.9915 15.524 17.2636 15.319C17.8085 14.9084 18.3763 14.2278 18.3763 13.1918V13.1838V13.1759V13.1679V13.16V13.152V13.1441V13.1362V13.1282V13.1203V13.1124V13.1045V13.0966V13.0887V13.0808V13.0729V13.065V13.0571V13.0493V13.0414V13.0336V13.0257V13.0179V13.01V13.0022V12.9944V12.9865V12.9787V12.9709V12.9631V12.9553V12.9475V12.9397V12.932V12.9242V12.9164V12.9087V12.9009V12.8932V12.8855V12.8777V12.87V12.8623V12.8546V12.8469V12.8392V12.8315V12.8238V12.8161V12.8085V12.8008V12.7932V12.7855V12.7779V12.7702V12.7626V12.755V12.7474V12.7398V12.7322V12.7246V12.717V12.7095V12.7019V12.6944V12.6868V12.6793V12.6717V12.6642V12.6567V12.6492V12.6417V12.6342V12.6267V12.6192V12.6118V12.6043V12.5969V12.5894V12.582V12.5746V12.5672V12.5597V12.5523V12.545V12.5376V12.5302V12.5228V12.5155V12.5081V12.5008V12.4935V12.4861V12.4788V12.4715V12.4642V12.4569V12.4497V12.4424V12.4351V12.4279V12.4207V12.4134V12.4062V12.399V12.3918V12.3846V12.3774V12.3702V12.3631V12.3559V12.3488V12.3416V12.3345V12.3274V12.3203V12.3132V12.3061V12.299V12.292V12.2849V12.2779V12.2708V12.2638V12.2568V12.2498V12.2428V12.2358V12.2288V12.2219V12.2149V12.208V12.2011V12.1941V12.1872V12.1803V12.1734V12.1665V12.1597V12.1528V12.146V12.1391V12.1323V12.1255V12.1187V12.1119V12.1051V12.0984V12.0916V12.0848V12.0781V12.0714V12.0647V12.058V12.0513V12.0446V12.0379V12.0313V12.0246V12.018V12.0114V12.0048V11.9982V11.9916V11.985V11.9784V11.9719V11.9654V11.9588V11.9523V11.9458V11.9393V11.9328V11.9264V11.9199V11.9135V11.907V11.9006V11.8942V11.8878V11.8814V11.8751V11.8687V11.8624V11.8561V11.8497V11.8434V11.8371V11.8309V11.8246V11.8183V11.8121V11.8059V11.7997V11.7934V11.7873V11.7811V11.7749V11.7688V11.7626V11.7565V11.7504V11.7443V11.7382V11.7322V11.7261V11.7201V11.714V11.708V11.702V11.696V11.69V11.6841V11.6781V11.6722V11.6663V11.6604V11.6545V11.6486V11.6427V11.6369V11.6311V11.6252V11.6194V11.6136V11.6079V11.6021V11.5963V11.5906V11.5849V11.5792V11.5735V11.5678V11.5622V11.5565V11.5509V11.5453V11.5396V11.5341V11.5285V11.5229V11.5174V11.5118V11.5063V11.5008V11.4953V11.4899V11.4844V11.479V11.4736V11.4682V11.4628V11.4574V11.452V11.4467V11.4413V11.436V11.4307V11.4254V11.4202V11.4149V11.4097V11.4045V11.3992V11.3941V11.3889V11.3837V11.3786V11.3735V11.3683V11.3632V11.3582V11.3531V11.3481V11.343V11.338V11.333V11.328V11.3231V11.3181V11.3132V11.3083V11.3034V11.2985V11.2936V11.2888V11.284V11.2791V11.2743V11.2696V11.2648V11.26V11.2553V11.2506V11.2459V11.2412V11.2366V11.2319V11.2273V11.2227V11.2181V11.2135V11.209V11.2044V11.1999V11.1954V11.1909V11.1864V11.182V11.1775V11.1731V11.1687V11.1643V11.16V11.1556V11.1513V11.147V11.1427V11.1384V11.1342V11.1299V11.1257V11.1215V11.1173V11.1131V11.109V11.1049V11.1008V11.0967V11.0926V11.0885V11.0845V11.0805V11.0765V11.0725V11.0685V11.0646V11.0337V11.0299V11.0262V11.0225V11.0187V11.015V11.0114V11.0077V11.0041V11.0005V10.9969V10.9933V10.9897V10.9862V10.9827V10.9792V10.9757V10.9722V10.9688V10.9653V10.9619V10.9586V10.9552V10.9519V10.9485V10.9452V10.9419V10.9387V10.9354V10.9322V10.929V10.9258V10.9227V10.9195V10.9164V10.9133V10.9102V10.9072V10.9042V10.9011V10.8981V10.8952V10.8922V10.8893V10.8864V10.8835V10.8806V10.8777V10.8749V10.8721V10.8693V10.8666V10.8638V10.8611V10.8584V10.8557V10.8531V10.8504V10.8478V10.8452V10.8426V10.8401V10.8375V10.835V10.8326V10.8301V10.8276V10.8252V10.8228V10.8204V10.8181V10.8158V10.8134V10.8111V10.8089V10.8066V10.8044V10.8022V10.8V10.7979V10.7957V10.7936V10.7915V10.7895V10.7874V10.7854V10.7834V10.7814V10.7795V10.7775V10.7756V10.7737V10.7719V10.77V10.7682V10.7664V10.7646V10.7629V10.7612V10.7595V10.7578V10.7561V10.7545V10.7529V10.7513V10.7497V10.7482V10.7467V10.7452V10.7437V10.7423V10.7408V10.7394V10.7381V10.7367V10.7354V10.7341V10.7328V10.7315V10.7303V10.7291V10.7279V10.7268V10.7256V10.7245V10.7234V10.7224V10.7213V10.7203V10.7193V10.7183V10.7174V10.7165V10.7156V10.7147V10.7139V10.713V10.7122V10.7115V10.7107V10.71V10.7093V10.7086V10.708V10.7074V10.7068V10.7062V10.7056V10.7051V10.7046V10.7042V10.7037V10.7033V10.7029V10.7025V10.7022V10.7019V10.7016V10.7013V10.701V10.7008V10.7006V10.7005V10.7003V10.7002V10.7001V10.7V10.7L18.1263 10.7H18.3763V10.45H18.1263H14.0737H13.8237V10.7H14.0737L13.8237 10.7V10.7001V10.7001V10.7002V10.7004V10.7005V10.7007V10.701V10.7012V10.7015V10.7018V10.7022V10.7026V10.703V10.7034V10.7039V10.7044V10.7049V10.7055V10.7061V10.7067V10.7073V10.708V10.7087V10.7095V10.7102V10.711V10.7118V10.7127V10.7136V10.7145V10.7154V10.7164V10.7174V10.7184V10.7194V10.7205V10.7216V10.7228V10.7239V10.7251V10.7263V10.7276V10.7289V10.7302V10.7315V10.7329V10.7342V10.7357V10.7371V10.7386V10.7401V10.7416V10.7431V10.7447V10.7463V10.7479V10.7496V10.7513V10.753V10.7547V10.7565V10.7583V10.7601V10.762V10.7638V10.7657V10.7676V10.7696V10.7716V10.7736V10.7756V10.7777V10.7797V10.7818V10.784V10.7861V10.7883V10.7905V10.7927V10.795V10.7973V10.7996V10.8019V10.8043V10.8067V10.8091V10.8115V10.814V10.8164V10.819V10.8215V10.824V10.8266V10.8292V10.8319V10.8345V10.8372V10.8399V10.8426V10.8454V10.8481V10.8509V10.8537V10.8566V10.8595V10.8623V10.8653V10.8682V10.8712V10.8741V10.8772V10.8802V10.8832V10.8863V10.8894V10.8925V10.8957V10.8988V10.902V10.9052V10.9085V10.9117V10.915V10.9183V10.9216V10.925V10.9284V10.9317V10.9352V10.9386V10.942V10.9455V10.949V10.9525V10.9561V10.9596V10.9632V10.9668V10.9705V10.9741V10.9778V10.9815V10.9852V10.9889V10.9927V10.9964V11.0002V11.0041V11.0079V11.0117V11.0156V11.0195V11.0234V11.0274V11.0313V11.0353V11.0393V11.0433V11.0474V11.0514V11.0555V11.0596V11.0637V11.0678V11.072V11.0762V11.0803V11.0846V11.0888V11.093V11.0973V11.1016V11.1059V11.1102V11.1146V11.1189V11.1233V11.1277V11.1321V11.1366V11.141V11.1455V11.15V11.1545V11.159V11.1636V11.1681V11.1727V11.1773V11.1819V11.1866V11.1912V11.1959V11.2006V11.2053V11.21V11.2147V11.2195V11.2243V11.2291V11.2339V11.2387V11.2435V11.2484V11.2533V11.2581V11.2631V11.268V11.2729V11.2779V11.2828V11.2878V11.2928V11.2979V11.3029V11.3079V11.313V11.3181V11.3232V11.3283V11.3334V11.3386V11.3437V11.3489V11.3541V11.3593V11.3645V11.3698V11.375V11.3803V11.3856V11.3909V11.3962V11.4015V11.4069V11.4122V11.4176V11.423V11.4284V11.4338V11.4392V11.4446V11.4501V11.4556V11.461V11.4665V11.472V11.4776V11.4831V11.4887V11.4942V11.4998V11.5054V11.511V11.5166V11.5222V11.5279V11.5335V11.5392V11.5449V11.5506V11.5563V11.562V11.5677V11.5735V11.5792V11.585V11.5908V11.5966V11.6024V11.6082V11.614V11.6199V11.6257V11.6316V11.6375V11.6434V11.6493V11.6552V11.6611V11.667V11.673V11.6789V11.6849V11.6909V11.6969V11.7029V11.7089V11.7149V11.7209V11.727V11.733V11.7391V11.7452V11.7513V11.7574V11.7635V11.7696V11.7757V11.7819V11.788V11.7942V11.8003V11.8065V11.8127V11.8189V11.8251V11.8313V11.8375V11.8438V11.85V11.8563V11.8625V11.8688V11.8751V11.8814V11.8877V11.894V11.9003V11.9066V11.913V11.9193V11.9256V11.932V11.9384V11.9447V11.9511V11.9575V11.9639V11.9703V11.9767V11.9832V11.9896V11.996V12.0025V12.0089V12.0154V12.0219V12.0283V12.0348V12.0413V12.0478V12.0543V12.0608V12.0673V12.0739V12.0804V12.0869V12.0935V12.1V12.1066V12.1132V12.1197V12.1263V12.1329V12.1395V12.1461V12.1527V12.1593V12.1659V12.1725V12.1791V12.1858V12.1924V12.1991V12.2057V12.2124V12.219V12.2257V12.2324V12.239V12.2457V12.2524V12.2591V12.2658V12.2725V12.2792V12.2859V12.2926V12.2993V12.306V12.3128V12.3195V12.3262V12.333V12.3397V12.3465V12.3532V12.36V12.3667V12.3735V12.3803V12.387V12.3938V12.4006V12.4074V12.4141V12.4209V12.4277V12.4345V12.4413V12.4481V12.4549V12.4617V12.4685V12.4753V12.4821V12.489V12.4958V12.5026V12.5094V12.5162V12.5231V12.5299V12.5367V12.5436V12.5504V12.5572V12.5641V12.5709V12.5778V12.5846V12.5915V12.5983V12.6052V12.612V12.6189V12.6257V12.6326V12.6394V12.6463V12.6531V12.66V12.6668V12.6737V12.6806V12.6874V12.6943V12.7012V12.708V12.7149V12.7217V12.7286V12.756V12.8109V12.8384V12.8521V12.8658V12.8932V12.9205V12.9479V12.9752V13.0296V13.0839V13.111V13.138V13.1918C13.8237 14.2017 14.3934 14.8816 14.9347 15.2969C15.2059 15.505 15.4756 15.6516 15.6771 15.7463C15.7781 15.7938 15.8628 15.8286 15.9231 15.8518C15.9533 15.8634 15.9774 15.8721 15.9945 15.8781L16.0146 15.8851L16.0206 15.887L16.0224 15.8877L16.0231 15.8879L16.0233 15.8879C16.0234 15.888 16.0235 15.888 16.1 15.65ZM16.1 15.65L16.1705 15.8898L16.0968 15.9115L16.0235 15.888L16.1 15.65Z" fill="white" stroke="white" stroke-width="0.5"/>
</mask>
<g mask="url(#mask1_30_18156)">
<path opacity="0.4" fill-rule="evenodd" clip-rule="evenodd" d="M14.1968 13.9089L16.1301 12.4847L18.163 14.0703V16.3271H14.1968V13.9089Z" fill="#84CEFF"/>
<path fill-rule="evenodd" clip-rule="evenodd" d="M14.2579 14.4125H17.85V14.9125H14.2579V14.4125Z" fill="#006AC9"/>
<path fill-rule="evenodd" clip-rule="evenodd" d="M14.4421 14.9075H17.7579V15.1726H14.4421V14.9075Z" fill="#59C800"/>
<path fill-rule="evenodd" clip-rule="evenodd" d="M14.4421 15.2375H17.7579V15.7375H14.4421V15.2375Z" fill="#FFD800"/>
<path fill-rule="evenodd" clip-rule="evenodd" d="M18.7264 14.5107L16.1362 12.5326L16.1362 9.86237H18.7264V14.5107Z" fill="#F7D85D"/>
<path fill-rule="evenodd" clip-rule="evenodd" d="M15.5474 13.4225C15.5474 13.4225 15.6293 13.8474 15.6919 13.8474C15.7545 13.8474 15.8677 13.4225 15.8677 13.4225C15.8677 13.4225 15.8811 13.8474 15.9442 13.8474C16.0072 13.8474 15.9994 13.4913 16.1 13.4225C16.1365 13.3976 16.1825 13.8452 16.2384 13.8474C16.2855 13.8492 16.4004 13.4225 16.4004 13.4225C16.4004 13.4225 16.4352 13.8474 16.4896 13.8474C16.5439 13.8474 16.6527 13.4225 16.6527 13.4225V14.495H15.5474V13.4225Z" fill="#F5F6F6"/>
<path fill-rule="evenodd" clip-rule="evenodd" d="M16.1 14.84C16.6596 14.84 17.1132 14.7443 17.1132 14.6262C17.1132 14.5082 16.6596 14.4125 16.1 14.4125C15.5405 14.4125 15.0869 14.5082 15.0869 14.6262C15.0869 14.7443 15.5405 14.84 16.1 14.84Z" fill="#892E2E"/>
<path d="M14.2894 11.1041L14.4977 10.9415L15.8985 12.381L15.6902 12.5436L14.2894 11.1041Z" fill="#A46031"/>
<path d="M14.5147 12.7674L14.2934 12.6191L15.6557 10.988L15.877 11.1363L14.5147 12.7674Z" fill="#892E2E"/>
<path d="M16.4078 11.3181L16.6161 11.189L18.0169 12.332L17.8086 12.4611L16.4078 11.3181Z" fill="#A46031"/>
<path d="M16.701 12.486L16.4418 12.3099L17.7741 11.2355L18.0582 11.4695L16.701 12.486Z" fill="#F5F6F6"/>
</g>
<path fill-rule="evenodd" clip-rule="evenodd" d="M14.5669 16.5348L15.2173 16.7386V17.3H14.5669V16.5348Z" fill="#6699FF"/>
<path fill-rule="evenodd" clip-rule="evenodd" d="M14.1023 15.387L14.4682 15.5907V16.1522H14.1023V15.387Z" fill="#6699FF"/>
<path fill-rule="evenodd" clip-rule="evenodd" d="M17.5402 16.5348L16.8898 16.7386V17.3H17.5402V16.5348Z" fill="#6699FF"/>
<path fill-rule="evenodd" clip-rule="evenodd" d="M18.0048 15.387L17.6389 15.5907V16.1522H18.0048V15.387Z" fill="#6699FF"/>
<path d="M13.7478 16.5761C13.6287 16.5761 13.5296 16.5789 13.4163 16.5843C13.1417 16.5975 13.1244 16.5972 13.0486 16.566C13.0031 16.5473 12.9576 16.5171 12.8922 16.4634C12.7371 16.3361 12.57 16.0436 12.3886 15.5847L12.3891 15.5654C12.613 15.0812 13.0735 15.0213 13.7584 15.3801C13.9388 15.4747 14.4647 15.7605 14.4604 15.7582C14.6997 15.8863 14.8674 15.9683 15.0323 16.0347C15.3741 16.1723 15.6964 16.2347 16.1097 16.2347C16.358 16.2347 16.6455 16.1642 16.981 16.031C17.1748 15.954 17.3764 15.86 17.6224 15.7351C17.6548 15.7187 18.1695 15.451 18.2968 15.3898C18.5195 15.2826 18.6665 15.2306 18.7677 15.2306C18.7953 15.2306 18.8166 15.2305 18.8701 15.2302C18.9626 15.2296 19.0066 15.2296 19.06 15.2302C19.5537 15.2363 19.7973 15.3185 19.7973 15.5756C19.7973 15.8186 19.6393 16.1482 19.3243 16.5669L19.309 16.5759C18.6858 16.6599 18.3244 16.6599 18.2133 16.5711C18.183 16.5469 18.0998 16.5579 17.9471 16.6069C17.8779 16.6291 17.5074 16.7615 17.3929 16.7995C16.9164 16.9575 16.508 17.0423 16.0921 17.0423C15.4587 17.0423 14.7654 16.7966 14.0122 16.3058C14.1487 16.4793 14.0623 16.5761 13.7478 16.5761Z" fill="white"/>
<path fill-rule="evenodd" clip-rule="evenodd" d="M13.4163 16.5843C13.5296 16.5789 13.6287 16.5761 13.7478 16.5761C14.0623 16.5761 14.1487 16.4793 14.0122 16.3058C14.7654 16.7966 15.4587 17.0423 16.0921 17.0423C16.508 17.0423 16.9164 16.9575 17.3929 16.7995C17.4512 16.7802 17.5755 16.7364 17.6929 16.6952C17.8063 16.6553 17.9131 16.6178 17.9471 16.6069C18.0998 16.5579 18.183 16.5469 18.2133 16.5711C18.3244 16.6599 18.6858 16.6599 19.309 16.5759L19.3243 16.5669C19.6393 16.1482 19.7973 15.8186 19.7973 15.5756C19.7973 15.3185 19.5537 15.2363 19.06 15.2302C19.0066 15.2296 18.9626 15.2296 18.8701 15.2302C18.8166 15.2305 18.7953 15.2306 18.7677 15.2306C18.6665 15.2306 18.5195 15.2826 18.2968 15.3898C18.1961 15.4382 17.8533 15.6157 17.6982 15.696C17.6571 15.7172 17.6292 15.7317 17.6224 15.7351C17.3764 15.86 17.1748 15.954 16.981 16.031C16.6455 16.1642 16.358 16.2347 16.1097 16.2347C15.6964 16.2347 15.3741 16.1723 15.0323 16.0347C14.8674 15.9683 14.6997 15.8863 14.4604 15.7582C14.4647 15.7605 13.9388 15.4747 13.7584 15.3801C13.0735 15.0213 12.613 15.0812 12.3891 15.5654L12.3886 15.5847C12.57 16.0436 12.7371 16.3361 12.8922 16.4634C12.9576 16.5171 13.0031 16.5473 13.0486 16.566C13.1244 16.5972 13.1417 16.5975 13.4163 16.5843ZM13.0659 16.5216C13.0254 16.505 12.9833 16.477 12.9212 16.426C12.7752 16.3061 12.6126 16.0226 12.4355 15.5765C12.6476 15.13 13.0776 15.0771 13.7373 15.4228C13.9173 15.5171 14.443 15.8028 14.439 15.8006C14.6796 15.9294 14.8486 16.0121 15.0154 16.0792C15.3625 16.219 15.6906 16.2826 16.1097 16.2826C16.3646 16.2826 16.6574 16.2107 16.9977 16.0756C17.193 15.9981 17.3958 15.9035 17.6429 15.778C17.6499 15.7745 17.6783 15.7598 17.7201 15.7382C17.8758 15.6576 18.2167 15.4811 18.3165 15.4331C18.533 15.3289 18.6756 15.2784 18.7677 15.2784C18.7954 15.2784 18.8168 15.2783 18.8704 15.278C18.9626 15.2775 19.0064 15.2774 19.0594 15.2781C19.527 15.2838 19.7509 15.3593 19.7509 15.5756C19.7509 15.8037 19.5987 16.1226 19.2935 16.5298C18.692 16.6104 18.3377 16.61 18.2417 16.5333C18.1935 16.4948 18.1031 16.5068 17.9333 16.5612C17.8987 16.5723 17.7907 16.6103 17.6765 16.6504C17.5596 16.6915 17.4363 16.7349 17.3787 16.7539C16.9064 16.9105 16.5024 16.9945 16.0921 16.9945C15.3922 16.9945 14.6152 16.6888 13.7611 16.0765L13.7341 16.1154C14.1241 16.4082 14.1241 16.5283 13.7478 16.5283C13.628 16.5283 13.5282 16.5311 13.4142 16.5366C13.1492 16.5492 13.1324 16.549 13.0659 16.5216Z" fill="#666666"/>
<path d="M13.0283 15.8085L12.9612 15.7424C13.1127 15.5793 13.3134 15.5382 13.5551 15.6181C13.6492 15.6492 14.2617 16.0033 14.4253 16.0863C15.0232 16.3899 15.5923 16.5594 16.1968 16.5594C17.0659 16.5594 17.9054 16.285 18.713 15.7379C19.0182 15.4904 19.2091 15.4904 19.2091 15.7755H19.1162C19.1162 15.6055 19.0265 15.6055 18.7672 15.8154C17.9417 16.3749 17.0846 16.655 16.1968 16.655C15.5761 16.655 14.9938 16.4816 14.3842 16.1721C14.2128 16.0851 13.6103 15.7368 13.5267 15.7092C13.3172 15.6399 13.1538 15.6734 13.0283 15.8085Z" fill="#565757"/>
<path fill-rule="evenodd" clip-rule="evenodd" d="M16.4903 6.94362L16.3094 6.94452C16.3138 7.68704 16.1475 8.1561 15.8237 8.35754C15.7981 8.37344 15.7662 8.39237 15.7311 8.41269C15.7005 8.33022 15.6608 8.23061 15.6099 8.10594L15.5938 8.06639C15.4016 7.59343 15.3587 7.37527 15.4574 7.317L15.3595 7.17737C15.1419 7.30589 15.1889 7.54518 15.4243 8.12441L15.4405 8.16415C15.4989 8.30749 15.542 8.41639 15.573 8.50279L15.5535 8.51378L15.5535 8.51378L15.5535 8.51379C15.5438 8.51927 15.5342 8.52467 15.5249 8.52995C15.4309 8.48214 15.322 8.45808 15.198 8.45808C14.6223 8.45808 14.2235 8.30728 13.9917 8.00892L13.8444 8.10531C14.114 8.45227 14.5684 8.62412 15.198 8.62412C15.2494 8.62412 15.2976 8.6303 15.3426 8.6427C15.2509 8.72085 15.2387 8.80273 15.2387 9.08427C15.2387 9.26054 15.2768 9.4944 15.3528 9.7867C15.2942 9.71175 15.2397 9.67632 15.1843 9.67632V9.84235C15.1763 9.84235 15.171 9.84117 15.1689 9.84068L15.1681 9.84051L15.1672 9.83978L15.1663 9.83926L15.1683 9.84077L15.1681 9.84051C15.1735 9.84459 15.1812 9.852 15.1904 9.86267C15.2157 9.89214 15.2465 9.93965 15.2817 10.0043C15.3553 10.1393 15.4456 10.3444 15.5521 10.6187L15.6079 10.6005L15.6123 10.6128L15.6422 10.6039V10.6089H15.6994L15.7002 10.6549L15.8811 10.6512C15.8807 10.6336 15.8804 10.6163 15.8802 10.5991L15.9141 10.603C15.9508 10.3317 15.9722 10.0856 15.978 9.86489C16.0415 9.68927 16.1352 9.5622 16.2578 9.48309C16.5666 9.28395 16.7478 9.09245 16.7974 8.90242L16.6214 8.86378C16.5843 9.00597 16.4298 9.16919 16.1538 9.34725C16.0856 9.39125 16.0252 9.44548 15.9726 9.5099C15.9552 9.23709 15.9057 9.01646 15.8231 8.84906V8.80001C15.8231 8.73263 15.8132 8.66682 15.7868 8.57682C15.8382 8.54733 15.8872 8.51863 15.9252 8.49498C16.311 8.25499 16.495 7.73591 16.4903 6.94362ZM15.5129 8.7319C15.5623 8.77319 15.6054 8.82641 15.6422 8.8917V10.1391C15.4937 9.66877 15.4196 9.31635 15.4196 9.08427C15.4196 8.8243 15.427 8.79142 15.4873 8.74757C15.4911 8.74486 15.5 8.73944 15.5129 8.7319Z" fill="#984800"/>
<path fill-rule="evenodd" clip-rule="evenodd" d="M16.9832 7.08531C16.8464 7.12547 16.6709 7.13541 16.4845 7.1059C16.2785 7.07326 16.0999 6.99883 15.9809 6.90615C15.9882 6.92922 15.9918 6.95286 15.9913 6.97691C15.9873 7.20613 15.6197 7.38558 15.1701 7.37773C14.7205 7.36989 14.3593 7.17771 14.3633 6.94849C14.3673 6.71928 14.735 6.53982 15.1846 6.54767C15.455 6.55239 15.6934 6.62378 15.8396 6.72981C15.8268 6.69465 15.8226 6.65899 15.8282 6.6237C15.8605 6.41992 16.2067 6.3054 16.6014 6.36792C16.9962 6.43045 17.29 6.64633 17.2578 6.85012C17.2519 6.8871 17.2357 6.92114 17.2108 6.95172C17.4052 6.89573 17.6729 6.90894 17.9462 7.00306C18.4186 7.16571 18.7289 7.50843 18.6394 7.76854C18.5498 8.02865 18.0943 8.10766 17.6219 7.94501C17.5651 7.92544 17.5106 7.90327 17.4589 7.87895C17.3315 8.07674 16.9739 8.18126 16.5778 8.11854C16.1091 8.04429 15.7639 7.76383 15.807 7.49212C15.85 7.22041 16.2649 7.06033 16.7337 7.13457C16.8016 7.14533 16.8669 7.16042 16.9289 7.17918C16.9408 7.14464 16.9592 7.11331 16.9832 7.08531ZM14.2733 6.984C14.3733 7.16445 14.171 7.46782 13.8214 7.66159C13.4719 7.85536 13.1074 7.86615 13.0074 7.68569C12.9073 7.50524 13.1096 7.20187 13.4592 7.0081C13.8088 6.81433 14.1732 6.80354 14.2733 6.984ZM15.3666 8.11814C15.3622 8.37028 14.9132 8.5669 14.3637 8.55731C13.8143 8.54772 13.3724 8.33554 13.3768 8.08341C13.3812 7.83127 13.8302 7.63465 14.3797 7.64424C14.9291 7.65383 15.371 7.866 15.3666 8.11814ZM14.7335 9.88178C15.2294 9.82089 15.6087 9.58708 15.5808 9.35953C15.5529 9.13199 15.1282 8.99689 14.6323 9.05778C14.1365 9.11866 13.7571 9.35248 13.7851 9.58002C13.813 9.80756 14.2376 9.94266 14.7335 9.88178ZM16.5625 10.1855C17.0006 10.2867 17.4018 10.1695 17.4585 9.92375C17.5152 9.67804 17.206 9.39685 16.7679 9.2957C16.3298 9.19456 15.9287 9.31175 15.8719 9.55746C15.8152 9.80317 16.1244 10.0844 16.5625 10.1855ZM16.949 9.25274C17.6111 9.38143 18.1868 9.28509 18.2349 9.03755C18.283 8.79 17.7853 8.485 17.1233 8.35631C16.4612 8.22762 15.8855 8.32397 15.8374 8.57151C15.7892 8.81905 16.2869 9.12405 16.949 9.25274Z" fill="#247805"/>
<path fill-rule="evenodd" clip-rule="evenodd" d="M12.2451 10.9392C12.2451 10.9392 11.9322 13.9094 11.9322 14.3119C11.9322 14.7145 12.508 14.3119 12.508 14.3119C12.508 14.3119 12.5926 12.8935 12.7887 12.3666C12.9848 11.8397 13.0773 12.4186 13.0773 12.7262C13.0773 13.0339 13.0773 14.473 13.0773 14.473C13.0773 14.473 13.7939 14.5706 13.7939 14.3119C13.7939 14.0533 13.4958 10.9392 13.4958 10.9392H12.4119H12.2451Z" fill="white"/>
<path fill-rule="evenodd" clip-rule="evenodd" d="M12.2052 10.8975L12.2013 10.9351C11.9924 12.9177 11.8882 14.0414 11.8882 14.3119C11.8882 14.6304 12.1267 14.6304 12.5342 14.3455L12.5508 14.3339L12.552 14.3143C12.6082 13.3724 12.7013 12.727 12.8302 12.3805C12.9079 12.1717 12.9305 12.1624 12.9654 12.2485C13.0063 12.3491 13.0333 12.5543 13.0333 12.7262V14.5092L13.0711 14.5143C13.5737 14.5828 13.838 14.5234 13.838 14.3119C13.838 14.201 13.7862 13.5892 13.6984 12.6305L13.6887 12.525C13.6561 12.1702 13.6212 11.7961 13.5862 11.4261L13.5525 11.0698L13.543 10.9705L13.5396 10.9355L13.536 10.8975H12.2052ZM12.4652 14.2899C12.1171 14.5301 11.9763 14.5268 11.9763 14.3119C11.9763 14.0474 12.0793 12.9352 12.285 10.981H13.4555L13.4647 11.0773L13.4985 11.4336C13.5334 11.8035 13.5684 12.1775 13.601 12.5322L13.6106 12.6377C13.6978 13.5894 13.7499 14.205 13.7499 14.3119C13.7499 14.4416 13.5483 14.4905 13.1214 14.4366V12.7262C13.1214 12.5449 13.0932 12.3306 13.0477 12.2184C12.9724 12.0332 12.8467 12.0852 12.7472 12.3527C12.6156 12.7063 12.522 13.3512 12.4652 14.2899Z" fill="#979797"/>
<path fill-rule="evenodd" clip-rule="evenodd" d="M11.2067 9.91763C11.2067 9.91763 11.4524 10.8022 11.5612 10.8022C11.6699 10.8022 12.3302 10.2594 12.3302 10.2594V10.9961H13.5605V10.6698L13.7183 10.9961L13.9334 10.8955L14.3056 10.4569H13.9334C13.9334 10.4569 13.8253 9.75246 13.8253 9.64106C13.8253 9.52967 13.8297 9.30929 13.5605 9.22953C13.2912 9.14977 13.1592 9.00854 13.1592 9.00854C13.1592 9.00854 13.7389 8.17828 13.2975 8.17828C12.856 8.17828 12.6562 8.28472 12.6562 8.28472C12.6562 8.28472 12.6562 8.77769 12.6562 8.89311C12.6562 9.00854 12.0229 8.87187 12.0229 9.22953C12.0229 9.58719 11.7276 9.91763 11.7276 9.91763L11.6525 9.67809L11.2067 9.91763Z" fill="#FF863B"/>
<path fill-rule="evenodd" clip-rule="evenodd" d="M13.0668 8.38291C13.3101 8.38291 13.5073 8.286 13.5073 8.16645C13.5073 8.04691 13.3101 7.95 13.0668 7.95C12.8236 7.95 12.6263 8.04691 12.6263 8.16645C12.6263 8.286 12.8236 8.38291 13.0668 8.38291Z" fill="black"/>
<path d="M10.8471 10.2599L10.6483 10.0948C11.0313 9.68005 11.4576 9.37834 11.9265 9.19104C12.3706 9.01369 12.9509 8.73063 13.6664 8.34215L13.7977 8.55965C13.0737 8.95275 12.4845 9.24012 12.0291 9.42203C11.5985 9.594 11.2047 9.87281 10.8471 10.2599Z" fill="#740000"/>
<path fill-rule="evenodd" clip-rule="evenodd" d="M13.6578 8.43311L13.8248 9.2173L14.5661 8.82521L13.9823 8.17638L13.6578 8.43311Z" fill="#F9FCFF" stroke="#6C6C6C" stroke-width="0.5"/>
<path fill-rule="evenodd" clip-rule="evenodd" d="M19.8592 11.307C19.8592 11.307 20.1696 14.407 20.1696 14.8271C20.1696 15.2472 19.5984 14.8271 19.5984 14.8271C19.5984 14.8271 19.5145 13.3467 19.32 12.7968C19.1255 12.2468 19.0337 12.851 19.0337 13.1721C19.0337 13.4932 19.0337 14.9952 19.0337 14.9952C19.0337 14.9952 18.3229 15.097 18.3229 14.8271C18.3229 14.5572 18.6187 11.307 18.6187 11.307H19.6937H19.8592Z" fill="white"/>
<path fill-rule="evenodd" clip-rule="evenodd" d="M19.8988 11.2634L19.9027 11.3027C20.1099 13.372 20.2133 14.5448 20.2133 14.8271C20.2133 15.1594 19.9766 15.1594 19.5725 14.8622L19.556 14.85L19.5548 14.8295C19.4991 13.8465 19.4067 13.1729 19.2788 12.8113C19.2018 12.5934 19.1794 12.5836 19.1447 12.6734C19.1042 12.7785 19.0774 12.9926 19.0774 13.1721V15.033L19.0399 15.0384C18.5414 15.1098 18.2792 15.0478 18.2792 14.8271C18.2792 14.7114 18.3306 14.0728 18.4177 13.0722L18.4273 12.962C18.4596 12.5917 18.4943 12.2014 18.5289 11.8152L18.5624 11.4433L18.5718 11.3396L18.5752 11.3031L18.5788 11.2634H19.8988ZM19.6409 14.8041C19.9862 15.0548 20.1259 15.0513 20.1259 14.8271C20.1259 14.551 20.0237 13.3902 19.8197 11.3506H18.6586L18.6495 11.4511L18.616 11.8229C18.5813 12.2091 18.5467 12.5994 18.5143 12.9696L18.5047 13.0797C18.4183 14.073 18.3666 14.7154 18.3666 14.8271C18.3666 14.9624 18.5666 15.0135 18.99 14.9572V13.1721C18.99 12.9828 19.018 12.7592 19.0632 12.6421C19.1378 12.4487 19.2625 12.5031 19.3612 12.7822C19.4918 13.1513 19.5846 13.8244 19.6409 14.8041Z" fill="#979797"/>
<path fill-rule="evenodd" clip-rule="evenodd" d="M20.9109 10.178C20.9109 10.178 20.6671 11.1012 20.5592 11.1012C20.4513 11.1012 19.7964 10.5347 19.7964 10.5347V11.3036H18.5761V10.9631L18.4195 11.3036L18.2062 11.1986L17.837 10.7408H18.2062C18.2062 10.7408 18.3134 10.0056 18.3134 9.88937C18.3134 9.77311 18.3091 9.54311 18.5761 9.45986C18.8431 9.37661 18.9741 9.22921 18.9741 9.22921C18.9741 9.22921 18.3991 8.36267 18.837 8.36267C19.2748 8.36267 19.473 8.47376 19.473 8.47376C19.473 8.47376 19.473 8.98827 19.473 9.10874C19.473 9.22921 20.1012 9.08657 20.1012 9.45986C20.1012 9.83315 20.3941 10.178 20.3941 10.178L20.4686 9.92802L20.9109 10.178Z" fill="#824028"/>
<path fill-rule="evenodd" clip-rule="evenodd" d="M19.0657 8.57622C18.8244 8.57622 18.6288 8.47507 18.6288 8.3503C18.6288 8.22554 18.8244 8.12439 19.0657 8.12439C19.3071 8.12439 19.5027 8.22554 19.5027 8.3503C19.5027 8.47507 19.3071 8.57622 19.0657 8.57622Z" fill="black"/>
<path d="M21.5253 10.3456L18.8526 8.95257C18.8526 8.95257 18.8031 8.4846 18.2869 8.3437C17.7707 8.20281 17.359 7.98479 17.359 7.98479L17.124 8.3437C17.124 8.3437 16.7054 8.23323 18.2869 8.95257C19.8684 9.67191 18.2274 8.56267 18.6769 8.95257L21.5253 10.3456Z" fill="#BA611F"/>
</g>
</g>
<defs>
<clipPath id="clip0_30_18156">
<rect width="32" height="24" fill="white"/>
</clipPath>
</defs>
</svg>
