<svg width="32" height="24" viewBox="0 0 32 24" fill="none" xmlns="http://www.w3.org/2000/svg">
<g clip-path="url(#clip0_30_18093)">
<rect width="32" height="24" fill="white"/>
<path fill-rule="evenodd" clip-rule="evenodd" d="M0 0H32V24H0V0Z" fill="#5EAA22"/>
<path fill-rule="evenodd" clip-rule="evenodd" d="M24 7L23 7.73205L23.134 6.5L22 6L23.134 5.5L23 4.26795L24 5L25 4.26795L24.866 5.5L26 6L24.866 6.5L25 7.73205L24 7Z" fill="#FECA00"/>
<path fill-rule="evenodd" clip-rule="evenodd" d="M22.9628 13.6787L21.9628 14.4107L22.0967 13.1787L20.9628 12.6787L22.0967 12.1787L21.9628 10.9466L22.9628 11.6787L23.9628 10.9466L23.8288 12.1787L24.9628 12.6787L23.8288 13.1787L23.9628 14.4107L22.9628 13.6787Z" fill="#FECA00"/>
<path fill-rule="evenodd" clip-rule="evenodd" d="M26 19L25 19.7321L25.134 18.5L24 18L25.134 17.5L25 16.2679L26 17L27 16.2679L26.866 17.5L28 18L26.866 18.5L27 19.7321L26 19Z" fill="#FECA00"/>
<path fill-rule="evenodd" clip-rule="evenodd" d="M27 9.5L26.5 9.86603L26.567 9.25L26 9L26.567 8.75L26.5 8.13397L27 8.5L27.5 8.13397L27.433 8.75L28 9L27.433 9.25L27.5 9.86603L27 9.5Z" fill="#FECA00"/>
<path fill-rule="evenodd" clip-rule="evenodd" d="M7 14C9.76142 14 12 11.7614 12 9C12 6.23858 9.76142 4 7 4C4.23858 4 2 6.23858 2 9C2 11.7614 4.23858 14 7 14Z" fill="#FECA00"/>
<path fill-rule="evenodd" clip-rule="evenodd" d="M19.8977 14.945C19.2396 16.0745 18.1936 16.5872 16.7936 16.5872C14.6984 16.5872 13 14.8887 13 12.7936C13 10.6984 14.6984 9 16.7936 9C18.3921 9 19.6676 9.55928 20.2527 11.0826C19.7895 10.6232 19.0725 10.3081 18 10.3481C16.3431 10.3481 15.2653 11.6389 15.2653 12.7434C15.2653 13.848 16.3431 15.3495 18 15.3495C18.8333 15.337 19.4489 15.1846 19.8977 14.945Z" fill="#FECA00"/>
<path d="M7.58247 8.6937C7.58247 8.6937 6.60483 12.2746 6.20116 12.6135C6.02247 12.6923 7.81981 12.6135 7.81981 12.6135C7.81981 12.6135 7.14604 12.3187 7.38338 11.9263C7.62072 11.534 7.93076 9.00954 7.81981 8.14967C7.70886 7.2898 7.58247 8.6937 7.58247 8.6937Z" fill="#915E2B"/>
<path fill-rule="evenodd" clip-rule="evenodd" d="M7.79047 8.82668C7.79047 8.82668 8.8388 9.1415 8.8388 9.6772C8.8388 10.2129 9.71091 10.9659 9.71091 10.2528C9.71091 9.53974 9.54776 8.82668 9.19328 8.82668C8.8388 8.82668 9.36666 8.34729 9.66981 8.7454C9.97295 9.14351 11.0359 8.70796 10.82 8.42857C10.6041 8.14918 9.83772 7.80102 9.71091 7.80102C9.58409 7.80102 10.583 7.12046 9.71091 7.12046C8.8388 7.12046 9.33895 7.70178 8.74793 7.08461C8.15692 6.46744 8.99955 7.38587 8.99955 6.34946C8.99955 5.31304 8.76046 4.88957 7.97103 5.47133C7.18159 6.05309 7.33295 5.68411 7.05198 5.46476C6.771 5.24541 6.52442 6.26785 6.83363 6.47656C7.14284 6.68527 7.48562 7.20256 7.17641 7.20256C6.8672 7.20256 6.64889 6.90406 6.64889 6.69031C6.64889 6.47656 5.80751 6.09903 5.00894 6.09903C4.21037 6.09903 4.72705 6.69031 5.00894 6.69031C5.29083 6.69031 6.55317 7.12046 5.922 7.12046C5.29083 7.12046 5.97075 6.8022 5.17517 6.8022C4.3796 6.8022 3.45479 6.43991 3.45479 7.12046C3.45479 7.80102 4.24974 8.10251 4.49808 7.80102C4.74642 7.49953 5.03353 6.99127 5.03353 7.4987C5.03353 8.00613 4.40076 7.79896 3.45479 8.11376C2.50882 8.42857 2.78028 9.25852 3.90876 9.05583C5.03725 8.85314 4.91515 8.86418 5.36821 8.54937C5.82127 8.23457 6.38199 8.32233 5.922 8.82668C5.462 9.33103 5.00201 10.2528 5.462 10.2528C5.922 10.2528 6.21853 10.3782 6.21853 9.89095C6.21853 9.40368 6.48555 8.45503 6.48555 9.05583C6.48555 9.65663 6.83363 10.1095 7.14284 9.89095C7.45205 9.67241 7.07083 8.9886 7.42382 8.9886C7.7768 8.9886 7.79047 8.82668 7.79047 8.82668Z" fill="#5EAA22"/>
</g>
<defs>
<clipPath id="clip0_30_18093">
<rect width="32" height="24" fill="white"/>
</clipPath>
</defs>
</svg>
