<svg width="28" height="20" viewBox="0 0 28 20" fill="none" xmlns="http://www.w3.org/2000/svg">
<rect width="28" height="20" rx="2" fill="white"/>
<mask id="mask0_9_1956" style="mask-type:luminance" maskUnits="userSpaceOnUse" x="0" y="0" width="28" height="20">
<rect width="28" height="20" rx="2" fill="white"/>
</mask>
<g mask="url(#mask0_9_1956)">
<rect width="28" height="20" fill="#19BFBF"/>
<path fill-rule="evenodd" clip-rule="evenodd" d="M17.0977 17.7643L16.0557 16.7223C16.0191 16.6857 15.9915 16.6411 15.9751 16.592L15.4093 14.8944C15.3639 14.7584 15.2367 14.6666 15.0933 14.6666C14.8766 14.6666 14.7176 14.8703 14.7702 15.0805L15.2876 17.1502C15.316 17.2638 15.2827 17.384 15.1999 17.4667L14.9024 17.7643C14.7722 17.8944 14.5612 17.8944 14.431 17.7643L14.0977 17.4309C14.0351 17.3684 14 17.2836 14 17.1952V16.0786C14 16.0269 13.988 15.9759 13.9648 15.9296L13.4255 14.8509C13.369 14.738 13.2536 14.6666 13.1273 14.6666H11.412C11.3603 14.6666 11.3093 14.6787 11.263 14.7018L10.1235 15.2715C10.0444 15.3111 9.98431 15.3804 9.95636 15.4643L9.37702 17.2023C9.34906 17.2862 9.28893 17.3555 9.20986 17.395L8.14909 17.9254C8.05525 17.9723 7.94479 17.9723 7.85095 17.9254L6.85095 17.4254C6.73802 17.369 6.66669 17.2535 6.66669 17.1273V15C6.66669 14.8159 6.81593 14.6666 7.00002 14.6666H8.33335C8.51745 14.6666 8.66669 14.5174 8.66669 14.3333V13.3874C8.66669 13.3516 8.67246 13.316 8.68379 13.282L9.25738 11.5612C9.30275 11.4251 9.43013 11.3333 9.57361 11.3333H10.588C10.6397 11.3333 10.6908 11.3212 10.7371 11.2981L11.9296 10.7018C11.9759 10.6787 12.027 10.6666 12.0787 10.6666H13C13.1841 10.6666 13.3334 10.5174 13.3334 10.3333V10.138C13.3334 10.0496 13.3685 9.96484 13.431 9.90233L13.673 9.66031C13.8339 9.49943 14.1051 9.54344 14.2068 9.74694L14.5746 10.4824C14.631 10.5953 14.7464 10.6666 14.8727 10.6666H16.4264C16.5699 10.6666 16.6973 10.5748 16.7427 10.4387L17.2574 8.89455C17.3028 8.75844 17.4301 8.66663 17.5736 8.66663H18.3334C18.5174 8.66663 18.6667 8.51739 18.6667 8.33329C18.6667 8.1492 18.5174 7.99996 18.3334 7.99996H17.6667C17.4826 7.99996 17.3334 7.85072 17.3334 7.66663V6.74532C17.3334 6.69357 17.3454 6.64253 17.3685 6.59624L17.8926 5.54818C17.9567 5.41985 17.9316 5.26486 17.8301 5.16341L17.5691 4.90233C17.4389 4.77215 17.2278 4.77215 17.0977 4.90233L16.0977 5.90233C16.0351 5.96484 16 6.04962 16 6.13803V7.2792C16 7.31503 15.9942 7.35062 15.9829 7.38461L15.4093 9.10537C15.364 9.24148 15.2366 9.33329 15.0931 9.33329H14.8048C14.7164 9.33329 14.6316 9.29817 14.5691 9.23566L14.0961 8.76271C14.0346 8.70119 14 8.61775 14 8.53075C14 8.28688 13.7434 8.12828 13.5253 8.23733L12.8816 8.55918C12.7532 8.62335 12.5983 8.59819 12.4968 8.49674L12.0977 8.09759C12.0351 8.03508 12 7.95029 12 7.86189V6.8047C12 6.71629 12.0351 6.63151 12.0977 6.56899L13.3334 5.33329L15.2777 3.38893C15.3143 3.35234 15.3589 3.32477 15.408 3.30841L17.282 2.68373C17.316 2.6724 17.3516 2.66663 17.3874 2.66663H18.4607C18.5869 2.66663 18.7024 2.73796 18.7588 2.85089L19.2982 3.92958C19.3213 3.97586 19.3334 4.0269 19.3334 4.07865V5.86189C19.3334 5.95029 19.3685 6.03508 19.431 6.09759L19.8543 6.52095C19.9436 6.61023 19.9748 6.74229 19.9349 6.86207L19.4139 8.42509C19.3663 8.5677 19.4201 8.72447 19.5452 8.80785L21.3334 9.99996L22.329 10.4978C22.5083 10.5874 22.5685 10.814 22.4572 10.9808L21.3893 12.5827C21.3528 12.6374 21.3334 12.7017 21.3334 12.7676V14.4264C21.3334 14.5698 21.2415 14.6972 21.1054 14.7426L19.4643 15.2896C19.3805 15.3176 19.3111 15.3777 19.2716 15.4568L18.6909 16.6182C18.6749 16.6503 18.6538 16.6795 18.6284 16.7049L17.5691 17.7643C17.4389 17.8944 17.2278 17.8944 17.0977 17.7643ZM11.3334 17.3333C11.7015 17.3333 12 17.0348 12 16.6666C12 16.2984 11.7015 16 11.3334 16C10.9652 16 10.6667 16.2984 10.6667 16.6666C10.6667 17.0348 10.9652 17.3333 11.3334 17.3333ZM9.33335 8.66663C9.33335 9.03482 9.03488 9.33329 8.66669 9.33329C8.2985 9.33329 8.00002 9.03482 8.00002 8.66663C8.00002 8.29844 8.2985 7.99996 8.66669 7.99996C9.03488 7.99996 9.33335 8.29844 9.33335 8.66663Z" fill="white"/>
<path fill-rule="evenodd" clip-rule="evenodd" d="M9.96479 8.73701C9.98793 8.69072 9.99998 8.63969 9.99998 8.58794V8.07865C9.99998 8.0269 9.98793 7.97586 9.96479 7.92958L9.57452 7.14903C9.4637 6.9274 9.62486 6.66663 9.87266 6.66663H10.3333C10.5174 6.66663 10.6666 6.81586 10.6666 6.99996V8.58794C10.6666 8.63969 10.6787 8.69072 10.7018 8.73701L11.0921 9.51755C11.2029 9.73919 11.0418 9.99996 10.794 9.99996H9.87266C9.62486 9.99996 9.4637 9.73919 9.57452 9.51755L9.96479 8.73701Z" fill="white"/>
</g>
</svg>
