<svg width="32" height="24" viewBox="0 0 32 24" fill="none" xmlns="http://www.w3.org/2000/svg">
<g clip-path="url(#clip0_30_17981)">
<rect width="32" height="24" fill="white"/>
<path fill-rule="evenodd" clip-rule="evenodd" d="M0 0V24H32V0H0Z" fill="#C51918"/>
<mask id="mask0_30_17981" style="mask-type:luminance" maskUnits="userSpaceOnUse" x="0" y="0" width="32" height="24">
<path fill-rule="evenodd" clip-rule="evenodd" d="M0 0V24H32V0H0Z" fill="white"/>
</mask>
<g mask="url(#mask0_30_17981)">
<rect width="14" height="10" fill="#4257BF"/>
<rect x="18" y="14" width="14" height="10" fill="#4257BF"/>
<path fill-rule="evenodd" clip-rule="evenodd" d="M13 0H19V9H32V15H19V24H13V15H0V9H13V0Z" fill="#F7FCFF"/>
<path fill-rule="evenodd" clip-rule="evenodd" d="M13.8655 10.5247C13.8277 10.3496 13.7851 10.1333 13.7851 10.1333C13.6904 10.3638 13.6606 10.5735 13.6986 10.761C13.6583 10.8201 13.6219 10.8755 13.5892 10.9271C13.4874 10.7836 13.3603 10.5152 13.3603 10.5152C13.3647 10.5933 13.3627 10.6731 13.3607 10.7505C13.3562 10.9324 13.3519 11.1016 13.432 11.2075L13.431 11.2096C13.415 11.2447 13.3999 11.2798 13.3856 11.3147C13.2752 11.1973 13.092 10.9856 13.092 10.9856C13.1064 11.2395 13.1722 11.4395 13.2919 11.5823C13.2702 11.6567 13.2524 11.7307 13.2382 11.8042C13.1457 11.7021 13.0564 11.6012 13.0564 11.6012C13.0695 11.8328 13.1058 11.9859 13.2002 12.1144C13.1983 12.151 13.1973 12.1875 13.1972 12.2238C13.0994 12.1162 13 12.0038 13 12.0038C13.0138 12.2482 13.1032 12.4091 13.2209 12.543C13.2326 12.6204 13.2485 12.6969 13.2686 12.7726L13.2799 12.8145C13.144 12.7434 12.9946 12.6622 12.9946 12.6622C13.0852 12.8734 13.2132 12.9926 13.3579 13.0772C13.3895 13.1752 13.4228 13.2699 13.4578 13.361C13.2978 13.312 13.0577 13.2316 13.0577 13.2316C13.2021 13.452 13.3738 13.5448 13.5572 13.6006C13.5948 13.6846 13.634 13.7647 13.6745 13.8408C13.5223 13.7928 13.3421 13.7325 13.3421 13.7325C13.4823 13.9465 13.6482 14.0402 13.8256 14.0965C13.943 14.2744 14.0687 14.4203 14.1998 14.5291C14.0489 14.592 13.8557 14.6681 13.8557 14.6681C14.0699 14.7326 14.2401 14.714 14.3946 14.6609L14.4052 14.6664C14.4685 14.6988 14.5394 14.7293 14.6192 14.7591C14.4949 14.8098 14.3754 14.8568 14.3754 14.8568C14.5856 14.9201 14.7533 14.9034 14.9055 14.8526L14.9128 14.8547C14.9843 14.8755 15.057 14.8954 15.1528 14.9207C15.0895 14.904 15.3234 14.9655 15.3709 14.9784C15.523 15.0197 15.6096 15.0487 15.6512 15.0737C15.655 15.076 15.6579 15.0779 15.6597 15.0791C15.6615 15.0804 15.6622 15.0809 15.6619 15.0803L15.7782 14.9901C15.7647 14.9703 15.746 14.9546 15.7218 14.94C15.6647 14.9057 15.5721 14.8747 15.4064 14.8297C15.3592 14.8169 15.1326 14.7573 15.1839 14.7709C15.0908 14.7463 15.02 14.7269 14.9506 14.7067L14.8969 14.6908C14.9095 14.5306 14.8853 14.3635 14.7728 14.1745C14.7728 14.1745 14.7342 14.4679 14.7075 14.6291C14.6153 14.5963 14.5359 14.5631 14.4673 14.528C14.4474 14.5179 14.4275 14.5067 14.4077 14.4945C14.3939 14.3305 14.342 14.1662 14.1948 13.9954C14.1948 13.9954 14.2027 14.1776 14.207 14.335C14.1092 14.2393 14.0142 14.1196 13.924 13.9787L14.0091 14.0258C14.0096 13.8248 13.9723 13.6254 13.792 13.4163C13.792 13.4163 13.8006 13.6134 13.8047 13.7747C13.7517 13.6757 13.7007 13.569 13.6524 13.4552C13.6972 13.2944 13.7061 13.1204 13.6249 12.9064C13.6249 12.9064 13.5842 13.0357 13.541 13.1671C13.5284 13.1311 13.5159 13.0946 13.5038 13.0576C13.5976 12.8895 13.6573 12.703 13.6079 12.4432C13.6079 12.4432 13.5031 12.6446 13.4232 12.7903C13.4177 12.7706 13.4123 12.7507 13.407 12.7307C13.3897 12.6658 13.3758 12.6002 13.3652 12.5339C13.4998 12.4118 13.6088 12.2601 13.6489 12.0138C13.6489 12.0138 13.468 12.1795 13.342 12.2894C13.3403 12.2337 13.3409 12.1775 13.3438 12.121C13.489 12.0254 13.6147 11.8962 13.6933 11.671C13.6933 11.671 13.5128 11.786 13.3723 11.8715C13.3819 11.8168 13.3937 11.7617 13.4078 11.7063C13.5807 11.6065 13.7332 11.4745 13.8235 11.2156C13.8235 11.2156 13.6417 11.3314 13.501 11.4171C13.5192 11.3704 13.539 11.3236 13.5604 11.2767C13.5856 11.2213 13.6215 11.1551 13.668 11.0782C13.8225 11.0224 13.9675 10.9297 14.0941 10.7436C14.0941 10.7436 13.9655 10.7842 13.8335 10.8241C13.9076 10.7165 13.9945 10.596 14.0942 10.4628L13.9819 10.3671C13.941 10.4217 13.9022 10.4742 13.8655 10.5247Z" fill="#5AB92D"/>
<path fill-rule="evenodd" clip-rule="evenodd" d="M17.9127 10.5247C17.9505 10.3496 17.9931 10.1333 17.9931 10.1333C18.0878 10.3638 18.1176 10.5735 18.0796 10.761C18.1199 10.8201 18.1563 10.8755 18.189 10.9271C18.2908 10.7836 18.4179 10.5152 18.4179 10.5152C18.4135 10.5933 18.4155 10.6731 18.4175 10.7505C18.422 10.9324 18.4263 11.1016 18.3462 11.2075L18.3472 11.2096C18.3632 11.2447 18.3783 11.2798 18.3926 11.3147C18.503 11.1973 18.6862 10.9856 18.6862 10.9856C18.6718 11.2395 18.606 11.4395 18.4863 11.5823C18.508 11.6567 18.5258 11.7307 18.54 11.8042C18.6325 11.7021 18.7218 11.6012 18.7218 11.6012C18.7087 11.8328 18.6724 11.9859 18.578 12.1144C18.5799 12.151 18.5809 12.1875 18.581 12.2238C18.6787 12.1162 18.7782 12.0038 18.7782 12.0038C18.7644 12.2482 18.675 12.4091 18.5573 12.543C18.5456 12.6204 18.5297 12.6969 18.5095 12.7726L18.4982 12.8145C18.6342 12.7434 18.7836 12.6622 18.7836 12.6622C18.693 12.8734 18.565 12.9926 18.4203 13.0772C18.3887 13.1752 18.3554 13.2699 18.3204 13.361C18.4804 13.312 18.7205 13.2316 18.7205 13.2316C18.5761 13.452 18.4044 13.5448 18.221 13.6006C18.1834 13.6846 18.1442 13.7647 18.1037 13.8408C18.2559 13.7928 18.4361 13.7325 18.4361 13.7325C18.2959 13.9465 18.13 14.0402 17.9526 14.0965C17.8352 14.2744 17.7095 14.4203 17.5784 14.5291C17.7293 14.592 17.9225 14.6681 17.9225 14.6681C17.7083 14.7326 17.5381 14.714 17.3836 14.6609L17.373 14.6664C17.3097 14.6988 17.2388 14.7293 17.159 14.7591C17.2833 14.8098 17.4028 14.8568 17.4028 14.8568C17.1926 14.9201 17.0249 14.9034 16.8727 14.8526L16.8654 14.8547C16.7939 14.8755 16.7212 14.8954 16.6254 14.9207C16.6887 14.904 16.4548 14.9655 16.4073 14.9784C16.2552 15.0197 16.1686 15.0487 16.127 15.0737C16.1232 15.076 16.1203 15.0779 16.1185 15.0791C16.1167 15.0804 16.116 15.0809 16.1163 15.0803L16 14.9901C16.0135 14.9703 16.0322 14.9546 16.0564 14.94C16.1135 14.9057 16.2061 14.8747 16.3718 14.8297C16.419 14.8169 16.6456 14.7573 16.5942 14.7709C16.6874 14.7463 16.7582 14.7269 16.8276 14.7067L16.8813 14.6908C16.8687 14.5306 16.8929 14.3635 17.0054 14.1745C17.0054 14.1745 17.044 14.4679 17.0707 14.6291C17.1629 14.5963 17.2423 14.5631 17.3109 14.528C17.3308 14.5179 17.3507 14.5067 17.3705 14.4945C17.3843 14.3305 17.4362 14.1662 17.5834 13.9954C17.5834 13.9954 17.5755 14.1776 17.5712 14.335C17.669 14.2393 17.764 14.1196 17.8542 13.9787L17.7691 14.0258C17.7686 13.8248 17.8059 13.6254 17.9862 13.4163C17.9862 13.4163 17.9776 13.6134 17.9735 13.7747C18.0265 13.6757 18.0774 13.569 18.1258 13.4552C18.081 13.2944 18.0721 13.1204 18.1533 12.9064C18.1533 12.9064 18.194 13.0357 18.2372 13.1671C18.2498 13.1311 18.2623 13.0946 18.2744 13.0576C18.1806 12.8895 18.1209 12.703 18.1703 12.4432C18.1703 12.4432 18.2751 12.6446 18.355 12.7903C18.3605 12.7706 18.3659 12.7507 18.3712 12.7307C18.3885 12.6658 18.4024 12.6002 18.413 12.5339C18.2784 12.4118 18.1694 12.2601 18.1293 12.0138C18.1293 12.0138 18.3101 12.1795 18.4362 12.2894C18.4379 12.2337 18.4373 12.1775 18.4344 12.121C18.2892 12.0254 18.1635 11.8962 18.0849 11.671C18.0849 11.671 18.2654 11.786 18.4058 11.8715C18.3963 11.8168 18.3845 11.7617 18.3704 11.7063C18.1975 11.6065 18.045 11.4745 17.9547 11.2156C17.9547 11.2156 18.1365 11.3314 18.2772 11.4171C18.259 11.3704 18.2392 11.3236 18.2178 11.2767C18.1926 11.2213 18.1567 11.1551 18.1102 11.0782C17.9557 11.0224 17.8107 10.9297 17.6841 10.7436C17.6841 10.7436 17.8127 10.7842 17.9447 10.8241C17.8706 10.7165 17.7837 10.596 17.684 10.4628L17.7963 10.3671C17.8372 10.4217 17.876 10.4742 17.9127 10.5247Z" fill="#5AB92D"/>
<path d="M13.2515 9.31576C13.6512 9.03475 14.3839 8.79214 14.7609 8.79214C14.7627 8.79214 14.7668 8.79124 14.7774 8.78685C14.8087 8.7739 15.0152 8.64601 15.0281 8.63861C15.2945 8.48611 15.5733 8.40585 15.953 8.40585V9.07252C15.6804 9.07252 15.5022 9.12381 15.3236 9.22605C15.3547 9.20826 15.0882 9.37331 15.0034 9.40841C14.9243 9.44111 14.8449 9.45881 14.7609 9.45881C14.5083 9.45881 13.8948 9.66197 13.5955 9.87238C13.4879 9.94801 13.4979 9.92492 13.5012 9.97C13.5132 10.1339 13.5009 10.2342 13.4 10.3621C13.3869 10.3788 13.3661 10.4705 13.3643 10.6313L12.7393 10.6234C12.7422 10.3609 12.7821 10.1538 12.8766 9.99811C12.8629 9.72894 12.9575 9.52252 13.2515 9.31576Z" fill="#003994"/>
<path d="M13.5857 9.56534L13.5167 9.45414C13.8375 9.22772 14.1367 9.11348 14.4143 9.11348C14.5063 9.11348 14.6111 9.08902 14.7331 9.04192C14.8148 9.01036 14.8985 8.97136 15.0109 8.91423C15.418 8.70726 15.4296 8.702 15.5372 8.702H15.9057V8.83533H15.5372C15.4593 8.83533 15.4341 8.84675 15.0646 9.03459C14.9489 9.09342 14.862 9.13395 14.7756 9.16729C14.6412 9.21922 14.5229 9.24682 14.4143 9.24682C14.1638 9.24682 13.8875 9.35231 13.5857 9.56534Z" fill="#EBCA5E"/>
<path d="M18.4985 9.31576C18.0988 9.03475 17.3661 8.79214 16.9891 8.79214C16.9873 8.79214 16.9832 8.79124 16.9726 8.78685C16.9413 8.7739 16.7348 8.64601 16.7219 8.63861C16.4555 8.48611 16.1767 8.40585 15.797 8.40585V9.07252C16.0696 9.07252 16.2478 9.12381 16.4264 9.22605C16.3953 9.20826 16.6618 9.37331 16.7466 9.40841C16.8257 9.44111 16.9051 9.45881 16.9891 9.45881C17.2417 9.45881 17.8552 9.66197 18.1545 9.87238C18.2621 9.94801 18.2521 9.92492 18.2488 9.97C18.2368 10.1339 18.2491 10.2342 18.35 10.3621C18.3631 10.3788 18.3839 10.4705 18.3857 10.6313L19.0107 10.6234C19.0078 10.3609 18.9679 10.1538 18.8734 9.99811C18.8871 9.72894 18.7925 9.52252 18.4985 9.31576Z" fill="#003994"/>
<path d="M18.1143 9.56534L18.1833 9.45414C17.8625 9.22772 17.5633 9.11348 17.2857 9.11348C17.1937 9.11348 17.0889 9.08902 16.9669 9.04192C16.8852 9.01036 16.8015 8.97136 16.6892 8.91423C16.282 8.70726 16.2704 8.702 16.1629 8.702H15.7943V8.83533H16.1629C16.2407 8.83533 16.2659 8.84675 16.6354 9.03459C16.7511 9.09342 16.8381 9.13395 16.9244 9.16729C17.0588 9.21922 17.1771 9.24682 17.2857 9.24682C17.5362 9.24682 17.8125 9.35231 18.1143 9.56534Z" fill="#EBCA5E"/>
<path d="M13.8221 10.0193L14.1482 10.3739V11.8467H14.4774V11.9404L14.9593 12.1721C14.9593 12.1721 15.0321 11.1978 14.8055 10.9411C14.5789 10.6844 14.9593 10.6212 14.9593 10.6212L15.5378 11.2004V10.0193H13.8221Z" fill="#003994"/>
<path d="M17.7379 10.0193L17.4117 10.3739V11.8467H17.0825V11.9404L16.6006 12.1721C16.6006 12.1721 16.5278 11.1978 16.7544 10.9411C16.9811 10.6844 16.6006 10.6212 16.6006 10.6212L16.0221 11.2004V10.0193H17.7379Z" fill="#D62818"/>
<path d="M14.8769 10.5966L14.8278 10.657L15.7895 11.5461L15.8412 11.5434L16.6366 10.6544L16.5823 10.5992L15.8116 11.4606L14.8769 10.5966Z" fill="#FFC300"/>
<path d="M14.7405 10.9699L14.6778 11.0304L15.9054 11.9194L15.9714 11.9168L16.9866 11.0278L16.9174 10.9726L15.9336 11.834L14.7405 10.9699Z" fill="#FFC300"/>
<path d="M14.1767 12.4219H14.5989L14.8869 12.5099C14.8869 12.5099 14.9796 13.1709 15.4424 13.1709L15.5183 14.0172L15.1596 13.8235C15.1596 13.8235 14.9264 13.9264 14.8869 13.9264C14.8475 13.9264 14.5151 14.1129 14.5151 13.9264C14.5151 13.74 14.1767 13.4383 14.1767 13.4383V12.4219Z" fill="#D62818"/>
<path d="M17.5182 12.4219H17.0961L16.808 12.5099C16.808 12.5099 16.7154 13.1709 16.2525 13.1709L16.1767 14.0172L16.5354 13.8235C16.5354 13.8235 16.7686 13.9264 16.808 13.9264C16.8475 13.9264 17.1799 14.1129 17.1799 13.9264C17.1799 13.74 17.5182 13.4383 17.5182 13.4383V12.4219Z" fill="#003994"/>
<path d="M16.6138 12.5019L17.1138 12.5021C17.1136 12.8761 16.9817 13.1792 16.7216 13.3843L16.4244 12.9554C16.5518 12.8549 16.6137 12.7128 16.6138 12.5019Z" fill="#D62818"/>
<path d="M15.304 11.4733V12.1746H15.8853C15.8853 12.1746 15.8307 12.7005 15.8307 13.0322C15.8307 13.364 15.8853 13.7945 15.8853 13.7945C15.8853 13.7945 16.0276 13.7234 16.0276 13.2748C16.0276 12.8262 16.0276 12.126 16.0276 12.126L16.4869 12.1746L16.4383 11.5422H16.2446C16.2446 11.5422 16.5425 11.9363 16.2446 11.9363C15.9468 11.9363 15.6045 12.0133 15.5396 12.0133C15.4746 12.0133 15.304 11.4733 15.304 11.4733Z" fill="#D62818"/>
<path d="M15.8096 12.3209C15.8096 12.3209 15.483 12.5132 15.483 12.8261C15.483 13.1391 15.6463 13.4959 15.6463 13.4959C15.6463 13.4959 15.5688 12.7911 15.6892 12.6037C15.8096 12.4163 15.8096 12.3209 15.8096 12.3209Z" fill="#003994"/>
<path d="M15.278 12.5525C15.278 12.5525 15.2596 12.779 15.3937 12.779C15.5279 12.779 15.278 12.5525 15.278 12.5525Z" fill="#003994"/>
<path d="M16.4276 11.944L16.479 12.1224L15.6244 12.4022L15.4329 11.6065L15.6024 11.5601L15.7483 12.1664L16.4276 11.944Z" fill="#373737"/>
<path fill-rule="evenodd" clip-rule="evenodd" d="M14.0359 15.4086L13.961 15.4723C13.9359 15.4387 13.9144 15.4049 13.8965 15.3711C13.8213 15.3451 13.7502 15.3105 13.6916 15.2693C13.6104 15.2122 13.5266 15.2122 13.4207 15.2747L13.2997 15.0413C13.484 14.9327 13.6671 14.9327 13.8292 15.0467C13.8312 15.0481 13.8332 15.0494 13.8352 15.0508C13.8577 14.919 13.9441 14.8018 14.0927 14.7172C14.3476 14.572 15.4627 14.4192 15.8015 14.4192V14.8459C15.5266 14.8459 14.4592 14.9922 14.2811 15.0936C14.2758 15.0966 14.271 15.0993 14.2665 15.1018C14.243 15.1149 14.2304 15.1219 14.2281 15.1315C14.2261 15.1395 14.2315 15.1494 14.2437 15.1664C14.2534 15.1655 14.2599 15.1638 14.2625 15.161L14.4398 15.3489C14.3663 15.4278 14.2033 15.4411 14.0359 15.4086ZM12.8414 15.4161C12.8414 15.4161 13.211 15.7409 13.4778 15.6622C13.7447 15.5834 13.8274 15.4948 13.8274 15.4948C13.8274 15.4948 13.561 15.4593 13.2782 15.4161C12.9953 15.373 12.8414 15.4161 12.8414 15.4161Z" fill="#D62818"/>
<path fill-rule="evenodd" clip-rule="evenodd" d="M14.0652 15.1794L14.1102 15.1154C13.9782 15.0098 14.0125 14.9508 14.2654 14.894C14.2874 14.8891 14.3097 14.8842 14.3323 14.8794L14.3323 14.8794C14.5652 14.8298 14.8197 14.7876 15.0735 14.757C15.3527 14.7234 15.6322 14.7037 15.8807 14.7037C15.6321 14.7037 15.3532 14.7233 15.0735 14.757C14.8182 14.7877 14.5632 14.83 14.3323 14.8794L14.3176 14.8009C14.5529 14.7508 14.8097 14.7082 15.066 14.6774C15.3476 14.6436 15.6295 14.6237 15.8807 14.6237C15.6295 14.6237 15.3481 14.6434 15.066 14.6774C14.7831 14.7114 14.5006 14.7595 14.2499 14.8157C13.945 14.8842 13.866 15.0201 14.0652 15.1794Z" fill="#EBCA5E"/>
<path fill-rule="evenodd" clip-rule="evenodd" d="M17.4641 15.4086L17.539 15.4723C17.5641 15.4387 17.5856 15.4049 17.6035 15.3711C17.6787 15.3451 17.7498 15.3105 17.8084 15.2693C17.8896 15.2122 17.9734 15.2122 18.0793 15.2747L18.2003 15.0413C18.016 14.9327 17.8329 14.9327 17.6708 15.0467C17.6688 15.0481 17.6668 15.0494 17.6648 15.0508C17.6423 14.919 17.5559 14.8018 17.4073 14.7172C17.1524 14.572 16.0373 14.4192 15.6985 14.4192V14.8459C15.9734 14.8459 17.0408 14.9922 17.2189 15.0936C17.2242 15.0966 17.229 15.0993 17.2335 15.1018C17.257 15.1149 17.2696 15.1219 17.2719 15.1315C17.2739 15.1395 17.2685 15.1494 17.2563 15.1664C17.2466 15.1655 17.2401 15.1638 17.2375 15.161L17.0602 15.3489C17.1337 15.4278 17.2967 15.4411 17.4641 15.4086ZM18.6586 15.4161C18.6586 15.4161 18.289 15.7409 18.0222 15.6622C17.7553 15.5834 17.6726 15.4948 17.6726 15.4948C17.6726 15.4948 17.939 15.4593 18.2218 15.4161C18.5047 15.373 18.6586 15.4161 18.6586 15.4161Z" fill="#D62818"/>
<path fill-rule="evenodd" clip-rule="evenodd" d="M17.4348 15.1794L17.3898 15.1154C17.5218 15.0098 17.4875 14.9508 17.2346 14.894C17.2126 14.8891 17.1903 14.8842 17.1677 14.8794L17.1677 14.8794C16.9348 14.8298 16.6803 14.7876 16.4265 14.757C16.1473 14.7234 15.8678 14.7037 15.6193 14.7037C15.8679 14.7037 16.1468 14.7233 16.4265 14.757C16.6818 14.7877 16.9368 14.83 17.1677 14.8794L17.1824 14.8009C16.9471 14.7508 16.6903 14.7082 16.434 14.6774C16.1524 14.6436 15.8705 14.6237 15.6193 14.6237C15.8705 14.6237 16.1519 14.6434 16.434 14.6774C16.7169 14.7114 16.9994 14.7595 17.2501 14.8157C17.555 14.8842 17.634 15.0201 17.4348 15.1794Z" fill="#EBCA5E"/>
<path d="M15.3656 15.5105L15.1713 15.1685C15.3482 15.054 15.5755 14.9995 15.8514 14.9995C16.1286 14.9995 16.3533 15.0545 16.524 15.171L16.3219 15.508C16.219 15.4378 16.0627 15.3995 15.8514 15.3995C15.6389 15.3995 15.4775 15.4382 15.3656 15.5105Z" fill="#D62818"/>
</g>
</g>
<defs>
<clipPath id="clip0_30_17981">
<rect width="32" height="24" fill="white"/>
</clipPath>
</defs>
</svg>
