<svg width="32" height="24" viewBox="0 0 32 24" fill="none" xmlns="http://www.w3.org/2000/svg">
<g clip-path="url(#clip0_30_18124)">
<rect width="32" height="24" fill="white"/>
<path fill-rule="evenodd" clip-rule="evenodd" d="M0 0V24H32V0H0Z" fill="#2E42A5"/>
<mask id="mask0_30_18124" style="mask-type:luminance" maskUnits="userSpaceOnUse" x="0" y="0" width="32" height="24">
<path fill-rule="evenodd" clip-rule="evenodd" d="M0 0V24H32V0H0Z" fill="white"/>
</mask>
<g mask="url(#mask0_30_18124)">
<path fill-rule="evenodd" clip-rule="evenodd" d="M0 0V12H32V0H0Z" fill="#FECA00"/>
<path fill-rule="evenodd" clip-rule="evenodd" d="M0 18V24H32V18H0Z" fill="#E31D1C"/>
<path fill-rule="evenodd" clip-rule="evenodd" d="M9.71704 5.71424C9.71704 5.71424 13.8733 3.83662 14.2511 4.04993C14.6288 4.26323 14.72 4.87121 15.0461 4.87121C15.3723 4.87121 16.0288 4.67909 16.3029 4.67909C16.5771 4.67909 16.848 4.87121 16.848 4.87121H18.0187V4.22022L23.3269 5.71424C23.3269 5.71424 20.2309 6.11872 19.9975 6.11872C19.7642 6.11872 19.9975 6.45234 19.9975 6.45234C19.9975 6.45234 19.556 6.11872 18.8837 6.11872C18.2114 6.11872 16.848 6.81329 16.848 6.81329L17.3436 7.87944L16.848 8.19294L16.3029 7.87944C16.3029 7.87944 16.3382 7.00268 16.1035 7.00268C15.8687 7.00268 15.6975 7.56593 15.6975 7.87944C15.6975 8.19294 15.0461 8.19294 15.0461 8.19294L15.3371 7.60604C15.3371 7.60604 15.6263 6.633 15.0461 6.633C14.4659 6.633 11.8213 6.11872 11.8213 6.11872L11.145 6.45234L11.3868 5.71424H9.71704Z" fill="#7B2900"/>
<path fill-rule="evenodd" clip-rule="evenodd" d="M11.5012 15.7742C10.8525 14.3163 11.5012 11.0865 11.5012 11.0865L12.7619 11.7475C12.6123 12.5013 12.5889 13.9258 13.0606 15.0907C13.5324 16.2557 15.3157 17.1732 15.3157 17.1732C15.3157 17.1732 16.2153 17.3738 14.8484 17.5183C13.4815 17.6628 12.1499 17.232 11.5012 15.7742ZM14.7332 21.5167C14.3271 21.5167 15.5455 18.8077 15.5455 18.8077L15.9214 18.0551C15.9214 18.0551 15.9675 21.2439 15.71 21.5167C15.5449 21.6916 15.357 21.6422 15.1363 21.5843C15.0127 21.5518 14.8789 21.5167 14.7332 21.5167Z" fill="#E31D1C"/>
<path fill-rule="evenodd" clip-rule="evenodd" d="M10.3268 15.2981C9.78327 13.1211 10.6311 10.1649 10.6311 10.1649L11.4844 10.7746C11.3591 11.9002 11.3591 14.8111 12.0809 16.0724C12.8027 17.3336 15.9681 17.8634 15.9681 17.8634C15.9681 17.8634 15.3436 18.3251 14.1984 18.5409C13.0532 18.7568 10.8702 17.4751 10.3268 15.2981ZM13.9557 21.2171L14.4578 19.4248L15.1654 18.5589H15.6742C15.6742 18.5589 14.9579 21.6396 14.4578 21.6396C14.1329 21.6396 14.2301 21.4613 14.3381 21.2632C14.3964 21.1564 14.4578 21.0439 14.4578 20.9504C14.4578 20.6837 13.9557 21.2171 13.9557 21.2171Z" fill="#2E42A5"/>
<path fill-rule="evenodd" clip-rule="evenodd" d="M9.49782 15.671C9.22813 13.7972 9.76751 9.31995 9.76751 9.31995L10.6208 9.92963C10.2351 11.0141 10.3546 14.126 10.6208 15.671C10.8871 17.2161 13.4064 18.1475 13.4064 18.1475C13.4064 18.1475 12.7819 18.6091 11.6367 18.825C10.4916 19.0408 9.76751 17.5449 9.49782 15.671ZM13.6864 19.4155C13.2006 19.4155 13.8983 18.7189 13.8983 18.7189H15.0614C15.0614 18.7189 14.6635 19.7029 14.1723 19.7029C13.926 19.7029 13.9267 19.6306 13.9274 19.5586C13.928 19.487 13.9287 19.4155 13.6864 19.4155Z" fill="#FECA00"/>
<path fill-rule="evenodd" clip-rule="evenodd" d="M20.3654 15.7742C21.0141 14.3163 20.3654 11.0865 20.3654 11.0865L19.1047 11.7475C19.2543 12.5013 19.2777 13.9258 18.8059 15.0907C18.3342 16.2557 16.5509 17.1732 16.5509 17.1732C16.5509 17.1732 15.6513 17.3738 17.0182 17.5183C18.385 17.6628 19.7167 17.232 20.3654 15.7742ZM17.1334 21.5167C17.5395 21.5167 16.3211 18.8077 16.3211 18.8077L15.9451 18.0551C15.9451 18.0551 15.8991 21.2439 16.1566 21.5167C16.3216 21.6916 16.5096 21.6422 16.7303 21.5843C16.8538 21.5518 16.9876 21.5167 17.1334 21.5167Z" fill="#E31D1C"/>
<path fill-rule="evenodd" clip-rule="evenodd" d="M21.5398 15.2981C22.0833 13.1211 21.2354 10.1649 21.2354 10.1649L20.3821 10.7746C20.5075 11.9002 20.5075 14.8111 19.7857 16.0724C19.0639 17.3336 15.8985 17.8634 15.8985 17.8634C15.8985 17.8634 16.523 18.3251 17.6682 18.5409C18.8133 18.7568 20.9963 17.4751 21.5398 15.2981ZM17.9109 21.2171L17.4088 19.4248L16.7012 18.5589H16.1924C16.1924 18.5589 16.9087 21.6396 17.4088 21.6396C17.7337 21.6396 17.6365 21.4613 17.5285 21.2632C17.4702 21.1564 17.4088 21.0439 17.4088 20.9504C17.4088 20.6837 17.9109 21.2171 17.9109 21.2171Z" fill="#2E42A5"/>
<path fill-rule="evenodd" clip-rule="evenodd" d="M22.3688 15.671C22.6385 13.7972 22.0991 9.31995 22.0991 9.31995L21.2458 9.92963C21.6314 11.0141 21.512 14.126 21.2458 15.671C20.9795 17.2161 18.4602 18.1475 18.4602 18.1475C18.4602 18.1475 19.0847 18.6091 20.2298 18.825C21.375 19.0408 22.0991 17.5449 22.3688 15.671ZM18.1801 19.4155C18.666 19.4155 17.9683 18.7189 17.9683 18.7189H16.8052C16.8052 18.7189 17.2031 19.7029 17.6943 19.7029C17.9406 19.7029 17.9399 19.6306 17.9392 19.5586C17.9386 19.487 17.9379 19.4155 18.1801 19.4155Z" fill="#FECA00"/>
<path d="M10.2028 10.446L10.2944 9.89364L11.8953 9.99728L10.681 8.73936L11.0901 8.35018L12.7325 10.0515L11.3284 7.41148L11.8138 7.12279L13.0921 9.00317L12.4823 7.04867L13.0066 6.84015L14.9723 10.7602L14.2182 10.7114L14.2921 10.9482L14.9341 11.1184L14.7878 11.6618L14.4901 11.5829L14.7682 12.4742L14.2852 11.7637L15.1262 13.3442L13.0598 11.2036L10.2028 10.446Z" fill="#6FAE21"/>
<path d="M21.9262 10.446L21.8346 9.89364L20.2337 9.99728L21.448 8.73936L21.0389 8.35018L19.3966 10.0515L20.8007 7.41148L20.3153 7.12279L19.0369 9.00317L19.6467 7.04867L19.1224 6.84015L17.1567 10.7602L17.9108 10.7114L17.8369 10.9482L17.195 11.1184L17.3412 11.6618L17.6389 11.5829L17.3608 12.4742L17.8439 11.7637L17.0028 13.3442L19.0692 11.2036L21.9262 10.446Z" fill="#6FAE21"/>
<path d="M11.0667 21.3113L10.6544 20.9254L22.8447 8.09061L23.257 8.47648L11.0667 21.3113Z" fill="#171401"/>
<path fill-rule="evenodd" clip-rule="evenodd" d="M22.5351 8.1894L23.1601 8.77884L23.5124 7.80441L22.5351 8.1894Z" fill="#CECECC"/>
<path fill-rule="evenodd" clip-rule="evenodd" d="M11.3763 21.3086L10.6584 20.8366L10.4258 21.8041L11.3763 21.3086Z" fill="#CECECC"/>
<path d="M10.16 19.3988L9.74768 19.0129L21.9381 6.1781L22.3504 6.56397L10.16 19.3988Z" fill="#171401"/>
<path fill-rule="evenodd" clip-rule="evenodd" d="M21.6284 6.27689L22.2534 6.86633L22.6057 5.89191L21.6284 6.27689Z" fill="#CECECC"/>
<path fill-rule="evenodd" clip-rule="evenodd" d="M10.4696 19.3961L9.75173 18.9241L9.51916 19.8916L10.4696 19.3961Z" fill="#CECECC"/>
<path d="M21.2533 21.3113L21.6656 20.9254L9.47522 8.09061L9.06291 8.47648L21.2533 21.3113Z" fill="#171401"/>
<path fill-rule="evenodd" clip-rule="evenodd" d="M9.78485 8.1894L9.15982 8.77884L8.80754 7.80441L9.78485 8.1894Z" fill="#CECECC"/>
<path fill-rule="evenodd" clip-rule="evenodd" d="M20.9437 21.3086L21.6615 20.8366L21.8941 21.8041L20.9437 21.3086Z" fill="#CECECC"/>
<path d="M22.3866 19.8488L22.7989 19.4629L10.6085 6.62811L10.1962 7.01398L22.3866 19.8488Z" fill="#171401"/>
<path fill-rule="evenodd" clip-rule="evenodd" d="M10.9182 6.72691L10.2931 7.31634L9.94084 6.34192L10.9182 6.72691Z" fill="#CECECC"/>
<path fill-rule="evenodd" clip-rule="evenodd" d="M22.077 19.8461L22.7948 19.3741L23.0274 20.3416L22.077 19.8461Z" fill="#CECECC"/>
<rect x="13.6666" y="16.375" width="4.53333" height="2.25" fill="#B74E01"/>
<path d="M15.9477 17.2868C16.8465 17.2868 17.6233 16.7088 18.1627 15.852C18.7043 14.9919 19.031 13.8191 19.031 12.5368C19.031 11.2544 18.7043 10.0817 18.1627 9.22159C17.6233 8.36479 16.8465 7.78677 15.9477 7.78677C15.0489 7.78677 14.2721 8.36479 13.7327 9.22159C13.1912 10.0817 12.8644 11.2544 12.8644 12.5368C12.8644 13.8191 13.1912 14.9919 13.7327 15.852C14.2721 16.7088 15.0489 17.2868 15.9477 17.2868Z" fill="#7DB8FF" stroke="#FECA00" stroke-width="0.5"/>
<mask id="mask1_30_18124" style="mask-type:luminance" maskUnits="userSpaceOnUse" x="12" y="7" width="8" height="11">
<path d="M15.9477 17.2868C16.8465 17.2868 17.6233 16.7088 18.1627 15.852C18.7043 14.9919 19.031 13.8191 19.031 12.5368C19.031 11.2544 18.7043 10.0817 18.1627 9.22159C17.6233 8.36479 16.8465 7.78677 15.9477 7.78677C15.0489 7.78677 14.2721 8.36479 13.7327 9.22159C13.1912 10.0817 12.8644 11.2544 12.8644 12.5368C12.8644 13.8191 13.1912 14.9919 13.7327 15.852C14.2721 16.7088 15.0489 17.2868 15.9477 17.2868Z" fill="white" stroke="white" stroke-width="0.5"/>
</mask>
<g mask="url(#mask1_30_18124)">
<path fill-rule="evenodd" clip-rule="evenodd" d="M12.8794 12.6099H14.4917C14.4917 12.6099 15.6 12.8554 15.0458 13.0486C14.4917 13.2418 14.4917 13.3057 14.4917 13.5812C14.4917 13.8568 14.4917 14.8651 14.4917 15.0805C14.4917 15.2958 14.8859 15.7568 14.055 15.7568C13.224 15.7568 12.5081 12.3408 12.5081 12.3408L12.8794 12.6099Z" fill="#6FAE21"/>
<path fill-rule="evenodd" clip-rule="evenodd" d="M19.179 12.7955C19.179 12.7955 17.6813 13.0913 16.6553 12.9927C15.6293 12.8941 15.179 12.7955 15.179 12.7955C15.179 12.7955 15.8942 13.1674 16.1483 13.4792C16.4024 13.7909 16.9228 14.3299 17.4533 14.3299C17.9837 14.3299 18.7969 14.833 18.7969 14.833L19.179 12.7955Z" fill="#6FAE21"/>
<path fill-rule="evenodd" clip-rule="evenodd" d="M13.3188 10.1356C13.3188 10.1356 14.5534 10.3742 14.8507 10.7315C15.1481 11.0888 14.4579 11.446 16.2569 11.0888C18.0559 10.7315 19.4839 10.1083 19.4839 11.0888C19.4839 12.0693 19.3268 12.9725 18.5526 12.9725C17.7785 12.9725 17.4697 12.9725 15.1087 12.9725C12.7478 12.9725 11.4608 13.6946 11.6261 12.5327C11.7914 11.3708 13.3188 10.1356 13.3188 10.1356Z" fill="#F7FCFF"/>
</g>
</g>
</g>
<defs>
<clipPath id="clip0_30_18124">
<rect width="32" height="24" fill="white"/>
</clipPath>
</defs>
</svg>
