<svg width="32" height="24" viewBox="0 0 32 24" fill="none" xmlns="http://www.w3.org/2000/svg">
<g clip-path="url(#clip0_30_18086)">
<rect width="32" height="24" fill="white"/>
<path fill-rule="evenodd" clip-rule="evenodd" d="M0 0H32V24H0V0Z" fill="#F7FCFF"/>
<path fill-rule="evenodd" clip-rule="evenodd" d="M0 0V8H32V0H0Z" fill="#272727"/>
<path fill-rule="evenodd" clip-rule="evenodd" d="M0 16V24H32V16H0Z" fill="#5EAA22"/>
<path fill-rule="evenodd" clip-rule="evenodd" d="M0 0L16 12L0 24V0Z" fill="#E31D1C"/>
<path fill-rule="evenodd" clip-rule="evenodd" d="M21.6879 15.4771C21.6879 15.4771 19.4132 14.1023 19.4132 11.8305C19.4132 9.55872 21.6879 8.36357 21.6879 8.36357C20.6697 7.71755 17.1392 8.63953 17.1392 11.9045C17.1392 15.1695 20.6366 15.7728 21.6879 15.4771ZM23.5285 11.3125L22.2046 10.0721L22.6618 11.6557L21.3807 12.2626L22.9542 12.7748L23.6375 14.489L23.9364 12.9022L25.4906 13.2454L24.3146 12.097L24.7124 10.8717L23.5285 11.3125Z" fill="#E31D1C"/>
</g>
<defs>
<clipPath id="clip0_30_18086">
<rect width="32" height="24" fill="white"/>
</clipPath>
</defs>
</svg>
