<svg width="32" height="24" viewBox="0 0 32 24" fill="none" xmlns="http://www.w3.org/2000/svg">
<g clip-path="url(#clip0_30_18013)">
<rect width="32" height="24" fill="white"/>
<path fill-rule="evenodd" clip-rule="evenodd" d="M0 0V24H32V0H0Z" fill="#FFB400"/>
<mask id="mask0_30_18013" style="mask-type:luminance" maskUnits="userSpaceOnUse" x="0" y="0" width="32" height="24">
<path fill-rule="evenodd" clip-rule="evenodd" d="M0 0V24H32V0H0Z" fill="white"/>
</mask>
<g mask="url(#mask0_30_18013)">
<path fill-rule="evenodd" clip-rule="evenodd" d="M0 0V6H32V0H0Z" fill="#C51918"/>
<path fill-rule="evenodd" clip-rule="evenodd" d="M0 18V24H32V18H0Z" fill="#C51918"/>
<rect x="5.00803" y="10.272" width="1.12" height="5.824" fill="#F1F9FF"/>
<path fill-rule="evenodd" clip-rule="evenodd" d="M6.576 9.26401H4.56V9.82401H4.896V10.272H6.24V9.82401H6.576V9.26401Z" fill="#C88A02"/>
<path fill-rule="evenodd" clip-rule="evenodd" d="M6.24 16.432H6.576V16.992H4.56V16.432H4.896V15.984H6.24V16.432Z" fill="#C88A02"/>
<path fill-rule="evenodd" clip-rule="evenodd" d="M5.56803 9.37601C5.81176 9.37601 5.83653 9.28424 5.98033 9.14716C6.09198 9.04072 6.35203 8.90872 6.35203 8.76001C6.35203 8.41981 6.00102 8.14401 5.56803 8.14401C5.13504 8.14401 4.78403 8.41981 4.78403 8.76001C4.78403 8.92568 4.96311 9.03645 5.09851 9.14716C5.24117 9.2638 5.34589 9.37601 5.56803 9.37601Z" fill="#AD1619"/>
<path fill-rule="evenodd" clip-rule="evenodd" d="M4.56 16.992H6.576V17.888C6.576 17.888 6.324 17.776 6.072 17.776C5.82 17.776 5.568 17.888 5.568 17.888C5.568 17.888 5.316 17.776 5.064 17.776C4.812 17.776 4.56 17.888 4.56 17.888V16.992Z" fill="#005BBF"/>
<mask id="mask1_30_18013" style="mask-type:luminance" maskUnits="userSpaceOnUse" x="4" y="16" width="3" height="2">
<path fill-rule="evenodd" clip-rule="evenodd" d="M4.56 16.992H6.576V17.888C6.576 17.888 6.324 17.776 6.072 17.776C5.82 17.776 5.568 17.888 5.568 17.888C5.568 17.888 5.316 17.776 5.064 17.776C4.812 17.776 4.56 17.888 4.56 17.888V16.992Z" fill="white"/>
</mask>
<g mask="url(#mask1_30_18013)">
<path d="M4.54177 17.7119L4.49777 17.6046C4.67935 17.5238 4.86158 17.4833 5.04408 17.4833C5.16198 17.4833 5.22356 17.4997 5.32823 17.5463C5.42017 17.5872 5.46783 17.5999 5.56838 17.5999C5.66893 17.5999 5.71659 17.5872 5.80853 17.5463C5.9132 17.4997 5.97477 17.4833 6.09268 17.4833C6.27518 17.4833 6.45741 17.5238 6.63899 17.6046L6.59498 17.7119C6.42703 17.6372 6.25972 17.5999 6.09268 17.5999C5.99213 17.5999 5.94447 17.6127 5.85253 17.6536C5.74786 17.7002 5.68629 17.7166 5.56838 17.7166C5.45047 17.7166 5.3889 17.7002 5.28423 17.6536C5.19229 17.6127 5.14463 17.5999 5.04408 17.5999C4.87704 17.5999 4.70973 17.6372 4.54177 17.7119Z" fill="white"/>
<path d="M4.54177 17.3759L4.49777 17.2686C4.67935 17.1878 4.86158 17.1473 5.04408 17.1473C5.16198 17.1473 5.22356 17.1637 5.32823 17.2103C5.42017 17.2512 5.46783 17.2639 5.56838 17.2639C5.66893 17.2639 5.71659 17.2512 5.80853 17.2103C5.9132 17.1637 5.97477 17.1473 6.09268 17.1473C6.27518 17.1473 6.45741 17.1878 6.63899 17.2686L6.59498 17.3759C6.42703 17.3012 6.25972 17.2639 6.09268 17.2639C5.99213 17.2639 5.94447 17.2767 5.85253 17.3176C5.74786 17.3642 5.68629 17.3806 5.56838 17.3806C5.45047 17.3806 5.3889 17.3642 5.28423 17.3176C5.19229 17.2767 5.14463 17.2639 5.04408 17.2639C4.87704 17.2639 4.70973 17.3012 4.54177 17.3759Z" fill="white"/>
</g>
<rect x="15.984" y="10.272" width="1.12" height="5.824" fill="#F1F9FF"/>
<path fill-rule="evenodd" clip-rule="evenodd" d="M17.552 9.26401H15.536V9.82401H15.872V10.272H17.216V9.82401H17.552V9.26401Z" fill="#C88A02"/>
<path fill-rule="evenodd" clip-rule="evenodd" d="M17.216 16.432H17.552V16.992H15.536V16.432H15.872V15.984H17.216V16.432Z" fill="#C88A02"/>
<path fill-rule="evenodd" clip-rule="evenodd" d="M16.544 9.37601C16.7877 9.37601 16.8125 9.28424 16.9563 9.14716C17.068 9.04072 17.328 8.90872 17.328 8.76001C17.328 8.41981 16.977 8.14401 16.544 8.14401C16.111 8.14401 15.76 8.41981 15.76 8.76001C15.76 8.92568 15.9391 9.03645 16.0745 9.14716C16.2171 9.2638 16.3219 9.37601 16.544 9.37601Z" fill="#AD1619"/>
<path fill-rule="evenodd" clip-rule="evenodd" d="M15.536 16.992H17.552V17.888C17.552 17.888 17.3 17.776 17.048 17.776C16.796 17.776 16.544 17.888 16.544 17.888C16.544 17.888 16.292 17.776 16.04 17.776C15.788 17.776 15.536 17.888 15.536 17.888V16.992Z" fill="#005BBF"/>
<mask id="mask2_30_18013" style="mask-type:luminance" maskUnits="userSpaceOnUse" x="15" y="16" width="3" height="2">
<path fill-rule="evenodd" clip-rule="evenodd" d="M15.536 16.992H17.552V17.888C17.552 17.888 17.3 17.776 17.048 17.776C16.796 17.776 16.544 17.888 16.544 17.888C16.544 17.888 16.292 17.776 16.04 17.776C15.788 17.776 15.536 17.888 15.536 17.888V16.992Z" fill="white"/>
</mask>
<g mask="url(#mask2_30_18013)">
<path d="M15.5178 17.7119L15.4738 17.6046C15.6554 17.5238 15.8376 17.4833 16.0201 17.4833C16.138 17.4833 16.1996 17.4997 16.3042 17.5463C16.3962 17.5872 16.4438 17.5999 16.5444 17.5999C16.6449 17.5999 16.6926 17.5872 16.7845 17.5463C16.8892 17.4997 16.9508 17.4833 17.0687 17.4833C17.2512 17.4833 17.4334 17.5238 17.615 17.6046L17.571 17.7119C17.403 17.6372 17.2357 17.5999 17.0687 17.5999C16.9681 17.5999 16.9205 17.6127 16.8285 17.6536C16.7239 17.7002 16.6623 17.7166 16.5444 17.7166C16.4265 17.7166 16.3649 17.7002 16.2602 17.6536C16.1683 17.6127 16.1206 17.5999 16.0201 17.5999C15.8531 17.5999 15.6857 17.6372 15.5178 17.7119Z" fill="white"/>
<path d="M15.5178 17.3759L15.4738 17.2686C15.6554 17.1878 15.8376 17.1473 16.0201 17.1473C16.138 17.1473 16.1996 17.1637 16.3042 17.2103C16.3962 17.2512 16.4438 17.2639 16.5444 17.2639C16.6449 17.2639 16.6926 17.2512 16.7845 17.2103C16.8892 17.1637 16.9508 17.1473 17.0687 17.1473C17.2512 17.1473 17.4334 17.1878 17.615 17.2686L17.571 17.3759C17.403 17.3012 17.2357 17.2639 17.0687 17.2639C16.9681 17.2639 16.9205 17.2767 16.8285 17.3176C16.7239 17.3642 16.6623 17.3806 16.5444 17.3806C16.4265 17.3806 16.3649 17.3642 16.2602 17.3176C16.1683 17.2767 16.1206 17.2639 16.0201 17.2639C15.8531 17.2639 15.6857 17.3012 15.5178 17.3759Z" fill="white"/>
</g>
<path fill-rule="evenodd" clip-rule="evenodd" d="M4.98797 15.6799C5.1899 15.4351 5.30281 15.2124 5.30281 14.9759C5.30281 14.8267 5.25843 14.6979 5.18067 14.5927L5.19381 14.5868C5.1926 14.5873 5.41533 14.4902 5.49287 14.4531C5.63703 14.3839 5.76402 14.3107 5.88785 14.2207C5.9669 14.1632 6.07282 14.1006 6.23428 14.0139C6.26218 13.9989 6.3378 13.9588 6.38603 13.9332L6.42697 13.9114C6.50545 13.8695 6.56388 13.8375 6.61817 13.806C6.78734 13.7078 6.89914 13.6267 6.98464 13.5183C7.18716 13.2615 7.14511 12.9134 6.86132 12.7202C6.72228 12.6255 6.53465 12.5712 6.25962 12.5284L6.20275 12.5196C6.1088 12.5051 5.92827 12.4772 5.86627 12.4674C5.73465 12.4468 5.61722 12.4275 5.51251 12.4092C6.20108 12.2946 7.18432 12.3367 7.61681 12.56L8.02787 11.7639C7.14653 11.3088 5.1384 11.3553 4.38826 11.8719C3.83807 12.2508 3.9119 12.8236 4.48435 13.0702C4.72355 13.1733 5.03538 13.2417 5.61243 13.3344C5.51573 13.3905 5.43556 13.4417 5.36086 13.496C5.2851 13.5511 5.20394 13.5979 5.10549 13.6451C5.05841 13.6677 4.91901 13.7289 4.8551 13.757L4.85505 13.757L4.85505 13.757L4.82293 13.7711C4.35665 13.9832 4.13035 14.2765 4.19797 14.8059L4.23458 15.0925L4.30024 15.1127L4.98797 15.6799ZM4.41159 14.9393L4.41017 14.9434L4.41125 14.9405L4.41159 14.9393ZM16.706 14.9759C16.706 15.2124 16.8189 15.4351 17.0208 15.6799L17.7085 15.1127L17.7742 15.0925L17.8108 14.8059C17.8784 14.2765 17.6521 13.9832 17.1858 13.7711L17.1537 13.757C17.0898 13.7289 16.9504 13.6677 16.9033 13.6451C16.8048 13.5979 16.7237 13.5511 16.6479 13.496C16.5732 13.4417 16.4931 13.3905 16.3963 13.3344C16.9734 13.2417 17.2852 13.1733 17.5244 13.0702C18.0969 12.8236 18.1707 12.2508 17.6205 11.8719C16.8704 11.3553 14.8623 11.3088 13.9809 11.7639L14.392 12.56C14.8245 12.3367 15.8077 12.2946 16.4963 12.4092C16.3916 12.4275 16.2741 12.4468 16.1425 12.4674C16.0805 12.4772 15.9001 12.5051 15.8061 12.5196L15.8058 12.5197L15.7492 12.5284C15.4741 12.5712 15.2865 12.6255 15.1475 12.7202C14.8637 12.9134 14.8216 13.2615 15.0241 13.5183C15.1096 13.6267 15.2214 13.7078 15.3906 13.806C15.4449 13.8375 15.5033 13.8695 15.5818 13.9114L15.6226 13.9331C15.6708 13.9587 15.7466 13.9989 15.7745 14.0139C15.936 14.1006 16.0419 14.1632 16.1209 14.2207C16.2448 14.3107 16.3718 14.3839 16.5159 14.4531C16.5935 14.4902 16.8162 14.5873 16.815 14.5868L16.8281 14.5927C16.7503 14.6979 16.706 14.8267 16.706 14.9759Z" fill="#AD1619"/>
<path d="M5.92338 12.4L6.25397 12.4684V12.9612C5.90187 13.2421 5.00803 13.7156 5.00803 13.7156V12.4H5.92338Z" fill="#F1F9FF"/>
<path d="M16.3146 12.4L15.984 12.4684V12.9612C16.3361 13.2421 17.2299 13.7156 17.2299 13.7156V12.4H16.3146Z" fill="#F1F9FF"/>
<path fill-rule="evenodd" clip-rule="evenodd" d="M14.776 7.20597V7.04198C14.1999 6.62854 13.5966 6.42181 12.9662 6.42181C12.3617 6.15434 11.7499 6.05051 11.1308 6.11034C11.1309 6.10843 11.131 6.10745 11.131 6.10745C10.2001 6.01636 9.26182 6.42181 9.26182 6.42181C8.31612 6.42181 7.452 7.04198 7.452 7.04198V7.20597L8.58162 8.34049C8.58162 8.34049 8.89959 9.43249 11.1264 9.17584V9.17861C11.1264 9.17861 12.6008 9.13837 12.7044 9.10391C12.7455 9.09024 12.7881 9.0778 12.8317 9.06508C13.1205 8.98077 13.4501 8.88452 13.6464 8.34049L14.776 7.20597ZM11.1264 6.16051C11.0943 6.53822 10.9107 8.81515 11.1264 9.16816V6.16051Z" fill="#AD1619"/>
<path fill-rule="evenodd" clip-rule="evenodd" d="M8.31371 8.14957L8.31446 8.14612L7.51974 7.39843L7.59649 7.31686L8.34222 8.01846L8.3613 7.93068C8.4833 7.95721 8.57247 7.96696 8.62444 7.96144V7.80924L8.78975 7.8987C8.87106 7.9427 8.9875 7.95454 9.14087 7.92958C9.25351 7.91125 9.32952 7.78043 9.35437 7.50167L9.40454 6.9389L9.57284 7.47825C9.649 7.72231 9.76518 7.8299 9.93058 7.8299C10.0921 7.8299 10.1571 7.77067 10.1642 7.62139L10.1846 7.19801L10.376 7.57617C10.445 7.71241 10.5401 7.77422 10.6754 7.77422C10.8688 7.77422 10.9981 7.61294 10.9981 7.3599H11.0017H11.2221H11.2257C11.2257 7.61294 11.3549 7.77422 11.5484 7.77422C11.6836 7.77422 11.7788 7.71241 11.8477 7.57617L12.0392 7.19801L12.0595 7.62139C12.0667 7.77067 12.1316 7.8299 12.2932 7.8299C12.4586 7.8299 12.5748 7.72231 12.6509 7.47825L12.8192 6.9389L12.8694 7.50167C12.8942 7.78043 12.9702 7.91125 13.0829 7.92958C13.2363 7.95454 13.3527 7.9427 13.434 7.8987L13.5993 7.80924V7.96144C13.6513 7.96696 13.7405 7.95721 13.8625 7.93068L13.8979 8.09355L14.7234 7.31686L14.8002 7.39843L13.7729 8.36494C13.623 8.64097 13.5475 8.82316 13.5475 8.89884C13.5475 9.0143 13.2471 9.08283 12.6608 9.15322C12.2016 9.20837 11.6595 9.24538 11.2162 9.25091V9.25163L11.16 9.25145L11.1037 9.25163V9.25091C10.6604 9.24538 10.1183 9.20837 9.65905 9.15322C9.07279 9.08283 8.77241 9.0143 8.77241 8.89884C8.77241 8.88453 8.7697 8.8664 8.76431 8.84454C8.70519 8.76926 8.66363 8.6461 8.63597 8.535C8.61002 8.48305 8.58037 8.42632 8.54705 8.36494L8.31945 8.15081L8.31371 8.14957ZM13.8192 8.1676C13.6357 8.20007 13.5033 8.19679 13.433 8.13957C13.3231 8.17156 13.1941 8.17463 13.0469 8.15067C12.8897 8.12509 12.7802 8.0205 12.7143 7.847C12.6283 7.95659 12.5195 8.02423 12.3892 8.04611C13.106 8.14775 13.608 8.29063 13.608 8.29063C13.608 8.29063 13.5956 8.39677 13.5655 8.52157C13.5974 8.45624 13.6351 8.38364 13.6788 8.30352L13.6896 8.28952L13.8192 8.1676ZM12.051 8.00353C11.9887 7.97256 11.9389 7.92765 11.9029 7.86977C11.8495 7.91696 11.7887 7.95148 11.7212 7.97277C11.8339 7.98139 11.9441 7.9918 12.051 8.00353ZM11.3258 7.95098C11.2386 7.91066 11.1661 7.8461 11.1119 7.76337C11.0581 7.84552 10.9862 7.90975 10.8998 7.95012C10.951 7.9486 11.0025 7.94752 11.0542 7.94694V7.94644L11.0991 7.94656L11.144 7.94644V7.94694C11.205 7.94763 11.2656 7.949 11.3258 7.95098ZM8.62218 8.28186L8.51776 8.18361C8.64311 8.19604 8.73589 8.18425 8.79076 8.13957C8.90069 8.17156 9.02963 8.17463 9.17684 8.15067C9.33408 8.12509 9.44358 8.0205 9.50946 7.847C9.59299 7.95341 9.69796 8.02028 9.82325 8.04409C9.20531 8.13091 8.74426 8.24903 8.62218 8.28186ZM10.4977 7.97121C10.3892 7.97928 10.2829 7.98902 10.1796 8.00003C10.2387 7.96921 10.2862 7.92551 10.3208 7.86977C10.373 7.91583 10.4321 7.94981 10.4977 7.97121ZM13.253 8.90104C13.3315 8.93776 13.3944 8.90113 13.4441 8.83081C13.4398 8.85023 13.4371 8.86779 13.436 8.88351C13.4295 8.88782 13.4194 8.89299 13.4062 8.89855C13.3693 8.91406 13.313 8.93058 13.2397 8.9473C13.0956 8.98017 12.8905 9.01284 12.6475 9.04202C12.1729 9.099 11.6086 9.1365 11.16 9.13945C10.7113 9.1365 10.147 9.099 9.67241 9.04202C9.42937 9.01284 9.22431 8.98017 9.08024 8.9473C9.0188 8.93329 8.96928 8.91941 8.93313 8.90615C8.93711 8.90464 8.94113 8.90294 8.94519 8.90104C9.18986 8.78655 10.8078 8.67911 11.0991 8.66057C11.3905 8.67911 13.0084 8.78655 13.253 8.90104ZM13.5609 8.88113L13.5601 8.88218L13.5609 8.88106L13.5616 8.88052L13.5609 8.88113Z" fill="#C88A02"/>
<path fill-rule="evenodd" clip-rule="evenodd" d="M11.1122 5.34708C11.2978 5.34708 11.4482 5.19665 11.4482 5.01108C11.4482 4.82551 11.2978 4.67508 11.1122 4.67508C10.9267 4.67508 10.7762 4.82551 10.7762 5.01108C10.7762 5.19665 10.9267 5.34708 11.1122 5.34708Z" fill="#005BBF"/>
<path fill-rule="evenodd" clip-rule="evenodd" d="M10.8937 6.99679C10.9008 7.03367 10.912 7.068 10.9262 7.09859C10.8828 7.08202 10.8313 7.07241 10.776 7.07241C10.6214 7.07241 10.496 7.14763 10.496 7.24041C10.496 7.3332 10.6214 7.40841 10.776 7.40841C10.9306 7.40841 11.056 7.3332 11.056 7.24041C11.056 7.3332 11.1814 7.40841 11.336 7.40841C11.4906 7.40841 11.616 7.3332 11.616 7.24041C11.616 7.14763 11.4906 7.07241 11.336 7.07241C11.2971 7.07241 11.26 7.07718 11.2263 7.08579C11.2344 7.03986 11.2341 6.9872 11.2235 6.93268C11.194 6.78088 11.0962 6.67217 11.0051 6.68988C10.9141 6.70758 10.8642 6.84499 10.8937 6.99679ZM11.056 7.24041L11.0559 7.23529L11.0561 7.23537L11.056 7.24041ZM9.24618 7.21059C9.23203 7.18 9.22083 7.14567 9.21366 7.10879C9.18416 6.95699 9.23407 6.81958 9.32515 6.80188C9.41623 6.78417 9.51398 6.89288 9.54349 7.04468C9.55409 7.0992 9.55444 7.15186 9.54632 7.19779C9.58 7.18918 9.61708 7.18441 9.656 7.18441C9.81064 7.18441 9.936 7.25963 9.936 7.35241C9.936 7.4452 9.81064 7.52041 9.656 7.52041C9.50136 7.52041 9.376 7.4452 9.376 7.35241L9.37613 7.34737L9.37587 7.34729L9.376 7.35241C9.376 7.4452 9.25064 7.52041 9.096 7.52041C8.94136 7.52041 8.816 7.4452 8.816 7.35241C8.816 7.25963 8.94136 7.18441 9.096 7.18441C9.15126 7.18441 9.20278 7.19402 9.24618 7.21059ZM12.7539 7.31297C12.741 7.40485 12.6064 7.46189 12.4533 7.44037C12.3001 7.41885 12.1865 7.32692 12.1994 7.23504C12.2123 7.14316 12.3469 7.08612 12.5 7.10764C12.5548 7.11533 12.6044 7.13201 12.6451 7.15447C12.6354 7.1222 12.629 7.08664 12.6271 7.04913C12.619 6.8947 12.6875 6.76557 12.7802 6.76072C12.8729 6.75586 12.9545 6.87711 12.9626 7.03154C12.9655 7.08701 12.9585 7.13921 12.9441 7.18356C12.9787 7.17972 13.016 7.18016 13.0546 7.18558C13.2077 7.2071 13.3214 7.29903 13.3085 7.39091C13.2956 7.48279 13.161 7.53983 13.0078 7.51831C12.8547 7.49678 12.741 7.40485 12.7539 7.31297ZM12.7539 7.31297L12.7545 7.30788L12.7548 7.308L12.7539 7.31297ZM13.8204 7.75723C13.9569 7.82983 14.1029 7.82227 14.1464 7.74034L14.1487 7.73576C14.1622 7.74999 14.1781 7.76036 14.1963 7.76591C14.285 7.79304 14.3936 7.69514 14.4388 7.54726C14.484 7.39938 14.4487 7.2575 14.36 7.23038C14.2713 7.20325 14.1627 7.30114 14.1175 7.44902C14.1065 7.48495 14.1003 7.52052 14.0984 7.55418C14.0679 7.51917 14.0269 7.4865 13.9781 7.46056C13.8416 7.38796 13.6956 7.39552 13.652 7.47744C13.6084 7.55936 13.6838 7.68463 13.8204 7.75723ZM8.32482 7.79154C8.18828 7.86414 8.04228 7.85658 7.99872 7.77465C7.99792 7.77314 7.99715 7.77161 7.99643 7.77007C7.98298 7.7843 7.96706 7.79466 7.94889 7.80022C7.86016 7.82734 7.75158 7.72945 7.70637 7.58157C7.66116 7.43369 7.69643 7.29181 7.78516 7.26469C7.87389 7.23756 7.98248 7.33545 8.02769 7.48333C8.03867 7.51926 8.0449 7.55483 8.04678 7.58849C8.07731 7.55347 8.11829 7.52081 8.16708 7.49487C8.30362 7.42227 8.44962 7.42983 8.49317 7.51175C8.53673 7.59367 8.46136 7.71894 8.32482 7.79154Z" fill="#C88A02"/>
<path fill-rule="evenodd" clip-rule="evenodd" d="M10.9868 4.0766H11.2202V4.224H11.3726V4.45734H11.2202V4.924H11.3726V5.15734H10.832V4.924H10.9868V4.45734H10.832V4.224H10.9868V4.0766Z" fill="#C88A02"/>
<rect x="10.944" y="5.34399" width="0.448" height="1.456" fill="#C88A02"/>
<path d="M9.14058 5.58782L9.13863 5.6998C8.14552 5.68247 7.57587 5.82739 7.43127 6.11624C7.28177 6.41487 7.30957 6.77789 7.51905 7.20912L7.4183 7.25806C7.1948 6.79796 7.16428 6.39937 7.33112 6.06611C7.50285 5.72306 8.10547 5.56975 9.14058 5.58782Z" fill="white"/>
<path d="M9.33274 6.58098L9.27532 6.67714C9.05905 6.54801 8.95081 6.32763 8.95081 6.02393C8.95081 5.58745 9.17565 5.3315 9.673 5.15634C9.99042 5.04455 10.424 5.09038 10.9751 5.29016L10.9369 5.39545C10.4079 5.20367 9.99861 5.16041 9.71021 5.26198C9.25402 5.42264 9.06281 5.64031 9.06281 6.02393C9.06281 6.29044 9.15271 6.47349 9.33274 6.58098Z" fill="white"/>
<path d="M7.66015 7.03739L7.44881 7.11162C7.22953 6.48727 7.29215 6.06326 7.66684 5.88035C7.99701 5.71918 8.47819 5.65359 9.11279 5.67931L9.10372 5.90313C8.50288 5.87878 8.05588 5.93971 7.7651 6.08165C7.51886 6.20185 7.47381 6.50684 7.66015 7.03739Z" fill="#C88A02"/>
<path d="M10.1293 5.43869C9.61715 5.43869 9.40684 5.56343 9.28669 5.93171C9.21012 6.16641 9.28438 6.36673 9.52517 6.55371L9.38778 6.73063C9.07604 6.48855 8.96613 6.19207 9.07373 5.86224C9.22686 5.39289 9.52731 5.21469 10.1293 5.21469C10.5238 5.21469 10.8312 5.31835 11.0452 5.52931L11.0786 5.56221V6.64217H10.8546V5.65795C10.6874 5.51277 10.4474 5.43869 10.1293 5.43869Z" fill="#C88A02"/>
<path d="M13.049 5.69982L13.0509 5.8118C14.0441 5.79447 14.6137 5.93939 14.7583 6.22824C14.9078 6.52687 14.88 6.88989 14.6705 7.32112L14.7713 7.37006C14.9948 6.90996 15.0253 6.51137 14.8585 6.17811C14.6867 5.83506 14.0841 5.68175 13.049 5.69982Z" fill="white"/>
<path d="M12.6983 6.60426L12.7557 6.70043C12.972 6.57129 13.0802 6.35092 13.0802 6.04722C13.0802 5.61074 12.8554 5.35478 12.358 5.17962C12.0406 5.06783 11.607 5.11367 11.056 5.31345L11.0942 5.41874C11.6231 5.22696 12.0324 5.18369 12.3208 5.28526C12.777 5.44592 12.9682 5.6636 12.9682 6.04722C12.9682 6.31373 12.8783 6.49677 12.6983 6.60426Z" fill="white"/>
<path d="M14.5992 7.14939L14.8106 7.22362C15.0299 6.59927 14.9673 6.17526 14.5926 5.99235C14.2624 5.83118 13.7812 5.76559 13.1466 5.79131L13.1557 6.01513C13.7565 5.99078 14.2035 6.05171 14.4943 6.19365C14.7405 6.31385 14.7856 6.61884 14.5992 7.14939Z" fill="#C88A02"/>
<path d="M12.1173 5.45599C12.6294 5.45599 12.8397 5.58073 12.9599 5.94902C13.0365 6.18372 12.9622 6.38403 12.7214 6.57102L12.8588 6.74794C13.1705 6.50586 13.2805 6.20937 13.1728 5.87954C13.0197 5.41019 12.7193 5.23199 12.1173 5.23199C11.7227 5.23199 11.4154 5.33565 11.2014 5.54661L11.168 5.57951V6.65948H11.392V5.67525C11.5591 5.53008 11.7992 5.45599 12.1173 5.45599Z" fill="#C88A02"/>
<path opacity="0.3" fill-rule="evenodd" clip-rule="evenodd" d="M7.47202 9.26401H14.752V15.8048C14.752 15.8048 14.2112 18 11.112 18C8.01279 18 7.47202 15.747 7.47202 15.747V9.26401Z" fill="#E1E5E8"/>
<mask id="mask3_30_18013" style="mask-type:luminance" maskUnits="userSpaceOnUse" x="7" y="9" width="8" height="9">
<path fill-rule="evenodd" clip-rule="evenodd" d="M7.47202 9.26401H14.752V15.8048C14.752 15.8048 14.2112 18 11.112 18C8.01279 18 7.47202 15.747 7.47202 15.747V9.26401Z" fill="white"/>
</mask>
<g mask="url(#mask3_30_18013)">
<rect x="7.47202" y="13.296" width="3.696" height="4.368" fill="#FFC034"/>
<rect x="7.92001" y="13.52" width="0.448" height="4.144" fill="#AD1619"/>
<rect x="9.48801" y="13.52" width="0.448" height="4.144" fill="#AD1619"/>
<rect x="8.70401" y="13.52" width="0.448" height="4.144" fill="#AD1619"/>
<rect x="10.272" y="13.52" width="0.448" height="4.144" fill="#AD1619"/>
<rect x="7.47202" y="9.15201" width="3.696" height="4.256" fill="#AD1619"/>
<rect x="11.056" y="13.184" width="3.696" height="4.256" fill="#AD1619"/>
<rect x="11.056" y="9.26401" width="3.92" height="4.144" fill="#F1F9FF"/>
<path fill-rule="evenodd" clip-rule="evenodd" d="M9.04001 9.60001H9.37601V10.5292H9.60001V10.0646H9.93601V10.5292H10.272V11.1099H9.93601V12.1553H10.272V12.736H8.25601V12.1553H8.59201V11.1099H8.25601V10.5292H8.48001V10.0646H8.81601V10.5292H9.04001V9.60001Z" fill="#C88A02"/>
<path d="M12.9789 9.79504L13.2082 9.5495L13.6898 9.99932L13.4604 10.2449L12.9789 9.79504Z" fill="#C88A02"/>
<path fill-rule="evenodd" clip-rule="evenodd" d="M14.36 16.1401V13.688H11.56V16.1196L11.5645 16.1385C11.7062 16.7425 12.1889 17.048 12.96 17.048C13.7304 17.048 14.213 16.7503 14.3554 16.1595L14.36 16.1401ZM12.96 16.712C12.3413 16.712 12.0034 16.5036 11.896 16.0799V14.024H14.024V16.0994C13.9169 16.5093 13.579 16.712 12.96 16.712Z" fill="#FFC034"/>
<path fill-rule="evenodd" clip-rule="evenodd" d="M13.0756 13.8929H12.8423V15.0046L11.9225 14.0042L11.7576 14.1558L12.5894 15.0605H11.8357V15.3965H12.4147H12.6077L11.7576 16.3212L11.9225 16.4728L12.8423 15.4724V16.7718H13.0756V15.5893L13.8879 16.4728L14.0528 16.3212L13.2026 15.3965H14.1516V15.0605H13.221L14.0528 14.1558L13.8879 14.0042L13.0756 14.8877V13.8929Z" fill="#FFC034"/>
<path fill-rule="evenodd" clip-rule="evenodd" d="M13.4827 17.4427C13.4827 17.4427 11.1105 17.6292 11.1105 16.0992C11.1105 16.0992 11.0879 17.4427 8.6109 17.4427V18.6505H13.4827V17.4427Z" fill="#F1F9FF"/>
<path fill-rule="evenodd" clip-rule="evenodd" d="M11.112 14.192C11.5759 14.192 11.952 13.7908 11.952 13.296C11.952 12.8011 11.5759 12.4 11.112 12.4C10.6481 12.4 10.272 12.8011 10.272 13.296C10.272 13.7908 10.6481 14.192 11.112 14.192Z" fill="#005BBF" stroke="#AD1619" stroke-width="1.16667"/>
</g>
</g>
</g>
<defs>
<clipPath id="clip0_30_18013">
<rect width="32" height="24" fill="white"/>
</clipPath>
</defs>
</svg>
