<svg width="32" height="24" viewBox="0 0 32 24" fill="none" xmlns="http://www.w3.org/2000/svg">
<g clip-path="url(#clip0_30_17964)">
<rect width="32" height="24" fill="white"/>
<path fill-rule="evenodd" clip-rule="evenodd" d="M0 0V24H32V0H0Z" fill="#F7FCFF"/>
<mask id="mask0_30_17964" style="mask-type:luminance" maskUnits="userSpaceOnUse" x="0" y="0" width="32" height="24">
<path fill-rule="evenodd" clip-rule="evenodd" d="M0 0V24H32V0H0Z" fill="white"/>
</mask>
<g mask="url(#mask0_30_17964)">
<path fill-rule="evenodd" clip-rule="evenodd" d="M14 0H18V10H32V14H18V24H14V14H0V10H14V0Z" fill="#E31D1C"/>
<path fill-rule="evenodd" clip-rule="evenodd" d="M9.9987 17.222L12.2 17V19C12.2 19 9.9987 18.8622 9.9987 18.902C9.9987 18.9418 10.2 21 10.2 21H8.20001L8.36023 19H6.20001V17L8.36023 17.222L8.20001 15H10.2L9.9987 17.222Z" fill="#E31D1C"/>
<path fill-rule="evenodd" clip-rule="evenodd" d="M9.9987 5.22195L12.2 5V7C12.2 7 9.9987 6.86216 9.9987 6.90196C9.9987 6.94175 10.2 9 10.2 9H8.20001L8.36023 7H6.20001V5L8.36023 5.22195L8.20001 3H10.2L9.9987 5.22195Z" fill="#E31D1C"/>
<path fill-rule="evenodd" clip-rule="evenodd" d="M23.9987 5.22195L26.2 5V7C26.2 7 23.9987 6.86216 23.9987 6.90196C23.9987 6.94175 24.2 9 24.2 9H22.2L22.3602 7H20.2V5L22.3602 5.22195L22.2 3H24.2L23.9987 5.22195Z" fill="#E31D1C"/>
<path fill-rule="evenodd" clip-rule="evenodd" d="M23.9987 17.222L26.2 17V19C26.2 19 23.9987 18.8622 23.9987 18.902C23.9987 18.9418 24.2 21 24.2 21H22.2L22.3602 19H20.2V17L22.3602 17.222L22.2 15H24.2L23.9987 17.222Z" fill="#E31D1C"/>
</g>
</g>
<defs>
<clipPath id="clip0_30_17964">
<rect width="32" height="24" fill="white"/>
</clipPath>
</defs>
</svg>
