<svg width="32" height="24" viewBox="0 0 32 24" fill="none" xmlns="http://www.w3.org/2000/svg">
<g clip-path="url(#clip0_30_18047)">
<rect width="32" height="24" fill="white"/>
<path d="M0 0V7H32V0L0 0Z" fill="#002488"/>
<path d="M0.000671387 7V24H32.0007V7L0.000671387 7Z" fill="#DA121A"/>
<path d="M5.02817 0.789522C4.64598 1.41978 4.60039 1.92393 4.86123 2.79447C4.98682 3.20072 5.12478 3.80738 5.18275 4.13625C5.26003 4.60054 5.25194 4.64468 5.26279 4.74563C5.3594 4.74563 5.57895 4.746 5.68047 4.74539C5.69507 4.58465 5.70687 4.39911 5.74114 4.14398C5.7811 3.84651 5.89962 3.22436 6.02709 2.79223C6.28183 1.9287 6.26477 1.3989 5.86867 0.799195C5.72376 0.576724 5.53054 0.392944 5.44359 0.392944C5.35664 0.392944 5.15995 0.5628 5.02817 0.789522Z" fill="#FCDD09"/>
<path d="M5.86094 4.33319C5.82811 4.49949 5.82011 4.5582 5.80365 4.74563C5.92075 4.7461 5.96678 4.7469 6.08093 4.74622C6.10591 4.62013 6.12391 4.55356 6.17898 4.37459C6.39731 3.68241 7.04034 3.40462 7.01136 4.05269C7.0017 4.23163 6.92627 4.33154 6.8423 4.42747C6.94609 4.40156 7.16651 4.29857 7.34524 4.197C8.34031 3.5973 7.94846 2.12783 6.90509 2.57277C6.36408 2.80492 6.03869 3.44756 5.86094 4.33319Z" fill="#FCDD09"/>
<path d="M4.6944 4.98966C5.13102 4.9919 5.88564 4.99591 6.24808 4.99368C6.2485 4.88617 6.24986 4.94103 6.25075 4.85416C5.98392 4.85159 4.96214 4.85583 4.69647 4.85583C4.69707 4.91203 4.69586 4.93925 4.6944 4.98966L4.6944 4.98966Z" fill="#FCDD09"/>
<path d="M4.41949 5.78025C4.41949 5.78025 4.63699 5.80473 4.83983 5.78992C5.04267 5.77511 5.15521 5.74976 5.27509 5.69146C5.24254 5.93346 5.24067 6.16715 5.24067 6.16715C5.27017 6.47858 5.30355 6.55829 5.37101 6.70986C5.46252 6.8363 5.51575 6.83699 5.58303 6.70348C5.65574 6.55399 5.70361 6.40024 5.7188 6.1657C5.71352 5.98991 5.7037 5.90936 5.66212 5.69448C5.80246 5.75528 5.89111 5.77104 6.10049 5.78992C6.31475 5.80923 6.51168 5.79976 6.51168 5.79976C6.51168 5.79976 6.22227 5.65434 6.09488 5.47599C5.96914 5.29994 5.99595 5.32987 5.90452 5.10307C5.79342 5.0978 5.23012 5.10299 5.0514 5.10299C4.95351 5.30975 4.94367 5.35293 4.82276 5.48341C4.66536 5.65326 4.41949 5.78025 4.41949 5.78025Z" fill="#FCDD09"/>
<path d="M4.02743 2.57247C4.56844 2.80461 4.89383 3.44726 5.07158 4.33289C5.1044 4.49919 5.11241 4.55789 5.12887 4.74532C5.01177 4.7458 4.96574 4.7466 4.85159 4.74591C4.8266 4.61982 4.80861 4.55326 4.75354 4.37429C4.53521 3.68211 3.89218 3.40431 3.92116 4.05238C3.93082 4.23132 4.00625 4.33124 4.09021 4.42717C3.98643 4.40126 3.766 4.29826 3.58728 4.1967C2.59221 3.597 2.98405 2.12753 4.02743 2.57247V2.57247Z" fill="#FCDD09"/>
<path d="M15.0282 0.789522C14.646 1.41978 14.6004 1.92393 14.8612 2.79447C14.9868 3.20072 15.1248 3.80738 15.1827 4.13625C15.26 4.60054 15.2519 4.64468 15.2628 4.74563C15.3594 4.74563 15.5789 4.746 15.6805 4.74539C15.6951 4.58465 15.7069 4.39911 15.7411 4.14398C15.7811 3.84651 15.8996 3.22436 16.0271 2.79223C16.2818 1.9287 16.2648 1.3989 15.8687 0.799195C15.7238 0.576724 15.5305 0.392944 15.4436 0.392944C15.3566 0.392944 15.1599 0.5628 15.0282 0.789522Z" fill="#FCDD09"/>
<path d="M16.9051 2.57277C16.3641 2.80492 16.0387 3.44756 15.8609 4.33319C15.8281 4.49949 15.8201 4.5582 15.8036 4.74563C15.9208 4.7461 15.9668 4.7469 16.0809 4.74622C16.1059 4.62013 16.1239 4.55356 16.179 4.37459C16.3973 3.68241 17.0403 3.40462 17.0114 4.05269C17.0017 4.23163 16.9263 4.33154 16.8423 4.42747C16.9461 4.40156 17.1665 4.29857 17.3452 4.197C18.3403 3.5973 17.9485 2.12783 16.9051 2.57277V2.57277Z" fill="#FCDD09"/>
<path d="M14.6944 4.98966C15.131 4.9919 15.8856 4.99591 16.2481 4.99368C16.2485 4.88617 16.2499 4.94103 16.2507 4.85416C15.9839 4.85159 14.9621 4.85583 14.6965 4.85583C14.6971 4.91203 14.6959 4.93925 14.6944 4.98966L14.6944 4.98966Z" fill="#FCDD09"/>
<path d="M14.8228 5.48341C14.6654 5.65326 14.4195 5.78025 14.4195 5.78025C14.4195 5.78025 14.637 5.80473 14.8398 5.78992C15.0427 5.77511 15.1552 5.74976 15.2751 5.69146C15.2425 5.93346 15.2407 6.16715 15.2407 6.16715C15.2702 6.47858 15.3036 6.55829 15.371 6.70986C15.4625 6.8363 15.5157 6.83699 15.583 6.70348C15.6557 6.55399 15.7036 6.40024 15.7188 6.1657C15.7135 5.98991 15.7037 5.90936 15.6621 5.69448C15.8025 5.75528 15.8911 5.77104 16.1005 5.78992C16.3147 5.80923 16.5117 5.79976 16.5117 5.79976C16.5117 5.79976 16.2223 5.65434 16.0949 5.47599C15.9691 5.29994 15.996 5.32987 15.9045 5.10307C15.7934 5.0978 15.2301 5.10299 15.0514 5.10299C14.9535 5.30975 14.9437 5.35293 14.8228 5.48341V5.48341Z" fill="#FCDD09"/>
<path d="M14.0274 2.57247C14.5684 2.80461 14.8938 3.44726 15.0716 4.33289C15.1044 4.49919 15.1124 4.55789 15.1289 4.74532C15.0118 4.7458 14.9657 4.7466 14.8516 4.74591C14.8266 4.61982 14.8086 4.55326 14.7535 4.37429C14.5352 3.68211 13.8922 3.40431 13.9212 4.05238C13.9308 4.23132 14.0063 4.33124 14.0902 4.42717C13.9864 4.40126 13.766 4.29826 13.5873 4.1967C12.5922 3.597 12.9841 2.12753 14.0274 2.57247V2.57247Z" fill="#FCDD09"/>
<path d="M25.0282 0.789522C24.646 1.41978 24.6004 1.92393 24.8612 2.79447C24.9868 3.20072 25.1248 3.80738 25.1827 4.13625C25.26 4.60054 25.2519 4.64468 25.2628 4.74563C25.3594 4.74563 25.5789 4.746 25.6805 4.74539C25.6951 4.58465 25.7069 4.39911 25.7411 4.14398C25.7811 3.84651 25.8996 3.22436 26.0271 2.79223C26.2818 1.9287 26.2648 1.3989 25.8687 0.799195C25.7238 0.576724 25.5305 0.392944 25.4436 0.392944C25.3566 0.392944 25.1599 0.5628 25.0282 0.789522Z" fill="#FCDD09"/>
<path d="M26.9051 2.57277C26.3641 2.80492 26.0387 3.44756 25.8609 4.33319C25.8281 4.49949 25.8201 4.5582 25.8036 4.74563C25.9208 4.7461 25.9668 4.7469 26.0809 4.74622C26.1059 4.62013 26.1239 4.55356 26.179 4.37459C26.3973 3.68241 27.0403 3.40462 27.0114 4.05269C27.0017 4.23163 26.9263 4.33154 26.8423 4.42747C26.9461 4.40156 27.1665 4.29857 27.3452 4.197C28.3403 3.5973 27.9485 2.12783 26.9051 2.57277V2.57277Z" fill="#FCDD09"/>
<path d="M24.6944 4.98966C25.131 4.9919 25.8856 4.99591 26.2481 4.99368C26.2485 4.88617 26.2499 4.94103 26.2507 4.85416C25.9839 4.85159 24.9621 4.85583 24.6965 4.85583C24.6971 4.91203 24.6959 4.93925 24.6944 4.98966L24.6944 4.98966Z" fill="#FCDD09"/>
<path d="M24.8228 5.48341C24.6654 5.65326 24.4195 5.78025 24.4195 5.78025C24.4195 5.78025 24.637 5.80473 24.8398 5.78992C25.0427 5.77511 25.1552 5.74976 25.2751 5.69146C25.2425 5.93346 25.2407 6.16715 25.2407 6.16715C25.2702 6.47858 25.3036 6.55829 25.371 6.70986C25.4625 6.8363 25.5157 6.83699 25.583 6.70348C25.6557 6.55399 25.7036 6.40024 25.7188 6.1657C25.7135 5.98991 25.7037 5.90936 25.6621 5.69448C25.8025 5.75528 25.8911 5.77104 26.1005 5.78992C26.3147 5.80923 26.5117 5.79976 26.5117 5.79976C26.5117 5.79976 26.2223 5.65434 26.0949 5.47599C25.9691 5.29994 25.996 5.32987 25.9045 5.10307C25.7934 5.0978 25.2301 5.10299 25.0514 5.10299C24.9535 5.30975 24.9437 5.35293 24.8228 5.48341V5.48341Z" fill="#FCDD09"/>
<path d="M24.0274 2.57247C24.5684 2.80461 24.8938 3.44726 25.0716 4.33289C25.1044 4.49919 25.1124 4.55789 25.1289 4.74532C25.0118 4.7458 24.9657 4.7466 24.8516 4.74591C24.8266 4.61982 24.8086 4.55326 24.7535 4.37429C24.5352 3.68211 23.8922 3.40431 23.9212 4.05238C23.9308 4.23132 24.0063 4.33124 24.0902 4.42717C23.9864 4.40126 23.766 4.29826 23.5873 4.1967C22.5922 3.597 22.9841 2.12753 24.0274 2.57247V2.57247Z" fill="#FCDD09"/>
<path d="M11.2988 13.1284C11.5085 13.2263 11.7764 13.3035 11.9114 13.308C12.0711 13.3134 12.0287 13.2741 11.7308 13.1581C11.4975 13.067 11.2186 12.9138 11.0948 12.8187C10.8729 12.6372 10.8729 12.6372 10.8962 12.7969C10.9094 12.8882 11.0767 13.0301 11.2988 13.1284V13.1284Z" fill="#008000"/>
<path d="M9.994 11.2412C10.1293 11.7829 10.6896 12.7792 10.8828 12.8179C11.0567 12.8469 11.0567 12.8372 10.9118 12.6728C10.6703 12.3923 10.1486 11.367 10.1486 11.1735C10.1486 11.0671 10.1003 10.9897 10.0423 10.9897C9.97468 10.9897 9.95536 11.0865 9.994 11.2412V11.2412Z" fill="#008000"/>
<path d="M4.18712 10.5621C4.18376 10.5811 4.36511 10.7212 4.59234 10.8792C4.81958 11.0371 5.08432 11.2607 5.1722 11.3744C5.32277 11.5778 6.17573 12.0819 6.25575 12.0175C6.33409 11.9626 5.2354 11.0713 4.77086 10.8124C4.21789 10.4987 4.19886 10.4954 4.18712 10.5621V10.5621Z" fill="#008000"/>
<path d="M4.49835 11.3062C4.49835 11.3256 4.70123 11.4319 4.95241 11.548C5.2036 11.6641 5.50309 11.8382 5.60935 11.9349C5.79291 12.109 6.72036 12.4572 6.78798 12.3799C6.85561 12.3122 5.61902 11.6254 5.11665 11.4513C4.51767 11.2385 4.49835 11.2385 4.49835 11.3062Z" fill="#008000"/>
<path d="M9.28186 11.3836C9.28186 11.49 9.65864 12.2251 9.88084 12.5346C10.0064 12.7087 10.1513 12.8055 10.3156 12.8055C10.5571 12.8055 10.5571 12.8055 10.19 12.3895C9.97744 12.1671 9.69728 11.8285 9.55237 11.6448C9.40745 11.461 9.28186 11.3449 9.28186 11.3836H9.28186Z" fill="#008000"/>
<path d="M7.72648 14.3613C7.08887 14.6128 6.95361 14.6998 6.95361 14.8353C6.95361 14.8933 7.02124 14.8836 7.12751 14.7966C7.21446 14.7095 7.53327 14.5934 7.82309 14.5257C8.11292 14.458 8.46071 14.342 8.59597 14.2742L8.83749 14.1485H8.54766C8.39309 14.1582 8.01631 14.2549 7.72648 14.3613V14.3613Z" fill="#008000"/>
<path d="M6.46231 12.8455C6.29807 12.9712 6.30773 12.9809 6.66519 12.9228C6.87773 12.8938 7.18687 12.8358 7.34145 12.7971C7.59263 12.7294 7.57331 12.7197 7.13857 12.71C6.84874 12.7004 6.57824 12.7584 6.46231 12.8455Z" fill="#008000"/>
<path d="M4.06222 11.8285C5.65627 12.1187 8.85403 13.1923 8.66081 13.3761C8.6125 13.4245 7.71404 13.202 7.58845 13.115C7.54015 13.0666 7.06676 13.0859 6.54507 13.1536C5.56932 13.26 5.40509 13.3471 5.42441 13.7437C5.43407 13.9371 5.43407 13.9371 5.48238 13.7437C5.56932 13.3858 5.71424 13.3084 6.26491 13.3084C6.86388 13.3084 8.50623 13.5502 9.2308 13.7437C10.1969 14.0145 10.2259 14.0145 9.90706 13.8404C9.49165 13.6083 8.86369 13.1827 8.74776 13.0569C8.53522 12.8151 4.68052 11.7511 4.12019 11.7705C3.85935 11.7898 3.84968 11.7898 4.06222 11.8285Z" fill="#008000"/>
<path d="M4.79507 12.3439C4.67913 12.4309 4.55354 12.6341 4.52456 12.7985C4.4666 13.079 4.4666 13.079 4.62117 12.8952C5.02693 12.3826 5.05591 12.3632 5.55828 12.3535C5.96403 12.3439 6.022 12.3245 5.82878 12.2665C5.42302 12.1408 5.01727 12.1698 4.79507 12.3439Z" fill="#008000"/>
<path d="M9.71938 12.9408C9.79666 13.0762 10.5502 13.4534 10.6082 13.3954C10.6372 13.3664 10.5502 13.289 10.4343 13.2213C10.3087 13.1536 10.1445 13.0472 10.0768 12.9698C9.92225 12.8247 9.63243 12.7957 9.71938 12.9408V12.9408Z" fill="#008000"/>
<path d="M9.77754 13.8598C9.85483 13.9952 10.6084 14.3724 10.6663 14.3144C10.6953 14.2854 10.6084 14.208 10.4924 14.1403C10.3669 14.0726 10.2026 13.9662 10.135 13.8888C9.98042 13.7437 9.69059 13.7147 9.77754 13.8598V13.8598Z" fill="#008000"/>
<path d="M8.69744 12.7081C8.71134 12.6947 8.92871 12.7669 9.18659 12.8671C9.44447 12.9674 9.7776 13.0622 9.92092 13.0715C10.1735 13.0828 11.068 13.5088 11.0593 13.6113C11.0577 13.707 9.70525 13.2935 9.23118 13.0526C8.66221 12.769 8.64879 12.7551 8.69744 12.7081Z" fill="#008000"/>
<path d="M10.2976 13.415C10.1174 13.4848 9.93614 13.6109 9.87982 13.7011C9.81327 13.8078 9.86959 13.8088 10.102 13.6919C10.2843 13.6006 10.5475 13.5258 10.6919 13.5134C10.9622 13.5001 10.9622 13.5001 10.7902 13.3924C10.6919 13.3309 10.483 13.3371 10.2976 13.415V13.415Z" fill="#008000"/>
<path d="M5.77636 10.1551C6.07585 10.7258 7.29312 12.0413 7.96938 12.5443C8.15294 12.6797 8.48141 12.8151 8.68429 12.8441L9.06106 12.9022L8.78089 12.5926C8.32683 12.0993 7.63125 11.1514 7.40905 10.7355C7.16753 10.2809 7.13854 10.3969 7.34142 10.9773C7.41871 11.2094 7.72786 11.6737 8.02735 12.0026C8.32683 12.3411 8.52005 12.6217 8.47175 12.6217C8.34615 12.6217 7.53464 11.6641 6.95499 10.8322C6.32703 9.92299 6.29805 9.89397 6.47194 10.3969C6.55889 10.6388 6.75211 10.9966 6.91634 11.1901C7.07092 11.3932 7.16753 11.5577 7.11922 11.5577C7.02261 11.5577 6.59753 11.074 6.06618 10.3776C5.92127 10.1745 5.71839 9.91332 5.63144 9.79724C5.53484 9.6715 5.60246 9.83593 5.77636 10.1551V10.1551Z" fill="#008000"/>
<path d="M6.34221 13.8984C5.92679 13.9951 5.70459 14.1402 5.70459 14.3143C5.70459 14.382 5.74323 14.3724 5.79154 14.295C5.86883 14.1692 6.66102 13.9371 6.73831 14.0145C6.75763 14.0338 6.72864 14.1789 6.67068 14.324C6.61271 14.4691 6.59339 14.6142 6.62237 14.6432C6.65136 14.6819 6.69966 14.6045 6.72864 14.4981C6.84458 14.0822 7.20203 13.9564 8.06185 14.0338C8.49659 14.0725 8.97963 14.1209 9.13421 14.1306C9.29844 14.1402 9.52064 14.1983 9.63657 14.266C9.88776 14.4014 10.8635 14.4111 10.7766 14.2756C10.7476 14.2273 10.564 14.1596 10.3611 14.1306C10.1679 14.1015 9.76216 14.0048 9.46268 13.9274C8.8637 13.7727 6.95085 13.7533 6.34221 13.8984V13.8984Z" fill="#008000"/>
<path d="M9.87004 15.015C9.14192 14.8849 8.79564 15.0011 8.50112 15.4556L8.24982 15.8459L8.57301 15.5391C9.01208 15.1123 9.33116 15.0711 10.1204 15.3007C10.4895 15.41 10.8027 15.4814 10.8135 15.4654C10.8729 15.3772 10.2502 15.0734 9.87004 15.015Z" fill="#008000"/>
<path d="M10.0685 15.2181C9.39228 15.5179 9.17008 15.8081 9.17974 16.3498L9.1894 16.814L9.28601 16.3788C9.4116 15.7791 9.65313 15.5663 10.4357 15.3148C10.8028 15.1987 11.1023 15.0826 11.1023 15.0633C11.1023 14.9569 10.4163 15.0536 10.0685 15.2181Z" fill="#008000"/>
<path d="M9.94018 16.0485C9.82425 16.2032 9.7373 16.4063 9.7373 16.5127C9.7373 16.6385 9.78561 16.6095 9.92086 16.387C10.0271 16.2129 10.2107 16.0098 10.3266 15.9227C10.5488 15.7679 10.5488 15.7679 10.3459 15.7679C10.23 15.7679 10.0561 15.884 9.94018 16.0485V16.0485Z" fill="#008000"/>
<path d="M20.3852 17.6248C20.6989 17.7609 22.3265 18.1719 23.4781 18.5095C24.6297 18.8472 25.9762 19.2359 26.2742 19.2778C26.7002 18.3482 25.925 20.087 26.3674 19.0331C25.7923 18.8865 23.5252 18.3525 22.6154 18.0907C21.8312 17.8709 20.7185 17.5279 20.4336 17.4651C20.1486 17.4023 20.1447 17.5201 20.3852 17.6248Z" fill="#008000"/>
<path d="M20.5842 17.3834C20.9025 17.5085 22.5434 17.8623 23.7061 18.1596C24.8687 18.4568 26.2279 18.7982 26.5272 18.8296C26.9206 17.8857 26.2064 19.6505 26.6118 18.5819C26.0319 18.4555 23.7477 18.001 22.8293 17.7712C22.0378 17.5788 20.9139 17.275 20.627 17.2221C20.34 17.1693 20.3402 17.2872 20.5842 17.3834V17.3834Z" fill="#008000"/>
<path d="M20.1336 17.8001C20.4398 17.9525 22.0436 18.4482 23.176 18.8457C24.3084 19.2433 25.6327 19.702 25.9281 19.7594C26.4021 18.8534 25.537 20.5492 26.034 19.52C25.4673 19.3435 23.2313 18.6914 22.3364 18.3823C21.5647 18.1216 20.4715 17.7208 20.1902 17.6432C19.9089 17.5655 19.8989 17.683 20.1336 17.8001Z" fill="#008000"/>
<path d="M19.9382 17.9982C20.236 18.1664 21.8118 18.7455 22.9218 19.2018C24.0319 19.6581 25.3304 20.1856 25.6224 20.2585C26.1431 19.3785 25.1906 21.0267 25.7406 20.0249C25.1839 19.8189 22.9851 19.0505 22.1076 18.695C21.3505 18.3943 20.2798 17.9367 20.003 17.8444C19.7261 17.7521 19.71 17.8689 19.9382 17.9982V17.9982Z" fill="#008000"/>
<path d="M19.7542 18.2477C20.046 18.4262 21.6006 19.06 22.6941 19.5548C23.7875 20.0497 25.0668 20.6222 25.3562 20.7052C25.9072 19.844 24.8978 21.4579 25.4824 20.4759C24.9333 20.2506 22.7625 19.4059 21.898 19.0199C21.1519 18.6929 20.0978 18.1982 19.8243 18.0963C19.5508 17.9944 19.5306 18.1105 19.7542 18.2477V18.2477Z" fill="#008000"/>
<path d="M16.4952 20.755C16.9438 21.0679 17.1905 21.5027 17.166 21.9514L17.1495 22.3221L17.2967 21.9574C17.4578 21.5758 17.4356 20.998 17.2454 20.5701L17.1344 20.3205L17.4869 20.4742C17.9906 20.6869 18.3222 21.0608 18.3915 21.505L18.4522 21.8709L18.5205 21.4835C18.5988 21.0766 18.4572 20.5163 18.1822 20.1373L18.0218 19.9162L18.3985 19.9931C18.9354 20.0963 19.3374 20.3931 19.4974 20.8131L19.6328 21.1585L19.6191 20.7653C19.6113 20.351 19.3563 19.8323 19.0086 19.5189L18.8058 19.336L19.1903 19.3329C19.7368 19.3221 20.1917 19.5286 20.4355 19.9063L20.6396 20.2158L20.5446 19.8341C20.4509 19.4307 20.0938 18.9764 19.6887 18.7421L19.4523 18.6054L19.8277 18.5224C20.3601 18.3979 20.8479 18.5054 21.1647 18.824L21.4287 19.0843L21.2564 18.7307C21.081 18.3555 20.6374 17.9854 20.1924 17.8406L19.9328 17.7563L20.2828 17.5969C20.7776 17.3644 21.2771 17.3679 21.6532 17.6135L21.9655 17.8132L21.7236 17.5031C21.4741 17.1726 20.9633 16.903 20.498 16.8541L20.2267 16.8256L20.5359 16.5968C20.9716 16.2664 21.4609 16.1657 21.8798 16.3278L22.2267 16.4581L21.9258 16.2052C21.6131 15.9339 21.0575 15.7764 20.5921 15.8255L20.3208 15.854L20.5757 15.5658C20.9333 15.1519 21.3911 14.9516 21.8344 15.023L22.2008 15.0782L21.8538 14.8935C21.4916 14.6933 20.9155 14.6549 20.4705 14.7996L20.2109 14.884L20.4004 14.5491C20.6643 14.0698 21.0704 13.7787 21.5189 13.7561L21.8887 13.7339L21.511 13.6255C21.1151 13.505 20.5436 13.5875 20.1384 13.8216L19.9021 13.9582L20.0179 13.5911C20.1765 13.0674 20.5133 12.6981 20.9473 12.5827L21.3045 12.4839L20.9125 12.4565C20.5003 12.421 19.9584 12.6206 19.6107 12.934L19.4079 13.1169L19.445 12.7338C19.4913 12.1883 19.744 11.7571 20.1446 11.5537L20.4735 11.3829L20.0843 11.4376C19.6737 11.4887 19.1851 11.7967 18.9101 12.1757L18.7497 12.3968L18.7065 12.0143C18.6385 11.4713 18.7961 10.9967 19.1457 10.7145L19.4319 10.4789L19.0626 10.6134C18.6716 10.7489 18.2577 11.1519 18.0674 11.5798L17.9564 11.8296L17.8346 11.4644C17.6554 10.9474 17.7111 10.4503 17.9944 10.1016L18.2254 9.81156L17.8922 10.0199C17.5379 10.2338 17.2166 10.7142 17.1193 11.1724L17.0626 11.4397L16.8677 11.108C16.585 10.6394 16.5362 10.1418 16.7409 9.74159L16.9066 9.40984L16.624 9.68298C16.3218 9.96606 16.1073 10.5029 16.1073 10.9713V11.2445L15.8478 10.9605C15.4741 10.5613 15.323 10.0845 15.4401 9.65047L15.5332 9.29138L15.3135 9.61759C15.0767 9.95722 14.9784 10.5269 15.0757 10.9852L15.1323 11.2525L14.8195 11.0287C14.3709 10.7159 14.1243 10.281 14.1487 9.83211L14.1652 9.4615L14.018 9.82632C13.8569 10.2079 13.8791 10.7855 14.0693 11.2135L14.1803 11.4632L13.8278 11.3095C13.3241 11.0969 12.9925 10.7229 12.9232 10.2788L12.8624 9.91281L12.7942 10.3002C12.7159 10.7069 12.8575 11.2675 13.1326 11.6464L13.2929 11.8674L12.9162 11.7905C12.3794 11.6873 11.9774 11.3906 11.8173 10.9705L11.6819 10.6252L11.6956 11.0184C11.7035 11.4326 11.9584 11.9513 12.3061 12.2647L12.5089 12.4476L12.1244 12.4507C11.5779 12.4615 11.123 12.2549 10.8792 11.8774L10.6751 11.5678L10.7701 11.9495C10.8638 12.353 11.2209 12.8074 11.6261 13.0416L11.8624 13.1782L11.487 13.2613C10.9547 13.3856 10.4668 13.2783 10.15 12.9598L9.88603 12.6994L10.0583 13.053C10.2337 13.4282 10.6774 13.7982 11.1223 13.943L11.3819 14.0274L11.0319 14.1868C10.537 14.4194 10.0375 14.4158 9.66147 14.1702L9.34919 13.9705L9.59105 14.2804C9.84058 14.6109 10.3514 14.8805 10.8167 14.9295L11.0881 14.9581L10.7788 15.1868C10.3431 15.5173 9.85374 15.6178 9.4349 15.4558L9.08795 15.3256L9.38891 15.5784C9.70162 15.8498 10.2572 16.0072 10.7226 15.9582L10.994 15.9297L10.739 16.2178C10.3814 16.6318 9.92362 16.8319 9.48029 16.7607L9.1139 16.7054L9.46086 16.8902C9.8231 17.0905 10.3992 17.1288 10.8442 16.984L11.1038 16.8996L10.9143 17.2346C10.6504 17.7139 10.2443 18.0051 9.79581 18.0276L9.42595 18.0497L9.80367 18.1582C10.1995 18.2787 10.771 18.1962 11.1762 17.9621L11.4126 17.8254L11.2968 18.1924C11.1382 18.7163 10.8014 19.0856 10.3674 19.201L10.0103 19.2998L10.4022 19.3272C10.8145 19.3626 11.3564 19.163 11.7041 18.8495L11.9069 18.6667L11.8698 19.05C11.8235 19.5952 11.5707 20.0266 11.1701 20.2298L10.8413 20.4008L11.2304 20.3461C11.641 20.295 12.1296 19.9868 12.4046 19.6079L12.565 19.3869L12.6083 19.7694C12.6763 20.3124 12.5186 20.7869 12.169 21.0691L11.8828 21.3048L12.2521 21.1703C12.6431 21.0349 13.057 20.6317 13.2474 20.2038L13.3583 19.9542L13.4801 20.3192C13.6593 20.8364 13.6036 21.3332 13.3203 21.6821L13.0893 21.9722L13.4225 21.7637C13.7768 21.5498 14.0981 21.0694 14.1954 20.6112L14.2521 20.344L14.447 20.6758C14.7297 21.1442 14.7784 21.642 14.5737 22.0421L14.408 22.3739L14.6907 22.1006C14.9929 21.8177 15.2073 21.2809 15.2073 20.8124V20.5391L15.4669 20.8231C15.8406 21.2225 15.9917 21.6992 15.8746 22.1332L15.7814 22.4923L16.0012 22.1661C16.238 21.8263 16.3362 21.2568 16.239 20.7985L16.1823 20.5313L16.4952 20.755Z" fill="#FCDD09"/>
</g>
<defs>
<clipPath id="clip0_30_18047">
<rect width="32" height="24" fill="white"/>
</clipPath>
</defs>
</svg>
