<svg width="32" height="24" viewBox="0 0 32 24" fill="none" xmlns="http://www.w3.org/2000/svg">
<g clip-path="url(#clip0_30_17983)">
<rect width="32" height="24" fill="white"/>
<path fill-rule="evenodd" clip-rule="evenodd" d="M0 0V24H32V0H0Z" fill="#F7FCFF"/>
<mask id="mask0_30_17983" style="mask-type:luminance" maskUnits="userSpaceOnUse" x="0" y="0" width="32" height="24">
<path fill-rule="evenodd" clip-rule="evenodd" d="M0 0V24H32V0H0Z" fill="white"/>
</mask>
<g mask="url(#mask0_30_17983)">
<path fill-rule="evenodd" clip-rule="evenodd" d="M0 0V8H32V0H0Z" fill="#009D00"/>
<path fill-rule="evenodd" clip-rule="evenodd" d="M0 8V16H32V8H0Z" fill="white"/>
<path fill-rule="evenodd" clip-rule="evenodd" d="M0 16V24H32V16H0Z" fill="#F80000"/>
</g>
<path fill-rule="evenodd" clip-rule="evenodd" d="M0 0V24L8 12.152L0 0Z" fill="#0075D5"/>
<mask id="mask1_30_17983" style="mask-type:luminance" maskUnits="userSpaceOnUse" x="0" y="0" width="8" height="24">
<path fill-rule="evenodd" clip-rule="evenodd" d="M0 0V24L8 12.152L0 0Z" fill="white"/>
</mask>
<g mask="url(#mask1_30_17983)">
</g>
<path d="M14.5702 8.8829L14.5574 8.8858L14.5477 8.87688L14.3411 8.68595L14.3152 8.96613L14.314 8.97922L14.3026 8.98565L14.0571 9.12321L14.3156 9.23436L14.3277 9.23955L14.3302 9.25244L14.3852 9.5284L14.5708 9.3169L14.5795 9.30703L14.5925 9.30857L14.872 9.34155L14.7282 9.09969L14.7215 9.08839L14.727 9.07646L14.8447 8.82089L14.5702 8.8829Z" fill="#FFD500" stroke="black" stroke-width="0.05"/>
<path d="M15.5702 8.8829L15.5574 8.8858L15.5477 8.87688L15.3411 8.68595L15.3152 8.96613L15.314 8.97922L15.3026 8.98565L15.0571 9.12321L15.3156 9.23436L15.3277 9.23955L15.3302 9.25244L15.3852 9.5284L15.5708 9.3169L15.5795 9.30703L15.5925 9.30857L15.872 9.34155L15.7282 9.09969L15.7215 9.08839L15.727 9.07646L15.8447 8.82089L15.5702 8.8829Z" fill="#FFD500" stroke="black" stroke-width="0.05"/>
<path d="M16.5702 8.8829L16.5574 8.8858L16.5477 8.87688L16.3411 8.68595L16.3152 8.96613L16.314 8.97922L16.3026 8.98565L16.0571 9.12321L16.3156 9.23436L16.3277 9.23955L16.3302 9.25244L16.3852 9.5284L16.5708 9.3169L16.5795 9.30703L16.5925 9.30857L16.872 9.34155L16.7282 9.09969L16.7215 9.08839L16.727 9.07646L16.8447 8.82089L16.5702 8.8829Z" fill="#FFD500" stroke="black" stroke-width="0.05"/>
<path d="M17.5702 8.8829L17.5574 8.8858L17.5477 8.87688L17.3411 8.68595L17.3152 8.96613L17.314 8.97922L17.3026 8.98565L17.0571 9.12321L17.3156 9.23436L17.3277 9.23955L17.3302 9.25244L17.3852 9.5284L17.5708 9.3169L17.5795 9.30703L17.5925 9.30857L17.872 9.34155L17.7282 9.09969L17.7215 9.08839L17.727 9.07646L17.8447 8.82089L17.5702 8.8829Z" fill="#FFD500" stroke="black" stroke-width="0.05"/>
<path d="M18.5702 8.8829L18.5574 8.8858L18.5477 8.87688L18.3411 8.68595L18.3152 8.96613L18.314 8.97922L18.3026 8.98565L18.0571 9.12321L18.3156 9.23436L18.3277 9.23955L18.3302 9.25244L18.3852 9.5284L18.5708 9.3169L18.5795 9.30703L18.5925 9.30857L18.872 9.34155L18.7282 9.09969L18.7215 9.08839L18.727 9.07646L18.8447 8.82089L18.5702 8.8829Z" fill="#FFD500" stroke="black" stroke-width="0.05"/>
<path d="M19.5702 8.8829L19.5574 8.8858L19.5477 8.87688L19.3411 8.68595L19.3152 8.96613L19.314 8.97922L19.3026 8.98565L19.0571 9.12321L19.3156 9.23436L19.3277 9.23955L19.3302 9.25244L19.3852 9.5284L19.5708 9.3169L19.5795 9.30703L19.5925 9.30857L19.872 9.34155L19.7282 9.09969L19.7215 9.08839L19.727 9.07646L19.8447 8.82089L19.5702 8.8829Z" fill="#FFD500" stroke="black" stroke-width="0.05"/>
<path d="M15.05 10.05H18.95V13C18.95 14.077 18.077 14.95 17 14.95C15.923 14.95 15.05 14.077 15.05 13V10.05Z" stroke="#373737" stroke-width="0.1"/>
<path fill-rule="evenodd" clip-rule="evenodd" d="M16.7264 11.9598C16.7264 11.9598 16.5247 14.3251 16.3233 14.4684C16.1219 14.6118 17.2882 14.6834 17.3997 14.5759C17.5111 14.4684 16.8911 12.541 17.1044 11.9598C17.3177 11.3786 17.6612 11.3315 17.6612 11.3315C17.6612 11.3315 17.2281 11.24 17.1044 11.4144C16.9806 11.5888 16.6115 11.3315 16.6115 11.3315L16.7264 11.9598Z" fill="#6F3E1D"/>
<path fill-rule="evenodd" clip-rule="evenodd" d="M16.6823 11.8261H16.5271C16.5271 11.8261 16.422 12.2369 16.181 12.0315C15.94 11.8261 15.6 11.8985 15.6 11.8985C15.6 11.8985 15.6305 11.6528 16.0005 11.555C16.3705 11.4573 16.5271 10.6639 16.5271 10.6639C16.5271 10.6639 17.0507 10.469 17.3692 10.8684C17.6878 11.2678 18.1366 11.0974 18.1366 11.0974C18.1366 11.0974 18.4646 11.2839 18.3006 11.555C18.1366 11.8261 17.8568 12.0245 17.613 11.8261C17.3692 11.6278 16.6823 11.8261 16.6823 11.8261Z" fill="#009D29"/>
</g>
<defs>
<clipPath id="clip0_30_17983">
<rect width="32" height="24" fill="white"/>
</clipPath>
</defs>
</svg>
