<svg width="32" height="24" viewBox="0 0 32 24" fill="none" xmlns="http://www.w3.org/2000/svg">
<g clip-path="url(#clip0_30_17973)">
<rect width="32" height="24" fill="white"/>
<path fill-rule="evenodd" clip-rule="evenodd" d="M0 0.0999756H32V24.1H0V0.0999756Z" fill="#2B409A"/>
<g clip-path="url(#clip1_30_17973)">
<rect width="18" height="14" fill="#2E42A5"/>
<path d="M-2.00427 12.9998L1.95668 14.737L18.0899 1.88872L20.1792 -0.69281L15.9435 -1.27343L9.36317 4.26326L4.06667 7.99369L-2.00427 12.9998Z" fill="#F7FCFF"/>
<path d="M-1.46204 14.2169L0.555885 15.225L19.4289 -0.932678H16.5955L-1.46204 14.2169Z" fill="#F50100"/>
<path d="M20.0043 12.9998L16.0433 14.737L-0.0898743 1.88872L-2.17919 -0.69281L2.05648 -1.27343L8.63683 4.26326L13.9333 7.99369L20.0043 12.9998Z" fill="#F7FCFF"/>
<path d="M19.8691 13.8733L17.8512 14.8815L9.81489 7.96351L7.43229 7.19059L-2.3802 -0.683947H0.453194L10.2602 7.00368L12.8651 7.9305L19.8691 13.8733Z" fill="#F50100"/>
<path fill-rule="evenodd" clip-rule="evenodd" d="M9.98451 0H7.98451V6H0V8H7.98451V14H9.98451V8H18V6H9.98451V0Z" fill="#F50100"/>
<path fill-rule="evenodd" clip-rule="evenodd" d="M6.48451 0H11.4845V4.5H18V9.5H11.4845L11.5 14H6.5L6.48451 9.5H0V4.5H6.48451V0ZM7.98451 6H0V8H7.98451V14H9.98451V8H18V6H9.98451V0H7.98451V6Z" fill="#F7FCFF"/>
</g>
<path d="M24.3179 18.5514C24.2565 18.5514 24.0335 18.4313 24.0335 18.4313C24.0335 18.4313 23.872 18.687 23.7874 18.7017C23.7027 18.7168 23.2645 18.5442 23.2645 18.5442C23.2645 18.5442 22.957 18.7844 22.8877 18.7693C22.8185 18.7546 22.1111 18.6043 22.1111 18.6043L21.7267 18.3637C21.7267 18.3637 21.5114 18.7093 21.5037 18.7017C21.496 18.6942 20.8578 18.5741 20.8578 18.5741C20.8578 18.5741 21.05 18.3112 21.05 18.3037C21.05 18.2961 20.9578 18.2659 20.9578 18.2659L20.8194 18.3788L20.2504 18.4313L20.3888 18.0405L20.6118 17.71L23.3414 15.1176L24.687 17.5446L24.4872 18.2735C24.4872 18.2735 24.3794 18.5514 24.3179 18.5514Z" fill="#6A4C2D"/>
<path d="M21.7104 18.0609C21.8055 18.1758 23.058 19.4561 23.261 20.0618C23.464 20.6675 21.614 19.8938 21.614 19.8938C21.614 19.8938 23.9435 18.3807 25.1072 18.3807C26.271 18.3807 28.5581 19.8938 28.5581 19.8938C28.5581 19.8938 27.0234 20.9747 27.0391 20.2932C27.0549 19.6116 27.7595 18.2691 28.6005 18.0609" stroke="#FFBB00" stroke-width="0.5" stroke-linecap="round" stroke-linejoin="round"/>
<path d="M29.5418 18.16L29.1592 18.0175L28.8204 17.5689L27.4175 17.4657L26.1385 17.1167L25.5992 17.4764L25.8896 17.8556L26.5992 18.1167L29.5418 18.16Z" fill="#F7FCFF"/>
<path d="M23.9388 9.8661C23.9518 9.89886 24.2379 9.84077 24.2987 10.0121C24.6066 9.55747 24.968 9.99107 24.968 9.99107L25.272 9.63104L25.6153 9.95616L25.9303 9.93164L26.2595 10.7042L23.6619 10.6555C23.6619 10.6555 23.9258 9.83333 23.9388 9.8661Z" fill="#656263"/>
<path d="M26.6314 13.1539C26.6105 12.9093 26.3936 12.8807 26.2726 12.8888C26.1513 12.897 26.0429 12.9989 26.0429 12.9989L25.6423 12.7502C25.6423 12.7502 25.8428 11.5145 26.0555 11.4371C26.2575 11.2947 26.2932 11.233 26.2932 11.2007C26.2932 11.168 26.2183 11.0356 26.2183 11.0356L24.9119 10.8846L23.6767 11.0274C23.6767 11.0274 23.5808 11.2208 23.5933 11.278C23.6059 11.3349 23.6101 11.3962 23.8311 11.5635C24.076 11.7475 24.2443 12.8033 24.2443 12.8033C24.2443 12.8033 23.898 12.9703 23.8771 12.9498C23.8562 12.9297 23.752 12.9093 23.6976 12.9174C23.6435 12.9256 23.464 13.0152 23.464 13.2476C23.464 13.4803 23.6435 13.6149 23.6435 13.6149C23.6435 13.6149 24.8244 14.4803 24.9998 14.7982C25.1709 14.4149 26.2932 13.5495 26.4268 13.484C26.4811 13.4517 26.6523 13.3985 26.6314 13.1539Z" fill="#656263"/>
<path d="M27.8101 12.0015C27.9082 11.9377 28.5617 11.9056 28.7187 12.0015C28.8754 12.0974 28.9343 12.57 28.9343 12.57C28.9343 12.57 29.0324 12.736 29.0389 12.8574C29.0453 12.9788 29.0585 13.0618 29.0585 13.0618C29.0585 13.0618 29.5814 13.7262 29.5878 14.3264C29.6467 14.7352 29.6335 15.8272 29.4704 16.2423C29.4636 16.7598 29.2416 17.0981 29.2416 17.0981C29.2416 17.0981 29.2937 17.1874 29.2873 17.2833C29.2805 17.3792 29.2284 17.4685 29.2284 17.4685L28.7384 17.6792L28.1959 17.5899L27.5813 15.7951L27.7251 12.7615L27.7644 12.6084L27.6991 12.1996C27.6991 12.1996 27.7123 12.0654 27.8101 12.0015Z" fill="black"/>
<path d="M24.262 13.5941C24.262 13.5941 24.9232 13.5941 24.9946 13.8038C25.1198 13.5243 25.6916 13.5419 25.6916 13.5419C26.0371 13.5303 26.3827 13.5187 26.728 13.507C26.7341 14.322 26.7399 15.137 26.746 15.952C26.5436 16.9007 25.8405 17.5704 25.0661 17.8556C24.1426 17.5644 23.5589 16.8019 23.3685 15.9344C23.3324 15.1603 23.2967 14.3859 23.261 13.6117C23.5947 13.6058 23.9283 13.6001 24.262 13.5941Z" fill="#F7FCFF"/>
<path d="M23.6175 13.6026L25.0754 17.399L26.3924 13.5199C25.9837 13.5457 25.1072 13.457 24.9985 13.8211C24.8299 13.4954 23.9077 13.6268 23.6175 13.6026V13.6026Z" fill="#006B00"/>
<path fill-rule="evenodd" clip-rule="evenodd" d="M25.3074 14.1979C25.3074 14.1979 25.44 14.5439 25.3074 14.7151C25.1748 14.8863 25.3184 15.0266 25.3983 15.0266C25.4783 15.0266 25.7529 15.2985 25.5301 15.2985C25.3074 15.2985 25.1816 15.2139 25.1816 15.4529C25.1816 15.6919 25.4893 16.7681 25.3983 17.0261C25.3074 17.2842 25.33 17.4817 25.4605 17.4161C25.591 17.3505 25.6726 17.1819 25.6014 16.8572C25.5301 16.5326 25.4605 16.6092 25.4605 16.3286C25.4605 16.048 25.5301 15.7357 25.5301 15.7357C25.5301 15.7357 25.6472 15.8235 25.5639 16.1438C25.4807 16.4641 25.667 16.906 25.667 17.0261C25.667 17.1463 25.6726 17.477 25.6014 17.5098C25.5301 17.5426 25.4647 17.7423 25.3983 17.5901C25.3319 17.4379 25.2903 17.1869 25.2052 17.3596C25.1201 17.5323 25.1365 17.9294 25.048 17.9485C24.9595 17.9677 24.8274 18.1559 24.8274 18.0803C24.8274 18.0048 24.7027 17.8683 24.7407 17.7412C24.7786 17.614 24.8119 17.5991 24.8427 17.721C24.8734 17.8429 25.0027 17.8417 25.0027 17.7412C25.0027 17.6406 24.9574 17.6897 25.0027 17.4608C25.048 17.2318 25.0984 16.9289 25.0027 16.9471C24.9071 16.9653 24.7602 17.1143 24.7407 16.8394C24.7211 16.5644 24.6425 16.4357 24.7058 16.3821C24.7691 16.3286 24.8534 16.1373 24.8804 16.2877C24.9075 16.4382 24.7885 16.5819 24.8079 16.6361C24.8274 16.6903 24.8382 16.8131 24.9205 16.7102C25.0027 16.6074 25.0512 16.4378 25.1128 16.595C25.1744 16.7522 25.1756 16.6282 25.048 16.3286C24.9205 16.0291 24.812 15.8624 24.8274 15.5995C24.8427 15.3365 24.822 15.238 24.8427 15.1535C24.8634 15.0689 24.6142 14.6573 24.6774 14.5387C24.7407 14.4202 24.7649 14.0375 24.8427 14.1064C24.9205 14.1753 24.9605 14.2678 24.9205 14.3708C24.8804 14.4738 24.8404 14.5762 24.8804 14.6456C24.9205 14.7151 25.0578 14.9157 25.0853 14.8653C25.1128 14.8148 25.2052 14.8636 25.2052 14.5779C25.2052 14.2922 25.1022 14.1917 25.1671 14.1239C25.232 14.0561 25.3074 14.1979 25.3074 14.1979Z" fill="#FFD100"/>
<path d="M26.4007 13.5205L26.5973 13.5158L26.2463 13.9504L26.6675 14.4308L25.8389 15.4508L26.6208 16.3702C26.5349 16.5762 26.4352 16.7636 26.3023 16.933L25.8531 16.4479L26.6675 15.4555L25.9982 14.7144L26.4007 13.5205V13.5205Z" fill="#1E5AA6"/>
<path d="M23.3813 13.612L23.7745 14.028L23.3582 14.5358L24.224 15.4555L23.5078 16.3932C23.5937 16.5991 23.7169 16.8277 23.8495 16.9969L24.2755 16.4708L23.4003 15.5194L24.0416 14.7235L23.5921 13.6073L23.3813 13.612Z" fill="#1E5AA6"/>
<path d="M24.5657 16.0775L24.2568 16.4799L25.3614 17.7289C25.5564 17.6327 25.7096 17.5229 25.8766 17.3905L25.3006 16.7409L25.5349 16.0684L25.8718 16.4479L24.8186 17.7609C24.6423 17.6877 24.4473 17.5732 24.271 17.4314L24.828 16.7409L24.5657 16.0775V16.0775Z" fill="#1E5AA6"/>
<path d="M28.3854 12.8511C28.3854 12.9149 28.4549 16.6832 28.5313 16.6472C28.7208 16.5576 28.7644 16.7532 28.7644 16.7532C28.7644 16.7532 28.8297 17.3729 28.6663 17.4559C28.3722 17.609 28.2436 17.6428 28.2436 17.6428L27.9607 17.4367C27.9607 17.4367 27.673 17.0343 27.6077 16.8554C27.5424 16.6768 27.4639 15.8784 27.4899 15.7058C27.516 15.5335 27.5356 14.5242 27.5227 14.4732C27.5096 14.422 27.4574 13.579 27.4899 13.4513C27.5227 13.3237 27.7251 12.7615 27.7187 12.7615C27.7187 12.7615 28.3854 12.7873 28.3854 12.8511Z" fill="url(#paint0_linear_30_17973)"/>
<path d="M27.7319 12.2059C27.869 12.2059 27.9735 12.321 28.0063 12.4232C28.0128 12.4679 27.9932 12.4999 27.9996 12.5829C28.0063 12.6659 27.0063 12.6018 26.9999 12.5955C26.9999 12.5955 27.4639 12.155 27.7319 12.2059Z" fill="#FF7000"/>
<path d="M28.8297 17.6666C28.8297 17.6666 29.1434 17.5962 29.2284 17.4877C29.2808 17.4493 29.5553 17.8901 28.8297 17.6666Z" fill="white" stroke="black" stroke-width="0.5" stroke-linejoin="round"/>
<path d="M28.3089 12.4603C28.3089 12.488 28.2865 12.5103 28.2589 12.5103C28.2313 12.5103 28.2089 12.488 28.2089 12.4603C28.2089 12.4327 28.2313 12.4103 28.2589 12.4103C28.2865 12.4103 28.3089 12.4327 28.3089 12.4603Z" fill="black"/>
<path d="M25.8206 11.9088C25.8206 11.9088 26.3412 12.4593 26.6781 12.4533C26.7392 12.615 26.5249 12.7653 26.4393 12.837C26.2678 12.7832 26.1127 12.8467 25.7147 12.3681C25.7395 12.0628 25.8267 11.9207 25.8206 11.9088Z" fill="#F7FCFF"/>
<path d="M27.8905 9.138C27.9394 9.49111 27.8876 9.57309 27.8646 9.72137C27.8416 9.86964 28.769 9.92439 29.0077 9.63103C28.9833 9.76277 28.7049 10.2989 27.4433 10.2929C27.9211 10.7359 27.2904 11.089 27.0208 10.9812C27.517 10.6102 26.8802 10.3888 26.525 10.6281C26.5922 10.4246 27.0884 9.40149 27.8905 9.138Z" fill="#F7FCFF"/>
<path fill-rule="evenodd" clip-rule="evenodd" d="M27.0502 11.6166C26.9556 11.2278 26.9098 10.781 27.1189 10.6102C26.8432 10.4247 26.5433 10.6161 26.5433 10.6161C26.5412 10.6208 26.5356 10.6286 26.5276 10.6397C26.4635 10.7283 26.2492 11.0244 26.5433 11.5563C25.7595 11.3529 26.0874 12.0644 26.1453 12.1182C26.1758 12.0043 26.5922 11.8968 26.6964 12.4773C26.7315 12.5949 26.5203 12.7645 26.4526 12.8189C26.4376 12.831 26.4296 12.8374 26.4329 12.8363C26.4329 12.8363 27.0962 12.971 27.182 12.0946C27.2956 12.0271 27.8458 11.6602 27.829 10.9035C27.3235 10.9139 27.1001 11.4709 27.0502 11.6166Z" fill="#0000FF"/>
<path d="M24.0876 12.0644C24.0876 12.0644 23.5795 12.4952 23.2916 12.3574C23.0773 12.4832 22.8262 12.2619 22.8262 12.2619C22.8262 12.2619 23.1201 13.3209 24.1735 12.5549C24.1552 12.3216 24.0998 12.0823 24.0876 12.0644V12.0644Z" fill="#F7FCFF"/>
<path d="M23.2854 12.3396C23.3282 12.1182 23.5059 12.0103 23.6468 12.2198C23.8366 12.2559 24.0265 11.4959 23.3527 11.6214C23.5425 10.6281 22.9732 10.2571 22.9732 10.2571C22.9732 10.2571 22.7711 11.3582 22.8629 11.5617C22.9548 11.7651 22.7283 11.1846 21.9995 11.023C21.9873 11.855 22.814 12.244 22.814 12.244C22.814 12.244 23.0467 12.4534 23.2854 12.3396V12.3396Z" fill="#0000FF"/>
<path d="M22.5965 11.1388C22.3822 11.2045 21.861 10.8903 22.1917 10.4831C21.1078 10.4592 20.5177 9.54352 20.879 9.71813C21.2402 9.89274 21.4983 9.52066 21.7678 9.71813C21.4371 9.4191 21.8832 9.17981 21.8832 9.17981C21.8832 9.17981 22.8079 9.44928 22.9732 10.2511C22.9181 10.4067 22.8936 10.6818 22.8813 10.6699C22.8813 10.6639 22.3087 10.6599 22.5965 11.1388Z" fill="#F7FCFF"/>
<path d="M24.327 7.43122C24.3318 7.40377 25.0246 7.16583 25.0712 6.77249C25.1179 6.37915 25.0619 6.64439 25.0619 6.64439C25.0619 6.64439 25.254 6.46602 25.1838 6.36993C25.1134 6.27388 25.1369 6.49347 25.0246 6.48888C24.9123 6.48429 24.9731 6.25101 24.9731 6.25101C24.9731 6.25101 24.9638 6.22356 24.9309 6.20984C24.884 6.21441 24.7765 6.11377 24.7765 6.11377C24.7765 6.11377 24.7064 6.02229 24.6452 6.31047C24.678 6.61697 24.8795 6.55748 24.8795 6.75879C24.8795 6.96006 24.7015 7.11557 24.65 7.12016C24.5986 7.12472 24.6172 6.95091 24.6172 6.95091C24.6172 6.95091 24.5892 6.86856 24.5706 6.86856C24.5519 6.86856 24.6735 6.85026 24.6549 6.62154C24.6127 6.34707 24.5799 6.68559 24.5049 6.67185C24.43 6.65814 24.4863 6.42027 24.5143 6.39282C24.5423 6.36537 24.4814 6.25102 24.3177 6.54378C24.3035 6.68559 24.2848 6.50718 24.252 6.51633C24.196 6.63069 24.2054 6.71304 24.2848 6.81825C24.402 6.92346 24.4769 7.02866 24.4721 7.08356C24.4676 7.13846 24.4065 7.26197 24.3225 7.26197C24.2382 7.26197 24.327 7.11101 24.3225 7.06067C24.3177 7.01036 24.1774 6.8274 24.1774 6.8274C24.1774 6.8274 24.0789 6.67185 24.0882 6.66729C24.0976 6.6627 23.8637 6.89142 24.0039 7.01036C23.8965 6.99666 23.8871 7.03781 23.8871 7.03781C23.8871 7.09271 24.0323 7.11557 24.0509 7.21163C24.0696 7.30772 23.901 7.36259 23.901 7.36259C23.901 7.36259 23.9714 7.45865 24.1677 7.27112C24.1725 7.39004 24.0931 7.47239 24.0931 7.47239C24.1584 7.50135 24.2099 7.4983 24.2192 7.57304C24.2192 7.57303 24.3225 7.45864 24.327 7.43122Z" fill="#CDAD56"/>
<path d="M23.577 7.57301C23.577 7.57301 23.4895 7.44608 23.4856 7.42108C23.4814 7.39611 23.0551 7.45265 22.8534 6.94446C22.7222 6.70304 22.8534 6.84457 22.8534 6.84457L22.8613 6.72801C22.8613 6.72801 22.7217 6.56111 22.7814 6.4737C22.841 6.38629 22.8164 6.58608 22.8931 6.58649C22.9885 6.58233 22.9369 6.37003 22.9369 6.37003C22.9369 6.37003 22.9448 6.34507 22.9726 6.33258C23.0123 6.33673 23.0287 6.46197 23.0644 6.4703C23.1001 6.47864 23.1741 6.32293 23.1973 6.29091C23.2301 6.28633 23.2288 6.16192 23.2806 6.42414C23.253 6.70304 23.0165 6.64893 23.0165 6.83209C23.0165 7.01521 23.1674 7.15674 23.2111 7.16092C23.2549 7.16507 23.2391 7.00691 23.2391 7.00691C23.2391 7.00691 23.2629 6.93198 23.2787 6.93198C23.2948 6.93198 23.1397 6.96107 23.1558 6.75294C23.1915 6.55809 23.2707 6.76549 23.3344 6.75298C23.3981 6.74049 23.327 6.54693 23.3453 6.51737C23.3495 6.48782 23.4431 6.36088 23.4795 6.64101C23.4914 6.77005 23.5635 6.52995 23.5911 6.53828C23.6391 6.64233 23.5702 6.78131 23.5026 6.87705C23.4032 6.97276 23.3582 7.07766 23.3624 7.12762C23.3662 7.17755 23.3897 7.23962 23.4615 7.23962C23.5329 7.23962 23.4856 7.15259 23.4895 7.1068C23.4933 7.06102 23.6127 6.9128 23.6127 6.9128C23.6362 6.87623 23.6166 6.80788 23.6413 6.77628C23.6803 6.77668 23.6963 6.72386 23.7359 6.86954C23.7758 7.01521 23.8234 6.77379 23.8234 6.77379C23.8234 6.77379 23.8791 6.9528 23.7597 7.06102C23.8511 7.04854 23.8592 7.08599 23.8592 7.08599C23.8592 7.13595 23.8157 7.15674 23.7996 7.24415C23.7835 7.33156 23.8473 7.38152 23.8473 7.38152C23.8473 7.38152 23.7877 7.46893 23.6207 7.29826C23.6166 7.40649 23.6844 7.48142 23.6844 7.48142C23.6285 7.5078 23.585 7.505 23.577 7.57301V7.57301Z" fill="#CDAD56"/>
<path d="M24.6755 7.47449C24.5731 7.77342 24.2041 7.66 24.2041 7.66C24.2041 7.66 24.2163 7.80961 24.1796 7.88139C24.2098 7.90367 24.428 8.0715 24.6571 8.1148C24.9866 8.17705 25.6613 8.00673 25.8879 8.2584C26.1144 8.51006 26.1025 8.71319 26.1025 8.71319C26.1025 8.71319 25.8077 8.74685 25.8896 8.85065C25.9428 8.91805 26.0895 8.96813 26.1025 9.0378C26.1438 9.25952 25.9642 9.65848 26.0288 9.80835C25.9268 9.81747 25.9187 9.92186 25.9187 9.92186C25.9129 10.0404 25.6185 9.96997 25.6185 9.96997C25.6185 9.96997 25.8023 9.50901 25.8145 9.40148C25.8267 9.29363 25.6858 9.10214 25.5757 9.10214C25.4654 9.10214 25.3859 9.4433 25.3859 9.4433C25.3859 9.4433 25.3309 9.7005 25.3492 9.7244C25.3676 9.74829 25.2755 9.64076 25.2755 9.64076C25.2755 9.64076 25.2466 9.74523 25.1992 9.80835C25.1459 9.87934 25.0735 9.90991 25.0735 9.90991C25.0735 9.90991 25.0184 9.75427 25.0368 9.69453C25.0551 9.63478 25.337 9.40148 25.3125 9.23388C25.3016 9.15992 25.2919 9.03082 25.1992 8.98799C25.0819 8.93376 24.8669 8.97331 24.7369 8.94656C24.6655 9.06818 24.6327 9.73634 24.6816 9.77848C24.7308 9.8203 24.5593 9.90991 24.5593 9.90991L24.3572 9.91588C24.354 9.82533 24.4763 9.57787 24.4763 9.36846C24.4763 9.15905 24.4917 8.93461 24.4917 8.93461C24.4917 8.93461 24.3559 8.9688 24.2835 9.10214C24.2229 9.21394 24.2229 9.42527 24.2285 9.45524C24.2408 9.52096 24.3019 9.70647 24.2835 9.76056C24.2652 9.81432 23.947 9.88601 23.947 9.88601L23.9344 9.71245C23.9344 9.71245 24.0693 9.62881 24.0693 9.4194C24.0693 9.20999 24.0815 8.91065 24.0754 8.89273C24.0717 8.88196 23.9651 8.42369 23.8248 8.1148C23.7312 7.90878 23.5869 7.81439 23.5795 7.79763C23.5612 7.75575 23.5612 7.70786 23.5612 7.70786C23.5612 7.70786 23.3588 7.85149 23.1201 7.54631C23.3389 7.36384 23.5734 7.49842 23.5734 7.49842C23.5734 7.49842 23.6346 7.33086 23.9161 7.34284C24.198 7.35482 24.253 7.5104 24.2408 7.49244C24.2408 7.49244 24.4489 7.3129 24.6755 7.47449Z" fill="#923F00"/>
<path d="M25.7814 10.5878C25.7862 10.5878 26.3013 10.6029 26.3065 10.8721C26.3116 11.1409 26.1485 11.0714 26.1434 11.0714C26.1382 11.0714 25.7659 11.0265 25.7659 11.0265L25.7814 10.5878Z" fill="#0000FF"/>
<path d="M25.2813 10.513C25.2813 10.513 25.9239 10.5083 25.8882 10.7822C25.8524 11.0563 25.6893 11.0016 25.6893 11.0016L25.3782 10.9765L25.2813 10.513V10.513Z" fill="#F7FCFF"/>
<path d="M24.9193 10.4832L25.2916 10.513C25.2916 10.513 25.5159 10.5429 25.5059 10.7523C25.4956 10.9617 25.2762 10.9667 25.2762 10.9667L24.9142 10.9466L24.9193 10.4832Z" fill="#0000FF"/>
<path d="M24.0474 10.5878C24.0422 10.5878 23.5271 10.6029 23.522 10.8721C23.5171 11.1409 23.6803 11.0714 23.6854 11.0714C23.6906 11.0714 24.0628 11.0265 24.0628 11.0265L24.0474 10.5878Z" fill="#F7FCFF"/>
<path d="M24.5471 10.513C24.5471 10.513 23.9045 10.5083 23.9402 10.7822C23.9759 11.0563 24.1391 11.0016 24.1391 11.0016L24.4502 10.9765L24.5471 10.513V10.513Z" fill="#0000FF"/>
<path d="M24.9094 10.4832L24.5371 10.513C24.5371 10.513 24.3125 10.5429 24.3228 10.7523C24.3331 10.9617 24.5522 10.9667 24.5522 10.9667L24.9142 10.9466L24.9094 10.4832Z" fill="#F7FCFF"/>
<path d="M26.2868 13.1646C26.3853 13.1966 26.3103 13.495 26.2633 13.5227L25.9062 13.5089C25.9062 13.5089 26.1739 13.1234 26.2868 13.1646Z" fill="#5E0043"/>
<path d="M24.0712 13.5778C23.9869 13.463 23.8646 13.1464 23.752 13.2335C23.6532 13.2655 23.7285 13.5639 23.7755 13.5916L24.0712 13.5778Z" fill="#5E0043"/>
<path d="M23.6278 11.3636L24.9162 12.1874L26.0764 11.4249C26.0764 11.4249 26.3184 11.2944 26.2975 11.2007C26.2769 11.1067 26.1932 11.1435 26.1514 11.1598C26.1099 11.1762 24.9371 11.9877 24.9371 11.9877L23.6893 11.2167C23.6893 11.2167 23.5976 11.1884 23.5808 11.2453C23.5641 11.3026 23.6153 11.335 23.6278 11.3636V11.3636Z" fill="#B4B6B9"/>
<path d="M27.9468 17.4273C27.9468 17.4273 27.3837 17.5973 27.5406 17.6021C27.6567 17.6057 28.2161 17.6021 28.2161 17.6021L27.9468 17.4273Z" fill="#FF7000"/>
<path d="M28.1749 17.6135L27.6749 17.6276C27.6749 17.6276 27.5491 17.7392 27.5411 17.766C27.5333 17.793 27.6237 17.8006 27.6237 17.8006C27.6237 17.8006 28.1395 17.9317 28.5298 17.8468C28.7267 17.7795 28.7612 17.6987 28.6231 17.6496C28.4854 17.6006 28.1788 17.6154 28.1749 17.6135Z" fill="#FF7000"/>
<path d="M22.3907 12.9898C22.3907 12.9898 22.3255 13.1898 22.3907 13.2898C22.4557 13.3898 22.865 14.1988 22.865 14.1988C22.865 14.1988 23.1442 13.8623 23.2465 13.8532C23.3488 13.8444 23.3022 14.7261 23.3022 14.7261C23.3022 14.7261 23.1349 14.8805 23.0325 14.8714C22.9302 14.8622 23.2835 15.2169 23.2742 15.5169C23.2648 15.8168 22.8092 17.3076 22.6418 17.3346C22.4744 17.362 22.3298 17.0539 22.3298 16.7877C22.3298 16.5214 22.5023 16.0986 22.493 15.9804C22.4837 15.8621 21.6609 17.2473 21.6111 17.4636C21.6017 17.5046 21.6558 17.6528 21.6558 17.6528C21.6558 17.6528 21.3334 17.6792 21.4047 18.0892C20.4559 17.7619 19.9908 17.1985 20.0001 16.6259C20.0037 16.4064 19.7944 15.89 20.0001 15.3199C20.3313 14.4021 21.1385 13.3545 21.1442 13.2536C21.1535 13.0898 21.2186 13.0172 21.2279 12.9263C21.2372 12.8354 21.2 12.3716 21.2931 12.2899C21.3861 12.2081 21.8698 12.0082 21.9907 12.0173C22.1116 12.0264 22.2139 12.1081 22.2139 12.1081C22.2139 12.1081 22.6697 12.1081 22.6976 12.2808C22.7255 12.4537 22.6046 12.5172 22.6046 12.5172C22.6046 12.5172 22.6697 12.7628 22.3907 12.9898Z" fill="#8A9396"/>
<path d="M22.662 18.1455C22.8157 18.2518 23.1706 18.3147 23.1706 18.3147C23.1706 18.3147 22.2987 18.5496 21.4127 18.0936C21.3317 17.7386 21.6028 17.6594 21.6699 17.6566C21.8263 17.6157 22.5083 18.0389 22.662 18.1455Z" fill="#2B2B2B"/>
<path d="M23.7292 18.1079C24.6833 18.6122 24.7854 18.2727 25.4427 17.7934C25.4883 17.7601 25.7053 18.5632 26.6264 18.1079C27.9299 17.4636 25.5089 16.3898 25.1667 16.413C24.8246 16.4369 22.7752 17.6036 23.7292 18.1079Z" fill="#00713D"/>
</g>
<defs>
<linearGradient id="paint0_linear_30_17973" x1="28.2753" y1="15.6071" x2="29.0179" y2="15.5989" gradientUnits="userSpaceOnUse">
<stop stop-color="#D5DFFF"/>
<stop offset="1" stop-color="white"/>
</linearGradient>
<clipPath id="clip0_30_17973">
<rect width="32" height="24" fill="white"/>
</clipPath>
<clipPath id="clip1_30_17973">
<rect width="18" height="14" fill="white"/>
</clipPath>
</defs>
</svg>
