<svg width="32" height="24" viewBox="0 0 32 24" fill="none" xmlns="http://www.w3.org/2000/svg">
<g clip-path="url(#clip0_30_18131)">
<rect width="32" height="24" fill="white"/>
<path fill-rule="evenodd" clip-rule="evenodd" d="M22 0H32V24H22V0Z" fill="#58A5FF"/>
<path fill-rule="evenodd" clip-rule="evenodd" d="M0 0H12V24H0V0Z" fill="#58A5FF"/>
<path fill-rule="evenodd" clip-rule="evenodd" d="M10 0H22V24H10V0Z" fill="white"/>
<path fill-rule="evenodd" clip-rule="evenodd" d="M11.7684 15.7185L12.2902 16.4015L14.6595 13.1896V12.621L11.7684 15.7185Z" fill="#6C301F"/>
<path d="M13.4043 12.1357L13.5775 11.8971C15.8213 13.5842 17.4109 14.8793 18.2998 15.9585L17.7448 16.4157C16.8999 15.3899 15.6063 13.7914 13.4043 12.1357Z" fill="#979797"/>
<path d="M17.021 10.7256L16.7628 10.4753L18.1776 9.01615L18.4876 9.31728L19.9564 7.94958L20.2014 8.2127L18.4823 9.81343L18.1852 9.5248L17.021 10.7256Z" fill="#979797"/>
<path fill-rule="evenodd" clip-rule="evenodd" d="M12.5058 8.4454C12.4303 8.11708 12.3451 7.71161 12.3451 7.71161C12.1557 8.14376 12.096 8.53692 12.1721 8.88849C12.0915 8.9993 12.0186 9.1031 11.9533 9.19993C11.7496 8.93083 11.4954 8.42753 11.4954 8.42753C11.5042 8.57407 11.5002 8.72358 11.4963 8.86876C11.4872 9.20987 11.4786 9.52708 11.6388 9.72572L11.6369 9.72968C11.6049 9.79549 11.5746 9.86118 11.546 9.92674C11.3253 9.70661 10.9589 9.30969 10.9589 9.30969C10.9876 9.78566 11.1193 10.1607 11.3587 10.4284C11.3153 10.5679 11.2796 10.7066 11.2513 10.8445C11.0661 10.653 10.8876 10.4638 10.8876 10.4638C10.9138 10.8982 10.9864 11.1851 11.1752 11.4262C11.1714 11.4948 11.1694 11.5631 11.1693 11.6311C10.9737 11.4294 10.7749 11.2186 10.7749 11.2186C10.8025 11.677 10.9812 11.9786 11.2166 12.2297C11.24 12.3748 11.2719 12.5184 11.3121 12.6602L11.3337 12.7351C11.0675 12.6065 10.7766 12.4604 10.7766 12.4604C10.9503 12.8609 11.2038 13.0816 11.4923 13.2359C11.5539 13.4153 11.619 13.5888 11.6872 13.7558C11.3749 13.671 10.9087 13.5314 10.9087 13.5314C11.1852 13.9501 11.5244 14.1164 11.8889 14.2121C11.9633 14.3677 12.0407 14.5164 12.1206 14.6575C11.8248 14.5745 11.4775 14.4706 11.4775 14.4706C11.7461 14.8772 12.0738 15.0458 12.4263 15.1428C12.6589 15.4734 12.9079 15.745 13.1676 15.9484C12.8814 16.0784 12.5209 16.234 12.5209 16.234C12.928 16.355 13.2533 16.3086 13.5502 16.1939C13.5618 16.1998 13.5735 16.2055 13.5852 16.2111C13.7133 16.2725 13.8568 16.3304 14.0187 16.3868C13.7839 16.4913 13.5603 16.5878 13.5603 16.5878C13.9579 16.706 14.2776 16.6645 14.5689 16.5556L14.6005 16.5642C14.7435 16.6032 14.8889 16.6405 15.0805 16.6879C14.9538 16.6565 15.4216 16.7719 15.5167 16.7961C15.8208 16.8735 15.994 16.9279 16.0772 16.9747C16.0849 16.9791 16.0906 16.9827 16.0942 16.985L16.0942 16.985C16.0979 16.9873 16.0993 16.9882 16.0986 16.9871L16.3313 16.8181C16.3043 16.781 16.2668 16.7514 16.2184 16.7241C16.1043 16.6598 15.9191 16.6017 15.5876 16.5174C15.4933 16.4934 15.0401 16.3816 15.1427 16.407C14.9565 16.3609 14.8148 16.3245 14.6761 16.2867C14.6348 16.2755 14.5944 16.2642 14.5549 16.2531C14.5881 15.9472 14.5495 15.6303 14.341 15.2771C14.341 15.2771 14.2503 15.8287 14.1886 16.1409C14.0047 16.0795 13.8463 16.0173 13.7094 15.9517C13.6632 15.9296 13.617 15.9048 13.5711 15.8776C13.5527 15.5656 13.461 15.2552 13.19 14.9385C13.19 14.9385 13.194 15.2891 13.1925 15.593C13.0035 15.4204 12.8199 15.2058 12.6449 14.9538L12.7675 15.0187C12.781 14.6296 12.721 14.2461 12.3844 13.8527C12.3844 13.8527 12.3888 14.232 12.3867 14.5435C12.2774 14.3526 12.1727 14.1464 12.0734 13.9262C12.1656 13.6237 12.1878 13.2977 12.0397 12.9027C12.0397 12.9027 11.9517 13.1535 11.8593 13.4066C11.8323 13.3346 11.8058 13.2615 11.7799 13.1873C11.9684 12.8708 12.0895 12.5202 11.9995 12.0376C11.9995 12.0376 11.7852 12.419 11.6218 12.6955C11.6106 12.6578 11.5997 12.6199 11.5888 12.5817C11.5545 12.4606 11.5267 12.3382 11.5056 12.2144C11.7743 11.9867 11.9916 11.703 12.0687 11.2396C12.0687 11.2396 11.7093 11.5483 11.4589 11.753C11.4554 11.6501 11.4565 11.5464 11.4623 11.4419C11.7517 11.2662 12.0009 11.0264 12.1513 10.6005C12.1513 10.6005 11.7969 10.8106 11.5202 10.9671C11.5399 10.8625 11.5641 10.7571 11.5931 10.6512L11.5935 10.6614C11.9372 10.4785 12.2393 10.2348 12.4117 9.7466C12.4117 9.7466 12.0556 9.95772 11.7786 10.1144C11.8145 10.0284 11.8535 9.94202 11.8956 9.85534C11.9456 9.75229 12.0167 9.62933 12.1086 9.48665C12.4155 9.38944 12.7011 9.2209 12.9441 8.86671C12.9441 8.86671 12.6987 8.9355 12.4442 9.0036C12.5918 8.80265 12.7649 8.57781 12.9633 8.32938L12.7386 8.14987C12.6568 8.25224 12.5792 8.35075 12.5058 8.4454Z" fill="#5AB92D"/>
<path fill-rule="evenodd" clip-rule="evenodd" d="M19.6337 8.4454C19.7092 8.11708 19.7944 7.71161 19.7944 7.71161C19.9838 8.14376 20.0434 8.53692 19.9674 8.88849C20.0479 8.9993 20.1209 9.1031 20.1862 9.19993C20.3899 8.93083 20.6441 8.42753 20.6441 8.42753C20.6352 8.57407 20.6392 8.72358 20.6431 8.86876C20.6523 9.20987 20.6608 9.52708 20.5007 9.72572L20.5026 9.72968C20.5345 9.79549 20.5648 9.86118 20.5934 9.92674C20.8142 9.70661 21.1806 9.30969 21.1806 9.30969C21.1519 9.78566 21.0202 10.1607 20.7808 10.4284C20.8241 10.5679 20.8599 10.7066 20.8882 10.8445C21.0733 10.653 21.2519 10.4638 21.2519 10.4638C21.2257 10.8982 21.153 11.1851 20.9643 11.4262C20.9681 11.4948 20.97 11.5631 20.9701 11.6311C21.1657 11.4294 21.3646 11.2186 21.3646 11.2186C21.337 11.677 21.1583 11.9786 20.9229 12.2297C20.8995 12.3748 20.8676 12.5184 20.8273 12.6602L20.8058 12.7351C21.072 12.6065 21.3629 12.4604 21.3629 12.4604C21.1892 12.8609 20.9356 13.0816 20.6472 13.2359C20.5855 13.4153 20.5204 13.5888 20.4523 13.7558C20.7645 13.671 21.2307 13.5314 21.2307 13.5314C20.9542 13.9501 20.615 14.1164 20.2506 14.2121C20.1761 14.3677 20.0988 14.5164 20.0188 14.6575C20.3147 14.5745 20.6619 14.4706 20.6619 14.4706C20.3934 14.8772 20.0657 15.0458 19.7131 15.1428C19.4806 15.4734 19.2316 15.745 18.9718 15.9484C19.2581 16.0784 19.6186 16.234 19.6186 16.234C19.2115 16.355 18.8862 16.3086 18.5893 16.1939C18.5776 16.1998 18.566 16.2055 18.5543 16.2111C18.4261 16.2725 18.2827 16.3304 18.1208 16.3868C18.3556 16.4913 18.5792 16.5878 18.5792 16.5878C18.1815 16.706 17.8619 16.6645 17.5705 16.5556L17.5389 16.5642C17.396 16.6032 17.2506 16.6405 17.0589 16.6879C17.1857 16.6565 16.7178 16.7719 16.6228 16.7961C16.3186 16.8735 16.1454 16.9279 16.0623 16.9747C16.0545 16.9791 16.0488 16.9827 16.0453 16.985L16.0452 16.985C16.0416 16.9873 16.0401 16.9882 16.0409 16.9871L15.8082 16.8181C15.8352 16.781 15.8727 16.7514 15.9211 16.7241C16.0352 16.6598 16.2204 16.6017 16.5519 16.5174C16.6462 16.4934 17.0994 16.3816 16.9967 16.407C17.183 16.3609 17.3247 16.3245 17.4633 16.2867C17.5047 16.2755 17.5451 16.2642 17.5845 16.2531C17.5514 15.9472 17.59 15.6303 17.7985 15.2771C17.7985 15.2771 17.8892 15.8287 17.9508 16.1409C18.1347 16.0795 18.2932 16.0173 18.4301 15.9517C18.4763 15.9296 18.5224 15.9048 18.5684 15.8776C18.5868 15.5656 18.6784 15.2552 18.9495 14.9385C18.9495 14.9385 18.9454 15.2891 18.947 15.593C19.136 15.4204 19.3196 15.2058 19.4945 14.9538L19.372 15.0187C19.3585 14.6296 19.4184 14.2461 19.755 13.8527C19.755 13.8527 19.7507 14.232 19.7527 14.5435C19.8621 14.3526 19.9668 14.1464 20.0661 13.9262C19.9739 13.6237 19.9516 13.2977 20.0998 12.9027C20.0998 12.9027 20.1878 13.1535 20.2801 13.4066C20.3072 13.3346 20.3337 13.2615 20.3596 13.1873C20.171 12.8708 20.05 12.5202 20.1399 12.0376C20.1399 12.0376 20.3543 12.419 20.5177 12.6955C20.5288 12.6578 20.5398 12.6199 20.5506 12.5817C20.585 12.4606 20.6128 12.3382 20.6339 12.2144C20.3651 11.9867 20.1479 11.703 20.0708 11.2396C20.0708 11.2396 20.4302 11.5483 20.6806 11.753C20.6841 11.6501 20.6829 11.5464 20.6771 11.4419C20.3877 11.2662 20.1386 11.0264 19.9882 10.6005C19.9882 10.6005 20.3426 10.8106 20.6193 10.9671C20.5996 10.8625 20.5753 10.7571 20.5464 10.6512L20.546 10.6614C20.2023 10.4785 19.9001 10.2348 19.7278 9.7466C19.7278 9.7466 20.0839 9.95772 20.3608 10.1144C20.3249 10.0284 20.286 9.94202 20.2439 9.85534C20.1938 9.75229 20.1228 9.62933 20.0308 9.48665C19.724 9.38944 19.4383 9.2209 19.1954 8.86671C19.1954 8.86671 19.4408 8.9355 19.6952 9.0036C19.5477 8.80265 19.3746 8.57781 19.1762 8.32938L19.4009 8.14987C19.4827 8.25224 19.5602 8.35075 19.6337 8.4454Z" fill="#5AB92D"/>
<path fill-rule="evenodd" clip-rule="evenodd" d="M13.4173 9.32297L14.6245 12.5222H13.7371C13.7371 12.5222 13.4173 13.5318 14.0209 13.5318C14.6245 13.5318 17.7349 13.5318 17.7349 13.5318C17.7349 13.5318 18.1393 13.2787 17.9371 12.5222C17.7349 11.7657 16.7133 9.67747 16.7133 9.67747C16.7133 9.67747 17.1499 9.3309 17.1499 9.07401C17.1499 8.81711 16.7133 8.78882 16.7133 8.78882H13.9578C13.6061 8.84582 13.4173 9.32297 13.4173 9.32297Z" fill="#EFE298"/>
<path d="M14.444 10.5007L16.3189 10.3843Z" fill="#C5A042"/>
<path d="M14.444 10.5007L16.3189 10.3843" stroke="#B47D00" stroke-width="0.5"/>
<path d="M14.9002 11.5211L16.7751 11.4047Z" fill="#C5A042"/>
<path d="M14.9002 11.5211L16.7751 11.4047" stroke="#B47D00" stroke-width="0.5"/>
<path d="M15.2566 12.5414L17.1315 12.425Z" fill="#C5A042"/>
<path d="M15.2566 12.5414L17.1315 12.425" stroke="#B47D00" stroke-width="0.5"/>
<path fill-rule="evenodd" clip-rule="evenodd" d="M15.8804 7.58765C15.8804 7.58765 15.5917 7.6463 15.5917 7.82871C15.5917 8.01112 15.5136 8.16665 15.5136 8.16665C15.5136 8.16665 15.6018 8.99862 16.2601 9.19168C16.9184 9.38474 17.3044 9.4311 17.5815 9.81837C17.8586 10.2056 18.7088 11.299 18.3679 12.2419C18.0269 13.1848 17.7592 13.666 17.7592 13.666C17.7592 13.666 19.0028 12.4946 19.0028 11.9392C19.0028 11.3838 18.8191 10.8457 18.2681 10.1405C17.7172 9.43531 17.4608 9.02307 17.0504 8.70534C16.6399 8.38761 16.0518 8.09442 16.0518 8.09442C16.0518 8.09442 16.2611 7.87059 16.1565 7.76535C16.0518 7.66011 15.8804 7.58765 15.8804 7.58765Z" fill="#5AB92D"/>
</g>
<defs>
<clipPath id="clip0_30_18131">
<rect width="32" height="24" fill="white"/>
</clipPath>
</defs>
</svg>
