<svg width="32" height="24" viewBox="0 0 32 24" fill="none" xmlns="http://www.w3.org/2000/svg">
<g clip-path="url(#clip0_30_17952)">
<rect width="32" height="24" fill="white"/>
<path fill-rule="evenodd" clip-rule="evenodd" d="M0 0H32V24H0V0Z" fill="#C51918"/>
<path fill-rule="evenodd" clip-rule="evenodd" d="M4 4H28V20H4V4Z" fill="#4564F9"/>
<path d="M5 5H27V19H5V5Z" stroke="#CBDAFF" stroke-opacity="0.1" stroke-width="2"/>
<mask id="mask0_30_17952" style="mask-type:luminance" maskUnits="userSpaceOnUse" x="4" y="4" width="24" height="16">
<path fill-rule="evenodd" clip-rule="evenodd" d="M4 4H28V20H4V4Z" fill="white"/>
<path d="M5 5H27V19H5V5Z" stroke="white" stroke-width="2"/>
</mask>
<g mask="url(#mask0_30_17952)">
<path d="M16.5 5.00006L17.1067 3.68308L16.4859 3.3971L15.8702 3.69399L16.5 5.00006ZM16.5 5.00006C17.1067 3.68308 17.1071 3.68327 17.1075 3.68348L17.1086 3.68394L17.1109 3.68505L17.1172 3.68798L17.1358 3.6967C17.1508 3.70378 17.1709 3.7134 17.1958 3.72552C17.2457 3.74976 17.3149 3.78408 17.4007 3.82831C17.5721 3.91666 17.8109 4.04511 18.0948 4.21221C18.6595 4.54451 19.4188 5.03915 20.1854 5.68632C21.6653 6.93573 23.45 8.99316 23.45 11.7531C23.45 14.4844 21.6952 16.6591 20.2398 18.0185C19.4831 18.7253 18.7325 19.2818 18.1734 19.661C17.8924 19.8516 17.6563 19.9998 17.4871 20.1022C17.4025 20.1534 17.3344 20.1933 17.2855 20.2215C17.2611 20.2355 17.2415 20.2467 17.227 20.2548L17.2091 20.2648L17.2032 20.2681L17.201 20.2694L17.2 20.2699C17.1996 20.2701 17.1992 20.2703 16.5 19.0001M16.5 5.00006C15.8702 3.69399 15.8698 3.69418 15.8693 3.69439L15.8684 3.69485L15.8661 3.69597L15.8599 3.69896L15.8418 3.7079C15.827 3.71518 15.8071 3.72509 15.7825 3.73761C15.7331 3.76263 15.6644 3.79811 15.5792 3.84376C15.4089 3.93495 15.1713 4.06735 14.8887 4.23874C14.3266 4.57963 13.5707 5.08429 12.8077 5.73669C11.3432 6.98891 9.55 9.04677 9.55 11.7531C9.55 14.43 11.3123 16.606 12.7542 17.9683C13.5078 18.6803 14.2553 19.2467 14.8121 19.6343C15.0918 19.8291 15.3268 19.9812 15.4949 20.0863C15.5791 20.1389 15.6467 20.1799 15.6951 20.2088C15.7193 20.2232 15.7387 20.2347 15.7529 20.243L15.7704 20.2532L15.7762 20.2565L15.7784 20.2577L15.7793 20.2583C15.7797 20.2585 15.78 20.2587 16.5 19.0001M16.5 19.0001L17.1992 20.2703L16.4864 20.6627L15.78 20.2587L16.5 19.0001Z" stroke="#C1C9F1" stroke-opacity="0.1182" stroke-width="2.9"/>
<path d="M16.4 6.0368L17.0865 4.75962L16.384 4.38201L15.689 4.77312L16.4 6.0368ZM16.4 6.0368C17.0865 4.75962 17.087 4.75986 17.0875 4.76011L17.0885 4.76066L17.0908 4.76189L17.0964 4.76499L17.1122 4.77362C17.1246 4.78047 17.1408 4.78949 17.1605 4.80067C17.1999 4.82302 17.2535 4.85406 17.3193 4.89362C17.4506 4.97264 17.6317 5.08631 17.8459 5.23341C18.2717 5.52583 18.8422 5.95962 19.4176 6.52649C20.5414 7.63354 21.85 9.41702 21.85 11.7677C21.85 14.0945 20.5638 15.9719 19.4685 17.1658C18.904 17.781 18.3437 18.2658 17.9249 18.5973C17.7145 18.7639 17.5368 18.894 17.4084 18.9847C17.3441 19.0301 17.2919 19.0658 17.2538 19.0914C17.2348 19.1042 17.2193 19.1145 17.2075 19.1223L17.1927 19.1319L17.1874 19.1353L17.1854 19.1367L17.1845 19.1372C17.1841 19.1375 17.1837 19.1378 16.4 17.9178M16.4 6.0368C15.689 4.77312 15.6885 4.77336 15.6881 4.77361L15.6871 4.77415L15.685 4.77539L15.6795 4.7785L15.6641 4.78729C15.652 4.79428 15.6361 4.80353 15.6167 4.81502C15.5779 4.83798 15.5249 4.86993 15.4598 4.91063C15.3297 4.99191 15.1501 5.10875 14.9374 5.25927C14.5146 5.55852 13.9477 6.00022 13.3759 6.57072C12.2659 7.67815 10.95 9.46141 10.95 11.7677C10.95 14.0492 12.2426 15.9274 13.326 17.1219C13.8873 17.7408 14.4445 18.2334 14.8607 18.5715C15.0698 18.7415 15.2462 18.8747 15.3735 18.9676C15.4372 19.0141 15.4888 19.0506 15.5264 19.0768C15.5452 19.0898 15.5604 19.1003 15.5719 19.1082L15.5864 19.118L15.5914 19.1214L15.5934 19.1227L15.5943 19.1233C15.5946 19.1235 15.595 19.1238 16.4 17.9178M16.4 17.9178L17.1837 19.1378L16.3848 19.6509L15.595 19.1238L16.4 17.9178Z" fill="#CCE0E5"/>
<path d="M16.4 6.0368L17.0865 4.75962L16.384 4.38201L15.689 4.77312L16.4 6.0368ZM16.4 6.0368C17.0865 4.75962 17.087 4.75986 17.0875 4.76011L17.0885 4.76066L17.0908 4.76189L17.0964 4.76499L17.1122 4.77362C17.1246 4.78047 17.1408 4.78949 17.1605 4.80067C17.1999 4.82302 17.2535 4.85406 17.3193 4.89362C17.4506 4.97264 17.6317 5.08631 17.8459 5.23341C18.2717 5.52583 18.8422 5.95962 19.4176 6.52649C20.5414 7.63354 21.85 9.41702 21.85 11.7677C21.85 14.0945 20.5638 15.9719 19.4685 17.1658C18.904 17.781 18.3437 18.2658 17.9249 18.5973C17.7145 18.7639 17.5368 18.894 17.4084 18.9847C17.3441 19.0301 17.2919 19.0658 17.2538 19.0914C17.2348 19.1042 17.2193 19.1145 17.2075 19.1223L17.1927 19.1319L17.1874 19.1353L17.1854 19.1367L17.1845 19.1372C17.1841 19.1375 17.1837 19.1378 16.4 17.9178M16.4 6.0368C15.689 4.77312 15.6885 4.77336 15.6881 4.77361L15.6871 4.77415L15.685 4.77539L15.6795 4.7785L15.6641 4.78729C15.652 4.79428 15.6361 4.80353 15.6167 4.81502C15.5779 4.83798 15.5249 4.86993 15.4598 4.91063C15.3297 4.99191 15.1501 5.10875 14.9374 5.25927C14.5146 5.55852 13.9477 6.00022 13.3759 6.57072C12.2659 7.67815 10.95 9.46141 10.95 11.7677C10.95 14.0492 12.2426 15.9274 13.326 17.1219C13.8873 17.7408 14.4445 18.2334 14.8607 18.5715C15.0698 18.7415 15.2462 18.8747 15.3735 18.9676C15.4372 19.0141 15.4888 19.0506 15.5264 19.0768C15.5452 19.0898 15.5604 19.1003 15.5719 19.1082L15.5864 19.118L15.5914 19.1214L15.5934 19.1227L15.5943 19.1233C15.5946 19.1235 15.595 19.1238 16.4 17.9178M16.4 17.9178L17.1837 19.1378L16.3848 19.6509L15.595 19.1238L16.4 17.9178Z" stroke="#C1C9F1" stroke-opacity="0.748217" stroke-width="2.9"/>
<path d="M16.4 6.0368L17.0865 4.75962L16.384 4.38201L15.689 4.77312L16.4 6.0368ZM16.4 6.0368C17.0865 4.75962 17.087 4.75986 17.0875 4.76011L17.0885 4.76066L17.0908 4.76189L17.0964 4.76499L17.1122 4.77362C17.1246 4.78047 17.1408 4.78949 17.1605 4.80067C17.1999 4.82302 17.2535 4.85406 17.3193 4.89362C17.4506 4.97264 17.6317 5.08631 17.8459 5.23341C18.2717 5.52583 18.8422 5.95962 19.4176 6.52649C20.5414 7.63354 21.85 9.41702 21.85 11.7677C21.85 14.0945 20.5638 15.9719 19.4685 17.1658C18.904 17.781 18.3437 18.2658 17.9249 18.5973C17.7145 18.7639 17.5368 18.894 17.4084 18.9847C17.3441 19.0301 17.2919 19.0658 17.2538 19.0914C17.2348 19.1042 17.2193 19.1145 17.2075 19.1223L17.1927 19.1319L17.1874 19.1353L17.1854 19.1367L17.1845 19.1372C17.1841 19.1375 17.1837 19.1378 16.4 17.9178M16.4 6.0368C15.689 4.77312 15.6885 4.77336 15.6881 4.77361L15.6871 4.77415L15.685 4.77539L15.6795 4.7785L15.6641 4.78729C15.652 4.79428 15.6361 4.80353 15.6167 4.81502C15.5779 4.83798 15.5249 4.86993 15.4598 4.91063C15.3297 4.99191 15.1501 5.10875 14.9374 5.25927C14.5146 5.55852 13.9477 6.00022 13.3759 6.57072C12.2659 7.67815 10.95 9.46141 10.95 11.7677C10.95 14.0492 12.2426 15.9274 13.326 17.1219C13.8873 17.7408 14.4445 18.2334 14.8607 18.5715C15.0698 18.7415 15.2462 18.8747 15.3735 18.9676C15.4372 19.0141 15.4888 19.0506 15.5264 19.0768C15.5452 19.0898 15.5604 19.1003 15.5719 19.1082L15.5864 19.118L15.5914 19.1214L15.5934 19.1227L15.5943 19.1233C15.5946 19.1235 15.595 19.1238 16.4 17.9178M16.4 17.9178L17.1837 19.1378L16.3848 19.6509L15.595 19.1238L16.4 17.9178Z" stroke="#C51918" stroke-width="2.9"/>
<mask id="mask1_30_17952" style="mask-type:luminance" maskUnits="userSpaceOnUse" x="12" y="6" width="9" height="12">
<path d="M17.3316 15.2052C17.0125 15.553 16.6913 15.8506 16.412 16.0879C16.128 15.8417 15.7999 15.5328 15.474 15.1736C14.5575 14.1631 13.85 12.9662 13.85 11.7677C13.85 10.5938 14.5341 9.51165 15.4241 8.62368C15.77 8.27866 16.119 7.99149 16.4129 7.77181C16.7019 7.9828 17.0437 8.25873 17.3824 8.59241C18.2587 9.45559 18.95 10.5375 18.95 11.7677C18.95 13.0216 18.2362 14.2192 17.3316 15.2052ZM15.7094 7.31177C15.709 7.31153 15.7094 7.31179 15.7108 7.31254L15.7108 7.3125L15.7094 7.31177Z" fill="white"/>
<path d="M17.3316 15.2052C17.0125 15.553 16.6913 15.8506 16.412 16.0879C16.128 15.8417 15.7999 15.5328 15.474 15.1736C14.5575 14.1631 13.85 12.9662 13.85 11.7677C13.85 10.5938 14.5341 9.51165 15.4241 8.62368C15.77 8.27866 16.119 7.99149 16.4129 7.77181C16.7019 7.9828 17.0437 8.25873 17.3824 8.59241C18.2587 9.45559 18.95 10.5375 18.95 11.7677C18.95 13.0216 18.2362 14.2192 17.3316 15.2052ZM15.7094 7.31177C15.709 7.31153 15.7094 7.31179 15.7108 7.31254L15.7108 7.3125L15.7094 7.31177Z" stroke="white" stroke-width="2.9"/>
</mask>
<g mask="url(#mask1_30_17952)">
<rect x="12.9333" y="14" width="7.46667" height="1.5" fill="#91CBCB"/>
<path fill-rule="evenodd" clip-rule="evenodd" d="M13.6017 15.198C13.6017 15.198 18.8958 15.1999 19.3824 15.0172C19.8689 14.8345 18.4689 18.5247 16.6801 18.5247C14.8912 18.5247 13.6017 15.198 13.6017 15.198Z" fill="#FDF9A1"/>
<path d="M18.5936 14.7551L17.6426 15.4869C16.1437 13.5391 15.515 11.524 15.7833 9.46747L16.9733 9.62274C16.7485 11.3453 17.2796 13.0475 18.5936 14.7551Z" fill="#A68861"/>
<path fill-rule="evenodd" clip-rule="evenodd" d="M16.3936 9.63676L15.4863 10.6999C15.4523 10.7398 15.3876 10.707 15.3996 10.656L15.7117 9.33042H14.2924C14.2382 9.33042 14.2227 9.25637 14.2723 9.23463L15.4851 8.70294L14.6243 7.56805C14.5938 7.52785 14.6353 7.47292 14.6823 7.49124L16.0359 8.01894L16.345 6.7755C16.3575 6.72488 16.4295 6.72493 16.442 6.77556L16.7494 8.01894L18.0914 7.49646C18.1394 7.47777 18.1809 7.5351 18.1481 7.57485L17.2185 8.70294L18.5012 9.23423C18.5517 9.25517 18.5368 9.33042 18.4821 9.33042H17.2185L17.4108 10.6866C17.4178 10.7361 17.3557 10.7641 17.3232 10.7261L16.3936 9.63676Z" fill="#239E46"/>
<path fill-rule="evenodd" clip-rule="evenodd" d="M15.6 13H20.4V14.05H15.6V13Z" fill="#239E46"/>
<path fill-rule="evenodd" clip-rule="evenodd" d="M14.872 12.3926H14.8672C14.8534 12.444 14.8195 12.4868 14.7656 12.521C14.7118 12.5551 14.6422 12.5721 14.5568 12.5721C14.4886 12.5721 14.4259 12.5598 14.3688 12.5351C14.3118 12.5105 14.263 12.4742 14.2224 12.4265C14.1819 12.3787 14.1502 12.3194 14.1272 12.2485C14.1043 12.1776 14.0928 12.096 14.0928 12.0036C14.0928 11.9122 14.104 11.8311 14.1264 11.7602C14.1488 11.6894 14.1808 11.63 14.2224 11.5823C14.264 11.5345 14.3142 11.498 14.3728 11.4728C14.4315 11.4476 14.4966 11.435 14.568 11.435C14.6683 11.435 14.752 11.457 14.8192 11.5011C14.8864 11.5452 14.9382 11.6035 14.9744 11.676L14.864 11.7421C14.8384 11.6833 14.8003 11.6371 14.7496 11.6035C14.699 11.5699 14.6384 11.5531 14.568 11.5531C14.519 11.5531 14.4742 11.5618 14.4336 11.5791C14.3931 11.5964 14.3582 11.6208 14.3288 11.6523C14.2995 11.6838 14.2768 11.7216 14.2608 11.7657C14.2448 11.8098 14.2368 11.8592 14.2368 11.9138V12.0918C14.2368 12.1464 14.2448 12.196 14.2608 12.2406C14.2768 12.2852 14.2995 12.3233 14.3288 12.3548C14.3582 12.3863 14.3942 12.4107 14.4368 12.428C14.4795 12.4454 14.5275 12.454 14.5808 12.454C14.6192 12.454 14.6558 12.449 14.6904 12.4391C14.7251 12.4291 14.7555 12.4141 14.7816 12.3942C14.8078 12.3742 14.8283 12.3493 14.8432 12.3194C14.8582 12.2894 14.8656 12.254 14.8656 12.213V12.1044H14.6192V11.9878H14.9968V12.5532H14.872V12.3926ZM15.7072 11.4539V12.1343C15.7072 12.2393 15.727 12.3188 15.7664 12.3729C15.8059 12.427 15.8752 12.454 15.9744 12.454C16.0736 12.454 16.143 12.427 16.1824 12.3729C16.2219 12.3188 16.2416 12.2393 16.2416 12.1343V11.4539H16.376V12.1028C16.376 12.1826 16.3688 12.2519 16.3544 12.3107C16.34 12.3695 16.3168 12.4183 16.2848 12.4572C16.2528 12.496 16.211 12.5249 16.1592 12.5438C16.1075 12.5627 16.0443 12.5721 15.9696 12.5721C15.895 12.5721 15.8323 12.5627 15.7816 12.5438C15.731 12.5249 15.6902 12.496 15.6592 12.4572C15.6283 12.4183 15.6062 12.3695 15.5928 12.3107C15.5795 12.2519 15.5728 12.1826 15.5728 12.1028V11.4539H15.7072ZM17.664 12.5532L17.552 12.2288H17.1008L16.9888 12.5532H16.8528L17.2432 11.4539H17.4144L17.8048 12.5532H17.664ZM17.3296 11.5767H17.3216L17.1328 12.1122H17.5184L17.3296 11.5767ZM19.1808 11.6271H19.1728L19.0784 11.8114L18.8112 12.2902L18.544 11.8114L18.4496 11.6271H18.4416V12.5532H18.3104V11.4539H18.4896L18.8096 12.0461H18.8176L19.1392 11.4539H19.312V12.5532H19.1808V11.6271Z" fill="#C51918"/>
</g>
</g>
</g>
<defs>
<clipPath id="clip0_30_17952">
<rect width="32" height="24" fill="white"/>
</clipPath>
</defs>
</svg>
