<svg width="32" height="24" viewBox="0 0 32 24" fill="none" xmlns="http://www.w3.org/2000/svg">
<g clip-path="url(#clip0_30_17977)">
<rect width="32" height="24" fill="white"/>
<path fill-rule="evenodd" clip-rule="evenodd" d="M0 0V24H32V0H0Z" fill="#2E42A5"/>
<mask id="mask0_30_17977" style="mask-type:luminance" maskUnits="userSpaceOnUse" x="0" y="0" width="32" height="24">
<path fill-rule="evenodd" clip-rule="evenodd" d="M0 0V24H32V0H0Z" fill="white"/>
</mask>
<g mask="url(#mask0_30_17977)">
<path fill-rule="evenodd" clip-rule="evenodd" d="M0 12V24H32V12H0Z" fill="#E31D1C"/>
<rect x="10" y="8" width="12" height="8" fill="white"/>
<mask id="mask1_30_17977" style="mask-type:luminance" maskUnits="userSpaceOnUse" x="10" y="8" width="12" height="8">
<rect x="10" y="8" width="12" height="8" fill="white"/>
</mask>
<g mask="url(#mask1_30_17977)">
<path fill-rule="evenodd" clip-rule="evenodd" d="M10 14.5778C10 14.5778 12.8803 13.8205 16 13.8667C19.1197 13.9129 22 14.7556 22 14.7556V16H10V14.5778Z" fill="#279E19"/>
<path d="M16.0736 8.90113C16.0736 8.90113 15.1426 8.48175 14.4926 8.48175C13.8427 8.48175 13.4816 9.12186 13.4816 9.12186" stroke="#026A16" stroke-width="0.5"/>
<path d="M16.2805 9.32149C16.2805 9.32149 15.4238 9.01508 14.8257 9.01508C14.2277 9.01508 13.8954 9.48277 13.8954 9.48277" stroke="#026A16" stroke-width="0.5"/>
<path d="M16.2805 9.67709C16.2805 9.67709 15.6467 9.37067 15.2043 9.37067C14.7619 9.37067 14.5161 9.83836 14.5161 9.83836" stroke="#026A16" stroke-width="0.5"/>
<path d="M16.02 10.0326C16.02 10.0326 15.6284 9.7262 15.3551 9.7262C15.0818 9.7262 14.9299 10.1939 14.9299 10.1939" stroke="#026A16" stroke-width="0.5"/>
<path d="M15.9865 10.2752C15.9865 10.2752 15.8299 10.0817 15.7206 10.0817C15.6113 10.0817 15.5506 10.377 15.5506 10.377" stroke="#026A16" stroke-width="0.5"/>
<path d="M15.9264 8.90113C15.9264 8.90113 16.8574 8.48175 17.5074 8.48175C18.1573 8.48175 18.5184 9.12186 18.5184 9.12186" stroke="#026A16" stroke-width="0.5"/>
<path d="M15.7195 9.32149C15.7195 9.32149 16.5762 9.01508 17.1743 9.01508C17.7723 9.01508 18.1046 9.48277 18.1046 9.48277" stroke="#026A16" stroke-width="0.5"/>
<path d="M15.7195 9.67709C15.7195 9.67709 16.3533 9.37067 16.7957 9.37067C17.2381 9.37067 17.4839 9.83836 17.4839 9.83836" stroke="#026A16" stroke-width="0.5"/>
<path d="M15.98 10.0326C15.98 10.0326 16.3716 9.7262 16.6449 9.7262C16.9182 9.7262 17.0701 10.1939 17.0701 10.1939" stroke="#026A16" stroke-width="0.5"/>
<path d="M16.0135 10.2752C16.0135 10.2752 16.1701 10.0817 16.2794 10.0817C16.3887 10.0817 16.4494 10.377 16.4494 10.377" stroke="#026A16" stroke-width="0.5"/>
<path fill-rule="evenodd" clip-rule="evenodd" d="M15.8876 10.3982C15.8876 10.3982 15.7733 11.7356 15.7733 12.2799C15.7733 12.8242 15.8876 13.9986 15.8876 13.9986H16.1814C16.1814 13.9986 16.1814 12.7343 16.1814 12.2799C16.1814 11.8255 16.009 10.3982 16.009 10.3982H15.8876Z" fill="#FECA00"/>
<path fill-rule="evenodd" clip-rule="evenodd" d="M14.732 11.9185C14.732 11.9185 14.0078 12.3061 14.0078 13.4536L14.732 14.8392H16.0389V12.5575L14.732 11.9185Z" fill="#C51918"/>
<path fill-rule="evenodd" clip-rule="evenodd" d="M13.659 10.826C13.659 10.826 11.9681 11.3269 11.9681 13.1747L14.1588 13.3616C14.1588 13.3616 14.0391 12.288 14.7132 11.7914L13.659 10.826Z" fill="#0A328C"/>
<path d="M12.9609 10.1209L15.8613 12.779" stroke="#FFD018" stroke-width="0.5"/>
<path d="M11.9536 10.7228L15.999 13.3498" stroke="#FFD018" stroke-width="0.5"/>
<path d="M11.2571 11.7396L15.8167 13.8248" stroke="#FFD018" stroke-width="0.5"/>
<path fill-rule="evenodd" clip-rule="evenodd" d="M11.9798 13.1602L15.0055 13.4985L14.8351 13.9208H14.3554L14.6821 14.1593L15.4188 14.3318V13.9208H16.064V14.7939H14.6821L14.1521 14.1593C14.1521 14.1593 13.707 14.5982 13.2725 14.5982C12.8381 14.5982 12.4098 14.4556 12.4098 13.9771C12.4098 13.4985 12.4098 13.6441 12.4098 13.6441L11.9798 13.4985V13.1602Z" fill="#FECA00"/>
<path fill-rule="evenodd" clip-rule="evenodd" d="M16.8542 11.9185C16.8542 11.9185 17.5784 12.3061 17.5784 13.4536L16.8542 14.8392H15.5473V12.5575L16.8542 11.9185Z" fill="#C51918"/>
<path fill-rule="evenodd" clip-rule="evenodd" d="M17.9272 10.826C17.9272 10.826 19.618 11.3269 19.618 13.1747L17.4274 13.3616C17.4274 13.3616 17.5471 12.288 16.873 11.7914L17.9272 10.826Z" fill="#0A328C"/>
<path d="M18.6253 10.1209L15.7248 12.779" stroke="#FFD018" stroke-width="0.5"/>
<path d="M19.6326 10.7228L15.5872 13.3498" stroke="#FFD018" stroke-width="0.5"/>
<path d="M20.329 11.7396L15.7694 13.8248" stroke="#FFD018" stroke-width="0.5"/>
<path fill-rule="evenodd" clip-rule="evenodd" d="M19.6064 13.1602L16.5807 13.4985L16.7511 13.9208H17.2308L16.9041 14.1593L16.1673 14.3318V13.9208H15.5222V14.7939H16.9041L17.4341 14.1593C17.4341 14.1593 17.8792 14.5982 18.3137 14.5982C18.7481 14.5982 19.1764 14.4556 19.1764 13.9771C19.1764 13.4985 19.1764 13.6441 19.1764 13.6441L19.6064 13.4985V13.1602Z" fill="#FECA00"/>
</g>
</g>
</g>
<defs>
<clipPath id="clip0_30_17977">
<rect width="32" height="24" fill="white"/>
</clipPath>
</defs>
</svg>
