<svg width="32" height="24" viewBox="0 0 32 24" fill="none" xmlns="http://www.w3.org/2000/svg">
<g clip-path="url(#clip0_30_18128)">
<rect width="32" height="24" fill="white"/>
<path fill-rule="evenodd" clip-rule="evenodd" d="M0 0V24H32V0H0Z" fill="#E31D1C"/>
<mask id="mask0_30_18128" style="mask-type:luminance" maskUnits="userSpaceOnUse" x="0" y="0" width="32" height="24">
<path fill-rule="evenodd" clip-rule="evenodd" d="M0 0V24H32V0H0Z" fill="white"/>
</mask>
<g mask="url(#mask0_30_18128)">
<path fill-rule="evenodd" clip-rule="evenodd" d="M6.09352 4.14102C6.08583 4.0485 6.19654 4.00364 6.25916 4.07218C6.70829 4.56384 7.89534 5.78781 8.58182 5.78781C9.44083 5.78781 12.8144 2.94517 13.8116 3.40824C14.8087 3.87131 16.8276 8.71294 16.8276 8.71294L15.512 10.3632L13.8116 9.43558L13.4902 5.78781C13.4902 5.78781 10.2171 7.47129 8.58182 6.86022L7.66254 7.63269C7.66254 7.63269 6.77725 5.87969 6.42864 5.34351C6.19797 4.98874 6.11992 4.45893 6.09352 4.14102Z" fill="#F7FCFF"/>
<path fill-rule="evenodd" clip-rule="evenodd" d="M8.26189 8.12443L7.70209 8.46359L7.80901 7.74523L7.35612 7.23648L7.98199 7.13168L8.26189 6.47809L8.54179 7.13168L9.16766 7.23648L8.71477 7.74523L8.82169 8.46359L8.26189 8.12443Z" fill="#FECA00"/>
<path fill-rule="evenodd" clip-rule="evenodd" d="M13.0126 3.79203C13.0126 3.59171 13.175 3.42932 13.3753 3.42932V3.42932C13.5757 3.42932 13.7381 3.59171 13.7381 3.79203V5.50563C13.7381 5.70595 13.5757 5.86835 13.3753 5.86835V5.86835C13.175 5.86835 13.0126 5.70595 13.0126 5.50563L13.0126 3.79203Z" fill="#FECA00"/>
<path fill-rule="evenodd" clip-rule="evenodd" d="M25.2202 5.10343C25.3027 5.14594 25.2821 5.2636 25.1908 5.28038C24.5358 5.40073 22.8688 5.7588 22.505 6.34097C22.0498 7.06945 22.6728 11.4368 21.7517 12.037C20.8306 12.6373 15.6548 11.7837 15.6548 11.7837L14.9524 9.7935L16.6402 8.84303L19.904 10.5035C19.904 10.5035 20.2108 6.83569 21.5956 5.77268L21.4276 4.58374C21.4276 4.58374 23.3834 4.76192 24.0228 4.75041C24.4459 4.74279 24.9366 4.95736 25.2202 5.10343Z" fill="#F7FCFF"/>
<path fill-rule="evenodd" clip-rule="evenodd" d="M20.693 4.83142L20.702 4.17695L21.2546 4.64829L21.926 4.53382L21.6832 5.12013L22.0892 5.70384L21.3866 5.59486L20.966 6.07009L20.7746 5.41643L20.1087 5.12642L20.693 4.83142Z" fill="#FECA00"/>
<path fill-rule="evenodd" clip-rule="evenodd" d="M21.9142 11.2048C22.0938 11.3162 22.1527 11.55 22.0474 11.7332V11.7332C21.9343 11.9297 21.6785 11.9896 21.49 11.8637L19.9414 10.8294C19.8025 10.7366 19.7455 10.5605 19.8038 10.4039V10.4039C19.8832 10.1905 20.1382 10.1033 20.3317 10.2233L21.9142 11.2048Z" fill="#FECA00"/>
<path fill-rule="evenodd" clip-rule="evenodd" d="M14.8625 20.9837C14.7844 21.0339 14.6928 20.9572 14.724 20.8698C14.9472 20.2424 15.4706 18.6197 15.1484 18.0135C14.7451 17.2551 10.6514 15.6109 10.5921 14.5131C10.5328 13.4152 13.8599 9.35966 13.8599 9.35966L15.9347 9.74654L15.9139 11.6834L12.844 13.6797C12.844 13.6797 15.867 15.7793 16.0952 17.5101L17.2089 17.9591C17.2089 17.9591 16.0767 19.5637 15.7669 20.1233C15.562 20.4935 15.1308 20.8111 14.8625 20.9837Z" fill="#F7FCFF"/>
<path fill-rule="evenodd" clip-rule="evenodd" d="M17.3617 17.199L17.924 17.534L17.2395 17.7769L17.0029 18.4156L16.6165 17.9122L15.908 17.9719L16.3537 17.4179L16.1524 16.8161L16.8143 16.9771L17.3983 16.5455L17.3617 17.199Z" fill="#FECA00"/>
<path fill-rule="evenodd" clip-rule="evenodd" d="M11.1034 14.9572C10.8803 15.0424 10.6322 14.9178 10.5673 14.688V14.688C10.5103 14.4866 10.6157 14.2749 10.8107 14.1988L12.479 13.5478C12.6643 13.4754 12.8749 13.5455 12.98 13.7145V13.7145C13.1171 13.9351 13.0191 14.226 12.7765 14.3186L11.1034 14.9572Z" fill="#FECA00"/>
<path d="M13.6626 9.76495C13.5381 9.72146 13.4716 9.58286 13.5141 9.45537C13.5565 9.32788 13.7559 9.11492 13.8804 9.15841L15.6162 9.76495C15.7057 9.79625 15.7687 9.8789 15.7766 9.97549L15.9318 11.8793C15.9427 12.0136 15.7472 12.1222 15.6162 12.1334C15.4851 12.1446 15.37 12.0449 15.3591 11.9106L15.2154 10.2734L13.6626 9.76495Z" fill="#FECA00"/>
<path d="M16.6806 8.76755C16.7843 8.68479 16.9696 8.78071 17.0504 8.88699C17.1312 8.99328 17.1125 9.14652 17.0088 9.22928L15.8064 10.4617C15.7026 10.5445 15.4693 10.383 15.3885 10.2767C15.3077 10.1705 15.2847 9.88094 15.3885 9.79818L16.6806 8.76755Z" fill="#FECA00"/>
</g>
</g>
<defs>
<clipPath id="clip0_30_18128">
<rect width="32" height="24" fill="white"/>
</clipPath>
</defs>
</svg>
