<svg width="32" height="24" viewBox="0 0 32 24" fill="none" xmlns="http://www.w3.org/2000/svg">
<g clip-path="url(#clip0_30_18001)">
<rect width="32" height="24" fill="white"/>
<path fill-rule="evenodd" clip-rule="evenodd" d="M0 0V24H32V0H0Z" fill="#F7FCFF"/>
<mask id="mask0_30_18001" style="mask-type:luminance" maskUnits="userSpaceOnUse" x="0" y="0" width="32" height="24">
<path fill-rule="evenodd" clip-rule="evenodd" d="M0 0V24H32V0H0Z" fill="white"/>
</mask>
<g mask="url(#mask0_30_18001)">
<path fill-rule="evenodd" clip-rule="evenodd" d="M0 0V8H32V0H0Z" fill="#5EAA22"/>
<path fill-rule="evenodd" clip-rule="evenodd" d="M0 16V24H32V16H0Z" fill="#E31D1C"/>
<path fill-rule="evenodd" clip-rule="evenodd" d="M4.60068 16.3919V17.0258H2.26991V16.3919H4.60068ZM0.565702 17.9841H0.358728V17.7309H0.813422V18.618H1.39292V18.6248H1.95436V16.7832H1.59563V17.9909H1.54024V16.6872H1.18151V17.9841H1.17215V17.7309V16.6872H0.813422V17.097H0V18.618H0.179364H0.565702V17.9841ZM2.06653 18.3395H2.42525V17.711H2.82525V18.6247H3.95067V17.0781H3.37354V17.712H3.59194V17.9908H3.18398V17.0771H2.06653V18.3395ZM4.35849 17.9841H4.56546V18.618H4.17912H3.99976V17.097H4.81318V16.6872H5.17191V17.7309V17.9841H5.18127V16.6872H5.54V17.9909H5.59539V16.7832H5.95412V18.6248H5.39268V18.618H4.81318V17.7309H4.35849V17.9841ZM8.60044 16.3919V17.0258H6.26967V16.3919H8.60044ZM6.06629 18.3395H6.42502V17.711H6.82501V18.6247H7.95043V17.0781H7.3733V17.712H7.5917V17.9908H7.18374V17.0771H6.06629V18.3395ZM8.42967 17.9841H8.63665V18.618H8.25031H8.07094V17.097H8.88437V16.6872H9.2431V17.7309V17.9841H9.25246V16.6872H9.61119V17.9909H9.66658V16.7832H10.0253V18.6248H9.46386V18.618H8.88437V17.7309H8.42967V17.9841ZM12.6716 16.3919V17.0258H10.3409V16.3919H12.6716ZM10.1375 18.3395H10.4962V17.711H10.8962V18.6247H12.0216V17.0781H11.4445V17.712H11.6629V17.9908H11.2549V17.0771H10.1375V18.3395ZM12.4294 17.9841H12.6364V18.618H12.2501H12.0707V17.097H12.8841V16.6872H13.2429V17.7309V17.9841H13.2522V16.6872H13.6109V17.9909H13.6663V16.7832H14.0251V18.6248H13.4636V18.618H12.8841V17.7309H12.4294V17.9841ZM16.6714 16.3919V17.0258H14.3406V16.3919H16.6714ZM14.1372 18.3395H14.496V17.711H14.896V18.6247H16.0214V17.0781H15.4442V17.712H15.6626V17.9908H15.2547V17.0771H14.1372V18.3395ZM16.4292 17.9841H16.6362V18.618H16.2498H16.0705V17.097H16.8839V16.6872H17.2426V17.7309V17.9841H17.252V16.6872H17.6107V17.9909H17.6661V16.7832H18.0248V18.6248H17.4634V18.618H16.8839V17.7309H16.4292V17.9841ZM20.6711 16.3919V17.0258H18.3404V16.3919H20.6711ZM18.137 18.3395H18.4957V17.711H18.8957V18.6247H20.0211V17.0781H19.444V17.712H19.6624V17.9908H19.2544V17.0771H18.137V18.3395ZM20.5004 17.9841H20.7074V18.618H20.321H20.1417V17.097H20.9551V16.6872H21.3138V17.7309V17.9841H21.3232V16.6872H21.6819V17.9909H21.7373V16.7832H22.096V18.6248H21.5346V18.618H20.9551V17.7309H20.5004V17.9841ZM24.7423 16.3919V17.0258H22.4116V16.3919H24.7423ZM22.2082 18.3395H22.5669V17.711H22.9669V18.6247H24.0923V17.0781H23.5152V17.712H23.7336V17.9908H23.3256V17.0771H22.2082V18.3395ZM24.5716 17.9841H24.7785V18.618H24.3922H24.2128V17.097H25.0263V16.6872H25.385V17.7309V17.9841H25.3944V16.6872H25.7531V17.9909H25.8085V16.7832H26.1672V18.6248H25.6058V18.618H25.0263V17.7309H24.5716V17.9841ZM28.8135 16.3919V17.0258H26.4827V16.3919H28.8135ZM26.2794 18.3395H26.6381V17.711H27.0381V18.6247H28.1635V17.0781H27.5864V17.712H27.8048V17.9908H27.3968V17.0771H26.2794V18.3395ZM28.6427 17.9841H28.8497V18.618H28.4634H28.284V17.097H29.0974V16.6872H29.4562V17.7309V17.9841H29.4655V16.6872H29.8243V17.9909H29.8797V16.7832H30.2384V18.6248H29.6769V18.618H29.0974V17.7309H28.6427V17.9841ZM32.8847 16.3919V17.0258H30.5539V16.3919H32.8847ZM30.3505 18.3395H30.7093V17.711H31.1093V18.6247H32.2347V17.0781H31.6576V17.712H31.876V17.9908H31.468V17.0771H30.3505V18.3395ZM32.6425 17.9841H32.8495V18.618H32.4631H32.2838V17.097H33.0972V16.6872H33.4559V17.7309V17.9841H33.4653V16.6872H33.824V17.9909H33.8794V16.7832H34.2381V18.6248H33.6767V18.618H33.0972V17.7309H32.6425V17.9841ZM36.8845 16.3919V17.0258H34.5537V16.3919H36.8845ZM34.3503 18.3395H34.709V17.711H35.109V18.6247H36.2344V17.0781H35.6573V17.712H35.8757V17.9908H35.4678V17.0771H34.3503V18.3395ZM36.8565 17.9841H37.0635V18.618H36.6772H36.4978V17.097H37.3112V16.6872H37.67V17.7309V17.9841H37.6793V16.6872H38.0381V17.9909H38.0934V16.7832H38.4522V18.6248H37.8907V18.618H37.3112V17.7309H36.8565V17.9841ZM41.0985 16.3919V17.0258H38.7677V16.3919H41.0985ZM38.5643 18.3395H38.9231V17.711H39.3231V18.6247H40.4485V17.0781H39.8713V17.712H40.0897V17.9908H39.6818V17.0771H38.5643V18.3395Z" fill="#F7FCFF"/>
<path fill-rule="evenodd" clip-rule="evenodd" d="M0.484587 5.39191V6.02579H-1.84617V5.39191H0.484587ZM-3.55039 6.98414H-3.75736V6.7309H-3.30267V7.61802H-2.72317V7.62482H-2.16173V5.78324H-2.52046V6.99094H-2.57585V5.68724H-2.93457V6.98414H-2.94394V6.7309V5.68724H-3.30267V6.09702H-4.11609V7.61802H-3.93672H-3.55039V6.98414ZM-2.04956 7.33946H-1.69083V6.711H-1.29083V7.62465H-0.165423V6.07814H-0.742554V6.71202H-0.524152V6.99077H-0.932106V6.07712H-2.04956V7.33946ZM0.2424 6.98414H0.449373V7.61802H0.063036H-0.116328V6.09702H0.697093V5.68724H1.05582V6.7309V6.98414H1.06519V5.68724H1.42391V6.99094H1.4793V5.78324H1.83803V7.62482H1.27659V7.61802H0.697093V6.7309H0.2424V6.98414ZM4.48435 5.39191V6.02579H2.15359V5.39191H4.48435ZM1.9502 7.33946H2.30893V6.711H2.70893V7.62465H3.83434V6.07814H3.25721V6.71202H3.47561V6.99077H3.06765V6.07712H1.9502V7.33946ZM4.31358 6.98414H4.52056V7.61802H4.13422H3.95486V6.09702H4.76828V5.68724H5.12701V6.7309V6.98414H5.13637V5.68724H5.4951V6.99094H5.55049V5.78324H5.90922V7.62482H5.34777V7.61802H4.76828V6.7309H4.31358V6.98414ZM8.55553 5.39191V6.02579H6.22477V5.39191H8.55553ZM6.02138 7.33946H6.38011V6.711H6.78011V7.62465H7.90552V6.07814H7.32839V6.71202H7.54679V6.99077H7.13884V6.07712H6.02138V7.33946ZM8.31334 6.98414H8.52032V7.61802H8.13398H7.95462V6.09702H8.76804V5.68724H9.12677V6.7309V6.98414H9.13613V5.68724H9.49486V6.99094H9.55025V5.78324H9.90898V7.62482H9.34753V7.61802H8.76804V6.7309H8.31334V6.98414ZM12.5553 5.39191V6.02579H10.2245V5.39191H12.5553ZM10.0211 7.33946H10.3799V6.711H10.7799V7.62465H11.9053V6.07814H11.3282V6.71202H11.5466V6.99077H11.1386V6.07712H10.0211V7.33946ZM12.3131 6.98414H12.5201V7.61802H12.1337H11.9544V6.09702H12.7678V5.68724H13.1265V6.7309V6.98414H13.1359V5.68724H13.4946V6.99094H13.55V5.78324H13.9087V7.62482H13.3473V7.61802H12.7678V6.7309H12.3131V6.98414ZM16.5551 5.39191V6.02579H14.2243V5.39191H16.5551ZM14.0209 7.33946H14.3796V6.711H14.7796V7.62465H15.905V6.07814H15.3279V6.71202H15.5463V6.99077H15.1384V6.07712H14.0209V7.33946ZM16.3843 6.98414H16.5913V7.61802H16.2049H16.0256V6.09702H16.839V5.68724H17.1977V6.7309V6.98414H17.2071V5.68724H17.5658V6.99094H17.6212V5.78324H17.9799V7.62482H17.4185V7.61802H16.839V6.7309H16.3843V6.98414ZM20.6262 5.39191V6.02579H18.2955V5.39191H20.6262ZM18.0921 7.33946H18.4508V6.711H18.8508V7.62465H19.9762V6.07814H19.3991V6.71202H19.6175V6.99077H19.2095V6.07712H18.0921V7.33946ZM20.4555 6.98414H20.6624V7.61802H20.2761H20.0967V6.09702H20.9102V5.68724H21.2689V6.7309V6.98414H21.2783V5.68724H21.637V6.99094H21.6924V5.78324H22.0511V7.62482H21.4897V7.61802H20.9102V6.7309H20.4555V6.98414ZM24.6974 5.39191V6.02579H22.3667V5.39191H24.6974ZM22.1633 7.33946H22.522V6.711H22.922V7.62465H24.0474V6.07814H23.4703V6.71202H23.6887V6.99077H23.2807V6.07712H22.1633V7.33946ZM24.5267 6.98414H24.7336V7.61802H24.3473H24.1679V6.09702H24.9814V5.68724H25.3401V6.7309V6.98414H25.3494V5.68724H25.7082V6.99094H25.7636V5.78324H26.1223V7.62482H25.5608V7.61802H24.9814V6.7309H24.5267V6.98414ZM28.7686 5.39191V6.02579H26.4378V5.39191H28.7686ZM26.2345 7.33946H26.5932V6.711H26.9932V7.62465H28.1186V6.07814H27.5415V6.71202H27.7599V6.99077H27.3519V6.07712H26.2345V7.33946ZM28.5264 6.98414H28.7334V7.61802H28.3471H28.1677V6.09702H28.9811V5.68724H29.3398V6.7309V6.98414H29.3492V5.68724H29.7079V6.99094H29.7633V5.78324H30.1221V7.62482H29.5606V7.61802H28.9811V6.7309H28.5264V6.98414ZM32.7684 5.39191V6.02579H30.4376V5.39191H32.7684ZM30.2342 7.33946H30.5929V6.711H30.9929V7.62465H32.1184V6.07814H31.5412V6.71202H31.7596V6.99077H31.3517V6.07712H30.2342V7.33946ZM32.7405 6.98414H32.9474V7.61802H32.5611H32.3817V6.09702H33.1951V5.68724H33.5539V6.7309V6.98414H33.5632V5.68724H33.922V6.99094H33.9774V5.78324H34.3361V7.62482H33.7746V7.61802H33.1951V6.7309H32.7405V6.98414ZM36.9824 5.39191V6.02579H34.6516V5.39191H36.9824ZM34.4482 7.33946H34.807V6.711H35.207V7.62465H36.3324V6.07814H35.7553V6.71202H35.9737V6.99077H35.5657V6.07712H34.4482V7.33946Z" fill="#F7FCFF"/>
<path fill-rule="evenodd" clip-rule="evenodd" d="M14.6063 8.25C14.6063 8.25 15.0336 8.475 15.471 8.475C15.9084 8.475 16.3485 8.25 16.3485 8.25V8.55C16.3485 8.55 15.868 8.775 15.4425 8.775C15.017 8.775 14.6063 8.55 14.6063 8.55V8.25ZM11.4564 11.7906C11.4564 10.0126 13.8984 8.85 13.8984 8.85C13.8984 8.85 12.487 9.60621 12.487 11.7161C12.487 13.826 13.2197 14.7397 13.2197 14.7397C13.2197 14.7397 11.4564 13.5686 11.4564 11.7906ZM19.6941 11.6925C19.6941 9.91448 17.2544 8.85 17.2544 8.85C17.2544 8.85 18.6658 9.60621 18.6658 11.7161C18.6658 13.826 17.9331 14.7397 17.9331 14.7397C17.9331 14.7397 19.6941 13.4705 19.6941 11.6925ZM13.1235 12.1776C13.0305 10.402 14.5075 8.81052 14.5075 8.81052C14.5075 8.81052 13.9699 9.54185 14.0804 11.6488C14.1183 12.3723 14.4032 13.4486 14.7622 14.0832V8.925H16.2622V14.1279C16.6217 13.5352 16.8987 12.5246 16.9372 11.7906C17.0476 9.68361 16.5358 8.81052 16.5358 8.81052C16.5358 8.81052 18.0128 10.402 17.9198 12.1776C17.8644 13.2351 17.0507 14.3534 16.4016 15.0851C16.717 15.1554 17.1397 15.2411 17.7209 15.3559C17.7333 15.4202 17.6038 15.4172 17.3465 15.4113C17.0624 15.4047 16.6224 15.3946 16.0457 15.4675C15.7805 15.7393 15.5959 15.9004 15.5959 15.9004C15.5959 15.9004 15.5667 15.861 15.5217 15.8064C15.4766 15.861 15.4474 15.9004 15.4474 15.9004C15.4474 15.9004 15.2628 15.7393 14.9977 15.4675C14.4209 15.3946 13.981 15.4047 13.6969 15.4113C13.4395 15.4172 13.31 15.4202 13.3224 15.3559C13.9036 15.2411 14.3263 15.1554 14.6417 15.0851C13.9926 14.3534 13.1789 13.2351 13.1235 12.1776Z" fill="#E31D1C"/>
</g>
</g>
<defs>
<clipPath id="clip0_30_18001">
<rect width="32" height="24" fill="white"/>
</clipPath>
</defs>
</svg>
