<svg width="32" height="24" viewBox="0 0 32 24" fill="none" xmlns="http://www.w3.org/2000/svg">
<g clip-path="url(#clip0_30_18152)">
<rect width="32" height="24" fill="white"/>
<path fill-rule="evenodd" clip-rule="evenodd" d="M0 0H32V24H0V0Z" fill="#0067C3"/>
<path fill-rule="evenodd" clip-rule="evenodd" d="M0 0V8H32V0H0Z" fill="#272727"/>
<path fill-rule="evenodd" clip-rule="evenodd" d="M0 16V24H32V16H0Z" fill="#4E8B1D"/>
<path d="M0 7H-1V8V16V17H0H32H33V16V8V7H32H0Z" fill="#E31D1C" stroke="#F7FCFF" stroke-width="2"/>
<ellipse cx="16" cy="12" rx="4" ry="8" fill="#AC2317"/>
<path d="M19.6234 4.03049C19.8517 3.61976 20.4657 3.17124 21.4653 2.68494C21.4996 2.66823 21.5411 2.66727 21.5764 2.68238C21.6362 2.70794 21.661 2.77114 21.6315 2.82341L11.274 21.4516L10.7347 21.2209L19.8648 4.80027C19.4513 4.74119 19.3709 4.4846 19.6234 4.03049Z" fill="white"/>
<path d="M12.3655 4.03049C12.618 4.4846 12.5375 4.74119 12.124 4.80027L21.2541 21.2209L20.7149 21.4516L10.3573 2.82341C10.3279 2.77114 10.3527 2.70794 10.4124 2.68238C10.4477 2.66727 10.4892 2.66823 10.5236 2.68494C11.5231 3.17124 12.1371 3.61976 12.3655 4.03049Z" fill="white"/>
<path fill-rule="evenodd" clip-rule="evenodd" d="M19.3846 16.2655C19.7744 15.0308 19.9999 13.5681 19.9999 12C19.9999 10.4319 19.7744 8.96919 19.3846 7.73456C18.5075 8.96919 17.9999 10.4319 17.9999 12C17.9999 13.5681 18.5075 15.0308 19.3846 16.2655Z" fill="black"/>
<path fill-rule="evenodd" clip-rule="evenodd" d="M12.6153 7.73456C12.2255 8.96919 11.9999 10.4319 11.9999 12C11.9999 13.5681 12.2255 15.0308 12.6153 16.2655C13.4924 15.0308 13.9999 13.5681 13.9999 12C13.9999 10.4319 13.4924 8.96919 12.6153 7.73456Z" fill="black"/>
<path fill-rule="evenodd" clip-rule="evenodd" d="M16.24 11.4C16.7877 11.0586 17.2 9.57187 17.2 7.78947C17.2 6.00707 16.7877 4.5203 16.24 4.17896V11.4ZM15.64 11.305C15.1531 10.8355 14.8 9.43912 14.8 7.78947C14.8 6.13983 15.1531 4.74341 15.64 4.27394V11.305ZM15.64 12.8002V19.8314C15.1531 19.3619 14.7999 17.9655 14.7999 16.3158C14.7999 14.6661 15.1531 13.2696 15.64 12.8002ZM15.9984 20C15.9989 20 15.9994 20 15.9999 20C16.0004 20 16.0009 20 16.0014 20H15.9984ZM16.24 19.9263V12.7053C16.7877 13.0467 17.1999 14.5334 17.1999 16.3158C17.1999 18.0981 16.7877 19.5849 16.24 19.9263Z" fill="#F7FCFF"/>
<path d="M15.9999 11.4737C16.6627 11.4737 17.1999 11.9449 17.1999 12.5263C17.1999 13.1076 16.6627 13.5789 15.9999 13.5789C15.3372 13.5789 14.7999 13.1076 14.7999 12.5263C14.7999 11.9449 15.3372 11.4737 15.9999 11.4737Z" fill="#F7FCFF"/>
</g>
<defs>
<clipPath id="clip0_30_18152">
<rect width="32" height="24" fill="white"/>
</clipPath>
</defs>
</svg>
