<svg width="32" height="24" viewBox="0 0 32 24" fill="none" xmlns="http://www.w3.org/2000/svg">
<g clip-path="url(#clip0_30_18005)">
<rect width="32" height="24" fill="white"/>
<path d="M0 0H32V24H0V0Z" fill="#032EA1"/>
<path d="M0 6H32V18H0V6Z" fill="#E00025"/>
<path d="M12.62 11.3101H19.448V13.9381H12.62V11.3101Z" fill="white" stroke="black" stroke-width="0.06" stroke-linejoin="bevel"/>
<path fill-rule="evenodd" clip-rule="evenodd" d="M19.448 11.85H12.62V12.126H19.448V11.85ZM12.62 12.27H19.448V12.57H12.62V12.27ZM19.1 12.756H19.31V13.746H19.1V12.756Z" fill="white"/>
<path d="M12.62 11.85V11.82L12.59 11.85H12.62ZM19.448 11.85H19.478L19.448 11.82V11.85ZM12.62 12.126H12.59L12.62 12.156V12.126ZM19.448 12.126V12.156L19.478 12.126H19.448ZM19.448 12.27H19.478L19.448 12.24V12.27ZM12.62 12.27V12.24L12.59 12.27H12.62ZM19.448 12.57V12.6L19.478 12.57H19.448ZM12.62 12.57H12.59L12.62 12.6V12.57ZM19.31 12.756H19.34L19.31 12.726V12.756ZM19.1 12.756V12.726L19.07 12.756H19.1ZM19.31 13.746V13.776L19.34 13.746H19.31ZM19.1 13.746H19.07L19.1 13.776V13.746ZM12.62 11.88H19.448V11.82H12.62V11.88ZM12.65 12.126V11.85H12.59V12.126H12.65ZM19.448 12.096H12.62V12.156H19.448V12.096ZM19.418 11.85V12.126H19.478V11.85H19.418ZM19.448 12.24H12.62V12.3H19.448V12.24ZM19.478 12.57V12.27H19.418V12.57H19.478ZM12.62 12.6H19.448V12.54H12.62V12.6ZM12.59 12.27V12.57H12.65V12.27H12.59ZM19.31 12.726H19.1V12.786H19.31V12.726ZM19.34 13.746V12.756H19.28V13.746H19.34ZM19.1 13.776H19.31V13.716H19.1V13.776ZM19.07 12.756V13.746H19.13V12.756H19.07Z" fill="black"/>
<path d="M12.62 11.442H19.448V11.7H12.62V11.442Z" fill="white" stroke="black" stroke-width="0.06" stroke-linejoin="bevel"/>
<path fill-rule="evenodd" clip-rule="evenodd" d="M12.89 12.756H12.68V13.746H12.89V12.756ZM14.42 12.756H14.636V13.746H14.42V12.756ZM17.36 12.756H17.576V13.746H17.36V12.756ZM13.1 12.756H13.31V13.746H13.1V12.756ZM13.76 12.756H13.55V13.746H13.76V12.756ZM14 12.756H14.21V13.746H14V12.756ZM17.984 12.756H17.768V13.746H17.984V12.756ZM18.218 12.756H18.434V13.746H18.218V12.756ZM18.884 12.756H18.668V13.746H18.884V12.756Z" fill="white"/>
<path d="M12.68 12.756V12.726L12.65 12.756H12.68ZM12.89 12.756H12.92L12.89 12.726V12.756ZM12.68 13.746H12.65L12.68 13.776V13.746ZM12.89 13.746V13.776L12.92 13.746H12.89ZM14.636 12.756H14.666L14.636 12.726V12.756ZM14.42 12.756V12.726L14.39 12.756H14.42ZM14.636 13.746V13.776L14.666 13.746H14.636ZM14.42 13.746H14.39L14.42 13.776V13.746ZM17.576 12.756H17.606L17.576 12.726V12.756ZM17.36 12.756V12.726L17.33 12.756H17.36ZM17.576 13.746V13.776L17.606 13.746H17.576ZM17.36 13.746H17.33L17.36 13.776V13.746ZM13.31 12.756H13.34L13.31 12.726V12.756ZM13.1 12.756V12.726L13.07 12.756H13.1ZM13.31 13.746V13.776L13.34 13.746H13.31ZM13.1 13.746H13.07L13.1 13.776V13.746ZM13.55 12.756V12.726L13.52 12.756H13.55ZM13.76 12.756H13.79L13.76 12.726V12.756ZM13.55 13.746H13.52L13.55 13.776V13.746ZM13.76 13.746V13.776L13.79 13.746H13.76ZM14.21 12.756H14.24L14.21 12.726V12.756ZM14 12.756V12.726L13.97 12.756H14ZM14.21 13.746V13.776L14.24 13.746H14.21ZM14 13.746H13.97L14 13.776V13.746ZM17.768 12.756V12.726L17.738 12.756H17.768ZM17.984 12.756H18.014L17.984 12.726V12.756ZM17.768 13.746H17.738L17.768 13.776V13.746ZM17.984 13.746V13.776L18.014 13.746H17.984ZM18.434 12.756H18.464L18.434 12.726V12.756ZM18.218 12.756V12.726L18.188 12.756H18.218ZM18.434 13.746V13.776L18.464 13.746H18.434ZM18.218 13.746H18.188L18.218 13.776V13.746ZM18.668 12.756V12.726L18.638 12.756H18.668ZM18.884 12.756H18.914L18.884 12.726V12.756ZM18.668 13.746H18.638L18.668 13.776V13.746ZM18.884 13.746V13.776L18.914 13.746H18.884ZM12.68 12.786H12.89V12.726H12.68V12.786ZM12.71 13.746V12.756H12.65V13.746H12.71ZM12.89 13.716H12.68V13.776H12.89V13.716ZM12.86 12.756V13.746H12.92V12.756H12.86ZM14.636 12.726H14.42V12.786H14.636V12.726ZM14.666 13.746V12.756H14.606V13.746H14.666ZM14.42 13.776H14.636V13.716H14.42V13.776ZM14.39 12.756V13.746H14.45V12.756H14.39ZM17.576 12.726H17.36V12.786H17.576V12.726ZM17.606 13.746V12.756H17.546V13.746H17.606ZM17.36 13.776H17.576V13.716H17.36V13.776ZM17.33 12.756V13.746H17.39V12.756H17.33ZM13.31 12.726H13.1V12.786H13.31V12.726ZM13.34 13.746V12.756H13.28V13.746H13.34ZM13.1 13.776H13.31V13.716H13.1V13.776ZM13.07 12.756V13.746H13.13V12.756H13.07ZM13.55 12.786H13.76V12.726H13.55V12.786ZM13.58 13.746V12.756H13.52V13.746H13.58ZM13.76 13.716H13.55V13.776H13.76V13.716ZM13.73 12.756V13.746H13.79V12.756H13.73ZM14.21 12.726H14V12.786H14.21V12.726ZM14.24 13.746V12.756H14.18V13.746H14.24ZM14 13.776H14.21V13.716H14V13.776ZM13.97 12.756V13.746H14.03V12.756H13.97ZM17.768 12.786H17.984V12.726H17.768V12.786ZM17.798 13.746V12.756H17.738V13.746H17.798ZM17.984 13.716H17.768V13.776H17.984V13.716ZM17.954 12.756V13.746H18.014V12.756H17.954ZM18.434 12.726H18.218V12.786H18.434V12.726ZM18.464 13.746V12.756H18.404V13.746H18.464ZM18.218 13.776H18.434V13.716H18.218V13.776ZM18.188 12.756V13.746H18.248V12.756H18.188ZM18.668 12.786H18.884V12.726H18.668V12.786ZM18.698 13.746V12.756H18.638V13.746H18.698ZM18.884 13.716H18.668V13.776H18.884V13.716ZM18.854 12.756V13.746H18.914V12.756H18.854Z" fill="black"/>
<path d="M9.95001 14.07C10.0755 14.0017 10.17 13.8879 10.214 13.752H21.8C21.8441 13.8879 21.9386 14.0017 22.064 14.07H9.95001Z" fill="white" stroke="black" stroke-width="0.06"/>
<path fill-rule="evenodd" clip-rule="evenodd" d="M15.998 7.05603C15.854 7.06203 15.86 7.30803 15.86 7.30803H16.13C16.13 7.30803 16.136 7.05603 15.998 7.05603ZM15.11 10.248V10.578H16.886V10.248C16.8892 10.1577 16.9376 10.1125 16.9816 10.0713C17.0194 10.0359 17.054 10.0035 17.054 9.94803C17.054 9.94803 17.078 9.76803 17.024 9.68403C16.964 9.92403 16.844 9.88203 16.844 9.78003C16.844 9.70703 16.8939 9.63402 16.9975 9.48225L17.048 9.40803C17.096 9.33603 17.066 9.12603 17.006 9.04803C16.982 9.23403 16.952 9.31803 16.874 9.31803C16.826 9.31803 16.784 9.28803 16.784 9.19803C16.784 9.12491 16.8152 9.07406 16.8477 9.02106C16.8686 8.98708 16.89 8.95222 16.904 8.91003C16.9478 8.80141 16.9244 8.67723 16.844 8.59203C16.8388 8.6236 16.8346 8.65184 16.8309 8.67696L16.8309 8.67696C16.8135 8.79507 16.8063 8.84403 16.742 8.84403C16.591 8.79929 16.7215 8.5877 16.7691 8.51061L16.778 8.49603C16.808 8.38203 16.718 8.29203 16.718 8.29203C16.67 8.44803 16.658 8.46603 16.598 8.44803C16.526 8.43003 16.538 8.32803 16.622 8.24403C16.676 8.19003 16.67 8.10603 16.61 8.04603C16.55 8.16603 16.454 8.14803 16.466 8.07603L16.52 7.81803L16.448 7.81803L16.472 7.63203H15.518L15.542 7.81803L15.476 7.81803L15.524 8.08203C15.518 8.15403 15.446 8.16003 15.386 8.04603C15.326 8.10603 15.32 8.18403 15.374 8.24403C15.458 8.32803 15.47 8.43003 15.398 8.44803C15.338 8.46603 15.326 8.45403 15.278 8.29203C15.278 8.29203 15.182 8.43003 15.218 8.49603L15.2284 8.5128C15.277 8.59096 15.4036 8.79418 15.254 8.84403C15.1897 8.84403 15.1825 8.79507 15.1651 8.67696C15.1614 8.65184 15.1573 8.6236 15.152 8.59203C15.0696 8.67593 15.0438 8.80026 15.086 8.91003C15.1013 8.94921 15.1212 8.98208 15.1405 9.01378C15.1743 9.06946 15.206 9.12157 15.206 9.19803C15.206 9.28803 15.17 9.31803 15.122 9.31803C15.044 9.31803 15.014 9.22803 14.99 9.04803C14.93 9.12603 14.9 9.33603 14.948 9.40203L14.9787 9.44859C15.0949 9.62503 15.146 9.70253 15.146 9.78003C15.146 9.88203 15.032 9.92403 14.966 9.68403C14.918 9.76803 14.942 9.94803 14.942 9.94803C14.942 10.003 14.9773 10.0353 15.0155 10.0703C15.0607 10.1118 15.11 10.157 15.11 10.248ZM15.59 7.47603L15.602 7.62603H16.382L16.4 7.47603H15.59ZM15.74 7.47003L15.722 7.31403H16.262L16.256 7.47003H15.74ZM17.42 13.77C17.42 13.896 17.6 14.028 17.72 14.07H14.33C14.45 14.028 14.57 13.896 14.57 13.77V12.312L14.42 12.108H17.576L17.42 12.312V13.77Z" fill="white"/>
<path d="M15.86 7.30803L15.83 7.30876L15.8307 7.33803H15.86V7.30803ZM15.998 7.05603V7.026L15.9968 7.02606L15.998 7.05603ZM16.13 7.30803V7.33803H16.1593L16.16 7.30874L16.13 7.30803ZM15.11 10.578H15.08V10.608H15.11V10.578ZM16.886 10.578V10.608H16.916V10.578H16.886ZM16.886 10.248L16.856 10.247V10.248H16.886ZM16.9816 10.0713L17.0021 10.0932L17.0021 10.0932L16.9816 10.0713ZM17.054 9.94803L17.024 9.94403V9.94803H17.054ZM17.024 9.68403L17.0493 9.66781L17.0117 9.60945L16.9949 9.67675L17.024 9.68403ZM16.9975 9.48225L17.0223 9.49917L17.0223 9.49913L16.9975 9.48225ZM17.048 9.40803L17.0728 9.42491L17.073 9.42467L17.048 9.40803ZM17.006 9.04803L17.0298 9.02974L16.9856 8.97222L16.9763 9.04419L17.006 9.04803ZM16.8477 9.02106L16.8733 9.03675L16.8733 9.03675L16.8477 9.02106ZM16.904 8.91003L16.8761 8.89879L16.8756 8.90054L16.904 8.91003ZM16.844 8.59203L16.8658 8.57145L16.8244 8.52747L16.8144 8.5871L16.844 8.59203ZM16.8309 8.67696L16.8604 8.68232L16.8606 8.68132L16.8309 8.67696ZM16.8309 8.67696L16.8014 8.67159L16.8012 8.6726L16.8309 8.67696ZM16.742 8.84403L16.7331 8.87403H16.742V8.84403ZM16.7691 8.51061L16.7946 8.52636L16.7947 8.52627L16.7691 8.51061ZM16.778 8.49603L16.8047 8.51239L16.807 8.50367L16.778 8.49603ZM16.718 8.29203L16.7392 8.27082L16.704 8.23558L16.6893 8.28321L16.718 8.29203ZM16.598 8.44803L16.6066 8.41926L16.6053 8.41893L16.598 8.44803ZM16.61 8.04603L16.6312 8.02482L16.6018 7.99539L16.5832 8.03261L16.61 8.04603ZM16.466 8.07603L16.4366 8.06988L16.4364 8.0711L16.466 8.07603ZM16.52 7.81803L16.5494 7.82418L16.5569 7.78803L16.52 7.78803L16.52 7.81803ZM16.448 7.81803L16.4183 7.81419L16.4139 7.84803L16.448 7.84803L16.448 7.81803ZM16.472 7.63203L16.5018 7.63587L16.5061 7.60203H16.472V7.63203ZM15.518 7.63203V7.60203H15.4839L15.4883 7.63587L15.518 7.63203ZM15.542 7.81803L15.542 7.84803L15.5761 7.84803L15.5718 7.81419L15.542 7.81803ZM15.476 7.81803L15.476 7.78803L15.4401 7.78803L15.4465 7.8234L15.476 7.81803ZM15.524 8.08203L15.555 8.08461L15.5535 8.07666L15.524 8.08203ZM15.386 8.04603L15.4126 8.03206L15.3936 7.99602L15.3648 8.02482L15.386 8.04603ZM15.374 8.24403L15.3517 8.26413L15.3528 8.26524L15.374 8.24403ZM15.398 8.44803L15.3907 8.41889L15.3894 8.4193L15.398 8.44803ZM15.278 8.29203L15.3068 8.28351L15.289 8.22365L15.2534 8.2749L15.278 8.29203ZM15.218 8.49603L15.1916 8.51042L15.1925 8.51177L15.218 8.49603ZM15.2284 8.5128L15.2028 8.52855L15.2029 8.52866L15.2284 8.5128ZM15.254 8.84403V8.87565L15.2635 8.87249L15.254 8.84403ZM15.1651 8.67696L15.1948 8.6726L15.1948 8.6726L15.1651 8.67696ZM15.152 8.59203L15.1816 8.5871L15.1719 8.52897L15.1306 8.571L15.152 8.59203ZM15.086 8.91003L15.058 8.9208L15.0581 8.9209L15.086 8.91003ZM15.1405 9.01378L15.1661 8.9982L15.1661 8.9982L15.1405 9.01378ZM14.99 9.04803L15.0198 9.04407L15.0102 8.97256L14.9662 9.02974L14.99 9.04803ZM14.948 9.40203L14.9731 9.38552L14.9723 9.38439L14.948 9.40203ZM14.9787 9.44859L14.9536 9.46508L14.9536 9.4651L14.9787 9.44859ZM14.966 9.68403L14.9949 9.67608L14.9758 9.60645L14.94 9.66915L14.966 9.68403ZM14.942 9.94803H14.9723L14.9718 9.94407L14.942 9.94803ZM15.0155 10.0703L15.0357 10.0482L15.0357 10.0482L15.0155 10.0703ZM15.602 7.62603L15.5721 7.62842L15.5743 7.65603H15.602V7.62603ZM15.59 7.47603V7.44603H15.5575L15.5601 7.47842L15.59 7.47603ZM16.382 7.62603V7.65603H16.4086L16.4118 7.6296L16.382 7.62603ZM16.4 7.47603L16.4298 7.4796L16.4338 7.44603H16.4V7.47603ZM15.722 7.31403V7.28403H15.6884L15.6922 7.31747L15.722 7.31403ZM15.74 7.47003L15.7102 7.47347L15.7133 7.50003H15.74V7.47003ZM16.262 7.31403L16.292 7.31518L16.2932 7.28403H16.262V7.31403ZM16.256 7.47003V7.50003H16.2849L16.286 7.47118L16.256 7.47003ZM17.72 14.07V14.1L17.7299 14.0417L17.72 14.07ZM14.33 14.07L14.3201 14.0417L14.33 14.1V14.07ZM14.57 12.312H14.6V12.3022L14.5942 12.2943L14.57 12.312ZM14.42 12.108V12.078H14.3607L14.3958 12.1258L14.42 12.108ZM17.576 12.108L17.5998 12.1263L17.6367 12.078H17.576V12.108ZM17.42 12.312L17.3962 12.2938L17.39 12.3019V12.312H17.42ZM15.86 7.30803C15.89 7.3073 15.89 7.30731 15.89 7.30731C15.89 7.30731 15.89 7.30732 15.89 7.30732C15.89 7.30733 15.89 7.30733 15.89 7.30732C15.89 7.30732 15.89 7.3073 15.89 7.30726C15.89 7.30719 15.89 7.30706 15.89 7.30688C15.89 7.30651 15.89 7.30592 15.89 7.30512C15.89 7.30352 15.89 7.3011 15.89 7.29797C15.8901 7.2917 15.8905 7.28263 15.8913 7.27168C15.8929 7.24964 15.8964 7.22069 15.904 7.19197C15.9117 7.16292 15.923 7.13624 15.9389 7.11701C15.954 7.09862 15.9731 7.0871 15.9993 7.086L15.9968 7.02606C15.951 7.02796 15.9168 7.04944 15.8925 7.07887C15.869 7.10744 15.8548 7.14339 15.846 7.17659C15.8371 7.21012 15.8332 7.24304 15.8314 7.26732C15.8305 7.27953 15.8302 7.28972 15.83 7.29693C15.83 7.30053 15.83 7.3034 15.83 7.30541C15.83 7.30642 15.83 7.30721 15.83 7.30777C15.83 7.30805 15.83 7.30828 15.83 7.30844C15.83 7.30853 15.83 7.30859 15.83 7.30865C15.83 7.30867 15.83 7.3087 15.83 7.30872C15.83 7.30873 15.83 7.30874 15.83 7.30874C15.83 7.30875 15.83 7.30876 15.86 7.30803ZM16.13 7.27803H15.86V7.33803H16.13V7.27803ZM15.998 7.08603C16.0218 7.08603 16.0392 7.09628 16.0534 7.11411C16.0684 7.13294 16.0793 7.15972 16.0867 7.18931C16.094 7.2185 16.0973 7.2481 16.0989 7.27067C16.0996 7.28189 16.0999 7.29121 16.1 7.29766C16.1001 7.30088 16.1001 7.30338 16.1001 7.30503C16.1 7.30586 16.1 7.30647 16.1 7.30686C16.1 7.30705 16.1 7.30719 16.1 7.30726C16.1 7.3073 16.1 7.30733 16.1 7.30733C16.1 7.30734 16.1 7.30734 16.1 7.30734C16.1 7.30734 16.1 7.30733 16.1 7.30733C16.1 7.30732 16.1 7.30732 16.13 7.30803C16.16 7.30874 16.16 7.30874 16.16 7.30873C16.16 7.30872 16.16 7.30871 16.16 7.3087C16.16 7.30868 16.16 7.30866 16.16 7.30863C16.16 7.30858 16.16 7.30851 16.16 7.30843C16.16 7.30827 16.16 7.30804 16.16 7.30776C16.16 7.30719 16.16 7.30639 16.1601 7.30537C16.1601 7.30333 16.1601 7.30041 16.16 7.29674C16.1599 7.28941 16.1596 7.27904 16.1587 7.26664C16.1571 7.24197 16.1533 7.20857 16.1449 7.17475C16.1365 7.14134 16.123 7.10512 16.1003 7.0767C16.0768 7.04728 16.0432 7.02603 15.998 7.02603V7.08603ZM15.14 10.578V10.248H15.08V10.578H15.14ZM16.886 10.548H15.11V10.608H16.886V10.548ZM16.856 10.248V10.578H16.916V10.248H16.856ZM16.9611 10.0494C16.9168 10.0908 16.8597 10.1435 16.856 10.247L16.916 10.2491C16.9188 10.1719 16.9584 10.1341 17.0021 10.0932L16.9611 10.0494ZM17.024 9.94803C17.024 9.9887 17.0003 10.0127 16.9611 10.0494L17.0021 10.0932C17.0385 10.0591 17.084 10.0183 17.084 9.94803H17.024ZM16.9988 9.70025C17.0208 9.73446 17.0285 9.7927 17.0293 9.84794C17.0296 9.87455 17.0284 9.89873 17.027 9.91628C17.0263 9.92503 17.0256 9.93209 17.0251 9.9369C17.0249 9.93931 17.0246 9.94115 17.0245 9.94237C17.0244 9.94298 17.0244 9.94343 17.0243 9.94372C17.0243 9.94386 17.0243 9.94396 17.0243 9.94402C17.0243 9.94405 17.0243 9.94407 17.0243 9.94407C17.0243 9.94408 17.0243 9.94408 17.0243 9.94408C17.0243 9.94408 17.0243 9.94407 17.0243 9.94407C17.0243 9.94407 17.0243 9.94407 17.054 9.94803C17.0838 9.952 17.0838 9.95199 17.0838 9.95198C17.0838 9.95198 17.0838 9.95197 17.0838 9.95197C17.0838 9.95195 17.0838 9.95194 17.0838 9.95192C17.0838 9.95189 17.0838 9.95184 17.0838 9.95178C17.0838 9.95167 17.0838 9.95151 17.0838 9.95131C17.0839 9.95091 17.084 9.95034 17.0841 9.94961C17.0842 9.94814 17.0845 9.94604 17.0848 9.94336C17.0853 9.93801 17.0861 9.93034 17.0868 9.92091C17.0883 9.90208 17.0897 9.87601 17.0893 9.84713C17.0885 9.79136 17.0813 9.7176 17.0493 9.66781L16.9988 9.70025ZM16.814 9.78003C16.814 9.81105 16.8231 9.84009 16.8407 9.86109C16.8588 9.8827 16.8861 9.89534 16.9168 9.88981C16.9462 9.88451 16.9729 9.86369 16.9952 9.83179C17.0176 9.79961 17.0376 9.75349 17.0531 9.69131L16.9949 9.67675C16.9805 9.73457 16.9629 9.7732 16.946 9.79746C16.9289 9.822 16.9143 9.8293 16.9062 9.83075C16.8995 9.83197 16.8929 9.82998 16.8867 9.82253C16.8799 9.81447 16.874 9.80001 16.874 9.78003H16.814ZM16.9727 9.46533C16.9213 9.54071 16.8819 9.59832 16.8556 9.64625C16.8291 9.69453 16.814 9.73625 16.814 9.78003H16.874C16.874 9.75081 16.8838 9.71953 16.9082 9.6751C16.9327 9.63035 16.9701 9.57557 17.0223 9.49917L16.9727 9.46533ZM17.0232 9.39115L16.9727 9.46537L17.0223 9.49913L17.0728 9.42491L17.0232 9.39115ZM16.9822 9.06632C17.0074 9.09906 17.029 9.16475 17.0378 9.23404C17.042 9.26799 17.043 9.30115 17.0403 9.32949C17.0375 9.35854 17.031 9.37941 17.0231 9.39139L17.073 9.42467C17.089 9.40065 17.0968 9.36827 17.1 9.33526C17.1033 9.30154 17.102 9.26382 17.0973 9.22652C17.088 9.15331 17.0646 9.075 17.0298 9.02974L16.9822 9.06632ZM16.874 9.34803C16.8994 9.34803 16.9224 9.34103 16.9423 9.32587C16.9617 9.31111 16.9762 9.29011 16.9875 9.26526C17.0099 9.21641 17.0238 9.14472 17.0358 9.05187L16.9763 9.04419C16.9642 9.13734 16.9511 9.20065 16.933 9.2403C16.9241 9.2597 16.9149 9.27133 16.906 9.27813C16.8976 9.28453 16.8877 9.28803 16.874 9.28803V9.34803ZM16.754 9.19803C16.754 9.24723 16.7655 9.28542 16.7885 9.3116C16.812 9.33834 16.8436 9.34803 16.874 9.34803V9.28803C16.8564 9.28803 16.843 9.28272 16.8335 9.27196C16.8236 9.26064 16.814 9.23883 16.814 9.19803H16.754ZM16.8222 9.00537C16.7899 9.05797 16.754 9.11546 16.754 9.19803H16.814C16.814 9.13435 16.8405 9.09015 16.8733 9.03675L16.8222 9.00537ZM16.8756 8.90054C16.8627 8.939 16.8432 8.9711 16.8222 9.00537L16.8733 9.03675C16.894 9.00307 16.9172 8.96544 16.9325 8.91952L16.8756 8.90054ZM16.8222 8.61261C16.8945 8.6893 16.9156 8.80105 16.8762 8.89881L16.9318 8.92125C16.98 8.80176 16.9542 8.66517 16.8658 8.57145L16.8222 8.61261ZM16.8606 8.68132C16.8643 8.65619 16.8684 8.62821 16.8736 8.59696L16.8144 8.5871C16.8091 8.61898 16.8049 8.64749 16.8012 8.67259L16.8606 8.68132ZM16.8604 8.68233L16.8604 8.68232L16.8014 8.67159L16.8014 8.6716L16.8604 8.68233ZM16.742 8.87403C16.7618 8.87403 16.7805 8.87025 16.7968 8.85976C16.8132 8.84922 16.8239 8.83398 16.8315 8.81698C16.8456 8.78525 16.8522 8.7383 16.8606 8.68133L16.8012 8.6726C16.7922 8.73373 16.7866 8.77031 16.7767 8.79259C16.7722 8.80259 16.768 8.80698 16.7644 8.80931C16.7607 8.81169 16.7544 8.81403 16.742 8.81403V8.87403ZM16.7436 8.49486C16.7202 8.53277 16.6733 8.60839 16.6523 8.68112C16.6418 8.71733 16.6364 8.75707 16.6471 8.79257C16.6586 8.83062 16.6872 8.85906 16.7335 8.87279L16.7505 8.81527C16.7214 8.80663 16.7096 8.79184 16.7046 8.77522C16.6988 8.75606 16.7007 8.72969 16.7099 8.69778C16.7283 8.63426 16.7705 8.56554 16.7946 8.52636L16.7436 8.49486ZM16.7524 8.48037L16.7435 8.49494L16.7947 8.52627L16.8036 8.51169L16.7524 8.48037ZM16.718 8.29203C16.6968 8.31324 16.6968 8.31324 16.6968 8.31323C16.6968 8.31323 16.6968 8.31322 16.6968 8.31321C16.6968 8.31321 16.6968 8.3132 16.6968 8.31319C16.6967 8.31318 16.6967 8.31318 16.6967 8.31317C16.6967 8.31317 16.6968 8.31319 16.6968 8.31323C16.6969 8.31331 16.697 8.31347 16.6973 8.31372C16.6977 8.31421 16.6985 8.31501 16.6995 8.31613C16.7015 8.31836 16.7044 8.3218 16.708 8.32632C16.715 8.3354 16.7242 8.3486 16.7325 8.36491C16.7493 8.39772 16.7615 8.44093 16.749 8.4884L16.807 8.50367C16.8245 8.43713 16.8068 8.37834 16.786 8.33765C16.7756 8.31721 16.7641 8.30078 16.7553 8.28943C16.7508 8.28373 16.747 8.27924 16.7442 8.27611C16.7428 8.27454 16.7416 8.27331 16.7408 8.27242C16.7404 8.27198 16.74 8.27162 16.7398 8.27135C16.7396 8.27122 16.7395 8.27111 16.7394 8.27102C16.7394 8.27097 16.7393 8.27093 16.7393 8.2709C16.7393 8.27088 16.7393 8.27087 16.7393 8.27085C16.7393 8.27085 16.7393 8.27084 16.7392 8.27083C16.7392 8.27083 16.7392 8.27082 16.718 8.29203ZM16.5894 8.47677C16.605 8.48144 16.6225 8.48552 16.6399 8.48283C16.6595 8.4798 16.6746 8.46904 16.6864 8.45341C16.6974 8.43893 16.7065 8.41924 16.7155 8.39534C16.7247 8.37103 16.7347 8.33984 16.7467 8.30085L16.6893 8.28321C16.6773 8.32222 16.6678 8.35179 16.6594 8.37415C16.6508 8.39695 16.6441 8.40988 16.6386 8.41715C16.634 8.42327 16.6317 8.42338 16.6307 8.42354C16.6275 8.42404 16.6211 8.42362 16.6066 8.4193L16.5894 8.47677ZM16.6008 8.22282C16.5556 8.26805 16.5272 8.32044 16.5217 8.36728C16.5189 8.39088 16.5218 8.41485 16.5336 8.4353C16.5457 8.45639 16.5655 8.47083 16.5907 8.47713L16.6053 8.41893C16.5945 8.41623 16.5889 8.41117 16.5856 8.40545C16.582 8.39909 16.5796 8.38893 16.5813 8.37429C16.5848 8.34462 16.6045 8.30401 16.6432 8.26524L16.6008 8.22282ZM16.5888 8.06724C16.6397 8.11816 16.6406 8.183 16.6008 8.22282L16.6432 8.26524C16.7114 8.19706 16.7003 8.0939 16.6312 8.02482L16.5888 8.06724ZM16.4364 8.0711C16.4323 8.09567 16.4369 8.11968 16.4519 8.13776C16.4671 8.15597 16.4895 8.16415 16.5125 8.16299C16.5578 8.16073 16.6044 8.12438 16.6368 8.05945L16.5832 8.03261C16.5556 8.08768 16.5243 8.10233 16.5095 8.10307C16.5026 8.10342 16.4995 8.10109 16.4981 8.09943C16.4966 8.09763 16.4937 8.09239 16.4956 8.08096L16.4364 8.0711ZM16.4907 7.81188L16.4367 8.06988L16.4954 8.08218L16.5494 7.82418L16.4907 7.81188ZM16.448 7.84803L16.52 7.84803L16.52 7.78803L16.448 7.78803L16.448 7.84803ZM16.4423 7.62819L16.4183 7.81419L16.4778 7.82187L16.5018 7.63587L16.4423 7.62819ZM15.518 7.66203H16.472V7.60203H15.518V7.66203ZM15.5718 7.81419L15.5478 7.62819L15.4883 7.63587L15.5123 7.82187L15.5718 7.81419ZM15.476 7.84803L15.542 7.84803L15.542 7.78803L15.476 7.78803L15.476 7.84803ZM15.5535 8.07666L15.5055 7.81266L15.4465 7.8234L15.4945 8.0874L15.5535 8.07666ZM15.3595 8.06C15.3906 8.11923 15.4299 8.1576 15.471 8.16348C15.4933 8.16666 15.5145 8.15976 15.53 8.14356C15.5447 8.12821 15.552 8.107 15.5539 8.08452L15.4941 8.07954C15.493 8.09306 15.4891 8.0996 15.4867 8.10206C15.4851 8.10368 15.4835 8.10465 15.4795 8.10408C15.4681 8.10246 15.4414 8.08683 15.4126 8.03206L15.3595 8.06ZM15.3963 8.22396C15.3742 8.19944 15.3655 8.17272 15.3672 8.14698C15.3689 8.12095 15.3815 8.09302 15.4072 8.06724L15.3648 8.02482C15.3306 8.05904 15.3101 8.10011 15.3073 8.14308C15.3045 8.18634 15.3198 8.22862 15.3517 8.2641L15.3963 8.22396ZM15.4053 8.47713C15.4305 8.47083 15.4504 8.45639 15.4625 8.4353C15.4742 8.41485 15.4771 8.39088 15.4743 8.36728C15.4688 8.32044 15.4405 8.26805 15.3952 8.22282L15.3528 8.26524C15.3916 8.30401 15.4112 8.34462 15.4147 8.37429C15.4164 8.38893 15.4141 8.39909 15.4104 8.40545C15.4072 8.41117 15.4015 8.41623 15.3907 8.41893L15.4053 8.47713ZM15.2493 8.30055C15.2613 8.34108 15.2713 8.37308 15.2805 8.39777C15.2895 8.42197 15.2987 8.44174 15.3099 8.45606C15.3223 8.4718 15.3378 8.48171 15.3575 8.48385C15.3744 8.4857 15.3916 8.48127 15.4066 8.47677L15.3894 8.4193C15.3744 8.42379 15.3676 8.42461 15.364 8.42421C15.363 8.4241 15.3612 8.42426 15.3571 8.419C15.3519 8.41232 15.3453 8.39984 15.3367 8.3768C15.3283 8.35423 15.3188 8.32398 15.3068 8.28351L15.2493 8.30055ZM15.2444 8.48166C15.2401 8.4738 15.2383 8.46082 15.2417 8.44155C15.2451 8.4228 15.2526 8.40194 15.2618 8.38173C15.2709 8.36172 15.2812 8.34346 15.2893 8.33013C15.2933 8.3235 15.2967 8.31816 15.2991 8.31452C15.3003 8.3127 15.3012 8.31131 15.3018 8.3104C15.3021 8.30995 15.3023 8.30961 15.3025 8.3094C15.3026 8.3093 15.3026 8.30922 15.3026 8.30918C15.3026 8.30916 15.3027 8.30915 15.3027 8.30915C15.3027 8.30915 15.3027 8.30915 15.3027 8.30915C15.3027 8.30915 15.3027 8.30915 15.3026 8.30915C15.3026 8.30916 15.3026 8.30916 15.278 8.29203C15.2534 8.2749 15.2534 8.2749 15.2534 8.27491C15.2534 8.27491 15.2534 8.27492 15.2534 8.27492C15.2534 8.27493 15.2534 8.27495 15.2533 8.27496C15.2533 8.27499 15.2533 8.27503 15.2533 8.27508C15.2532 8.27517 15.2531 8.2753 15.253 8.27546C15.2528 8.27577 15.2525 8.27622 15.2521 8.27679C15.2513 8.27793 15.2502 8.27957 15.2489 8.28166C15.2461 8.28582 15.2423 8.29178 15.2379 8.29911C15.2291 8.31372 15.2176 8.33409 15.2072 8.35683C15.1969 8.37937 15.1872 8.40538 15.1827 8.43108C15.1782 8.45624 15.178 8.48526 15.1917 8.5104L15.2444 8.48166ZM15.2539 8.49706L15.2436 8.48029L15.1925 8.51177L15.2028 8.52855L15.2539 8.49706ZM15.2635 8.87249C15.309 8.85732 15.337 8.82864 15.3486 8.79107C15.3595 8.75572 15.3545 8.71655 15.3444 8.68082C15.324 8.60926 15.2777 8.53535 15.2538 8.49695L15.2029 8.52866C15.2276 8.56841 15.269 8.6352 15.2867 8.69725C15.2955 8.72832 15.2972 8.7542 15.2913 8.77341C15.286 8.79041 15.2738 8.80581 15.2445 8.81557L15.2635 8.87249ZM15.1354 8.68133C15.1438 8.7383 15.1504 8.78525 15.1646 8.81698C15.1721 8.83398 15.1828 8.84922 15.1992 8.85976C15.2155 8.87025 15.2342 8.87403 15.254 8.87403V8.81403C15.2417 8.81403 15.2354 8.81169 15.2317 8.80931C15.2281 8.80698 15.2238 8.80259 15.2194 8.79259C15.2095 8.77031 15.2038 8.73373 15.1948 8.6726L15.1354 8.68133ZM15.1224 8.59696C15.1276 8.62821 15.1317 8.6562 15.1354 8.68133L15.1948 8.6726C15.1911 8.64749 15.1869 8.61898 15.1816 8.5871L15.1224 8.59696ZM15.114 8.89926C15.076 8.80046 15.0992 8.68856 15.1734 8.61306L15.1306 8.571C15.0399 8.66329 15.0116 8.80005 15.058 8.9208L15.114 8.89926ZM15.1661 8.9982C15.1467 8.96628 15.1281 8.93554 15.114 8.89916L15.0581 8.9209C15.0744 8.96289 15.0957 8.99787 15.1149 9.02936L15.1661 8.9982ZM15.236 9.19803C15.236 9.11223 15.1998 9.05357 15.1661 8.9982L15.1149 9.02936C15.1489 9.08536 15.176 9.1309 15.176 9.19803H15.236ZM15.122 9.34803C15.1526 9.34803 15.1834 9.33813 15.2054 9.31052C15.2265 9.28419 15.236 9.24624 15.236 9.19803H15.176C15.176 9.23983 15.1675 9.26187 15.1586 9.27304C15.1507 9.28293 15.1394 9.28803 15.122 9.28803V9.34803ZM14.9603 9.052C14.9723 9.14189 14.9862 9.2134 15.0084 9.26284C15.0197 9.28791 15.034 9.30939 15.0532 9.32464C15.073 9.34037 15.0962 9.34803 15.122 9.34803V9.28803C15.1089 9.28803 15.099 9.28444 15.0905 9.27767C15.0814 9.27042 15.0721 9.25815 15.0631 9.23822C15.0449 9.19766 15.0318 9.13417 15.0198 9.04407L14.9603 9.052ZM14.9723 9.38439C14.965 9.37431 14.9586 9.35517 14.9557 9.32688C14.953 9.29946 14.954 9.26692 14.9583 9.23333C14.967 9.16479 14.9886 9.09907 15.0138 9.06632L14.9662 9.02974C14.9314 9.07499 14.908 9.15327 14.8988 9.22573C14.894 9.26264 14.8928 9.29985 14.896 9.33281C14.8992 9.36489 14.9071 9.39675 14.9238 9.41968L14.9723 9.38439ZM15.0037 9.43209L14.9731 9.38553L14.923 9.41853L14.9536 9.46508L15.0037 9.43209ZM15.176 9.78003C15.176 9.73416 15.1607 9.69028 15.1324 9.63728C15.1043 9.58465 15.0615 9.51979 15.0037 9.43208L14.9536 9.4651C15.0121 9.55383 15.053 9.61595 15.0795 9.66555C15.1058 9.71478 15.116 9.7484 15.116 9.78003H15.176ZM14.9371 9.69198C14.9542 9.75404 14.9749 9.79996 14.9975 9.83195C15.0199 9.86357 15.0463 9.88445 15.0753 9.88979C15.1061 9.89543 15.1329 9.88244 15.1505 9.86064C15.1675 9.83959 15.176 9.81069 15.176 9.78003H15.116C15.116 9.80037 15.1103 9.81497 15.1038 9.82298C15.098 9.83024 15.0922 9.83188 15.0862 9.83077C15.0785 9.82936 15.064 9.82212 15.0465 9.79729C15.0292 9.77285 15.0109 9.73402 14.9949 9.67608L14.9371 9.69198ZM14.942 9.94803C14.9718 9.94407 14.9718 9.94407 14.9718 9.94407C14.9718 9.94407 14.9718 9.94408 14.9718 9.94408C14.9718 9.94408 14.9718 9.94408 14.9718 9.94407C14.9718 9.94406 14.9718 9.94404 14.9717 9.94401C14.9717 9.94395 14.9717 9.94385 14.9717 9.9437C14.9717 9.94341 14.9716 9.94295 14.9715 9.94234C14.9714 9.94111 14.9712 9.93925 14.9709 9.93683C14.9704 9.93199 14.9696 9.92491 14.9689 9.91613C14.9675 9.89852 14.966 9.87425 14.966 9.84753C14.966 9.82073 14.9675 9.79202 14.9717 9.76537C14.9759 9.73838 14.9826 9.71542 14.9921 9.69891L14.94 9.66915C14.9254 9.69464 14.9171 9.72568 14.9124 9.75607C14.9076 9.7868 14.906 9.81883 14.906 9.84753C14.906 9.87631 14.9076 9.90229 14.9091 9.92106C14.9099 9.93046 14.9107 9.9381 14.9113 9.94343C14.9116 9.9461 14.9118 9.94819 14.912 9.94964C14.9121 9.95036 14.9121 9.95093 14.9122 9.95132C14.9122 9.95152 14.9122 9.95168 14.9123 9.95179C14.9123 9.95184 14.9123 9.95189 14.9123 9.95192C14.9123 9.95194 14.9123 9.95196 14.9123 9.95197C14.9123 9.95197 14.9123 9.95198 14.9123 9.95198C14.9123 9.95199 14.9123 9.952 14.942 9.94803ZM15.0357 10.0482C14.9959 10.0117 14.972 9.98792 14.972 9.94803H14.912C14.912 10.0181 14.9586 10.0589 14.9952 10.0924L15.0357 10.0482ZM15.14 10.248C15.14 10.1429 15.0811 10.0898 15.0357 10.0482L14.9952 10.0924C15.0402 10.1337 15.08 10.171 15.08 10.248H15.14ZM15.6319 7.62364L15.6199 7.47364L15.5601 7.47842L15.5721 7.62842L15.6319 7.62364ZM16.382 7.59603H15.602V7.65603H16.382V7.59603ZM16.3702 7.47246L16.3522 7.62246L16.4118 7.6296L16.4298 7.4796L16.3702 7.47246ZM15.59 7.50603H16.4V7.44603H15.59V7.50603ZM15.6922 7.31747L15.7102 7.47347L15.7698 7.46659L15.7518 7.31059L15.6922 7.31747ZM16.262 7.28403H15.722V7.34403H16.262V7.28403ZM16.286 7.47118L16.292 7.31518L16.232 7.31288L16.226 7.46888L16.286 7.47118ZM15.74 7.50003H16.256V7.44003H15.74V7.50003ZM17.7299 14.0417C17.6739 14.0221 17.6023 13.9807 17.5451 13.9292C17.4866 13.8766 17.45 13.8197 17.45 13.77H17.39C17.39 13.8463 17.4434 13.9184 17.5049 13.9738C17.5677 14.0303 17.6461 14.076 17.7101 14.0983L17.7299 14.0417ZM14.33 14.1H17.72V14.04H14.33V14.1ZM14.54 13.77C14.54 13.8238 14.5141 13.8817 14.472 13.9323C14.43 13.9827 14.3743 14.0227 14.3201 14.0417L14.3399 14.0983C14.4057 14.0753 14.4701 14.0283 14.5181 13.9707C14.5659 13.9133 14.6 13.8422 14.6 13.77H14.54ZM14.54 12.312V13.77H14.6V12.312H14.54ZM14.3958 12.1258L14.5458 12.3298L14.5942 12.2943L14.4442 12.0903L14.3958 12.1258ZM17.576 12.078H14.42V12.138H17.576V12.078ZM17.4438 12.3303L17.5998 12.1263L17.5522 12.0898L17.3962 12.2938L17.4438 12.3303ZM17.45 13.77V12.312H17.39V13.77H17.45Z" fill="black"/>
<path fill-rule="evenodd" clip-rule="evenodd" d="M15.188 12.756H14.972V13.746H15.188V12.756ZM17.012 12.756H16.796V13.746H17.012V12.756Z" fill="white"/>
<path d="M14.972 12.756V12.726L14.942 12.756H14.972ZM15.188 12.756H15.218L15.188 12.726V12.756ZM14.972 13.746H14.942L14.972 13.776V13.746ZM15.188 13.746V13.776L15.218 13.746H15.188ZM16.796 12.756V12.726L16.766 12.756H16.796ZM17.012 12.756H17.042L17.012 12.726V12.756ZM16.796 13.746H16.766L16.796 13.776V13.746ZM17.012 13.746V13.776L17.042 13.746H17.012ZM14.972 12.786H15.188V12.726H14.972V12.786ZM15.002 13.746V12.756H14.942V13.746H15.002ZM15.188 13.716H14.972V13.776H15.188V13.716ZM15.158 12.756V13.746H15.218V12.756H15.158ZM16.796 12.786H17.012V12.726H16.796V12.786ZM16.826 13.746V12.756H16.766V13.746H16.826ZM17.012 13.716H16.796V13.776H17.012V13.716ZM16.982 12.756V13.746H17.042V12.756H16.982Z" fill="black"/>
<path d="M14.36 10.452V12.108H17.6V10.452C17.5241 10.4798 17.466 10.5422 17.444 10.62V11.328H14.522V10.62C14.522 10.62 14.486 10.5 14.354 10.452H14.36Z" fill="white" stroke="black" stroke-width="0.06"/>
<path d="M17.156 14.07C17.048 14.028 16.82 13.896 16.82 13.77V12.138C16.844 12.048 16.964 11.994 17.042 11.934H14.9C15.002 11.994 15.116 12.036 15.158 12.138V13.77C15.158 13.896 14.978 14.028 14.87 14.07H17.156Z" fill="white" stroke="black" stroke-width="0.06"/>
<path fill-rule="evenodd" clip-rule="evenodd" d="M17.444 10.776V11.952H14.522V10.782H14.822V10.662H17.15V10.776H17.444ZM16.442 13.77C16.442 13.896 16.592 14.028 16.7 14.07H15.296C15.398 14.028 15.554 13.896 15.554 13.77V12.372L15.464 12.252H16.526L16.442 12.378V13.77Z" fill="white"/>
<path d="M17.444 11.952V11.982H17.474V11.952H17.444ZM17.444 10.776H17.474V10.746H17.444V10.776ZM14.522 11.952H14.492V11.982H14.522V11.952ZM14.522 10.782V10.752H14.492V10.782H14.522ZM14.822 10.782V10.812H14.852V10.782H14.822ZM14.822 10.662V10.632H14.792V10.662H14.822ZM17.15 10.662H17.18V10.632H17.15V10.662ZM17.15 10.776H17.12V10.806H17.15V10.776ZM16.7 14.07V14.1L16.7109 14.0421L16.7 14.07ZM15.296 14.07L15.2846 14.0423L15.296 14.1V14.07ZM15.554 12.372H15.584V12.362L15.578 12.354L15.554 12.372ZM15.464 12.252V12.222H15.404L15.44 12.27L15.464 12.252ZM16.526 12.252L16.551 12.2687L16.5821 12.222H16.526V12.252ZM16.442 12.378L16.4171 12.3614L16.412 12.369V12.378H16.442ZM17.474 11.952V10.776H17.414V11.952H17.474ZM14.522 11.982H17.444V11.922H14.522V11.982ZM14.492 10.782V11.952H14.552V10.782H14.492ZM14.822 10.752H14.522V10.812H14.822V10.752ZM14.792 10.662V10.782H14.852V10.662H14.792ZM17.15 10.632H14.822V10.692H17.15V10.632ZM17.18 10.776V10.662H17.12V10.776H17.18ZM17.444 10.746H17.15V10.806H17.444V10.746ZM16.7109 14.0421C16.6615 14.0229 16.6007 13.9821 16.5523 13.9309C16.5035 13.8792 16.472 13.8218 16.472 13.77H16.412C16.412 13.8443 16.4556 13.9159 16.5087 13.9721C16.5624 14.029 16.6305 14.0752 16.6892 14.098L16.7109 14.0421ZM15.296 14.1H16.7V14.04H15.296V14.1ZM15.524 13.77C15.524 13.8214 15.4915 13.8788 15.4416 13.9308C15.3924 13.9821 15.3313 14.0231 15.2846 14.0423L15.3075 14.0978C15.3627 14.075 15.4306 14.029 15.4849 13.9723C15.5386 13.9163 15.584 13.8447 15.584 13.77H15.524ZM15.524 12.372V13.77H15.584V12.372H15.524ZM15.44 12.27L15.53 12.39L15.578 12.354L15.488 12.234L15.44 12.27ZM16.526 12.222H15.464V12.282H16.526V12.222ZM16.467 12.3947L16.551 12.2687L16.5011 12.2354L16.4171 12.3614L16.467 12.3947ZM16.472 13.77V12.378H16.412V13.77H16.472Z" fill="black"/>
<path d="M15.722 12.252H16.262V14.07H15.722V12.252Z" fill="white" stroke="black" stroke-width="0.06"/>
<path d="M16.544 11.85C16.544 11.73 16.892 11.724 17.072 11.622H14.912C15.092 11.724 15.434 11.73 15.434 11.85L15.506 12.084L16.406 12.12L16.544 11.85Z" fill="white" stroke="black" stroke-width="0.06" stroke-linejoin="bevel"/>
<path fill-rule="evenodd" clip-rule="evenodd" d="M17.36 10.0861C17.36 10.0861 17.066 10.1221 17.066 10.4581V10.1761C16.976 10.1761 16.964 10.2841 16.964 10.5781L15.026 10.5721C15.026 10.2901 15.026 10.1701 14.918 10.1701V11.1001C15.14 11.1841 15.296 11.4601 15.296 11.4601H16.688C16.688 11.4601 16.844 11.1841 17.066 11.1001V11.6281H17.282V10.7761C17.282 10.7761 17.192 10.7761 17.192 10.6261C17.192 10.4821 17.246 10.3801 17.36 10.3861V10.0861Z" fill="white"/>
<path d="M17.36 10.0861H17.39V10.0522L17.3564 10.0563L17.36 10.0861ZM17.066 10.1761H17.096V10.1461H17.066V10.1761ZM16.964 10.5781L16.9639 10.6081L16.994 10.6082V10.5781H16.964ZM15.026 10.5721H14.996V10.602L15.0259 10.6021L15.026 10.5721ZM14.918 10.1701V10.1401H14.888V10.1701H14.918ZM14.918 11.1001H14.888V11.1208L14.9074 11.1281L14.918 11.1001ZM15.296 11.4601L15.2699 11.4748L15.2785 11.4901H15.296V11.4601ZM16.688 11.4601V11.4901H16.7055L16.7141 11.4748L16.688 11.4601ZM17.066 11.1001H17.096V11.0566L17.0554 11.072L17.066 11.1001ZM17.066 11.6281H17.036V11.6581H17.066V11.6281ZM17.282 11.6281V11.6581H17.312V11.6281H17.282ZM17.282 10.7761H17.312V10.7461L17.282 10.7461L17.282 10.7761ZM17.36 10.3861L17.3585 10.416L17.39 10.4177V10.3861H17.36ZM17.096 10.4581C17.096 10.3006 17.1641 10.2165 17.2301 10.1707C17.2638 10.1474 17.2976 10.1335 17.3231 10.1256C17.3357 10.1216 17.3462 10.1191 17.3534 10.1177C17.357 10.1169 17.3597 10.1164 17.3615 10.1162C17.3624 10.116 17.363 10.1159 17.3634 10.1159C17.3636 10.1159 17.3637 10.1158 17.3637 10.1158C17.3638 10.1158 17.3638 10.1158 17.3638 10.1158C17.3637 10.1158 17.3637 10.1158 17.3637 10.1158C17.3637 10.1158 17.3637 10.1158 17.3637 10.1158C17.3637 10.1158 17.3637 10.1158 17.36 10.0861C17.3564 10.0563 17.3564 10.0563 17.3563 10.0563C17.3563 10.0563 17.3563 10.0563 17.3563 10.0563C17.3563 10.0563 17.3562 10.0563 17.3562 10.0563C17.3561 10.0563 17.356 10.0563 17.3559 10.0563C17.3557 10.0564 17.3554 10.0564 17.355 10.0565C17.3543 10.0566 17.3532 10.0567 17.352 10.0569C17.3494 10.0573 17.3459 10.058 17.3414 10.0589C17.3325 10.0607 17.32 10.0636 17.3051 10.0683C17.2755 10.0776 17.2358 10.0938 17.1959 10.1214C17.115 10.1776 17.036 10.2795 17.036 10.4581H17.096ZM17.036 10.1761V10.4581H17.096V10.1761H17.036ZM16.994 10.5781C16.994 10.4301 16.9972 10.3332 17.0106 10.2734C17.0172 10.2436 17.0256 10.227 17.034 10.218C17.0412 10.2104 17.0503 10.2061 17.066 10.2061V10.1461C17.0367 10.1461 17.0106 10.1552 16.9902 10.177C16.9711 10.1975 16.9596 10.2263 16.952 10.2603C16.9369 10.3279 16.934 10.432 16.934 10.5781H16.994ZM15.0259 10.6021L16.9639 10.6081L16.9641 10.5481L15.0261 10.5421L15.0259 10.6021ZM14.918 10.2001C14.939 10.2001 14.9507 10.2056 14.9589 10.2141C14.9683 10.2238 14.9769 10.241 14.9832 10.2714C14.9959 10.3328 14.996 10.4294 14.996 10.5721H15.056C15.056 10.4327 15.0562 10.3283 15.0419 10.2592C15.0347 10.2244 15.023 10.194 15.002 10.1723C14.9799 10.1495 14.9511 10.1401 14.918 10.1401V10.2001ZM14.948 11.1001V10.1701H14.888V11.1001H14.948ZM15.296 11.4601C15.3221 11.4453 15.3221 11.4453 15.3221 11.4453C15.3221 11.4453 15.3221 11.4453 15.3221 11.4453C15.3221 11.4452 15.3221 11.4452 15.3221 11.4452C15.3221 11.4451 15.322 11.4451 15.322 11.445C15.3219 11.4448 15.3217 11.4446 15.3216 11.4443C15.3212 11.4437 15.3207 11.4429 15.3201 11.4418C15.3188 11.4396 15.317 11.4364 15.3145 11.4324C15.3096 11.4244 15.3025 11.413 15.2932 11.399C15.2746 11.3711 15.2475 11.3331 15.2133 11.2923C15.1453 11.2114 15.0468 11.1167 14.9286 11.072L14.9074 11.1281C15.0112 11.1674 15.1017 11.2527 15.1673 11.3309C15.1998 11.3696 15.2256 11.4058 15.2432 11.4322C15.252 11.4455 15.2588 11.4562 15.2633 11.4636C15.2655 11.4673 15.2672 11.4702 15.2683 11.4721C15.2689 11.4731 15.2693 11.4738 15.2696 11.4742C15.2697 11.4745 15.2698 11.4746 15.2699 11.4747C15.2699 11.4748 15.2699 11.4748 15.2699 11.4748C15.2699 11.4748 15.2699 11.4748 15.2699 11.4748C15.2699 11.4748 15.2699 11.4748 15.2699 11.4748C15.2699 11.4748 15.2699 11.4748 15.296 11.4601ZM16.688 11.4301H15.296V11.4901H16.688V11.4301ZM17.0554 11.072C16.9372 11.1167 16.8387 11.2114 16.7708 11.2923C16.7366 11.3331 16.7095 11.3711 16.6909 11.399C16.6816 11.413 16.6744 11.4244 16.6695 11.4324C16.6671 11.4364 16.6652 11.4396 16.664 11.4418C16.6633 11.4429 16.6628 11.4437 16.6625 11.4443C16.6623 11.4446 16.6622 11.4448 16.6621 11.445C16.662 11.4451 16.662 11.4451 16.662 11.4452C16.662 11.4452 16.6619 11.4452 16.6619 11.4453C16.6619 11.4453 16.6619 11.4453 16.6619 11.4453C16.6619 11.4453 16.6619 11.4453 16.688 11.4601C16.7141 11.4748 16.7141 11.4748 16.7141 11.4748C16.7141 11.4748 16.7141 11.4748 16.7141 11.4748C16.7141 11.4748 16.7141 11.4748 16.7141 11.4748C16.7142 11.4748 16.7142 11.4748 16.7142 11.4747C16.7143 11.4746 16.7144 11.4745 16.7145 11.4742C16.7148 11.4738 16.7152 11.4731 16.7157 11.4721C16.7168 11.4702 16.7185 11.4673 16.7208 11.4636C16.7253 11.4562 16.732 11.4455 16.7408 11.4322C16.7585 11.4058 16.7843 11.3696 16.8168 11.3309C16.8823 11.2527 16.9728 11.1674 17.0766 11.1281L17.0554 11.072ZM17.096 11.6281V11.1001H17.036V11.6281H17.096ZM17.282 11.5981H17.066V11.6581H17.282V11.5981ZM17.252 10.7761V11.6281H17.312V10.7761H17.252ZM17.162 10.6261C17.162 10.7073 17.1867 10.7544 17.2178 10.7804C17.2329 10.7929 17.2482 10.7994 17.2599 10.8026C17.2658 10.8043 17.2708 10.8051 17.2746 10.8056C17.2765 10.8058 17.2781 10.8059 17.2794 10.806C17.28 10.806 17.2805 10.806 17.281 10.806C17.2812 10.8061 17.2814 10.8061 17.2816 10.8061C17.2817 10.8061 17.2817 10.8061 17.2818 10.8061C17.2819 10.8061 17.2819 10.8061 17.2819 10.8061C17.2819 10.8061 17.282 10.8061 17.282 10.8061C17.282 10.8061 17.282 10.8061 17.282 10.7761C17.282 10.7461 17.2821 10.7461 17.2821 10.7461C17.2821 10.7461 17.2821 10.7461 17.2821 10.7461C17.2822 10.7461 17.2822 10.7461 17.2822 10.7461C17.2823 10.7461 17.2823 10.7461 17.2824 10.7461C17.2825 10.7461 17.2825 10.7461 17.2826 10.7461C17.2827 10.7461 17.2827 10.7461 17.2827 10.7461C17.2826 10.7461 17.2823 10.746 17.2817 10.746C17.2806 10.7458 17.2786 10.7455 17.276 10.7448C17.2709 10.7434 17.2636 10.7404 17.2562 10.7343C17.2424 10.7227 17.222 10.6949 17.222 10.6261H17.162ZM17.3616 10.3561C17.2935 10.3525 17.2415 10.3821 17.2081 10.4335C17.176 10.483 17.162 10.5511 17.162 10.6261H17.222C17.222 10.557 17.2351 10.5021 17.2584 10.4661C17.2806 10.4321 17.3125 10.4136 17.3585 10.416L17.3616 10.3561ZM17.33 10.0861V10.3861H17.39V10.0861H17.33Z" fill="black"/>
<path d="M14.918 10.4581C14.918 10.1221 14.624 10.0861 14.624 10.0861V10.3861C14.738 10.3801 14.792 10.4821 14.792 10.6261C14.792 10.7761 14.702 10.7761 14.702 10.7761V11.6281H14.918V10.4581Z" fill="white" stroke="black" stroke-width="0.06"/>
<path d="M15.488 8.18601H16.52V8.12601H15.488V8.18601ZM15.368 8.51001H16.628V8.45001H15.368V8.51001ZM15.248 8.90001H16.742V8.84001H15.248V8.90001ZM15.122 9.37401H16.892V9.31401H15.122V9.37401ZM15.08 9.91401H16.904V9.85401H15.08V9.91401Z" fill="black"/>
<path d="M15.452 11.64V11.61H15.422V11.64H15.452ZM16.532 11.64H16.562V11.61H16.532V11.64ZM16.532 12.036V12.066H16.562V12.036H16.532ZM15.452 12.036H15.422V12.066H15.452V12.036ZM14.528 11.69H17.444V11.63H14.528V11.69ZM17.444 11.63H14.528V11.69H17.444V11.63ZM15.452 11.67H16.532V11.61H15.452V11.67ZM16.502 11.64V12.036H16.562V11.64H16.502ZM16.532 12.006H15.452V12.066H16.532V12.006ZM15.482 12.036V11.64H15.422V12.036H15.482Z" fill="black"/>
<path fill-rule="evenodd" clip-rule="evenodd" d="M15.758 8.21403L15.902 8.29203L16.106 8.28603L16.244 8.21403V8.00403C16.2367 8.00645 16.2292 8.00865 16.2215 8.01089C16.1719 8.02527 16.118 8.04094 16.118 8.12403C16.0993 8.01655 16.077 8.00006 16.0397 7.97251C16.0291 7.96469 16.0173 7.95597 16.004 7.94403C15.9903 7.95778 15.9773 7.96725 15.9653 7.97601C15.9302 8.00165 15.9034 8.02117 15.89 8.12403C15.8793 8.03801 15.83 8.02425 15.7767 8.00937C15.7705 8.00764 15.7642 8.0059 15.758 8.00403V8.21403ZM15.4765 11.4812C15.4788 11.2625 15.482 10.9465 15.32 10.752H16.676C16.514 10.9465 16.5172 11.2625 16.5195 11.4812C16.5198 11.5054 16.52 11.5285 16.52 11.55H15.476C15.476 11.5285 15.4762 11.5054 15.4765 11.4812Z" fill="white"/>
<path d="M15.902 8.29203L15.8877 8.31841L15.8948 8.32226L15.9029 8.32202L15.902 8.29203ZM15.758 8.21403H15.728V8.2319L15.7437 8.24041L15.758 8.21403ZM16.106 8.28603L16.107 8.31936L16.1199 8.31263L16.106 8.28603ZM16.244 8.21403L16.2579 8.24063L16.274 8.23222V8.21403H16.244ZM16.244 8.00403H16.274V7.96241L16.2345 7.97557L16.244 8.00403ZM16.2215 8.01089L16.2298 8.0397L16.2298 8.0397L16.2215 8.01089ZM16.118 8.12403L16.0885 8.12917L16.148 8.12403H16.118ZM16.0397 7.97251L16.0219 7.99664L16.0219 7.99664L16.0397 7.97251ZM16.004 7.94403L16.0241 7.92173L16.0029 7.90269L15.9828 7.92282L16.004 7.94403ZM15.9653 7.97601L15.983 8.00024L15.983 8.00024L15.9653 7.97601ZM15.89 8.12403L15.8602 8.12775L15.9198 8.12791L15.89 8.12403ZM15.7767 8.00937L15.7686 8.03827L15.7686 8.03827L15.7767 8.00937ZM15.758 8.00403L15.7666 7.9753L15.728 7.96371V8.00403H15.758ZM15.32 10.752V10.722H15.256L15.297 10.7712L15.32 10.752ZM15.4765 11.4812L15.5065 11.4815L15.5065 11.4815L15.4765 11.4812ZM16.676 10.752L16.6991 10.7712L16.7401 10.722H16.676V10.752ZM16.5195 11.4812L16.5495 11.4809L16.5495 11.4809L16.5195 11.4812ZM16.52 11.55V11.58H16.55V11.55H16.52ZM15.476 11.55H15.446V11.58H15.476V11.55ZM15.9163 8.26565L15.7723 8.18765L15.7437 8.24041L15.8877 8.31841L15.9163 8.26565ZM16.1051 8.25604L15.9011 8.26204L15.9029 8.32202L16.1069 8.31602L16.1051 8.25604ZM16.2301 8.18743L16.0921 8.25943L16.1199 8.31263L16.2579 8.24063L16.2301 8.18743ZM16.214 8.00403V8.21403H16.274V8.00403H16.214ZM16.2298 8.0397C16.2374 8.0375 16.2456 8.03513 16.2535 8.03249L16.2345 7.97557C16.2279 7.97777 16.2209 7.97981 16.2131 7.98208L16.2298 8.0397ZM16.148 8.12403C16.148 8.09004 16.1585 8.07446 16.1702 8.06491C16.1843 8.05338 16.2038 8.04726 16.2298 8.0397L16.2131 7.98208C16.1896 7.9889 16.1574 7.9978 16.1322 8.01848C16.1045 8.04113 16.088 8.07493 16.088 8.12403H16.148ZM16.0219 7.99664C16.0407 8.01053 16.0509 8.01844 16.0601 8.03371C16.0698 8.04992 16.0793 8.07653 16.0885 8.12917L16.1476 8.11889C16.138 8.06405 16.127 8.02868 16.1116 8.00288C16.0955 7.97615 16.076 7.96203 16.0575 7.94838L16.0219 7.99664ZM15.9839 7.96633C15.9984 7.97934 16.0112 7.98881 16.0219 7.99664L16.0575 7.94838C16.0469 7.94056 16.0362 7.9326 16.0241 7.92173L15.9839 7.96633ZM15.983 8.00024C15.995 7.99149 16.0097 7.98081 16.0252 7.96524L15.9828 7.92282C15.9709 7.93475 15.9596 7.94302 15.9476 7.95178L15.983 8.00024ZM15.9198 8.12791C15.9262 8.07835 15.9355 8.05248 15.9451 8.03667C15.9544 8.02139 15.9653 8.01316 15.983 8.00024L15.9476 7.95178C15.9302 7.9645 15.9101 7.97885 15.8939 8.00546C15.878 8.03153 15.8672 8.06686 15.8603 8.12015L15.9198 8.12791ZM15.7686 8.03827C15.7965 8.04606 15.8159 8.05191 15.8307 8.06357C15.8435 8.0737 15.8556 8.09074 15.8602 8.12775L15.9198 8.12031C15.9137 8.07131 15.8957 8.03845 15.8679 8.01648C15.842 7.99603 15.8101 7.98757 15.7847 7.98048L15.7686 8.03827ZM15.7494 8.03277C15.7559 8.03473 15.7625 8.03655 15.7686 8.03827L15.7847 7.98048C15.7785 7.97874 15.7725 7.97707 15.7666 7.9753L15.7494 8.03277ZM15.788 8.21403V8.00403H15.728V8.21403H15.788ZM15.297 10.7712C15.3729 10.8624 15.4114 10.9837 15.4302 11.1119C15.4489 11.2398 15.4476 11.3712 15.4465 11.4809L15.5065 11.4815C15.5076 11.3724 15.5091 11.2365 15.4895 11.1032C15.47 10.97 15.4291 10.8361 15.3431 10.7328L15.297 10.7712ZM16.676 10.722H15.32V10.782H16.676V10.722ZM16.5495 11.4809C16.5484 11.3712 16.5471 11.2398 16.5658 11.1119C16.5846 10.9837 16.6231 10.8624 16.6991 10.7712L16.653 10.7328C16.5669 10.8361 16.526 10.97 16.5065 11.1032C16.4869 11.2365 16.4884 11.3724 16.4895 11.4815L16.5495 11.4809ZM16.55 11.55C16.55 11.5283 16.5498 11.5051 16.5495 11.4809L16.4895 11.4815C16.4898 11.5058 16.49 11.5287 16.49 11.55H16.55ZM15.476 11.58H16.52V11.52H15.476V11.58ZM15.4465 11.4809C15.4462 11.5051 15.446 11.5283 15.446 11.55H15.506C15.506 11.5287 15.5062 11.5058 15.5065 11.4815L15.4465 11.4809Z" fill="black"/>
<path d="M15.89 8.634L15.65 8.466V8.28C15.74 8.298 15.83 8.31 15.842 8.412C15.866 8.262 15.92 8.19 16.004 8.13C16.082 8.19 16.136 8.262 16.166 8.412C16.172 8.31 16.268 8.298 16.346 8.28V8.472L16.112 8.634H15.89Z" fill="white" stroke="black" stroke-width="0.06"/>
<path fill-rule="evenodd" clip-rule="evenodd" d="M15.872 9.16801L15.602 8.92801V8.64601L15.6265 8.65193C15.7156 8.67303 15.807 8.69469 15.818 8.83201C15.848 8.62201 15.908 8.50801 15.998 8.42401C16.094 8.50801 16.154 8.62201 16.19 8.83201C16.201 8.69469 16.2924 8.67303 16.3815 8.65193L16.406 8.64601V8.92801L16.13 9.16801H15.872ZM16.376 9.48601L16.136 9.82801H15.854L15.608 9.48601H16.376ZM15.644 10.512C15.632 10.26 15.584 10.122 15.464 10.056H16.52C16.4 10.122 16.352 10.26 16.34 10.512H15.644Z" fill="white"/>
<path d="M15.602 8.92801H15.572V8.94148L15.5821 8.95043L15.602 8.92801ZM15.872 9.16801L15.8521 9.19043L15.8606 9.19801H15.872V9.16801ZM15.602 8.64601L15.609 8.61685L15.572 8.60791V8.64601H15.602ZM15.6265 8.65193L15.6195 8.68109L15.6196 8.68112L15.6265 8.65193ZM15.818 8.83201L15.7881 8.8344L15.8477 8.83625L15.818 8.83201ZM15.998 8.42401L16.0177 8.40143L15.9973 8.38358L15.9775 8.40208L15.998 8.42401ZM16.19 8.83201L16.1604 8.83708L16.2199 8.8344L16.19 8.83201ZM16.3815 8.65193L16.3884 8.68112L16.3885 8.68109L16.3815 8.65193ZM16.406 8.64601H16.436V8.60791L16.399 8.61685L16.406 8.64601ZM16.406 8.92801L16.4257 8.95065L16.436 8.94168V8.92801H16.406ZM16.13 9.16801V9.19801H16.1412L16.1497 9.19065L16.13 9.16801ZM16.136 9.82801V9.85801H16.1516L16.1605 9.84524L16.136 9.82801ZM16.376 9.48601L16.4005 9.50324L16.4337 9.45601H16.376V9.48601ZM15.854 9.82801L15.8296 9.84553L15.8386 9.85801H15.854V9.82801ZM15.608 9.48601V9.45601H15.5495L15.5836 9.50353L15.608 9.48601ZM15.464 10.056V10.026L15.4495 10.0823L15.464 10.056ZM15.644 10.512L15.614 10.5134L15.6154 10.542H15.644V10.512ZM16.52 10.056L16.5344 10.0823L16.52 10.026V10.056ZM16.34 10.512V10.542H16.3686L16.37 10.5134L16.34 10.512ZM15.5821 8.95043L15.8521 9.19043L15.8919 9.14559L15.6219 8.90559L15.5821 8.95043ZM15.572 8.64601V8.92801H15.632V8.64601H15.572ZM15.6336 8.62277L15.609 8.61685L15.595 8.67517L15.6195 8.68109L15.6336 8.62277ZM15.8479 8.82962C15.8418 8.75337 15.8125 8.705 15.7689 8.67396C15.7279 8.64471 15.6766 8.63298 15.6334 8.62274L15.6196 8.68112C15.6654 8.69198 15.7044 8.70163 15.7341 8.72281C15.7613 8.74221 15.7832 8.77333 15.7881 8.8344L15.8479 8.82962ZM15.9775 8.40208C15.8811 8.49209 15.8189 8.61324 15.7883 8.82777L15.8477 8.83625C15.877 8.63079 15.9349 8.52393 16.0185 8.44594L15.9775 8.40208ZM16.2196 8.82694C16.1829 8.61293 16.1207 8.49153 16.0177 8.40143L15.9782 8.44659C16.0673 8.52449 16.1251 8.63109 16.1604 8.83708L16.2196 8.82694ZM16.3745 8.62274C16.3313 8.63298 16.2801 8.64471 16.239 8.67396C16.1955 8.705 16.1662 8.75337 16.1601 8.82962L16.2199 8.8344C16.2248 8.77333 16.2467 8.74221 16.2739 8.72281C16.3036 8.70163 16.3425 8.69198 16.3884 8.68112L16.3745 8.62274ZM16.399 8.61685L16.3744 8.62277L16.3885 8.68109L16.413 8.67517L16.399 8.61685ZM16.436 8.92801V8.64601H16.376V8.92801H16.436ZM16.1497 9.19065L16.4257 8.95065L16.3863 8.90537L16.1103 9.14537L16.1497 9.19065ZM15.872 9.19801H16.13V9.13801H15.872V9.19801ZM16.1605 9.84524L16.4005 9.50324L16.3514 9.46878L16.1114 9.81078L16.1605 9.84524ZM15.854 9.85801H16.136V9.79801H15.854V9.85801ZM15.5836 9.50353L15.8296 9.84553L15.8783 9.81049L15.6323 9.46849L15.5836 9.50353ZM16.376 9.45601H15.608V9.51601H16.376V9.45601ZM15.4495 10.0823C15.5541 10.1398 15.602 10.2617 15.614 10.5134L15.674 10.5106C15.6619 10.2584 15.6139 10.1042 15.4784 10.0297L15.4495 10.0823ZM16.52 10.026H15.464V10.086H16.52V10.026ZM16.37 10.5134C16.3819 10.2617 16.4299 10.1398 16.5344 10.0823L16.5055 10.0297C16.3701 10.1042 16.322 10.2584 16.31 10.5106L16.37 10.5134ZM15.644 10.542H16.34V10.482H15.644V10.542Z" fill="black"/>
<path d="M16.532 9.48003V9.14403C16.427 9.16641 16.3409 9.2412 16.304 9.34203C16.304 9.22203 16.154 8.96403 15.992 8.83203C15.83 8.97603 15.674 9.21603 15.68 9.33603C15.65 9.24603 15.572 9.17403 15.452 9.14403V9.48603L16.532 9.48003Z" fill="white" stroke="black" stroke-width="0.06" stroke-linejoin="bevel"/>
<path d="M16.58 10.056V9.72002C16.454 9.75602 16.37 9.82202 16.334 9.91802C16.334 9.79802 16.172 9.54002 15.992 9.40802C15.812 9.55802 15.644 9.79202 15.65 9.91802C15.62 9.82802 15.53 9.75602 15.404 9.72002V10.062L16.58 10.056Z" fill="white" stroke="black" stroke-width="0.06" stroke-linejoin="bevel"/>
<path d="M16.724 10.7581V10.3621C16.5991 10.4011 16.4912 10.4815 16.418 10.5901C16.418 10.3801 16.178 10.0501 15.992 9.94806C15.8 10.0561 15.566 10.3921 15.566 10.5901C15.491 10.4807 15.381 10.4003 15.254 10.3621V10.7581H16.724Z" fill="white" stroke="black" stroke-width="0.06" stroke-linejoin="bevel"/>
<path d="M16.64 11.64V11.232C16.496 11.286 16.46 11.418 16.412 11.514C16.43 11.1 16.184 10.662 15.992 10.548C15.8 10.662 15.548 11.112 15.572 11.508C15.524 11.424 15.482 11.286 15.344 11.232V11.634L16.64 11.64Z" fill="white" stroke="black" stroke-width="0.06" stroke-linejoin="bevel"/>
<path d="M16.544 12.252V11.844C16.394 11.88 16.388 11.934 16.34 12.024C16.358 11.778 16.184 11.496 15.992 11.388C15.8 11.496 15.632 11.778 15.644 12.024C15.596 11.934 15.59 11.88 15.44 11.844V12.252H16.544Z" fill="white" stroke="black" stroke-width="0.06"/>
<path d="M10.22 13.752V12.528C10.178 12.372 10.04 12.228 9.94403 12.204V11.124L10.166 11.244L10.424 12.378V13.758L10.22 13.752Z" fill="white" stroke="black" stroke-width="0.06"/>
<path d="M10.22 13.758V12.528C10.178 12.372 10.04 12.228 9.94403 12.204V11.052C10.094 11.052 10.166 11.244 10.166 11.244L10.424 12.378V13.752L10.22 13.758Z" fill="white" stroke="black" stroke-width="0.06"/>
<path d="M10.058 14.07C10.16 14.028 10.31 13.896 10.31 13.77V12.234L10.238 12.114H12.86L12.758 12.234V13.77C12.767 13.8995 12.8449 14.0141 12.962 14.07H10.058Z" fill="white" stroke="black" stroke-width="0.06"/>
<path d="M12.428 14.07C12.326 14.028 12.176 13.896 12.176 13.77V12.312L12.392 12.108H10.616L10.832 12.312V13.77C10.832 13.896 10.682 14.028 10.58 14.07H12.428Z" fill="white" stroke="black" stroke-width="0.06"/>
<path d="M12.182 14.07C12.08 14.028 11.924 13.896 11.924 13.77V12.45L12.068 12.252H10.94L11.084 12.45V13.77C11.084 13.896 10.934 14.028 10.826 14.07H12.182Z" fill="white" stroke="black" stroke-width="0.06"/>
<path d="M11.24 12.252H11.774V14.076H11.234L11.24 12.252Z" fill="white" stroke="black" stroke-width="0.06"/>
<path fill-rule="evenodd" clip-rule="evenodd" d="M10.316 10.8961H10.574V11.0881H10.58V12.1081H10.316V11.0881V10.8961ZM10.502 12.7561H10.718V13.7461H10.502V12.7561ZM12.35 12.7561H12.56V13.7461H12.344L12.35 12.7561ZM12.818 11.3101H12.452V12.0901H12.818V11.3101Z" fill="white"/>
<path d="M10.574 10.8961H10.604L10.574 10.8661V10.8961ZM10.316 10.8961V10.8661L10.286 10.8961H10.316ZM10.574 11.0881H10.544L10.574 11.1181V11.0881ZM10.58 11.0881H10.61L10.58 11.0581V11.0881ZM10.58 12.1081V12.1381L10.61 12.1081H10.58ZM10.316 12.1081H10.286L10.316 12.1381V12.1081ZM10.718 12.7561H10.748L10.718 12.7261V12.7561ZM10.502 12.7561V12.7261L10.472 12.7561H10.502ZM10.718 13.7461V13.7761L10.748 13.7461H10.718ZM10.502 13.7461H10.472L10.502 13.7761V13.7461ZM12.56 12.7561H12.59L12.56 12.7261V12.7561ZM12.35 12.7561V12.7261L12.32 12.7559L12.35 12.7561ZM12.56 13.7461V13.7761L12.59 13.7461H12.56ZM12.344 13.7461L12.314 13.7459L12.344 13.7761V13.7461ZM12.452 11.3101V11.2801L12.422 11.3101H12.452ZM12.818 11.3101H12.848L12.818 11.2801V11.3101ZM12.452 12.0901H12.422L12.452 12.1201V12.0901ZM12.818 12.0901V12.1201L12.848 12.0901H12.818ZM10.574 10.8661H10.316V10.9261H10.574V10.8661ZM10.604 11.0881V10.8961H10.544V11.0881H10.604ZM10.58 11.0581H10.574V11.1181H10.58V11.0581ZM10.61 12.1081V11.0881H10.55V12.1081H10.61ZM10.316 12.1381H10.58V12.0781H10.316V12.1381ZM10.286 11.0881V12.1081H10.346V11.0881H10.286ZM10.286 10.8961V11.0881H10.346V10.8961H10.286ZM10.718 12.7261H10.502V12.7861H10.718V12.7261ZM10.748 13.7461V12.7561H10.688V13.7461H10.748ZM10.502 13.7761H10.718V13.7161H10.502V13.7761ZM10.472 12.7561V13.7461H10.532V12.7561H10.472ZM12.56 12.7261H12.35V12.7861H12.56V12.7261ZM12.59 13.7461V12.7561H12.53V13.7461H12.59ZM12.344 13.7761H12.56V13.7161H12.344V13.7761ZM12.32 12.7559L12.314 13.7459L12.374 13.7462L12.38 12.7562L12.32 12.7559ZM12.452 11.3401H12.818V11.2801H12.452V11.3401ZM12.482 12.0901V11.3101H12.422V12.0901H12.482ZM12.818 12.0601H12.452V12.1201H12.818V12.0601ZM12.788 11.3101V12.0901H12.848V11.3101H12.788Z" fill="black"/>
<path fill-rule="evenodd" clip-rule="evenodd" d="M10.574 10.356V12.096H12.464V10.362C12.4355 10.362 12.4165 10.4015 12.3934 10.4491C12.3581 10.522 12.3136 10.614 12.212 10.614C12.122 10.614 12.134 10.506 12.182 10.422C12.224 10.344 12.278 10.242 12.206 10.044C12.152 10.194 12.02 10.242 12.044 10.152C12.0573 10.1009 12.0789 10.0629 12.0993 10.0271C12.1435 9.94955 12.1817 9.88236 12.116 9.71402C12.086 9.91802 11.954 9.91202 11.984 9.79202C11.9928 9.7585 12.004 9.72958 12.0146 9.70225C12.0477 9.61708 12.0747 9.54738 12.002 9.40202C11.948 9.62402 11.882 9.61202 11.882 9.47402C11.882 9.46963 11.882 9.46523 11.882 9.46082C11.8822 9.26625 11.8823 9.05229 11.63 8.97602C11.63 8.97602 11.612 8.79602 11.522 8.79602C11.426 8.79602 11.408 8.97602 11.408 8.97602C11.156 9.05402 11.156 9.27002 11.156 9.47402C11.156 9.61202 11.09 9.62402 11.036 9.40202C10.9634 9.54738 10.9904 9.61708 11.0235 9.70225C11.0341 9.72958 11.0453 9.7585 11.054 9.79202C11.084 9.91202 10.952 9.91802 10.922 9.71402C10.8563 9.88236 10.8946 9.94955 10.9388 10.0271C10.9591 10.0629 10.9808 10.1009 10.994 10.152C11.018 10.242 10.886 10.194 10.832 10.044C10.76 10.242 10.814 10.344 10.856 10.422C10.91 10.506 10.916 10.614 10.826 10.614C10.7245 10.614 10.6799 10.5198 10.6447 10.4452C10.6216 10.3964 10.6025 10.356 10.574 10.356ZM10.16 12.108V10.782C10.208 10.752 10.256 10.752 10.31 10.782V12.108H10.16Z" fill="white"/>
<path d="M10.574 12.096H10.544V12.126H10.574V12.096ZM10.574 10.356V10.326H10.544V10.356H10.574ZM12.464 12.096V12.126H12.494V12.096H12.464ZM12.464 10.362H12.494V10.332H12.464V10.362ZM12.3934 10.4491L12.4204 10.4622L12.4204 10.4622L12.3934 10.4491ZM12.182 10.422L12.2081 10.4369L12.2084 10.4362L12.182 10.422ZM12.206 10.044L12.2342 10.0338L12.2059 9.95585L12.1778 10.0339L12.206 10.044ZM12.044 10.152L12.073 10.1598L12.0731 10.1595L12.044 10.152ZM12.0993 10.0271L12.0732 10.0123L12.0732 10.0123L12.0993 10.0271ZM12.116 9.71402L12.144 9.70311L12.1028 9.59765L12.0864 9.70966L12.116 9.71402ZM11.984 9.79202L11.955 9.78445L11.9549 9.78474L11.984 9.79202ZM12.0146 9.70225L12.0426 9.7131L12.0426 9.7131L12.0146 9.70225ZM12.002 9.40202L12.0289 9.3886L11.9922 9.31535L11.9729 9.39493L12.002 9.40202ZM11.882 9.46082L11.912 9.46084L11.912 9.46084L11.882 9.46082ZM11.63 8.97602L11.6002 8.97901L11.6022 8.99894L11.6214 9.00474L11.63 8.97602ZM11.408 8.97602L11.4169 9.00468L11.4359 8.9988L11.4379 8.97901L11.408 8.97602ZM11.036 9.40202L11.0652 9.39493L11.0458 9.31535L11.0092 9.3886L11.036 9.40202ZM11.0235 9.70225L11.0514 9.69139L11.0514 9.69139L11.0235 9.70225ZM11.054 9.79202L11.0831 9.78474L11.0831 9.78445L11.054 9.79202ZM10.922 9.71402L10.9517 9.70966L10.9352 9.59765L10.8941 9.70311L10.922 9.71402ZM10.9388 10.0271L10.9648 10.0123L10.9648 10.0123L10.9388 10.0271ZM10.994 10.152L10.965 10.1595L10.965 10.1598L10.994 10.152ZM10.832 10.044L10.8603 10.0339L10.8322 9.95585L10.8038 10.0338L10.832 10.044ZM10.856 10.422L10.8295 10.4363L10.8308 10.4382L10.856 10.422ZM10.6447 10.4452L10.6718 10.4324L10.6718 10.4324L10.6447 10.4452ZM10.16 10.782L10.1441 10.7566L10.13 10.7654V10.782H10.16ZM10.16 12.108H10.13V12.138H10.16V12.108ZM10.31 10.782H10.34V10.7644L10.3246 10.7558L10.31 10.782ZM10.31 12.108V12.138H10.34V12.108H10.31ZM10.604 12.096V10.356H10.544V12.096H10.604ZM12.464 12.066H10.574V12.126H12.464V12.066ZM12.434 10.362V12.096H12.494V10.362H12.434ZM12.4204 10.4622C12.4323 10.4376 12.4417 10.4184 12.4511 10.4051C12.4557 10.3986 12.4593 10.395 12.4618 10.3933C12.4629 10.3924 12.4636 10.3922 12.4638 10.3921C12.464 10.392 12.464 10.392 12.464 10.392V10.332C12.4344 10.332 12.4147 10.3528 12.4022 10.3704C12.3892 10.3887 12.3775 10.413 12.3664 10.4361L12.4204 10.4622ZM12.212 10.644C12.2735 10.644 12.3177 10.6156 12.3501 10.5787C12.3815 10.543 12.4031 10.4979 12.4204 10.4622L12.3664 10.4361C12.3484 10.4732 12.3301 10.5106 12.305 10.5391C12.281 10.5665 12.2521 10.584 12.212 10.584V10.644ZM12.156 10.4071C12.1304 10.4519 12.1126 10.5058 12.1153 10.5513C12.1167 10.5744 12.1236 10.5982 12.1408 10.6164C12.1585 10.6352 12.1833 10.644 12.212 10.644V10.584C12.1958 10.584 12.1883 10.5794 12.1845 10.5753C12.1801 10.5706 12.1761 10.5621 12.1752 10.5477C12.1735 10.5182 12.1857 10.4761 12.2081 10.4369L12.156 10.4071ZM12.1778 10.0543C12.2124 10.1493 12.216 10.219 12.2072 10.2732C12.1983 10.3278 12.1766 10.3689 12.1556 10.4078L12.2084 10.4362C12.2295 10.3972 12.2558 10.3483 12.2664 10.2828C12.2771 10.217 12.2717 10.1368 12.2342 10.0338L12.1778 10.0543ZM12.015 10.1443C12.0083 10.1696 12.0078 10.2032 12.0364 10.22C12.049 10.2275 12.0629 10.2283 12.0747 10.2267C12.0866 10.225 12.0985 10.2205 12.1098 10.2145C12.1544 10.1909 12.2052 10.1348 12.2343 10.0542L12.1778 10.0339C12.1528 10.1032 12.1107 10.1462 12.0817 10.1615C12.0747 10.1653 12.0695 10.1668 12.0663 10.1672C12.0631 10.1677 12.0641 10.1667 12.0669 10.1684C12.0757 10.1736 12.0678 10.1795 12.073 10.1598L12.015 10.1443ZM12.0732 10.0123C12.0529 10.048 12.0294 10.0891 12.015 10.1445L12.0731 10.1595C12.0852 10.1127 12.105 10.0778 12.1254 10.042L12.0732 10.0123ZM12.0881 9.72493C12.1198 9.80608 12.1251 9.85954 12.1192 9.90031C12.1132 9.94147 12.0956 9.97303 12.0732 10.0123L12.1254 10.042C12.1472 10.0036 12.1708 9.96282 12.1786 9.9089C12.1864 9.8546 12.178 9.7903 12.144 9.70311L12.0881 9.72493ZM11.9549 9.78474C11.9464 9.81887 11.9478 9.85094 11.9621 9.87468C11.9695 9.88689 11.9803 9.89659 11.9939 9.90185C12.0074 9.90708 12.0219 9.90716 12.0354 9.90346C12.0619 9.89624 12.0857 9.87481 12.1041 9.84485C12.1228 9.81434 12.1378 9.77236 12.1457 9.71839L12.0864 9.70966C12.0793 9.75768 12.0665 9.79146 12.053 9.81344C12.0391 9.83598 12.0261 9.84381 12.0196 9.84558C12.0167 9.84638 12.0156 9.8459 12.0155 9.84588C12.0154 9.84584 12.0152 9.84576 12.015 9.84551C12.0147 9.84526 12.0141 9.8447 12.0134 9.84361C12.0106 9.83885 12.0067 9.82517 12.0131 9.7993L11.9549 9.78474ZM11.9866 9.69139C11.9761 9.71861 11.9642 9.74903 11.955 9.78445L12.0131 9.79959C12.0213 9.76796 12.0319 9.74054 12.0426 9.7131L11.9866 9.69139ZM11.9752 9.41544C12.01 9.48501 12.0196 9.53371 12.018 9.57353C12.0164 9.61402 12.0034 9.64824 11.9866 9.69139L12.0426 9.7131C12.0589 9.67109 12.0759 9.62787 12.0779 9.57588C12.08 9.52321 12.0668 9.46439 12.0289 9.3886L11.9752 9.41544ZM11.852 9.47402C11.852 9.51011 11.8562 9.54129 11.8655 9.56364C11.87 9.57472 11.877 9.58649 11.888 9.59459C11.9005 9.60376 11.9159 9.60645 11.931 9.60157C11.9443 9.59727 11.955 9.58791 11.9633 9.57809C11.9718 9.56792 11.9799 9.55491 11.9874 9.5396C12.0025 9.50896 12.0174 9.46577 12.0312 9.40911L11.9729 9.39493C11.9597 9.44928 11.946 9.48783 11.9336 9.51306C11.9274 9.52569 11.9218 9.53415 11.9174 9.5394C11.9127 9.545 11.9109 9.54502 11.9126 9.54447C11.9161 9.54334 11.9207 9.54416 11.9235 9.54624C11.9249 9.54727 11.9234 9.54676 11.9209 9.54078C11.9161 9.52901 11.912 9.50693 11.912 9.47402H11.852ZM11.852 9.4608C11.852 9.46521 11.852 9.46962 11.852 9.47402H11.912C11.912 9.46964 11.912 9.46525 11.912 9.46084L11.852 9.4608ZM11.6214 9.00474C11.7383 9.04009 11.7942 9.1057 11.8225 9.18423C11.8518 9.26571 11.8521 9.36225 11.852 9.4608L11.912 9.46084C11.9121 9.36481 11.9125 9.25709 11.8789 9.16388C11.8443 9.06772 11.774 8.98822 11.6387 8.9473L11.6214 9.00474ZM11.522 8.82602C11.5332 8.82602 11.5435 8.83117 11.554 8.84357C11.565 8.85644 11.5742 8.87504 11.5815 8.89593C11.5887 8.91648 11.5934 8.93736 11.5963 8.95331C11.5978 8.96122 11.5987 8.96779 11.5994 8.97232C11.5997 8.97458 11.5999 8.97633 11.6 8.97748C11.6001 8.97805 11.6001 8.97847 11.6002 8.97873C11.6002 8.97886 11.6002 8.97895 11.6002 8.97899C11.6002 8.97902 11.6002 8.97903 11.6002 8.97903C11.6002 8.97903 11.6002 8.97903 11.6002 8.97903C11.6002 8.97902 11.6002 8.97902 11.6002 8.97902C11.6002 8.97901 11.6002 8.97901 11.63 8.97602C11.6599 8.97304 11.6599 8.97303 11.6599 8.97302C11.6599 8.97302 11.6599 8.97301 11.6599 8.973C11.6599 8.97298 11.6599 8.97297 11.6599 8.97294C11.6599 8.9729 11.6599 8.97285 11.6599 8.97279C11.6598 8.97266 11.6598 8.97249 11.6598 8.97228C11.6598 8.97186 11.6597 8.97127 11.6596 8.97052C11.6594 8.96903 11.6592 8.96691 11.6588 8.96425C11.6581 8.95894 11.657 8.95144 11.6553 8.94249C11.6521 8.92468 11.6467 8.90056 11.6381 8.87611C11.6297 8.852 11.6175 8.8256 11.5997 8.80472C11.5816 8.78337 11.5559 8.76602 11.522 8.76602V8.82602ZM11.408 8.97602C11.4379 8.97901 11.4379 8.97901 11.4379 8.97902C11.4379 8.97902 11.4379 8.97903 11.4379 8.97903C11.4379 8.97903 11.4379 8.97904 11.4379 8.97903C11.4379 8.97903 11.4379 8.97902 11.4379 8.979C11.4379 8.97896 11.4379 8.97887 11.4379 8.97874C11.4379 8.97849 11.438 8.97807 11.4381 8.97751C11.4382 8.97637 11.4384 8.97464 11.4387 8.97239C11.4393 8.96788 11.4403 8.96135 11.4418 8.95346C11.4448 8.93758 11.4497 8.9168 11.4572 8.89635C11.4648 8.87559 11.4744 8.85708 11.486 8.84421C11.4971 8.83189 11.5087 8.82602 11.522 8.82602V8.76602C11.4874 8.76602 11.4607 8.78265 11.4414 8.80408C11.4226 8.82496 11.4098 8.85146 11.4009 8.87569C11.3919 8.90025 11.3862 8.92446 11.3829 8.94233C11.3812 8.95132 11.38 8.95884 11.3793 8.96418C11.3789 8.96685 11.3786 8.96899 11.3785 8.97049C11.3784 8.97124 11.3783 8.97184 11.3783 8.97227C11.3782 8.97248 11.3782 8.97265 11.3782 8.97278C11.3782 8.97284 11.3782 8.9729 11.3782 8.97294C11.3782 8.97296 11.3782 8.97298 11.3782 8.973C11.3782 8.973 11.3782 8.97301 11.3782 8.97302C11.3782 8.97303 11.3782 8.97304 11.408 8.97602ZM11.186 9.47402C11.186 9.37073 11.1864 9.27124 11.2158 9.18776C11.2442 9.10725 11.3002 9.04081 11.4169 9.00468L11.3992 8.94736C11.2639 8.98923 11.1938 9.06979 11.1592 9.16779C11.1257 9.2628 11.126 9.37331 11.126 9.47402H11.186ZM11.0069 9.40911C11.0207 9.46577 11.0355 9.50896 11.0507 9.5396C11.0582 9.55491 11.0662 9.56792 11.0748 9.57809C11.0831 9.58791 11.0937 9.59727 11.1071 9.60157C11.1222 9.60645 11.1376 9.60376 11.1501 9.59459C11.1611 9.58649 11.168 9.57472 11.1726 9.56364C11.1818 9.54129 11.186 9.51011 11.186 9.47402H11.126C11.126 9.50693 11.122 9.52901 11.1171 9.54078C11.1147 9.54676 11.1131 9.54727 11.1145 9.54624C11.1174 9.54416 11.122 9.54334 11.1255 9.54447C11.1272 9.54502 11.1254 9.545 11.1207 9.5394C11.1162 9.53415 11.1107 9.52569 11.1045 9.51306C11.092 9.48783 11.0784 9.44928 11.0652 9.39493L11.0069 9.40911ZM11.0514 9.69139C11.0347 9.64824 11.0217 9.61402 11.0201 9.57353C11.0185 9.53371 11.0281 9.48501 11.0629 9.41544L11.0092 9.3886C10.9713 9.46439 10.9581 9.52321 10.9601 9.57588C10.9622 9.62787 10.9792 9.67109 10.9955 9.7131L11.0514 9.69139ZM11.0831 9.78445C11.0738 9.74903 11.062 9.71861 11.0514 9.69139L10.9955 9.7131C11.0061 9.74054 11.0168 9.76796 11.025 9.79959L11.0831 9.78445ZM10.8924 9.71839C10.9003 9.77236 10.9152 9.81434 10.934 9.84485C10.9524 9.87481 10.9761 9.89624 11.0026 9.90346C11.0162 9.90716 11.0306 9.90708 11.0442 9.90185C11.0578 9.89659 11.0686 9.88689 11.0759 9.87468C11.0903 9.85094 11.0917 9.81887 11.0831 9.78474L11.0249 9.7993C11.0314 9.82517 11.0275 9.83885 11.0246 9.84361C11.024 9.8447 11.0234 9.84526 11.0231 9.84551C11.0228 9.84576 11.0227 9.84584 11.0226 9.84588C11.0225 9.8459 11.0214 9.84638 11.0184 9.84558C11.0119 9.84381 10.9989 9.83598 10.9851 9.81344C10.9716 9.79146 10.9588 9.75768 10.9517 9.70966L10.8924 9.71839ZM10.9648 10.0123C10.9425 9.97303 10.9248 9.94147 10.9189 9.90031C10.913 9.85954 10.9183 9.80608 10.95 9.72493L10.8941 9.70311C10.8601 9.7903 10.8517 9.8546 10.8595 9.9089C10.8673 9.96282 10.8909 10.0036 10.9127 10.042L10.9648 10.0123ZM11.0231 10.1445C11.0087 10.0891 10.9852 10.048 10.9648 10.0123L10.9127 10.042C10.9331 10.0778 10.9528 10.1127 10.965 10.1595L11.0231 10.1445ZM10.8038 10.0542C10.8328 10.1348 10.8837 10.1909 10.9282 10.2145C10.9395 10.2205 10.9515 10.225 10.9634 10.2267C10.9752 10.2283 10.9891 10.2275 11.0017 10.22C11.0302 10.2032 11.0298 10.1696 11.023 10.1443L10.965 10.1598C10.9703 10.1795 10.9623 10.1736 10.9712 10.1684C10.9739 10.1667 10.975 10.1677 10.9717 10.1672C10.9686 10.1668 10.9634 10.1653 10.9563 10.1615C10.9274 10.1462 10.8852 10.1032 10.8603 10.0339L10.8038 10.0542ZM10.8824 10.4078C10.8615 10.3689 10.8398 10.3278 10.8309 10.2732C10.8221 10.219 10.8257 10.1493 10.8602 10.0543L10.8038 10.0338C10.7664 10.1368 10.761 10.217 10.7717 10.2828C10.7823 10.3483 10.8086 10.3972 10.8296 10.4362L10.8824 10.4078ZM10.826 10.644C10.8548 10.644 10.8796 10.6352 10.8977 10.6169C10.9153 10.599 10.9231 10.5754 10.9249 10.5519C10.9286 10.5058 10.9105 10.4513 10.8813 10.4058L10.8308 10.4382C10.8555 10.4767 10.8674 10.5182 10.8651 10.5471C10.864 10.5612 10.8598 10.5698 10.8549 10.5748C10.8504 10.5793 10.8423 10.584 10.826 10.584V10.644ZM10.6176 10.458C10.6349 10.4946 10.6564 10.5406 10.6878 10.5771C10.7201 10.6147 10.7643 10.644 10.826 10.644V10.584C10.7862 10.584 10.7574 10.5662 10.7333 10.538C10.7081 10.5088 10.6898 10.4704 10.6718 10.4324L10.6176 10.458ZM10.574 10.386C10.574 10.386 10.574 10.386 10.574 10.386C10.574 10.386 10.574 10.386 10.574 10.386C10.5739 10.386 10.5739 10.386 10.574 10.386C10.5742 10.3861 10.5749 10.3864 10.576 10.3872C10.5785 10.3891 10.5821 10.3927 10.5867 10.3994C10.5962 10.4131 10.6057 10.4328 10.6176 10.458L10.6718 10.4324C10.6606 10.4088 10.649 10.3839 10.6361 10.3652C10.6237 10.3475 10.604 10.326 10.574 10.326V10.386ZM10.13 10.782V12.108H10.19V10.782H10.13ZM10.3246 10.7558C10.2943 10.739 10.2638 10.7295 10.2328 10.7295C10.2016 10.7295 10.1721 10.7391 10.1441 10.7566L10.1759 10.8075C10.1959 10.795 10.2145 10.7895 10.2328 10.7895C10.2512 10.7895 10.2718 10.7951 10.2955 10.8082L10.3246 10.7558ZM10.34 12.108V10.782H10.28V12.108H10.34ZM10.16 12.138H10.31V12.078H10.16V12.138Z" fill="black"/>
<path fill-rule="evenodd" clip-rule="evenodd" d="M12.764 12.108V11.244C12.794 11.22 12.848 11.226 12.884 11.244V12.108H12.764ZM10.592 12.108C10.544 11.85 10.358 11.736 10.172 11.64V12.108H10.592Z" fill="white"/>
<path d="M12.764 11.244L12.7453 11.2206L12.734 11.2296V11.244H12.764ZM12.764 12.108H12.734V12.138H12.764V12.108ZM12.884 11.244H12.914V11.2255L12.8974 11.2172L12.884 11.244ZM12.884 12.108V12.138H12.914V12.108H12.884ZM10.172 11.64L10.1858 11.6134L10.142 11.5908V11.64H10.172ZM10.592 12.108V12.138H10.6281L10.6215 12.1026L10.592 12.108ZM10.172 12.108H10.142V12.138H10.172V12.108ZM12.734 11.244V12.108H12.794V11.244H12.734ZM12.8974 11.2172C12.8756 11.2063 12.8489 11.1992 12.8228 11.1983C12.7971 11.1974 12.7679 11.2025 12.7453 11.2206L12.7827 11.2675C12.7901 11.2616 12.8029 11.2577 12.8207 11.2583C12.8381 11.2589 12.8564 11.2638 12.8706 11.2709L12.8974 11.2172ZM12.914 12.108V11.244H12.854V12.108H12.914ZM12.764 12.138H12.884V12.078H12.764V12.138ZM10.1582 11.6667C10.3437 11.7624 10.5173 11.8707 10.5625 12.1135L10.6215 12.1026C10.5707 11.8294 10.3723 11.7097 10.1858 11.6134L10.1582 11.6667ZM10.202 12.108V11.64H10.142V12.108H10.202ZM10.592 12.078H10.172V12.138H10.592V12.078Z" fill="black"/>
<path fill-rule="evenodd" clip-rule="evenodd" d="M11.756 9.52802L11.648 9.61802H11.378L11.27 9.52202V9.40202C11.312 9.41402 11.33 9.42002 11.36 9.46202C11.3864 9.38532 11.4426 9.32255 11.516 9.28802C11.5884 9.32521 11.6425 9.39017 11.666 9.46802C11.696 9.42602 11.72 9.40802 11.756 9.40802V9.52802ZM12.464 12.102C12.512 11.838 12.698 11.73 12.884 11.64V12.102H12.464Z" fill="white"/>
<path d="M11.648 9.61802V9.64802H11.6589L11.6672 9.64107L11.648 9.61802ZM11.756 9.52802L11.7752 9.55107L11.786 9.54208V9.52802H11.756ZM11.378 9.61802L11.3581 9.64045L11.3666 9.64802H11.378V9.61802ZM11.27 9.52202H11.24V9.5355L11.2501 9.54445L11.27 9.52202ZM11.27 9.40202L11.2783 9.37318L11.24 9.36225V9.40202H11.27ZM11.36 9.46202L11.3356 9.47946L11.3695 9.52687L11.3884 9.47177L11.36 9.46202ZM11.516 9.28802L11.5297 9.26134L11.5166 9.25459L11.5032 9.26088L11.516 9.28802ZM11.666 9.46802L11.6373 9.47671L11.655 9.53512L11.6904 9.48546L11.666 9.46802ZM11.756 9.40802H11.786V9.37802H11.756V9.40802ZM12.884 11.64H12.914V11.5922L12.871 11.613L12.884 11.64ZM12.464 12.102L12.4345 12.0967L12.4281 12.132H12.464V12.102ZM12.884 12.102V12.132H12.914V12.102H12.884ZM11.6672 9.64107L11.7752 9.55107L11.7368 9.50498L11.6288 9.59498L11.6672 9.64107ZM11.378 9.64802H11.648V9.58802H11.378V9.64802ZM11.2501 9.54445L11.3581 9.64045L11.398 9.5956L11.29 9.4996L11.2501 9.54445ZM11.24 9.40202V9.52202H11.3V9.40202H11.24ZM11.3844 9.44459C11.3682 9.42188 11.3534 9.40635 11.3352 9.39518C11.3176 9.38445 11.2986 9.37899 11.2783 9.37318L11.2618 9.43087C11.2834 9.43706 11.2944 9.4406 11.3039 9.44637C11.3126 9.4517 11.3218 9.46017 11.3356 9.47946L11.3844 9.44459ZM11.5032 9.26088C11.4225 9.29886 11.3606 9.36791 11.3316 9.45228L11.3884 9.47177C11.4121 9.40274 11.4627 9.34625 11.5288 9.31517L11.5032 9.26088ZM11.6947 9.45934C11.6688 9.37371 11.6093 9.30225 11.5297 9.26134L11.5023 9.31471C11.5674 9.34817 11.6161 9.40664 11.6373 9.47671L11.6947 9.45934ZM11.756 9.37802C11.7323 9.37802 11.7113 9.38418 11.6918 9.39752C11.6733 9.41021 11.6573 9.42855 11.6416 9.45059L11.6904 9.48546C11.7047 9.4655 11.7158 9.45384 11.7257 9.44703C11.7347 9.44087 11.7437 9.43802 11.756 9.43802V9.37802ZM11.786 9.52802V9.40802H11.726V9.52802H11.786ZM12.871 11.613C12.6841 11.7034 12.4853 11.8171 12.4345 12.0967L12.4935 12.1074C12.5387 11.8589 12.7119 11.7566 12.8971 11.667L12.871 11.613ZM12.914 12.102V11.64H12.854V12.102H12.914ZM12.464 12.132H12.884V12.072H12.464V12.132Z" fill="black"/>
<path d="M11.708 9.91202L11.756 9.79802V9.64802C11.72 9.64802 11.696 9.66602 11.666 9.70802C11.6425 9.63016 11.5884 9.5652 11.516 9.52802C11.4426 9.56255 11.3864 9.62531 11.36 9.70202C11.33 9.66002 11.312 9.65402 11.27 9.64802V9.79802L11.318 9.91202H11.708Z" fill="white" stroke="black" stroke-width="0.06"/>
<path d="M11.72 10.308L11.876 10.11V9.91801C11.816 9.91801 11.786 9.94801 11.744 10.014C11.702 9.87601 11.624 9.85201 11.516 9.78601C11.402 9.84601 11.324 9.87601 11.288 10.008C11.24 9.94201 11.21 9.92401 11.15 9.91801V10.11L11.312 10.308H11.72Z" fill="white" stroke="black" stroke-width="0.06"/>
<path d="M11.762 10.698C11.762 10.698 11.954 10.536 11.96 10.446V10.236C11.888 10.242 11.822 10.26 11.768 10.35C11.72 10.176 11.648 10.128 11.516 10.05C11.378 10.128 11.306 10.176 11.264 10.35C11.204 10.26 11.144 10.242 11.066 10.23V10.446C11.1164 10.5412 11.1835 10.6266 11.264 10.698H11.762Z" fill="white" stroke="black" stroke-width="0.06"/>
<path d="M11.84 11.418C11.84 11.418 12.104 11.136 12.11 11.022V10.698C12.014 10.71 11.918 10.776 11.846 10.914C11.786 10.644 11.69 10.458 11.516 10.326C11.336 10.458 11.24 10.644 11.18 10.914C11.108 10.776 11.018 10.71 10.922 10.698V11.022C10.94 11.136 11.186 11.418 11.186 11.418H11.84Z" fill="white" stroke="black" stroke-width="0.06"/>
<path d="M11.84 11.844C11.84 11.844 12.062 11.622 12.11 11.526V11.202C12.014 11.214 11.918 11.28 11.846 11.412C11.8136 11.1916 11.6949 10.993 11.516 10.86C11.336 10.992 11.24 11.142 11.18 11.412C11.108 11.28 11.018 11.214 10.922 11.202V11.526C10.982 11.622 11.186 11.844 11.186 11.844H11.84Z" fill="white" stroke="black" stroke-width="0.06"/>
<path d="M11.93 12.096C11.87 11.814 11.81 11.604 11.504 11.394C11.192 11.604 11.138 11.814 11.072 12.096H11.93Z" fill="white" stroke="black" stroke-width="0.06"/>
<path d="M12.092 12.252V11.844C11.948 11.904 11.822 11.982 11.774 12.072C11.726 11.844 11.624 11.748 11.498 11.61C11.372 11.748 11.288 11.85 11.234 12.072C11.186 11.982 11.06 11.898 10.922 11.844V12.252H12.092Z" fill="white" stroke="black" stroke-width="0.06"/>
<path d="M21.782 13.752V12.528C21.824 12.372 21.962 12.228 22.058 12.204V11.124L21.836 11.244L21.578 12.378V13.758L21.782 13.752Z" fill="white" stroke="black" stroke-width="0.06"/>
<path d="M21.782 13.758V12.528C21.824 12.372 21.962 12.228 22.058 12.204V11.052C21.908 11.052 21.836 11.244 21.836 11.244L21.578 12.378V13.752L21.782 13.758Z" fill="white" stroke="black" stroke-width="0.06"/>
<path d="M21.944 14.07C21.842 14.028 21.692 13.896 21.692 13.77V12.234L21.764 12.114H19.142L19.244 12.234V13.77C19.2351 13.8995 19.1571 14.0141 19.04 14.07H21.944Z" fill="white" stroke="black" stroke-width="0.06"/>
<path d="M19.574 14.07C19.676 14.028 19.826 13.896 19.826 13.77V12.312L19.61 12.108H21.386L21.17 12.312V13.77C21.17 13.896 21.32 14.028 21.422 14.07H19.574Z" fill="white" stroke="black" stroke-width="0.06"/>
<path d="M19.82 14.07C19.922 14.028 20.078 13.896 20.078 13.77V12.45L19.934 12.252H21.062L20.918 12.45V13.77C20.918 13.896 21.068 14.028 21.176 14.07H19.82Z" fill="white" stroke="black" stroke-width="0.06"/>
<path d="M20.762 12.252H20.228V14.076H20.768L20.762 12.252Z" fill="white" stroke="black" stroke-width="0.06"/>
<path fill-rule="evenodd" clip-rule="evenodd" d="M21.686 10.8961H21.428V11.0881H21.422V12.1081H21.686V11.0881V10.8961ZM21.5 12.7561H21.284V13.7461H21.5V12.7561ZM19.652 12.7561H19.442V13.7461H19.658L19.652 12.7561ZM19.184 11.3101H19.55V12.0901H19.184V11.3101Z" fill="white"/>
<path d="M21.428 10.8961H21.398L21.428 10.8661V10.8961ZM21.686 10.8961V10.8661L21.716 10.8961H21.686ZM21.428 11.0881H21.458L21.428 11.1181V11.0881ZM21.422 11.0881H21.392L21.422 11.0581V11.0881ZM21.422 12.1081V12.1381L21.392 12.1081H21.422ZM21.686 12.1081H21.716L21.686 12.1381V12.1081ZM21.284 12.7561H21.254L21.284 12.7261V12.7561ZM21.5 12.7561V12.7261L21.53 12.7561H21.5ZM21.284 13.7461V13.7761L21.254 13.7461H21.284ZM21.5 13.7461H21.53L21.5 13.7761V13.7461ZM19.442 12.7561H19.412L19.442 12.7261V12.7561ZM19.652 12.7561V12.7261L19.682 12.7559L19.652 12.7561ZM19.442 13.7461V13.7761L19.412 13.7461H19.442ZM19.658 13.7461L19.688 13.7459L19.658 13.7761V13.7461ZM19.55 11.3101V11.2801L19.58 11.3101H19.55ZM19.184 11.3101H19.154L19.184 11.2801V11.3101ZM19.55 12.0901H19.58L19.55 12.1201V12.0901ZM19.184 12.0901V12.1201L19.154 12.0901H19.184ZM21.428 10.8661H21.686V10.9261H21.428V10.8661ZM21.398 11.0881V10.8961H21.458V11.0881H21.398ZM21.422 11.0581H21.428V11.1181H21.422V11.0581ZM21.392 12.1081V11.0881H21.452V12.1081H21.392ZM21.686 12.1381H21.422V12.0781H21.686V12.1381ZM21.716 11.0881V12.1081H21.656V11.0881H21.716ZM21.716 10.8961V11.0881H21.656V10.8961H21.716ZM21.284 12.7261H21.5V12.7861H21.284V12.7261ZM21.254 13.7461V12.7561H21.314V13.7461H21.254ZM21.5 13.7761H21.284V13.7161H21.5V13.7761ZM21.53 12.7561V13.7461H21.47V12.7561H21.53ZM19.442 12.7261H19.652V12.7861H19.442V12.7261ZM19.412 13.7461V12.7561H19.472V13.7461H19.412ZM19.658 13.7761H19.442V13.7161H19.658V13.7761ZM19.682 12.7559L19.688 13.7459L19.628 13.7462L19.622 12.7562L19.682 12.7559ZM19.55 11.3401H19.184V11.2801H19.55V11.3401ZM19.52 12.0901V11.3101H19.58V12.0901H19.52ZM19.184 12.0601H19.55V12.1201H19.184V12.0601ZM19.214 11.3101V12.0901H19.154V11.3101H19.214Z" fill="black"/>
<path fill-rule="evenodd" clip-rule="evenodd" d="M21.428 10.356V12.096H19.538V10.362C19.5665 10.362 19.5856 10.4015 19.6087 10.4491C19.644 10.522 19.6885 10.614 19.79 10.614C19.88 10.614 19.868 10.506 19.82 10.422C19.778 10.344 19.724 10.242 19.796 10.044C19.85 10.194 19.982 10.242 19.958 10.152C19.9448 10.1009 19.9231 10.0629 19.9028 10.0271C19.8586 9.94955 19.8203 9.88236 19.886 9.71402C19.916 9.91802 20.048 9.91202 20.018 9.79202C20.0093 9.7585 19.9981 9.72958 19.9875 9.70225C19.9544 9.61708 19.9274 9.54738 20 9.40202C20.054 9.62402 20.12 9.61202 20.12 9.47402C20.12 9.46963 20.12 9.46523 20.12 9.46082C20.1199 9.26625 20.1198 9.05229 20.372 8.97602C20.372 8.97602 20.39 8.79602 20.48 8.79602C20.576 8.79602 20.594 8.97602 20.594 8.97602C20.846 9.05402 20.846 9.27002 20.846 9.47402C20.846 9.61202 20.912 9.62402 20.966 9.40202C21.0387 9.54738 21.0117 9.61708 20.9786 9.70225C20.968 9.72958 20.9568 9.7585 20.948 9.79202C20.918 9.91202 21.05 9.91802 21.08 9.71402C21.1457 9.88236 21.1075 9.94955 21.0633 10.0271C21.0429 10.0629 21.0213 10.1009 21.008 10.152C20.984 10.242 21.116 10.194 21.17 10.044C21.242 10.242 21.188 10.344 21.146 10.422C21.092 10.506 21.086 10.614 21.176 10.614C21.2776 10.614 21.3221 10.5198 21.3574 10.4452C21.3805 10.3964 21.3996 10.356 21.428 10.356ZM21.842 12.108V10.782C21.794 10.752 21.746 10.752 21.692 10.782V12.108H21.842Z" fill="white"/>
<path d="M21.428 12.096H21.458V12.126H21.428V12.096ZM21.428 10.356V10.326H21.458V10.356H21.428ZM19.538 12.096V12.126H19.508V12.096H19.538ZM19.538 10.362H19.508V10.332H19.538V10.362ZM19.6087 10.4491L19.5817 10.4622L19.5817 10.4622L19.6087 10.4491ZM19.82 10.422L19.794 10.4369L19.7936 10.4362L19.82 10.422ZM19.796 10.044L19.7678 10.0338L19.7962 9.95585L19.8243 10.0339L19.796 10.044ZM19.958 10.152L19.9291 10.1598L19.929 10.1595L19.958 10.152ZM19.9028 10.0271L19.9288 10.0123L19.9288 10.0123L19.9028 10.0271ZM19.886 9.71402L19.8581 9.70311L19.8993 9.59765L19.9157 9.70966L19.886 9.71402ZM20.018 9.79202L20.0471 9.78445L20.0471 9.78474L20.018 9.79202ZM19.9875 9.70225L19.9595 9.7131L19.9595 9.7131L19.9875 9.70225ZM20 9.40202L19.9732 9.3886L20.0098 9.31535L20.0292 9.39493L20 9.40202ZM20.12 9.46082L20.09 9.46084L20.09 9.46084L20.12 9.46082ZM20.372 8.97602L20.4019 8.97901L20.3999 8.99894L20.3807 9.00474L20.372 8.97602ZM20.594 8.97602L20.5852 9.00468L20.5662 8.9988L20.5642 8.97901L20.594 8.97602ZM20.966 9.40202L20.9369 9.39493L20.9562 9.31535L20.9929 9.3886L20.966 9.40202ZM20.9786 9.70225L20.9506 9.69139L20.9506 9.69139L20.9786 9.70225ZM20.948 9.79202L20.9189 9.78474L20.919 9.78445L20.948 9.79202ZM21.08 9.71402L21.0504 9.70966L21.0668 9.59765L21.108 9.70311L21.08 9.71402ZM21.0633 10.0271L21.0372 10.0123L21.0372 10.0123L21.0633 10.0271ZM21.008 10.152L21.0371 10.1595L21.037 10.1598L21.008 10.152ZM21.17 10.044L21.1418 10.0339L21.1699 9.95585L21.1982 10.0338L21.17 10.044ZM21.146 10.422L21.1725 10.4363L21.1713 10.4382L21.146 10.422ZM21.3574 10.4452L21.3303 10.4324L21.3303 10.4324L21.3574 10.4452ZM21.842 10.782L21.8579 10.7566L21.872 10.7654V10.782H21.842ZM21.842 12.108H21.872V12.138H21.842V12.108ZM21.692 10.782H21.662V10.7644L21.6775 10.7558L21.692 10.782ZM21.692 12.108V12.138H21.662V12.108H21.692ZM21.398 12.096V10.356H21.458V12.096H21.398ZM19.538 12.066H21.428V12.126H19.538V12.066ZM19.568 10.362V12.096H19.508V10.362H19.568ZM19.5817 10.4622C19.5698 10.4376 19.5604 10.4184 19.5509 10.4051C19.5463 10.3986 19.5428 10.395 19.5403 10.3933C19.5392 10.3924 19.5385 10.3922 19.5383 10.3921C19.5381 10.392 19.5381 10.392 19.538 10.392V10.332C19.5677 10.332 19.5874 10.3528 19.5999 10.3704C19.6129 10.3887 19.6245 10.413 19.6357 10.4361L19.5817 10.4622ZM19.79 10.644C19.7286 10.644 19.6844 10.6156 19.652 10.5787C19.6206 10.543 19.599 10.4979 19.5817 10.4622L19.6357 10.4361C19.6537 10.4732 19.672 10.5106 19.697 10.5391C19.7211 10.5665 19.75 10.584 19.79 10.584V10.644ZM19.8461 10.4071C19.8717 10.4519 19.8895 10.5058 19.8867 10.5513C19.8854 10.5744 19.8784 10.5982 19.8613 10.6164C19.8436 10.6352 19.8188 10.644 19.79 10.644V10.584C19.8063 10.584 19.8137 10.5794 19.8176 10.5753C19.822 10.5706 19.826 10.5621 19.8268 10.5477C19.8286 10.5182 19.8164 10.4761 19.794 10.4369L19.8461 10.4071ZM19.8242 10.0543C19.7897 10.1493 19.7861 10.219 19.7949 10.2732C19.8038 10.3278 19.8255 10.3689 19.8465 10.4078L19.7936 10.4362C19.7726 10.3972 19.7463 10.3483 19.7357 10.2828C19.725 10.217 19.7304 10.1368 19.7678 10.0338L19.8242 10.0543ZM19.987 10.1443C19.9938 10.1696 19.9942 10.2032 19.9657 10.22C19.9531 10.2275 19.9392 10.2283 19.9274 10.2267C19.9155 10.225 19.9035 10.2205 19.8922 10.2145C19.8477 10.1909 19.7968 10.1348 19.7678 10.0542L19.8243 10.0339C19.8492 10.1032 19.8914 10.1462 19.9204 10.1615C19.9274 10.1653 19.9326 10.1668 19.9357 10.1672C19.939 10.1677 19.938 10.1667 19.9352 10.1684C19.9264 10.1736 19.9343 10.1795 19.9291 10.1598L19.987 10.1443ZM19.9288 10.0123C19.9492 10.048 19.9727 10.0891 19.9871 10.1445L19.929 10.1595C19.9168 10.1127 19.8971 10.0778 19.8767 10.042L19.9288 10.0123ZM19.914 9.72493C19.8823 9.80608 19.877 9.85954 19.8829 9.90031C19.8889 9.94147 19.9065 9.97303 19.9288 10.0123L19.8767 10.042C19.8549 10.0036 19.8313 9.96282 19.8235 9.9089C19.8157 9.8546 19.8241 9.7903 19.8581 9.70311L19.914 9.72493ZM20.0471 9.78474C20.0557 9.81887 20.0543 9.85094 20.04 9.87468C20.0326 9.88689 20.0218 9.89659 20.0082 9.90185C19.9946 9.90708 19.9802 9.90716 19.9666 9.90346C19.9401 9.89624 19.9164 9.87481 19.898 9.84485C19.8792 9.81434 19.8643 9.77236 19.8564 9.71839L19.9157 9.70966C19.9228 9.75768 19.9356 9.79146 19.9491 9.81344C19.9629 9.83598 19.9759 9.84381 19.9824 9.84558C19.9854 9.84638 19.9865 9.8459 19.9866 9.84588C19.9867 9.84584 19.9868 9.84576 19.9871 9.84551C19.9874 9.84526 19.988 9.8447 19.9886 9.84361C19.9915 9.83885 19.9954 9.82517 19.9889 9.7993L20.0471 9.78474ZM20.0154 9.69139C20.026 9.71861 20.0378 9.74903 20.0471 9.78445L19.989 9.79959C19.9808 9.76796 19.9701 9.74054 19.9595 9.7131L20.0154 9.69139ZM20.0269 9.41544C19.9921 9.48501 19.9825 9.53371 19.9841 9.57353C19.9857 9.61402 19.9987 9.64824 20.0154 9.69139L19.9595 9.7131C19.9432 9.67109 19.9262 9.62787 19.9241 9.57588C19.9221 9.52321 19.9353 9.46439 19.9732 9.3886L20.0269 9.41544ZM20.15 9.47402C20.15 9.51011 20.1458 9.54129 20.1366 9.56364C20.1321 9.57472 20.1251 9.58649 20.1141 9.59459C20.1016 9.60376 20.0862 9.60645 20.0711 9.60157C20.0577 9.59727 20.0471 9.58791 20.0388 9.57809C20.0302 9.56792 20.0222 9.55491 20.0147 9.5396C19.9996 9.50896 19.9847 9.46577 19.9709 9.40911L20.0292 9.39493C20.0424 9.44928 20.056 9.48783 20.0685 9.51306C20.0747 9.52569 20.0802 9.53415 20.0847 9.5394C20.0894 9.545 20.0912 9.54502 20.0895 9.54447C20.086 9.54334 20.0814 9.54416 20.0785 9.54624C20.0772 9.54727 20.0787 9.54676 20.0811 9.54078C20.086 9.52901 20.09 9.50693 20.09 9.47402H20.15ZM20.15 9.4608C20.15 9.46521 20.15 9.46962 20.15 9.47402H20.09C20.09 9.46964 20.09 9.46525 20.09 9.46084L20.15 9.4608ZM20.3807 9.00474C20.2638 9.04009 20.2079 9.1057 20.1796 9.18423C20.1502 9.26571 20.15 9.36225 20.15 9.4608L20.09 9.46084C20.09 9.36481 20.0896 9.25709 20.1232 9.16388C20.1578 9.06772 20.228 8.98822 20.3634 8.9473L20.3807 9.00474ZM20.48 8.82602C20.4689 8.82602 20.4586 8.83117 20.4481 8.84357C20.4371 8.85644 20.4279 8.87504 20.4206 8.89593C20.4134 8.91648 20.4087 8.93736 20.4058 8.95331C20.4043 8.96122 20.4033 8.96779 20.4027 8.97232C20.4024 8.97458 20.4022 8.97633 20.4021 8.97748C20.402 8.97805 20.4019 8.97847 20.4019 8.97873C20.4019 8.97886 20.4019 8.97895 20.4019 8.97899C20.4019 8.97902 20.4019 8.97903 20.4019 8.97903C20.4019 8.97903 20.4019 8.97903 20.4019 8.97903C20.4019 8.97902 20.4019 8.97902 20.4019 8.97902C20.4019 8.97901 20.4019 8.97901 20.372 8.97602C20.3422 8.97304 20.3422 8.97303 20.3422 8.97302C20.3422 8.97302 20.3422 8.97301 20.3422 8.973C20.3422 8.97298 20.3422 8.97297 20.3422 8.97294C20.3422 8.9729 20.3422 8.97285 20.3422 8.97279C20.3422 8.97266 20.3422 8.97249 20.3423 8.97228C20.3423 8.97186 20.3424 8.97127 20.3425 8.97052C20.3426 8.96903 20.3429 8.96691 20.3433 8.96425C20.344 8.95894 20.3451 8.95144 20.3468 8.94249C20.35 8.92468 20.3554 8.90056 20.364 8.87611C20.3724 8.852 20.3846 8.8256 20.4023 8.80472C20.4205 8.78337 20.4462 8.76602 20.48 8.76602V8.82602ZM20.594 8.97602C20.5642 8.97901 20.5642 8.97901 20.5642 8.97902C20.5642 8.97902 20.5642 8.97903 20.5642 8.97903C20.5642 8.97903 20.5642 8.97904 20.5642 8.97903C20.5642 8.97903 20.5642 8.97902 20.5642 8.979C20.5642 8.97896 20.5642 8.97887 20.5642 8.97874C20.5641 8.97849 20.5641 8.97807 20.564 8.97751C20.5639 8.97637 20.5637 8.97464 20.5634 8.97239C20.5627 8.96788 20.5617 8.96135 20.5602 8.95346C20.5572 8.93758 20.5524 8.9168 20.5449 8.89635C20.5373 8.87559 20.5276 8.85708 20.5161 8.84421C20.505 8.83189 20.4934 8.82602 20.48 8.82602V8.76602C20.5147 8.76602 20.5414 8.78265 20.5607 8.80408C20.5795 8.82496 20.5923 8.85146 20.6012 8.87569C20.6102 8.90025 20.6158 8.92446 20.6192 8.94233C20.6209 8.95132 20.6221 8.95884 20.6228 8.96418C20.6232 8.96685 20.6234 8.96899 20.6236 8.97049C20.6237 8.97124 20.6238 8.97184 20.6238 8.97227C20.6238 8.97248 20.6239 8.97265 20.6239 8.97278C20.6239 8.97284 20.6239 8.9729 20.6239 8.97294C20.6239 8.97296 20.6239 8.97298 20.6239 8.973C20.6239 8.973 20.6239 8.97301 20.6239 8.97302C20.6239 8.97303 20.6239 8.97304 20.594 8.97602ZM20.816 9.47402C20.816 9.37073 20.8157 9.27124 20.7863 9.18776C20.7578 9.10725 20.7019 9.04081 20.5852 9.00468L20.6029 8.94736C20.7382 8.98923 20.8082 9.06979 20.8428 9.16779C20.8764 9.2628 20.876 9.37331 20.876 9.47402H20.816ZM20.9952 9.40911C20.9814 9.46577 20.9665 9.50896 20.9514 9.5396C20.9439 9.55491 20.9358 9.56792 20.9273 9.57809C20.919 9.58791 20.9083 9.59727 20.895 9.60157C20.8799 9.60645 20.8645 9.60376 20.852 9.59459C20.841 9.58649 20.834 9.57472 20.8295 9.56364C20.8202 9.54129 20.816 9.51011 20.816 9.47402H20.876C20.876 9.50693 20.8801 9.52901 20.8849 9.54078C20.8874 9.54676 20.8889 9.54727 20.8875 9.54624C20.8847 9.54416 20.8801 9.54334 20.8766 9.54447C20.8749 9.54502 20.8767 9.545 20.8814 9.5394C20.8858 9.53415 20.8914 9.52569 20.8976 9.51306C20.9101 9.48783 20.9237 9.44928 20.9369 9.39493L20.9952 9.40911ZM20.9506 9.69139C20.9674 9.64824 20.9804 9.61402 20.982 9.57353C20.9836 9.53371 20.974 9.48501 20.9392 9.41544L20.9929 9.3886C21.0308 9.46439 21.044 9.52321 21.042 9.57588C21.0399 9.62787 21.0229 9.67109 21.0066 9.7131L20.9506 9.69139ZM20.919 9.78445C20.9283 9.74903 20.9401 9.71861 20.9506 9.69139L21.0066 9.7131C20.9959 9.74054 20.9853 9.76796 20.9771 9.79959L20.919 9.78445ZM21.1097 9.71839C21.1018 9.77236 21.0868 9.81434 21.0681 9.84485C21.0497 9.87481 21.0259 9.89624 20.9994 9.90346C20.9859 9.90716 20.9715 9.90708 20.9579 9.90185C20.9443 9.89659 20.9335 9.88689 20.9261 9.87468C20.9118 9.85094 20.9104 9.81887 20.9189 9.78474L20.9771 9.7993C20.9707 9.82517 20.9746 9.83885 20.9775 9.84361C20.9781 9.8447 20.9787 9.84526 20.979 9.84551C20.9792 9.84576 20.9794 9.84584 20.9795 9.84588C20.9796 9.8459 20.9807 9.84638 20.9836 9.84558C20.9901 9.84381 21.0031 9.83598 21.017 9.81344C21.0305 9.79146 21.0433 9.75768 21.0504 9.70966L21.1097 9.71839ZM21.0372 10.0123C21.0596 9.97303 21.0772 9.94147 21.0832 9.90031C21.0891 9.85954 21.0838 9.80608 21.0521 9.72493L21.108 9.70311C21.142 9.7903 21.1504 9.8546 21.1426 9.9089C21.1348 9.96282 21.1112 10.0036 21.0894 10.042L21.0372 10.0123ZM20.979 10.1445C20.9934 10.0891 21.0169 10.048 21.0372 10.0123L21.0894 10.042C21.069 10.0778 21.0492 10.1127 21.0371 10.1595L20.979 10.1445ZM21.1983 10.0542C21.1692 10.1348 21.1184 10.1909 21.0739 10.2145C21.0625 10.2205 21.0506 10.225 21.0387 10.2267C21.0269 10.2283 21.013 10.2275 21.0004 10.22C20.9719 10.2032 20.9723 10.1696 20.9791 10.1443L21.037 10.1598C21.0318 10.1795 21.0397 10.1736 21.0309 10.1684C21.0281 10.1667 21.0271 10.1677 21.0303 10.1672C21.0335 10.1668 21.0387 10.1653 21.0457 10.1615C21.0747 10.1462 21.1168 10.1032 21.1418 10.0339L21.1983 10.0542ZM21.1196 10.4078C21.1406 10.3689 21.1623 10.3278 21.1712 10.2732C21.18 10.219 21.1764 10.1493 21.1418 10.0543L21.1982 10.0338C21.2357 10.1368 21.2411 10.217 21.2304 10.2828C21.2198 10.3483 21.1935 10.3972 21.1725 10.4362L21.1196 10.4078ZM21.176 10.644C21.1473 10.644 21.1224 10.6352 21.1044 10.6169C21.0868 10.599 21.079 10.5754 21.0771 10.5519C21.0734 10.5058 21.0916 10.4513 21.1208 10.4058L21.1713 10.4382C21.1465 10.4767 21.1346 10.5182 21.1369 10.5471C21.1381 10.5612 21.1423 10.5698 21.1472 10.5748C21.1517 10.5793 21.1598 10.584 21.176 10.584V10.644ZM21.3845 10.458C21.3672 10.4946 21.3457 10.5406 21.3143 10.5771C21.282 10.6147 21.2378 10.644 21.176 10.644V10.584C21.2158 10.584 21.2446 10.5662 21.2688 10.538C21.2939 10.5088 21.3123 10.4704 21.3303 10.4324L21.3845 10.458ZM21.428 10.386C21.428 10.386 21.428 10.386 21.4281 10.386C21.4281 10.386 21.4281 10.386 21.4281 10.386C21.4282 10.386 21.4281 10.386 21.428 10.386C21.4278 10.3861 21.4272 10.3864 21.4261 10.3872C21.4236 10.3891 21.42 10.3927 21.4153 10.3994C21.4058 10.4131 21.3964 10.4328 21.3845 10.458L21.3303 10.4324C21.3414 10.4088 21.3531 10.3839 21.366 10.3652C21.3783 10.3475 21.3981 10.326 21.428 10.326V10.386ZM21.872 10.782V12.108H21.812V10.782H21.872ZM21.6775 10.7558C21.7078 10.739 21.7383 10.7295 21.7693 10.7295C21.8005 10.7295 21.83 10.7391 21.8579 10.7566L21.8261 10.8075C21.8061 10.795 21.7876 10.7895 21.7693 10.7895C21.7508 10.7895 21.7303 10.7951 21.7066 10.8082L21.6775 10.7558ZM21.662 12.108V10.782H21.722V12.108H21.662ZM21.842 12.138H21.692V12.078H21.842V12.138Z" fill="black"/>
<path fill-rule="evenodd" clip-rule="evenodd" d="M19.238 12.108V11.244C19.208 11.22 19.154 11.226 19.118 11.244V12.108H19.238ZM21.41 12.108C21.458 11.85 21.644 11.736 21.83 11.64V12.108H21.41Z" fill="white"/>
<path d="M19.238 11.244L19.2568 11.2206L19.268 11.2296V11.244H19.238ZM19.238 12.108H19.268V12.138H19.238V12.108ZM19.118 11.244H19.088V11.2255L19.1046 11.2172L19.118 11.244ZM19.118 12.108V12.138H19.088V12.108H19.118ZM21.83 11.64L21.8163 11.6134L21.86 11.5908V11.64H21.83ZM21.41 12.108V12.138H21.3739L21.3805 12.1026L21.41 12.108ZM21.83 12.108H21.86V12.138H21.83V12.108ZM19.268 11.244V12.108H19.208V11.244H19.268ZM19.1046 11.2172C19.1264 11.2063 19.1531 11.1992 19.1792 11.1983C19.205 11.1974 19.2341 11.2025 19.2568 11.2206L19.2193 11.2675C19.2119 11.2616 19.1991 11.2577 19.1813 11.2583C19.1639 11.2589 19.1457 11.2638 19.1314 11.2709L19.1046 11.2172ZM19.088 12.108V11.244H19.148V12.108H19.088ZM19.238 12.138H19.118V12.078H19.238V12.138ZM21.8438 11.6667C21.6583 11.7624 21.4847 11.8707 21.4395 12.1135L21.3805 12.1026C21.4313 11.8294 21.6297 11.7097 21.8163 11.6134L21.8438 11.6667ZM21.8 12.108V11.64H21.86V12.108H21.8ZM21.41 12.078H21.83V12.138H21.41V12.078Z" fill="black"/>
<path fill-rule="evenodd" clip-rule="evenodd" d="M20.246 9.52802L20.354 9.61802H20.624L20.732 9.52202V9.40202C20.69 9.41402 20.672 9.42002 20.642 9.46202C20.6157 9.38532 20.5594 9.32255 20.486 9.28802C20.4137 9.32521 20.3595 9.39017 20.336 9.46802C20.306 9.42602 20.282 9.40802 20.246 9.40802V9.52802ZM19.538 12.102C19.49 11.838 19.304 11.73 19.118 11.64V12.102H19.538Z" fill="white"/>
<path d="M20.354 9.61802V9.64802H20.3431L20.3348 9.64107L20.354 9.61802ZM20.246 9.52802L20.2268 9.55107L20.216 9.54208V9.52802H20.246ZM20.624 9.61802L20.6439 9.64045L20.6354 9.64802H20.624V9.61802ZM20.732 9.52202H20.762V9.5355L20.7519 9.54445L20.732 9.52202ZM20.732 9.40202L20.7238 9.37318L20.762 9.36225V9.40202H20.732ZM20.642 9.46202L20.6664 9.47946L20.6325 9.52687L20.6136 9.47177L20.642 9.46202ZM20.486 9.28802L20.4723 9.26134L20.4854 9.25459L20.4988 9.26088L20.486 9.28802ZM20.336 9.46802L20.3647 9.47671L20.3471 9.53512L20.3116 9.48546L20.336 9.46802ZM20.246 9.40802H20.216V9.37802H20.246V9.40802ZM19.118 11.64H19.088V11.5922L19.1311 11.613L19.118 11.64ZM19.538 12.102L19.5675 12.0967L19.5739 12.132H19.538V12.102ZM19.118 12.102V12.132H19.088V12.102H19.118ZM20.3348 9.64107L20.2268 9.55107L20.2652 9.50498L20.3732 9.59498L20.3348 9.64107ZM20.624 9.64802H20.354V9.58802H20.624V9.64802ZM20.7519 9.54445L20.6439 9.64045L20.6041 9.5956L20.7121 9.4996L20.7519 9.54445ZM20.762 9.40202V9.52202H20.702V9.40202H20.762ZM20.6176 9.44459C20.6338 9.42188 20.6486 9.40635 20.6669 9.39518C20.6844 9.38445 20.7034 9.37899 20.7238 9.37318L20.7402 9.43087C20.7186 9.43706 20.7076 9.4406 20.6981 9.44637C20.6894 9.4517 20.6802 9.46017 20.6664 9.47946L20.6176 9.44459ZM20.4988 9.26088C20.5795 9.29886 20.6414 9.36791 20.6704 9.45228L20.6136 9.47177C20.5899 9.40274 20.5393 9.34625 20.4732 9.31517L20.4988 9.26088ZM20.3073 9.45934C20.3332 9.37371 20.3927 9.30225 20.4723 9.26134L20.4997 9.31471C20.4346 9.34817 20.3859 9.40664 20.3647 9.47671L20.3073 9.45934ZM20.246 9.37802C20.2697 9.37802 20.2907 9.38418 20.3102 9.39752C20.3287 9.41021 20.3447 9.42855 20.3604 9.45059L20.3116 9.48546C20.2973 9.4655 20.2863 9.45384 20.2763 9.44703C20.2673 9.44087 20.2583 9.43802 20.246 9.43802V9.37802ZM20.216 9.52802V9.40802H20.276V9.52802H20.216ZM19.1311 11.613C19.3179 11.7034 19.5167 11.8171 19.5675 12.0967L19.5085 12.1074C19.4633 11.8589 19.2901 11.7566 19.1049 11.667L19.1311 11.613ZM19.088 12.102V11.64H19.148V12.102H19.088ZM19.538 12.132H19.118V12.072H19.538V12.132Z" fill="black"/>
<path d="M20.294 9.91202L20.246 9.79802V9.64802C20.282 9.64802 20.306 9.66602 20.336 9.70802C20.3595 9.63016 20.4137 9.5652 20.486 9.52802C20.5594 9.56255 20.6157 9.62531 20.642 9.70202C20.672 9.66002 20.69 9.65402 20.732 9.64802V9.79802L20.684 9.91202H20.294Z" fill="white" stroke="black" stroke-width="0.06"/>
<path d="M20.282 10.308L20.126 10.11V9.91801C20.186 9.91801 20.216 9.94801 20.258 10.014C20.3 9.87601 20.378 9.85201 20.486 9.78601C20.6 9.84601 20.678 9.87601 20.714 10.008C20.762 9.94201 20.792 9.92401 20.852 9.91801V10.11L20.69 10.308H20.282Z" fill="white" stroke="black" stroke-width="0.06"/>
<path d="M20.24 10.698C20.24 10.698 20.048 10.536 20.042 10.446V10.236C20.114 10.242 20.18 10.26 20.234 10.35C20.282 10.176 20.354 10.128 20.486 10.05C20.624 10.128 20.696 10.176 20.738 10.35C20.798 10.26 20.858 10.242 20.936 10.23V10.446C20.8856 10.5412 20.8186 10.6266 20.738 10.698H20.24Z" fill="white" stroke="black" stroke-width="0.06"/>
<path d="M20.162 11.418C20.162 11.418 19.898 11.136 19.892 11.022V10.698C19.988 10.71 20.084 10.776 20.156 10.914C20.216 10.644 20.312 10.458 20.486 10.326C20.666 10.458 20.762 10.644 20.822 10.914C20.894 10.776 20.984 10.71 21.08 10.698V11.022C21.062 11.136 20.816 11.418 20.816 11.418H20.162Z" fill="white" stroke="black" stroke-width="0.06"/>
<path d="M20.162 11.844C20.162 11.844 19.94 11.622 19.892 11.526V11.202C19.988 11.214 20.084 11.28 20.156 11.412C20.1884 11.1916 20.3071 10.993 20.486 10.86C20.666 10.992 20.762 11.142 20.822 11.412C20.894 11.28 20.984 11.214 21.08 11.202V11.526C21.02 11.622 20.816 11.844 20.816 11.844H20.162Z" fill="white" stroke="black" stroke-width="0.06"/>
<path d="M20.072 12.096C20.132 11.814 20.192 11.604 20.498 11.394C20.81 11.604 20.864 11.814 20.93 12.096H20.072Z" fill="white" stroke="black" stroke-width="0.06"/>
<path d="M19.91 12.252V11.844C20.054 11.904 20.18 11.982 20.228 12.072C20.276 11.844 20.378 11.748 20.504 11.61C20.63 11.748 20.714 11.85 20.768 12.072C20.816 11.982 20.942 11.898 21.08 11.844V12.252H19.91Z" fill="white" stroke="black" stroke-width="0.06"/>
<path fill-rule="evenodd" clip-rule="evenodd" d="M22.58 14.4301H9.41601V14.9161H22.58V14.4301ZM8.64201 15.5581H23.36V16.3081H23.75V17.0581H8.25201V16.3081H8.64201V15.5581Z" fill="white"/>
<path d="M9.41601 14.4301V14.4001H9.38601V14.4301H9.41601ZM22.58 14.4301H22.61V14.4001H22.58V14.4301ZM9.41601 14.9161H9.38601V14.9461H9.41601V14.9161ZM22.58 14.9161V14.9461H22.61V14.9161H22.58ZM23.36 15.5581H23.39V15.5281H23.36V15.5581ZM8.64201 15.5581V15.5281H8.61201V15.5581H8.64201ZM23.36 16.3081H23.33V16.3381H23.36V16.3081ZM23.75 16.3081H23.78V16.2781H23.75V16.3081ZM23.75 17.0581V17.0881H23.78V17.0581H23.75ZM8.25201 17.0581H8.22201V17.0881H8.25201V17.0581ZM8.25201 16.3081V16.2781H8.22201V16.3081H8.25201ZM8.64201 16.3081V16.3381H8.67201V16.3081H8.64201ZM9.41601 14.4601H22.58V14.4001H9.41601V14.4601ZM9.44601 14.9161V14.4301H9.38601V14.9161H9.44601ZM22.58 14.8861H9.41601V14.9461H22.58V14.8861ZM22.55 14.4301V14.9161H22.61V14.4301H22.55ZM23.36 15.5281H8.64201V15.5881H23.36V15.5281ZM23.39 16.3081V15.5581H23.33V16.3081H23.39ZM23.75 16.2781H23.36V16.3381H23.75V16.2781ZM23.78 17.0581V16.3081H23.72V17.0581H23.78ZM8.25201 17.0881H23.75V17.0281H8.25201V17.0881ZM8.22201 16.3081V17.0581H8.28201V16.3081H8.22201ZM8.64201 16.2781H8.25201V16.3381H8.64201V16.2781ZM8.61201 15.5581V16.3081H8.67201V15.5581H8.61201Z" fill="black"/>
<path fill-rule="evenodd" clip-rule="evenodd" d="M22.364 14.058H9.64404V14.43H22.364V14.058ZM22.976 14.916H9.03204V15.552H22.976V14.916Z" fill="white"/>
<path d="M9.64404 14.058V14.028H9.61404V14.058H9.64404ZM22.364 14.058H22.394V14.028H22.364V14.058ZM9.64404 14.43H9.61404V14.46H9.64404V14.43ZM22.364 14.43V14.46H22.394V14.43H22.364ZM9.03204 14.916V14.886H9.00204V14.916H9.03204ZM22.976 14.916H23.006V14.886H22.976V14.916ZM9.03204 15.552H9.00204V15.582H9.03204V15.552ZM22.976 15.552V15.582H23.006V15.552H22.976ZM9.64404 14.088H22.364V14.028H9.64404V14.088ZM9.67404 14.43V14.058H9.61404V14.43H9.67404ZM22.364 14.4H9.64404V14.46H22.364V14.4ZM22.334 14.058V14.43H22.394V14.058H22.334ZM9.03204 14.946H22.976V14.886H9.03204V14.946ZM9.06204 15.552V14.916H9.00204V15.552H9.06204ZM22.976 15.522H9.03204V15.582H22.976V15.522ZM22.946 14.916V15.552H23.006V14.916H22.946Z" fill="black"/>
<path d="M11.024 14.058H11.984V17.058H11.024V14.058Z" fill="white" stroke="black" stroke-width="0.06"/>
<path fill-rule="evenodd" clip-rule="evenodd" d="M11.774 14.058H11.24L11.234 17.058H11.774V14.058ZM16.46 14.058H15.5V17.058H16.46V14.058Z" fill="white"/>
<path d="M11.24 14.058V14.028H11.2101L11.21 14.058L11.24 14.058ZM11.774 14.058H11.804V14.028H11.774V14.058ZM11.234 17.058L11.204 17.058L11.2039 17.088H11.234V17.058ZM11.774 17.058V17.088H11.804V17.058H11.774ZM15.5 14.058V14.028H15.47V14.058H15.5ZM16.46 14.058H16.49V14.028H16.46V14.058ZM15.5 17.058H15.47V17.088H15.5V17.058ZM16.46 17.058V17.088H16.49V17.058H16.46ZM11.24 14.088H11.774V14.028H11.24V14.088ZM11.264 17.0581L11.27 14.0581L11.21 14.058L11.204 17.058L11.264 17.0581ZM11.774 17.028H11.234V17.088H11.774V17.028ZM11.744 14.058V17.058H11.804V14.058H11.744ZM15.5 14.088H16.46V14.028H15.5V14.088ZM15.53 17.058V14.058H15.47V17.058H15.53ZM16.46 17.028H15.5V17.088H16.46V17.028ZM16.43 14.058V17.058H16.49V14.058H16.43Z" fill="black"/>
<path fill-rule="evenodd" clip-rule="evenodd" d="M16.262 14.058H15.722V17.058H16.262V14.058ZM20.972 14.058H20.012V17.058H20.972V14.058Z" fill="white"/>
<path d="M15.722 14.058V14.028H15.692V14.058H15.722ZM16.262 14.058H16.292V14.028H16.262V14.058ZM15.722 17.058H15.692V17.088H15.722V17.058ZM16.262 17.058V17.088H16.292V17.058H16.262ZM20.012 14.058V14.028H19.982V14.058H20.012ZM20.972 14.058H21.002V14.028H20.972V14.058ZM20.012 17.058H19.982V17.088H20.012V17.058ZM20.972 17.058V17.088H21.002V17.058H20.972ZM15.722 14.088H16.262V14.028H15.722V14.088ZM15.752 17.058V14.058H15.692V17.058H15.752ZM16.262 17.028H15.722V17.088H16.262V17.028ZM16.232 14.058V17.058H16.292V14.058H16.232ZM20.012 14.088H20.972V14.028H20.012V14.088ZM20.042 17.058V14.058H19.982V17.058H20.042ZM20.972 17.028H20.012V17.088H20.972V17.028ZM20.942 14.058V17.058H21.002V14.058H20.942Z" fill="black"/>
<path d="M20.222 14.058H20.762V17.058H20.222V14.058Z" fill="white" stroke="black" stroke-width="0.06"/>
<path d="M10.22 13.802H21.8V13.742H10.22V13.802ZM11.228 16.73H11.78V16.67H11.228V16.73ZM11.228 16.352H11.78V16.292H11.228V16.352ZM11.228 15.98H11.78V15.92H11.228V15.98ZM11.228 15.602H11.78V15.542H11.228V15.602ZM11.228 15.23H11.78V15.17H11.228V15.23ZM11.228 14.852H11.78V14.792H11.228V14.852ZM11.228 14.48H11.78V14.42H11.228V14.48ZM15.728 16.73H16.244V16.67H15.728V16.73ZM15.728 16.352H16.244V16.292H15.728V16.352ZM15.728 15.98H16.244V15.92H15.728V15.98ZM15.728 15.602H16.244V15.542H15.728V15.602ZM15.728 15.23H16.244V15.17H15.728V15.23ZM15.728 14.852H16.244V14.792H15.728V14.852ZM15.728 14.48H16.244V14.42H15.728V14.48ZM20.216 16.73H20.768V16.67H20.216V16.73ZM20.216 16.352H20.768V16.292H20.216V16.352ZM20.216 15.98H20.768V15.92H20.216V15.98ZM20.216 15.602H20.768V15.542H20.216V15.602ZM20.216 15.23H20.768V15.17H20.216V15.23ZM20.216 14.852H20.768V14.792H20.216V14.852ZM20.216 14.48H20.768V14.42H20.216V14.48Z" fill="black"/>
</g>
<defs>
<clipPath id="clip0_30_18005">
<rect width="32" height="24" fill="white"/>
</clipPath>
</defs>
</svg>
