<svg width="32" height="24" viewBox="0 0 32 24" fill="none" xmlns="http://www.w3.org/2000/svg">
<g clip-path="url(#clip0_30_18020)">
<rect width="32" height="24" fill="white"/>
<path fill-rule="evenodd" clip-rule="evenodd" d="M0 0V24H32V0H0Z" fill="#E31D1C"/>
<mask id="mask0_30_18020" style="mask-type:luminance" maskUnits="userSpaceOnUse" x="0" y="0" width="32" height="24">
<path fill-rule="evenodd" clip-rule="evenodd" d="M0 0V24H32V0H0Z" fill="white"/>
</mask>
<g mask="url(#mask0_30_18020)">
<path fill-rule="evenodd" clip-rule="evenodd" d="M16.0091 9.96085C16.0258 9.96235 16.0424 9.96398 16.059 9.96572C16.116 9.76972 16.2172 9.44831 16.347 9.14436C16.5528 8.6623 17.1474 8.39169 17.1474 8.39169C17.1474 8.39169 16.8536 8.72311 16.7764 9.24836C16.7292 9.56923 16.7126 9.89544 16.7068 10.1007L16.7482 10.1141C16.8517 9.93702 17.0249 9.65537 17.2206 9.39668C17.537 8.97873 18.1794 8.86001 18.1794 8.86001C18.1794 8.86001 17.8141 9.1105 17.6121 9.60147C17.4949 9.8865 17.4032 10.1829 17.3469 10.3814C17.3675 10.3932 17.388 10.4052 17.4084 10.4174C17.5505 10.2677 17.7722 10.0448 18.0092 9.84678C18.4114 9.5107 19.0641 9.53953 19.0641 9.53953C19.0641 9.53953 18.6518 9.70143 18.3446 10.1344C18.176 10.3719 18.0274 10.6245 17.9276 10.8041C17.9496 10.8241 17.9712 10.8443 17.9926 10.8649C18.1647 10.7521 18.4145 10.5971 18.6725 10.4663C19.1401 10.2293 19.7695 10.4042 19.7695 10.4042C19.7695 10.4042 19.3314 10.4692 18.9346 10.822C18.7318 11.0023 18.543 11.1992 18.4068 11.3486C18.4256 11.3754 18.444 11.4026 18.462 11.43C18.6538 11.3641 18.9158 11.2815 19.1796 11.2211C19.6906 11.1043 20.259 11.4263 20.259 11.4263C20.259 11.4263 19.8181 11.3834 19.3478 11.6297C19.1281 11.7447 18.9163 11.8761 18.753 11.9834C18.77 12.025 18.7862 12.0671 18.8014 12.1095C18.9966 12.0903 19.2469 12.0723 19.4943 12.0728C20.0185 12.0739 20.4999 12.5155 20.4999 12.5155C20.4999 12.5155 20.08 12.3745 19.5664 12.5087C19.3458 12.5663 19.1287 12.6388 18.9528 12.7028C18.9609 12.755 18.9678 12.8077 18.9734 12.8606C19.159 12.8858 19.3845 12.9225 19.6043 12.9738C20.1147 13.0928 20.4845 13.6313 20.4845 13.6313C20.4845 13.6313 20.1071 13.3995 19.5764 13.4147C19.3672 13.4207 19.1581 13.4396 18.9814 13.4603C18.9769 13.5179 18.9708 13.5751 18.9633 13.6319C19.1288 13.6988 19.322 13.7829 19.5075 13.8779C19.974 14.1169 20.2025 14.7289 20.2025 14.7289C20.2025 14.7289 19.8924 14.4127 19.3738 14.299C19.1875 14.2582 18.9987 14.2278 18.8332 14.2056C18.8121 14.2703 18.7891 14.3342 18.7641 14.3971C18.9012 14.4943 19.0553 14.6098 19.2012 14.7327C19.602 15.0704 19.6869 15.7182 19.6869 15.7182C19.6869 15.7182 19.4559 15.3403 18.9762 15.1129C18.816 15.0369 18.6515 14.9693 18.5036 14.9128C18.4647 14.9754 18.4236 15.0365 18.3806 15.0962C18.4857 15.2154 18.6002 15.3522 18.7062 15.4935C19.0208 15.9128 18.9579 16.563 18.9579 16.563C18.9579 16.563 18.8178 16.1428 18.4015 15.8134C18.2704 15.7096 18.134 15.6122 18.0087 15.5274C17.9547 15.58 17.8989 15.6308 17.8414 15.6796C17.9115 15.8158 17.9854 15.9688 18.0509 16.1239C18.2547 16.6069 18.0363 17.2226 18.0363 17.2226C18.0363 17.2226 18.002 16.781 17.6778 16.3606C17.5811 16.2352 17.4785 16.1142 17.382 16.0061C17.3122 16.0472 17.2407 16.0858 17.1677 16.1218C17.2037 16.2651 17.2392 16.4233 17.2668 16.5818C17.3568 17.0982 17.0055 17.649 17.0055 17.649C17.0055 17.649 17.0714 17.211 16.8501 16.7284C16.7856 16.5879 16.7147 16.4502 16.6466 16.3256C16.5675 16.3489 16.4872 16.3694 16.4058 16.3869C16.4083 16.5316 16.4072 16.6898 16.3987 16.8465C16.3701 17.3699 15.9039 17.8275 15.9039 17.8275C15.9039 17.8275 16.0667 17.4156 15.9596 16.8956C15.9284 16.7443 15.8903 16.5942 15.852 16.4574C15.8043 16.4595 15.7564 16.4605 15.7082 16.4605C15.6755 16.4605 15.643 16.46 15.6106 16.4591C15.5779 16.6015 15.5381 16.7565 15.4914 16.9082C15.3371 17.4091 14.774 17.7404 14.774 17.7404C14.774 17.7404 15.0316 17.3801 15.0535 16.8497C15.0599 16.6944 15.0592 16.5387 15.055 16.3961C14.9743 16.3799 14.8947 16.3608 14.8162 16.3389C14.7517 16.4718 14.6772 16.6158 14.5965 16.755C14.3334 17.2083 13.7103 17.4045 13.7103 17.4045C13.7103 17.4045 14.0423 17.1113 14.183 16.5994C14.2257 16.4438 14.2611 16.286 14.2897 16.1417C14.2178 16.1075 14.1474 16.0708 14.0786 16.0317C13.9835 16.15 13.875 16.2782 13.7612 16.3997C13.403 16.7823 12.7517 16.8332 12.7517 16.8332C12.7517 16.8332 13.1411 16.6223 13.3933 16.1551C13.4745 16.0048 13.5482 15.8501 13.6108 15.7096C13.5547 15.6633 13.5002 15.6152 13.4473 15.5654C13.3207 15.6623 13.1756 15.7674 13.0266 15.8638C12.5864 16.1483 11.9421 16.0402 11.9421 16.0402C11.9421 16.0402 12.3711 15.9297 12.7288 15.5374C12.8509 15.4035 12.966 15.2629 13.0647 15.1358C13.0227 15.0793 12.9826 15.0215 12.9442 14.9624C12.7925 15.032 12.6171 15.1069 12.4395 15.1711C11.9466 15.3493 11.3432 15.099 11.3432 15.099C11.3432 15.099 11.786 15.0879 12.2228 14.7862C12.3845 14.6744 12.5399 14.5532 12.6717 14.4448C12.6471 14.3856 12.6242 14.3256 12.603 14.2647C12.4314 14.3009 12.2296 14.3378 12.0281 14.3621C11.5077 14.4249 10.9761 14.0452 10.9761 14.0452C10.9761 14.0452 11.41 14.134 11.9035 13.9382C12.1035 13.8589 12.2989 13.7667 12.4605 13.6851C12.4526 13.6324 12.446 13.5792 12.4407 13.5256C12.2551 13.5199 12.0305 13.5069 11.8098 13.4793C11.2897 13.4144 10.8657 12.9174 10.8657 12.9174C10.8657 12.9174 11.2652 13.1085 11.7914 13.0379C12.0229 13.0069 12.2527 12.9598 12.4375 12.9169C12.4418 12.8676 12.4473 12.8186 12.4538 12.77C12.2662 12.7215 12.0315 12.6543 11.8053 12.5714C11.3131 12.3911 11.0118 11.8115 11.0118 11.8115C11.0118 11.8115 11.3581 12.0875 11.8867 12.1371C12.1411 12.161 12.3979 12.1658 12.5958 12.1643C12.6091 12.125 12.6232 12.0861 12.6379 12.0475C12.4599 11.956 12.2282 11.8294 12.0102 11.6872C11.5712 11.4008 11.4079 10.7682 11.4079 10.7682C11.4079 10.7682 11.6833 11.1151 12.1871 11.2824C12.4514 11.3701 12.7235 11.4363 12.9225 11.4795C12.9382 11.4546 12.9542 11.4299 12.9706 11.4054C12.8156 11.2713 12.6029 11.0779 12.4104 10.8706C12.0537 10.4865 12.0483 9.83325 12.0483 9.83325C12.0483 9.83325 12.2316 10.2365 12.68 10.5207C12.9306 10.6794 13.1957 10.8167 13.3808 10.9069C13.3999 10.8878 13.4193 10.869 13.4389 10.8504C13.3164 10.6842 13.1406 10.4333 12.9905 10.1722C12.7294 9.71771 12.8711 9.07999 12.8711 9.07999C12.8711 9.07999 12.959 9.51411 13.332 9.89187C13.5532 10.1159 13.7958 10.32 13.9566 10.449C13.9749 10.4375 13.9933 10.4262 14.0118 10.4151C13.9294 10.2262 13.8075 9.92866 13.7158 9.62652C13.5636 9.12494 13.8452 8.53544 13.8452 8.53544C13.8452 8.53544 13.8331 8.9782 14.1116 9.43019C14.2838 9.70965 14.4835 9.97321 14.6108 10.1337C14.6232 10.1293 14.6356 10.125 14.6481 10.1208C14.6135 9.91945 14.5638 9.58728 14.5473 9.25824C14.5209 8.73474 14.9367 8.23087 14.9367 8.23087C14.9367 8.23087 14.8179 8.65756 14.9788 9.16349C15.0793 9.47966 15.211 9.78685 15.2957 9.97281C15.3119 9.97079 15.3281 9.9689 15.3444 9.96711C15.3558 9.76391 15.382 9.42465 15.4407 9.09617C15.5328 8.58016 16.0512 8.18274 16.0512 8.18274C16.0512 8.18274 15.8395 8.57176 15.8824 9.10092C15.9093 9.43164 15.9685 9.76062 16.0091 9.96085Z" fill="#FFC84A"/>
<path fill-rule="evenodd" clip-rule="evenodd" d="M-0.792011 13.9201L1.82284 12.8589C2.20399 12.7042 2.63076 12.7061 3.01053 12.8641L6.64128 14.3751C7.05208 14.546 7.51628 14.5337 7.91742 14.3412L10.846 12.9357C11.2661 12.7341 11.7542 12.7306 12.1771 12.926L15.2446 14.343C15.6578 14.5339 16.1338 14.5351 16.5479 14.3462L19.6867 12.9148C20.1007 12.726 20.5765 12.7271 20.9897 12.9179L24.0886 14.3485C24.4952 14.5362 24.963 14.5404 25.3729 14.3598L28.759 12.8689C29.1256 12.7074 29.5402 12.693 29.9171 12.8285L32.9529 13.9201V23.9337H-0.880981L-0.792011 13.9201Z" fill="#F7FCFF"/>
<mask id="mask1_30_18020" style="mask-type:luminance" maskUnits="userSpaceOnUse" x="-1" y="12" width="34" height="12">
<path fill-rule="evenodd" clip-rule="evenodd" d="M-0.792011 13.9201L1.82284 12.8589C2.20399 12.7042 2.63076 12.7061 3.01053 12.8641L6.64128 14.3751C7.05208 14.546 7.51628 14.5337 7.91742 14.3412L10.846 12.9357C11.2661 12.7341 11.7542 12.7306 12.1771 12.926L15.2446 14.343C15.6578 14.5339 16.1338 14.5351 16.5479 14.3462L19.6867 12.9148C20.1007 12.726 20.5765 12.7271 20.9897 12.9179L24.0886 14.3485C24.4952 14.5362 24.963 14.5404 25.3729 14.3598L28.759 12.8689C29.1256 12.7074 29.5402 12.693 29.9171 12.8285L32.9529 13.9201V23.9337H-0.880981L-0.792011 13.9201Z" fill="white"/>
</mask>
<g mask="url(#mask1_30_18020)">
<path d="M-0.791992 16.2457L1.82285 15.1845C2.204 15.0298 2.63078 15.0317 3.01055 15.1897L6.6413 16.7007C7.05209 16.8716 7.5163 16.8593 7.91744 16.6668L10.846 15.2613C11.2661 15.0598 11.7542 15.0562 12.1771 15.2516L15.2446 16.6686C15.6578 16.8595 16.1338 16.8607 16.548 16.6718L19.6867 15.2405C20.1007 15.0516 20.5765 15.0528 20.9897 15.2435L24.0886 16.6741C24.4953 16.8618 24.963 16.866 25.3729 16.6855L28.759 15.1945C29.1256 15.0331 29.5402 15.0186 29.9172 15.1541L32.953 16.2457" stroke="#015989" stroke-width="2"/>
<path d="M-0.791992 19.5747L1.82285 18.5135C2.204 18.3588 2.63078 18.3607 3.01055 18.5187L6.6413 20.0296C7.05209 20.2006 7.5163 20.1883 7.91744 19.9958L10.846 18.5903C11.2661 18.3887 11.7542 18.3852 12.1771 18.5805L15.2446 19.9976C15.6578 20.1885 16.1338 20.1897 16.548 20.0008L19.6867 18.5694C20.1007 18.3806 20.5765 18.3817 20.9897 18.5725L24.0886 20.0031C24.4953 20.1908 24.963 20.195 25.3729 20.0144L28.759 18.5235C29.1256 18.362 29.5402 18.3476 29.9172 18.4831L32.953 19.5747" stroke="#015989" stroke-width="2"/>
<path fill-rule="evenodd" clip-rule="evenodd" d="M-0.791992 22.2272L0.299673 21.7842C1.65668 21.2335 3.17613 21.2402 4.52822 21.8029L6.6413 22.6822C7.05209 22.8532 7.5163 22.8409 7.91744 22.6483L9.14795 22.0578C10.6434 21.3401 12.3812 21.3274 13.887 22.023L15.2446 22.6502C15.6578 22.8411 16.1338 22.8423 16.548 22.6534L18.0169 21.9835C19.491 21.3113 21.185 21.3152 22.656 21.9943L24.0886 22.6556C24.4953 22.8434 24.963 22.8475 25.3729 22.667L27.2971 21.8198C28.6023 21.2451 30.0784 21.1937 31.4204 21.6762L32.953 22.2272V25.5421H-0.608375L-0.791992 22.2272Z" fill="#015989"/>
</g>
<path fill-rule="evenodd" clip-rule="evenodd" d="M9.78003 3.41838C9.78003 3.41838 11.172 3.41838 11.6406 3.41838C12.1092 3.41838 13.1664 2.70185 13.7779 2.9407C14.3893 3.17954 15.4187 3.95065 15.4187 3.95065C15.4187 3.95065 17.1182 2.60913 18.1318 2.60913C19.1455 2.60913 20.9739 2.45996 20.9739 2.45996C20.9739 2.45996 20.5449 3.57343 19.3384 3.76204C18.1318 3.95065 16.6883 4.87437 16.6883 4.87437C16.6883 4.87437 18.3504 4.87437 18.6493 4.87437C18.9483 4.87437 19.3384 5.32516 19.3384 5.32516C19.3384 5.32516 18.5336 5.87201 18.1318 5.87201C17.7301 5.87201 17.2863 5.87201 17.2863 5.87201C17.2863 5.87201 16.4322 6.60498 15.377 6.44902C14.3218 6.29307 13.4751 5.32516 13.4751 5.32516C13.4751 5.32516 12.5519 5.19283 12.5519 5.0336C12.5519 5.0336 12.4427 4.98338 12.3924 4.98475C12.102 4.99267 11.9084 5.04485 11.8118 5.0336C12.3427 4.82644 12.5519 4.64316 12.5519 4.64316C12.5519 4.64316 12.9173 4.30041 13.1962 4.30041C13.4751 4.30041 14.4065 4.87437 14.4065 4.87437L14.6289 4.64316L13.4751 3.76204C11.1217 4.00862 9.78003 3.41838 9.78003 3.41838Z" fill="#FFC84A"/>
</g>
</g>
<defs>
<clipPath id="clip0_30_18020">
<rect width="32" height="24" fill="white"/>
</clipPath>
</defs>
</svg>
