<svg width="32" height="24" viewBox="0 0 32 24" fill="none" xmlns="http://www.w3.org/2000/svg">
<g clip-path="url(#clip0_30_18144)">
<rect width="32" height="24" fill="white"/>
<path fill-rule="evenodd" clip-rule="evenodd" d="M0 0V24H32V0H0Z" fill="#C51918"/>
<path fill-rule="evenodd" clip-rule="evenodd" d="M0 0V24L32 0H0Z" fill="#5EAA22"/>
<path d="M0.635926 27.9521L1.35929 28.759L2.26066 28.1574L38.5216 3.95389L39.7208 3.15345L38.7584 2.07986L33.4376 -3.85578L32.7143 -4.66274L31.8129 -4.0611L-4.44805 20.1424L-5.64725 20.9428L-4.68487 22.0164L0.635926 27.9521Z" fill="#272727" stroke="#FFD018" stroke-width="2.5"/>
<path fill-rule="evenodd" clip-rule="evenodd" d="M12.0886 16.9183L11 18.8129L10.3048 16.6786L8.14273 15.9913L9.94438 14.8907L9.7273 12.6583L11.5055 14.0254L13.3472 13.0045L12.8307 15.2785L14.3083 16.9791L12.0886 16.9183Z" fill="#F7FCFF"/>
<path fill-rule="evenodd" clip-rule="evenodd" d="M22.0886 10.3651L21 12.2598L20.3048 10.1255L18.1427 9.43819L19.9444 8.33755L19.7273 6.10513L21.5055 7.47223L23.3472 6.45133L22.8307 8.72534L24.3083 10.4259L22.0886 10.3651Z" fill="#F7FCFF"/>
</g>
<defs>
<clipPath id="clip0_30_18144">
<rect width="32" height="24" fill="white"/>
</clipPath>
</defs>
</svg>
