<svg width="32" height="24" viewBox="0 0 32 24" fill="none" xmlns="http://www.w3.org/2000/svg">
<g clip-path="url(#clip0_30_18002)">
<rect width="32" height="24" fill="white"/>
<path fill-rule="evenodd" clip-rule="evenodd" d="M0 0V24H32V0H0Z" fill="#F7FCFF"/>
<mask id="mask0_30_18002" style="mask-type:luminance" maskUnits="userSpaceOnUse" x="0" y="0" width="32" height="24">
<path fill-rule="evenodd" clip-rule="evenodd" d="M0 0V24H32V0H0Z" fill="white"/>
</mask>
<g mask="url(#mask0_30_18002)">
<path fill-rule="evenodd" clip-rule="evenodd" d="M16 18.2195C19.2027 18.2195 21.799 15.4623 21.799 12.061C21.799 8.65974 19.2027 5.90247 16 5.90247C12.7972 5.90247 10.2009 8.65974 10.2009 12.061C10.2009 15.4623 12.7972 18.2195 16 18.2195Z" fill="#3D58DB"/>
<mask id="mask1_30_18002" style="mask-type:luminance" maskUnits="userSpaceOnUse" x="10" y="5" width="12" height="14">
<path fill-rule="evenodd" clip-rule="evenodd" d="M16 18.2195C19.2027 18.2195 21.799 15.4623 21.799 12.061C21.799 8.65974 19.2027 5.90247 16 5.90247C12.7972 5.90247 10.2009 8.65974 10.2009 12.061C10.2009 15.4623 12.7972 18.2195 16 18.2195Z" fill="white"/>
</mask>
<g mask="url(#mask1_30_18002)">
<path fill-rule="evenodd" clip-rule="evenodd" d="M22.0019 12.5328C22.0019 12.5328 21.6764 9.6288 19.2657 9.47116C16.8551 9.31351 16.2051 11.6007 16.0659 12.2067C15.9268 12.8127 15.5747 14.4292 13.0366 14.4292C10.4985 14.4292 10.2695 10.3188 10.2695 10.3188V5.47192H22.0019V12.5328Z" fill="#E31D1C"/>
</g>
<path fill-rule="evenodd" clip-rule="evenodd" d="M7.29934 2.05219L8.2143 2.87971L3.97404 7.83162L3.05908 7.00409L7.29934 2.05219ZM8.80833 3.39134L9.72329 4.21887L5.63503 9.09904L4.72007 8.27151L8.80833 3.39134ZM11.2254 5.57453L10.3104 4.747L6.21078 9.6642L7.12575 10.4917L11.2254 5.57453Z" fill="#272727"/>
<path fill-rule="evenodd" clip-rule="evenodd" d="M25.3637 1.7052L24.4486 2.52963L26.036 4.39246L26.9512 3.56803L25.3637 1.7052ZM28.1854 5.13184L27.2702 5.95627L28.8576 7.8191L29.7728 6.99467L28.1854 5.13184ZM21.428 5.21282L22.3431 4.38839L23.9306 6.25122L23.0154 7.07565L21.428 5.21282ZM25.1648 7.81503L24.2496 8.63946L25.837 10.5023L26.7522 9.67786L25.1648 7.81503ZM22.9956 3.83121L23.9107 3.00678L28.3293 8.38765L27.4142 9.21207L22.9956 3.83121Z" fill="#272727"/>
<path fill-rule="evenodd" clip-rule="evenodd" d="M26.0549 14.2431L25.1321 13.4155L23.5313 15.2856L24.4541 16.1132L26.0549 14.2431ZM23.3636 17.5341L22.4407 16.7065L20.84 18.5766L21.7628 19.4042L23.3636 17.5341ZM28.0465 16.0328L28.9693 16.8605L27.3686 18.7306L26.4457 17.9029L28.0465 16.0328ZM26.4096 20.2278L25.4868 19.4001L23.886 21.2702L24.8089 22.0979L26.4096 20.2278ZM23.9665 17.978L24.8894 18.8057L23.2184 20.8026L22.2956 19.975L23.9665 17.978ZM27.6308 15.4782L26.708 14.6506L25.037 16.6475L25.9599 17.4752L27.6308 15.4782Z" fill="#272727"/>
<path fill-rule="evenodd" clip-rule="evenodd" d="M6.40654 14.8899L7.32175 14.0646L11.4063 18.745L10.4911 19.5703L6.40654 14.8899ZM7.35934 18.9836L8.27454 18.1582L9.99985 20.0538L9.08464 20.8791L7.35934 18.9836ZM4.3094 16.6908L3.3942 17.5162L7.5 22.2595L8.4152 21.4342L4.3094 16.6908ZM4.96059 16.1522L5.87579 15.3269L7.37146 17.0808L6.45626 17.9061L4.96059 16.1522Z" fill="#272727"/>
</g>
</g>
<defs>
<clipPath id="clip0_30_18002">
<rect width="32" height="24" fill="white"/>
</clipPath>
</defs>
</svg>
