<svg width="32" height="24" viewBox="0 0 32 24" fill="none" xmlns="http://www.w3.org/2000/svg">
<g clip-path="url(#clip0_30_18122)">
<rect width="32" height="24" fill="white"/>
<path fill-rule="evenodd" clip-rule="evenodd" d="M0 0V24H32V0H0Z" fill="#E31D1C"/>
<mask id="mask0_30_18122" style="mask-type:luminance" maskUnits="userSpaceOnUse" x="0" y="0" width="32" height="24">
<path fill-rule="evenodd" clip-rule="evenodd" d="M0 0V24H32V0H0Z" fill="white"/>
</mask>
<g mask="url(#mask0_30_18122)">
<path fill-rule="evenodd" clip-rule="evenodd" d="M0 0V12H32V0H0Z" fill="#2E42A5"/>
<path fill-rule="evenodd" clip-rule="evenodd" d="M4.79846 11.0532C4.79846 11.0532 6.00513 11.8043 8.8013 11.8043C11.5975 11.8043 13.0817 11.0532 13.0817 11.0532C13.0817 11.0532 10.8888 9.77844 8.92815 9.77844C6.96747 9.77844 4.79846 11.0532 4.79846 11.0532Z" fill="black"/>
<path d="M4.87068 6.74222L4.6546 6.86796L4.72691 6.99222H4.87068H13.1959H13.3791L13.4343 6.81755L13.1959 6.74222C13.4343 6.81755 13.4343 6.81747 13.4344 6.81739L13.4344 6.81717L13.4346 6.81661L13.4351 6.81491L13.4368 6.80932L13.4427 6.78958C13.4477 6.77271 13.4546 6.74852 13.4629 6.7178C13.4794 6.6564 13.5015 6.56864 13.5243 6.46075C13.5698 6.24562 13.619 5.94712 13.6327 5.61591C13.6595 4.9677 13.5525 4.12256 12.9233 3.57561C12.2822 3.01825 11.4687 3.10501 10.7669 3.28041C10.5281 3.34011 10.2845 3.41511 10.0564 3.48535C9.94873 3.51852 9.84448 3.55062 9.74581 3.57955C9.42451 3.67375 9.15667 3.73626 8.94111 3.73626C8.72659 3.73626 8.49013 3.67854 8.2125 3.59114C8.1283 3.56464 8.03888 3.53486 7.94586 3.50389C7.74616 3.43739 7.52985 3.36536 7.31286 3.30826C6.65405 3.13488 5.89364 3.06939 5.05077 3.54675C4.61179 3.79536 4.36079 4.14145 4.24194 4.52073C4.12543 4.89259 4.14004 5.28191 4.20207 5.6232C4.26436 5.96593 4.37732 6.27577 4.47316 6.49792C4.52134 6.6096 4.56584 6.70061 4.59863 6.76429C4.61505 6.79616 4.62857 6.82128 4.63822 6.83881L4.64967 6.85935L4.653 6.86519L4.65402 6.86696L4.65436 6.86755L4.65449 6.86778C4.65455 6.86787 4.6546 6.86796 4.87068 6.74222Z" fill="#FFD83D" stroke="black" stroke-width="0.5"/>
<path d="M3.88619 6.906L4.00275 7.12717C3.88619 6.906 3.88629 6.90595 3.88639 6.90589L3.88663 6.90577L3.88722 6.90546L3.88885 6.90461L3.89392 6.902L3.91128 6.89331C3.92606 6.88602 3.94727 6.8758 3.97493 6.86308C4.03025 6.83765 4.11136 6.80222 4.2184 6.76017C4.4325 6.67606 4.75029 6.56548 5.17299 6.45544C6.01856 6.2353 7.28284 6.01758 8.97522 6.01758C10.6676 6.01758 11.9319 6.2353 12.7774 6.45544C13.2001 6.56548 13.5179 6.67606 13.732 6.76017C13.8391 6.80222 13.9202 6.83765 13.9755 6.86308C14.0032 6.8758 14.0244 6.88602 14.0392 6.89331L14.0565 6.902L14.0616 6.90461L14.0632 6.90546L14.0638 6.90577L14.064 6.90589C14.0641 6.90595 14.0642 6.906 13.9477 7.12717L14.0642 6.906L14.2589 7.0086L14.1818 7.21474L12.997 10.3831L12.9144 10.6039L3.88619 6.906ZM3.88619 6.906L3.69323 7.00769L3.76782 7.21266L4.92078 10.381L5.00129 10.6023L5.22691 10.5352L3.88619 6.906ZM12.6891 10.5344L12.6891 10.5344L5.22695 10.5352L5.22704 10.5351L5.22782 10.5349L5.23144 10.5338L5.24673 10.5294C5.26045 10.5255 5.28114 10.5196 5.30834 10.512C5.36275 10.497 5.44316 10.4752 5.5459 10.4491C5.75146 10.3968 6.046 10.3269 6.40014 10.2569C7.11002 10.1167 8.05216 9.97775 8.99416 9.97775C9.93592 9.97775 10.8603 10.1166 11.5521 10.2567C11.8973 10.3266 12.1829 10.3964 12.3816 10.4486C12.481 10.4747 12.5586 10.4964 12.611 10.5114C12.6372 10.5189 12.6571 10.5248 12.6702 10.5287L12.6849 10.5331L12.6883 10.5342L12.689 10.5344L12.6891 10.5344Z" fill="#FFD83D" stroke="black" stroke-width="0.5"/>
<path d="M8.87399 4.26509C9.43371 4.26509 9.79626 3.71828 9.79626 3.16981C9.79626 2.62133 9.43371 2.07452 8.87399 2.07452C8.31427 2.07452 7.95172 2.62133 7.95172 3.16981C7.95172 3.71828 8.31427 4.26509 8.87399 4.26509Z" fill="#FFD83D" stroke="black" stroke-width="0.5"/>
<mask id="path-8-outside-1_30_18122" maskUnits="userSpaceOnUse" x="7.11768" y="-1" width="4" height="5" fill="black">
<rect fill="white" x="7.11768" y="-1" width="4" height="5"/>
<path fill-rule="evenodd" clip-rule="evenodd" d="M9.12608 0H8.62188L8.68678 0.922722L8.11768 0.845283V1.47925L8.69552 1.39965L8.62188 2.85283H9.12608L9.05144 1.39721L9.63028 1.47925V0.845283L9.06193 0.926866L9.12608 0Z"/>
</mask>
<path fill-rule="evenodd" clip-rule="evenodd" d="M9.12608 0H8.62188L8.68678 0.922722L8.11768 0.845283V1.47925L8.69552 1.39965L8.62188 2.85283H9.12608L9.05144 1.39721L9.63028 1.47925V0.845283L9.06193 0.926866L9.12608 0Z" fill="#FFD83D"/>
<path d="M8.62188 0V-0.5H8.08547L8.12311 0.0350833L8.62188 0ZM9.12608 0L9.62489 0.0345249L9.66188 -0.5L9.12608 -0.5V0ZM8.68678 0.922722L8.61937 1.41816L9.2287 1.50107L9.18555 0.887638L8.68678 0.922722ZM8.11768 0.845283L8.18509 0.349849L7.61768 0.27264V0.845283H8.11768ZM8.11768 1.47925H7.61768V2.05284L8.1859 1.97457L8.11768 1.47925ZM8.69552 1.39965L9.19488 1.42496L9.22544 0.821939L8.6273 0.904328L8.69552 1.39965ZM8.62188 2.85283L8.12252 2.82752L8.0959 3.35283H8.62188V2.85283ZM9.12608 2.85283V3.35283H9.65238L9.62542 2.82722L9.12608 2.85283ZM9.05144 1.39721L9.1216 0.902154L8.52103 0.817036L8.55209 1.42281L9.05144 1.39721ZM9.63028 1.47925L9.56012 1.9743L10.1303 2.05511V1.47925H9.63028ZM9.63028 0.845283H10.1303V0.268387L9.55924 0.350356L9.63028 0.845283ZM9.06193 0.926866L8.56312 0.892341L8.52039 1.50972L9.13297 1.42179L9.06193 0.926866ZM8.62188 0.5H9.12608V-0.5H8.62188V0.5ZM9.18555 0.887638L9.12065 -0.0350833L8.12311 0.0350833L8.18801 0.957805L9.18555 0.887638ZM8.05026 1.34072L8.61937 1.41816L8.7542 0.427287L8.18509 0.349849L8.05026 1.34072ZM8.61768 1.47925V0.845283H7.61768V1.47925H8.61768ZM8.6273 0.904328L8.04945 0.983922L8.1859 1.97457L8.76375 1.89497L8.6273 0.904328ZM9.12124 2.87814L9.19488 1.42496L8.19616 1.37434L8.12252 2.82752L9.12124 2.87814ZM9.12608 2.35283H8.62188V3.35283H9.12608V2.35283ZM8.55209 1.42281L8.62674 2.87844L9.62542 2.82722L9.55078 1.3716L8.55209 1.42281ZM9.70044 0.984193L9.1216 0.902154L8.98127 1.89226L9.56012 1.9743L9.70044 0.984193ZM9.13028 0.845283V1.47925H10.1303V0.845283H9.13028ZM9.13297 1.42179L9.70132 1.34021L9.55924 0.350356L8.99088 0.431939L9.13297 1.42179ZM8.62727 -0.0345249L8.56312 0.892341L9.56073 0.961391L9.62489 0.0345249L8.62727 -0.0345249Z" fill="black" mask="url(#path-8-outside-1_30_18122)"/>
</g>
</g>
<defs>
<clipPath id="clip0_30_18122">
<rect width="32" height="24" fill="white"/>
</clipPath>
</defs>
</svg>
