<svg width="32" height="24" viewBox="0 0 32 24" fill="none" xmlns="http://www.w3.org/2000/svg">
<g clip-path="url(#clip0_30_18069)">
<rect width="32" height="24" fill="white"/>
<path fill-rule="evenodd" clip-rule="evenodd" d="M0 0H32V24H0V0Z" fill="#E8AA00"/>
<path fill-rule="evenodd" clip-rule="evenodd" d="M4 4H28V20H4V4Z" fill="#C51918"/>
<mask id="mask0_30_18069" style="mask-type:luminance" maskUnits="userSpaceOnUse" x="4" y="4" width="24" height="16">
<path fill-rule="evenodd" clip-rule="evenodd" d="M4 4H28V20H4V4Z" fill="white"/>
</mask>
<g mask="url(#mask0_30_18069)">
<path fill-rule="evenodd" clip-rule="evenodd" d="M20.2308 15.7514C20.6386 15.7514 20.9692 15.4126 20.9692 14.9946C20.9692 14.5767 20.6386 14.2379 20.2308 14.2379C19.8229 14.2379 19.4923 14.5767 19.4923 14.9946C19.4923 15.4126 19.8229 15.7514 20.2308 15.7514Z" fill="#1E5E91"/>
<path fill-rule="evenodd" clip-rule="evenodd" d="M10.6276 12.3318C8.69032 10.0804 11.4668 6.17322 11.4668 6.17322C11.4668 6.17322 11.8819 8.50677 13.4183 10.077C13.4183 10.1885 13.2732 10.353 13.1263 10.5196C13.0237 10.6359 12.9203 10.7532 12.8647 10.8542C12.7296 11.0997 13.1934 11.2396 13.4183 11.2396C13.5192 11.2396 13.575 11.386 13.6253 11.5181C13.6871 11.6804 13.7407 11.8211 13.8597 11.6428C14.0756 11.3194 13.6438 10.6087 13.6438 10.6087L14.3274 9.88767L14.5586 9.42159H14.3274V8.94175L14.1654 9.07476C14.1654 9.07476 13.9877 8.64572 13.6438 8.64572C13.3 8.64572 13.1934 8.44952 13.1934 8.44952H13.6438C13.8694 8.44952 13.6078 8.15063 13.4183 7.99494C13.3333 7.92515 13.2044 7.94921 13.0881 7.97093C12.9449 7.99767 12.8206 8.02086 12.8206 7.86114C12.8206 7.68607 12.957 7.66287 13.1145 7.63607C13.2174 7.61855 13.3294 7.5995 13.4183 7.5355C13.5653 7.42964 13.7634 7.46219 13.9779 7.49742C14.0916 7.51608 14.2098 7.5355 14.3274 7.5355H14.8844C15.0855 7.5355 14.5586 7.86114 14.5586 7.86114L14.8844 8.15063L15.3688 8.64572L15.1266 8.78953L15.6265 9.27432C15.6265 9.27432 15.4568 9.55024 15.6265 9.55024C15.6964 9.55024 15.7425 9.60757 15.7724 9.67496C15.8024 9.60757 15.8484 9.55024 15.9183 9.55024C16.088 9.55024 15.9183 9.27432 15.9183 9.27432L16.4183 8.78953L16.176 8.64572L16.6605 8.15063L16.9863 7.86114C16.9863 7.86114 16.4593 7.5355 16.6605 7.5355H17.2174C17.3351 7.5355 17.4533 7.51608 17.5669 7.49742C17.7814 7.46219 17.9795 7.42964 18.1266 7.5355C18.2154 7.5995 18.3274 7.61855 18.4304 7.63607C18.5879 7.66287 18.7242 7.68607 18.7242 7.86114C18.7242 8.02086 18.5999 7.99767 18.4567 7.97093C18.3404 7.94921 18.2115 7.92515 18.1266 7.99494C17.937 8.15063 17.6754 8.44952 17.901 8.44952H18.3514C18.3514 8.44952 18.2449 8.64572 17.901 8.64572C17.5571 8.64572 17.3794 9.07476 17.3794 9.07476L17.2174 8.94175V9.42159H16.9863L17.2174 9.88767L17.901 10.6087C17.901 10.6087 17.4692 11.3194 17.6851 11.6428C17.8041 11.8211 17.8577 11.6804 17.9195 11.5181C17.9699 11.386 18.0256 11.2396 18.1266 11.2396C18.3514 11.2396 18.8152 11.0997 18.6801 10.8542C18.6246 10.7532 18.5211 10.6359 18.4185 10.5196C18.2716 10.353 18.1266 10.1885 18.1266 10.077C19.6629 8.50677 20.078 6.17322 20.078 6.17322C20.078 6.17322 22.8545 10.0804 20.9173 12.3318C18.98 14.5833 17.5571 13.9044 17.5571 13.9044L18.3514 14.6167L18.1266 14.8113H18.7884L18.545 14.974L18.7242 15.0525L18.9138 15.1355C18.9138 15.1355 18.4026 15.5115 18.9138 15.5115C18.9945 15.5115 19.0801 15.5091 19.1681 15.5067C19.2645 15.504 19.364 15.5012 19.4633 15.5014C19.4901 15.5015 19.4303 15.3541 19.3709 15.208C19.3124 15.0638 19.2543 14.9208 19.2805 14.922C19.3357 14.9243 19.4443 15.0554 19.5533 15.1869C19.6401 15.2918 19.7272 15.3969 19.7877 15.4374C19.8267 15.4634 19.9789 15.4106 20.1199 15.3616C20.2391 15.3202 20.3504 15.2815 20.3785 15.2957C20.4974 15.3557 20.467 15.4771 20.438 15.5927C20.4306 15.6225 20.4232 15.6518 20.4186 15.6796C20.4143 15.7049 20.5666 15.6061 20.7267 15.5022C20.8949 15.3931 21.0718 15.2784 21.0853 15.2957C21.0881 15.2993 21.0912 15.303 21.0944 15.3069C21.1516 15.3757 21.2437 15.4865 20.5637 16.0106C20.5637 16.1114 20.5673 16.1936 20.5702 16.2604C20.5795 16.4749 20.5819 16.5304 20.4367 16.5304C20.3719 16.5304 20.2814 16.5625 20.1765 16.5997C19.9075 16.695 19.5443 16.8237 19.2805 16.5304C18.9138 16.1227 18.3514 15.5115 18.3514 15.5115V15.8119L17.6851 15.1355L17.5571 15.5115L16.6605 14.4816L16.4183 14.6167C16.4183 14.6167 17.2436 16.8944 17.6851 16.9102C17.9045 16.9181 17.5713 17.131 17.1301 17.413C16.6833 17.6985 16.1257 18.0548 15.9183 18.341C15.8566 18.4262 15.8089 18.2963 15.7724 18.0139C15.7359 18.2963 15.6882 18.4262 15.6265 18.341C15.4191 18.0548 14.8615 17.6985 14.4148 17.413C13.9735 17.131 13.6404 16.9181 13.8597 16.9102C14.3012 16.8944 15.1266 14.6167 15.1266 14.6167L14.8844 14.4816L13.9877 15.5115L13.8597 15.1355L13.1934 15.8119V15.5115C13.1934 15.5115 12.631 16.1227 12.2643 16.5304C12.0005 16.8237 11.6373 16.695 11.3683 16.5997C11.2634 16.5625 11.1729 16.5304 11.1082 16.5304C10.8775 16.5304 10.8003 16.2076 11.1082 15.8119C11.3675 15.4786 11.9074 15.4936 12.3768 15.5067C12.4648 15.5091 12.5503 15.5115 12.631 15.5115C13.1422 15.5115 12.631 15.1355 12.631 15.1355L12.8206 15.0525L12.9998 14.974L12.7564 14.8113H13.4183L13.1934 14.6167L13.9877 13.9044C13.9877 13.9044 12.5648 14.5833 10.6276 12.3318Z" fill="#F6C540"/>
<path fill-rule="evenodd" clip-rule="evenodd" d="M12.4331 17.0303L11.558 15.4961C11.558 15.4961 10.4138 12.858 10.4138 12.5377C10.4138 12.2174 9.95319 11.2689 9.95319 11.5443C9.95319 11.8196 9.95319 12.5377 9.95319 12.5377L11.8837 16.8867V17.2294H12.1436L12.4331 17.0303Z" fill="#F6C540"/>
<path d="M19.4418 14.9649L19.575 14.523L21.2008 15.0128L21.0677 15.4548L19.4418 14.9649Z" fill="#F6C540"/>
<path d="M20.3078 14.1603L20.7475 14.3043L20.3179 15.6823L19.8783 15.5384L20.3078 14.1603Z" fill="#F6C540"/>
<path fill-rule="evenodd" clip-rule="evenodd" d="M20.7173 13.7111L20.6228 13.6895L20.5844 13.8415L20.4107 13.7989L20.3893 13.8917L20.5611 13.9338L20.5173 14.1071L20.6118 14.1286L20.6552 13.9569L20.826 13.9989L20.8474 13.9061L20.6785 13.8646L20.7173 13.7111Z" fill="#F6C540"/>
<path fill-rule="evenodd" clip-rule="evenodd" d="M15.6944 5.22241L15.7419 5.38822H15.8863L15.9339 5.22241C16.054 5.25858 16.163 5.29972 16.2607 5.34566L16.264 5.30936C17.0359 5.37986 17.4364 5.70294 17.3935 6.27097C17.3579 6.74117 17.1199 6.98751 16.7231 6.9812V7.33241C16.7231 7.33241 16.0769 7.58046 15.7538 7.58046C15.4308 7.58046 14.7846 7.33241 14.7846 7.33241V6.97526C14.4578 6.93485 14.2627 6.69315 14.2308 6.27097C14.1879 5.70294 14.5884 5.37986 15.3602 5.30936L15.3637 5.34747C15.4624 5.30081 15.5727 5.25905 15.6944 5.22241ZM14.8773 6.6667C14.8338 6.67888 14.8032 6.68786 14.7908 6.69155C14.6136 6.65832 14.5271 6.51673 14.507 6.25075C14.4867 5.98184 14.613 5.79475 14.9109 5.68685C14.7077 5.94697 14.6928 6.27785 14.8773 6.6667ZM15.1524 6.59503C15.3153 6.5559 15.5037 6.51699 15.6547 6.50363V5.53295C15.0348 5.75048 14.8859 6.08326 15.1524 6.59503ZM15.9316 6.51235C16.1393 6.53959 16.3915 6.60198 16.5545 6.64588L16.4728 6.60078C16.7494 6.07435 16.589 5.73658 15.9316 5.51863V6.51235ZM16.7189 5.6889C16.9263 5.95593 16.9357 6.29729 16.7351 6.69918C16.9794 6.70285 17.0937 6.56193 17.1173 6.25075C17.1375 5.98353 17.0128 5.79711 16.7189 5.6889Z" fill="#F6C540"/>
<path fill-rule="evenodd" clip-rule="evenodd" d="M15.7538 5.51914C15.9322 5.51914 16.0769 5.37449 16.0769 5.19606C16.0769 5.01763 15.9322 4.87299 15.7538 4.87299C15.5754 4.87299 15.4307 5.01763 15.4307 5.19606C15.4307 5.37449 15.5754 5.51914 15.7538 5.51914Z" fill="#3D58DB"/>
<path fill-rule="evenodd" clip-rule="evenodd" d="M15.7988 4.49821L15.7019 4.50017L15.7014 4.65696L15.5226 4.6576L15.5243 4.75278L15.7011 4.75215L15.7006 4.93087L15.7975 4.9289L15.798 4.75181L15.974 4.75118L15.9722 4.656L15.7983 4.65662L15.7988 4.49821Z" fill="#F6C540"/>
<path fill-rule="evenodd" clip-rule="evenodd" d="M13.9538 10.3595C13.9538 10.3595 15.0915 10.1448 15.7077 10.1448C16.2607 10.1448 17.4615 10.3595 17.4615 10.3595C17.4615 11.7195 17.8442 12.5522 17.4615 13.4811C17.0788 14.41 16.1435 13.9635 15.7201 14.8524C15.1791 14.0092 14.4485 14.4734 13.9538 13.2727C13.4591 12.0721 14.2546 11.5191 13.9538 10.3595Z" fill="#1E5E91"/>
<mask id="mask1_30_18069" style="mask-type:luminance" maskUnits="userSpaceOnUse" x="13" y="10" width="5" height="5">
<path fill-rule="evenodd" clip-rule="evenodd" d="M13.9538 10.3595C13.9538 10.3595 15.0915 10.1448 15.7077 10.1448C16.2607 10.1448 17.4615 10.3595 17.4615 10.3595C17.4615 11.7195 17.8442 12.5522 17.4615 13.4811C17.0788 14.41 16.1435 13.9635 15.7201 14.8524C15.1791 14.0092 14.4485 14.4734 13.9538 13.2727C13.4591 12.0721 14.2546 11.5191 13.9538 10.3595Z" fill="white"/>
</mask>
<g mask="url(#mask1_30_18069)">
<rect x="13.9538" y="13.1973" width="3.50769" height="1.7027" fill="#5EAA22"/>
<path fill-rule="evenodd" clip-rule="evenodd" d="M14.9909 11.0297C14.8568 10.7449 15.6952 10.7117 15.6952 10.7117C15.6952 10.7117 15.876 11.0297 15.6952 11.4822C15.5637 11.8113 15.783 11.7819 16.0855 11.7415C16.199 11.7263 16.3242 11.7095 16.447 11.7095C16.635 11.7095 16.734 11.6957 16.8162 11.7266C16.9308 11.7697 17.0127 11.8995 17.2578 12.2743C17.3697 12.4455 17.3648 12.5582 17.2973 12.6256C17.3031 12.7997 17.1135 12.9441 16.7633 13.0364L16.7173 12.8532C16.9025 12.8044 17.016 12.7576 17.0687 12.706C16.8047 12.722 16.447 12.5916 16.447 12.4239C16.447 12.1761 15.602 12.2283 15.0935 12.2597C14.964 12.2677 14.8563 12.2743 14.79 12.2743C14.4943 12.2743 14.721 11.9129 14.9274 11.584C14.949 11.5496 14.9704 11.5155 14.9909 11.4822C15.0969 11.3105 15.1312 11.2667 15.123 11.2334C15.1144 11.1986 15.0594 11.1752 14.9909 11.0297ZM17.002 10.9856C16.4955 10.9052 16.2114 10.983 16.2114 11.2664C16.2114 11.5362 16.481 11.6531 16.9741 11.6513C16.9933 11.6576 17.0102 11.6638 17.0246 11.6697C17.0062 11.6785 16.9836 11.6877 16.9572 11.6972L17.0185 11.8757C17.3294 11.7636 17.3294 11.5641 17.0147 11.4661L17.0012 11.4619L16.9871 11.4621C16.5772 11.4655 16.396 11.3886 16.396 11.2664C16.396 11.1553 16.568 11.1082 16.9737 11.1726L17.002 10.9856Z" fill="#F6C540"/>
</g>
</g>
</g>
<defs>
<clipPath id="clip0_30_18069">
<rect width="32" height="24" fill="white"/>
</clipPath>
</defs>
</svg>
