<svg width="32" height="24" viewBox="0 0 32 24" fill="none" xmlns="http://www.w3.org/2000/svg">
<g clip-path="url(#clip0_30_18117)">
<rect width="32" height="24" fill="white"/>
<path fill-rule="evenodd" clip-rule="evenodd" d="M10 0H22V24H10V0Z" fill="#4C67E8"/>
<path fill-rule="evenodd" clip-rule="evenodd" d="M22 0H32V24H22V0Z" fill="#C51918"/>
<path fill-rule="evenodd" clip-rule="evenodd" d="M0 0H12V24H0V0Z" fill="#C51918"/>
<path fill-rule="evenodd" clip-rule="evenodd" d="M6.01387 6.88423C5.00053 6.88423 5.13354 5.89689 5.13354 5.89689L5.614 4.85929V5.27725V5.89689C5.614 6.03035 5.7961 5.76343 5.7961 5.44212C5.7961 5.12081 6.01387 4.63967 6.01387 4.63967C6.01387 4.63967 6.02261 4.47878 6.02864 4.31992C6.06349 4.40166 6.13337 4.47243 6.23944 4.57987C6.25794 4.5986 6.27753 4.61845 6.29824 4.63967C6.42343 4.76796 6.40654 5.10781 6.39193 5.40186C6.3787 5.66816 6.36733 5.89689 6.46506 5.89689C6.67069 5.89689 6.65541 4.97812 6.65541 4.97812L7.00054 5.89689C7.00054 5.89689 7.02722 6.88423 6.01387 6.88423ZM6.01387 4.06455C6.03966 3.91379 6.0364 4.11518 6.02864 4.31992C5.99953 4.25168 5.99484 4.1758 6.01387 4.06455ZM7.53846 8.6838C7.53846 9.4865 6.86689 10.1372 6.03846 10.1372C5.21003 10.1372 4.53846 9.4865 4.53846 8.6838C4.53846 7.88111 5.21003 7.2304 6.03846 7.2304C6.86689 7.2304 7.53846 7.88111 7.53846 8.6838ZM3.76923 11.4043H2V19.9756H3.76923V11.4043ZM10 11.4043H8.23077V19.9756H10V11.4043ZM4.23077 11.4788L5.95549 12.5467L7.89938 11.4788H4.23077ZM5.95549 20L4.23077 18.9322H7.89938L5.95549 20ZM4.23077 12.8949H7.84615V13.5657H4.23077V12.8949ZM7.84615 17.8887H4.23077V18.5595H7.84615V17.8887ZM6.07692 17.516C7.09653 17.516 7.92308 16.7151 7.92308 15.7272C7.92308 14.7393 7.09653 13.9384 6.07692 13.9384C5.05732 13.9384 4.23077 14.7393 4.23077 15.7272C4.23077 16.7151 5.05732 17.516 6.07692 17.516ZM4.0032 9.21621C4.0032 9.21621 4.06536 11.0835 5.90587 11.0835C7.74638 11.0835 8.04343 9.21621 8.04343 9.21621C8.04343 9.21621 7.33103 10.3601 6.02332 10.3601C4.7156 10.3601 4.0032 9.21621 4.0032 9.21621Z" fill="#F8D000"/>
<path d="M6.35859 13.9724L6.44107 13.6049C6.85355 14.0561 7.0404 14.3094 6.95212 14.7228C6.85357 15.1844 6.33548 15.6984 5.73355 16.1219C5.36898 16.3785 5.14564 17.0708 5.32656 17.291L5.15404 17.6049C4.75083 17.1142 5.0731 16.1885 5.62951 15.7969C6.14044 15.4374 6.49725 15.0604 6.55949 14.7637C6.60001 14.5705 6.67556 14.3192 6.35859 13.9724Z" fill="#C51918"/>
<path fill-rule="evenodd" clip-rule="evenodd" d="M6.5 17C6.77614 17 7 16.7761 7 16.5C7 16.2239 6.77614 16 6.5 16C6.22386 16 6 16.2239 6 16.5C6 16.7761 6.22386 17 6.5 17Z" fill="#C51918"/>
<path fill-rule="evenodd" clip-rule="evenodd" d="M5.37585 15.6506C5.652 15.6506 5.87585 15.4268 5.87585 15.1506C5.87585 14.8745 5.652 14.6506 5.37585 14.6506C5.09971 14.6506 4.87585 14.8745 4.87585 15.1506C4.87585 15.4268 5.09971 15.6506 5.37585 15.6506Z" fill="#C51918"/>
</g>
<defs>
<clipPath id="clip0_30_18117">
<rect width="32" height="24" fill="white"/>
</clipPath>
</defs>
</svg>
