<svg width="32" height="24" viewBox="0 0 32 24" fill="none" xmlns="http://www.w3.org/2000/svg">
<g clip-path="url(#clip0_30_17974)">
<rect width="32" height="24" fill="white"/>
<path fill-rule="evenodd" clip-rule="evenodd" d="M0 0H34V24H0V0Z" fill="#2993EC"/>
<path fill-rule="evenodd" clip-rule="evenodd" d="M6.21277 11.5833C6.21277 16.8761 10.5947 21.1667 16 21.1667C21.4053 21.1667 25.7872 16.8761 25.7872 11.5833C25.7872 6.2906 21.4053 2 16 2C10.5947 2 6.21277 6.2906 6.21277 11.5833ZM23.6596 11.5833C23.6596 15.7255 20.2303 19.0833 16 19.0833C11.7697 19.0833 8.34043 15.7255 8.34043 11.5833C8.34043 7.4412 11.7697 4.08333 16 4.08333C20.2303 4.08333 23.6596 7.4412 23.6596 11.5833Z" fill="#F1F9FF"/>
<path fill-rule="evenodd" clip-rule="evenodd" d="M7.06378 11.5833C7.06378 16.4158 11.0646 20.3333 16 20.3333C20.9353 20.3333 24.9361 16.4158 24.9361 11.5833C24.9361 6.75082 20.9353 2.83331 16 2.83331C11.0646 2.83331 7.06378 6.75082 7.06378 11.5833ZM24.5106 11.5833C24.5106 16.1857 20.7002 19.9166 16 19.9166C11.2997 19.9166 7.48931 16.1857 7.48931 11.5833C7.48931 6.98094 11.2997 3.24998 16 3.24998C20.7002 3.24998 24.5106 6.98094 24.5106 11.5833Z" fill="#E31D1C"/>
<path fill-rule="evenodd" clip-rule="evenodd" d="M16 2.20831C15.8921 2.43099 15.8382 2.74741 15.8382 3.15758C15.8382 3.56775 15.6793 3.97834 15.3617 4.38934C15.3027 3.93684 15.2732 3.52625 15.2732 3.15758C15.2732 2.78891 15.5154 2.47249 16 2.20831ZM18.2362 2.54693C18.081 2.73963 17.9573 3.03581 17.865 3.43547C17.7727 3.83513 17.5256 4.19947 17.1237 4.52848C17.168 4.0743 17.2316 3.6676 17.3145 3.30838C17.3974 2.94916 17.7047 2.69534 18.2362 2.54693ZM19.773 4.16785C19.9592 3.80239 20.1509 3.54494 20.3481 3.39551C19.7965 3.41092 19.4369 3.58287 19.2696 3.91136C19.1022 4.23985 18.9421 4.61907 18.7892 5.04904C19.2588 4.82705 19.5868 4.53332 19.773 4.16785ZM22.1912 4.68398C21.9654 4.78521 21.7207 4.99294 21.457 5.30715C21.1934 5.62136 20.8078 5.83379 20.3002 5.94445C20.5459 5.55989 20.7872 5.2264 21.0242 4.94398C21.2612 4.66156 21.6502 4.57489 22.1912 4.68398ZM22.8279 6.79608C23.1555 6.54923 23.4407 6.40188 23.6834 6.35402C23.1808 6.12604 22.7823 6.12299 22.4879 6.34486C22.1935 6.56673 21.8833 6.83739 21.5574 7.15683C22.0769 7.16318 22.5003 7.04292 22.8279 6.79608ZM24.7466 8.33623C24.4994 8.32393 24.1871 8.39792 23.8095 8.55818C23.432 8.71845 22.9919 8.73268 22.4895 8.60087C22.883 8.36975 23.2494 8.18217 23.5888 8.03811C23.9281 7.89406 24.3141 7.99343 24.7466 8.33623ZM24.3524 10.4909C24.7564 10.4197 25.0773 10.4178 25.3154 10.4854C24.9711 10.0541 24.6174 9.87046 24.2543 9.93448C23.8912 9.9985 23.492 10.0988 23.0566 10.2355C23.5166 10.477 23.9485 10.5621 24.3524 10.4909ZM6.08398 9.76964C6.28454 9.91454 6.58679 10.0226 6.99073 10.0938C7.39467 10.1651 7.77144 10.3928 8.12104 10.777C7.66517 10.7565 7.2557 10.7143 6.89263 10.6502C6.52955 10.5862 6.26001 10.2927 6.08398 9.76964ZM7.62116 8.18706C7.24359 8.0268 6.9734 7.85351 6.81058 7.6672C6.86443 8.21644 7.06104 8.56308 7.4004 8.70713C7.73977 8.85119 8.12924 8.98446 8.56883 9.10696C8.31461 8.65396 7.99873 8.34733 7.62116 8.18706ZM8.02712 5.77358C8.14003 5.99374 8.36028 6.22724 8.68786 6.47409C9.01544 6.72094 9.24776 7.09488 9.38483 7.59592C8.98794 7.37072 8.64228 7.14718 8.34784 6.92531C8.05341 6.70343 7.9465 6.31952 8.02712 5.77358ZM10.125 5.04799C9.86132 4.73378 9.69925 4.45672 9.63876 4.2168C9.43739 4.73062 9.4552 5.12874 9.69218 5.41116C9.92915 5.69358 10.2157 5.98914 10.5517 6.29786C10.5309 5.77882 10.3886 5.3622 10.125 5.04799ZM11.5726 3.06555C11.5776 3.31293 11.6732 3.61935 11.8594 3.98482C12.0456 4.35028 12.0905 4.78823 11.9941 5.29865C11.7361 4.92225 11.5234 4.5698 11.356 4.24132C11.1886 3.91283 11.2608 3.5209 11.5726 3.06555ZM13.801 3.34478C13.7087 2.94512 13.6901 2.62467 13.7451 2.38344C13.3324 2.74984 13.1675 3.11265 13.2505 3.47187C13.3334 3.8311 13.4545 4.22453 13.6138 4.65216C13.8308 4.18023 13.8932 3.74444 13.801 3.34478Z" fill="#FDDA33"/>
<path fill-rule="evenodd" clip-rule="evenodd" d="M14.5861 5.75C14.2193 5.75 13.9465 6.089 14.0249 6.44728L14.4118 8.21501C14.4458 8.37032 14.5407 8.49935 14.6682 8.57918C14.5506 8.67059 14.4691 8.80708 14.4503 8.96483L13.0627 20.6104C13.0372 20.824 13.1328 21.0334 13.3196 21.1402C13.8419 21.4388 14.9741 22 16.1064 22C17.2386 22 18.3708 21.4388 18.8931 21.1402C19.0799 21.0334 19.1755 20.824 19.15 20.6104L17.7624 8.96483C17.7437 8.80708 17.6621 8.67059 17.5445 8.57918C17.672 8.49935 17.767 8.37032 17.8009 8.21501L18.1878 6.44728C18.2662 6.089 17.9934 5.75 17.6266 5.75H14.5861Z" fill="#A7A7A7"/>
<path d="M6.51922 12.0128C6.5708 11.8478 6.74924 11.7549 6.91779 11.8054C7.08633 11.8559 7.18116 12.0307 7.12958 12.1957C7.04035 12.4813 7.04035 12.903 7.13879 13.4548C7.17655 13.6664 7.22144 13.8299 7.27665 13.9742C7.29865 14.0317 7.3214 14.0844 7.35179 14.1497C7.33825 14.1206 7.41243 14.2782 7.43047 14.319C7.52586 14.5349 7.56804 14.7241 7.56804 15.0013C7.56804 15.1739 7.42515 15.3138 7.24889 15.3138C7.07263 15.3138 6.92974 15.1739 6.92974 15.0013C6.92974 14.8119 6.9063 14.7067 6.84465 14.5671C6.83012 14.5343 6.76083 14.3871 6.77092 14.4088C6.73491 14.3314 6.7067 14.2661 6.67889 14.1934C6.60962 14.0123 6.55446 13.8115 6.51001 13.5623C6.39581 12.9222 6.39581 12.4077 6.51922 12.0128Z" fill="#73BE4A"/>
<path fill-rule="evenodd" clip-rule="evenodd" d="M16.2128 16.1791L12.0983 18.9826L13.5498 14.2847L9.55537 11.3194L14.567 11.2194L16.2128 6.58331L17.8586 11.2194L22.8702 11.3194L18.8757 14.2847L20.3273 18.9826L16.2128 16.1791Z" fill="#F7FCFF"/>
<path d="M25.5595 12.4295C25.5079 12.2644 25.3294 12.1716 25.1609 12.2221C24.9923 12.2726 24.8975 12.4473 24.9491 12.6123C25.0383 12.8979 25.0383 13.3196 24.9399 13.8714C24.9021 14.0831 24.8572 14.2465 24.802 14.3908C24.78 14.4484 24.7573 14.501 24.7269 14.5663C24.7404 14.5372 24.6662 14.6948 24.6482 14.7356C24.5528 14.9515 24.5106 15.1407 24.5106 15.4179C24.5106 15.5905 24.6535 15.7304 24.8298 15.7304C25.006 15.7304 25.1489 15.5905 25.1489 15.4179C25.1489 15.2285 25.1724 15.1233 25.234 14.9838C25.2486 14.9509 25.3178 14.8037 25.3078 14.8254C25.3438 14.748 25.372 14.6827 25.3998 14.61C25.4691 14.4289 25.5242 14.2281 25.5687 13.979C25.6829 13.3388 25.6829 12.8244 25.5595 12.4295Z" fill="#73BE4A"/>
<path d="M16.0609 3.14758C16.0609 3.14758 17.2252 3.66632 16.7224 4.48307" stroke="#73BE4A" stroke-linecap="round" stroke-linejoin="round"/>
<path d="M16.9119 3.14758C16.9119 3.14758 18.0763 3.66632 17.5734 4.48307" stroke="#73BE4A" stroke-linecap="round" stroke-linejoin="round"/>
<path d="M9.2598 6.35675C9.34422 6.21063 9.52153 6.16663 9.65584 6.25848C9.79015 6.35032 9.83059 6.54323 9.74617 6.68935C9.5842 6.9697 9.49988 7.35435 9.49988 7.84755C9.49988 8.02014 9.37128 8.16005 9.21265 8.16005C9.05401 8.16005 8.92542 8.02014 8.92542 7.84755C8.92542 7.2448 9.03466 6.74645 9.2598 6.35675Z" fill="#73BE4A"/>
<path d="M8.80848 9.21252C8.80848 9.38511 8.67988 9.52502 8.52124 9.52502C8.36261 9.52502 8.23401 9.38511 8.23401 9.21252V8.32235C8.23401 7.69248 8.33281 7.19645 8.54113 6.83422C8.62528 6.68791 8.80251 6.64352 8.93699 6.73507C9.07147 6.82661 9.11227 7.01943 9.02813 7.16574C8.88527 7.41414 8.80848 7.79968 8.80848 8.32235V9.21252Z" fill="#73BE4A"/>
<path d="M23.4842 8.79589C23.4842 8.96848 23.6128 9.10839 23.7714 9.10839C23.9301 9.10839 24.0587 8.96848 24.0587 8.79589V7.90572C24.0587 7.27586 23.9599 6.77983 23.7515 6.41759C23.6674 6.27129 23.4902 6.22689 23.3557 6.31844C23.2212 6.40999 23.1804 6.60281 23.2645 6.74911C23.4074 6.99751 23.4842 7.38306 23.4842 7.90572V8.79589Z" fill="#73BE4A"/>
<path d="M24.3352 10.2542C24.3352 10.4268 24.4638 10.5667 24.6224 10.5667C24.7811 10.5667 24.9097 10.4268 24.9097 10.2542V9.36404C24.9097 8.73417 24.8109 8.23814 24.6025 7.87591C24.5184 7.7296 24.3412 7.68521 24.2067 7.77675C24.0722 7.8683 24.0314 8.06112 24.1155 8.20743C24.2584 8.45582 24.3352 8.84137 24.3352 9.36404V10.2542Z" fill="#73BE4A"/>
</g>
<defs>
<clipPath id="clip0_30_17974">
<rect width="32" height="24" fill="white"/>
</clipPath>
</defs>
</svg>
