<svg width="32" height="24" viewBox="0 0 32 24" fill="none" xmlns="http://www.w3.org/2000/svg">
<g clip-path="url(#clip0_30_18063)">
<rect width="32" height="24" fill="white"/>
<path fill-rule="evenodd" clip-rule="evenodd" d="M0 0V24H32V0H0Z" fill="#E11C1B"/>
<mask id="mask0_30_18063" style="mask-type:luminance" maskUnits="userSpaceOnUse" x="0" y="0" width="32" height="24">
<path fill-rule="evenodd" clip-rule="evenodd" d="M0 0V24H32V0H0Z" fill="white"/>
</mask>
<g mask="url(#mask0_30_18063)">
<path fill-rule="evenodd" clip-rule="evenodd" d="M0 0V10H32V0H0Z" fill="#272727"/>
<path fill-rule="evenodd" clip-rule="evenodd" d="M0 16V24H32V16H0Z" fill="#5EAA22"/>
<path fill-rule="evenodd" clip-rule="evenodd" d="M4.00167 11.9459V11.9434L3.99231 11.945L4.00167 11.9459ZM4.63012 8.12678H4.73311L4.57526 8.1026L4.63012 8.12678ZM7.55764 8.12678C7.61 8.02614 7.66466 7.92659 7.72157 7.82817L5.43213 6.31266L8.13251 7.19109C8.28353 6.97991 8.44545 6.77515 8.61759 6.57741L6.63318 4.68809L9.16201 6.00771C9.34753 5.83058 9.54197 5.66055 9.74472 5.49815L8.13983 3.2811L10.4064 5.015C10.6172 4.87484 10.8351 4.74224 11.0596 4.61767L9.90363 2.13693L11.8183 4.23864C12.0465 4.13662 12.2801 4.04243 12.5187 3.95651L11.8679 1.29233L13.3505 3.69628C13.5891 3.6325 13.8319 3.5767 14.0783 3.52927L13.9695 0.774467L14.9557 3.39787C15.1992 3.37162 15.4455 3.35342 15.6945 3.34358L16.1409 0.599976L16.5875 3.34439C16.8362 3.35466 17.0823 3.37328 17.3254 3.39993L18.3123 0.774467L18.2034 3.53305C18.449 3.58079 18.6908 3.63684 18.9286 3.70082L20.414 1.29233L19.7615 3.96305C19.9988 4.04898 20.231 4.14306 20.4579 4.24491L22.3782 2.13693L21.2182 4.62638C21.4409 4.7505 21.6571 4.88253 21.8663 5.02202L24.142 3.2811L22.5299 5.50816C22.7307 5.66956 22.9233 5.83847 23.1071 6.01437L25.6487 4.68809L23.6535 6.58768C23.8237 6.78386 23.9839 6.98693 24.1334 7.1963L26.8497 6.31266L24.546 7.83761C24.601 7.93295 24.6538 8.02936 24.7045 8.12678H22.7396C21.3855 6.24978 18.9106 4.99315 16.0818 4.99315C13.2531 4.99315 10.7782 6.24978 9.42409 8.12678H7.55764ZM10.5597 8.12678C11.8426 6.80359 13.857 5.95103 16.122 5.95103C18.3871 5.95103 20.4015 6.80359 21.6844 8.12678H10.5597ZM27.5488 8.12678H27.6517L27.7066 8.1026L27.5488 8.12678ZM28.2816 11.9437L28.2896 11.945L28.2816 11.9457V11.9437Z" fill="#E11C1B"/>
</g>
</g>
<defs>
<clipPath id="clip0_30_18063">
<rect width="32" height="24" fill="white"/>
</clipPath>
</defs>
</svg>
