<svg width="32" height="24" viewBox="0 0 32 24" fill="none" xmlns="http://www.w3.org/2000/svg">
<g clip-path="url(#clip0_30_18041)">
<rect width="32" height="24" fill="white"/>
<path fill-rule="evenodd" clip-rule="evenodd" d="M22 0H32V24H22V0Z" fill="#D9071E"/>
<path fill-rule="evenodd" clip-rule="evenodd" d="M0 0H12V24H0V0Z" fill="#006923"/>
<path fill-rule="evenodd" clip-rule="evenodd" d="M10 0H22V24H10V0Z" fill="white"/>
<path fill-rule="evenodd" clip-rule="evenodd" d="M13.0556 8.34179C12.9493 8.79695 13.0185 8.90439 13.5324 8.90439C13.5591 8.90439 13.6014 8.97982 13.6475 9.06188C13.698 9.1519 13.753 9.24989 13.7968 9.26503C13.778 9.28986 13.5826 9.643 13.5817 10.265C13.5815 10.3931 13.6411 10.6042 13.6983 10.8069C13.7606 11.0275 13.8201 11.2381 13.7968 11.3213C13.7589 11.4569 13.589 11.3092 13.4574 11.1948C13.3821 11.1293 13.3193 11.0747 13.3009 11.0902C13.2069 11.1693 13.1584 10.5432 13.1291 10.1649C13.116 9.99641 13.1068 9.87709 13.099 9.89102C13.0662 9.81867 13.0528 9.72978 13.0395 9.64196C13.0108 9.45098 12.9827 9.26503 12.7574 9.26503H12.1773V9.69213C12.1773 9.69213 12.5129 9.69213 12.5129 10.4867C12.5185 10.6055 12.6751 11.6503 13.0556 11.6557C12.8326 11.6607 12.8343 11.7052 12.8353 11.7312L12.8354 11.7359C12.8354 12.3751 13.3696 12.4442 13.8688 12.2637C14.1689 12.1553 14.4874 11.9436 14.726 11.6826C15.0626 11.3144 15.1042 10.8376 14.6622 10.5762C14.5048 10.4831 14.3341 10.4471 14.0952 10.4338C14.1425 10.2937 14.0978 10.1685 14.0629 10.0709C14.0337 9.98921 14.0115 9.92681 14.0556 9.89102C14.5561 9.485 14.6008 9.11078 14.2365 8.77511C14.1893 8.73156 14.1436 8.67252 14.0965 8.61175L14.0965 8.61175C14.0077 8.49719 13.9142 8.37648 13.7968 8.34179C13.851 8.23227 13.9242 8.09958 14.016 7.94671L13.1586 7.43195C13.0032 7.69081 13.0292 7.89328 13.0518 8.06973C13.0643 8.16658 13.0757 8.2556 13.0556 8.34179ZM13.9879 11.0079L13.9723 11.0246L13.9829 11.015C13.9845 11.0122 13.9862 11.0098 13.9879 11.0079ZM13.5342 11.3213C13.534 11.3214 13.5346 11.3213 13.5357 11.3211L13.5359 11.321L13.5454 11.3192C13.5415 11.3198 13.5379 11.3206 13.5359 11.321L13.5342 11.3213ZM13.099 11.6552C13.0873 11.6552 13.0761 11.6553 13.0654 11.6555L13.0838 11.6551L13.099 11.6552Z" fill="#A8AC71"/>
<path fill-rule="evenodd" clip-rule="evenodd" d="M14.3841 7.91339C14.3841 7.91339 13.6973 8.44605 13.8258 9.01393C13.9542 9.58181 15.3077 9.01393 15.1441 8.46366C14.9805 7.91339 14.3841 7.91339 14.3841 7.91339Z" fill="#FCCA3D"/>
<path fill-rule="evenodd" clip-rule="evenodd" d="M19.2665 12.4029C19.2665 12.4029 20.1915 9.66155 18.7211 8.24251C17.2507 6.82347 15.5516 6.91843 15.5516 6.91843C15.5516 6.91843 15.0623 7.28197 15.5516 7.55923C16.0409 7.83649 15.8359 8.10233 15.8359 8.10233C15.8359 8.10233 15.0165 7.27029 14.4725 7.7564C13.9285 8.24251 14.9803 8.16853 14.869 8.53455C14.7576 8.90057 14.2859 10.5256 14.9752 11.3461C15.6645 12.1665 14.3235 11.9885 14.5963 11.9885C14.869 11.9885 15.8359 12.1794 15.8359 11.9885C15.8359 11.7975 16.1721 12.7309 16.4598 12.7309C16.7475 12.7309 16.9695 12.4029 16.9695 12.4029C16.9695 12.4029 17.3728 12.7309 17.6185 12.7309C17.8643 12.7309 18.7211 12.5163 18.7211 12.5163L17.1016 11.1517C17.1016 11.1517 17.1993 10.5499 16.9695 10.4196C16.7398 10.2893 18.8113 11.574 18.9735 11.9885C19.1357 12.4029 19.2665 12.4029 19.2665 12.4029Z" fill="#8F4620"/>
<path d="M11.0665 11.7266C11.0665 11.7266 11.2166 11.248 11.3774 11.2148C11.5166 11.186 11.8095 11.4441 11.8095 11.4441C12.3297 14.334 13.5877 15.4627 15.6749 15.4627C17.7867 15.4627 19.0667 14.605 19.8136 11.9398C19.8136 11.9398 20.2106 11.5343 20.3507 11.5794C20.5033 11.6284 20.6944 12.1649 20.6944 12.1649C19.8375 15.2225 18.2186 16.5839 15.6749 16.5839C13.1067 16.5839 11.6638 15.0448 11.0665 11.7266Z" fill="#9FAB2F"/>
<path fill-rule="evenodd" clip-rule="evenodd" d="M13.3342 13.6564C13.3342 13.6564 16.3386 14.2938 17.5244 14.2938C18.7102 14.2938 16.4839 15.2616 15.6153 15.2616C15.2353 15.2616 14.7773 15.0312 14.2412 14.5705C14.1452 14.488 14.2382 14.3032 13.9455 14.3007C13.5375 14.2971 13.0305 14.2014 13.079 14.1431C13.1251 14.0876 13.7189 14.0708 13.6616 14.0102C13.5672 13.9101 13.3342 13.6564 13.3342 13.6564Z" fill="#2FC2DC"/>
<rect x="14.6667" y="14.1" width="2" height="1.07143" rx="0.166667" fill="#F9AA51"/>
<path d="M12.1755 12.1359C12.1755 12.1359 12.1755 11.7608 12.4295 11.5615C12.7207 11.3331 12.9942 11.5615 12.9942 11.5615C14.0596 13.0802 15.6529 13.5798 17.8813 13.0583C17.8813 13.0583 18.5476 13.2761 18.5811 13.4191C18.6236 13.6006 18.1092 14.032 18.1092 14.032C15.5041 14.6416 13.4905 14.0102 12.1755 12.1359Z" fill="#259485"/>
<path fill-rule="evenodd" clip-rule="evenodd" d="M16.5913 12.3503C16.5913 12.3503 15.3777 12.9892 15.7822 12.9892C16.1868 12.9892 17.7701 13.3086 17.462 12.9892C17.1539 12.6697 16.5913 12.3503 16.5913 12.3503Z" fill="#FCCA3D"/>
<path fill-rule="evenodd" clip-rule="evenodd" d="M15.1564 11.5882C15.1564 11.5882 14.9258 10.9222 14.4459 10.9222C13.966 10.9222 14.1015 11.4686 13.8707 11.4686C13.6399 11.4686 14.0857 11.853 14.2844 11.853C14.4831 11.853 15.1564 11.5882 15.1564 11.5882Z" fill="#FCCA3D"/>
</g>
<defs>
<clipPath id="clip0_30_18041">
<rect width="32" height="24" fill="white"/>
</clipPath>
</defs>
</svg>
