<svg width="32" height="24" viewBox="0 0 32 24" fill="none" xmlns="http://www.w3.org/2000/svg">
<g clip-path="url(#clip0_30_18141)">
<rect width="32" height="24" fill="white"/>
<path fill-rule="evenodd" clip-rule="evenodd" d="M0 0V24H32V0H0Z" fill="#F50101"/>
<mask id="mask0_30_18141" style="mask-type:luminance" maskUnits="userSpaceOnUse" x="0" y="0" width="32" height="24">
<path fill-rule="evenodd" clip-rule="evenodd" d="M0 0V24H32V0H0Z" fill="white"/>
</mask>
<g mask="url(#mask0_30_18141)">
<path fill-rule="evenodd" clip-rule="evenodd" d="M0 0V8H32V0H0Z" fill="#F7FCFF"/>
<path fill-rule="evenodd" clip-rule="evenodd" d="M0 16V24H32V16H0Z" fill="#5EAA22"/>
<rect width="12" height="24" fill="#F50101"/>
<path fill-rule="evenodd" clip-rule="evenodd" d="M10.7704 2.0329C10.7798 1.94168 10.6632 1.90658 10.6166 1.98561C10.2538 2.60206 9.34418 4.0685 7.84692 5.98619V5.0685C7.70411 4.91329 7.24879 4.4957 7.24879 4.4957V3.57938L8.07248 2.834L6.94121 2.00004L5.74887 2.834L6.65012 3.57938V4.4957C6.65012 4.9351 6.10372 5.0685 6.10372 5.0685L6.00368 5.87679C4.61074 4.068 3.74228 2.65766 3.37452 2.02729C3.32706 1.94594 3.20767 1.98426 3.2217 2.0774C3.33271 2.81455 3.66469 4.45016 4.58178 6.19649H4.33582V6.16397C4.33582 6.11595 4.29689 6.07702 4.24887 6.07702H2.14017C2.09214 6.07702 2.05321 6.11595 2.05321 6.16397V7.49006C2.05321 7.53809 2.09214 7.57702 2.14017 7.57702H4.24887C4.29689 7.57702 4.33582 7.53809 4.33582 7.49006V6.79386H4.60139C4.69146 7.00156 4.89831 7.14794 5.14023 7.15219C5.30921 7.41291 5.49248 7.67294 5.69121 7.9297C5.23407 7.88449 2.2127 7.62725 2.2127 8.72644C2.2127 9.38254 2.94759 9.72983 3.86922 9.90934C2.94123 10.7497 2.06532 11.5404 1.66231 11.904C1.59692 11.963 1.64803 12.0651 1.73352 12.044C2.4532 11.8656 4.33965 11.3153 6.13549 10.0902L6.19142 10.0903C6.69718 10.0903 7.04895 9.87088 7.29343 9.57391C9.11996 11.0648 11.1864 11.7534 12.0834 12.0001C12.1764 12.0257 12.2267 11.9053 12.1474 11.8502C11.4189 11.3445 9.77598 10.1274 8.0961 8.3596L8.14017 8.308C8.4829 7.90354 8.78155 7.48751 9.04175 7.07036C9.15064 7.00669 9.23735 6.90984 9.28765 6.79386H9.55321L9.55321 7.49006C9.55321 7.53809 9.59214 7.57702 9.64017 7.57702H11.7489C11.7969 7.57702 11.8358 7.53809 11.8358 7.49006V6.16397C11.8358 6.11595 11.7969 6.07702 11.7489 6.07702H9.64017C9.6179 6.07702 9.59759 6.08539 9.58221 6.09915C10.4445 4.35365 10.6977 2.73405 10.7704 2.0329ZM9.55321 6.19649L9.55321 6.16397L9.5535 6.15685L9.53355 6.19649H9.55321ZM5.64017 6.56089C5.64017 6.82812 5.42118 7.04476 5.15104 7.04476C4.8809 7.04476 4.66191 6.82812 4.66191 6.56089C4.66191 6.29365 4.8809 6.07702 5.15104 6.07702C5.42118 6.07702 5.64017 6.29365 5.64017 6.56089ZM8.24887 6.56089C8.24887 6.82812 8.46786 7.04476 8.738 7.04476C9.00813 7.04476 9.22713 6.82812 9.22713 6.56089C9.22713 6.29365 9.00813 6.07702 8.738 6.07702C8.46786 6.07702 8.24887 6.29365 8.24887 6.56089Z" fill="#F7FCFF"/>
</g>
</g>
<defs>
<clipPath id="clip0_30_18141">
<rect width="32" height="24" fill="white"/>
</clipPath>
</defs>
</svg>
