<svg width="32" height="24" viewBox="0 0 32 24" fill="none" xmlns="http://www.w3.org/2000/svg">
<g clip-path="url(#clip0_30_18042)">
<rect width="32" height="24" fill="white"/>
<path fill-rule="evenodd" clip-rule="evenodd" d="M8 0H25V24H8V0Z" fill="#F7FCFF"/>
<path fill-rule="evenodd" clip-rule="evenodd" d="M24 0H32V24H24V0Z" fill="#F50101"/>
<path fill-rule="evenodd" clip-rule="evenodd" d="M0 0H8V24H0V0Z" fill="#F50101"/>
<path d="M15.7413 8.74515L15.7748 9.10709C14.7764 9.20807 14.2369 8.72021 14.2369 7.70768C14.2369 6.70297 14.7647 6.16892 15.757 6.1626L15.7591 6.52623C14.9551 6.53135 14.5848 6.90614 14.5848 7.70768C14.5848 8.5014 14.9435 8.82584 15.7413 8.74515Z" fill="#A2BB6A"/>
<path d="M16.1835 8.74515L16.15 9.10709C17.1485 9.20807 17.6879 8.72021 17.6879 7.70768C17.6879 6.70297 17.1601 6.16892 16.1678 6.1626L16.1657 6.52623C16.9697 6.53135 17.34 6.90614 17.34 7.70768C17.34 8.5014 16.9813 8.82584 16.1835 8.74515Z" fill="#A2BB6A"/>
<path fill-rule="evenodd" clip-rule="evenodd" d="M15.1396 17.1229C14.8525 17.2257 12.9061 17.1229 12.9061 17.1229V17.665H14.1965C14.6271 17.665 14.7899 17.7421 14.9392 17.8128C15.0658 17.8727 15.1826 17.928 15.4447 17.928C15.955 17.928 15.9456 17.5484 15.9378 17.2324C15.9369 17.1948 15.936 17.158 15.936 17.1229C15.936 16.9886 15.957 16.9137 15.9733 16.8554C15.997 16.7706 16.0109 16.721 15.936 16.5751C15.8096 16.3288 14.6074 16.3617 14.6074 16.5751C14.6074 16.6757 14.7897 16.7804 14.9522 16.8737C15.1342 16.9783 15.2913 17.0685 15.1396 17.1229ZM16.8891 17.1229C17.1761 17.2257 19.1226 17.1229 19.1226 17.1229V17.665H17.8321C17.4016 17.665 17.2388 17.7421 17.0895 17.8128C16.9629 17.8727 16.846 17.928 16.584 17.928C16.0737 17.928 16.0831 17.5484 16.0909 17.2324C16.0918 17.1948 16.0927 17.158 16.0927 17.1229C16.0927 16.9886 16.0717 16.9137 16.0554 16.8554C16.0316 16.7706 16.0178 16.721 16.0927 16.5751C16.2191 16.3288 17.4212 16.3617 17.4212 16.5751C17.4212 16.6757 17.239 16.7804 17.0765 16.8737C16.8945 16.9783 16.7374 17.0685 16.8891 17.1229Z" fill="#E31D1C"/>
<path fill-rule="evenodd" clip-rule="evenodd" d="M16.407 17.1747C16.407 17.1747 17.926 17.0238 18.2695 16.476C18.613 15.9282 19.1853 14.9931 19.3865 14.7667C19.5877 14.5402 19.6007 15.09 19.6007 15.09C19.6007 15.09 19.9326 15.5609 19.9326 14.9588C19.9326 14.3568 19.6965 14.7774 19.3865 13.8716C19.0764 12.9658 18.902 12.0773 18.9892 11.9428C19.0764 11.8083 19.2829 12.0773 19.2829 11.9428C19.2829 11.8083 19.2829 11.5451 19.2829 11.5451L19.6007 11.9428L19.9326 11.8168C19.9326 11.8168 20.2059 12.402 20.3742 12.5832C20.5425 12.7644 20.641 12.3405 20.5918 11.9428C20.5425 11.5451 19.9326 11.5451 19.9326 11.5451C19.9326 11.5451 19.1526 11.1246 19.1526 10.9484C19.1526 10.7722 19.4898 10.8247 19.4898 10.8247L19.3865 10.2791C19.3865 10.2791 19.6652 10.6105 19.7989 10.4448C19.9326 10.2791 19.6007 9.98836 19.6007 9.98836H20.1299V9.73285L20.3742 9.8696L20.1299 9.31165C20.1299 9.31165 19.4133 9.41956 19.2829 9.31165C19.1526 9.20374 18.7422 8.78313 18.7422 8.78313V8.58346H18.5057L18.7422 8.18295V7.54518L19.6007 7.71633V7.24475C19.6007 7.24475 20.8093 7.83391 20.5918 8.30852C20.3742 8.78313 20.3742 9.31165 20.3742 9.31165V9.73285C20.3742 9.73285 20.4104 9.60391 20.5918 9.60391C20.7731 9.60391 20.9794 9.69761 20.9794 9.98836C20.9794 10.2791 21.3487 9.8696 21.3487 9.8696V11.0792C21.3487 11.0792 21.4355 11.21 21.6253 11.0792C21.8151 10.9484 21.7319 11.0504 21.1618 11.8168C20.5918 12.5832 20.7971 12.5853 20.9794 12.3975C21.1618 12.2097 21.9019 11.6759 21.6253 11.9428C21.3487 12.2097 21.3304 12.7689 21.6253 12.5832C21.9202 12.3975 21.8632 12.2654 21.8632 12.5832C21.8632 12.901 21.3442 13.9829 21.1618 14.1523C20.9794 14.3218 20.8093 14.426 20.5918 14.5963C20.3742 14.7667 20.1299 14.9679 20.1299 15.09C20.1299 15.2122 20.5918 14.9588 20.5918 14.9588L20.3742 15.7354H20.797C20.797 15.7354 20.4605 16.7666 19.7989 16.7666C19.1374 16.7666 18.6387 16.7666 18.5057 16.7666C18.3728 16.7666 17.7722 17.0499 17.7722 17.0499L17.3328 17.1747C17.3328 17.1747 18.0333 17.2416 18.2695 17.452C18.5057 17.6623 18.2695 17.809 18.2695 17.809C18.2695 17.809 17.6212 17.7447 17.1372 17.5983C16.6532 17.452 16.407 17.7293 16.407 17.452C16.407 17.1747 16.407 17.1747 16.407 17.1747Z" fill="#00A854"/>
<path fill-rule="evenodd" clip-rule="evenodd" d="M20.7826 8.90911C20.7826 9.00953 20.7047 9.09093 20.6087 9.09093C20.5126 9.09093 20.4348 9.00953 20.4348 8.90911C20.4348 8.8087 20.5126 8.72729 20.6087 8.72729C20.7047 8.72729 20.7826 8.8087 20.7826 8.90911ZM19.913 9.63639C19.913 9.7368 19.8352 9.8182 19.7391 9.8182C19.6431 9.8182 19.5652 9.7368 19.5652 9.63639C19.5652 9.53597 19.6431 9.45457 19.7391 9.45457C19.8352 9.45457 19.913 9.53597 19.913 9.63639ZM20.7826 9.45457C20.8787 9.45457 20.9565 9.37316 20.9565 9.27275C20.9565 9.17233 20.8787 9.09093 20.7826 9.09093C20.6866 9.09093 20.6087 9.17233 20.6087 9.27275C20.6087 9.37316 20.6866 9.45457 20.7826 9.45457ZM20.4348 12.1818C20.4348 12.2823 20.3569 12.3637 20.2609 12.3637C20.1648 12.3637 20.0869 12.2823 20.0869 12.1818C20.0869 12.0814 20.1648 12 20.2609 12C20.3569 12 20.4348 12.0814 20.4348 12.1818ZM19.5652 14.5455C19.6613 14.5455 19.7391 14.4641 19.7391 14.3637C19.7391 14.2632 19.6613 14.1818 19.5652 14.1818C19.4692 14.1818 19.3913 14.2632 19.3913 14.3637C19.3913 14.4641 19.4692 14.5455 19.5652 14.5455ZM20.9565 14.9091C20.9565 15.0095 20.8787 15.0909 20.7826 15.0909C20.6866 15.0909 20.6087 15.0095 20.6087 14.9091C20.6087 14.8087 20.6866 14.7273 20.7826 14.7273C20.8787 14.7273 20.9565 14.8087 20.9565 14.9091ZM21.1304 14.7273C21.2265 14.7273 21.3043 14.6459 21.3043 14.5455C21.3043 14.4451 21.2265 14.3637 21.1304 14.3637C21.0344 14.3637 20.9565 14.4451 20.9565 14.5455C20.9565 14.6459 21.0344 14.7273 21.1304 14.7273ZM21.1304 12C21.1304 12.1004 21.0526 12.1818 20.9565 12.1818C20.8605 12.1818 20.7826 12.1004 20.7826 12C20.7826 11.8996 20.8605 11.8182 20.9565 11.8182C21.0526 11.8182 21.1304 11.8996 21.1304 12Z" fill="#C51918"/>
<path fill-rule="evenodd" clip-rule="evenodd" d="M15.6855 16.8546C15.6855 16.8546 12.9219 16.3084 12.7707 15.2512C12.6196 14.1939 12.6217 13.0684 12.6217 13.0684L12.3654 13.7562C12.3654 13.7562 12.3525 12.8199 12.8781 12.152C13.4038 11.484 12.2211 12.5945 12.2211 12.5945C12.2211 12.5945 12.8199 11.6503 13.0692 11.5604C13.3186 11.4705 12.0675 12.152 12.0675 12.152C12.0675 12.152 12.4259 11.3596 12.7045 11.1355C12.9831 10.9114 12.0675 11.5604 12.0675 11.5604C12.0675 11.5604 12.2746 10.7745 12.5224 10.5871C12.7702 10.3996 11.7127 11.5604 11.7127 11.5604C11.7127 11.5604 12.2706 9.76474 12.5849 9.59716C12.8992 9.42958 12.0675 9.92639 12.0675 9.92639C12.0675 9.92639 12.5769 9.1584 13.0333 8.77662C13.4896 8.39483 12.2085 8.93942 12.3654 8.93942C12.3654 8.93942 12.8287 8.41625 13.0949 8.26858C13.361 8.12091 12.0675 8.77662 12.0675 8.77662C12.0675 8.77662 12.996 7.75195 13.2744 7.6011C13.5527 7.45024 11.9079 8.41483 11.9079 8.41483C11.9079 8.41483 12.004 7.96802 12.0455 7.6487C12.0869 7.32938 11.2834 8.52383 11.3925 9.59716C11.5016 10.6705 10.9554 8.77662 10.9554 8.77662C10.9554 8.77662 10.7356 9.18777 11.2696 10.2647L10.6908 9.45365C10.6908 9.45365 10.77 10.1897 10.9554 10.5871C11.1408 10.9844 10.4291 9.92639 10.4291 9.92639C10.4291 9.92639 10.2929 10.5871 10.4291 10.5871C10.4291 10.5871 11.2418 11.6729 11.2719 11.9894C11.3021 12.306 10.3592 10.8591 10.233 10.8591C10.1068 10.8591 10.0369 11.3238 10.233 11.3238C10.4291 11.3238 10.8005 11.9894 10.8005 11.9894C10.8005 11.9894 10.3178 11.6406 10.2143 11.6199C10.1108 11.5993 10.2955 11.8269 10.4291 11.9894C10.4291 11.9894 10.0515 12.2973 10.0802 12.5306C10.1088 12.7638 11.1094 12.8132 11.5454 13.9204C11.5454 13.9204 10.6439 13.4437 10.4291 13.4437C10.2143 13.4437 10.775 13.9414 10.9554 14.1057C11.1358 14.27 10.6774 13.9414 10.5532 14.1057C10.4291 14.27 11.2397 14.9718 11.3925 14.9718C11.5454 14.9718 10.8005 14.9718 10.8005 14.9718C10.8005 14.9718 10.9985 15.2512 11.2719 15.2512C11.5454 15.2512 12.5224 15.6903 12.5224 15.8326C12.5224 15.9748 11.6982 15.6505 11.5454 15.6505C11.3925 15.6505 12.6215 16.8103 13.2744 16.8546C13.9273 16.8988 14.3399 17.0741 14.6214 17.0741C14.9029 17.0741 15.1007 17.0741 15.1007 17.0741L13.7709 17.7517C13.7709 17.7517 13.6366 17.7517 14.2135 17.7517C14.7905 17.7517 15.2317 17.912 15.4586 17.5805C15.6855 17.2491 15.6855 16.8546 15.6855 16.8546Z" fill="#00A854"/>
<mask id="path-10-outside-1_30_18042" maskUnits="userSpaceOnUse" x="11.1769" y="6.88147" width="9" height="11" fill="black">
<rect fill="white" x="11.1769" y="6.88147" width="9" height="11"/>
<path fill-rule="evenodd" clip-rule="evenodd" d="M16.0867 8.90541C16.1134 8.89033 16.1282 8.88147 16.1282 8.88147V8.9286C16.3207 9.03481 16.8055 9.28369 17.1207 9.28369C17.5213 9.28369 18.066 8.88147 18.066 8.88147L18.9773 10.1682C18.9773 10.1682 18.3635 11.4545 18.8331 13.0263C19.3027 14.5981 18.8083 15.8101 16.72 15.9447C16.72 15.9447 16.3085 16.0229 16.1282 16.1475V16.2626C16.1282 16.2339 16.1128 16.2067 16.0867 16.1811C16.0606 16.2067 16.0453 16.2339 16.0453 16.2626V16.1475C15.865 16.0229 15.4535 15.9447 15.4535 15.9447C13.3652 15.8101 12.8707 14.5981 13.3403 13.0263C13.8099 11.4545 13.1962 10.1682 13.1962 10.1682L14.1075 8.88147C14.1075 8.88147 14.6521 9.28369 15.0528 9.28369C15.368 9.28369 15.8527 9.03481 16.0453 8.9286V8.88147C16.0453 8.88147 16.0601 8.89033 16.0867 8.90541Z"/>
</mask>
<path fill-rule="evenodd" clip-rule="evenodd" d="M16.0867 8.90541C16.1134 8.89033 16.1282 8.88147 16.1282 8.88147V8.9286C16.3207 9.03481 16.8055 9.28369 17.1207 9.28369C17.5213 9.28369 18.066 8.88147 18.066 8.88147L18.9773 10.1682C18.9773 10.1682 18.3635 11.4545 18.8331 13.0263C19.3027 14.5981 18.8083 15.8101 16.72 15.9447C16.72 15.9447 16.3085 16.0229 16.1282 16.1475V16.2626C16.1282 16.2339 16.1128 16.2067 16.0867 16.1811C16.0606 16.2067 16.0453 16.2339 16.0453 16.2626V16.1475C15.865 16.0229 15.4535 15.9447 15.4535 15.9447C13.3652 15.8101 12.8707 14.5981 13.3403 13.0263C13.8099 11.4545 13.1962 10.1682 13.1962 10.1682L14.1075 8.88147C14.1075 8.88147 14.6521 9.28369 15.0528 9.28369C15.368 9.28369 15.8527 9.03481 16.0453 8.9286V8.88147C16.0453 8.88147 16.0601 8.89033 16.0867 8.90541Z" fill="#E8AA00"/>
<path d="M16.1282 8.88147H17.1282V7.12111L15.6162 8.02252L16.1282 8.88147ZM16.0867 8.90541L15.5936 9.77538L16.0867 10.0549L16.5799 9.77538L16.0867 8.90541ZM16.1282 8.9286H15.1282V9.51898L15.6451 9.80418L16.1282 8.9286ZM18.066 8.88147L18.882 8.30351L18.2925 7.47105L17.4719 8.07706L18.066 8.88147ZM18.9773 10.1682L19.8798 10.5988L20.1325 10.0692L19.7933 9.59025L18.9773 10.1682ZM18.8331 13.0263L17.875 13.3126L17.875 13.3126L18.8331 13.0263ZM16.72 15.9447L16.6557 14.9467L16.594 14.9507L16.5333 14.9622L16.72 15.9447ZM16.1282 16.1475L15.5596 15.3248L15.1282 15.623V16.1475H16.1282ZM16.0867 16.1811L16.787 15.4672L16.0867 14.7804L15.3865 15.4672L16.0867 16.1811ZM16.0453 16.1475H17.0453V15.623L16.6138 15.3248L16.0453 16.1475ZM15.4535 15.9447L15.6402 14.9622L15.5795 14.9507L15.5178 14.9467L15.4535 15.9447ZM13.1962 10.1682L12.3802 9.59025L12.041 10.0692L12.2937 10.5988L13.1962 10.1682ZM14.1075 8.88147L14.7016 8.07706L13.881 7.47105L13.2914 8.30351L14.1075 8.88147ZM16.0453 8.9286L16.5283 9.80418L17.0453 9.51898V8.9286H16.0453ZM16.0453 8.88147L16.5573 8.02252L15.0453 7.12111V8.88147H16.0453ZM16.1282 8.88147C15.6162 8.02252 15.6162 8.02251 15.6162 8.0225C15.6162 8.0225 15.6162 8.02249 15.6162 8.02248C15.6162 8.02247 15.6163 8.02246 15.6163 8.02244C15.6163 8.02242 15.6164 8.02239 15.6164 8.02237C15.6165 8.02232 15.6166 8.02228 15.6166 8.02223C15.6168 8.02215 15.6169 8.02207 15.617 8.022C15.6173 8.02186 15.6174 8.02175 15.6176 8.02167C15.6178 8.02152 15.6179 8.0215 15.6177 8.0216C15.6174 8.02179 15.6162 8.02248 15.6143 8.02361C15.6104 8.02589 15.6034 8.02994 15.5936 8.03545L16.5799 9.77538C16.5967 9.7658 16.6105 9.75788 16.6207 9.75196C16.6257 9.74899 16.63 9.74652 16.6332 9.74458C16.6349 9.74362 16.6363 9.74278 16.6375 9.74209C16.6381 9.74174 16.6386 9.74142 16.6391 9.74115C16.6393 9.74101 16.6395 9.74088 16.6397 9.74076C16.6398 9.7407 16.6399 9.74064 16.64 9.74058C16.64 9.74055 16.6401 9.74053 16.6401 9.7405C16.6402 9.74049 16.6402 9.74047 16.6402 9.74046C16.6402 9.74045 16.6402 9.74044 16.6402 9.74044C16.6403 9.74043 16.6403 9.74042 16.1282 8.88147ZM17.1282 8.9286V8.88147H15.1282V8.9286H17.1282ZM15.6451 9.80418C15.7586 9.86679 15.9654 9.97569 16.2 10.0716C16.4027 10.1545 16.756 10.2837 17.1207 10.2837V8.28369C17.1625 8.28369 17.1667 8.29021 17.1198 8.27757C17.079 8.26657 17.0238 8.24772 16.9569 8.22036C16.8222 8.16527 16.6903 8.09662 16.6113 8.05301L15.6451 9.80418ZM17.1207 10.2837C17.5885 10.2837 18.0148 10.0726 18.2187 9.96252C18.3434 9.89516 18.4494 9.82898 18.5242 9.77975C18.5621 9.75482 18.5932 9.73343 18.6162 9.71735C18.6276 9.70929 18.6372 9.7025 18.6445 9.6972C18.6482 9.69454 18.6513 9.69226 18.6539 9.69036C18.6552 9.68942 18.6564 9.68857 18.6574 9.68782C18.6579 9.68744 18.6584 9.6871 18.6588 9.68677C18.659 9.68661 18.6593 9.68646 18.6595 9.68631C18.6596 9.68623 18.6597 9.68612 18.6598 9.68609C18.6599 9.68598 18.66 9.68588 18.066 8.88147C17.4719 8.07706 17.472 8.07696 17.4722 8.07686C17.4722 8.07683 17.4723 8.07673 17.4724 8.07667C17.4726 8.07655 17.4727 8.07643 17.4729 8.07631C17.4732 8.07609 17.4735 8.07588 17.4737 8.0757C17.4742 8.07534 17.4746 8.07507 17.4749 8.07488C17.4754 8.07451 17.4754 8.07449 17.475 8.07478C17.4742 8.07537 17.4716 8.07722 17.4674 8.08016C17.459 8.08607 17.4444 8.09611 17.425 8.10889C17.3852 8.13507 17.33 8.16944 17.2685 8.20264C17.205 8.23691 17.149 8.26227 17.1061 8.2773C17.0561 8.29487 17.0656 8.28369 17.1207 8.28369V10.2837ZM17.2499 9.45942L18.1612 10.7462L19.7933 9.59025L18.882 8.30351L17.2499 9.45942ZM18.9773 10.1682C18.0747 9.73759 18.0746 9.73793 18.0744 9.73828C18.0743 9.73841 18.0742 9.73876 18.074 9.73901C18.0738 9.73951 18.0736 9.74002 18.0733 9.74056C18.0728 9.74163 18.0723 9.74279 18.0717 9.74403C18.0705 9.7465 18.0692 9.74931 18.0678 9.75245C18.0649 9.75871 18.0614 9.76629 18.0575 9.77513C18.0495 9.79283 18.0396 9.81566 18.0281 9.84337C18.0052 9.89874 17.9758 9.97394 17.9436 10.0669C17.8795 10.2523 17.8032 10.5116 17.7454 10.828C17.6301 11.4585 17.584 12.3387 17.875 13.3126L19.7913 12.74C19.6126 12.1421 19.6386 11.5933 19.7128 11.1877C19.7497 10.986 19.7975 10.8255 19.8338 10.7206C19.8518 10.6684 19.8667 10.6308 19.8755 10.6097C19.8798 10.5992 19.8826 10.5929 19.8835 10.5909C19.8839 10.59 19.8839 10.5901 19.8833 10.5914C19.883 10.5921 19.8825 10.593 19.882 10.5943C19.8817 10.5949 19.8813 10.5956 19.881 10.5963C19.8808 10.5967 19.8806 10.5971 19.8804 10.5975C19.8803 10.5977 19.8802 10.5981 19.8801 10.5982C19.8799 10.5985 19.8798 10.5988 18.9773 10.1682ZM17.875 13.3126C18.0725 13.9738 17.9937 14.3267 17.8902 14.4906C17.8039 14.6273 17.5346 14.8901 16.6557 14.9467L16.7843 16.9426C17.9936 16.8647 19.0157 16.4542 19.5813 15.5583C20.1298 14.6896 20.0633 13.6507 19.7913 12.74L17.875 13.3126ZM16.72 15.9447C16.5333 14.9622 16.5332 14.9623 16.5331 14.9623C16.533 14.9623 16.5329 14.9623 16.5329 14.9623C16.5327 14.9624 16.5326 14.9624 16.5324 14.9624C16.5321 14.9625 16.5317 14.9625 16.5313 14.9626C16.5306 14.9628 16.5297 14.9629 16.5288 14.9631C16.5269 14.9635 16.5245 14.9639 16.5218 14.9645C16.5164 14.9656 16.5093 14.967 16.5009 14.9687C16.4841 14.9721 16.4614 14.9769 16.4342 14.983C16.3805 14.9951 16.3057 15.0129 16.222 15.0364C16.0966 15.0715 15.8012 15.1578 15.5596 15.3248L16.6968 16.9701C16.6492 17.003 16.6264 17.0079 16.6591 16.9953C16.6829 16.986 16.7181 16.9744 16.7614 16.9623C16.8031 16.9506 16.8425 16.9411 16.8716 16.9346C16.8857 16.9314 16.8966 16.9292 16.903 16.9279C16.9061 16.9272 16.9081 16.9268 16.9088 16.9267C16.9091 16.9266 16.9091 16.9266 16.9088 16.9267C16.9086 16.9267 16.9083 16.9268 16.908 16.9268C16.9078 16.9269 16.9076 16.9269 16.9074 16.927C16.9073 16.927 16.9072 16.927 16.907 16.927C16.907 16.927 16.9069 16.927 16.9068 16.9271C16.9067 16.9271 16.9066 16.9271 16.72 15.9447ZM17.1282 16.2626V16.1475H15.1282V16.2626H17.1282ZM15.3865 16.895C15.3165 16.8264 15.1282 16.6121 15.1282 16.2626H17.1282C17.1282 15.8558 16.9091 15.587 16.787 15.4672L15.3865 16.895ZM15.3865 15.4672C15.2643 15.587 15.0453 15.8558 15.0453 16.2626H17.0453C17.0453 16.6121 16.8569 16.8264 16.787 16.895L15.3865 15.4672ZM17.0453 16.2626V16.1475H15.0453V16.2626H17.0453ZM15.4535 15.9447C15.2668 16.9271 15.2667 16.9271 15.2666 16.9271C15.2666 16.927 15.2665 16.927 15.2664 16.927C15.2663 16.927 15.2662 16.927 15.2661 16.927C15.2659 16.9269 15.2657 16.9269 15.2655 16.9268C15.2651 16.9268 15.2649 16.9267 15.2647 16.9267C15.2643 16.9266 15.2643 16.9266 15.2647 16.9267C15.2653 16.9268 15.2673 16.9272 15.2705 16.9279C15.2769 16.9292 15.2877 16.9314 15.3019 16.9346C15.331 16.9411 15.3704 16.9506 15.4121 16.9623C15.4554 16.9744 15.4906 16.986 15.5144 16.9953C15.547 17.0079 15.5243 17.003 15.4767 16.9701L16.6138 15.3248C16.3722 15.1578 16.0769 15.0715 15.9515 15.0364C15.8677 15.0129 15.793 14.9951 15.7393 14.983C15.7121 14.9769 15.6894 14.9721 15.6726 14.9687C15.6641 14.967 15.6571 14.9656 15.6517 14.9645C15.649 14.9639 15.6466 14.9635 15.6447 14.9631C15.6437 14.9629 15.6429 14.9628 15.6421 14.9626C15.6418 14.9625 15.6414 14.9625 15.6411 14.9624C15.6409 14.9624 15.6408 14.9624 15.6406 14.9623C15.6405 14.9623 15.6404 14.9623 15.6404 14.9623C15.6403 14.9623 15.6402 14.9622 15.4535 15.9447ZM12.3822 12.74C12.1101 13.6507 12.0437 14.6896 12.5921 15.5583C13.1577 16.4542 14.1799 16.8647 15.3892 16.9426L15.5178 14.9467C14.6388 14.8901 14.3696 14.6273 14.2833 14.4906C14.1798 14.3267 14.101 13.9738 14.2985 13.3126L12.3822 12.74ZM13.1962 10.1682C12.2937 10.5988 12.2935 10.5985 12.2934 10.5982C12.2933 10.5981 12.2932 10.5977 12.2931 10.5975C12.2929 10.5971 12.2927 10.5967 12.2925 10.5963C12.2921 10.5956 12.2918 10.5949 12.2915 10.5943C12.291 10.593 12.2905 10.5921 12.2902 10.5914C12.2896 10.5901 12.2895 10.59 12.29 10.5909C12.2908 10.5929 12.2936 10.5992 12.298 10.6097C12.3068 10.6308 12.3217 10.6684 12.3397 10.7206C12.376 10.8255 12.4238 10.986 12.4607 11.1877C12.5349 11.5933 12.5608 12.1421 12.3822 12.74L14.2985 13.3126C14.5895 12.3387 14.5434 11.4585 14.4281 10.828C14.3702 10.5116 14.294 10.2523 14.2299 10.0669C14.1977 9.97394 14.1683 9.89874 14.1454 9.84337C14.1339 9.81566 14.1239 9.79283 14.116 9.77513C14.1121 9.76629 14.1086 9.75871 14.1057 9.75245C14.1043 9.74931 14.103 9.7465 14.1018 9.74403C14.1012 9.74279 14.1007 9.74163 14.1002 9.74056C14.0999 9.74002 14.0997 9.73951 14.0994 9.73901C14.0993 9.73876 14.0991 9.73841 14.0991 9.73828C14.0989 9.73793 14.0988 9.73759 13.1962 10.1682ZM13.2914 8.30351L12.3802 9.59025L14.0123 10.7462L14.9236 9.45942L13.2914 8.30351ZM15.0528 8.28369C15.1078 8.28369 15.1174 8.29487 15.0673 8.2773C15.0245 8.26227 14.9685 8.23691 14.905 8.20264C14.8435 8.16944 14.7883 8.13507 14.7485 8.10889C14.729 8.09611 14.7145 8.08607 14.7061 8.08016C14.7019 8.07722 14.6993 8.07537 14.6985 8.07478C14.6981 8.07449 14.6981 8.07451 14.6986 8.07488C14.6989 8.07507 14.6993 8.07534 14.6997 8.0757C14.7 8.07588 14.7003 8.07609 14.7006 8.07631C14.7007 8.07643 14.7009 8.07655 14.7011 8.07667C14.7011 8.07673 14.7013 8.07683 14.7013 8.07686C14.7015 8.07696 14.7016 8.07706 14.1075 8.88147C13.5134 9.68588 13.5136 9.68598 13.5137 9.68609C13.5138 9.68612 13.5139 9.68623 13.514 9.68631C13.5142 9.68646 13.5144 9.68661 13.5146 9.68677C13.5151 9.6871 13.5156 9.68744 13.5161 9.68782C13.5171 9.68857 13.5183 9.68942 13.5195 9.69036C13.5221 9.69226 13.5253 9.69454 13.529 9.6972C13.5363 9.7025 13.5458 9.70929 13.5573 9.71735C13.5803 9.73343 13.6114 9.75482 13.6493 9.77975C13.7241 9.82898 13.8301 9.89516 13.9548 9.96252C14.1587 10.0726 14.5849 10.2837 15.0528 10.2837V8.28369ZM15.5622 8.05301C15.4832 8.09662 15.3513 8.16527 15.2166 8.22036C15.1497 8.24772 15.0945 8.26657 15.0537 8.27757C15.0068 8.29021 15.011 8.28369 15.0528 8.28369V10.2837C15.4175 10.2837 15.7708 10.1545 15.9735 10.0716C16.2081 9.97569 16.4149 9.86679 16.5283 9.80418L15.5622 8.05301ZM17.0453 8.9286V8.88147H15.0453V8.9286H17.0453ZM16.0453 8.88147C15.5332 9.74042 15.5332 9.74043 15.5332 9.74044C15.5332 9.74044 15.5333 9.74045 15.5333 9.74046C15.5333 9.74047 15.5333 9.74049 15.5333 9.7405C15.5334 9.74053 15.5334 9.74055 15.5335 9.74058C15.5336 9.74064 15.5337 9.7407 15.5338 9.74076C15.534 9.74088 15.5342 9.74101 15.5344 9.74115C15.5349 9.74142 15.5354 9.74174 15.536 9.74209C15.5372 9.74278 15.5386 9.74362 15.5402 9.74458C15.5435 9.74652 15.5477 9.74899 15.5528 9.75196C15.563 9.75788 15.5767 9.7658 15.5936 9.77538L16.5799 8.03545C16.5701 8.02994 16.5631 8.02589 16.5592 8.02361C16.5573 8.02248 16.5561 8.02179 16.5558 8.0216C16.5556 8.0215 16.5556 8.02152 16.5559 8.02167C16.556 8.02175 16.5562 8.02186 16.5565 8.022C16.5566 8.02207 16.5567 8.02215 16.5568 8.02223C16.5569 8.02228 16.557 8.02232 16.5571 8.02237C16.5571 8.02239 16.5572 8.02242 16.5572 8.02244C16.5572 8.02246 16.5572 8.02247 16.5573 8.02248C16.5573 8.02249 16.5573 8.0225 16.5573 8.0225C16.5573 8.02251 16.5573 8.02252 16.0453 8.88147Z" fill="#E8AA00" mask="url(#path-10-outside-1_30_18042)"/>
<mask id="mask0_30_18042" style="mask-type:luminance" maskUnits="userSpaceOnUse" x="12" y="7" width="9" height="11">
<mask id="path-12-outside-2_30_18042" maskUnits="userSpaceOnUse" x="11.1769" y="6.88147" width="9" height="11" fill="black">
<rect fill="white" x="11.1769" y="6.88147" width="9" height="11"/>
<path fill-rule="evenodd" clip-rule="evenodd" d="M16.0867 8.90541C16.1134 8.89033 16.1282 8.88147 16.1282 8.88147V8.9286C16.3207 9.03481 16.8055 9.28369 17.1207 9.28369C17.5213 9.28369 18.066 8.88147 18.066 8.88147L18.9773 10.1682C18.9773 10.1682 18.3635 11.4545 18.8331 13.0263C19.3027 14.5981 18.8083 15.8101 16.72 15.9447C16.72 15.9447 16.3085 16.0229 16.1282 16.1475V16.2626C16.1282 16.2339 16.1128 16.2067 16.0867 16.1811C16.0606 16.2067 16.0453 16.2339 16.0453 16.2626V16.1475C15.865 16.0229 15.4535 15.9447 15.4535 15.9447C13.3652 15.8101 12.8707 14.5981 13.3403 13.0263C13.8099 11.4545 13.1962 10.1682 13.1962 10.1682L14.1075 8.88147C14.1075 8.88147 14.6521 9.28369 15.0528 9.28369C15.368 9.28369 15.8527 9.03481 16.0453 8.9286V8.88147C16.0453 8.88147 16.0601 8.89033 16.0867 8.90541Z"/>
</mask>
<path fill-rule="evenodd" clip-rule="evenodd" d="M16.0867 8.90541C16.1134 8.89033 16.1282 8.88147 16.1282 8.88147V8.9286C16.3207 9.03481 16.8055 9.28369 17.1207 9.28369C17.5213 9.28369 18.066 8.88147 18.066 8.88147L18.9773 10.1682C18.9773 10.1682 18.3635 11.4545 18.8331 13.0263C19.3027 14.5981 18.8083 15.8101 16.72 15.9447C16.72 15.9447 16.3085 16.0229 16.1282 16.1475V16.2626C16.1282 16.2339 16.1128 16.2067 16.0867 16.1811C16.0606 16.2067 16.0453 16.2339 16.0453 16.2626V16.1475C15.865 16.0229 15.4535 15.9447 15.4535 15.9447C13.3652 15.8101 12.8707 14.5981 13.3403 13.0263C13.8099 11.4545 13.1962 10.1682 13.1962 10.1682L14.1075 8.88147C14.1075 8.88147 14.6521 9.28369 15.0528 9.28369C15.368 9.28369 15.8527 9.03481 16.0453 8.9286V8.88147C16.0453 8.88147 16.0601 8.89033 16.0867 8.90541Z" fill="white"/>
<path d="M16.1282 8.88147H17.1282V7.12111L15.6162 8.02252L16.1282 8.88147ZM16.0867 8.90541L15.5936 9.77538L16.0867 10.0549L16.5799 9.77538L16.0867 8.90541ZM16.1282 8.9286H15.1282V9.51898L15.6451 9.80418L16.1282 8.9286ZM18.066 8.88147L18.882 8.30351L18.2925 7.47105L17.4719 8.07706L18.066 8.88147ZM18.9773 10.1682L19.8798 10.5988L20.1325 10.0692L19.7933 9.59025L18.9773 10.1682ZM18.8331 13.0263L17.875 13.3126L17.875 13.3126L18.8331 13.0263ZM16.72 15.9447L16.6557 14.9467L16.594 14.9507L16.5333 14.9622L16.72 15.9447ZM16.1282 16.1475L15.5596 15.3248L15.1282 15.623V16.1475H16.1282ZM16.0867 16.1811L16.787 15.4672L16.0867 14.7804L15.3865 15.4672L16.0867 16.1811ZM16.0453 16.1475H17.0453V15.623L16.6138 15.3248L16.0453 16.1475ZM15.4535 15.9447L15.6402 14.9622L15.5795 14.9507L15.5178 14.9467L15.4535 15.9447ZM13.1962 10.1682L12.3802 9.59025L12.041 10.0692L12.2937 10.5988L13.1962 10.1682ZM14.1075 8.88147L14.7016 8.07706L13.881 7.47105L13.2914 8.30351L14.1075 8.88147ZM16.0453 8.9286L16.5283 9.80418L17.0453 9.51898V8.9286H16.0453ZM16.0453 8.88147L16.5573 8.02252L15.0453 7.12111V8.88147H16.0453ZM16.1282 8.88147C15.6162 8.02252 15.6162 8.02251 15.6162 8.0225C15.6162 8.0225 15.6162 8.02249 15.6162 8.02248C15.6162 8.02247 15.6163 8.02246 15.6163 8.02244C15.6163 8.02242 15.6164 8.02239 15.6164 8.02237C15.6165 8.02232 15.6166 8.02228 15.6166 8.02223C15.6168 8.02215 15.6169 8.02207 15.617 8.022C15.6173 8.02186 15.6174 8.02175 15.6176 8.02167C15.6178 8.02152 15.6179 8.0215 15.6177 8.0216C15.6174 8.02179 15.6162 8.02248 15.6143 8.02361C15.6104 8.02589 15.6034 8.02994 15.5936 8.03545L16.5799 9.77538C16.5967 9.7658 16.6105 9.75788 16.6207 9.75196C16.6257 9.74899 16.63 9.74652 16.6332 9.74458C16.6349 9.74362 16.6363 9.74278 16.6375 9.74209C16.6381 9.74174 16.6386 9.74142 16.6391 9.74115C16.6393 9.74101 16.6395 9.74088 16.6397 9.74076C16.6398 9.7407 16.6399 9.74064 16.64 9.74058C16.64 9.74055 16.6401 9.74053 16.6401 9.7405C16.6402 9.74049 16.6402 9.74047 16.6402 9.74046C16.6402 9.74045 16.6402 9.74044 16.6402 9.74044C16.6403 9.74043 16.6403 9.74042 16.1282 8.88147ZM17.1282 8.9286V8.88147H15.1282V8.9286H17.1282ZM15.6451 9.80418C15.7586 9.86679 15.9654 9.97569 16.2 10.0716C16.4027 10.1545 16.756 10.2837 17.1207 10.2837V8.28369C17.1625 8.28369 17.1667 8.29021 17.1198 8.27757C17.079 8.26657 17.0238 8.24772 16.9569 8.22036C16.8222 8.16527 16.6903 8.09662 16.6113 8.05301L15.6451 9.80418ZM17.1207 10.2837C17.5885 10.2837 18.0148 10.0726 18.2187 9.96252C18.3434 9.89516 18.4494 9.82898 18.5242 9.77975C18.5621 9.75482 18.5932 9.73343 18.6162 9.71735C18.6276 9.70929 18.6372 9.7025 18.6445 9.6972C18.6482 9.69454 18.6513 9.69226 18.6539 9.69036C18.6552 9.68942 18.6564 9.68857 18.6574 9.68782C18.6579 9.68744 18.6584 9.6871 18.6588 9.68677C18.659 9.68661 18.6593 9.68646 18.6595 9.68631C18.6596 9.68623 18.6597 9.68612 18.6598 9.68609C18.6599 9.68598 18.66 9.68588 18.066 8.88147C17.4719 8.07706 17.472 8.07696 17.4722 8.07686C17.4722 8.07683 17.4723 8.07673 17.4724 8.07667C17.4726 8.07655 17.4727 8.07643 17.4729 8.07631C17.4732 8.07609 17.4735 8.07588 17.4737 8.0757C17.4742 8.07534 17.4746 8.07507 17.4749 8.07488C17.4754 8.07451 17.4754 8.07449 17.475 8.07478C17.4742 8.07537 17.4716 8.07722 17.4674 8.08016C17.459 8.08607 17.4444 8.09611 17.425 8.10889C17.3852 8.13507 17.33 8.16944 17.2685 8.20264C17.205 8.23691 17.149 8.26227 17.1061 8.2773C17.0561 8.29487 17.0656 8.28369 17.1207 8.28369V10.2837ZM17.2499 9.45942L18.1612 10.7462L19.7933 9.59025L18.882 8.30351L17.2499 9.45942ZM18.9773 10.1682C18.0747 9.73759 18.0746 9.73793 18.0744 9.73828C18.0743 9.73841 18.0742 9.73876 18.074 9.73901C18.0738 9.73951 18.0736 9.74002 18.0733 9.74056C18.0728 9.74163 18.0723 9.74279 18.0717 9.74403C18.0705 9.7465 18.0692 9.74931 18.0678 9.75245C18.0649 9.75871 18.0614 9.76629 18.0575 9.77513C18.0495 9.79283 18.0396 9.81566 18.0281 9.84337C18.0052 9.89874 17.9758 9.97394 17.9436 10.0669C17.8795 10.2523 17.8032 10.5116 17.7454 10.828C17.6301 11.4585 17.584 12.3387 17.875 13.3126L19.7913 12.74C19.6126 12.1421 19.6386 11.5933 19.7128 11.1877C19.7497 10.986 19.7975 10.8255 19.8338 10.7206C19.8518 10.6684 19.8667 10.6308 19.8755 10.6097C19.8798 10.5992 19.8826 10.5929 19.8835 10.5909C19.8839 10.59 19.8839 10.5901 19.8833 10.5914C19.883 10.5921 19.8825 10.593 19.882 10.5943C19.8817 10.5949 19.8813 10.5956 19.881 10.5963C19.8808 10.5967 19.8806 10.5971 19.8804 10.5975C19.8803 10.5977 19.8802 10.5981 19.8801 10.5982C19.8799 10.5985 19.8798 10.5988 18.9773 10.1682ZM17.875 13.3126C18.0725 13.9738 17.9937 14.3267 17.8902 14.4906C17.8039 14.6273 17.5346 14.8901 16.6557 14.9467L16.7843 16.9426C17.9936 16.8647 19.0157 16.4542 19.5813 15.5583C20.1298 14.6896 20.0633 13.6507 19.7913 12.74L17.875 13.3126ZM16.72 15.9447C16.5333 14.9622 16.5332 14.9623 16.5331 14.9623C16.533 14.9623 16.5329 14.9623 16.5329 14.9623C16.5327 14.9624 16.5326 14.9624 16.5324 14.9624C16.5321 14.9625 16.5317 14.9625 16.5313 14.9626C16.5306 14.9628 16.5297 14.9629 16.5288 14.9631C16.5269 14.9635 16.5245 14.9639 16.5218 14.9645C16.5164 14.9656 16.5093 14.967 16.5009 14.9687C16.4841 14.9721 16.4614 14.9769 16.4342 14.983C16.3805 14.9951 16.3057 15.0129 16.222 15.0364C16.0966 15.0715 15.8012 15.1578 15.5596 15.3248L16.6968 16.9701C16.6492 17.003 16.6264 17.0079 16.6591 16.9953C16.6829 16.986 16.7181 16.9744 16.7614 16.9623C16.8031 16.9506 16.8425 16.9411 16.8716 16.9346C16.8857 16.9314 16.8966 16.9292 16.903 16.9279C16.9061 16.9272 16.9081 16.9268 16.9088 16.9267C16.9091 16.9266 16.9091 16.9266 16.9088 16.9267C16.9086 16.9267 16.9083 16.9268 16.908 16.9268C16.9078 16.9269 16.9076 16.9269 16.9074 16.927C16.9073 16.927 16.9072 16.927 16.907 16.927C16.907 16.927 16.9069 16.927 16.9068 16.9271C16.9067 16.9271 16.9066 16.9271 16.72 15.9447ZM17.1282 16.2626V16.1475H15.1282V16.2626H17.1282ZM15.3865 16.895C15.3165 16.8264 15.1282 16.6121 15.1282 16.2626H17.1282C17.1282 15.8558 16.9091 15.587 16.787 15.4672L15.3865 16.895ZM15.3865 15.4672C15.2643 15.587 15.0453 15.8558 15.0453 16.2626H17.0453C17.0453 16.6121 16.8569 16.8264 16.787 16.895L15.3865 15.4672ZM17.0453 16.2626V16.1475H15.0453V16.2626H17.0453ZM15.4535 15.9447C15.2668 16.9271 15.2667 16.9271 15.2666 16.9271C15.2666 16.927 15.2665 16.927 15.2664 16.927C15.2663 16.927 15.2662 16.927 15.2661 16.927C15.2659 16.9269 15.2657 16.9269 15.2655 16.9268C15.2651 16.9268 15.2649 16.9267 15.2647 16.9267C15.2643 16.9266 15.2643 16.9266 15.2647 16.9267C15.2653 16.9268 15.2673 16.9272 15.2705 16.9279C15.2769 16.9292 15.2877 16.9314 15.3019 16.9346C15.331 16.9411 15.3704 16.9506 15.4121 16.9623C15.4554 16.9744 15.4906 16.986 15.5144 16.9953C15.547 17.0079 15.5243 17.003 15.4767 16.9701L16.6138 15.3248C16.3722 15.1578 16.0769 15.0715 15.9515 15.0364C15.8677 15.0129 15.793 14.9951 15.7393 14.983C15.7121 14.9769 15.6894 14.9721 15.6726 14.9687C15.6641 14.967 15.6571 14.9656 15.6517 14.9645C15.649 14.9639 15.6466 14.9635 15.6447 14.9631C15.6437 14.9629 15.6429 14.9628 15.6421 14.9626C15.6418 14.9625 15.6414 14.9625 15.6411 14.9624C15.6409 14.9624 15.6408 14.9624 15.6406 14.9623C15.6405 14.9623 15.6404 14.9623 15.6404 14.9623C15.6403 14.9623 15.6402 14.9622 15.4535 15.9447ZM12.3822 12.74C12.1101 13.6507 12.0437 14.6896 12.5921 15.5583C13.1577 16.4542 14.1799 16.8647 15.3892 16.9426L15.5178 14.9467C14.6388 14.8901 14.3696 14.6273 14.2833 14.4906C14.1798 14.3267 14.101 13.9738 14.2985 13.3126L12.3822 12.74ZM13.1962 10.1682C12.2937 10.5988 12.2935 10.5985 12.2934 10.5982C12.2933 10.5981 12.2932 10.5977 12.2931 10.5975C12.2929 10.5971 12.2927 10.5967 12.2925 10.5963C12.2921 10.5956 12.2918 10.5949 12.2915 10.5943C12.291 10.593 12.2905 10.5921 12.2902 10.5914C12.2896 10.5901 12.2895 10.59 12.29 10.5909C12.2908 10.5929 12.2936 10.5992 12.298 10.6097C12.3068 10.6308 12.3217 10.6684 12.3397 10.7206C12.376 10.8255 12.4238 10.986 12.4607 11.1877C12.5349 11.5933 12.5608 12.1421 12.3822 12.74L14.2985 13.3126C14.5895 12.3387 14.5434 11.4585 14.4281 10.828C14.3702 10.5116 14.294 10.2523 14.2299 10.0669C14.1977 9.97394 14.1683 9.89874 14.1454 9.84337C14.1339 9.81566 14.1239 9.79283 14.116 9.77513C14.1121 9.76629 14.1086 9.75871 14.1057 9.75245C14.1043 9.74931 14.103 9.7465 14.1018 9.74403C14.1012 9.74279 14.1007 9.74163 14.1002 9.74056C14.0999 9.74002 14.0997 9.73951 14.0994 9.73901C14.0993 9.73876 14.0991 9.73841 14.0991 9.73828C14.0989 9.73793 14.0988 9.73759 13.1962 10.1682ZM13.2914 8.30351L12.3802 9.59025L14.0123 10.7462L14.9236 9.45942L13.2914 8.30351ZM15.0528 8.28369C15.1078 8.28369 15.1174 8.29487 15.0673 8.2773C15.0245 8.26227 14.9685 8.23691 14.905 8.20264C14.8435 8.16944 14.7883 8.13507 14.7485 8.10889C14.729 8.09611 14.7145 8.08607 14.7061 8.08016C14.7019 8.07722 14.6993 8.07537 14.6985 8.07478C14.6981 8.07449 14.6981 8.07451 14.6986 8.07488C14.6989 8.07507 14.6993 8.07534 14.6997 8.0757C14.7 8.07588 14.7003 8.07609 14.7006 8.07631C14.7007 8.07643 14.7009 8.07655 14.7011 8.07667C14.7011 8.07673 14.7013 8.07683 14.7013 8.07686C14.7015 8.07696 14.7016 8.07706 14.1075 8.88147C13.5134 9.68588 13.5136 9.68598 13.5137 9.68609C13.5138 9.68612 13.5139 9.68623 13.514 9.68631C13.5142 9.68646 13.5144 9.68661 13.5146 9.68677C13.5151 9.6871 13.5156 9.68744 13.5161 9.68782C13.5171 9.68857 13.5183 9.68942 13.5195 9.69036C13.5221 9.69226 13.5253 9.69454 13.529 9.6972C13.5363 9.7025 13.5458 9.70929 13.5573 9.71735C13.5803 9.73343 13.6114 9.75482 13.6493 9.77975C13.7241 9.82898 13.8301 9.89516 13.9548 9.96252C14.1587 10.0726 14.5849 10.2837 15.0528 10.2837V8.28369ZM15.5622 8.05301C15.4832 8.09662 15.3513 8.16527 15.2166 8.22036C15.1497 8.24772 15.0945 8.26657 15.0537 8.27757C15.0068 8.29021 15.011 8.28369 15.0528 8.28369V10.2837C15.4175 10.2837 15.7708 10.1545 15.9735 10.0716C16.2081 9.97569 16.4149 9.86679 16.5283 9.80418L15.5622 8.05301ZM17.0453 8.9286V8.88147H15.0453V8.9286H17.0453ZM16.0453 8.88147C15.5332 9.74042 15.5332 9.74043 15.5332 9.74044C15.5332 9.74044 15.5333 9.74045 15.5333 9.74046C15.5333 9.74047 15.5333 9.74049 15.5333 9.7405C15.5334 9.74053 15.5334 9.74055 15.5335 9.74058C15.5336 9.74064 15.5337 9.7407 15.5338 9.74076C15.534 9.74088 15.5342 9.74101 15.5344 9.74115C15.5349 9.74142 15.5354 9.74174 15.536 9.74209C15.5372 9.74278 15.5386 9.74362 15.5402 9.74458C15.5435 9.74652 15.5477 9.74899 15.5528 9.75196C15.563 9.75788 15.5767 9.7658 15.5936 9.77538L16.5799 8.03545C16.5701 8.02994 16.5631 8.02589 16.5592 8.02361C16.5573 8.02248 16.5561 8.02179 16.5558 8.0216C16.5556 8.0215 16.5556 8.02152 16.5559 8.02167C16.556 8.02175 16.5562 8.02186 16.5565 8.022C16.5566 8.02207 16.5567 8.02215 16.5568 8.02223C16.5569 8.02228 16.557 8.02232 16.5571 8.02237C16.5571 8.02239 16.5572 8.02242 16.5572 8.02244C16.5572 8.02246 16.5572 8.02247 16.5573 8.02248C16.5573 8.02249 16.5573 8.0225 16.5573 8.0225C16.5573 8.02251 16.5573 8.02252 16.0453 8.88147Z" fill="white" mask="url(#path-12-outside-2_30_18042)"/>
</mask>
<g mask="url(#mask0_30_18042)">
<rect x="13.3043" y="8.72729" width="2.78261" height="3.81818" fill="#67BAFF"/>
<rect x="16.0869" y="8.72729" width="2.78261" height="3.81818" fill="white"/>
<rect x="12.9565" y="12.9091" width="6.95652" height="4.36364" fill="#C51918"/>
<path d="M17.4347 12.275H17.0869V9.66028H17.4347V12.275Z" fill="#C9A951"/>
<path d="M17.2938 11.0856L17.1242 11.3893L16.5239 11.0541L16.6934 10.7504L17.2938 11.0856Z" fill="#C9A951"/>
<path d="M17.2938 10.3583L17.1242 10.662L16.5239 10.3268L16.6934 10.0231L17.2938 10.3583Z" fill="#C9A951"/>
<path d="M17.2195 11.0856L17.3891 11.3893L17.9894 11.0541L17.8199 10.7504L17.2195 11.0856Z" fill="#C9A951"/>
<path d="M17.2195 10.3583L17.3891 10.662L17.9894 10.3268L17.8199 10.0231L17.2195 10.3583Z" fill="#C9A951"/>
<path fill-rule="evenodd" clip-rule="evenodd" d="M17.7291 13.705C17.7291 13.705 17.9711 13.4283 17.9711 13.5666C17.9711 13.705 17.9711 13.9376 17.8501 13.9376C17.7291 13.9376 17.1655 13.8269 16.9508 13.5666C16.7361 13.3064 16.2819 12.8533 15.6972 12.9599C15.1125 13.0666 14.4191 13.8246 14.2481 13.8246C14.0772 13.8246 13.7026 14.4088 13.9754 14.8651C14.2481 15.3213 14.7122 15.1798 14.7122 15.3121C14.7122 15.4445 14.8282 15.4597 15.2627 15.4597C15.6972 15.4597 15.8561 15.613 16.2323 15.613C16.6085 15.613 16.1081 15.6074 16.714 15.4597C17.3198 15.3121 17.7787 14.8651 17.4257 14.8651C17.0726 14.8651 16.9586 14.8651 16.714 14.8651C16.4694 14.8651 15.925 15.0413 15.925 14.8651C15.925 14.6888 16.0459 14.3114 16.3799 14.5001C16.714 14.6888 17.6422 14.8327 17.9711 14.5001C18.3 14.1675 18.415 13.967 18.3575 13.5666C18.3 13.1663 17.8501 13.2815 17.8501 13.2815L17.7291 13.705Z" fill="#FBCD17"/>
<path fill-rule="evenodd" clip-rule="evenodd" d="M15.3761 9.56982C15.1664 9.75321 15.3017 10.4234 14.9581 10.4234C14.6146 10.4234 14.1311 9.92155 14.0094 10.2527C13.8876 10.5838 14.0094 10.4726 14.0094 10.7546C14.0094 11.0366 13.7178 11.8203 13.8636 11.9528C14.0094 12.0853 14.1588 12.4344 14.1329 12.271C14.107 12.1076 13.9968 11.8676 14.0427 11.6069C13.9983 11.3376 14.2884 11.0785 14.2884 11.0785C14.2884 11.0785 14.2569 11.3581 14.2341 11.4624C14.2341 11.4624 14.1384 11.6728 14.1773 11.8126C14.1773 11.8126 14.2755 12.2065 14.316 12.2337C14.316 12.2337 14.3423 11.301 14.3722 11.1473C14.4021 10.9936 14.6153 11.3207 14.6863 11.2836C14.6863 11.2836 14.7106 11.9214 14.6737 11.9974C14.6737 11.9974 14.599 12.1482 14.6268 12.1964C14.6268 12.1964 14.6961 12.371 14.7553 12.3202C14.7553 12.3202 14.7574 12.3165 14.7874 12.1466C14.7874 12.1466 14.7525 12.044 14.8071 11.8103C14.8071 11.8103 14.8645 11.2958 14.8883 11.4074C14.8883 11.4074 14.8776 11.6503 14.905 11.7755C14.905 11.7755 14.9488 12.0864 14.9576 12.1205C14.9576 12.1205 15.1675 12.4195 15.1731 12.2932C15.1731 12.2932 14.9719 12.0533 15.015 11.8707C15.015 11.8707 14.8998 11.3535 15.0606 11.2382C15.0606 11.2382 15.4872 11.0408 15.5128 10.7031C15.5128 10.7031 15.5746 10.3181 15.5857 10.1416C15.5857 10.1416 15.4922 10.0898 15.6856 9.99865C15.6856 9.99865 15.997 9.87912 15.803 9.71291" fill="#D18219"/>
</g>
</g>
<defs>
<clipPath id="clip0_30_18042">
<rect width="32" height="24" fill="white"/>
</clipPath>
</defs>
</svg>
