<svg width="32" height="24" viewBox="0 0 32 24" fill="none" xmlns="http://www.w3.org/2000/svg">
<g clip-path="url(#clip0_30_18070)">
<rect width="32" height="24" fill="white"/>
<path fill-rule="evenodd" clip-rule="evenodd" d="M0 0V24H32V0H0Z" fill="#F7FCFF"/>
<mask id="mask0_30_18070" style="mask-type:luminance" maskUnits="userSpaceOnUse" x="0" y="0" width="32" height="24">
<path fill-rule="evenodd" clip-rule="evenodd" d="M0 0V24H32V0H0Z" fill="white"/>
</mask>
<g mask="url(#mask0_30_18070)">
<path fill-rule="evenodd" clip-rule="evenodd" d="M0 0V6H32V0H0Z" fill="#BF2714"/>
<path fill-rule="evenodd" clip-rule="evenodd" d="M0 18V24H32V18H0Z" fill="#BF2714"/>
<mask id="mask1_30_18070" style="mask-type:luminance" maskUnits="userSpaceOnUse" x="10" y="6" width="12" height="12">
<path fill-rule="evenodd" clip-rule="evenodd" d="M16 18C19.3137 18 22 15.3137 22 12C22 8.68629 19.3137 6 16 6C12.6863 6 10 8.68629 10 12C10 15.3137 12.6863 18 16 18Z" fill="white"/>
</mask>
<g mask="url(#mask1_30_18070)">
<path fill-rule="evenodd" clip-rule="evenodd" d="M10.5486 13.7648C10.4939 13.5933 10.6791 13.4444 10.8348 13.5348L11.2085 13.7516C11.2642 13.784 11.3322 13.787 11.3906 13.7597L12.3131 13.3277C12.3777 13.2975 12.4537 13.3046 12.5116 13.3464L13.5081 14.0656L14.8856 13.3239C14.9386 13.2954 15.0019 13.2927 15.0572 13.3167L16.0946 13.7674C16.1471 13.7902 16.2068 13.789 16.2583 13.7642L17.189 13.3162C17.2387 13.2923 17.2961 13.2903 17.3473 13.3108L18.4988 13.7707C18.5506 13.7914 18.6089 13.7891 18.659 13.7644L19.5509 13.3231C19.6073 13.2952 19.6736 13.296 19.7294 13.3251L20.5475 13.7536C20.6067 13.7845 20.6776 13.7834 20.7357 13.7504L21.1611 13.5094C21.3128 13.4235 21.493 13.5627 21.4482 13.7311L21.3594 14.0656H10.6447L10.5486 13.7648Z" fill="#5277B9"/>
<path fill-rule="evenodd" clip-rule="evenodd" d="M10.5449 14.9506C10.4917 14.7781 10.6796 14.6311 10.8343 14.7241L11.1742 14.9286C11.2312 14.9629 11.3017 14.9661 11.3615 14.937L12.2388 14.5113C12.305 14.4792 12.3836 14.4867 12.4425 14.5308L13.3984 15.2459L14.7221 14.5072C14.7765 14.4769 14.842 14.4741 14.8987 14.4996L15.8885 14.9453C15.9423 14.9695 16.0042 14.9683 16.0571 14.9419L16.9447 14.499C16.9957 14.4736 17.0552 14.4715 17.1078 14.4933L18.208 14.9488C18.2613 14.9709 18.3216 14.9684 18.373 14.9421L19.2227 14.5063C19.2805 14.4767 19.3492 14.4775 19.4063 14.5085L20.1839 14.9306C20.2445 14.9635 20.3179 14.9622 20.3774 14.9273L20.7675 14.6983C20.9183 14.6097 21.1011 14.7473 21.0577 14.9168L20.9733 15.2459H10.6358L10.5449 14.9506Z" fill="#5277B9"/>
<path fill-rule="evenodd" clip-rule="evenodd" d="M10.7416 15.7375C10.6884 15.565 10.8763 15.418 11.031 15.511L11.371 15.7155C11.428 15.7498 11.4984 15.7529 11.5582 15.7239L12.4355 15.2982C12.5017 15.266 12.5803 15.2735 12.6392 15.3176L13.5952 16.0327L14.9188 15.2941C14.9732 15.2637 15.0387 15.2609 15.0954 15.2865L16.0852 15.7321C16.1391 15.7564 16.2009 15.7551 16.2538 15.7288L17.1415 15.2859C17.1924 15.2605 17.2519 15.2584 17.3045 15.2801L18.4047 15.7356C18.458 15.7577 18.5184 15.7553 18.5697 15.7289L19.4194 15.2932C19.4772 15.2636 19.5459 15.2644 19.603 15.2954L20.3807 15.7174C20.4413 15.7503 20.5147 15.7491 20.5741 15.7142L20.9642 15.4851C21.1151 15.3966 21.2978 15.5342 21.2544 15.7036L21.17 16.0327H10.8325L10.7416 15.7375Z" fill="#5277B9"/>
<path fill-rule="evenodd" clip-rule="evenodd" d="M11.9219 16.5245C11.8688 16.352 12.0566 16.2049 12.2113 16.298L12.5513 16.5025C12.6083 16.5368 12.6788 16.5399 12.7386 16.5109L13.6158 16.0851C13.682 16.053 13.7606 16.0605 13.8196 16.1046L14.7755 16.8197L16.0992 16.0811C16.1535 16.0507 16.219 16.0479 16.2758 16.0735L17.2656 16.5191C17.3194 16.5434 17.3813 16.5421 17.4342 16.5158L18.3218 16.0729C18.3728 16.0474 18.4323 16.0453 18.4849 16.0671L19.5851 16.5226C19.6384 16.5447 19.6987 16.5422 19.7501 16.5159L20.5998 16.0802C20.6576 16.0506 20.7263 16.0514 20.7834 16.0824L21.561 16.5044C21.6216 16.5373 21.695 16.5361 21.7545 16.5012L22.1446 16.2721C22.2954 16.1836 22.4782 16.3212 22.4347 16.4906L22.3503 16.8197H12.0129L11.9219 16.5245Z" fill="#5277B9"/>
<path fill-rule="evenodd" clip-rule="evenodd" d="M10.3481 17.508C10.295 17.3355 10.4829 17.1885 10.6375 17.2815L10.9775 17.486C11.0345 17.5203 11.105 17.5234 11.1648 17.4944L12.042 17.0687C12.1082 17.0365 12.1868 17.044 12.2458 17.0881L13.2017 17.8032L14.5254 17.0646C14.5797 17.0342 14.6453 17.0314 14.702 17.057L15.6918 17.5026C15.7456 17.5269 15.8075 17.5257 15.8604 17.4993L16.748 17.0564C16.799 17.031 16.8585 17.0289 16.9111 17.0507L18.0113 17.5061C18.0646 17.5282 18.1249 17.5258 18.1763 17.4994L19.026 17.0637C19.0838 17.0341 19.1525 17.0349 19.2096 17.0659L19.9872 17.4879C20.0478 17.5208 20.1212 17.5196 20.1807 17.4847L20.5708 17.2556C20.7216 17.1671 20.9044 17.3047 20.8609 17.4741L20.7766 17.8032H10.4391L10.3481 17.508Z" fill="#5277B9"/>
<path d="M14.4225 14.138V15.138C13.5782 15.138 12.9808 14.6196 12.6903 13.6989L12.6672 13.5485V9.44592H13.6672V13.4681C13.8338 13.9485 14.0681 14.138 14.4225 14.138Z" fill="#FF0000"/>
<path d="M17.1918 14.138V15.138C18.0361 15.138 18.6335 14.6196 18.9239 13.6989L18.9471 13.5485V9.44592H17.9471V13.4681C17.7805 13.9485 17.5461 14.138 17.1918 14.138Z" fill="#FF0000"/>
<path fill-rule="evenodd" clip-rule="evenodd" d="M16.7247 6.90869C16.7247 6.90869 15.0658 6.47492 15.0658 7.57486C15.0658 8.67481 15.0658 11.037 15.0658 11.037L16.9998 11.6114V8.78154C16.9998 8.78154 16.0328 8.19069 16.0328 7.72862C16.0328 7.26655 16.7247 6.90869 16.7247 6.90869Z" fill="#FF0000"/>
<path d="M13.9337 12.8907L14.5643 12.0847" stroke="black"/>
<path d="M14.5088 12.8641L13.9045 12.0533" stroke="black"/>
<path d="M14.8386 12.8907L15.4693 12.0847" stroke="black"/>
<path d="M15.4137 12.8641L14.8094 12.0533" stroke="black"/>
<path d="M15.7042 12.8907L16.3349 12.0847" stroke="black"/>
<path d="M16.2793 12.8641L15.675 12.0533" stroke="black"/>
<path d="M16.6091 12.8907L17.2398 12.0847" stroke="black"/>
<path d="M17.1842 12.8641L16.5799 12.0533" stroke="black"/>
<path d="M17.514 12.8907L18.1447 12.0847" stroke="black"/>
<path d="M18.0891 12.8641L17.4848 12.0533" stroke="black"/>
<path fill-rule="evenodd" clip-rule="evenodd" d="M13.4544 7.09487L14.6512 9.43314L14.7986 7.09487L14.6512 6.63428L13.4544 7.09487ZM12.8548 9.09027L11.9925 8.17598L12.8548 7.14843L14.6672 10.0458V10.7822L13.7957 10.0458V9.09027H12.8548ZM10.9564 9.79467L12.5292 10.5476L12.6521 9.38433L11.3426 8.26542L10.9564 9.79467ZM12.6086 11.7257L10.5397 11.514V10.0549L12.6086 10.8507V11.7257ZM10.4836 13.1589L10.2381 11.9182L12.5701 12.0345V13.1589H10.4836ZM13.7671 11.1203V10.4201L14.6393 11.1203L14.5446 11.4901L13.7671 11.1203ZM21.8805 11.9182L21.635 13.1589H19.5485V12.0345L21.8805 11.9182ZM19.5101 11.7257L21.579 11.514V10.0549L19.5101 10.8507V11.7257ZM21.1622 9.79467L19.5894 10.5476L19.4665 9.38433L20.776 8.26542L21.1622 9.79467ZM19.2639 9.09027L20.1262 8.17598L19.2639 7.14843L17.4514 10.0458V10.7822L18.3229 10.0458V9.09027H19.2639ZM18.6643 7.09487L17.4674 9.43314L17.3201 7.09487L17.4674 6.63428L18.6643 7.09487ZM18.3515 11.1203V10.4201L17.4794 11.1203L17.574 11.4901L18.3515 11.1203Z" fill="#FA8F21"/>
</g>
</g>
</g>
<defs>
<clipPath id="clip0_30_18070">
<rect width="32" height="24" fill="white"/>
</clipPath>
</defs>
</svg>
