<svg width="32" height="24" viewBox="0 0 32 24" fill="none" xmlns="http://www.w3.org/2000/svg">
<g clip-path="url(#clip0_30_18003)">
<rect width="32" height="24" fill="white"/>
<path fill-rule="evenodd" clip-rule="evenodd" d="M0 0V24H32V0H0Z" fill="#2E42A5"/>
<mask id="mask0_30_18003" style="mask-type:luminance" maskUnits="userSpaceOnUse" x="0" y="0" width="32" height="24">
<path fill-rule="evenodd" clip-rule="evenodd" d="M0 0V24H32V0H0Z" fill="white"/>
</mask>
<g mask="url(#mask0_30_18003)">
</g>
<g clip-path="url(#clip1_30_18003)">
<rect width="18" height="14" fill="#2E42A5"/>
<path d="M-2.00427 12.9997L1.95668 14.7369L18.0899 1.88866L20.1792 -0.692871L15.9435 -1.27349L9.36317 4.2632L4.06667 7.99363L-2.00427 12.9997Z" fill="#F7FCFF"/>
<path d="M-1.46201 14.217L0.555916 15.2251L19.4289 -0.932617H16.5955L-1.46201 14.217Z" fill="#F50100"/>
<path d="M20.0043 12.9997L16.0433 14.7369L-0.0898743 1.88866L-2.17919 -0.692871L2.05648 -1.27349L8.63683 4.2632L13.9333 7.99363L20.0043 12.9997Z" fill="#F7FCFF"/>
<path d="M19.8691 13.8733L17.8512 14.8815L9.81486 7.96351L7.43226 7.19059L-2.38023 -0.683947H0.453163L10.2601 7.00368L12.8651 7.9305L19.8691 13.8733Z" fill="#F50100"/>
<path fill-rule="evenodd" clip-rule="evenodd" d="M9.98451 0H7.98451V6H0V8H7.98451V14H9.98451V8H18V6H9.98451V0Z" fill="#F50100"/>
<path fill-rule="evenodd" clip-rule="evenodd" d="M6.48451 0H11.4845V4.5H18V9.5H11.4845L11.5 14H6.5L6.48451 9.5H0V4.5H6.48451V0ZM7.98451 6H0V8H7.98451V14H9.98451V8H18V6H9.98451V0H7.98451V6Z" fill="#F7FCFF"/>
</g>
<path fill-rule="evenodd" clip-rule="evenodd" d="M20.6161 10.7569C20.6161 10.7569 20.7148 11.8516 20.4983 12.4719C20.2819 13.0922 20.1718 13.4523 20.1718 13.0558C20.1718 12.6593 20.0198 12.3451 19.8975 12.3451C19.7753 12.3451 19.8718 12.7383 19.7489 12.7383C19.626 12.7383 19.2027 12.8059 19.2027 12.5755C19.2027 12.3451 19.147 13.1935 19.4217 13.2694C19.6964 13.3453 19.2883 13.5807 19.1061 13.5078C19.1061 13.5078 19.8555 13.7514 20.1494 13.959C20.1494 13.959 21.0304 15.0588 21.8545 14.9247C21.8545 14.9247 20.7324 14.5373 20.9301 13.7973C21.1278 13.0572 21.8545 12.9501 21.8545 12.9501C21.8545 12.9501 22.1955 13.0642 22.1852 13.3629C22.175 13.6617 22.4346 13.2694 22.4346 13.2694C22.4346 13.2694 22.4764 12.892 22.4303 12.7999C22.3842 12.7078 23.2114 12.5295 23.2635 12.1408C23.2635 12.1408 22.4184 12.1794 22.3604 12.0796C22.3024 11.9797 22.6219 11.8232 22.522 11.6286C22.422 11.4339 20.9301 12.7383 20.9301 12.7383C20.9301 12.7383 21.4453 11.8505 21.4453 11.3737C21.4453 10.897 21.3144 10.5712 20.9301 10.5712C20.5458 10.5712 20.6161 10.7569 20.6161 10.7569Z" fill="#5EAA22"/>
<path fill-rule="evenodd" clip-rule="evenodd" d="M28.3835 11.0171C28.3825 11.0188 28.3846 11.0202 28.386 11.0188C28.4415 10.9642 28.7838 10.6494 29.0707 10.8984C29.3839 11.1702 28.9128 11.4352 28.9128 11.4352C28.9128 11.4352 29.133 11.6487 29.3848 11.6487C29.6366 11.6487 29.6984 11.4352 29.6984 11.4352C29.6984 11.4352 29.7176 11.9104 30.5389 12.0904C30.5389 12.0904 30.8319 11.6697 30.5389 11.4394C30.5389 11.4394 30.885 11.3676 30.8599 11.0872C30.8599 11.0872 30.5753 11.1842 30.3724 10.9614C30.1695 10.7386 29.774 10.6359 29.4864 10.6872C28.7566 10.424 28.428 10.9396 28.3835 11.0171Z" fill="#5EAA22"/>
<path fill-rule="evenodd" clip-rule="evenodd" d="M23.4037 13.415C23.4037 13.415 24.2529 15.0124 23.7221 15.3434C23.1914 15.6744 26.2459 15.4389 26.5337 15.3434C26.8215 15.2478 26.4756 14.7442 26.1564 14.6044C25.8373 14.4646 24.5251 13.9994 24.176 13.6485C23.8269 13.2977 24.0401 13.1732 24.3212 12.8269C24.6024 12.4805 25.6432 12.342 25.6432 12.0183C25.6432 11.6946 26.3034 10.3596 26.7648 10.2588C27.2263 10.1581 26.977 9.99948 26.8709 9.99948C26.7648 9.99948 26.1269 10.657 25.8851 10.5384C25.6432 10.4197 25.6137 10.4281 25.8851 10.1413C26.1564 9.85459 26.3607 9.52455 26.002 9.76202C25.6432 9.99948 25.0517 10.3753 24.7674 10.3753C24.483 10.3753 23.4708 10.2471 23.5965 10.5384C23.7221 10.8296 23.7754 11.3352 24.3212 11.6768C24.8671 12.0183 24.6298 12.2683 24.176 12.5974C23.7221 12.9265 23.4037 13.415 23.4037 13.415Z" fill="#96877D"/>
<path d="M29.0386 11.3027L27.4205 14.5481C27.4205 14.5481 27.3733 15.4648 28.5301 14.8539C29.687 14.2431 29.6415 13.8098 29.975 13.8098C30.3085 13.8098 30.4145 13.6246 30.4145 13.6246L30.1923 13.4499C30.1923 13.4499 30.1666 13.1312 30.3073 13.0597C30.3073 13.0597 30.0313 12.9076 29.9918 13.0345C29.9524 13.1615 29.7577 12.7689 29.8678 12.7689C29.8678 12.7689 29.6244 13.1631 29.5731 13.3169C29.5731 13.3169 29.2208 13.1736 29.2377 12.5101C29.2546 11.8466 29.0386 11.3027 29.0386 11.3027Z" fill="#FFD018"/>
<path d="M21.3364 10.7888C21.3364 10.7888 20.5124 10.9806 20.6012 11.1802C20.6901 11.3798 20.821 11.1748 20.4176 11.4154C20.4176 11.4154 19.7089 11.9634 19.5544 11.904C19.4 11.8446 19.6638 12.042 19.6638 11.4154C19.6638 10.7888 19.2523 11.2988 19.6638 10.8805C20.0754 10.4622 20.2197 10.7888 20.4176 10.5481C20.6155 10.3074 20.4376 10.4354 20.9745 10.4354C21.5114 10.4354 21.3364 10.7888 21.3364 10.7888Z" fill="#FFD018"/>
<path d="M23.8506 14.0142C23.8506 14.0142 21.5436 15.8272 21.0825 15.9625C20.6214 16.0978 22.0308 15.9253 22.3752 15.6859C22.7195 15.4466 23.8506 14.0142 23.8506 14.0142Z" fill="#FFD018"/>
<path fill-rule="evenodd" clip-rule="evenodd" d="M28.4245 17.1947C28.4245 17.1947 28.646 18.6231 28.0679 18.4825C27.4898 18.3419 27.2499 18.2692 27.2499 18.2692C27.2499 18.2692 27.4619 18.9345 27.7649 18.9345C27.7649 18.9345 28.2811 19.9406 28.0825 20.2582C28.0825 20.2582 28.9717 19.5368 28.828 18.9632C28.6842 18.3897 29.0578 19.0576 29.0578 19.0576C29.0578 19.0576 29.385 19.2156 29.6216 19.0392C29.8581 18.8627 29.6186 18.9411 29.3821 18.6052C29.1455 18.2692 29.2039 17.3257 28.4844 16.8367C27.7649 16.3477 27.5974 16.3633 27.5974 16.3633C27.5974 16.3633 27.0675 15.4969 27.385 15.5542C27.385 15.5542 29.6602 16.3341 29.7193 16.534C29.7784 16.7339 30.3817 16.6973 30.0801 16.1258C29.7784 15.5542 28.1521 15.2098 27.9585 15.0486C27.7649 14.8874 27.945 14.2761 27.5974 14.1429C27.2499 14.0097 26.3003 13.0647 26.3009 12.6093C26.3015 12.1539 25.8545 11.9395 25.466 11.9395C25.0775 11.9395 24.346 11.8273 24.0369 11.8273C23.7278 11.8273 23.4398 12.3443 23.7383 12.3443C24.0369 12.3443 23.7818 13.3123 23.2819 13.5238C22.782 13.7353 22.3955 14.0394 21.8246 14.0394C21.2537 14.0394 22.6327 14.5316 22.8525 14.3373C23.0723 14.1429 23.0002 13.8532 23.7383 13.5238C24.4764 13.1944 25.1809 12.9993 25.0918 13.2616C25.0026 13.5238 25.2301 13.9624 25.5779 13.8037C25.9256 13.6449 26.0371 13.2439 26.0371 13.5238C26.0371 13.8037 26.5703 15.2412 26.9777 15.8022C27.385 16.3633 28.4245 17.1947 28.4245 17.1947Z" fill="#5EAA22"/>
<path d="M23.5711 11.9456C23.5711 11.9456 23.3006 12.3765 23.5711 12.3765C23.8416 12.3765 24.2767 12.3765 24.0116 12.161C23.7466 11.9456 23.5711 11.9456 23.5711 11.9456Z" fill="#FFD018"/>
<path d="M24.475 11.9352C24.475 11.9352 24.4763 12.2217 24.6637 12.2217C24.8512 12.2217 25.018 12.5083 25.018 12.2217C25.018 11.9352 25.2786 12.0302 24.8768 11.9352C24.475 11.8402 24.475 11.9352 24.475 11.9352Z" fill="#FFD018"/>
<path d="M25.6296 12.0009C25.6296 12.0009 25.4489 12.1369 25.5392 12.3796C25.6296 12.6224 25.834 13.1027 25.5392 13.1027C25.2445 13.1027 25.0019 13.2758 25.2322 13.2758C25.4625 13.2758 25.8721 13.449 25.8721 13.2758C25.8721 13.1027 26.0388 13.5614 26.0388 13.2758C26.0388 12.9903 26.0388 12.8539 26.0388 12.6864C26.0388 12.5189 26.2055 12.4708 26.0388 12.2358C25.8721 12.0009 25.6296 12.0009 25.6296 12.0009Z" fill="#FFD018"/>
<path d="M26.0472 13.6718C26.0472 13.6718 26.4238 14.8572 26.6287 15.01C26.8335 15.1629 26.9254 16.4502 27.0153 16.5902C27.1052 16.7302 28.3299 17.4367 28.3299 17.8158C28.3299 18.1949 28.7071 17.5245 28.5185 17.149C28.3299 16.7736 27.7362 15.9743 27.3092 15.8C26.8822 15.6257 26.9364 15.2036 26.8466 14.907C26.7569 14.6103 27.3779 15.1466 26.8466 14.4738C26.3154 13.8009 26.3295 14.162 26.4791 14.162C26.6287 14.162 26.7783 14.0825 26.6287 13.9779C26.4791 13.8733 26.0472 13.6718 26.0472 13.6718Z" fill="#FFD018"/>
<path d="M22.0541 16.1165C22.0541 16.1165 20.8307 18.2771 20.6124 18.3887C20.394 18.5003 20.2313 18.523 20.1197 18.3887C20.0082 18.2544 19.9967 18.7492 20.1197 18.8846C20.2427 19.0201 20.6124 19.0201 20.8175 18.7795C20.8175 18.7795 20.8499 19.3874 21.1694 19.8456C21.4889 20.3039 21.6221 20.1773 21.6221 20.4365C21.6221 20.6956 21.6976 21.0387 21.7951 21.0387C21.8926 21.0387 21.9681 21.8544 21.7951 21.8544C21.6221 21.8544 22.1961 21.9213 22.4463 21.7173C22.6966 21.5133 22.8035 21.3579 22.7501 21.3579C22.6966 21.3579 22.0541 21.0197 22.0541 20.7805C22.0541 20.5412 21.6221 20.3538 21.6221 19.9986C21.6221 19.6434 21.3976 19.221 21.3976 19.0528C21.3976 18.8846 21.5895 19.1177 21.7951 18.9585C22.0007 18.7992 22.0541 18.3887 22.0541 18.3887C22.0541 18.3887 21.7303 18.6059 21.6221 18.4973C21.5138 18.3887 21.1731 18.1743 21.3976 17.8065C21.6221 17.4387 22.0541 16.1165 22.0541 16.1165Z" fill="#FFD018"/>
<path fill-rule="evenodd" clip-rule="evenodd" d="M24.1742 9.30225C24.1742 9.30225 23.7361 9.49709 23.8821 9.7866C24.0282 10.0761 24.0807 10.2043 24.1742 10.1402C24.2677 10.0761 24.9241 9.95492 24.777 9.62858C24.63 9.30225 24.322 9.30225 24.322 9.30225H24.1742Z" fill="#5EAA22"/>
<path d="M25.6939 9.14572C25.6939 9.14572 25.1153 8.88968 25.3082 9.14572C25.501 9.40176 25.7478 9.53674 25.9253 9.53674C26.1028 9.53674 26.4717 9.48382 26.2872 9.38052C26.1028 9.27722 25.6939 9.14572 25.6939 9.14572Z" fill="#FFD018"/>
<path fill-rule="evenodd" clip-rule="evenodd" d="M19.9814 15.8007C19.9843 15.7851 19.9657 15.7742 19.9543 15.7851C19.8334 15.9004 19.4728 16.2833 19.6261 16.6165C19.8091 17.014 19.992 17.152 19.992 17.152C19.992 17.152 20.1035 17.7606 20.3338 17.9262C20.3338 17.9262 20.6431 17.9104 20.6584 17.4366C20.6584 17.4366 21.1838 17.2825 21.3382 17.6106C21.3382 17.6106 21.2363 17.6474 21.2363 17.9262C21.2363 18.2049 21.474 18.5069 21.474 18.5069C21.474 18.5069 21.5829 17.5455 22.0721 16.9257C22.5612 16.3059 22.7012 16.1835 22.7012 16.1835V15.4861C22.7012 15.4861 21.6891 16.3108 21.474 16.9965C21.474 16.9965 20.9643 17.0135 20.7573 16.9257C20.5502 16.8379 21.0159 16.6939 20.7573 16.3818C20.4986 16.0698 20.6172 16.8212 20.3338 16.6165C19.8906 16.4932 19.9507 15.9664 19.9814 15.8007Z" fill="#5EAA22"/>
<path fill-rule="evenodd" clip-rule="evenodd" d="M22.1868 15.1948L27.3715 15.1948V18.3625C27.3715 18.3625 26.9488 20.9508 24.6909 22.2259C24.6909 22.2259 22.5039 20.9332 22.1868 18.3625V15.1948Z" fill="#5EAA22"/>
<mask id="mask1_30_18003" style="mask-type:luminance" maskUnits="userSpaceOnUse" x="22" y="15" width="6" height="8">
<path fill-rule="evenodd" clip-rule="evenodd" d="M22.1868 15.1948L27.3715 15.1948V18.3625C27.3715 18.3625 26.9488 20.9508 24.6909 22.2259C24.6909 22.2259 22.5039 20.9332 22.1868 18.3625V15.1948Z" fill="white"/>
</mask>
<g mask="url(#mask1_30_18003)">
<path fill-rule="evenodd" clip-rule="evenodd" d="M24.6517 15.0237L22.3865 19.7244L25.4584 16.9347L27.5727 20.439V15.0237L25.4584 16.7568L24.6517 15.0237Z" fill="#58A5FF"/>
<path d="M24.5803 18.4138C24.5803 18.3204 24.6559 18.2448 24.7493 18.2448V18.2448C24.8426 18.2448 24.9183 18.3204 24.9183 18.4138V21.4321C24.9183 21.5254 24.8426 21.6011 24.7493 21.6011V21.6011C24.6559 21.6011 24.5803 21.5254 24.5803 21.4321L24.5803 18.4138Z" fill="#FFD018"/>
<path d="M23.9925 19.1579C23.9008 19.1579 23.8264 19.0836 23.8264 18.9919V18.9919C23.8264 18.9001 23.9008 18.8258 23.9925 18.8258H25.5197C25.6114 18.8258 25.6858 18.9001 25.6858 18.9919V18.9919C25.6858 19.0836 25.6114 19.1579 25.5197 19.1579H23.9925Z" fill="#FFD018"/>
<path d="M24.816 21.4888L24.6851 21.5951C24.4923 21.3609 24.3165 21.2483 24.1611 21.2483C23.9323 21.2483 23.7463 21.0574 23.5946 20.6954L23.7506 20.6309C23.879 20.9371 24.0186 21.0804 24.1611 21.0804C24.3771 21.0804 24.5942 21.2195 24.816 21.4888Z" fill="#FFD018"/>
<path fill-rule="evenodd" clip-rule="evenodd" d="M23.4434 20.1192C23.4424 20.1182 23.4407 20.119 23.4407 20.1204V20.9364C23.4407 20.9376 23.4419 20.9384 23.4429 20.9379L24.0567 20.6852C24.0578 20.6848 24.0581 20.6834 24.0572 20.6825L23.4434 20.1192Z" fill="#FFD018"/>
<path d="M24.677 21.4888L24.8078 21.5951C25.0006 21.3609 25.1764 21.2483 25.3318 21.2483C25.5606 21.2483 25.7467 21.0574 25.8984 20.6954L25.7423 20.6309C25.614 20.9371 25.4743 21.0804 25.3318 21.0804C25.1158 21.0804 24.8987 21.2195 24.677 21.4888Z" fill="#FFD018"/>
<path fill-rule="evenodd" clip-rule="evenodd" d="M26.0495 20.1192C26.0506 20.1182 26.0522 20.119 26.0522 20.1204V20.9364C26.0522 20.9376 26.0511 20.9384 26.05 20.9379L25.4363 20.6852C25.4352 20.6848 25.4349 20.6834 25.4358 20.6825L26.0495 20.1192Z" fill="#FFD018"/>
<rect x="24.4084" y="17.0587" width="0.676056" height="1.00733" fill="white"/>
</g>
</g>
<defs>
<clipPath id="clip0_30_18003">
<rect width="32" height="24" fill="white"/>
</clipPath>
<clipPath id="clip1_30_18003">
<rect width="18" height="14" fill="white"/>
</clipPath>
</defs>
</svg>
