<svg width="32" height="24" viewBox="0 0 32 24" fill="none" xmlns="http://www.w3.org/2000/svg">
<g clip-path="url(#clip0_30_17950)">
<rect width="32" height="24" fill="white"/>
<path fill-rule="evenodd" clip-rule="evenodd" d="M8 0H32V24H8V0Z" fill="#EF0000"/>
<path fill-rule="evenodd" clip-rule="evenodd" d="M0 0H12V24H0V0Z" fill="#2F8D00"/>
<mask id="mask0_30_17950" style="mask-type:luminance" maskUnits="userSpaceOnUse" x="4" y="4" width="16" height="16">
<path fill-rule="evenodd" clip-rule="evenodd" d="M11.9048 19.8072C7.64429 19.8072 4.19049 16.3118 4.19049 12C4.19049 7.68816 7.64429 4.19275 11.9048 4.19275C16.1653 4.19275 19.6191 7.68816 19.6191 12C19.6191 16.3118 16.1653 19.8072 11.9048 19.8072Z" fill="white"/>
</mask>
<g mask="url(#mask0_30_17950)">
<path fill-rule="evenodd" clip-rule="evenodd" d="M11.4286 4H12.4286V6.6988H11.4286V4Z" fill="#FFE017"/>
<path fill-rule="evenodd" clip-rule="evenodd" d="M11.4286 17.4939H12.4286V19.9999H11.4286V17.4939Z" fill="#FFE017"/>
<path d="M4.3145 12.4038L4.03491 11.6865C7.1201 10.4548 9.44866 9.6605 11.0286 9.30252C13.3468 8.77732 15.8938 8.38873 18.67 8.13647L18.7382 8.90447C15.9938 9.15383 13.4794 9.53743 11.1951 10.055C9.66214 10.4023 7.36592 11.1856 4.3145 12.4038Z" fill="#FFE017"/>
<path d="M19.1408 7.66384L18.914 8.39994C16.5822 7.66383 14.6828 7.34741 13.2228 7.44542L13.1724 6.67603C14.74 6.5708 16.7271 6.90183 19.1408 7.66384Z" fill="#FFE017"/>
<path d="M19.9477 11.7797L19.5167 12.4156C18.328 11.5903 16.8635 11.1757 15.1133 11.1757V10.4047C17.0107 10.4047 18.6255 10.8617 19.9477 11.7797Z" fill="#FFE017"/>
<path d="M19.302 12.0105L19.499 12.7554C16.9364 13.4495 14.5304 13.8433 12.281 13.9361C10.016 14.0294 7.37616 13.6342 4.35913 12.7534L4.57031 12.0125C7.51402 12.8719 10.0747 13.2553 12.25 13.1656C14.4408 13.0753 16.7915 12.6905 19.302 12.0105Z" fill="#FFE017"/>
<path d="M19.0117 15.6359L17.8074 16.8705C15.5187 14.584 13.5038 12.949 11.775 11.9666C10.0167 10.9675 7.72372 9.9529 4.8996 8.927L5.47874 7.29407C8.38615 8.35022 10.7635 9.40212 12.6143 10.4538C14.4947 11.5224 16.623 13.2494 19.0117 15.6359Z" fill="#FFE017"/>
<path d="M5.4583 16.3353L5.00244 15.7175C5.0661 15.6694 5.17969 15.5891 5.33619 15.4875C5.59459 15.3196 5.88153 15.152 6.19025 14.9954C7.04055 14.5641 7.89349 14.2947 8.70701 14.27C8.74679 14.2688 8.78641 14.2682 8.82586 14.2682V15.0393C8.79408 15.0393 8.76209 15.0398 8.72989 15.0407C8.04432 15.0616 7.29145 15.2993 6.53166 15.6847C6.24846 15.8284 5.98459 15.9825 5.74777 16.1364C5.66534 16.1899 5.59241 16.2394 5.52991 16.2836C5.49348 16.3093 5.4693 16.327 5.4583 16.3353Z" fill="#FFE017"/>
<path d="M5.81219 16.6025L6.00407 15.8563C8.54418 16.5253 10.5025 16.8586 11.8692 16.8586C13.2307 16.8586 15.2573 16.4654 17.9358 15.6763L18.1487 16.4166C15.4069 17.2244 13.3181 17.6297 11.8692 17.6297C10.4253 17.6297 8.40954 17.2866 5.81219 16.6025Z" fill="#FFE017"/>
<path d="M4.82245 9.69434L6.02953 8.4624L7.79685 10.236L6.58977 11.468L4.82245 9.69434Z" fill="#FFE017"/>
<path d="M14.8359 15.8477L15.7338 14.3698L18.5374 16.1142L17.6396 17.5922L14.8359 15.8477Z" fill="#FFE017"/>
</g>
<path fill-rule="evenodd" clip-rule="evenodd" d="M4.19049 12C4.19049 16.3118 7.64429 19.8072 11.9048 19.8072C16.1653 19.8072 19.6191 16.3118 19.6191 12C19.6191 7.68816 16.1653 4.19275 11.9048 4.19275C7.64429 4.19275 4.19049 7.68816 4.19049 12ZM18.6667 12.0964C18.6667 15.8226 15.6819 18.8434 12 18.8434C8.31812 18.8434 5.33335 15.8226 5.33335 12.0964C5.33335 8.3701 8.31812 5.34938 12 5.34938C15.6819 5.34938 18.6667 8.3701 18.6667 12.0964Z" fill="#F9E813"/>
<path d="M7.65668 7.1853V13.446C8.06881 15.9241 9.45727 17.1631 11.8221 17.1631C14.1869 17.1631 15.5753 15.9241 15.9875 13.446V7.1853H7.65668Z" fill="white"/>
<path d="M7.08527 6.60693H16.5589V13.4943L16.551 13.5419C16.0933 16.2936 14.471 17.7414 11.8221 17.7414C9.17319 17.7414 7.55083 16.2936 7.09319 13.5419L7.08527 13.4943V6.60693Z" fill="#C51918"/>
<path d="M9.2522 8.71069H14.3919V13.1516C14.3919 13.1516 14.0105 15.4449 11.8221 15.4449C9.6336 15.4449 9.2522 13.1516 9.2522 13.1516V8.71069Z" fill="#F7FCFF"/>
<path fill-rule="evenodd" clip-rule="evenodd" d="M8 7.08435H8.72289V7.56628H8V7.08435Z" fill="#F9E813"/>
<path fill-rule="evenodd" clip-rule="evenodd" d="M7.61902 7.2771H8.95235V7.51806H7.61902V7.2771Z" fill="#060101"/>
<path fill-rule="evenodd" clip-rule="evenodd" d="M7.61902 7.46985H8.34191V7.71081H7.61902V7.46985Z" fill="#F9E813"/>
<path fill-rule="evenodd" clip-rule="evenodd" d="M8.38092 7.46985H9.10381V7.71081H8.38092V7.46985Z" fill="#F9E813"/>
<path fill-rule="evenodd" clip-rule="evenodd" d="M7.61902 8.04822H8.10095V8.77111H7.61902V8.04822Z" fill="#F9E813"/>
<path fill-rule="evenodd" clip-rule="evenodd" d="M8.57141 8.04822H9.05334V8.77111H8.57141V8.04822Z" fill="#F9E813"/>
<path fill-rule="evenodd" clip-rule="evenodd" d="M8.19043 8.04822H8.43139V8.77111H8.19043V8.04822Z" fill="#F9E813"/>
<path fill-rule="evenodd" clip-rule="evenodd" d="M7.61902 7.85547H8.95235V8.09643H7.61902V7.85547Z" fill="#060101"/>
<path fill-rule="evenodd" clip-rule="evenodd" d="M7.61902 8.43372H8.95235V8.67468H7.61902V8.43372Z" fill="#060101"/>
<path fill-rule="evenodd" clip-rule="evenodd" d="M7.80951 7.66272H8.05047V7.90368H7.80951V7.66272Z" fill="#F9E813"/>
<path fill-rule="evenodd" clip-rule="evenodd" d="M8.57141 7.66272H8.81237V7.90368H8.57141V7.66272Z" fill="#F9E813"/>
<path fill-rule="evenodd" clip-rule="evenodd" d="M8.19043 7.46985H8.43139V7.95178H8.19043V7.46985Z" fill="#F9E813"/>
<path fill-rule="evenodd" clip-rule="evenodd" d="M11.619 7.08435H12.3419V7.56628H11.619V7.08435Z" fill="#F9E813"/>
<path fill-rule="evenodd" clip-rule="evenodd" d="M11.238 7.2771H12.5714V7.51806H11.238V7.2771Z" fill="#060101"/>
<path fill-rule="evenodd" clip-rule="evenodd" d="M11.238 7.46985H11.9609V7.71081H11.238V7.46985Z" fill="#F9E813"/>
<path fill-rule="evenodd" clip-rule="evenodd" d="M11.9999 7.46985H12.7228V7.71081H11.9999V7.46985Z" fill="#F9E813"/>
<path fill-rule="evenodd" clip-rule="evenodd" d="M11.238 8.04822H11.72V8.77111H11.238V8.04822Z" fill="#F9E813"/>
<path fill-rule="evenodd" clip-rule="evenodd" d="M12.1904 8.04822H12.6724V8.77111H12.1904V8.04822Z" fill="#F9E813"/>
<path fill-rule="evenodd" clip-rule="evenodd" d="M11.8094 8.04822H12.0504V8.77111H11.8094V8.04822Z" fill="#F9E813"/>
<path fill-rule="evenodd" clip-rule="evenodd" d="M11.238 7.85547H12.5714V8.09643H11.238V7.85547Z" fill="#060101"/>
<path fill-rule="evenodd" clip-rule="evenodd" d="M11.238 8.43372H12.5714V8.67468H11.238V8.43372Z" fill="#060101"/>
<path fill-rule="evenodd" clip-rule="evenodd" d="M11.4285 7.66272H11.6695V7.90368H11.4285V7.66272Z" fill="#F9E813"/>
<path fill-rule="evenodd" clip-rule="evenodd" d="M12.1904 7.66272H12.4314V7.90368H12.1904V7.66272Z" fill="#F9E813"/>
<path fill-rule="evenodd" clip-rule="evenodd" d="M11.8094 7.46985H12.0504V7.95178H11.8094V7.46985Z" fill="#F9E813"/>
<path fill-rule="evenodd" clip-rule="evenodd" d="M15.0476 7.08435H15.7705V7.56628H15.0476V7.08435Z" fill="#F9E813"/>
<path fill-rule="evenodd" clip-rule="evenodd" d="M14.6666 7.2771H16V7.51806H14.6666V7.2771Z" fill="#060101"/>
<path fill-rule="evenodd" clip-rule="evenodd" d="M14.6666 7.46985H15.3895V7.71081H14.6666V7.46985Z" fill="#F9E813"/>
<path fill-rule="evenodd" clip-rule="evenodd" d="M15.4285 7.46985H16.1514V7.71081H15.4285V7.46985Z" fill="#F9E813"/>
<path fill-rule="evenodd" clip-rule="evenodd" d="M14.6666 8.04822H15.1486V8.77111H14.6666V8.04822Z" fill="#F9E813"/>
<path fill-rule="evenodd" clip-rule="evenodd" d="M15.619 8.04822H16.1009V8.77111H15.619V8.04822Z" fill="#F9E813"/>
<path fill-rule="evenodd" clip-rule="evenodd" d="M15.238 8.04822H15.479V8.77111H15.238V8.04822Z" fill="#F9E813"/>
<path fill-rule="evenodd" clip-rule="evenodd" d="M14.6666 7.85547H16V8.09643H14.6666V7.85547Z" fill="#060101"/>
<path fill-rule="evenodd" clip-rule="evenodd" d="M14.6666 8.43372H16V8.67468H14.6666V8.43372Z" fill="#060101"/>
<path fill-rule="evenodd" clip-rule="evenodd" d="M14.8571 7.66272H15.0981V7.90368H14.8571V7.66272Z" fill="#F9E813"/>
<path fill-rule="evenodd" clip-rule="evenodd" d="M15.619 7.66272H15.86V7.90368H15.619V7.66272Z" fill="#F9E813"/>
<path fill-rule="evenodd" clip-rule="evenodd" d="M15.238 7.46985H15.479V7.95178H15.238V7.46985Z" fill="#F9E813"/>
<path fill-rule="evenodd" clip-rule="evenodd" d="M15.0476 10.5542H15.7705V11.0361H15.0476V10.5542Z" fill="#F9E813"/>
<path fill-rule="evenodd" clip-rule="evenodd" d="M14.6666 10.7469H16V10.9879H14.6666V10.7469Z" fill="#060101"/>
<path fill-rule="evenodd" clip-rule="evenodd" d="M14.6666 10.9397H15.3895V11.1807H14.6666V10.9397Z" fill="#F9E813"/>
<path fill-rule="evenodd" clip-rule="evenodd" d="M15.4285 10.9397H16.1514V11.1807H15.4285V10.9397Z" fill="#F9E813"/>
<path fill-rule="evenodd" clip-rule="evenodd" d="M14.6666 11.5181H15.1486V12.241H14.6666V11.5181Z" fill="#F9E813"/>
<path fill-rule="evenodd" clip-rule="evenodd" d="M15.619 11.5181H16.1009V12.241H15.619V11.5181Z" fill="#F9E813"/>
<path fill-rule="evenodd" clip-rule="evenodd" d="M15.238 11.5181H15.479V12.241H15.238V11.5181Z" fill="#F9E813"/>
<path fill-rule="evenodd" clip-rule="evenodd" d="M14.6666 11.3253H16V11.5663H14.6666V11.3253Z" fill="#060101"/>
<path fill-rule="evenodd" clip-rule="evenodd" d="M14.6666 11.9036H16V12.1445H14.6666V11.9036Z" fill="#060101"/>
<path fill-rule="evenodd" clip-rule="evenodd" d="M14.8571 11.1326H15.0981V11.3735H14.8571V11.1326Z" fill="#F9E813"/>
<path fill-rule="evenodd" clip-rule="evenodd" d="M15.619 11.1326H15.86V11.3735H15.619V11.1326Z" fill="#F9E813"/>
<path fill-rule="evenodd" clip-rule="evenodd" d="M15.238 10.9397H15.479V11.4216H15.238V10.9397Z" fill="#F9E813"/>
<path fill-rule="evenodd" clip-rule="evenodd" d="M8 10.5542H8.72289V11.0361H8V10.5542Z" fill="#F9E813"/>
<path fill-rule="evenodd" clip-rule="evenodd" d="M7.61902 10.7469H8.95235V10.9879H7.61902V10.7469Z" fill="#060101"/>
<path fill-rule="evenodd" clip-rule="evenodd" d="M7.61902 10.9397H8.34191V11.1807H7.61902V10.9397Z" fill="#F9E813"/>
<path fill-rule="evenodd" clip-rule="evenodd" d="M8.38092 10.9397H9.10381V11.1807H8.38092V10.9397Z" fill="#F9E813"/>
<path fill-rule="evenodd" clip-rule="evenodd" d="M7.61902 11.5181H8.10095V12.241H7.61902V11.5181Z" fill="#F9E813"/>
<path fill-rule="evenodd" clip-rule="evenodd" d="M8.57141 11.5181H9.05334V12.241H8.57141V11.5181Z" fill="#F9E813"/>
<path fill-rule="evenodd" clip-rule="evenodd" d="M8.19043 11.5181H8.43139V12.241H8.19043V11.5181Z" fill="#F9E813"/>
<path fill-rule="evenodd" clip-rule="evenodd" d="M7.61902 11.3253H8.95235V11.5663H7.61902V11.3253Z" fill="#060101"/>
<path fill-rule="evenodd" clip-rule="evenodd" d="M7.61902 11.9036H8.95235V12.1445H7.61902V11.9036Z" fill="#060101"/>
<path fill-rule="evenodd" clip-rule="evenodd" d="M7.80951 11.1326H8.05047V11.3735H7.80951V11.1326Z" fill="#F9E813"/>
<path fill-rule="evenodd" clip-rule="evenodd" d="M8.57141 11.1326H8.81237V11.3735H8.57141V11.1326Z" fill="#F9E813"/>
<path fill-rule="evenodd" clip-rule="evenodd" d="M8.19043 10.9397H8.43139V11.4216H8.19043V10.9397Z" fill="#F9E813"/>
<path fill-rule="evenodd" clip-rule="evenodd" d="M8.46375 14.9039L8.92841 14.3502L9.29759 14.6599L8.83292 15.2137L8.46375 14.9039Z" fill="#F9E813"/>
<path fill-rule="evenodd" clip-rule="evenodd" d="M8.36652 15.3197L9.22357 14.2983L9.40816 14.4532L8.55111 15.4746L8.36652 15.3197Z" fill="#060101"/>
<path fill-rule="evenodd" clip-rule="evenodd" d="M8.51422 15.4436L8.97889 14.8898L9.16348 15.0447L8.69881 15.5985L8.51422 15.4436Z" fill="#F9E813"/>
<path fill-rule="evenodd" clip-rule="evenodd" d="M9.00397 14.86L9.46863 14.3062L9.65322 14.4611L9.18856 15.0149L9.00397 14.86Z" fill="#F9E813"/>
<path fill-rule="evenodd" clip-rule="evenodd" d="M8.95721 15.8153L9.26699 15.4461L9.82076 15.9108L9.51098 16.28L8.95721 15.8153Z" fill="#F9E813"/>
<path fill-rule="evenodd" clip-rule="evenodd" d="M9.5694 15.0858L9.87917 14.7166L10.4329 15.1813L10.1232 15.5505L9.5694 15.0858Z" fill="#F9E813"/>
<path fill-rule="evenodd" clip-rule="evenodd" d="M9.32452 15.3776L9.47941 15.193L10.0332 15.6576L9.87829 15.8422L9.32452 15.3776Z" fill="#F9E813"/>
<path fill-rule="evenodd" clip-rule="evenodd" d="M8.80957 15.6914L9.66662 14.67L9.85121 14.8249L8.99416 15.8463L8.80957 15.6914Z" fill="#060101"/>
<path fill-rule="evenodd" clip-rule="evenodd" d="M9.25256 16.0632L10.1096 15.0418L10.2942 15.1967L9.43715 16.2181L9.25256 16.0632Z" fill="#060101"/>
<path fill-rule="evenodd" clip-rule="evenodd" d="M8.7843 15.4216L8.93919 15.237L9.12378 15.3919L8.96889 15.5765L8.7843 15.4216Z" fill="#F9E813"/>
<path fill-rule="evenodd" clip-rule="evenodd" d="M9.27405 14.838L9.42894 14.6534L9.61353 14.8083L9.45864 14.9929L9.27405 14.838Z" fill="#F9E813"/>
<path fill-rule="evenodd" clip-rule="evenodd" d="M8.88153 15.0059L9.03642 14.8213L9.4056 15.131L9.25071 15.3156L8.88153 15.0059Z" fill="#F9E813"/>
<path fill-rule="evenodd" clip-rule="evenodd" d="M14.9785 14.4663L15.4431 15.0201L15.0739 15.3299L14.6093 14.7761L14.9785 14.4663Z" fill="#F9E813"/>
<path fill-rule="evenodd" clip-rule="evenodd" d="M14.5859 14.2983L15.443 15.3197L15.2584 15.4746L14.4013 14.4532L14.5859 14.2983Z" fill="#060101"/>
<path fill-rule="evenodd" clip-rule="evenodd" d="M14.4382 14.4222L14.9029 14.976L14.7183 15.1309L14.2536 14.5771L14.4382 14.4222Z" fill="#F9E813"/>
<path fill-rule="evenodd" clip-rule="evenodd" d="M14.928 15.0059L15.3926 15.5596L15.2081 15.7145L14.7434 15.1607L14.928 15.0059Z" fill="#F9E813"/>
<path fill-rule="evenodd" clip-rule="evenodd" d="M13.9952 14.7939L14.305 15.1631L13.7512 15.6278L13.4415 15.2586L13.9952 14.7939Z" fill="#F9E813"/>
<path fill-rule="evenodd" clip-rule="evenodd" d="M14.6074 15.5236L14.9172 15.8927L14.3634 16.3574L14.0537 15.9882L14.6074 15.5236Z" fill="#F9E813"/>
<path fill-rule="evenodd" clip-rule="evenodd" d="M14.3625 15.2317L14.5174 15.4163L13.9637 15.8809L13.8088 15.6964L14.3625 15.2317Z" fill="#F9E813"/>
<path fill-rule="evenodd" clip-rule="evenodd" d="M14.1429 14.67L14.9999 15.6914L14.8153 15.8463L13.9583 14.8249L14.1429 14.67Z" fill="#060101"/>
<path fill-rule="evenodd" clip-rule="evenodd" d="M13.6999 15.0419L14.5569 16.0633L14.3724 16.2182L13.5153 15.1968L13.6999 15.0419Z" fill="#060101"/>
<path fill-rule="evenodd" clip-rule="evenodd" d="M14.413 14.6921L14.5679 14.8767L14.3833 15.0316L14.2284 14.847L14.413 14.6921Z" fill="#F9E813"/>
<path fill-rule="evenodd" clip-rule="evenodd" d="M14.9028 15.2758L15.0577 15.4603L14.8731 15.6152L14.7182 15.4306L14.9028 15.2758Z" fill="#F9E813"/>
<path fill-rule="evenodd" clip-rule="evenodd" d="M14.8055 14.86L14.9604 15.0446L14.5913 15.3544L14.4364 15.1698L14.8055 14.86Z" fill="#F9E813"/>
<path fill-rule="evenodd" clip-rule="evenodd" d="M12.5584 9.20483H11.2381V10.1663C11.2381 10.1663 11.3361 10.6628 11.8983 10.6628C12.4605 10.6628 12.5584 10.1663 12.5584 10.1663V9.20483ZM11.8095 9.59038C11.8095 9.69684 11.7242 9.78315 11.6191 9.78315C11.5139 9.78315 11.4286 9.69684 11.4286 9.59038C11.4286 9.48391 11.5139 9.39761 11.6191 9.39761C11.7242 9.39761 11.8095 9.48391 11.8095 9.59038ZM11.6191 10.5542C11.7242 10.5542 11.8095 10.4679 11.8095 10.3615C11.8095 10.255 11.7242 10.1687 11.6191 10.1687C11.5139 10.1687 11.4286 10.255 11.4286 10.3615C11.4286 10.4679 11.5139 10.5542 11.6191 10.5542ZM12.381 10.3615C12.381 10.4679 12.2957 10.5542 12.1905 10.5542C12.0853 10.5542 12 10.4679 12 10.3615C12 10.255 12.0853 10.1687 12.1905 10.1687C12.2957 10.1687 12.381 10.255 12.381 10.3615ZM11.9048 10.1687C12.01 10.1687 12.0952 10.0824 12.0952 9.97592C12.0952 9.86945 12.01 9.78315 11.9048 9.78315C11.7996 9.78315 11.7143 9.86945 11.7143 9.97592C11.7143 10.0824 11.7996 10.1687 11.9048 10.1687ZM12.381 9.59038C12.381 9.69684 12.2957 9.78315 12.1905 9.78315C12.0853 9.78315 12 9.69684 12 9.59038C12 9.48391 12.0853 9.39761 12.1905 9.39761C12.2957 9.39761 12.381 9.48391 12.381 9.59038Z" fill="#013399"/>
<path fill-rule="evenodd" clip-rule="evenodd" d="M12.5584 11.3253H11.2381V12.2868C11.2381 12.2868 11.3361 12.7833 11.8983 12.7833C12.4605 12.7833 12.5584 12.2868 12.5584 12.2868V11.3253ZM11.8095 11.7109C11.8095 11.8173 11.7242 11.9036 11.6191 11.9036C11.5139 11.9036 11.4286 11.8173 11.4286 11.7109C11.4286 11.6044 11.5139 11.5181 11.6191 11.5181C11.7242 11.5181 11.8095 11.6044 11.8095 11.7109ZM11.6191 12.6747C11.7242 12.6747 11.8095 12.5884 11.8095 12.4819C11.8095 12.3755 11.7242 12.2892 11.6191 12.2892C11.5139 12.2892 11.4286 12.3755 11.4286 12.4819C11.4286 12.5884 11.5139 12.6747 11.6191 12.6747ZM12.381 12.4819C12.381 12.5884 12.2957 12.6747 12.1905 12.6747C12.0853 12.6747 12 12.5884 12 12.4819C12 12.3755 12.0853 12.2892 12.1905 12.2892C12.2957 12.2892 12.381 12.3755 12.381 12.4819ZM11.9048 12.2892C12.01 12.2892 12.0952 12.2029 12.0952 12.0964C12.0952 11.9899 12.01 11.9036 11.9048 11.9036C11.7996 11.9036 11.7143 11.9899 11.7143 12.0964C11.7143 12.2029 11.7996 12.2892 11.9048 12.2892ZM12.381 11.7109C12.381 11.8173 12.2957 11.9036 12.1905 11.9036C12.0853 11.9036 12 11.8173 12 11.7109C12 11.6044 12.0853 11.5181 12.1905 11.5181C12.2957 11.5181 12.381 11.6044 12.381 11.7109Z" fill="#013399"/>
<path fill-rule="evenodd" clip-rule="evenodd" d="M14.2727 11.3253H12.9524V12.2868C12.9524 12.2868 13.0504 12.7833 13.6126 12.7833C14.1747 12.7833 14.2727 12.2868 14.2727 12.2868V11.3253ZM13.5238 11.7109C13.5238 11.8173 13.4385 11.9036 13.3333 11.9036C13.2281 11.9036 13.1429 11.8173 13.1429 11.7109C13.1429 11.6044 13.2281 11.5181 13.3333 11.5181C13.4385 11.5181 13.5238 11.6044 13.5238 11.7109ZM13.3333 12.6747C13.4385 12.6747 13.5238 12.5884 13.5238 12.4819C13.5238 12.3755 13.4385 12.2892 13.3333 12.2892C13.2281 12.2892 13.1429 12.3755 13.1429 12.4819C13.1429 12.5884 13.2281 12.6747 13.3333 12.6747ZM14.0952 12.4819C14.0952 12.5884 14.01 12.6747 13.9048 12.6747C13.7996 12.6747 13.7143 12.5884 13.7143 12.4819C13.7143 12.3755 13.7996 12.2892 13.9048 12.2892C14.01 12.2892 14.0952 12.3755 14.0952 12.4819ZM13.6191 12.2892C13.7243 12.2892 13.8095 12.2029 13.8095 12.0964C13.8095 11.9899 13.7243 11.9036 13.6191 11.9036C13.5139 11.9036 13.4286 11.9899 13.4286 12.0964C13.4286 12.2029 13.5139 12.2892 13.6191 12.2892ZM14.0952 11.7109C14.0952 11.8173 14.01 11.9036 13.9048 11.9036C13.7996 11.9036 13.7143 11.8173 13.7143 11.7109C13.7143 11.6044 13.7996 11.5181 13.9048 11.5181C14.01 11.5181 14.0952 11.6044 14.0952 11.7109Z" fill="#013399"/>
<path fill-rule="evenodd" clip-rule="evenodd" d="M10.8441 11.3253H9.5238V12.2868C9.5238 12.2868 9.62178 12.7833 10.184 12.7833C10.7462 12.7833 10.8441 12.2868 10.8441 12.2868V11.3253ZM10.0952 11.7109C10.0952 11.8173 10.01 11.9036 9.90476 11.9036C9.79956 11.9036 9.71428 11.8173 9.71428 11.7109C9.71428 11.6044 9.79956 11.5181 9.90476 11.5181C10.01 11.5181 10.0952 11.6044 10.0952 11.7109ZM9.90476 12.6747C10.01 12.6747 10.0952 12.5884 10.0952 12.4819C10.0952 12.3755 10.01 12.2892 9.90476 12.2892C9.79956 12.2892 9.71428 12.3755 9.71428 12.4819C9.71428 12.5884 9.79956 12.6747 9.90476 12.6747ZM10.6667 12.4819C10.6667 12.5884 10.5814 12.6747 10.4762 12.6747C10.371 12.6747 10.2857 12.5884 10.2857 12.4819C10.2857 12.3755 10.371 12.2892 10.4762 12.2892C10.5814 12.2892 10.6667 12.3755 10.6667 12.4819ZM10.1905 12.2892C10.2957 12.2892 10.3809 12.2029 10.3809 12.0964C10.3809 11.9899 10.2957 11.9036 10.1905 11.9036C10.0853 11.9036 9.99999 11.9899 9.99999 12.0964C9.99999 12.2029 10.0853 12.2892 10.1905 12.2892ZM10.6667 11.7109C10.6667 11.8173 10.5814 11.9036 10.4762 11.9036C10.371 11.9036 10.2857 11.8173 10.2857 11.7109C10.2857 11.6044 10.371 11.5181 10.4762 11.5181C10.5814 11.5181 10.6667 11.6044 10.6667 11.7109Z" fill="#013399"/>
<path fill-rule="evenodd" clip-rule="evenodd" d="M12.5584 13.4458H11.2381V14.4073C11.2381 14.4073 11.3361 14.9038 11.8983 14.9038C12.4605 14.9038 12.5584 14.4073 12.5584 14.4073V13.4458ZM11.8095 13.8313C11.8095 13.9378 11.7242 14.0241 11.6191 14.0241C11.5139 14.0241 11.4286 13.9378 11.4286 13.8313C11.4286 13.7249 11.5139 13.6386 11.6191 13.6386C11.7242 13.6386 11.8095 13.7249 11.8095 13.8313ZM11.6191 14.7952C11.7242 14.7952 11.8095 14.7089 11.8095 14.6024C11.8095 14.496 11.7242 14.4097 11.6191 14.4097C11.5139 14.4097 11.4286 14.496 11.4286 14.6024C11.4286 14.7089 11.5139 14.7952 11.6191 14.7952ZM12.381 14.6024C12.381 14.7089 12.2957 14.7952 12.1905 14.7952C12.0853 14.7952 12 14.7089 12 14.6024C12 14.496 12.0853 14.4097 12.1905 14.4097C12.2957 14.4097 12.381 14.496 12.381 14.6024ZM11.9048 14.4097C12.01 14.4097 12.0952 14.3233 12.0952 14.2169C12.0952 14.1104 12.01 14.0241 11.9048 14.0241C11.7996 14.0241 11.7143 14.1104 11.7143 14.2169C11.7143 14.3233 11.7996 14.4097 11.9048 14.4097ZM12.381 13.8313C12.381 13.9378 12.2957 14.0241 12.1905 14.0241C12.0853 14.0241 12 13.9378 12 13.8313C12 13.7249 12.0853 13.6386 12.1905 13.6386C12.2957 13.6386 12.381 13.7249 12.381 13.8313Z" fill="#013399"/>
</g>
<defs>
<clipPath id="clip0_30_17950">
<rect width="32" height="24" fill="white"/>
</clipPath>
</defs>
</svg>
