<svg width="32" height="24" viewBox="0 0 32 24" fill="none" xmlns="http://www.w3.org/2000/svg">
<g clip-path="url(#clip0_30_18045)">
<rect width="32" height="24" fill="white"/>
<path fill-rule="evenodd" clip-rule="evenodd" d="M0 0V24H32V0H0Z" fill="#4857A1"/>
<mask id="mask0_30_18045" style="mask-type:luminance" maskUnits="userSpaceOnUse" x="0" y="0" width="32" height="24">
<path fill-rule="evenodd" clip-rule="evenodd" d="M0 0V24H32V0H0Z" fill="white"/>
</mask>
<g mask="url(#mask0_30_18045)">
<path fill-rule="evenodd" clip-rule="evenodd" d="M0 0V8H32V0H0Z" fill="#C51918"/>
<path fill-rule="evenodd" clip-rule="evenodd" d="M0 16V24H32V16H0Z" fill="#F7FCFF"/>
<path fill-rule="evenodd" clip-rule="evenodd" d="M11.4558 3.8032L11.3427 3.34973C11.4391 3.37936 11.5439 3.40976 11.6545 3.44102L11.6534 3.43522C12.9735 3.55496 15.014 4.23825 15.3939 4.96399C15.5407 5.2445 15.3947 5.48363 15.2033 5.797C15.1748 5.84383 15.1452 5.89231 15.1154 5.94284C15.0192 6.10601 14.932 6.262 14.8498 6.40901C14.5532 6.93939 14.322 7.35288 13.9701 7.56527L13.9772 8.76626L8.08163 8.71557L8.07398 7.50246C7.77261 7.27677 7.55703 6.89119 7.28743 6.40901C7.20524 6.262 7.11803 6.10601 7.02183 5.94284C6.99204 5.89231 6.96244 5.84383 6.93385 5.797C6.74253 5.48363 6.59653 5.2445 6.74335 4.96399C7.02894 4.41834 8.32281 3.88767 9.5084 3.60701C9.74167 3.52406 9.98547 3.44654 10.2272 3.37231L10.3351 3.4504C10.4288 3.43761 10.5196 3.42718 10.6068 3.41927L10.7426 3.72216H11.2226C11.2226 3.72216 11.5125 4.58271 11.5125 5.06062C11.5125 5.53853 11.2226 5.93373 11.2226 5.93373V6.26363C11.273 6.26782 11.3258 6.27294 11.3806 6.27886C11.381 6.25024 11.3838 6.2201 11.3893 6.18926C11.4171 6.03161 11.5035 5.91507 11.5823 5.92897C11.6611 5.94287 11.7025 6.08194 11.6747 6.23959C11.6702 6.26522 11.6641 6.28977 11.6568 6.31284C11.9678 6.35514 12.3163 6.41419 12.6465 6.47493C12.7722 6.23124 12.9255 5.99048 13.0718 5.76059C13.4502 5.16639 13.7822 4.64489 13.4723 4.33359C13.4135 4.27455 13.3072 4.21963 13.17 4.16876C12.7167 4.05597 12.2231 3.96896 11.7435 3.92545L11.729 3.84664C11.6333 3.83109 11.5414 3.81661 11.4558 3.8032ZM13.6961 6.68268C13.8637 6.71799 13.9653 6.74045 13.9653 6.74045L13.9663 6.91231C14.5504 6.46213 14.9637 5.46463 15.0009 5.13787C15.0234 4.94087 14.711 4.71374 14.2212 4.50796C14.453 4.94762 14.1425 5.38392 13.7529 5.93147C13.6064 6.13725 13.4488 6.35874 13.3046 6.60203L13.4476 6.63108C13.4464 6.5859 13.4524 6.5351 13.4664 6.48287C13.5078 6.32825 13.604 6.21969 13.6814 6.24041C13.7587 6.26112 13.7878 6.40327 13.7463 6.55789C13.7339 6.60441 13.7164 6.64676 13.6961 6.68268ZM10.6836 6.26586V5.89846C10.6836 5.89846 10.4326 5.61797 10.3937 5.03383C10.3659 4.61597 10.452 4.12475 10.5033 3.87894C10.1289 3.92642 9.73414 4.00017 9.35191 4.09074C9.09831 4.16214 8.8962 4.24302 8.80605 4.33359C8.4962 4.64489 8.82821 5.16639 9.20651 5.76059L9.20651 5.76059L9.20652 5.7606L9.20652 5.76061C9.34789 5.98266 9.49571 6.21485 9.61893 6.45002C9.83202 6.40388 10.0462 6.36118 10.2461 6.3272C10.2375 6.29629 10.2313 6.26256 10.2282 6.22706C10.2142 6.06758 10.2676 5.93265 10.3473 5.92567C10.427 5.9187 10.503 6.04232 10.5169 6.20179C10.5195 6.2307 10.5198 6.2588 10.5181 6.28547C10.5755 6.27778 10.6308 6.27118 10.6836 6.26586ZM8.52549 5.93148L8.52549 5.93147L8.52548 5.93147C8.12703 5.37154 7.81137 4.92795 8.07374 4.47814C7.50024 4.70021 7.11386 4.94139 7.13626 5.13787C7.17146 5.44661 7.54232 6.35409 8.07579 6.833C8.11295 6.82264 8.31923 6.76541 8.61038 6.69056C8.58803 6.65567 8.56831 6.61413 8.55336 6.56814C8.5039 6.41589 8.5255 6.27242 8.60163 6.24768C8.67775 6.22295 8.77956 6.32632 8.82903 6.47856C8.8461 6.53111 8.85471 6.58261 8.85553 6.62854L8.97237 6.59971C8.82854 6.35734 8.67146 6.13661 8.5255 5.93149L8.5255 5.93149L8.52549 5.93148Z" fill="#F6C540"/>
<path fill-rule="evenodd" clip-rule="evenodd" d="M11.6522 3.50591C11.6522 3.85739 11.3602 4.14232 11 4.14232C10.6399 4.14232 10.3479 3.85739 10.3479 3.50591C10.3479 3.15444 10.6399 2.86951 11 2.86951C11.3602 2.86951 11.6522 3.15444 11.6522 3.50591ZM11 8.23183C11.2802 8.23183 11.5073 8.10205 11.5073 7.94197C11.5073 7.78189 11.2802 7.65212 11 7.65212C10.7199 7.65212 10.4928 7.78189 10.4928 7.94197C10.4928 8.10205 10.7199 8.23183 11 8.23183ZM8.4638 8.15936C8.4638 8.27942 8.36648 8.37675 8.24641 8.37675C8.12635 8.37675 8.02902 8.27942 8.02902 8.15936C8.02902 8.0393 8.12635 7.94197 8.24641 7.94197C8.36648 7.94197 8.4638 8.0393 8.4638 8.15936ZM14.2609 8.15936C14.2609 8.27942 14.1636 8.37675 14.0435 8.37675C13.9235 8.37675 13.8261 8.27942 13.8261 8.15936C13.8261 8.0393 13.9235 7.94197 14.0435 7.94197C14.1636 7.94197 14.2609 8.0393 14.2609 8.15936Z" fill="#2E42A5"/>
<path fill-rule="evenodd" clip-rule="evenodd" d="M9.91308 8.01439C9.91308 8.13445 9.75087 8.23178 9.55076 8.23178C9.35066 8.23178 9.18845 8.13445 9.18845 8.01439C9.18845 7.89433 9.35066 7.797 9.55076 7.797C9.75087 7.797 9.91308 7.89433 9.91308 8.01439ZM12.9566 8.01439C12.9566 8.13445 12.7943 8.23178 12.5942 8.23178C12.3941 8.23178 12.2319 8.13445 12.2319 8.01439C12.2319 7.89433 12.3941 7.797 12.5942 7.797C12.7943 7.797 12.9566 7.89433 12.9566 8.01439Z" fill="#C5363C"/>
<path fill-rule="evenodd" clip-rule="evenodd" d="M12.2319 6.20282C12.2319 6.3629 12.167 6.49267 12.087 6.49267C12.0069 6.49267 11.942 6.3629 11.942 6.20282C11.942 6.04274 12.0069 5.91296 12.087 5.91296C12.167 5.91296 12.2319 6.04274 12.2319 6.20282ZM10.0509 6.15803C10.1004 6.31028 10.0788 6.45375 10.0026 6.47849C9.92651 6.50322 9.8247 6.39985 9.77523 6.2476C9.72576 6.09536 9.74737 5.95188 9.82349 5.92715C9.89962 5.90242 10.0014 6.00579 10.0509 6.15803ZM8.34598 6.94387C8.4221 6.91913 8.44371 6.77566 8.39425 6.62341C8.34478 6.47117 8.24296 6.3678 8.16684 6.39253C8.09072 6.41727 8.06911 6.56074 8.11858 6.71299C8.16804 6.86523 8.26986 6.9686 8.34598 6.94387ZM14.0806 6.74716C13.9958 6.88291 13.872 6.95858 13.8041 6.91617C13.7362 6.87375 13.7499 6.72932 13.8348 6.59356C13.9196 6.4578 14.0434 6.38213 14.1113 6.42455C14.1792 6.46696 14.1654 6.6114 14.0806 6.74716Z" fill="#F7FCFF"/>
<path fill-rule="evenodd" clip-rule="evenodd" d="M9.76907 3.79232C9.80948 3.82174 9.85925 3.8391 9.91307 3.8391C10.0483 3.8391 10.158 3.72944 10.158 3.59417C10.158 3.4589 10.0483 3.34924 9.91307 3.34924C9.81714 3.34924 9.73409 3.40439 9.6939 3.48472C9.65348 3.45529 9.60372 3.43793 9.5499 3.43793C9.4636 3.43793 9.38773 3.48256 9.3441 3.55C9.30178 3.51512 9.24755 3.49417 9.18843 3.49417C9.05316 3.49417 8.9435 3.60383 8.9435 3.7391C8.9435 3.74664 8.94385 3.7541 8.94451 3.76147C8.89962 3.70572 8.8308 3.67005 8.75365 3.67005C8.63105 3.67005 8.52948 3.76013 8.51154 3.87772C8.46669 3.82067 8.39706 3.78403 8.31887 3.78403C8.20132 3.78403 8.10312 3.86683 8.0794 3.97729C8.03918 3.94834 7.98982 3.93129 7.93648 3.93129C7.82794 3.93129 7.73589 4.00189 7.70375 4.09967C7.6708 4.08317 7.6336 4.07388 7.59423 4.07388C7.47338 4.07388 7.37297 4.16141 7.35294 4.27653C7.33724 4.27337 7.321 4.27172 7.30437 4.27172C7.17039 4.27172 7.06154 4.37929 7.05948 4.51278C7.0449 4.51008 7.02988 4.50866 7.01452 4.50866C6.87925 4.50866 6.76959 4.61832 6.76959 4.75359C6.76959 4.77074 6.77135 4.78748 6.77471 4.80364C6.75855 4.80028 6.74181 4.79852 6.72466 4.79852C6.58939 4.79852 6.47974 4.90818 6.47974 5.04345C6.47974 5.14622 6.54304 5.23421 6.63278 5.27055C6.62748 5.29058 6.62466 5.31161 6.62466 5.3333C6.62466 5.43607 6.68796 5.52406 6.7777 5.56041C6.77241 5.58044 6.76959 5.60147 6.76959 5.62316C6.76959 5.75521 6.8741 5.86286 7.00492 5.8679C6.94976 5.91281 6.91452 5.98126 6.91452 6.05794C6.91452 6.19321 7.02418 6.30287 7.15945 6.30287C7.29472 6.30287 7.40437 6.19321 7.40437 6.05794C7.40437 5.92588 7.29987 5.81824 7.16904 5.8132C7.22421 5.76829 7.25945 5.69984 7.25945 5.62316C7.25945 5.52038 7.19615 5.43239 7.10641 5.39605C7.1117 5.37602 7.11452 5.35499 7.11452 5.3333C7.11452 5.23053 7.05122 5.14254 6.96148 5.10619C6.96677 5.08617 6.96959 5.06514 6.96959 5.04345C6.96959 5.0263 6.96783 5.00956 6.96447 4.9934C6.98063 4.99676 6.99737 4.99852 7.01452 4.99852C7.1485 4.99852 7.25735 4.89094 7.25942 4.75746C7.27399 4.76016 7.28902 4.76157 7.30437 4.76157C7.42523 4.76157 7.52564 4.67404 7.54567 4.55892C7.56136 4.56208 7.5776 4.56374 7.59423 4.56374C7.70277 4.56374 7.79482 4.49314 7.82696 4.39535C7.85992 4.41186 7.89711 4.42114 7.93648 4.42114C7.99022 4.42114 8.03991 4.40384 8.0803 4.3745C8.08791 4.40725 8.1021 4.43749 8.1214 4.46374C8.09156 4.50432 8.07394 4.55443 8.07394 4.60866C8.07394 4.74072 8.17845 4.84837 8.30927 4.85341C8.2541 4.89832 8.21887 4.96677 8.21887 5.04345C8.21887 5.14622 8.28217 5.23421 8.37191 5.27055C8.36661 5.29058 8.36379 5.31161 8.36379 5.3333C8.36379 5.43607 8.42709 5.52406 8.51683 5.56041C8.51154 5.58044 8.50872 5.60147 8.50872 5.62316C8.50872 5.75843 8.61838 5.86808 8.75365 5.86808C8.88892 5.86808 8.99858 5.75843 8.99858 5.62316C8.99858 5.52038 8.93528 5.43239 8.84554 5.39605C8.85083 5.37602 8.85365 5.35499 8.85365 5.3333C8.85365 5.23053 8.79035 5.14254 8.70061 5.10619C8.7059 5.08617 8.70872 5.06514 8.70872 5.04345C8.70872 4.91139 8.60421 4.80374 8.47339 4.7987C8.52856 4.75379 8.56379 4.68534 8.56379 4.60866C8.56379 4.55443 8.54617 4.50432 8.51633 4.46374C8.54617 4.42315 8.56379 4.37304 8.56379 4.31881C8.56379 4.26458 8.54617 4.21446 8.51633 4.17388C8.5392 4.14278 8.55489 4.10608 8.56098 4.06621C8.60582 4.12326 8.67546 4.1599 8.75365 4.1599C8.88892 4.1599 8.99858 4.05025 8.99858 3.91498C8.99858 3.90744 8.99824 3.89997 8.99757 3.89261C9.04246 3.94836 9.11128 3.98403 9.18843 3.98403C9.27473 3.98403 9.3506 3.9394 9.39423 3.87196C9.43655 3.90684 9.49078 3.92779 9.5499 3.92779C9.64583 3.92779 9.72887 3.87264 9.76907 3.79232ZM8.31887 4.27388C8.39991 4.27388 8.47175 4.23452 8.51633 4.17388C8.47175 4.11324 8.39991 4.07388 8.31887 4.07388C8.34368 4.07388 8.36379 4.05377 8.36379 4.02895C8.36379 4.00414 8.34368 3.98403 8.31887 3.98403C8.29405 3.98403 8.27394 4.00414 8.27394 4.02895C8.27394 4.05377 8.29405 4.07388 8.31887 4.07388C8.26513 4.07388 8.21544 4.09119 8.17505 4.12053C8.16142 4.0619 8.12674 4.01135 8.0794 3.97729C8.07582 3.99394 8.07394 4.01123 8.07394 4.02895C8.07394 4.08318 8.09156 4.1333 8.1214 4.17388C8.09156 4.21446 8.07394 4.26458 8.07394 4.31881C8.07394 4.33796 8.07614 4.35661 8.0803 4.3745C8.12825 4.33966 8.16308 4.28785 8.17595 4.22788C8.21617 4.25683 8.26553 4.27388 8.31887 4.27388ZM8.31887 4.36374C8.23783 4.36374 8.16598 4.40309 8.1214 4.46374C8.16598 4.52438 8.23783 4.56374 8.31887 4.56374C8.29405 4.56374 8.27394 4.58385 8.27394 4.60866C8.27394 4.63348 8.29405 4.65359 8.31887 4.65359C8.34368 4.65359 8.36379 4.63348 8.36379 4.60866C8.36379 4.58385 8.34368 4.56374 8.31887 4.56374C8.39991 4.56374 8.47175 4.52438 8.51633 4.46374C8.47175 4.40309 8.39991 4.36374 8.31887 4.36374ZM8.31887 4.36374C8.34368 4.36374 8.36379 4.34362 8.36379 4.31881C8.36379 4.294 8.34368 4.27388 8.31887 4.27388C8.29405 4.27388 8.27394 4.294 8.27394 4.31881C8.27394 4.34362 8.29405 4.36374 8.31887 4.36374ZM8.17595 4.22788C8.15506 4.21285 8.13664 4.19461 8.1214 4.17388C8.13642 4.15345 8.15453 4.13544 8.17505 4.12053C8.17921 4.13842 8.18141 4.15706 8.18141 4.17622C8.18141 4.19394 8.17953 4.21123 8.17595 4.22788ZM8.84554 5.39605C8.81716 5.38456 8.78615 5.37823 8.75365 5.37823C8.64007 5.37823 8.54455 5.45554 8.51683 5.56041C8.54521 5.5719 8.57623 5.57823 8.60872 5.57823C8.7223 5.57823 8.81782 5.50092 8.84554 5.39605ZM8.70061 5.10619C8.67224 5.0947 8.64122 5.08837 8.60872 5.08837C8.49514 5.08837 8.39962 5.16568 8.37191 5.27055C8.40028 5.28205 8.4313 5.28837 8.46379 5.28837C8.57737 5.28837 8.6729 5.21106 8.70061 5.10619ZM8.47339 4.7987L8.46379 4.79852C8.4052 4.79852 8.35142 4.81909 8.30927 4.85341L8.31887 4.85359C8.37746 4.85359 8.43124 4.83302 8.47339 4.7987ZM7.16904 5.8132L7.15945 5.81301C7.10086 5.81301 7.04707 5.83358 7.00492 5.8679L7.01452 5.86808C7.07311 5.86808 7.12689 5.84751 7.16904 5.8132ZM7.10641 5.39605C7.07869 5.50092 6.98317 5.57823 6.86959 5.57823C6.8371 5.57823 6.80608 5.5719 6.7777 5.56041C6.80542 5.45554 6.90094 5.37823 7.01452 5.37823C7.04701 5.37823 7.07803 5.38456 7.10641 5.39605ZM6.96148 5.10619C6.93377 5.21106 6.83824 5.28837 6.72466 5.28837C6.69217 5.28837 6.66115 5.28205 6.63278 5.27055C6.66049 5.16568 6.75601 5.08837 6.86959 5.08837C6.90209 5.08837 6.93311 5.0947 6.96148 5.10619ZM6.77471 4.80364C6.79446 4.89875 6.86936 4.97365 6.96447 4.9934C6.94473 4.89829 6.86982 4.82338 6.77471 4.80364ZM7.25942 4.75746C7.14562 4.73634 7.05945 4.63656 7.05945 4.51664L7.05948 4.51278C7.17327 4.53389 7.25945 4.63368 7.25945 4.75359L7.25942 4.75746ZM7.54567 4.55892C7.43366 4.53639 7.3493 4.43745 7.3493 4.31881C7.3493 4.30439 7.35055 4.29026 7.35294 4.27653C7.46494 4.29906 7.5493 4.398 7.5493 4.51664C7.5493 4.53106 7.54806 4.54519 7.54567 4.55892ZM7.82696 4.39535C7.74667 4.35515 7.69156 4.27212 7.69156 4.17622C7.69156 4.14949 7.69584 4.12376 7.70375 4.09967C7.78404 4.13988 7.83916 4.22291 7.83916 4.31881C7.83916 4.34554 7.83487 4.37127 7.82696 4.39535ZM8.56098 4.06621C8.52825 4.02457 8.50872 3.97205 8.50872 3.91498C8.50872 3.90231 8.50968 3.88987 8.51154 3.87772C8.54427 3.91936 8.56379 3.97188 8.56379 4.02895C8.56379 4.04162 8.56283 4.05406 8.56098 4.06621ZM8.94451 3.76147C8.94899 3.81088 8.96814 3.85606 8.99757 3.89261C8.9931 3.84319 8.97395 3.79801 8.94451 3.76147ZM9.39423 3.87196C9.33972 3.82704 9.30497 3.75901 9.30497 3.68286C9.30497 3.63389 9.31934 3.58827 9.3441 3.55C9.39861 3.59492 9.43336 3.66295 9.43336 3.7391C9.43336 3.78807 9.41899 3.83369 9.39423 3.87196ZM9.76907 3.79232C9.7079 3.74778 9.66814 3.67562 9.66814 3.59417C9.66814 3.55483 9.67742 3.51766 9.6939 3.48472C9.75507 3.52925 9.79483 3.60141 9.79483 3.68286C9.79483 3.7222 9.78555 3.75937 9.76907 3.79232ZM7.30437 4.56157C7.32919 4.56157 7.3493 4.54146 7.3493 4.51664C7.3493 4.49183 7.32919 4.47172 7.30437 4.47172C7.27956 4.47172 7.25945 4.49183 7.25945 4.51664C7.25945 4.54146 7.27956 4.56157 7.30437 4.56157ZM7.01452 4.79852C7.03933 4.79852 7.05945 4.7784 7.05945 4.75359C7.05945 4.72878 7.03933 4.70866 7.01452 4.70866C6.98971 4.70866 6.96959 4.72878 6.96959 4.75359C6.96959 4.7784 6.98971 4.79852 7.01452 4.79852ZM6.72466 5.08837C6.74948 5.08837 6.76959 5.06826 6.76959 5.04345C6.76959 5.01863 6.74948 4.99852 6.72466 4.99852C6.69985 4.99852 6.67974 5.01863 6.67974 5.04345C6.67974 5.06826 6.69985 5.08837 6.72466 5.08837ZM6.86959 5.37823C6.8944 5.37823 6.91452 5.35811 6.91452 5.3333C6.91452 5.30849 6.8944 5.28837 6.86959 5.28837C6.84478 5.28837 6.82466 5.30849 6.82466 5.3333C6.82466 5.35811 6.84478 5.37823 6.86959 5.37823ZM7.01452 5.66808C7.03933 5.66808 7.05945 5.64797 7.05945 5.62316C7.05945 5.59834 7.03933 5.57823 7.01452 5.57823C6.98971 5.57823 6.96959 5.59834 6.96959 5.62316C6.96959 5.64797 6.98971 5.66808 7.01452 5.66808ZM7.20437 6.05794C7.20437 6.08275 7.18426 6.10287 7.15945 6.10287C7.13463 6.10287 7.11452 6.08275 7.11452 6.05794C7.11452 6.03313 7.13463 6.01301 7.15945 6.01301C7.18426 6.01301 7.20437 6.03313 7.20437 6.05794ZM7.59423 4.36374C7.61904 4.36374 7.63916 4.34362 7.63916 4.31881C7.63916 4.294 7.61904 4.27388 7.59423 4.27388C7.56942 4.27388 7.5493 4.294 7.5493 4.31881C7.5493 4.34362 7.56942 4.36374 7.59423 4.36374ZM7.93648 4.22114C7.9613 4.22114 7.98141 4.20103 7.98141 4.17622C7.98141 4.1514 7.9613 4.13129 7.93648 4.13129C7.91167 4.13129 7.89156 4.1514 7.89156 4.17622C7.89156 4.20103 7.91167 4.22114 7.93648 4.22114ZM8.75365 3.9599C8.77846 3.9599 8.79858 3.93979 8.79858 3.91498C8.79858 3.89016 8.77846 3.87005 8.75365 3.87005C8.72884 3.87005 8.70872 3.89016 8.70872 3.91498C8.70872 3.93979 8.72884 3.9599 8.75365 3.9599ZM9.18843 3.78403C9.21324 3.78403 9.23336 3.76391 9.23336 3.7391C9.23336 3.71429 9.21324 3.69417 9.18843 3.69417C9.16362 3.69417 9.1435 3.71429 9.1435 3.7391C9.1435 3.76391 9.16362 3.78403 9.18843 3.78403ZM9.5499 3.72779C9.57471 3.72779 9.59482 3.70767 9.59482 3.68286C9.59482 3.65805 9.57471 3.63793 9.5499 3.63793C9.52508 3.63793 9.50497 3.65805 9.50497 3.68286C9.50497 3.70767 9.52508 3.72779 9.5499 3.72779ZM9.91307 3.6391C9.93788 3.6391 9.958 3.61898 9.958 3.59417C9.958 3.56936 9.93788 3.54924 9.91307 3.54924C9.88826 3.54924 9.86814 3.56936 9.86814 3.59417C9.86814 3.61898 9.88826 3.6391 9.91307 3.6391ZM8.46379 5.08837C8.48861 5.08837 8.50872 5.06826 8.50872 5.04345C8.50872 5.01863 8.48861 4.99852 8.46379 4.99852C8.43898 4.99852 8.41887 5.01863 8.41887 5.04345C8.41887 5.06826 8.43898 5.08837 8.46379 5.08837ZM8.60872 5.37823C8.63353 5.37823 8.65365 5.35811 8.65365 5.3333C8.65365 5.30849 8.63353 5.28837 8.60872 5.28837C8.58391 5.28837 8.56379 5.30849 8.56379 5.3333C8.56379 5.35811 8.58391 5.37823 8.60872 5.37823ZM8.75365 5.66808C8.77846 5.66808 8.79858 5.64797 8.79858 5.62316C8.79858 5.59834 8.77846 5.57823 8.75365 5.57823C8.72884 5.57823 8.70872 5.59834 8.70872 5.62316C8.70872 5.64797 8.72884 5.66808 8.75365 5.66808ZM15.1305 6.10287C15.1553 6.10287 15.1754 6.08275 15.1754 6.05794C15.1754 6.03313 15.1553 6.01301 15.1305 6.01301C15.1056 6.01301 15.0855 6.03313 15.0855 6.05794C15.0855 6.08275 15.1056 6.10287 15.1305 6.10287ZM14.8855 6.05794C14.8855 6.19321 14.9952 6.30287 15.1305 6.30287C15.2657 6.30287 15.3754 6.19321 15.3754 6.05794C15.3754 5.98126 15.3402 5.91281 15.285 5.8679C15.4158 5.86286 15.5203 5.75521 15.5203 5.62316C15.5203 5.60147 15.5175 5.58043 15.5122 5.56041C15.6019 5.52406 15.6652 5.43608 15.6652 5.3333C15.6652 5.31161 15.6624 5.29058 15.6571 5.27055C15.7469 5.23421 15.8102 5.14622 15.8102 5.04345C15.8102 4.90818 15.7005 4.79852 15.5652 4.79852C15.5481 4.79852 15.5314 4.80028 15.5152 4.80364C15.5186 4.78748 15.5203 4.77074 15.5203 4.75359C15.5203 4.61832 15.4107 4.50866 15.2754 4.50866C15.26 4.50866 15.245 4.51008 15.2304 4.51278C15.2284 4.37929 15.1195 4.27172 14.9855 4.27172C14.9689 4.27172 14.9527 4.27337 14.937 4.27653C14.9169 4.16141 14.8165 4.07388 14.6957 4.07388C14.6563 4.07388 14.6191 4.08317 14.5862 4.09967C14.554 4.00189 14.462 3.93129 14.3534 3.93129C14.3001 3.93129 14.2507 3.94834 14.2105 3.97729C14.1868 3.86683 14.0886 3.78403 13.971 3.78403C13.8928 3.78403 13.8232 3.82067 13.7784 3.87772C13.7604 3.76013 13.6589 3.67005 13.5363 3.67005C13.4591 3.67005 13.3903 3.70572 13.3454 3.76147C13.3461 3.7541 13.3464 3.74664 13.3464 3.7391C13.3464 3.60383 13.2367 3.49417 13.1015 3.49417C13.0424 3.49417 12.9881 3.51512 12.9458 3.55C12.9022 3.48256 12.8263 3.43793 12.74 3.43793C12.6862 3.43793 12.6364 3.45529 12.596 3.48472C12.5558 3.40439 12.4728 3.34924 12.3768 3.34924C12.2416 3.34924 12.1319 3.4589 12.1319 3.59417C12.1319 3.72944 12.2416 3.8391 12.3768 3.8391C12.4307 3.8391 12.4804 3.82174 12.5208 3.79231C12.561 3.87264 12.6441 3.92779 12.74 3.92779C12.7991 3.92779 12.8534 3.90684 12.8957 3.87196C12.9393 3.9394 13.0152 3.98403 13.1015 3.98403C13.1786 3.98403 13.2474 3.94836 13.2923 3.89261C13.2917 3.89997 13.2913 3.90744 13.2913 3.91498C13.2913 4.05025 13.401 4.1599 13.5363 4.1599C13.6145 4.1599 13.6841 4.12326 13.7289 4.06621C13.735 4.10608 13.7507 4.14278 13.7736 4.17388C13.7437 4.21446 13.7261 4.26458 13.7261 4.31881C13.7261 4.37304 13.7437 4.42315 13.7736 4.46374C13.7437 4.50432 13.7261 4.55443 13.7261 4.60866C13.7261 4.68534 13.7614 4.75379 13.8165 4.7987C13.6857 4.80374 13.5812 4.91139 13.5812 5.04345C13.5812 5.06514 13.584 5.08617 13.5893 5.10619C13.4996 5.14254 13.4363 5.23053 13.4363 5.3333C13.4363 5.35499 13.4391 5.37602 13.4444 5.39605C13.3546 5.43239 13.2913 5.52038 13.2913 5.62316C13.2913 5.75843 13.401 5.86808 13.5363 5.86808C13.6715 5.86808 13.7812 5.75843 13.7812 5.62316C13.7812 5.60147 13.7784 5.58043 13.7731 5.56041C13.8628 5.52406 13.9261 5.43607 13.9261 5.3333C13.9261 5.31161 13.9233 5.29058 13.918 5.27055C14.0077 5.23421 14.071 5.14622 14.071 5.04345C14.071 4.96677 14.0358 4.89832 13.9806 4.85341C14.1115 4.84837 14.216 4.74072 14.216 4.60866C14.216 4.55443 14.1983 4.50432 14.1685 4.46374C14.1878 4.43749 14.202 4.40725 14.2096 4.3745C14.25 4.40384 14.2997 4.42114 14.3534 4.42114C14.3928 4.42114 14.43 4.41186 14.4629 4.39535C14.4951 4.49314 14.5871 4.56374 14.6957 4.56374C14.7123 4.56374 14.7285 4.56208 14.7442 4.55892C14.7643 4.67404 14.8647 4.76157 14.9855 4.76157C15.0009 4.76157 15.0159 4.76015 15.0305 4.75745C15.0326 4.89094 15.1414 4.99852 15.2754 4.99852C15.2925 4.99852 15.3093 4.99675 15.3254 4.9934C15.3221 5.00955 15.3203 5.02629 15.3203 5.04345C15.3203 5.06514 15.3231 5.08616 15.3284 5.10619C15.2387 5.14253 15.1754 5.23053 15.1754 5.3333C15.1754 5.35499 15.1782 5.37602 15.1835 5.39605C15.0938 5.43239 15.0305 5.52038 15.0305 5.62316C15.0305 5.69984 15.0657 5.76829 15.1209 5.8132C14.99 5.81823 14.8855 5.92588 14.8855 6.05794ZM14.114 4.22788C14.1268 4.28785 14.1617 4.33966 14.2096 4.3745C14.2138 4.35661 14.216 4.33796 14.216 4.31881C14.216 4.26458 14.1983 4.21446 14.1685 4.17388C14.1983 4.1333 14.216 4.08318 14.216 4.02895C14.216 4.01123 14.2141 3.99394 14.2105 3.97729C14.1632 4.01135 14.1285 4.0619 14.1149 4.12053C14.0745 4.09119 14.0248 4.07388 13.971 4.07388C13.9959 4.07388 14.016 4.05377 14.016 4.02895C14.016 4.00414 13.9959 3.98403 13.971 3.98403C13.9462 3.98403 13.9261 4.00414 13.9261 4.02895C13.9261 4.05377 13.9462 4.07388 13.971 4.07388C13.89 4.07388 13.8182 4.11324 13.7736 4.17388C13.8182 4.23452 13.89 4.27388 13.971 4.27388C13.9462 4.27388 13.9261 4.294 13.9261 4.31881C13.9261 4.34362 13.9462 4.36374 13.971 4.36374C13.89 4.36374 13.8182 4.40309 13.7736 4.46374C13.8182 4.52438 13.89 4.56374 13.971 4.56374C13.9462 4.56374 13.9261 4.58385 13.9261 4.60866C13.9261 4.63348 13.9462 4.65359 13.971 4.65359C13.9959 4.65359 14.016 4.63348 14.016 4.60866C14.016 4.58385 13.9959 4.56374 13.971 4.56374C14.0521 4.56374 14.1239 4.52438 14.1685 4.46374C14.1239 4.40309 14.0521 4.36374 13.971 4.36374C13.9959 4.36374 14.016 4.34362 14.016 4.31881C14.016 4.294 13.9959 4.27388 13.971 4.27388C14.0244 4.27388 14.0737 4.25683 14.114 4.22788ZM14.114 4.22788C14.1348 4.21285 14.1533 4.19461 14.1685 4.17388C14.1535 4.15345 14.1354 4.13544 14.1149 4.12053C14.1107 4.13842 14.1085 4.15706 14.1085 4.17622C14.1085 4.19394 14.1104 4.21123 14.114 4.22788ZM13.7731 5.56041C13.7454 5.45554 13.6498 5.37823 13.5363 5.37823C13.5038 5.37823 13.4727 5.38456 13.4444 5.39605C13.4721 5.50092 13.5676 5.57823 13.6812 5.57823C13.7137 5.57823 13.7447 5.5719 13.7731 5.56041ZM13.918 5.27055C13.8903 5.16568 13.7948 5.08837 13.6812 5.08837C13.6487 5.08837 13.6177 5.0947 13.5893 5.10619C13.617 5.21106 13.7125 5.28837 13.8261 5.28837C13.8586 5.28837 13.8896 5.28205 13.918 5.27055ZM13.9806 4.85341C13.9385 4.81909 13.8847 4.79852 13.8261 4.79852L13.8165 4.7987C13.8587 4.83302 13.9125 4.85359 13.971 4.85359L13.9806 4.85341ZM12.5208 3.79231C12.582 3.74778 12.6218 3.67562 12.6218 3.59417C12.6218 3.55483 12.6125 3.51766 12.596 3.48472C12.5348 3.52925 12.4951 3.60141 12.4951 3.68286C12.4951 3.7222 12.5044 3.75937 12.5208 3.79231ZM12.8957 3.87196C12.9502 3.82704 12.9849 3.75901 12.9849 3.68286C12.9849 3.63389 12.9706 3.58827 12.9458 3.55C12.8913 3.59492 12.8565 3.66295 12.8565 3.7391C12.8565 3.78807 12.8709 3.83369 12.8957 3.87196ZM13.3454 3.76147C13.3409 3.81088 13.3218 3.85606 13.2923 3.89261C13.2968 3.84319 13.316 3.79801 13.3454 3.76147ZM13.7289 4.06621C13.7617 4.02457 13.7812 3.97205 13.7812 3.91498C13.7812 3.90231 13.7802 3.88987 13.7784 3.87772C13.7456 3.91936 13.7261 3.97188 13.7261 4.02895C13.7261 4.04162 13.7271 4.05406 13.7289 4.06621ZM14.4629 4.39535C14.5432 4.35515 14.5984 4.27212 14.5984 4.17622C14.5984 4.14949 14.5941 4.12376 14.5862 4.09967C14.5059 4.13988 14.4508 4.22291 14.4508 4.31881C14.4508 4.34554 14.455 4.37127 14.4629 4.39535ZM14.7442 4.55892C14.8562 4.53639 14.9406 4.43745 14.9406 4.31881C14.9406 4.30439 14.9394 4.29026 14.937 4.27653C14.825 4.29906 14.7406 4.398 14.7406 4.51664C14.7406 4.53106 14.7419 4.54519 14.7442 4.55892ZM15.3254 4.9934C15.4205 4.97365 15.4954 4.89875 15.5152 4.80364C15.4201 4.82338 15.3452 4.89829 15.3254 4.9934ZM15.2304 4.51278L15.2305 4.51664C15.2305 4.63656 15.1443 4.73634 15.0305 4.75745L15.0305 4.75359C15.0305 4.63368 15.1166 4.53389 15.2304 4.51278ZM15.3284 5.10619C15.3568 5.0947 15.3878 5.08837 15.4203 5.08837C15.5339 5.08837 15.6294 5.16568 15.6571 5.27055C15.6288 5.28204 15.5977 5.28837 15.5652 5.28837C15.4517 5.28837 15.3561 5.21106 15.3284 5.10619ZM15.1835 5.39605C15.2119 5.38456 15.2429 5.37823 15.2754 5.37823C15.389 5.37823 15.4845 5.45554 15.5122 5.56041C15.4838 5.5719 15.4528 5.57823 15.4203 5.57823C15.3067 5.57823 15.2112 5.50091 15.1835 5.39605ZM15.2754 5.86808C15.2168 5.86808 15.163 5.84751 15.1209 5.8132L15.1305 5.81301C15.1891 5.81301 15.2428 5.83358 15.285 5.8679L15.2754 5.86808ZM15.2754 5.66808C15.3002 5.66808 15.3203 5.64797 15.3203 5.62316C15.3203 5.59834 15.3002 5.57823 15.2754 5.57823C15.2506 5.57823 15.2305 5.59834 15.2305 5.62316C15.2305 5.64797 15.2506 5.66808 15.2754 5.66808ZM15.4203 5.37823C15.4451 5.37823 15.4652 5.35811 15.4652 5.3333C15.4652 5.30849 15.4451 5.28837 15.4203 5.28837C15.3955 5.28837 15.3754 5.30849 15.3754 5.3333C15.3754 5.35811 15.3955 5.37823 15.4203 5.37823ZM15.5652 5.08837C15.5901 5.08837 15.6102 5.06826 15.6102 5.04345C15.6102 5.01863 15.5901 4.99852 15.5652 4.99852C15.5404 4.99852 15.5203 5.01863 15.5203 5.04345C15.5203 5.06826 15.5404 5.08837 15.5652 5.08837ZM15.2754 4.79852C15.3002 4.79852 15.3203 4.7784 15.3203 4.75359C15.3203 4.72878 15.3002 4.70866 15.2754 4.70866C15.2506 4.70866 15.2305 4.72878 15.2305 4.75359C15.2305 4.7784 15.2506 4.79852 15.2754 4.79852ZM14.9855 4.56157C15.0103 4.56157 15.0305 4.54146 15.0305 4.51664C15.0305 4.49183 15.0103 4.47172 14.9855 4.47172C14.9607 4.47172 14.9406 4.49183 14.9406 4.51664C14.9406 4.54146 14.9607 4.56157 14.9855 4.56157ZM14.6957 4.36374C14.7205 4.36374 14.7406 4.34362 14.7406 4.31881C14.7406 4.294 14.7205 4.27388 14.6957 4.27388C14.6709 4.27388 14.6508 4.294 14.6508 4.31881C14.6508 4.34362 14.6709 4.36374 14.6957 4.36374ZM14.3534 4.22114C14.3782 4.22114 14.3984 4.20103 14.3984 4.17622C14.3984 4.1514 14.3782 4.13129 14.3534 4.13129C14.3286 4.13129 14.3085 4.1514 14.3085 4.17622C14.3085 4.20103 14.3286 4.22114 14.3534 4.22114ZM13.5363 3.9599C13.5611 3.9599 13.5812 3.93979 13.5812 3.91498C13.5812 3.89016 13.5611 3.87005 13.5363 3.87005C13.5114 3.87005 13.4913 3.89016 13.4913 3.91498C13.4913 3.93979 13.5114 3.9599 13.5363 3.9599ZM13.1015 3.78403C13.1263 3.78403 13.1464 3.76391 13.1464 3.7391C13.1464 3.71429 13.1263 3.69417 13.1015 3.69417C13.0767 3.69417 13.0565 3.71429 13.0565 3.7391C13.0565 3.76391 13.0767 3.78403 13.1015 3.78403ZM12.74 3.72779C12.7648 3.72779 12.7849 3.70767 12.7849 3.68286C12.7849 3.65805 12.7648 3.63793 12.74 3.63793C12.7152 3.63793 12.6951 3.65805 12.6951 3.68286C12.6951 3.70767 12.7152 3.72779 12.74 3.72779ZM12.3768 3.6391C12.4017 3.6391 12.4218 3.61898 12.4218 3.59417C12.4218 3.56936 12.4017 3.54924 12.3768 3.54924C12.352 3.54924 12.3319 3.56936 12.3319 3.59417C12.3319 3.61898 12.352 3.6391 12.3768 3.6391ZM13.8261 5.08837C13.8509 5.08837 13.871 5.06826 13.871 5.04345C13.871 5.01863 13.8509 4.99852 13.8261 4.99852C13.8013 4.99852 13.7812 5.01863 13.7812 5.04345C13.7812 5.06826 13.8013 5.08837 13.8261 5.08837ZM13.6812 5.37823C13.706 5.37823 13.7261 5.35811 13.7261 5.3333C13.7261 5.30849 13.706 5.28837 13.6812 5.28837C13.6564 5.28837 13.6363 5.30849 13.6363 5.3333C13.6363 5.35811 13.6564 5.37823 13.6812 5.37823ZM13.5363 5.66808C13.5611 5.66808 13.5812 5.64797 13.5812 5.62316C13.5812 5.59834 13.5611 5.57823 13.5363 5.57823C13.5114 5.57823 13.4913 5.59834 13.4913 5.62316C13.4913 5.64797 13.5114 5.66808 13.5363 5.66808Z" fill="white"/>
<path fill-rule="evenodd" clip-rule="evenodd" d="M11.1017 2.15411L10.8868 2.15763L10.8872 2.51075L10.4907 2.51053L10.4954 2.72491L10.8874 2.72513L10.8878 3.1276L11.1027 3.12409L11.1022 2.72525L11.4923 2.72547L11.4876 2.51109L11.102 2.51087L11.1017 2.15411Z" fill="#F6C540"/>
<path fill-rule="evenodd" clip-rule="evenodd" d="M5.78476 8.73413H16.1848V17.5676C16.1848 17.5676 15.8703 21.9677 10.9848 21.9677C6.09926 21.9677 5.78476 17.5676 5.78476 17.5676V8.73413Z" fill="#C51918"/>
<path fill-rule="evenodd" clip-rule="evenodd" d="M8.9236 9.03979C8.82823 9.03979 8.68143 9.10829 8.48684 9.18585C8.29225 9.2634 8.0879 9.43085 8.28737 9.59857C8.48684 9.76629 8.7724 10.1344 8.7724 9.99677C8.7724 9.85914 9.11352 9.72569 9.11352 9.79241C9.11352 9.85914 9.00791 9.99677 9.28494 9.99677C9.56197 9.99677 9.7047 10.0786 9.40911 10.0786C9.11352 10.0786 9.08141 10.2138 8.8893 10.2138C8.6972 10.2138 8.28737 10.0776 8.28737 9.99677C8.28737 9.91594 8.52471 10.3942 8.7724 10.3942C9.02009 10.3942 9.16078 10.6268 9.28494 10.5105C9.40911 10.3942 9.39442 10.3942 9.59501 10.3942C9.79561 10.3942 9.7224 9.9243 9.7224 9.9243C9.7224 9.9243 9.01896 9.03979 8.9236 9.03979Z" fill="#E8AA00"/>
<path fill-rule="evenodd" clip-rule="evenodd" d="M12.9371 9.03979C13.0324 9.03979 13.1792 9.10829 13.3738 9.18585C13.5684 9.2634 13.7728 9.43085 13.5733 9.59857C13.3738 9.76629 13.0883 10.1344 13.0883 9.99677C13.0883 9.85914 12.7471 9.72569 12.7471 9.79241C12.7471 9.85914 12.8527 9.99677 12.5757 9.99677C12.2987 9.99677 12.156 10.0786 12.4515 10.0786C12.7471 10.0786 12.7793 10.2138 12.9714 10.2138C13.1635 10.2138 13.5733 10.0776 13.5733 9.99677C13.5733 9.91594 13.3359 10.3942 13.0883 10.3942C12.8406 10.3942 12.6999 10.6268 12.5757 10.5105C12.4515 10.3942 12.4662 10.3942 12.2656 10.3942C12.065 10.3942 12.1383 9.9243 12.1383 9.9243C12.1383 9.9243 12.8417 9.03979 12.9371 9.03979Z" fill="#E8AA00"/>
<path fill-rule="evenodd" clip-rule="evenodd" d="M14.2119 10.0001C14.4113 10.4651 12.8834 12.1922 12.8834 12.1922H12.7123C12.6404 12.1922 12.5067 12.0153 12.3452 11.8017C12.2346 11.6553 12.1109 11.4916 11.9851 11.3559C11.7486 11.1006 11.874 10.8861 11.9908 10.6861C12.0267 10.6247 12.0618 10.5646 12.0854 10.5052C12.1364 10.3764 12.1437 10.3251 12.152 10.2664C12.16 10.2098 12.1689 10.1463 12.2191 10.0001C12.2927 9.7853 12.5494 9.50809 12.7274 9.31588C12.7962 9.24165 12.8532 9.18011 12.8834 9.13971C12.9787 9.01221 12.9064 9.01295 12.7074 9.01498C12.6801 9.01526 12.6504 9.01557 12.6185 9.01557C12.3536 9.01557 11.8476 9.13971 11.6963 9.28471C11.5451 9.42971 11.3865 9.46064 11.1534 9.46064C10.9204 9.46064 11.0641 9.61758 11.2763 9.72356C11.0478 9.76725 10.9013 10.1482 10.8153 10.4864C10.7683 10.1482 10.6647 9.76725 10.4362 9.72356C10.6484 9.61758 10.7922 9.46064 10.5591 9.46064C10.3261 9.46064 10.1675 9.42971 10.0162 9.28471C9.86497 9.13971 9.35896 9.01557 9.09406 9.01557C9.0621 9.01557 9.03242 9.01526 9.00513 9.01498C8.80617 9.01295 8.73386 9.01221 8.82917 9.13971C8.85936 9.18011 8.91636 9.24165 8.9851 9.31588C9.16312 9.50809 9.41985 9.7853 9.49349 10.0001C9.5436 10.1463 9.55256 10.2098 9.56056 10.2664C9.56886 10.3251 9.57612 10.3764 9.62715 10.5052C9.65071 10.5646 9.68581 10.6247 9.72171 10.6861C9.83857 10.8861 9.96394 11.1006 9.7274 11.3559C9.60165 11.4916 9.47797 11.6553 9.36732 11.8017C9.20586 12.0153 9.07215 12.1922 9.00025 12.1922H8.82917C8.82917 12.1922 7.30125 10.4651 7.50061 10.0001C7.57767 9.82044 7.70196 9.65111 7.80481 9.51098C7.96806 9.28857 8.07732 9.13971 7.85804 9.13971C7.50061 9.13971 6.07574 10.0432 6.07574 12.0804C6.07574 14.1177 6.20736 15.2763 6.51288 16.088C6.72137 16.642 6.5304 17.1799 6.38807 17.5809C6.32184 17.7674 6.26614 17.9243 6.26614 18.0394C6.26614 18.4016 6.82714 18.0842 6.82714 17.8574C6.82714 17.7495 6.90396 17.9102 6.98453 18.0786C7.07336 18.2644 7.16675 18.4597 7.16675 18.3151C7.16675 18.1608 7.25619 17.9979 7.33499 17.8543C7.39702 17.7413 7.45246 17.6403 7.45246 17.565C7.45246 17.4898 7.53116 17.4925 7.61922 17.4957C7.73108 17.4996 7.85804 17.5041 7.85804 17.3498C7.85804 17.2458 7.89844 17.225 7.94874 17.1991C8.03168 17.1564 8.14153 17.0999 8.14153 16.6331C8.14153 16.2871 8.2108 16.4097 8.29025 16.5503C8.36337 16.6797 8.44512 16.8244 8.48945 16.6331C8.49376 16.6145 8.53966 16.5343 8.5964 16.4351C8.67898 16.2908 8.78452 16.1063 8.81828 16.0132C8.71421 16.4206 8.4645 16.8452 8.30594 17.0475C8.14153 17.2572 7.85804 17.7125 7.85804 17.7125C7.85804 17.7125 8.12243 17.8599 8.30594 17.7125C8.40844 17.6301 8.41536 17.7076 8.4229 17.7921C8.42886 17.8588 8.43521 17.9299 8.48945 17.9299C8.5235 17.9299 8.55557 17.9355 8.58412 17.9404C8.60525 17.9441 8.62446 17.9474 8.64114 17.9479C8.57987 18.104 8.52492 18.3535 8.70923 18.1868C8.84085 18.0677 8.93313 18.0194 8.99427 17.9874C9.06503 17.9503 9.09406 17.9351 9.09406 17.8574C9.09406 17.7798 9.12281 17.8061 9.16785 17.8472C9.20693 17.883 9.25828 17.9299 9.31376 17.9299C9.38524 17.9299 9.40012 17.8304 9.42176 17.6856C9.43627 17.5886 9.45382 17.4712 9.49349 17.3498C9.50273 17.3216 9.51141 17.2944 9.51964 17.2686C9.59945 17.0189 9.63667 16.9024 9.7274 17.2175C9.7698 17.3647 9.84469 17.469 9.9099 17.5598C9.99863 17.6833 10.0695 17.7819 10.0162 17.9299C9.99538 17.9879 9.96924 18.0534 9.94125 18.1235C9.8452 18.3641 9.7274 18.6592 9.7274 18.8916C9.7274 19.0298 9.60164 19.2181 9.48344 19.395C9.34491 19.6024 9.21677 19.7943 9.31376 19.8716C9.49349 20.0148 9.276 20.4971 9.09406 20.7445C8.91213 20.9919 8.94222 21.294 9.21785 21.294C9.3687 21.294 9.45055 21.3487 9.52466 21.3983C9.58598 21.4393 9.64199 21.4767 9.7274 21.4767C9.91603 21.4767 10.0162 21.3837 10.0162 21.3837C10.0162 21.3837 10.1327 21.5598 10.3261 21.5598C10.5195 21.5598 10.5591 21.3837 10.5591 21.3837L10.7023 21.5598L10.7134 20.789V21.5598L11.1534 21.3837C11.1534 21.3837 11.1931 21.5598 11.3865 21.5598C11.5799 21.5598 11.6963 21.3837 11.6963 21.3837C11.6963 21.3837 11.7965 21.4767 11.9851 21.4767C12.0705 21.4767 12.1266 21.4393 12.1879 21.3983C12.262 21.3487 12.3438 21.294 12.4947 21.294C12.7703 21.294 12.8004 20.9919 12.6185 20.7445C12.4365 20.4971 12.2191 20.0148 12.3988 19.8716C12.4958 19.7943 12.3676 19.6024 12.2291 19.395C12.1109 19.2181 11.9851 19.0298 11.9851 18.8916C11.9851 18.6592 11.8673 18.3641 11.7713 18.1235C11.7433 18.0534 11.7172 17.9879 11.6963 17.9299C11.6431 17.7819 11.7139 17.6833 11.8026 17.5598C11.8679 17.469 11.9427 17.3647 11.9851 17.2175C12.0759 16.9024 12.1131 17.0189 12.1929 17.2686C12.2011 17.2944 12.2098 17.3216 12.2191 17.3498C12.2587 17.4712 12.2763 17.5886 12.2908 17.6856C12.3124 17.8304 12.3273 17.9299 12.3988 17.9299C12.4543 17.9299 12.5056 17.883 12.5447 17.8472C12.5897 17.8061 12.6185 17.7798 12.6185 17.8574C12.6185 17.9351 12.6475 17.9503 12.7183 17.9874C12.7794 18.0194 12.8717 18.0677 13.0033 18.1868C13.1876 18.3535 13.1327 18.104 13.0714 17.9479C13.0881 17.9474 13.1073 17.9441 13.1284 17.9404C13.157 17.9355 13.189 17.9299 13.2231 17.9299C13.2773 17.9299 13.2837 17.8588 13.2896 17.7921C13.2972 17.7076 13.3041 17.6301 13.4066 17.7125C13.5901 17.8599 13.8545 17.7125 13.8545 17.7125C13.8545 17.7125 13.571 17.2572 13.4066 17.0475C13.248 16.8452 12.9983 16.4206 12.8943 16.0132C12.928 16.1063 13.0336 16.2908 13.1161 16.4351C13.1729 16.5343 13.2188 16.6145 13.2231 16.6331C13.2674 16.8244 13.3492 16.6797 13.4223 16.5503C13.5017 16.4097 13.571 16.2871 13.571 16.6331C13.571 17.0999 13.6809 17.1564 13.7638 17.1991C13.8141 17.225 13.8545 17.2458 13.8545 17.3498C13.8545 17.5041 13.9815 17.4996 14.0933 17.4957C14.1814 17.4925 14.2601 17.4898 14.2601 17.565C14.2601 17.6403 14.3155 17.7413 14.3776 17.8543C14.4563 17.9979 14.5458 18.1608 14.5458 18.3151C14.5458 18.4597 14.6392 18.2644 14.728 18.0786C14.8086 17.9102 14.8854 17.7495 14.8854 17.8574C14.8854 18.0842 15.4464 18.4016 15.4464 18.0394C15.4464 17.9243 15.3907 17.7674 15.3245 17.5809C15.1821 17.1799 14.9912 16.642 15.1997 16.088C15.5052 15.2763 15.6368 14.1177 15.6368 12.0804C15.6368 10.0432 14.2119 9.13971 13.8545 9.13971C13.6352 9.13971 13.7445 9.28857 13.9077 9.51098C14.0106 9.65111 14.1349 9.82044 14.2119 10.0001ZM12.8834 15.9682C12.8868 15.9832 12.8904 15.9982 12.8943 16.0132C12.8873 15.9939 12.8834 15.9785 12.8834 15.9682ZM13.0033 17.8574C13.0033 17.8065 13.0383 17.8636 13.0714 17.9479C13.0293 17.9492 13.0033 17.9324 13.0033 17.8574ZM8.64114 17.9479C8.68325 17.9492 8.70923 17.9324 8.70923 17.8574C8.70923 17.8065 8.67426 17.8636 8.64114 17.9479ZM8.81828 16.0132C8.82526 15.9939 8.82917 15.9785 8.82917 15.9682C8.82575 15.9832 8.82211 15.9982 8.81828 16.0132Z" fill="#F7FCFF"/>
<path fill-rule="evenodd" clip-rule="evenodd" d="M8.18874 19.2018C8.18874 19.0613 8.54827 18.7354 8.54827 18.7354V18.763C8.59871 18.8038 8.92003 19.0687 8.92003 19.1982C8.92003 19.2786 8.87842 19.3951 8.84281 19.4949C8.81616 19.5695 8.79286 19.6347 8.79286 19.6684C8.79286 19.691 8.80227 19.6748 8.82018 19.6439C8.86456 19.5673 8.9611 19.4007 9.09596 19.5121C9.27459 19.6596 9.27351 19.8772 9.27282 20.0151C9.27278 20.0234 9.27274 20.0313 9.27274 20.0389C9.27274 20.0819 9.27266 20.0816 9.26693 20.0611C9.2546 20.017 9.21611 19.8794 9.09596 19.8794C8.92003 19.8794 8.79286 20.0389 8.79286 20.0389V20.311C8.79286 20.311 8.81517 20.5356 8.92003 20.4233C9.02489 20.311 9.0472 20.5619 8.92003 20.5619C8.85511 20.5619 8.78834 20.6308 8.72296 20.6982C8.66028 20.7629 8.59888 20.8263 8.54165 20.8263V20.8037C8.48743 20.7994 8.44275 20.7436 8.39718 20.6867C8.34773 20.625 8.29723 20.5619 8.2323 20.5619C8.10513 20.5619 8.12745 20.311 8.2323 20.4233C8.33716 20.5356 8.35948 20.311 8.35948 20.311V20.0389C8.35948 20.0389 8.2323 19.8794 8.05638 19.8794C7.93623 19.8794 7.89774 20.017 7.88541 20.0611C7.87968 20.0816 7.8796 20.0819 7.8796 20.0389C7.8796 20.0313 7.87956 20.0234 7.87951 20.0151C7.87883 19.8772 7.87774 19.6596 8.05638 19.5121C8.19123 19.4007 8.28778 19.5673 8.33215 19.6439C8.35006 19.6748 8.35948 19.691 8.35948 19.6684C8.35948 19.6347 8.3282 19.5701 8.29242 19.4963C8.2446 19.3975 8.18874 19.2822 8.18874 19.2018Z" fill="#E8AA00"/>
<path fill-rule="evenodd" clip-rule="evenodd" d="M12.9713 19.2018C12.9713 19.0613 13.3309 18.7354 13.3309 18.7354V18.763C13.3813 18.8038 13.7026 19.0687 13.7026 19.1982C13.7026 19.2786 13.661 19.3951 13.6254 19.4949C13.5988 19.5695 13.5755 19.6347 13.5755 19.6684C13.5755 19.691 13.5849 19.6748 13.6028 19.6439C13.6471 19.5673 13.7437 19.4007 13.8786 19.5121C14.0572 19.6596 14.0561 19.8772 14.0554 20.0151C14.0554 20.0234 14.0553 20.0313 14.0553 20.0389C14.0553 20.0819 14.0552 20.0816 14.0495 20.0611C14.0372 20.017 13.9987 19.8794 13.8786 19.8794C13.7026 19.8794 13.5755 20.0389 13.5755 20.0389V20.311C13.5755 20.311 13.5978 20.5356 13.7026 20.4233C13.8075 20.311 13.8298 20.5619 13.7026 20.5619C13.6377 20.5619 13.5709 20.6308 13.5056 20.6982C13.4429 20.7629 13.3815 20.8263 13.3242 20.8263V20.8037C13.27 20.7994 13.2253 20.7436 13.1798 20.6867C13.1303 20.625 13.0798 20.5619 13.0149 20.5619C12.8877 20.5619 12.91 20.311 13.0149 20.4233C13.1198 20.5356 13.1421 20.311 13.1421 20.311V20.0389C13.1421 20.0389 13.0149 19.8794 12.839 19.8794C12.7188 19.8794 12.6803 20.017 12.668 20.0611C12.6623 20.0816 12.6622 20.0819 12.6622 20.0389C12.6622 20.0313 12.6621 20.0234 12.6621 20.0151C12.6614 19.8772 12.6603 19.6596 12.839 19.5121C12.9738 19.4007 13.0704 19.5673 13.1147 19.6439C13.1327 19.6748 13.1421 19.691 13.1421 19.6684C13.1421 19.6347 13.1108 19.5701 13.075 19.4963C13.0272 19.3975 12.9713 19.2822 12.9713 19.2018Z" fill="#E8AA00"/>
<path fill-rule="evenodd" clip-rule="evenodd" d="M7.83068 18.3592C8.15115 18.3592 8.21595 17.7497 8.21595 17.7497C8.21595 17.7497 8.48482 17.471 8.48482 17.6766C8.48482 17.7861 8.40838 17.9242 8.35023 18.0292C8.29933 18.1212 8.26245 18.1878 8.30316 18.1878H8.74694C9.11285 18.1878 8.68269 18.3592 8.48482 18.4357C8.39506 18.4703 8.33141 18.4885 8.27034 18.5058C8.1968 18.5268 8.12701 18.5467 8.01991 18.5931C7.82387 18.678 7.73977 19.2373 7.83068 19.4169C7.92159 19.5964 7.73977 19.5207 7.66462 19.4169C7.62288 19.3592 7.5924 19.4386 7.5499 19.5493C7.5159 19.6379 7.4742 19.7465 7.41287 19.8211C7.29442 19.9651 7.29569 19.8378 7.29842 19.5638C7.29887 19.5186 7.29936 19.4695 7.29936 19.4169C7.29936 19.1741 7.34782 19.1719 7.41991 19.1687C7.45815 19.1669 7.50303 19.1649 7.55086 19.1265C7.65415 19.0436 7.66655 19.001 7.69777 18.8935C7.70826 18.8574 7.72087 18.814 7.73977 18.7594C7.81491 18.5419 7.41287 18.8857 7.29936 19.0485C7.23024 19.1477 7.1821 19.1585 7.11009 19.1747C7.06384 19.185 7.00774 19.1977 6.92992 19.2373C6.80342 19.3017 6.83775 19.1751 6.87955 19.0209C6.90351 18.9325 6.92992 18.8351 6.92992 18.7594C6.92992 18.6288 7.00848 18.6623 7.10916 18.7052C7.16871 18.7306 7.23601 18.7594 7.29936 18.7594C7.46126 18.7594 7.54487 18.691 7.64807 18.6066C7.65353 18.6021 7.65904 18.5976 7.66462 18.5931C7.74743 18.5257 7.56705 18.546 7.35224 18.5702C7.27877 18.5785 7.20128 18.5872 7.12891 18.5931C6.96372 18.6064 6.95269 18.5965 6.91145 18.5594C6.88179 18.5327 6.83652 18.4919 6.70706 18.4357C6.39758 18.3011 6.906 18.3592 7.12891 18.4357C7.25286 18.4782 7.35686 18.4498 7.47988 18.4162C7.57808 18.3894 7.68841 18.3592 7.83068 18.3592ZM14.0456 18.3592C13.7251 18.3592 13.6603 17.7497 13.6603 17.7497C13.6603 17.7497 13.3914 17.471 13.3914 17.6766C13.3914 17.7861 13.4679 17.9242 13.526 18.0292C13.5769 18.1212 13.6138 18.1878 13.5731 18.1878H13.1293C12.7634 18.1878 13.1936 18.3592 13.3914 18.4357C13.4812 18.4703 13.5448 18.4885 13.6059 18.5058C13.6795 18.5268 13.7492 18.5467 13.8563 18.5931C14.0524 18.678 14.1365 19.2373 14.0456 19.4169C13.9547 19.5964 14.1365 19.5207 14.2116 19.4169C14.2534 19.3592 14.2839 19.4386 14.3264 19.5493C14.3604 19.6379 14.4021 19.7465 14.4634 19.8211C14.5818 19.9651 14.5806 19.8378 14.5778 19.5638C14.5774 19.5186 14.5769 19.4695 14.5769 19.4169C14.5769 19.1741 14.5284 19.1719 14.4563 19.1687C14.4181 19.1669 14.3732 19.1649 14.3254 19.1265C14.2221 19.0436 14.2097 19.001 14.1785 18.8935C14.168 18.8574 14.1554 18.814 14.1365 18.7594C14.0613 18.5419 14.4634 18.8857 14.5769 19.0485C14.646 19.1477 14.6942 19.1585 14.7662 19.1747C14.8124 19.185 14.8685 19.1977 14.9463 19.2373C15.0728 19.3017 15.0385 19.1751 14.9967 19.0209C14.9727 18.9325 14.9463 18.8351 14.9463 18.7594C14.9463 18.6288 14.8678 18.6623 14.7671 18.7052C14.7075 18.7306 14.6402 18.7594 14.5769 18.7594C14.415 18.7594 14.3314 18.691 14.2282 18.6066C14.2227 18.6021 14.2172 18.5976 14.2116 18.5931C14.1288 18.5257 14.3092 18.546 14.524 18.5702C14.5975 18.5785 14.675 18.5872 14.7473 18.5931C14.9125 18.6064 14.9236 18.5965 14.9648 18.5594C14.9945 18.5327 15.0397 18.4919 15.1692 18.4357C15.4787 18.3011 14.9703 18.3592 14.7473 18.4357C14.6234 18.4782 14.5194 18.4498 14.3964 18.4162C14.2982 18.3894 14.1878 18.3592 14.0456 18.3592Z" fill="#E8AA00"/>
<path fill-rule="evenodd" clip-rule="evenodd" d="M9.047 12.3411H12.9225V15.8754C12.9225 15.8754 12.5065 17.6359 10.9848 17.6359C9.46304 17.6359 9.047 15.8754 9.047 15.8754V12.3411Z" fill="#C51918"/>
<path fill-rule="evenodd" clip-rule="evenodd" d="M11.5073 12.2898H10.4928V14.3188H9.04349V15.0434H10.4928V17.6521H11.5073V15.0434H12.9565V14.3188H11.5073V12.2898Z" fill="#F7FCFF"/>
<path fill-rule="evenodd" clip-rule="evenodd" d="M9.70084 13.3088C9.79812 13.3088 9.84453 13.2268 9.79308 13.1545C9.76603 13.1165 9.70999 13.1055 9.6679 13.13C9.66413 13.1321 9.66059 13.1345 9.6573 13.1371C9.64181 13.1333 9.62287 13.128 9.60104 13.1213C9.58145 13.1153 9.56018 13.1155 9.54076 13.122C9.51723 13.1298 9.50388 13.1057 9.51522 12.9558C9.52605 12.914 9.58336 12.8881 9.71688 12.8881C9.96085 12.8881 10.0611 12.9142 10.0611 12.9371V13.2956L9.94268 13.4025C9.88562 13.454 9.92604 13.542 10.0067 13.542H10.0611V13.8165C9.98664 13.8746 9.9201 13.9017 9.86181 13.9017C9.64356 13.9017 9.52094 13.8204 9.51756 13.7243C9.51849 13.6961 9.51976 13.6754 9.52069 13.6612C9.52631 13.663 9.53258 13.665 9.53949 13.6674C9.55946 13.6743 9.5815 13.6746 9.60171 13.6683L9.61001 13.6656C9.61782 13.6629 9.62235 13.6614 9.62489 13.663C9.62839 13.6652 9.62805 13.6735 9.62724 13.6933L9.62724 13.6933L9.62724 13.6933C9.62694 13.7006 9.62658 13.7094 9.62632 13.7201C9.62523 13.7652 9.66489 13.8026 9.7149 13.8036C9.76492 13.8046 9.80635 13.7688 9.80744 13.7237C9.81126 13.5653 9.72245 13.4743 9.57503 13.5052C9.48804 13.4792 9.42719 13.4822 9.37972 13.5358C9.34485 13.5752 9.34018 13.6076 9.33649 13.7243C9.3432 13.9249 9.55469 14.0652 9.86181 14.0652C9.9802 14.0652 10.0975 14.0123 10.2142 13.9118C10.2321 13.8964 10.2422 13.875 10.2422 13.8527V13.4603C10.2422 13.4338 10.2283 13.4103 10.2067 13.3954L10.2157 13.3873C10.2327 13.372 10.2422 13.3512 10.2422 13.3295V12.9371C10.2422 12.7696 10.0694 12.7246 9.71688 12.7246C9.5091 12.7246 9.37317 12.7859 9.3367 12.931C9.31614 13.1789 9.38959 13.3268 9.57114 13.2845C9.62731 13.3006 9.66889 13.3088 9.70084 13.3088ZM12.2463 13.1545C12.1948 13.2268 12.2412 13.3088 12.3385 13.3088C12.3705 13.3088 12.412 13.3006 12.4682 13.2845C12.6498 13.3268 12.7232 13.1789 12.7027 12.931C12.6662 12.7859 12.5302 12.7246 12.3225 12.7246C11.9699 12.7246 11.7971 12.7696 11.7971 12.9371V13.3295C11.7971 13.3512 11.8067 13.372 11.8236 13.3873L11.8326 13.3954C11.811 13.4103 11.7971 13.4338 11.7971 13.4603V13.8527C11.7971 13.875 11.8073 13.8964 11.8252 13.9118C11.9419 14.0123 12.0592 14.0652 12.1775 14.0652C12.4847 14.0652 12.6962 13.9249 12.7029 13.7243C12.6992 13.6076 12.6945 13.5752 12.6596 13.5358C12.6122 13.4822 12.5513 13.4792 12.4643 13.5052C12.3169 13.4743 12.2281 13.5653 12.2319 13.7237C12.233 13.7688 12.2744 13.8046 12.3244 13.8036C12.3745 13.8026 12.4141 13.7652 12.413 13.7201C12.4128 13.7094 12.4124 13.7005 12.4121 13.6933C12.4113 13.6735 12.411 13.6652 12.4145 13.663C12.417 13.6614 12.4215 13.6629 12.4293 13.6656L12.4376 13.6683C12.4578 13.6746 12.4799 13.6743 12.4999 13.6674C12.5068 13.665 12.513 13.663 12.5187 13.6612C12.5196 13.6754 12.5209 13.6961 12.5218 13.7243C12.5184 13.8204 12.3958 13.9017 12.1775 13.9017C12.1193 13.9017 12.0527 13.8746 11.9783 13.8165V13.542H12.0326C12.1133 13.542 12.1537 13.454 12.0967 13.4025L11.9783 13.2956V12.9371C11.9783 12.9142 12.0785 12.8881 12.3225 12.8881C12.456 12.8881 12.5133 12.914 12.5241 12.9558C12.5355 13.1057 12.5221 13.1298 12.4986 13.122C12.4792 13.1155 12.4579 13.1153 12.4383 13.1213C12.4165 13.128 12.3975 13.1333 12.3821 13.1371C12.3788 13.1345 12.3752 13.1321 12.3714 13.13C12.3294 13.1055 12.2733 13.1165 12.2463 13.1545ZM12.5515 13.6539L12.5477 13.6538L12.5502 13.654L12.5515 13.6539ZM12.3385 15.9175C12.2412 15.9175 12.1948 15.8355 12.2463 15.7632C12.2733 15.7252 12.3294 15.7142 12.3714 15.7386C12.3752 15.7408 12.3788 15.7432 12.3821 15.7458C12.3975 15.7419 12.4165 15.7367 12.4383 15.73C12.4579 15.724 12.4792 15.7242 12.4986 15.7307C12.5221 15.7385 12.5355 15.7144 12.5241 15.5644C12.5133 15.5226 12.456 15.4968 12.3225 15.4968C12.0785 15.4968 11.9783 15.5229 11.9783 15.5458V15.9043L12.0967 16.0112C12.1537 16.0627 12.1133 16.1507 12.0326 16.1507H11.9783V16.4252C12.0527 16.4833 12.1193 16.5104 12.1775 16.5104C12.3958 16.5104 12.5184 16.4291 12.5218 16.333C12.5209 16.3048 12.5196 16.2841 12.5187 16.2699C12.513 16.2716 12.5068 16.2737 12.4999 16.2761C12.4799 16.283 12.4578 16.2833 12.4376 16.277L12.4293 16.2743C12.4215 16.2716 12.417 16.2701 12.4145 16.2717C12.411 16.2739 12.4113 16.2822 12.4121 16.302C12.4124 16.3092 12.4128 16.3181 12.413 16.3288C12.4141 16.3739 12.3745 16.4113 12.3244 16.4123C12.2744 16.4133 12.233 16.3775 12.2319 16.3323C12.2281 16.174 12.3169 16.083 12.4643 16.1139C12.5513 16.0879 12.6122 16.0909 12.6596 16.1445C12.6945 16.1839 12.6992 16.2163 12.7029 16.333C12.6962 16.5336 12.4847 16.6739 12.1775 16.6739C12.0592 16.6739 11.9419 16.621 11.8252 16.5205C11.8073 16.5051 11.7971 16.4837 11.7971 16.4614V16.069C11.7971 16.0425 11.811 16.019 11.8326 16.0041L11.8236 15.996C11.8067 15.9807 11.7971 15.9599 11.7971 15.9382V15.5458C11.7971 15.3783 11.9699 15.3333 12.3225 15.3333C12.5302 15.3333 12.6662 15.3946 12.7027 15.5397C12.7232 15.7876 12.6498 15.9355 12.4682 15.8932C12.412 15.9093 12.3705 15.9175 12.3385 15.9175ZM9.70084 15.9175C9.79812 15.9175 9.84453 15.8355 9.79308 15.7632C9.76603 15.7252 9.70999 15.7142 9.6679 15.7386C9.66413 15.7408 9.66059 15.7432 9.6573 15.7458C9.64181 15.7419 9.62287 15.7367 9.60104 15.73C9.58145 15.724 9.56018 15.7242 9.54076 15.7307C9.51723 15.7385 9.50388 15.7144 9.51522 15.5644C9.52605 15.5226 9.58336 15.4968 9.71688 15.4968C9.96085 15.4968 10.0611 15.5229 10.0611 15.5458V15.9043L9.94268 16.0112C9.88562 16.0627 9.92604 16.1507 10.0067 16.1507H10.0611V16.4252C9.98664 16.4833 9.9201 16.5104 9.86181 16.5104C9.64356 16.5104 9.52094 16.4291 9.51756 16.333C9.51849 16.3048 9.51976 16.2841 9.52069 16.2699C9.52631 16.2716 9.53258 16.2737 9.53949 16.2761C9.55946 16.283 9.5815 16.2833 9.60171 16.277C9.60482 16.276 9.60758 16.2751 9.61001 16.2743C9.61782 16.2716 9.62235 16.2701 9.62489 16.2717C9.62839 16.2739 9.62805 16.2822 9.62724 16.302C9.62694 16.3092 9.62658 16.3181 9.62632 16.3288C9.62523 16.3739 9.66489 16.4113 9.7149 16.4123C9.76492 16.4133 9.80635 16.3775 9.80744 16.3323C9.81126 16.174 9.72245 16.083 9.57503 16.1139C9.48804 16.0879 9.42719 16.0909 9.37972 16.1445C9.34485 16.1839 9.34018 16.2163 9.33649 16.333C9.3432 16.5336 9.55469 16.6739 9.86181 16.6739C9.9802 16.6739 10.0975 16.621 10.2142 16.5205C10.2321 16.5051 10.2422 16.4837 10.2422 16.4614V16.069C10.2422 16.0425 10.2283 16.019 10.2067 16.0041L10.2157 15.996C10.2327 15.9807 10.2422 15.9599 10.2422 15.9382V15.5458C10.2422 15.3783 10.0694 15.3333 9.71688 15.3333C9.5091 15.3333 9.37317 15.3946 9.3367 15.5397C9.31614 15.7876 9.38959 15.9355 9.57114 15.8932C9.62731 15.9093 9.66889 15.9175 9.70084 15.9175Z" fill="#F7FCFF"/>
</g>
</g>
<defs>
<clipPath id="clip0_30_18045">
<rect width="32" height="24" fill="white"/>
</clipPath>
</defs>
</svg>
