<svg width="32" height="24" viewBox="0 0 32 24" fill="none" xmlns="http://www.w3.org/2000/svg">
<g clip-path="url(#clip0_30_18092)">
<rect width="32" height="24" fill="white"/>
<path fill-rule="evenodd" clip-rule="evenodd" d="M0 0V24H32V0H0Z" fill="#2E42A5"/>
<mask id="mask0_30_18092" style="mask-type:luminance" maskUnits="userSpaceOnUse" x="0" y="0" width="32" height="24">
<path fill-rule="evenodd" clip-rule="evenodd" d="M0 0V24H32V0H0Z" fill="white"/>
</mask>
<g mask="url(#mask0_30_18092)">
<path fill-rule="evenodd" clip-rule="evenodd" d="M0 0V8H32V0H0Z" fill="#F7FCFF"/>
<path fill-rule="evenodd" clip-rule="evenodd" d="M0 16V24H32V16H0Z" fill="#C51918"/>
<path fill-rule="evenodd" clip-rule="evenodd" d="M13.7402 5.03629C13.7402 5.03629 11.6355 4.04236 9.01767 4.04236C6.39987 4.04236 4.29514 5.03629 4.29514 5.03629C4.29514 5.03629 4.52936 9.03101 4.89956 11.1472C5.05763 12.0508 5.81736 13.3686 6.50517 13.9924C7.28913 14.7033 9.01767 15.5456 9.01767 15.5456C9.51788 15.2009 10.4531 15.0459 11.6486 13.9924C12.844 12.9388 13.1411 11.1472 13.1411 11.1472L13.7402 5.03629Z" fill="#2E42A5"/>
<path d="M13.462 4.90576L14.3385 5.34348L13.7368 11.3661C13.526 12.6408 12.9987 13.646 12.1554 14.3892C11.698 14.7923 11.2515 15.0936 10.7727 15.3439C10.5025 15.4851 9.37215 16.0674 9.382 16.0626C9.26875 16.1172 9.18286 16.165 9.11311 16.2131L9.00378 16.2884L8.88575 16.2309C7.71499 15.6604 6.62268 14.8927 6.07987 14.4004C5.33888 13.7285 4.5576 12.3534 4.39103 11.4013C4.14199 9.97761 3.91864 8.0167 3.7619 5.34348L4.5493 4.93155C4.70486 7.58463 4.89265 9.69954 5.1372 11.0975C5.28189 11.9246 6.00234 13.1926 6.65957 13.7886C7.1453 14.2291 7.92784 14.7175 9.00378 15.2487C9.06796 15.2111 9.13909 15.1739 9.22045 15.1347C9.22274 15.1336 9.95466 14.8085 10.209 14.6756C10.6552 14.4423 11.0699 14.1625 11.4968 13.7862C12.2454 13.1265 12.7126 12.238 12.9016 11.1094L13.462 4.90576Z" fill="#C51918"/>
<path fill-rule="evenodd" clip-rule="evenodd" d="M5.54202 11.0242C5.54202 11.0242 5.7328 11.6079 6.0855 12.2633C6.60346 12.3999 6.92037 12.3928 7.02055 12.2806C7.31033 11.9563 8.34138 11.8177 8.53375 12.0948C8.65244 12.2657 9.06962 12.3839 9.52578 12.2275L9.47492 12.2365C9.55416 12.2077 9.73975 12.1341 9.85414 12.0888C9.90195 12.0699 9.93732 12.0558 9.94729 12.0521C10.119 11.9873 10.2452 11.9533 10.3738 11.9437C10.5349 11.9317 10.6894 11.9617 10.8531 12.0397C11.2131 12.2111 11.6571 12.2909 11.9595 12.239C12.3292 11.5952 12.5928 11.0242 12.5928 11.0242L10.8375 9.3396L10.1398 10.0967L8.98067 8.44409L8.01021 10.0967L7.26606 9.3396L5.54202 11.0242ZM6.55678 13.0145C6.47575 12.9052 6.39918 12.7924 6.3272 12.6784C6.77646 12.7604 7.08152 12.7173 7.25123 12.5273C7.33139 12.4376 7.56923 12.3506 7.83983 12.3142C7.96599 12.2973 8.08703 12.293 8.17983 12.3019C8.22242 12.306 8.25674 12.3126 8.27984 12.3206C8.28732 12.3232 8.28708 12.3229 8.27932 12.3117L8.2779 12.3097C8.4848 12.6056 9.04659 12.7642 9.57664 12.5715L9.52578 12.5805C9.66914 12.5364 9.92733 12.4349 10.0201 12.3984L10.0202 12.3984L10.0525 12.3857C10.1996 12.3302 10.301 12.3029 10.3956 12.2958C10.5047 12.2877 10.6077 12.3077 10.7244 12.3633C11.0431 12.5151 11.4136 12.6054 11.7402 12.6077C11.6705 12.7203 11.5987 12.8322 11.5253 12.941C11.2715 12.9999 10.8788 12.9225 10.562 12.7495C10.4139 12.6686 10.2725 12.6372 10.1251 12.6497C10.0085 12.6597 9.89547 12.6946 9.74275 12.7607C9.73384 12.7645 9.70247 12.7788 9.66023 12.798C9.56035 12.8434 9.39965 12.9164 9.33125 12.945L9.38868 12.9334C8.99224 13.0863 8.64522 12.9736 8.54614 12.8099C8.36934 12.5179 7.44272 12.6608 7.18202 12.9954C7.11252 13.0846 6.90278 13.1009 6.55678 13.0145ZM6.90178 13.4234C6.92131 13.4435 6.94103 13.4633 6.96095 13.4827C7.86414 14.3633 8.98067 14.795 8.98067 14.795C8.98067 14.795 10.3105 14.3926 11.0653 13.5453C11.1297 13.473 11.1943 13.3947 11.2584 13.312C10.9832 13.2983 10.6806 13.2087 10.418 13.0653C10.3214 13.0126 10.2383 12.9941 10.1502 13.0016C10.0722 13.0082 9.98675 13.0346 9.86139 13.0889C9.85802 13.0903 9.84982 13.094 9.83777 13.0995C9.76101 13.134 9.5279 13.239 9.38868 13.2863L9.44612 13.2748C8.97891 13.4696 8.48285 13.3158 8.28937 13.024C8.27223 13.0173 8.24532 13.0113 8.21123 13.0076C8.1336 12.9991 8.0311 13.0032 7.92394 13.0197C7.69435 13.0551 7.49383 13.1392 7.42753 13.2243C7.31605 13.3674 7.14122 13.4306 6.90178 13.4234Z" fill="white"/>
<path fill-rule="evenodd" clip-rule="evenodd" d="M7.14682 5.88629H6.4437L6.98904 5.3754L6.4437 4.83555H7.14682L7.4437 4.31152L7.74177 4.83555H8.4437L7.92562 5.34298L8.38564 5.88629H7.74177L7.4437 6.43928L7.14682 5.88629Z" fill="#FECA00"/>
<path fill-rule="evenodd" clip-rule="evenodd" d="M10.4606 5.88629H9.75745L10.3028 5.3754L9.75745 4.83555H10.4606L10.7574 4.31152L11.0555 4.83555H11.7574L11.2394 5.34298L11.6994 5.88629H11.0555L10.7574 6.43928L10.4606 5.88629Z" fill="#FECA00"/>
<path fill-rule="evenodd" clip-rule="evenodd" d="M8.59991 7.56756H7.89679L8.44213 7.05668L7.89679 6.51682H8.59991L8.89679 5.9928L9.19486 6.51682H9.89679L9.37872 7.02425L9.83873 7.56756H9.19486L8.89679 8.12056L8.59991 7.56756Z" fill="#FECA00"/>
</g>
</g>
<defs>
<clipPath id="clip0_30_18092">
<rect width="32" height="24" fill="white"/>
</clipPath>
</defs>
</svg>
