<svg width="32" height="24" viewBox="0 0 32 24" fill="none" xmlns="http://www.w3.org/2000/svg">
<g clip-path="url(#clip0_30_18015)">
<rect width="32" height="24" fill="white"/>
<path fill-rule="evenodd" clip-rule="evenodd" d="M0 0V24H32V0H0Z" fill="#3D58DB"/>
<mask id="mask0_30_18015" style="mask-type:luminance" maskUnits="userSpaceOnUse" x="0" y="0" width="32" height="24">
<path fill-rule="evenodd" clip-rule="evenodd" d="M0 0V24H32V0H0Z" fill="white"/>
</mask>
<g mask="url(#mask0_30_18015)">
<path fill-rule="evenodd" clip-rule="evenodd" d="M0 0V8H32V0H0Z" fill="#F7FCFF"/>
<path fill-rule="evenodd" clip-rule="evenodd" d="M0 16V24H32V16H0Z" fill="#E31D1C"/>
<path d="M15.6039 6.0304L16.1011 5.9775L16.0535 5.5304H15.6039H6.34483H5.87741L5.84596 5.99676L6.34483 6.0304L5.84595 5.99685L5.84594 5.99706L5.84589 5.99786L5.84568 6.00093L5.84489 6.01285L5.84183 6.05911L5.8305 6.2353C5.82084 6.38768 5.8073 6.60693 5.79171 6.87489C5.76054 7.41063 5.72116 8.14185 5.68834 8.92302C5.62366 10.4626 5.58077 12.265 5.69278 13.1067C5.91136 14.7492 6.91149 18.4363 10.7798 20.1073L10.9816 20.1944L11.1822 20.1047C14.8564 18.4618 16.0853 15.1532 16.3687 13.1095C16.5118 12.078 16.4391 10.2732 16.3387 8.77338C16.2878 8.01336 16.2284 7.31501 16.1818 6.80682C16.1585 6.55263 16.1384 6.34575 16.1241 6.20223C16.1169 6.13046 16.1112 6.07452 16.1073 6.0364L16.1027 5.99283L16.1015 5.98154L16.1012 5.9786L16.1011 5.97782L16.1011 5.9776C16.1011 5.97754 16.1011 5.9775 15.6039 6.0304Z" fill="#E31D1C" stroke="white"/>
<mask id="mask1_30_18015" style="mask-type:luminance" maskUnits="userSpaceOnUse" x="5" y="5" width="12" height="16">
<path d="M15.6039 6.0304L16.1011 5.9775L16.0535 5.5304H15.6039H6.34483H5.87741L5.84596 5.99676L6.34483 6.0304L5.84595 5.99685L5.84594 5.99706L5.84589 5.99786L5.84568 6.00093L5.84489 6.01285L5.84183 6.05911L5.8305 6.2353C5.82084 6.38768 5.8073 6.60693 5.79171 6.87489C5.76054 7.41063 5.72116 8.14185 5.68834 8.92302C5.62366 10.4626 5.58077 12.265 5.69278 13.1067C5.91136 14.7492 6.91149 18.4363 10.7798 20.1073L10.9816 20.1944L11.1822 20.1047C14.8564 18.4618 16.0853 15.1532 16.3687 13.1095C16.5118 12.078 16.4391 10.2732 16.3387 8.77338C16.2878 8.01336 16.2284 7.31501 16.1818 6.80682C16.1585 6.55263 16.1384 6.34575 16.1241 6.20223C16.1169 6.13046 16.1112 6.07452 16.1073 6.0364L16.1027 5.99283L16.1015 5.98154L16.1012 5.9786L16.1011 5.97782L16.1011 5.9776C16.1011 5.97754 16.1011 5.9775 15.6039 6.0304Z" fill="white" stroke="white"/>
</mask>
<g mask="url(#mask1_30_18015)">
<path fill-rule="evenodd" clip-rule="evenodd" d="M10.2571 6.58984C10.2571 6.58984 10.4636 6.90446 10.556 7.38555C10.6485 7.86663 10.6644 8.70955 10.6644 8.70955L8.70555 8.46836V9.95365L10.7082 9.69861L10.6756 11.1083C10.6756 11.1083 10.0765 11.1705 9.58514 11.1083C9.09376 11.0462 8.12573 10.786 8.12573 10.786V12.4864C8.12573 12.4864 9.10923 12.1718 9.58514 12.0996C10.061 12.0274 10.6756 12.0996 10.6756 12.0996V14.1879H11.4887V12.0996C11.4887 12.0996 12.3774 12.0223 12.9076 12.106C13.4378 12.1896 13.9407 12.4864 13.9407 12.4864V10.786C13.9407 10.786 13.4312 11.0399 12.9506 11.103C12.4701 11.1662 11.4887 11.1083 11.4887 11.1083L11.5212 9.69861C11.5212 9.69861 12.1865 9.62974 12.5597 9.6804C12.9329 9.73106 13.4 9.95365 13.4 9.95365V8.46836C13.4 8.46836 12.9447 8.71611 12.5865 8.76105C12.2283 8.80599 11.4775 8.70955 11.4775 8.70955C11.4775 8.70955 11.4908 7.83968 11.5678 7.41612C11.6448 6.99256 11.8629 6.58984 11.8629 6.58984H10.2571Z" fill="#F7FCFF"/>
<path fill-rule="evenodd" clip-rule="evenodd" d="M6.89734 16.2454C6.89734 16.2454 7.33683 15.3021 8.05197 15.1227C8.7671 14.9434 9.51698 15.6841 9.51698 15.6841C9.51698 15.6841 9.97488 14.1876 11.091 14.1876C12.2071 14.1876 12.5988 15.6841 12.5988 15.6841C12.5988 15.6841 13.075 15.1227 13.7598 15.1227C14.4445 15.1227 15.079 16.2454 15.079 16.2454C15.079 16.2454 13.0336 19.9588 10.9882 19.9588C8.94275 19.9588 6.89734 16.2454 6.89734 16.2454Z" fill="#2E42A5"/>
</g>
</g>
</g>
<defs>
<clipPath id="clip0_30_18015">
<rect width="32" height="24" fill="white"/>
</clipPath>
</defs>
</svg>
