<svg width="32" height="24" viewBox="0 0 32 24" fill="none" xmlns="http://www.w3.org/2000/svg">
<g clip-path="url(#clip0_30_18118)">
<rect width="32" height="24" fill="white"/>
<path fill-rule="evenodd" clip-rule="evenodd" d="M0 0V24H32V0H0Z" fill="#F7FCFF"/>
<mask id="mask0_30_18118" style="mask-type:luminance" maskUnits="userSpaceOnUse" x="0" y="0" width="32" height="24">
<path fill-rule="evenodd" clip-rule="evenodd" d="M0 0V24H32V0H0Z" fill="white"/>
</mask>
<g mask="url(#mask0_30_18118)">
<path fill-rule="evenodd" clip-rule="evenodd" d="M0 12V24H32V12H0Z" fill="#56C6F5"/>
<path fill-rule="evenodd" clip-rule="evenodd" d="M10.2542 9.02848C10.2468 8.94397 10.2291 8.87092 10.1985 8.81396C9.94164 8.33521 10.0246 7.73614 10.0246 7.73614C10.0246 7.73614 9.7179 8.4377 9.53793 9.09821C9.34874 8.79062 9.2826 8.48247 9.2826 8.48247C9.2826 8.48247 9.16016 10.42 9.5345 10.8791C9.90884 11.3382 10.1584 11.5399 10.1584 11.5399C10.1584 11.5399 10.1867 10.7354 10.0778 10.1062C10.1546 9.84367 10.2238 9.55612 10.2487 9.30854C10.2978 9.27216 10.4273 9.17494 10.5893 9.04273C10.521 9.41951 10.5176 9.62423 10.5176 9.62423C10.5176 9.62423 11.9282 8.60003 11.9641 8.0579C11.9999 7.51577 12.3878 7.05171 12.3878 7.05171C12.3878 7.05171 12.0671 7.27116 11.7009 7.56544C11.7977 7.11037 12.0974 6.75171 12.0974 6.75171C12.0974 6.75171 10.4952 7.84811 10.3639 8.42574C10.3068 8.67699 10.2735 8.87966 10.2542 9.02848ZM10.3228 12.3589C10.1692 12.0688 9.50063 10.8529 9.03431 10.7471C8.50447 10.6269 8.10679 10.1712 8.10679 10.1712C8.10679 10.1712 8.93906 11.9252 9.48903 12.1453C9.9307 12.322 10.2215 12.3925 10.3189 12.4134C10.3029 12.6499 10.3001 12.8132 10.3001 12.8132C10.3001 12.8132 10.5599 12.6249 10.9577 12.186C11.3556 11.7471 11.3347 9.8058 11.3347 9.8058C11.3347 9.8058 11.177 10.3897 10.7535 10.73C10.4694 10.9583 10.3624 11.8178 10.3228 12.3589ZM9.07138 12.1754C9.67669 12.1718 10.6079 13.6561 10.6079 13.6561C10.6079 13.6561 10.2471 13.6759 9.61691 13.5763C8.98668 13.4767 8.00439 11.7854 8.00439 11.7854C8.00439 11.7854 8.46606 12.1789 9.07138 12.1754ZM12.022 15.6323C12.022 15.6323 12.3812 13.7408 11.8418 13.2999C11.3025 12.8589 11.2073 12.2 11.2073 12.2C11.2073 12.2 10.7282 14.2975 11.2073 14.8407C11.6865 15.3838 12.022 15.6323 12.022 15.6323ZM9.84571 15.1216C10.1979 15.5392 11.3201 15.1216 11.3201 15.1216C11.3201 15.1216 11.5674 15.3462 10.6774 14.5328C9.78746 13.7194 7.97654 14.2331 8.4639 14.2331C8.95126 14.2331 9.49348 14.704 9.84571 15.1216ZM10.6774 17.342C11.3304 17.8949 12.7412 16.5801 12.7412 16.5801C12.7412 16.5801 12.378 16.1403 11.7049 15.8161C11.0317 15.4919 8.54871 15.8161 8.54871 15.8161L9.65372 16.3079C9.65372 16.3079 8.42371 16.789 8.7502 16.7622C9.07669 16.7353 10.0245 16.789 10.6774 17.342Z" fill="#006923"/>
<path fill-rule="evenodd" clip-rule="evenodd" d="M19.2135 16.1963C19.2135 16.1963 18.6521 15.253 19.2135 14.7972C19.7749 14.3415 19.997 14.6446 19.997 14.1206C19.997 13.5967 20.0538 13.7527 20.3296 13.4925C20.6055 13.2324 20.4101 12.6006 20.7795 12.9165C21.1489 13.2324 21.2179 12.6266 21.2179 13.8851C21.2179 15.1435 21.2179 12.7437 21.2179 12.0368C21.2179 11.33 20.7795 11.4973 20.7795 11.0233C20.7795 10.5493 20.3411 9.84133 20.7795 9.84133C21.2179 9.84133 21.4755 10.3681 21.4755 10.3681C21.4755 10.3681 21.9063 11.1022 21.9063 10.3681C21.9063 9.63391 21.1394 9.85217 20.7795 9.04203C20.4195 8.23189 20.4764 9.13289 19.997 8.08897C19.5176 7.04505 18.9469 6.71378 19.472 6.71378C19.997 6.71378 19.8798 6.71378 20.3296 6.71378C20.7795 6.71378 21.4755 6.34016 21.4755 6.71378C21.4755 7.08741 21.4755 6.9162 21.4755 7.50258C21.4755 8.08897 21.9063 8.08897 21.9063 8.08897C21.9063 8.08897 22.1405 6.9162 22.4346 7.50258C22.7288 8.08897 22.5285 9.04203 22.7438 9.04203C22.9591 9.04203 22.7809 8.05712 23.251 8.81148C23.7212 9.56584 23.251 10.0771 23.251 10.3681C23.251 10.6591 22.7438 11.372 22.7438 11.372C22.7438 11.372 22.8428 11.7208 23.251 11.372C23.6592 11.0233 24.0464 10.6746 24.0464 11.0233C24.0464 11.372 24.8419 11.4804 24.0464 12.0368C23.251 12.5933 23.7582 13.1504 23.251 13.1504C22.7438 13.1504 22.1461 13.8851 21.9063 13.8851C21.6664 13.8851 20.7693 14.4475 21.2179 14.4475C21.6664 14.4475 22.1255 13.3226 22.4346 13.8851C22.7438 14.4475 22.7397 13.7937 22.9954 14.1206C23.251 14.4475 23.5067 16.2212 23.251 15.5092C22.9954 14.7972 22.5947 14.7972 21.9063 14.7972C21.2179 14.7972 19.8798 14.8486 20.3296 15.1789C20.7795 15.5092 21.2847 14.8486 21.4755 15.1789C21.6664 15.5092 21.6109 15.8395 21.9063 15.5092C22.2017 15.1789 22.4922 15.5092 22.7438 15.5092C22.9954 15.5092 22.4922 15.879 22.7438 16.1963C22.9954 16.5137 23.5561 16.9365 22.9954 16.9365C22.4346 16.9365 22.1461 16.4882 21.9063 16.9365C21.6664 17.3848 21.6562 18.1634 21.2179 17.55C20.7795 16.9365 19.997 17.2479 19.997 16.9365C19.997 16.6251 20.1682 16.5748 19.6908 16.5748C19.2135 16.5748 19.2135 16.1963 19.2135 16.1963Z" fill="#009933"/>
<path fill-rule="evenodd" clip-rule="evenodd" d="M21.5162 9.44995C21.5162 9.58802 21.4078 9.69995 21.2742 9.69995C21.1406 9.69995 21.0323 9.58802 21.0323 9.44995C21.0323 9.31188 21.1406 9.19995 21.2742 9.19995C21.4078 9.19995 21.5162 9.31188 21.5162 9.44995ZM10.3387 9.99995C10.4724 9.99995 10.5807 9.88802 10.5807 9.74995C10.5807 9.61188 10.4724 9.49995 10.3387 9.49995C10.2051 9.49995 10.0968 9.61188 10.0968 9.74995C10.0968 9.88802 10.2051 9.99995 10.3387 9.99995ZM10.5807 11.05C10.5807 11.188 10.4724 11.3 10.3387 11.3C10.2051 11.3 10.0968 11.188 10.0968 11.05C10.0968 10.9119 10.2051 10.8 10.3387 10.8C10.4724 10.8 10.5807 10.9119 10.5807 11.05ZM10.7258 13.6C10.8595 13.6 10.9678 13.488 10.9678 13.35C10.9678 13.2119 10.8595 13.1 10.7258 13.1C10.5922 13.1 10.4839 13.2119 10.4839 13.35C10.4839 13.488 10.5922 13.6 10.7258 13.6ZM12.6613 16.1C12.7949 16.1 12.9033 15.988 12.9033 15.85C12.9033 15.7119 12.7949 15.6 12.6613 15.6C12.5277 15.6 12.4194 15.7119 12.4194 15.85C12.4194 15.988 12.5277 16.1 12.6613 16.1ZM21.9516 12.3C22.0853 12.3 22.1936 12.188 22.1936 12.05C22.1936 11.9119 22.0853 11.8 21.9516 11.8C21.818 11.8 21.7097 11.9119 21.7097 12.05C21.7097 12.188 21.818 12.3 21.9516 12.3ZM21.4194 14.05C21.4194 14.188 21.3111 14.3 21.1774 14.3C21.0438 14.3 20.9355 14.188 20.9355 14.05C20.9355 13.9119 21.0438 13.8 21.1774 13.8C21.3111 13.8 21.4194 13.9119 21.4194 14.05ZM19.1452 16.5C19.2788 16.5 19.3871 16.388 19.3871 16.25C19.3871 16.1119 19.2788 16 19.1452 16C19.0116 16 18.9033 16.1119 18.9033 16.25C18.9033 16.388 19.0116 16.5 19.1452 16.5ZM13 16.55C13 16.688 12.8917 16.8 12.7581 16.8C12.6245 16.8 12.5162 16.688 12.5162 16.55C12.5162 16.4119 12.6245 16.3 12.7581 16.3C12.8917 16.3 13 16.4119 13 16.55Z" fill="#C51918"/>
<path fill-rule="evenodd" clip-rule="evenodd" d="M18.0378 19.8197C18.0378 19.6149 14.9373 17.4781 14.1051 17.0068C13.2729 16.5355 9.20906 13.9415 10.3157 10.0001H10.1483C10.1483 10.0001 9.39933 14.8566 14.5594 17.8754C16.9088 19.4515 17.0258 19.8197 17.0258 19.8197C17.0258 19.8197 18.0378 20.0246 18.0378 19.8197Z" fill="#FECA00"/>
<path fill-rule="evenodd" clip-rule="evenodd" d="M13.9243 19.8197C13.9243 19.6149 17.0248 17.4781 17.857 17.0068C18.6892 16.5355 22.753 13.9415 21.6463 10.0001H21.8138C21.8138 10.0001 22.5628 14.8566 17.4027 17.8754C15.0532 19.4515 14.9363 19.8197 14.9363 19.8197C14.9363 19.8197 13.9243 20.0246 13.9243 19.8197Z" fill="#FECA00"/>
<path fill-rule="evenodd" clip-rule="evenodd" d="M16.0484 16.8856C18.213 16.8856 19.9677 14.0838 19.9677 11.35C19.9677 8.61614 18.213 7.19995 16.0484 7.19995C13.8838 7.19995 12.129 8.61614 12.129 11.35C12.129 14.0838 13.8838 16.8856 16.0484 16.8856Z" fill="#56C6F5"/>
<path fill-rule="evenodd" clip-rule="evenodd" d="M14.3132 9.53886C14.3132 9.53886 14.9168 9.00647 14.615 9.00647C14.5565 9.00647 14.4852 8.99504 14.4084 8.98272C14.089 8.93148 13.6731 8.86476 13.6731 9.53886V10.6973L13.6729 10.7H13.5839C13.5286 10.7 13.4839 10.7448 13.4839 10.8C13.4839 10.8552 13.5286 10.9 13.5839 10.9H13.6621C13.6487 11.1474 13.625 11.5874 13.6018 12.0272L13.4874 12.0372C13.4282 12.0424 13.3845 12.0946 13.3896 12.1537L13.397 12.2384C13.4022 12.2975 13.4544 12.3413 13.5135 12.3361L13.5859 12.3298C13.559 12.8436 13.5364 13.2933 13.5364 13.3483C13.5364 13.4835 14.4547 13.4312 14.4547 13.4312C14.4547 13.4312 14.4261 12.8891 14.3946 12.259L14.4562 12.2536C14.5153 12.2485 14.5591 12.1963 14.5539 12.1371L14.5465 12.0525C14.5413 11.9934 14.4892 11.9496 14.43 11.9548L14.3798 11.9592C14.3613 11.5818 14.3431 11.1987 14.3304 10.9H14.4484C14.5036 10.9 14.5484 10.8552 14.5484 10.8C14.5484 10.7448 14.5036 10.7 14.4484 10.7H14.3223C14.3166 10.5507 14.3132 10.4386 14.3132 10.382V9.53886Z" fill="white"/>
<path fill-rule="evenodd" clip-rule="evenodd" d="M13.871 11H14.1936V11.4301H13.871V11Z" fill="black"/>
<path fill-rule="evenodd" clip-rule="evenodd" d="M13.7742 12.5H14.3118V13.5H13.7742V12.5Z" fill="black"/>
<path fill-rule="evenodd" clip-rule="evenodd" d="M16.3455 9.53886C16.3455 9.53886 16.9491 9.00647 16.6473 9.00647C16.5887 9.00647 16.5175 8.99504 16.4406 8.98272C16.1213 8.93148 15.7054 8.86476 15.7054 9.53886V10.6973L15.7052 10.7H15.6162C15.5609 10.7 15.5162 10.7448 15.5162 10.8C15.5162 10.8552 15.5609 10.9 15.6162 10.9H15.6944C15.681 11.1474 15.6573 11.5874 15.6341 12.0272L15.5197 12.0372C15.4605 12.0424 15.4167 12.0946 15.4219 12.1537L15.4293 12.2384C15.4345 12.2975 15.4867 12.3413 15.5458 12.3361L15.6182 12.3298C15.5913 12.8436 15.5687 13.2933 15.5687 13.3483C15.5687 13.4835 16.4869 13.4312 16.4869 13.4312C16.4869 13.4312 16.4584 12.8891 16.4269 12.259L16.4885 12.2536C16.5476 12.2485 16.5914 12.1963 16.5862 12.1371L16.5788 12.0525C16.5736 11.9934 16.5215 11.9496 16.4623 11.9548L16.4121 11.9592C16.3935 11.5818 16.3754 11.1987 16.3627 10.9H16.4807C16.5359 10.9 16.5807 10.8552 16.5807 10.8C16.5807 10.7448 16.5359 10.7 16.4807 10.7H16.3546C16.3489 10.5507 16.3455 10.4386 16.3455 10.382V9.53886Z" fill="white"/>
<path fill-rule="evenodd" clip-rule="evenodd" d="M15.9033 11H16.2258V11.4301H15.9033V11Z" fill="black"/>
<path fill-rule="evenodd" clip-rule="evenodd" d="M15.8065 12.5H16.3441V13.5H15.8065V12.5Z" fill="black"/>
<path fill-rule="evenodd" clip-rule="evenodd" d="M18.2809 9.53886C18.2809 9.53886 18.8845 9.00647 18.5827 9.00647C18.5242 9.00647 18.4529 8.99504 18.3761 8.98272C18.0567 8.93148 17.6408 8.86476 17.6408 9.53886V10.6973L17.6406 10.7H17.5516C17.4964 10.7 17.4516 10.7448 17.4516 10.8C17.4516 10.8552 17.4964 10.9 17.5516 10.9H17.6298C17.6164 11.1474 17.5928 11.5874 17.5695 12.0272L17.4551 12.0372C17.3959 12.0424 17.3522 12.0946 17.3573 12.1537L17.3648 12.2384C17.3699 12.2975 17.4221 12.3413 17.4812 12.3361L17.5536 12.3298C17.5268 12.8436 17.5041 13.2933 17.5041 13.3483C17.5041 13.4835 18.4224 13.4312 18.4224 13.4312C18.4224 13.4312 18.3938 12.8891 18.3623 12.259L18.4239 12.2536C18.483 12.2485 18.5268 12.1963 18.5216 12.1371L18.5142 12.0525C18.509 11.9934 18.4569 11.9496 18.3977 11.9548L18.3475 11.9592C18.329 11.5818 18.3108 11.1987 18.2982 10.9H18.4161C18.4713 10.9 18.5161 10.8552 18.5161 10.8C18.5161 10.7448 18.4713 10.7 18.4161 10.7H18.29C18.2843 10.5507 18.2809 10.4386 18.2809 10.382V9.53886Z" fill="white"/>
<path fill-rule="evenodd" clip-rule="evenodd" d="M17.8387 11H18.1613V11.4301H17.8387V11Z" fill="black"/>
<path fill-rule="evenodd" clip-rule="evenodd" d="M17.7419 12.5H18.2795V13.5H17.7419V12.5Z" fill="black"/>
<path fill-rule="evenodd" clip-rule="evenodd" d="M18.5161 6.3999H13.3871V7.16554L13.3527 7.16862C13.3527 7.16862 10.8398 9.12134 11.5372 12.0465C12.2346 14.9717 15.0048 17.141 15.0048 17.141L15.1444 16.6362C15.1444 16.6362 12.5048 13.0471 12.5048 11.6129C12.5048 10.1787 13.0028 8.83258 13.5301 8.62327C13.8473 8.49739 13.902 8.52293 13.9884 8.56329C14.0457 8.59003 14.1169 8.62327 14.2876 8.62327C14.7159 8.62327 15.1444 8.3167 15.1444 8.3167C15.1444 8.3167 15.4424 8.62327 15.7192 8.62327C15.996 8.62327 15.9999 8.3167 15.9999 8.3167V7.2999H16.0309V8.3167C16.0309 8.3167 16.0347 8.62327 16.3115 8.62327C16.5883 8.62327 16.8863 8.3167 16.8863 8.3167C16.8863 8.3167 17.3149 8.62327 17.7432 8.62327C17.9139 8.62327 17.9851 8.59003 18.0423 8.56329C18.1288 8.52293 18.1835 8.49739 18.5006 8.62327C19.0279 8.83258 19.5259 10.1787 19.5259 11.6129C19.5259 13.0471 16.8863 16.6362 16.8863 16.6362L17.026 17.141C17.026 17.141 19.7961 14.9717 20.4935 12.0465C21.1909 9.12134 18.678 7.16862 18.678 7.16862L18.5161 7.15414V6.3999Z" fill="#E8AA00"/>
<path d="M13.3871 6.3999V5.8999H12.8871V6.3999H13.3871ZM18.5161 6.3999H19.0161V5.8999H18.5161V6.3999ZM13.3871 7.16554L13.4316 7.66355L13.8871 7.62283V7.16554H13.3871ZM13.3527 7.16862L13.3082 6.6706L13.1619 6.68368L13.0459 6.77381L13.3527 7.16862ZM11.5372 12.0465L11.0508 12.1625L11.0508 12.1625L11.5372 12.0465ZM15.0048 17.141L14.6965 17.5347L15.2868 17.9969L15.4867 17.2743L15.0048 17.141ZM15.1444 16.6362L15.6263 16.7695L15.6911 16.5355L15.5472 16.34L15.1444 16.6362ZM13.5301 8.62327L13.3457 8.15855L13.3457 8.15855L13.5301 8.62327ZM13.9884 8.56329L13.7769 9.01633L13.7769 9.01633L13.9884 8.56329ZM15.1444 8.3167L15.503 7.96821L15.2033 7.65986L14.8535 7.91003L15.1444 8.3167ZM15.9999 8.3167L16.4999 8.32303V8.3167H15.9999ZM15.9999 7.2999V6.7999H15.4999V7.2999H15.9999ZM16.0309 7.2999H16.5309V6.7999H16.0309V7.2999ZM16.0309 8.3167L15.5308 8.3167L15.5309 8.32303L16.0309 8.3167ZM16.8863 8.3167L17.1772 7.91003L16.8275 7.65986L16.5278 7.96821L16.8863 8.3167ZM18.0423 8.56329L18.2539 9.01633L18.2539 9.01633L18.0423 8.56329ZM18.5006 8.62327L18.3162 9.088L18.3162 9.088L18.5006 8.62327ZM16.8863 16.6362L16.4835 16.34L16.3397 16.5355L16.4044 16.7695L16.8863 16.6362ZM17.026 17.141L16.5441 17.2743L16.744 17.9969L17.3342 17.5347L17.026 17.141ZM18.678 7.16862L18.9848 6.77381L18.8689 6.68368L18.7226 6.6706L18.678 7.16862ZM18.5161 7.15414H18.0161V7.61143L18.4716 7.65215L18.5161 7.15414ZM13.3871 6.8999H18.5161V5.8999H13.3871V6.8999ZM13.8871 7.16554V6.3999H12.8871V7.16554H13.8871ZM13.3972 7.66663L13.4316 7.66355L13.3426 6.66753L13.3082 6.6706L13.3972 7.66663ZM12.0236 11.9306C11.7158 10.6396 12.1112 9.55873 12.6058 8.77826C12.8532 8.38786 13.1215 8.07976 13.3277 7.86979C13.4304 7.76517 13.5168 7.68593 13.5759 7.63403C13.6054 7.60811 13.6281 7.5891 13.6425 7.57723C13.6497 7.5713 13.6548 7.56716 13.6577 7.56485C13.6592 7.56369 13.6601 7.56299 13.6604 7.56275C13.6605 7.56264 13.6605 7.56263 13.6604 7.56274C13.6603 7.5628 13.6602 7.56288 13.6601 7.563C13.66 7.56305 13.6598 7.56316 13.6598 7.56319C13.6597 7.5633 13.6595 7.56343 13.3527 7.16862C13.0459 6.77381 13.0457 6.77394 13.0455 6.77409C13.0455 6.77415 13.0453 6.7743 13.0451 6.77441C13.0448 6.77465 13.0445 6.77491 13.0441 6.7752C13.0434 6.77579 13.0425 6.7765 13.0414 6.77733C13.0393 6.77899 13.0366 6.78114 13.0333 6.78377C13.0267 6.78902 13.0178 6.7962 13.0068 6.80529C12.9847 6.82346 12.9541 6.84925 12.9163 6.88244C12.8407 6.94876 12.7362 7.04493 12.6142 7.16908C12.3711 7.41666 12.0548 7.77957 11.7611 8.243C11.1736 9.17019 10.6612 10.5283 11.0508 12.1625L12.0236 11.9306ZM15.0048 17.141C15.3131 16.7474 15.3131 16.7474 15.3132 16.7475C15.3132 16.7475 15.3133 16.7476 15.3133 16.7476C15.3134 16.7476 15.3134 16.7476 15.3134 16.7476C15.3133 16.7476 15.3131 16.7474 15.3127 16.7471C15.3119 16.7465 15.3105 16.7453 15.3084 16.7437C15.3043 16.7404 15.2976 16.7351 15.2886 16.7277C15.2704 16.713 15.2428 16.6903 15.2067 16.6599C15.1346 16.5991 15.0292 16.5077 14.8997 16.3885C14.6403 16.1498 14.2865 15.8012 13.9119 15.365C13.1565 14.4854 12.346 13.2831 12.0236 11.9306L11.0508 12.1625C11.4258 13.7352 12.3491 15.0801 13.1532 16.0165C13.5583 16.4882 13.9406 16.8648 14.2224 17.1243C14.3635 17.2541 14.4799 17.3551 14.562 17.4243C14.6031 17.459 14.6356 17.4857 14.6584 17.5042C14.6698 17.5135 14.6788 17.5207 14.6852 17.5257C14.6884 17.5283 14.691 17.5303 14.6928 17.5318C14.6938 17.5326 14.6946 17.5332 14.6952 17.5336C14.6955 17.5339 14.6957 17.5341 14.696 17.5343C14.6961 17.5344 14.6962 17.5345 14.6963 17.5345C14.6964 17.5346 14.6965 17.5347 15.0048 17.141ZM14.6625 16.5029L14.5229 17.0077L15.4867 17.2743L15.6263 16.7695L14.6625 16.5029ZM12.0048 11.6129C12.0048 12.089 12.2131 12.6683 12.463 13.2117C12.7221 13.7752 13.0634 14.3772 13.3983 14.9237C13.7343 15.4718 14.0696 15.9731 14.3204 16.3368C14.4459 16.5189 14.5507 16.6671 14.6243 16.77C14.6611 16.8215 14.6901 16.8617 14.7101 16.8892C14.7201 16.903 14.7279 16.9136 14.7332 16.9209C14.7358 16.9245 14.7379 16.9273 14.7393 16.9292C14.74 16.9302 14.7405 16.931 14.7409 16.9315C14.7411 16.9318 14.7413 16.932 14.7414 16.9321C14.7415 16.9322 14.7415 16.9323 14.7416 16.9323C14.7416 16.9324 14.7416 16.9324 15.1444 16.6362C15.5472 16.34 15.5472 16.34 15.5473 16.34C15.5472 16.34 15.5472 16.34 15.5472 16.34C15.5472 16.3399 15.5471 16.3398 15.547 16.3396C15.5467 16.3393 15.5463 16.3387 15.5458 16.338C15.5446 16.3365 15.5429 16.3341 15.5406 16.3309C15.5359 16.3245 15.5288 16.3147 15.5194 16.3019C15.5008 16.2761 15.4731 16.2378 15.4377 16.1884C15.367 16.0894 15.2655 15.946 15.1436 15.7692C14.8995 15.4151 14.5748 14.9294 14.2509 14.4011C13.926 13.871 13.6073 13.3067 13.3715 12.7939C13.1264 12.261 13.0048 11.8539 13.0048 11.6129H12.0048ZM13.3457 8.15855C13.0789 8.26444 12.8787 8.48261 12.7338 8.69622C12.582 8.91981 12.4529 9.19435 12.348 9.493C12.1379 10.0911 12.0048 10.8425 12.0048 11.6129H13.0048C13.0048 10.9491 13.1208 10.3103 13.2915 9.82448C13.3769 9.58117 13.4712 9.39031 13.5612 9.25781C13.6579 9.11534 13.7177 9.08677 13.7146 9.088L13.3457 8.15855ZM14.2 8.11025C14.1403 8.08237 14.0084 8.0189 13.8123 8.03206C13.6649 8.04196 13.5099 8.09334 13.3457 8.15855L13.7146 9.088C13.7853 9.05996 13.8317 9.04423 13.8615 9.03567C13.8919 9.02694 13.8943 9.02881 13.8793 9.02982C13.8707 9.03039 13.8576 9.03062 13.841 9.02903C13.8241 9.0274 13.8077 9.02424 13.7926 9.0201C13.7781 9.01613 13.7682 9.01213 13.7651 9.01085C13.7638 9.01032 13.7642 9.01043 13.7769 9.01633L14.2 8.11025ZM14.2876 8.12327C14.261 8.12327 14.2433 8.12198 14.2325 8.12077C14.222 8.11959 14.2175 8.11845 14.2175 8.11844C14.2174 8.1184 14.2177 8.11849 14.2184 8.1187C14.219 8.11891 14.2194 8.11905 14.2192 8.11897C14.2176 8.11837 14.2152 8.11738 14.2 8.11025L13.7769 9.01633C13.8093 9.03148 13.8779 9.06413 13.9734 9.08818C14.0669 9.11173 14.1694 9.12327 14.2876 9.12327V8.12327ZM15.1444 8.3167C14.8535 7.91003 14.8536 7.90997 14.8537 7.9099C14.8537 7.90988 14.8538 7.90982 14.8539 7.90978C14.854 7.9097 14.8541 7.90962 14.8542 7.90955C14.8544 7.90941 14.8546 7.90928 14.8547 7.90917C14.855 7.90896 14.8553 7.90881 14.8554 7.90873C14.8556 7.90857 14.8554 7.90868 14.8549 7.90904C14.8539 7.90976 14.8514 7.91147 14.8475 7.91404C14.8398 7.91919 14.8269 7.92766 14.8094 7.93836C14.7741 7.95998 14.7227 7.98942 14.6613 8.0187C14.5289 8.08188 14.3936 8.12327 14.2876 8.12327V9.12327C14.6098 9.12327 14.903 9.01139 15.0919 8.92128C15.1912 8.87392 15.2737 8.82671 15.3321 8.79085C15.3616 8.77281 15.3854 8.75732 15.4028 8.74571C15.4115 8.73989 15.4187 8.73502 15.4241 8.73125C15.4268 8.72937 15.4291 8.72775 15.431 8.72643C15.4319 8.72577 15.4328 8.72519 15.4335 8.72468C15.4339 8.72442 15.4342 8.72418 15.4345 8.72397C15.4346 8.72386 15.4348 8.72375 15.4349 8.72365C15.435 8.7236 15.4351 8.72353 15.4351 8.72351C15.4352 8.72344 15.4353 8.72337 15.1444 8.3167ZM15.7192 8.12327C15.7394 8.12327 15.7379 8.12798 15.7101 8.11602C15.6841 8.10486 15.6515 8.08617 15.6154 8.06086C15.5804 8.03627 15.5498 8.01075 15.5279 7.99128C15.5173 7.98179 15.5094 7.97436 15.5049 7.97005C15.5027 7.96791 15.5014 7.96659 15.501 7.96623C15.5009 7.96605 15.5009 7.96611 15.5012 7.96644C15.5014 7.9666 15.5016 7.96683 15.5019 7.96712C15.5021 7.96727 15.5022 7.96743 15.5024 7.96761C15.5025 7.96771 15.5026 7.9678 15.5027 7.9679C15.5027 7.96795 15.5028 7.96803 15.5028 7.96805C15.5029 7.96813 15.503 7.96821 15.1444 8.3167C14.7859 8.66519 14.786 8.66528 14.786 8.66536C14.7861 8.66539 14.7862 8.66547 14.7862 8.66553C14.7863 8.66565 14.7865 8.66577 14.7866 8.6659C14.7868 8.66616 14.7871 8.66643 14.7874 8.66673C14.788 8.66732 14.7886 8.66799 14.7894 8.66873C14.7908 8.67021 14.7926 8.672 14.7947 8.67406C14.7988 8.67819 14.8041 8.68346 14.8106 8.6897C14.8235 8.70215 14.8411 8.71868 14.8627 8.73793C14.9054 8.77594 14.9665 8.82706 15.0406 8.87911C15.1679 8.96854 15.4193 9.12327 15.7192 9.12327V8.12327ZM15.9999 8.3167C15.4999 8.31038 15.4999 8.31016 15.4999 8.30994C15.4999 8.30987 15.4999 8.30965 15.4999 8.30951C15.4999 8.30922 15.4999 8.30894 15.4999 8.30866C15.4999 8.3081 15.5 8.30755 15.5 8.30702C15.5 8.30595 15.5 8.30494 15.5 8.30398C15.5001 8.30206 15.5002 8.30034 15.5002 8.29879C15.5003 8.29572 15.5005 8.2933 15.5006 8.29142C15.5009 8.28782 15.5012 8.28561 15.5015 8.28411C15.5016 8.28356 15.5027 8.27476 15.5098 8.25951C15.5172 8.24361 15.5381 8.20585 15.5846 8.17183C15.6368 8.13363 15.6897 8.12327 15.7192 8.12327V9.12327C15.8871 9.12327 16.0443 9.07459 16.175 8.97892C16.3001 8.88741 16.3739 8.77301 16.4169 8.68047C16.4595 8.58857 16.479 8.50313 16.4884 8.4451C16.4934 8.41486 16.4961 8.38869 16.4977 8.36833C16.4985 8.35807 16.499 8.34906 16.4993 8.3415C16.4995 8.33771 16.4996 8.33426 16.4997 8.33118C16.4997 8.32964 16.4997 8.32819 16.4998 8.32683C16.4998 8.32615 16.4998 8.32549 16.4998 8.32486C16.4998 8.32454 16.4998 8.32423 16.4998 8.32393C16.4998 8.32377 16.4998 8.32355 16.4998 8.32347C16.4998 8.32325 16.4998 8.32303 15.9999 8.3167ZM15.4999 7.2999V8.3167H16.4999V7.2999H15.4999ZM16.0309 6.7999H15.9999V7.7999H16.0309V6.7999ZM15.5309 7.2999V8.3167H16.5309V7.2999H15.5309ZM16.0309 8.3167C15.5309 8.32303 15.5309 8.32325 15.5309 8.32347C15.5309 8.32355 15.5309 8.32377 15.5309 8.32393C15.5309 8.32423 15.5309 8.32454 15.5309 8.32486C15.5309 8.32549 15.531 8.32615 15.531 8.32683C15.531 8.32819 15.531 8.32964 15.5311 8.33118C15.5312 8.33426 15.5313 8.33771 15.5314 8.3415C15.5318 8.34906 15.5323 8.35807 15.5331 8.36833C15.5346 8.38869 15.5374 8.41486 15.5423 8.4451C15.5518 8.50313 15.5712 8.58857 15.6139 8.68047C15.6568 8.77301 15.7306 8.88741 15.8557 8.97892C15.9865 9.07459 16.1436 9.12327 16.3115 9.12327V8.12327C16.341 8.12327 16.3939 8.13363 16.4461 8.17183C16.4926 8.20585 16.5136 8.24361 16.5209 8.25951C16.528 8.27476 16.5292 8.28356 16.5293 8.28411C16.5295 8.28561 16.5298 8.28782 16.5301 8.29142C16.5302 8.2933 16.5304 8.29572 16.5305 8.29879C16.5306 8.30034 16.5307 8.30206 16.5307 8.30398C16.5307 8.30494 16.5308 8.30595 16.5308 8.30702C16.5308 8.30755 16.5308 8.3081 16.5308 8.30866C16.5308 8.30894 16.5308 8.30922 16.5308 8.30951C16.5308 8.30965 16.5308 8.30987 16.5308 8.30994C16.5308 8.31016 16.5308 8.31038 16.0309 8.3167ZM16.3115 9.12327C16.6115 9.12327 16.8629 8.96854 16.9902 8.87911C17.0642 8.82706 17.1254 8.77594 17.168 8.73793C17.1896 8.71868 17.2072 8.70215 17.2201 8.6897C17.2266 8.68346 17.232 8.67819 17.2361 8.67406C17.2382 8.672 17.2399 8.67021 17.2414 8.66873C17.2421 8.66799 17.2428 8.66732 17.2434 8.66673C17.2436 8.66643 17.2439 8.66616 17.2442 8.6659C17.2443 8.66577 17.2444 8.66565 17.2445 8.66553C17.2446 8.66547 17.2447 8.66539 17.2447 8.66536C17.2448 8.66528 17.2449 8.66519 16.8863 8.3167C16.5278 7.96821 16.5278 7.96813 16.5279 7.96805C16.5279 7.96803 16.528 7.96795 16.5281 7.9679C16.5282 7.9678 16.5283 7.96771 16.5283 7.96761C16.5285 7.96743 16.5287 7.96727 16.5288 7.96712C16.5291 7.96682 16.5293 7.9666 16.5295 7.96644C16.5298 7.96611 16.5299 7.96605 16.5297 7.96623C16.5293 7.96659 16.528 7.96791 16.5258 7.97005C16.5213 7.97436 16.5135 7.98179 16.5028 7.99128C16.481 8.01075 16.4503 8.03627 16.4153 8.06086C16.3793 8.08617 16.3466 8.10486 16.3207 8.11602C16.2928 8.12798 16.2914 8.12327 16.3115 8.12327V9.12327ZM16.8863 8.3167C16.5954 8.72337 16.5955 8.72344 16.5956 8.72351C16.5956 8.72353 16.5957 8.7236 16.5958 8.72365C16.5959 8.72375 16.5961 8.72386 16.5962 8.72397C16.5966 8.72418 16.5969 8.72442 16.5972 8.72468C16.598 8.72519 16.5988 8.72577 16.5997 8.72643C16.6016 8.72775 16.6039 8.72937 16.6066 8.73125C16.6121 8.73502 16.6192 8.73989 16.6279 8.74571C16.6453 8.75732 16.6692 8.77281 16.6986 8.79085C16.7571 8.82671 16.8396 8.87392 16.9389 8.92128C17.1278 9.01139 17.4209 9.12327 17.7432 9.12327V8.12327C17.6372 8.12327 17.5018 8.08188 17.3694 8.0187C17.308 7.98942 17.2566 7.95998 17.2213 7.93836C17.2039 7.92766 17.1909 7.91919 17.1832 7.91404C17.1794 7.91147 17.1769 7.90976 17.1758 7.90904C17.1753 7.90868 17.1751 7.90857 17.1754 7.90873C17.1755 7.90881 17.1757 7.90896 17.176 7.90917C17.1762 7.90928 17.1763 7.90941 17.1765 7.90955C17.1766 7.90962 17.1767 7.9097 17.1769 7.90978C17.1769 7.90982 17.177 7.90988 17.177 7.9099C17.1771 7.90997 17.1772 7.91003 16.8863 8.3167ZM17.7432 9.12327C17.8614 9.12327 17.9638 9.11173 18.0574 9.08818C18.1529 9.06413 18.2214 9.03148 18.2539 9.01633L17.8308 8.11025C17.8155 8.11738 17.8131 8.11837 17.8116 8.11897C17.8114 8.11905 17.8117 8.11891 17.8124 8.1187C17.813 8.11849 17.8134 8.1184 17.8132 8.11844C17.8132 8.11845 17.8088 8.11959 17.7983 8.12077C17.7874 8.12198 17.7697 8.12327 17.7432 8.12327V9.12327ZM18.2539 9.01633C18.2665 9.01043 18.267 9.01032 18.2657 9.01085C18.2626 9.01213 18.2526 9.01613 18.2381 9.0201C18.223 9.02424 18.2066 9.0274 18.1897 9.02903C18.1732 9.03062 18.16 9.03039 18.1515 9.02982C18.1364 9.02881 18.1389 9.02694 18.1693 9.03567C18.1991 9.04423 18.2455 9.05996 18.3162 9.088L18.6851 8.15855C18.5208 8.09334 18.3659 8.04196 18.2184 8.03206C18.0223 8.0189 17.8905 8.08237 17.8308 8.11025L18.2539 9.01633ZM18.3162 9.088C18.313 9.08677 18.3729 9.11534 18.4696 9.25781C18.5595 9.39031 18.6538 9.58117 18.7393 9.82448C18.91 10.3103 19.0259 10.9491 19.0259 11.6129H20.0259C20.0259 10.8425 19.8929 10.0911 19.6827 9.493C19.5778 9.19435 19.4487 8.91981 19.297 8.69622C19.152 8.48261 18.9519 8.26443 18.6851 8.15855L18.3162 9.088ZM19.0259 11.6129C19.0259 11.8539 18.9043 12.261 18.6592 12.7939C18.4234 13.3067 18.1048 13.871 17.7798 14.4011C17.4559 14.9294 17.1313 15.4151 16.8871 15.7692C16.7652 15.946 16.6638 16.0894 16.593 16.1884C16.5576 16.2378 16.53 16.2761 16.5113 16.3019C16.502 16.3147 16.4949 16.3245 16.4902 16.3309C16.4878 16.3341 16.4861 16.3365 16.485 16.338C16.4844 16.3387 16.484 16.3393 16.4838 16.3396C16.4836 16.3398 16.4836 16.3399 16.4835 16.34C16.4835 16.34 16.4835 16.34 16.4835 16.34C16.4835 16.34 16.4835 16.34 16.8863 16.6362C17.2891 16.9324 17.2891 16.9324 17.2892 16.9323C17.2892 16.9323 17.2893 16.9322 17.2893 16.9321C17.2895 16.932 17.2896 16.9318 17.2898 16.9315C17.2902 16.931 17.2908 16.9302 17.2915 16.9292C17.2929 16.9273 17.2949 16.9245 17.2976 16.9209C17.3029 16.9136 17.3106 16.903 17.3206 16.8892C17.3406 16.8617 17.3696 16.8215 17.4065 16.77C17.4801 16.6671 17.5848 16.5189 17.7104 16.3368C17.9612 15.9731 18.2964 15.4718 18.6324 14.9237C18.9674 14.3772 19.3086 13.7752 19.5678 13.2117C19.8176 12.6683 20.0259 12.089 20.0259 11.6129H19.0259ZM16.4044 16.7695L16.5441 17.2743L17.5079 17.0077L17.3682 16.5029L16.4044 16.7695ZM17.026 17.141C17.3342 17.5347 17.3343 17.5346 17.3345 17.5345C17.3345 17.5345 17.3347 17.5344 17.3348 17.5343C17.335 17.5341 17.3353 17.5339 17.3356 17.5336C17.3362 17.5332 17.337 17.5326 17.3379 17.5318C17.3398 17.5303 17.3423 17.5283 17.3455 17.5257C17.3519 17.5207 17.3609 17.5135 17.3723 17.5042C17.3951 17.4857 17.4276 17.459 17.4687 17.4243C17.5508 17.3551 17.6672 17.2541 17.8083 17.1243C18.0902 16.8648 18.4725 16.4882 18.8775 16.0165C19.6816 15.0801 20.6049 13.7352 20.9799 12.1625L20.0072 11.9306C19.6847 13.2831 18.8742 14.4854 18.1189 15.365C17.7443 15.8012 17.3904 16.1498 17.1311 16.3885C17.0016 16.5077 16.8961 16.5991 16.824 16.6599C16.788 16.6903 16.7603 16.713 16.7422 16.7277C16.7331 16.7351 16.7265 16.7404 16.7223 16.7437C16.7203 16.7453 16.7188 16.7465 16.718 16.7471C16.7177 16.7474 16.7174 16.7476 16.7174 16.7476C16.7173 16.7476 16.7174 16.7476 16.7174 16.7476C16.7174 16.7476 16.7175 16.7475 16.7175 16.7475C16.7176 16.7474 16.7177 16.7474 17.026 17.141ZM20.9799 12.1625C21.3695 10.5283 20.8572 9.17019 20.2697 8.243C19.976 7.77957 19.6597 7.41666 19.4165 7.16908C19.2946 7.04493 19.19 6.94876 19.1145 6.88244C19.0766 6.84925 19.046 6.82346 19.0239 6.80529C19.0129 6.7962 19.004 6.78902 18.9974 6.78377C18.9942 6.78114 18.9914 6.77899 18.9893 6.77733C18.9883 6.7765 18.9874 6.77579 18.9866 6.7752C18.9863 6.77491 18.9859 6.77465 18.9856 6.77441C18.9855 6.7743 18.9853 6.77415 18.9852 6.77409C18.985 6.77394 18.9848 6.77381 18.678 7.16862C18.3712 7.56343 18.3711 7.5633 18.3709 7.56319C18.3709 7.56316 18.3708 7.56305 18.3707 7.563C18.3705 7.56288 18.3704 7.5628 18.3704 7.56274C18.3702 7.56263 18.3702 7.56264 18.3704 7.56275C18.3707 7.56299 18.3716 7.56369 18.373 7.56485C18.3759 7.56716 18.381 7.5713 18.3882 7.57723C18.4027 7.5891 18.4253 7.60811 18.4548 7.63403C18.514 7.68593 18.6003 7.76517 18.7031 7.86979C18.9093 8.07976 19.1776 8.38786 19.425 8.77826C19.9195 9.55873 20.3149 10.6396 20.0072 11.9306L20.9799 12.1625ZM18.7226 6.6706L18.5607 6.65613L18.4716 7.65215L18.6335 7.66663L18.7226 6.6706ZM18.0161 6.3999V7.15414H19.0161V6.3999H18.0161Z" fill="#FFD018"/>
<path fill-rule="evenodd" clip-rule="evenodd" d="M13.1035 13.7848C13.1035 13.7848 13.418 12.9404 13.9679 13.2219C14.5179 13.5033 14.4699 14.4832 14.9702 14.134C15.4706 13.7848 15.1869 13.2219 15.9283 13.2219C16.6698 13.2219 16.5606 14.134 17.0052 14.134C17.4499 14.134 17.4884 13.2219 17.9854 13.2219C18.4825 13.2219 18.9866 13.7848 18.9866 13.7848L16.0451 17.7873L13.1035 13.7848Z" fill="#8FC753"/>
<path fill-rule="evenodd" clip-rule="evenodd" d="M7.92888 18.4572L7.6125 18.0309C7.6125 18.0309 8.92457 18.0309 9.10257 18.3394C9.15274 18.4264 9.17463 18.4928 9.19129 18.5434C9.23375 18.6722 9.24225 18.698 9.59816 18.698C10.0937 18.698 9.59816 18.2063 9.3918 18.0309C9.18545 17.8555 9.31111 17.5499 9.59816 17.5499C9.70878 17.5499 9.90134 17.5245 10.138 17.4933C10.5155 17.4436 11.0052 17.3791 11.4539 17.3791C12.184 17.3791 11.5788 18.0309 11.5788 18.0309C11.5788 18.0309 12.524 18.0309 12.2894 17.7596C12.0547 17.4884 13.0773 17.1583 13.5191 17.1583C13.931 17.1583 15.7851 17.2508 16.0345 17.2633C16.2953 17.2508 18.2336 17.1583 18.6454 17.1583C19.0872 17.1583 20.1098 17.4884 19.8751 17.7596C19.6405 18.0309 20.5857 18.0309 20.5857 18.0309C20.5857 18.0309 19.9805 17.3791 20.7106 17.3791C21.1593 17.3791 21.649 17.4436 22.0265 17.4933C22.2632 17.5245 22.4557 17.5499 22.5664 17.5499C22.8534 17.5499 22.9791 17.8555 22.7727 18.0309C22.5664 18.2063 22.0708 18.698 22.5664 18.698C22.9223 18.698 22.9308 18.6722 22.9732 18.5434C22.9899 18.4928 23.0118 18.4264 23.0619 18.3394C23.2336 18.0418 24.4605 18.0313 24.5472 18.0309C24.5274 17.9947 24.5161 17.9529 24.5161 17.9083C24.5161 17.7703 24.6244 17.6583 24.7581 17.6583C24.8917 17.6583 25 17.7703 25 17.9083C25 18.0464 24.8917 18.1583 24.7581 18.1583C24.669 18.1583 24.5913 18.1086 24.5492 18.0347L24.2356 18.4572L24.5622 18.8615C24.6062 18.799 24.6775 18.7583 24.7581 18.7583C24.8917 18.7583 25 18.8703 25 19.0083C25 19.1464 24.8917 19.2583 24.7581 19.2583C24.6244 19.2583 24.5161 19.1464 24.5161 19.0083C24.5161 18.9798 24.5208 18.9524 24.5293 18.9268C24.3443 18.837 24.0247 18.698 23.8174 18.698H23.2399C23.3852 18.698 24.1848 19.2256 23.9427 19.4542L23.9016 19.4931C23.6641 19.7189 23.3543 20.0134 23.0619 19.8528C22.7525 19.6828 22.5664 19.4542 22.5664 19.4542L22.3239 18.698C22.3239 18.698 20.8947 18.3291 20.8947 18.5845C20.8947 18.8398 20.8907 18.9648 20.3839 18.9648C20.1003 18.9648 19.8262 18.9167 19.5849 18.8743C19.395 18.841 19.2254 18.8112 19.0872 18.8112C18.8896 18.8112 18.5842 18.8722 18.3583 18.9173C18.2256 18.9438 18.1202 18.9648 18.0802 18.9648C17.972 18.9648 17.3933 18.9387 17.7899 18.698C18.1865 18.4572 18.2779 18.2063 18.2779 18.2063C18.2779 18.2063 16.6904 18.442 16.0623 18.4565V18.4572L16.0339 18.4571L16.0055 18.4572V18.4565C15.3827 18.442 13.8866 18.2063 13.8866 18.2063C13.8866 18.2063 13.978 18.4572 14.3746 18.698C14.7712 18.9387 14.1925 18.9648 14.0843 18.9648C14.0443 18.9648 13.9389 18.9438 13.8062 18.9173C13.5803 18.8722 13.2749 18.8112 13.0773 18.8112C12.9391 18.8112 12.7695 18.841 12.5796 18.8743C12.3383 18.9167 12.0642 18.9648 11.7806 18.9648C11.2738 18.9648 11.2698 18.8398 11.2698 18.5845C11.2698 18.3291 9.84061 18.698 9.84061 18.698L9.59816 19.4542C9.59816 19.4542 9.41203 19.6828 9.10257 19.8528C8.81025 20.0134 8.50041 19.7189 8.26287 19.4931L8.22186 19.4542C7.97969 19.2256 8.77935 18.698 8.92457 18.698H8.34716C8.04078 18.698 7.48932 19.0014 7.48932 19.0014L7.92888 18.4572ZM7.24194 18.1583C7.37555 18.1583 7.48387 18.0464 7.48387 17.9083C7.48387 17.7703 7.37555 17.6583 7.24194 17.6583C7.10832 17.6583 7 17.7703 7 17.9083C7 18.0464 7.10832 18.1583 7.24194 18.1583ZM7.24194 19.2583C7.37555 19.2583 7.48387 19.1464 7.48387 19.0083C7.48387 18.8703 7.37555 18.7583 7.24194 18.7583C7.10832 18.7583 7 18.8703 7 19.0083C7 19.1464 7.10832 19.2583 7.24194 19.2583Z" fill="white"/>
<path fill-rule="evenodd" clip-rule="evenodd" d="M15.8944 2.02942H16.0944V2.24378H16.3401V2.44378H16.0944V2.80783C16.3702 2.85442 16.5807 3.10178 16.5807 3.39994C16.5807 3.73131 16.3207 3.99994 16 3.99994C15.6793 3.99994 15.4194 3.73131 15.4194 3.39994C15.4194 3.10583 15.6242 2.86115 15.8944 2.80984V2.44378H15.6687V2.24378H15.8944V2.02942Z" fill="#FFD018"/>
<path fill-rule="evenodd" clip-rule="evenodd" d="M13.7468 5.22583C13.4669 5.22583 12.8765 5.5252 12.8765 5.5252L13.3356 6.54315L16.1042 6.43927L18.8729 6.54315L19.3319 5.5252C19.3319 5.5252 18.7415 5.22583 18.4616 5.22583C18.3387 5.22583 18.323 5.15349 18.3055 5.07235C18.2832 4.96871 18.2577 4.8507 18.0016 4.8507C17.8203 4.8507 17.6923 4.88077 17.5886 4.90512C17.431 4.94212 17.3297 4.9659 17.1837 4.8507C17.1776 4.84589 17.1716 4.84108 17.1655 4.83626C16.9291 4.64958 16.6837 4.45569 16.2866 4.45569C16.2074 4.45569 16.1482 4.53059 16.1042 4.65126C16.0603 4.53059 16.0011 4.45569 15.9218 4.45569C15.5248 4.45569 15.2793 4.64958 15.043 4.83626C15.0369 4.84108 15.0308 4.84589 15.0247 4.8507C14.8787 4.9659 14.7774 4.94212 14.6198 4.90512C14.5162 4.88077 14.3881 4.8507 14.2069 4.8507C13.9507 4.8507 13.9252 4.96871 13.9029 5.07235C13.8854 5.15349 13.8698 5.22583 13.7468 5.22583Z" fill="#E31D1C"/>
<path fill-rule="evenodd" clip-rule="evenodd" d="M15.608 3.56836L15.4137 3.63578C14.9001 3.81394 14.4554 3.8727 14.0798 3.81481C13.3063 3.69562 12.2971 4.09804 12.4236 4.68736C12.479 4.94561 12.6408 5.43338 12.809 5.84678C13.0424 6.42041 13.2058 6.70976 13.3968 6.70976C13.4216 6.70976 13.681 6.72392 13.7675 6.72864C13.7831 6.72949 13.793 6.73004 13.795 6.73014C14.076 6.74437 14.3238 6.75189 14.5621 6.75078C15.2512 6.74756 15.6783 6.6799 15.8309 6.47315L15.8758 6.41231L15.8545 6.33904C15.6735 5.71676 15.5897 4.8631 15.605 3.78017L15.608 3.56836ZM12.707 4.62241C12.645 4.33344 13.4344 4.01867 14.0369 4.11153C14.4123 4.16937 14.8376 4.12583 15.313 3.98279C15.3105 4.94535 15.389 5.72724 15.5498 6.32993C15.412 6.40202 15.05 6.4485 14.5608 6.45078C14.3285 6.45186 14.0855 6.44449 13.8092 6.4305C13.8117 6.43062 13.5246 6.41471 13.4263 6.41068C13.423 6.40736 13.4191 6.40319 13.4149 6.3982C13.3889 6.368 13.3565 6.31917 13.32 6.25453C13.2481 6.12708 13.1641 5.94543 13.0766 5.7305C12.9146 5.33231 12.7581 4.86052 12.707 4.62241Z" fill="#FFD018"/>
<path fill-rule="evenodd" clip-rule="evenodd" d="M16.4547 3.56836L16.649 3.63578C17.1626 3.81394 17.6073 3.8727 17.983 3.81481C18.7564 3.69562 19.7656 4.09804 19.6392 4.68736C19.5837 4.94561 19.422 5.43338 19.2538 5.84678C19.0204 6.42041 18.857 6.70976 18.6659 6.70976C18.6412 6.70976 18.3817 6.72392 18.2952 6.72864C18.2797 6.72949 18.2697 6.73004 18.2677 6.73014C17.9867 6.74437 17.739 6.75189 17.5007 6.75078C16.8116 6.74756 16.3844 6.6799 16.2319 6.47315L16.187 6.41231L16.2083 6.33904C16.3892 5.71676 16.473 4.8631 16.4577 3.78017L16.4547 3.56836ZM19.3557 4.62241C19.4177 4.33344 18.6283 4.01867 18.0258 4.11153C17.6505 4.16937 17.2252 4.12583 16.7497 3.98279C16.7523 4.94535 16.6738 5.72724 16.5129 6.32993C16.6507 6.40202 17.0128 6.4485 17.502 6.45078C17.7343 6.45186 17.9772 6.44449 18.2535 6.4305C18.2511 6.43062 18.5382 6.41471 18.6365 6.41068C18.6398 6.40736 18.6436 6.40319 18.6479 6.3982C18.6738 6.368 18.7062 6.31917 18.7427 6.25453C18.8147 6.12708 18.8987 5.94543 18.9861 5.7305C19.1482 5.33231 19.3046 4.86052 19.3557 4.62241Z" fill="#FFD018"/>
<path fill-rule="evenodd" clip-rule="evenodd" d="M12.8366 6.47096C12.8369 6.41546 12.8049 6.31523 12.7351 6.12909C12.6388 5.87264 12.5729 5.79493 12.433 5.70944C12.3621 5.66617 12.3344 5.62867 12.3011 5.49954C12.2744 5.39625 12.2473 5.31565 12.2162 5.24136C12.2099 5.22625 12.1964 5.19619 12.1834 5.16724L12.1834 5.16724C12.1701 5.13752 12.1573 5.10898 12.1533 5.09902C12.1317 5.04467 12.1228 4.99634 12.1228 4.91799C12.1228 4.82867 12.1461 4.75712 12.2078 4.62701C12.2446 4.54931 12.2494 4.53899 12.2625 4.50622C12.289 4.43973 12.3027 4.38225 12.3027 4.32355V3.9384C12.3027 3.71351 12.3116 3.69981 12.422 3.71472C12.4331 3.71622 12.4438 3.71793 12.4551 3.71996C12.4509 3.71922 12.5082 3.73036 12.5217 3.73196C12.548 3.73507 12.5696 3.73296 12.5914 3.72312C12.631 3.70524 12.6601 3.67016 12.7298 3.56595C12.7626 3.51686 12.7979 3.52167 12.9233 3.58276C12.9411 3.59144 12.9516 3.59647 12.9631 3.60174C13.0913 3.66064 13.1804 3.66235 13.2561 3.56982C13.3725 3.42764 13.4494 3.43671 13.5906 3.57395C13.6603 3.64173 13.6955 3.66738 13.7401 3.67394L13.7438 3.67449C13.7908 3.68145 13.7937 3.68188 13.9261 3.60072C13.9352 3.61949 13.9548 3.62675 13.9866 3.63416C14.029 3.64406 14.0921 3.64741 14.1344 3.64081C14.1695 3.63531 14.1945 3.62445 14.211 3.59012C14.267 3.58843 14.3332 3.58753 14.4097 3.58753V3.48753C14.3117 3.48753 14.23 3.48898 14.164 3.49175C14.1588 3.48743 14.1525 3.48188 14.1455 3.47567L14.1455 3.47566C14.1092 3.44369 14.0528 3.39404 14.0261 3.40192C14.0225 3.40298 14.0119 3.41235 13.9974 3.42525L13.9974 3.42526C13.9742 3.44582 13.9409 3.47535 13.9096 3.49454C13.7782 3.57519 13.7732 3.57779 13.7537 3.57493C13.7364 3.57239 13.7116 3.55432 13.6569 3.50112C13.4797 3.32884 13.3401 3.31238 13.1822 3.50524C13.1422 3.55414 13.0958 3.55325 13.0024 3.51036C12.9917 3.50547 12.9817 3.50069 12.9645 3.49231C12.7972 3.41077 12.7226 3.40062 12.6501 3.50911C12.5926 3.59511 12.5684 3.62438 12.5527 3.63148L12.5505 3.63261L12.5492 3.63327C12.5458 3.63486 12.5412 3.63404 12.4979 3.62619L12.4717 3.62144C12.4591 3.61918 12.4471 3.61726 12.4346 3.61557C12.2517 3.59087 12.2059 3.66139 12.2059 3.9384V4.32355C12.2059 4.36734 12.1952 4.41268 12.173 4.46807C12.1611 4.49796 12.1565 4.50785 12.1209 4.58303C12.0531 4.72602 12.026 4.80908 12.026 4.91799C12.026 5.00918 12.0373 5.07041 12.0638 5.13701C12.0686 5.1492 12.0832 5.18162 12.0975 5.2134C12.1098 5.24092 12.122 5.26795 12.1274 5.28098C12.1566 5.3508 12.1821 5.42678 12.2076 5.52534C12.2475 5.67986 12.2911 5.73897 12.3837 5.79553C12.5054 5.86987 12.5566 5.93027 12.6448 6.16526C12.6907 6.28735 12.7191 6.37301 12.7327 6.42658C12.7355 6.43766 12.7376 6.44694 12.739 6.4544C12.725 6.46565 12.7267 6.4736 12.7313 6.49576C12.7346 6.50336 12.7356 6.5057 12.737 6.50781L12.7392 6.51093L12.7392 6.51093C12.7448 6.5177 12.7448 6.5177 12.7515 6.52326C12.7542 6.52534 12.7571 6.52722 12.7602 6.52884C12.7584 6.52857 12.7569 6.52799 12.7552 6.52676C12.761 6.53357 12.7688 6.54327 12.7785 6.55599C12.8733 6.6799 12.9926 6.6799 13.1067 6.56004L13.0377 6.4899C12.9628 6.56859 12.9115 6.56859 12.8544 6.49396L12.8366 6.47096ZM13.9989 3.53432L13.997 3.53343L13.9978 3.53377L13.9989 3.53432ZM19.1152 6.47096C19.1149 6.41546 19.1469 6.31523 19.2168 6.12909C19.3131 5.87264 19.3789 5.79493 19.5189 5.70944C19.5897 5.66617 19.6174 5.62867 19.6508 5.49954C19.6775 5.39625 19.7046 5.31565 19.7356 5.24136C19.7419 5.22625 19.7554 5.19619 19.7684 5.16725C19.7818 5.13752 19.7946 5.10898 19.7985 5.09902C19.8201 5.04467 19.8291 4.99634 19.8291 4.91799C19.8291 4.82867 19.8057 4.75712 19.744 4.62701C19.7072 4.54931 19.7025 4.53899 19.6894 4.50622C19.6628 4.43973 19.6491 4.38225 19.6491 4.32355V3.9384C19.6491 3.71351 19.6402 3.69981 19.5298 3.71472C19.5188 3.71622 19.508 3.71793 19.4968 3.71996C19.5009 3.71922 19.4437 3.73036 19.4302 3.73196C19.4039 3.73507 19.3823 3.73296 19.3605 3.72312C19.3208 3.70524 19.2918 3.67016 19.2221 3.56595C19.1893 3.51686 19.154 3.52167 19.0286 3.58276C19.0108 3.59144 19.0003 3.59647 18.9888 3.60174C18.8605 3.66064 18.7715 3.66235 18.6957 3.56982C18.5793 3.42764 18.5024 3.43671 18.3613 3.57395C18.2916 3.64173 18.2564 3.66738 18.2118 3.67394L18.2081 3.67449C18.1611 3.68145 18.1582 3.68188 18.0257 3.60072C18.0167 3.61949 17.9971 3.62675 17.9653 3.63416C17.9229 3.64406 17.8598 3.64741 17.8175 3.64081C17.7823 3.63531 17.7574 3.62445 17.7409 3.59012C17.6849 3.58843 17.6187 3.58753 17.5421 3.58753V3.48753C17.6402 3.48753 17.7219 3.48898 17.7879 3.49175C17.793 3.48742 17.7993 3.48188 17.8064 3.47566C17.8427 3.44369 17.8991 3.39404 17.9258 3.40192C17.9294 3.40298 17.9399 3.41234 17.9545 3.42524L17.9545 3.42525L17.9545 3.42526C17.9767 3.44499 18.0083 3.473 18.0385 3.49219L18.0422 3.49454C18.1736 3.57519 18.1787 3.57779 18.1982 3.57493C18.2155 3.57239 18.2403 3.55432 18.295 3.50112C18.4722 3.32884 18.6117 3.31238 18.7696 3.50524C18.8096 3.55414 18.8561 3.55325 18.9495 3.51036C18.9601 3.50547 18.9701 3.50069 18.9873 3.49231C19.1547 3.41077 19.2292 3.40062 19.3017 3.50911C19.3592 3.59511 19.3835 3.62438 19.3992 3.63148L19.4014 3.63261L19.4026 3.63327C19.406 3.63486 19.4106 3.63404 19.4539 3.62619L19.4802 3.62144C19.4927 3.61918 19.5048 3.61726 19.5173 3.61557C19.7001 3.59087 19.7459 3.66139 19.7459 3.9384V4.32355C19.7459 4.36734 19.7567 4.41268 19.7788 4.46807C19.7908 4.49796 19.7953 4.50785 19.831 4.58303C19.8987 4.72602 19.9259 4.80908 19.9259 4.91799C19.9259 5.00918 19.9145 5.07041 19.8881 5.13701C19.8832 5.1492 19.8687 5.18161 19.8544 5.2134C19.842 5.24091 19.8299 5.26795 19.8245 5.28098C19.7953 5.3508 19.7697 5.42678 19.7443 5.52534C19.7044 5.67986 19.6607 5.73897 19.5681 5.79553C19.4464 5.86987 19.3953 5.93027 19.307 6.16526C19.2612 6.28735 19.2327 6.37301 19.2191 6.42658C19.2163 6.43766 19.2142 6.44694 19.2129 6.4544C19.2269 6.46565 19.2252 6.4736 19.2206 6.49576C19.2173 6.50336 19.2162 6.5057 19.2149 6.50781L19.2127 6.51093C19.2071 6.5177 19.2071 6.5177 19.2004 6.52326C19.1976 6.52534 19.1947 6.52722 19.1917 6.52884C19.1935 6.52857 19.1949 6.52799 19.1967 6.52676C19.1909 6.53357 19.1831 6.54327 19.1734 6.55599C19.0785 6.6799 18.9593 6.6799 18.8452 6.56004L18.9141 6.4899C18.9891 6.56859 19.0403 6.56859 19.0974 6.49396L19.1152 6.47096Z" fill="#5E5E5E"/>
<path d="M13.774 17.885L13.8347 17.3887C14.9093 17.5202 15.6268 17.586 15.9883 17.5862C16.5335 17.6107 17.1833 17.5713 17.9367 17.4672L18.0051 17.9625C17.2236 18.0704 16.5442 18.1117 15.9771 18.086C15.5997 18.086 14.8687 18.019 13.774 17.885Z" fill="#272727"/>
</g>
</g>
<defs>
<clipPath id="clip0_30_18118">
<rect width="32" height="24" fill="white"/>
</clipPath>
</defs>
</svg>
