<svg width="32" height="24" viewBox="0 0 32 24" fill="none" xmlns="http://www.w3.org/2000/svg">
<g clip-path="url(#clip0_30_18145)">
<rect width="32" height="24" fill="white"/>
<path fill-rule="evenodd" clip-rule="evenodd" d="M0 0H32V24H0V0Z" fill="#F7FCFF"/>
<path fill-rule="evenodd" clip-rule="evenodd" d="M0 0V8H32V0H0Z" fill="#272727"/>
<path fill-rule="evenodd" clip-rule="evenodd" d="M0 16V24H32V16H0Z" fill="#4E8B1D"/>
<path d="M0 7H-1V8V16V17H0H32H33V16V8V7H32H0Z" fill="#E31D1C" stroke="#F7FCFF" stroke-width="2"/>
<path fill-rule="evenodd" clip-rule="evenodd" d="M0 0L20 12L0 24V0Z" fill="#3D58DB"/>
<path fill-rule="evenodd" clip-rule="evenodd" d="M6.64786 14.4087L4.62834 16.5087L4.41737 13.5232L1.84191 11.9367L4.52778 11.0939L4.96703 8.13574L6.82651 10.478L9.53854 9.75128L8.13679 12.5266L9.49991 15.2034L6.64786 14.4087Z" fill="#FECA00"/>
</g>
<defs>
<clipPath id="clip0_30_18145">
<rect width="32" height="24" fill="white"/>
</clipPath>
</defs>
</svg>
