<svg width="32" height="24" viewBox="0 0 32 24" fill="none" xmlns="http://www.w3.org/2000/svg">
<g clip-path="url(#clip0_30_18011)">
<rect width="32" height="24" fill="white"/>
<path fill-rule="evenodd" clip-rule="evenodd" d="M0 0V24H32V0H0Z" fill="#E31D1C"/>
<mask id="mask0_30_18011" style="mask-type:luminance" maskUnits="userSpaceOnUse" x="0" y="0" width="32" height="24">
<path fill-rule="evenodd" clip-rule="evenodd" d="M0 0V24H32V0H0Z" fill="white"/>
</mask>
<g mask="url(#mask0_30_18011)">
<path fill-rule="evenodd" clip-rule="evenodd" d="M0 12V24H32V12H0Z" fill="#2E42A5"/>
</g>
<path fill-rule="evenodd" clip-rule="evenodd" d="M0 -2V26L20 12L0 -2Z" fill="#F7FCFF"/>
<mask id="mask1_30_18011" style="mask-type:luminance" maskUnits="userSpaceOnUse" x="0" y="-2" width="20" height="28">
<path fill-rule="evenodd" clip-rule="evenodd" d="M0 -2V26L20 12L0 -2Z" fill="white"/>
</mask>
<g mask="url(#mask1_30_18011)">
<path fill-rule="evenodd" clip-rule="evenodd" d="M8.12587 10.1888C9.56259 10.1888 10.7273 9.25111 10.7273 8.09441C10.7273 6.9377 9.56259 6 8.12587 6C6.68916 6 5.52448 6.9377 5.52448 8.09441C5.52448 9.25111 6.68916 10.1888 8.12587 10.1888Z" fill="#FBCD17"/>
<path fill-rule="evenodd" clip-rule="evenodd" d="M8.35344 6.38538C8.14107 6.38538 7.99018 6.52219 7.99018 6.72813L7.99037 6.75084C7.97896 6.78516 7.97256 6.8234 7.97141 6.86621C7.96846 6.97577 8.00926 7.06716 8.09488 7.15098C8.10015 7.17518 8.10289 7.19523 8.10211 7.20661C8.09691 7.18873 8.07624 7.17375 8.03689 7.14522C7.98094 7.10465 7.88721 7.03671 7.74647 6.89414C7.54375 6.68881 7.39077 6.60844 7.20061 6.64038C7.14295 6.65006 7.08652 6.67037 7.01876 6.69751C6.91074 6.73641 6.8113 6.74544 6.62769 6.71039C6.11749 6.613 5.55788 6.70856 4.95206 6.9893L5.16228 7.44295C5.67933 7.20336 6.13549 7.12547 6.53395 7.20152C6.80767 7.25377 6.99773 7.23651 7.18817 7.16793C7.27022 7.13707 7.2774 7.13448 7.28342 7.13347C7.27738 7.13449 7.28125 7.1382 7.30661 7.16258C7.32369 7.17899 7.35053 7.20478 7.39065 7.24542C7.4478 7.30331 7.50754 7.35571 7.56856 7.40337C7.45128 7.43489 7.45734 7.45652 7.47887 7.53328C7.48764 7.56455 7.49898 7.60498 7.50558 7.65896C7.52016 7.77813 7.49594 7.83959 7.51684 7.86902C7.54015 7.90186 7.61962 7.89483 7.87179 7.88359C7.93966 7.88056 8.03146 7.87355 8.13738 7.86354C8.3451 7.84389 8.58019 7.81526 8.72465 7.79158C8.86497 7.76858 8.90227 7.76018 8.96112 7.71735L8.96113 7.71733C8.98148 7.69239 8.99889 7.67104 9.01331 7.65203C9.49314 7.58153 9.91981 7.53145 10.2995 7.4969C10.4356 7.48451 10.545 7.47601 10.6509 7.46823C10.6635 7.46812 10.6635 7.46812 10.725 7.45525L10.725 7.45525C10.7519 7.4438 10.7631 7.43908 10.7668 7.4375L10.7668 7.4376C10.7685 7.43684 10.7695 7.43639 10.7668 7.4375L10.8894 7.14721L10.7628 6.9941C10.6873 6.97039 10.679 6.96778 10.6706 6.96741C10.6695 6.96736 10.6685 6.96735 10.6673 6.96734C10.6574 6.96676 10.6538 6.96654 10.6502 6.96643C10.6481 6.96636 10.6461 6.96633 10.6428 6.96628C10.6288 6.96619 10.6196 6.96614 10.6105 6.9661C10.5936 6.96605 10.5766 6.96607 10.5282 6.96612C10.4451 6.96612 10.3795 6.9591 10.2847 6.94225L10.1966 6.92605C9.80676 6.85453 9.44521 6.85453 8.67842 6.96886C8.66398 6.95768 8.64961 6.94665 8.63558 6.93612C8.75907 6.91466 8.90946 6.90009 9.06839 6.89162L9.0684 6.89162C9.16448 6.88714 9.16448 6.88714 9.21812 6.88571L9.24158 6.88516L9.23865 6.38541L9.20072 6.38538H8.35344ZM7.93927 7.83291C7.95386 7.82977 7.9698 7.82646 7.98708 7.82297L8.03418 7.81292C8.02555 7.81475 8.01598 7.81675 8.00541 7.81895C7.98667 7.82286 7.96475 7.82743 7.93927 7.83291Z" fill="#DA610A"/>
<path d="M7.92501 8.5807L8.0059 8.08729L8.0868 8.5807C9.07982 8.4179 9.7337 8.4369 10.1126 8.56398C10.549 8.71037 11.0314 8.66893 11.5388 8.49808C11.3777 9.21585 11.2953 9.89425 11.2953 10.5318C11.2953 11.2586 11.4359 11.8458 11.5635 12.3609C11.5669 12.3747 11.5703 12.3885 11.5737 12.4022C11.6987 12.9066 11.8023 13.3247 11.8023 13.8044C11.8023 14.235 11.6595 14.4612 11.4599 14.6025C11.2287 14.7662 10.8432 14.8704 10.2716 14.8704C9.46555 14.8704 8.71153 15.0875 8.01724 15.5122L8.0059 15.504L7.99456 15.5122C7.30027 15.0875 6.54625 14.8704 5.74023 14.8704C5.16856 14.8704 4.78307 14.7662 4.55193 14.6025C4.3523 14.4612 4.20947 14.235 4.20947 13.8044C4.20947 13.3247 4.31308 12.9066 4.4381 12.4022C4.44149 12.3885 4.4449 12.3747 4.44833 12.3609C4.57591 11.8458 4.71651 11.2586 4.71651 10.5318C4.71651 9.89425 4.63407 9.21585 4.47305 8.49808C4.98036 8.66893 5.4628 8.71037 5.89924 8.56398C6.2781 8.4369 6.93198 8.4179 7.92501 8.5807Z" fill="#56C6F5" stroke="#E31D1C"/>
<path fill-rule="evenodd" clip-rule="evenodd" d="M8.78482 10.6242L8.01339 9.93848L7.24196 10.6242H7.47053V11.0195L6.27053 11.767V13.5956H6.04196V13.9385H6.27053H9.75625H10.042V13.5956H9.75625V11.767L8.4991 10.9839V10.6242H8.78482Z" fill="#F7FCFF"/>
<path d="M8.01339 9.93848L8.09644 9.84505L8.01339 9.77123L7.93034 9.84505L8.01339 9.93848ZM8.78482 10.6242V10.7492H9.11359L8.86786 10.5308L8.78482 10.6242ZM7.24196 10.6242L7.15892 10.5308L6.91319 10.7492H7.24196V10.6242ZM7.47053 10.6242H7.59553V10.4992H7.47053V10.6242ZM7.47053 11.0195L7.53663 11.1256L7.59553 11.0889V11.0195H7.47053ZM6.27053 11.767L6.20444 11.661L6.14553 11.6976V11.767H6.27053ZM6.27053 13.5956V13.7206H6.39553V13.5956H6.27053ZM6.04196 13.5956V13.4706H5.91696V13.5956H6.04196ZM6.04196 13.9385H5.91696V14.0635H6.04196V13.9385ZM10.042 13.9385V14.0635H10.167V13.9385H10.042ZM10.042 13.5956H10.167V13.4706H10.042V13.5956ZM9.75625 13.5956H9.63125V13.7206H9.75625V13.5956ZM9.75625 11.767H9.88125V11.6976L9.82234 11.661L9.75625 11.767ZM8.4991 10.9839H8.3741V11.0533L8.43301 11.09L8.4991 10.9839ZM8.4991 10.6242V10.4992H8.3741V10.6242H8.4991ZM7.93034 10.0319L8.70177 10.7176L8.86786 10.5308L8.09644 9.84505L7.93034 10.0319ZM7.32501 10.7176L8.09644 10.0319L7.93034 9.84505L7.15892 10.5308L7.32501 10.7176ZM7.47053 10.4992H7.24196V10.7492H7.47053V10.4992ZM7.34553 10.6242V11.0195H7.59553V10.6242H7.34553ZM7.40444 10.9134L6.20444 11.661L6.33663 11.8731L7.53663 11.1256L7.40444 10.9134ZM6.14553 11.767V13.5956H6.39553V11.767H6.14553ZM6.27053 13.4706H6.04196V13.7206H6.27053V13.4706ZM5.91696 13.5956V13.9385H6.16696V13.5956H5.91696ZM6.04196 14.0635H6.27053V13.8135H6.04196V14.0635ZM6.27053 14.0635H9.75625V13.8135H6.27053V14.0635ZM9.75625 14.0635H10.042V13.8135H9.75625V14.0635ZM10.167 13.9385V13.5956H9.91696V13.9385H10.167ZM10.042 13.4706H9.75625V13.7206H10.042V13.4706ZM9.88125 13.5956V11.767H9.63125V13.5956H9.88125ZM9.82234 11.661L8.5652 10.8778L8.43301 11.09L9.69015 11.8731L9.82234 11.661ZM8.6241 10.9839V10.6242H8.3741V10.9839H8.6241ZM8.78482 10.4992H8.4991V10.7492H8.78482V10.4992Z" fill="#3B3B3B"/>
<path d="M7.95188 17.0204C9.01292 17.0204 9.74337 16.9046 10.1195 16.7071C10.2181 16.5395 10.3911 16.4448 10.5751 16.4516C11.4015 16.4822 12.0416 16.134 12.5448 15.3688C13.0885 14.542 13.1977 13.3675 12.8434 11.8259L13.743 11.6191C14.149 13.3855 14.0164 14.8109 13.3161 15.876C12.6885 16.8303 11.8328 17.3401 10.7886 17.3747C10.2552 17.7696 9.32052 17.9435 7.95188 17.9435C6.62782 17.9435 5.64611 17.6864 5.01647 17.1402C3.58659 16.8024 2.67793 16.2321 2.32064 15.3867C1.93977 14.4856 1.93977 13.2346 2.29505 11.6232L3.19648 11.8219C2.8786 13.2638 2.8786 14.3358 3.17089 15.0274C3.37486 15.5099 3.9675 15.9038 4.97153 16.1768L5.90435 16.3763L5.85956 16.6118C6.31463 16.8778 7.01012 17.0204 7.95188 17.0204Z" fill="#FBCD17"/>
<path fill-rule="evenodd" clip-rule="evenodd" d="M4.76673 9.17619C4.66367 9.43238 4.7878 9.72361 5.04399 9.82667L5.05987 9.83306L5.03569 9.88333C4.86048 10.2476 5.16032 10.6235 5.51415 10.6013L5.50263 10.6579C5.39998 11.1621 5.9819 11.4142 6.30369 11.1576C6.50931 11.1526 6.71145 11.0296 6.77221 10.7725L6.82904 10.532L6.85198 10.5389C7.32354 10.6811 7.64252 10.161 7.43447 9.80946C7.4973 9.69517 7.51564 9.55658 7.47441 9.42204C7.39351 9.15801 7.1139 9.00956 6.84987 9.09046L6.33397 9.24853C6.26519 9.22924 6.19145 9.22454 6.11707 9.23771C6.06723 9.18109 6.00366 9.13486 5.92857 9.10465L5.41722 8.89893C5.16103 8.79587 4.8698 8.92 4.76673 9.17619ZM6.82904 10.532L6.95125 10.0148L6.32028 10.3786L6.82904 10.532Z" fill="#73BE4A"/>
<path fill-rule="evenodd" clip-rule="evenodd" d="M6.20541 10.476C6.48156 10.476 6.70541 10.2521 6.70541 9.97595C6.70541 9.69981 6.48156 9.47595 6.20541 9.47595C5.92927 9.47595 5.70541 9.69981 5.70541 9.97595C5.70541 10.2521 5.92927 10.476 6.20541 10.476Z" fill="#FBCD17"/>
<path fill-rule="evenodd" clip-rule="evenodd" d="M10.2411 10.0733C10.2329 9.73704 10.1955 8.96924 10.0249 8.96924C9.85329 8.96924 9.82718 9.74605 9.82388 10.0792C9.52844 10.1757 9.30603 10.43 9.30603 10.43H10.7776C10.7776 10.43 10.5458 10.165 10.2411 10.0733Z" fill="#F7FCFF"/>
<path d="M2.55045 12.5685L2.79675 12.6113C2.59738 13.7574 2.59738 14.5791 2.78995 15.0693C3.01408 15.6397 4.33634 16.4049 4.7104 16.4049V16.6549C4.23996 16.6549 2.82192 15.8343 2.55726 15.1607C2.34388 14.6176 2.34388 13.7559 2.55045 12.5685Z" fill="#73BE4A"/>
<path d="M13.3811 12.5088L13.1345 12.5502C13.315 13.6255 13.2745 14.4645 13.0182 15.066C12.7092 15.791 11.5159 16.7148 11.203 16.7148V16.9648C11.6243 16.9648 12.9024 15.9753 13.2482 15.164C13.5261 14.5119 13.5687 13.6271 13.3811 12.5088Z" fill="#73BE4A"/>
<path d="M6.39307 17.4239L6.44016 17.1783C7.23674 17.3311 7.7809 17.4075 8.06599 17.4075C8.35048 17.4075 8.86519 17.3313 9.604 17.1787L9.65457 17.4235C8.8999 17.5794 8.37241 17.6575 8.06599 17.6575C7.76017 17.6575 7.20474 17.5796 6.39307 17.4239Z" fill="#73BE4A"/>
</g>
</g>
<defs>
<clipPath id="clip0_30_18011">
<rect width="32" height="24" fill="white"/>
</clipPath>
</defs>
</svg>
