<svg width="32" height="24" viewBox="0 0 32 24" fill="none" xmlns="http://www.w3.org/2000/svg">
<g clip-path="url(#clip0_30_18111)">
<rect width="32" height="24" fill="white"/>
<path fill-rule="evenodd" clip-rule="evenodd" d="M0 0H32V24H0V0Z" fill="#3D58DB"/>
<path d="M0 5H-1V6V18V19H0H32H33V18V6V5H32H0Z" fill="#C51918" stroke="#FFD018" stroke-width="2"/>
<path d="M7.14932 9.33112C7.02937 9.33112 6.93213 9.05992 6.93213 8.72537C6.93213 8.39083 7.02937 8.11963 7.14932 8.11963H24.5601C24.6801 8.11963 24.7773 8.39083 24.7773 8.72537C24.7773 9.05992 24.6801 9.33112 24.5601 9.33112H7.14932Z" fill="#FFD018"/>
<path fill-rule="evenodd" clip-rule="evenodd" d="M24.0953 8.60229L25.1063 7.3125L26.8953 8.60229L25.1063 9.926L24.0953 8.60229Z" fill="#F7FCFF"/>
<path d="M7.14932 13.3311C7.02937 13.3311 6.93213 13.0599 6.93213 12.7254C6.93213 12.3908 7.02937 12.1196 7.14932 12.1196H24.5601C24.6801 12.1196 24.7773 12.3908 24.7773 12.7254C24.7773 13.0599 24.6801 13.3311 24.5601 13.3311H7.14932Z" fill="#FFD018"/>
<path fill-rule="evenodd" clip-rule="evenodd" d="M24.0953 12.6023L25.1063 11.3125L26.8953 12.6023L25.1063 13.926L24.0953 12.6023Z" fill="#F7FCFF"/>
<path d="M4.34553 15.8219C4.1847 15.8219 4.05432 15.5139 4.05432 15.1341C4.05432 14.7542 4.1847 14.4463 4.34553 14.4463H27.6897C27.8506 14.4463 27.9809 14.7542 27.9809 15.1341C27.9809 15.5139 27.8506 15.8219 27.6897 15.8219H4.34553Z" fill="#FFD018"/>
<path fill-rule="evenodd" clip-rule="evenodd" d="M8.81732 12.0528C8.81732 12.0528 11.6587 6.07275 15.7226 6.07275C19.7865 6.07275 22.7234 12.0528 22.7234 12.0528C22.7234 12.0528 19.1372 17.9542 15.7704 17.9542C12.4035 17.9542 8.81732 12.0528 8.81732 12.0528Z" fill="#F7FCFF"/>
<mask id="mask0_30_18111" style="mask-type:luminance" maskUnits="userSpaceOnUse" x="8" y="6" width="15" height="12">
<path fill-rule="evenodd" clip-rule="evenodd" d="M8.81732 12.0528C8.81732 12.0528 11.6587 6.07275 15.7226 6.07275C19.7865 6.07275 22.7234 12.0528 22.7234 12.0528C22.7234 12.0528 19.1372 17.9542 15.7704 17.9542C12.4035 17.9542 8.81732 12.0528 8.81732 12.0528Z" fill="white"/>
</mask>
<g mask="url(#mask0_30_18111)">
<path fill-rule="evenodd" clip-rule="evenodd" d="M15.9243 5.68018C15.9243 5.68018 14.997 6.80638 15.3061 7.8803C15.6152 8.95421 16.3354 8.84078 16.3354 9.78655C16.3354 10.7323 16.0027 11.6969 16.3354 11.6969C16.668 11.6969 16.7833 12.3495 16.4793 12.792C16.1752 13.2344 15.9063 13.2481 15.9243 13.9682C15.9423 14.6883 17.5163 15.3952 16.7538 15.3952C15.9913 15.3952 14.9864 16.1353 15.3061 16.1353C15.6259 16.1353 17.2987 16.7119 17.2987 17.4686C17.2987 18.2254 17.2987 18.831 17.2987 18.831H8.57129V5.68018H15.9243Z" fill="#272727"/>
<path fill-rule="evenodd" clip-rule="evenodd" d="M11.819 9.9231H11.3846V11.6923H11.819V9.9231ZM13.1005 9.9231H12.6661V11.6923H13.1005V9.9231ZM12.0254 9.9231H12.4598V11.6923H12.0254V9.9231ZM13.7412 9.9231H13.3068V11.6923H13.7412V9.9231ZM13.9475 9.9231H14.3819V11.6923H13.9475V9.9231ZM15.0227 9.9231H14.5883V11.6923H15.0227V9.9231ZM11.3846 12.4616H11.819V14.2308H11.3846V12.4616ZM13.1005 12.4616H12.6661V14.2308H13.1005V12.4616ZM12.0254 12.4616H12.4598V14.2308H12.0254V12.4616ZM13.7412 12.4616H13.3068V14.2308H13.7412V12.4616ZM13.9475 12.4616H14.3819V14.2308H13.9475V12.4616ZM15.0227 12.4616H14.5883V14.2308H15.0227V12.4616Z" fill="#F7FCFF"/>
<path fill-rule="evenodd" clip-rule="evenodd" d="M16.9774 9.9231H16.543V11.6923H16.9774V9.9231ZM18.2589 9.9231H17.8245V11.6923H18.2589V9.9231ZM17.1838 9.9231H17.6181V11.6923H17.1838V9.9231ZM18.8996 9.9231H18.4652V11.6923H18.8996V9.9231ZM19.1059 9.9231H19.5403V11.6923H19.1059V9.9231ZM20.181 9.9231H19.7466V11.6923H20.181V9.9231ZM16.543 12.4616H16.9774V14.2308H16.543V12.4616ZM18.2589 12.4616H17.8245V14.2308H18.2589V12.4616ZM17.1838 12.4616H17.6181V14.2308H17.1838V12.4616ZM18.8996 12.4616H18.4652V14.2308H18.8996V12.4616ZM19.1059 12.4616H19.5403V14.2308H19.1059V12.4616ZM20.181 12.4616H19.7466V14.2308H20.181V12.4616Z" fill="#272727"/>
<path fill-rule="evenodd" clip-rule="evenodd" d="M13.2316 7.07157C12.6231 7.2601 12.3447 8.85591 12.4127 9.24164C12.4807 9.62737 12.6872 9.19324 12.6872 9.19324C12.6872 9.19324 13.1082 10.1083 13.1516 10.3545C13.195 10.6007 13.4168 9.98238 13.4168 9.98238C13.4168 9.98238 14.1471 10.4855 14.2459 11.0461C14.3448 11.6067 14.4935 10.4046 14.4935 10.4046C14.4935 10.4046 14.6589 10.3754 14.6589 10.3754C14.6589 10.3754 14.5542 9.78182 14.5542 9.78182L14.8697 10.0516L14.7724 9.49956C14.7724 9.49956 15.01 9.81008 14.9497 9.46829C14.8895 9.12651 14.8558 8.9357 14.8558 8.9357L14.7735 8.46854L15.0857 8.41348C15.0857 8.41348 13.8401 6.88304 13.2316 7.07157Z" fill="#3D58DB"/>
</g>
<path fill-rule="evenodd" clip-rule="evenodd" d="M26.0883 13.6959C25.4563 13.7759 24.905 15.2991 24.905 15.6908C24.905 16.0825 25.1837 15.6908 25.1837 15.6908C25.1837 15.6908 25.4394 16.6651 25.4394 16.9151C25.4394 17.1651 25.7652 16.5947 25.7652 16.5947C25.7652 16.5947 26.397 17.217 26.397 17.7862C26.397 18.3555 26.7522 17.1974 26.7522 17.1974C26.7522 17.1974 26.9202 17.1974 26.9202 17.1974C26.9202 17.1974 26.9202 16.5947 26.9202 16.5947L27.184 16.9151V16.3546C27.184 16.3546 27.3641 16.7016 27.3641 16.3546C27.3641 16.0075 27.3641 15.8138 27.3641 15.8138V15.3394H27.6812C27.6812 15.3394 26.7203 13.6159 26.0883 13.6959Z" fill="#3D58DB"/>
<path fill-rule="evenodd" clip-rule="evenodd" d="M5.59292 13.4651C6.22491 13.5451 6.77625 15.0683 6.77625 15.46C6.77625 15.8517 6.49754 15.46 6.49754 15.46C6.49754 15.46 6.2418 16.4343 6.2418 16.6843C6.2418 16.9343 5.91606 16.3638 5.91606 16.3638C5.91606 16.3638 5.2842 16.9861 5.2842 17.5554C5.2842 18.1247 4.92903 16.9666 4.92903 16.9666C4.92903 16.9666 4.76104 16.9666 4.76104 16.9666C4.76104 16.9666 4.76104 16.3638 4.76104 16.3638L4.49719 16.6843V16.1238C4.49719 16.1238 4.31711 16.4708 4.31711 16.1238C4.31711 15.7767 4.31711 15.5829 4.31711 15.5829V15.1086H4.00002C4.00002 15.1086 4.96092 13.3851 5.59292 13.4651Z" fill="#3D58DB"/>
</g>
<defs>
<clipPath id="clip0_30_18111">
<rect width="32" height="24" fill="white"/>
</clipPath>
</defs>
</svg>
