<svg width="32" height="24" viewBox="0 0 32 24" fill="none" xmlns="http://www.w3.org/2000/svg">
<g clip-path="url(#clip0_30_18142)">
<rect width="32" height="24" fill="white"/>
<path fill-rule="evenodd" clip-rule="evenodd" d="M0 0V24H32V0H0Z" fill="#2E42A5"/>
<mask id="mask0_30_18142" style="mask-type:luminance" maskUnits="userSpaceOnUse" x="0" y="0" width="32" height="24">
<path fill-rule="evenodd" clip-rule="evenodd" d="M0 0V24H32V0H0Z" fill="white"/>
</mask>
<g mask="url(#mask0_30_18142)">
<path fill-rule="evenodd" clip-rule="evenodd" d="M18.7888 6.19995H22.7971H22.8288H26.8371L26.053 7.70397H23.6113V8.51184H25.4832L24.7206 9.91106H23.6113V12.7093L25.4385 9.83007L27.8032 13.9247H26.8371L26.4997 13.4764H24.3594L22.8543 16.2573L22.8547 16.4109L22.813 16.3337L22.7712 16.4109L22.7716 16.2573L21.2666 13.4764H19.1262L18.7888 13.9247H17.8228L20.1875 9.83007L22.0147 12.7093V7.70397H19.573L18.7888 6.19995ZM25.4856 11.5095L24.9604 12.3172H25.9546L25.4856 11.5095ZM20.1404 11.5095L20.6656 12.3172H19.6713L20.1404 11.5095ZM16.3136 10.6132L17.1446 10.0005L17.9757 10.6132L17.6825 9.58649L18.4893 8.93845L17.477 8.9166L17.1446 7.90341L16.8122 8.9166L15.8 8.93845L16.6068 9.58649L16.3136 10.6132ZM28.4553 10.0005L27.6243 10.6132L27.9175 9.58649L27.1107 8.93845L28.1229 8.9166L28.4553 7.90341L28.7878 8.9166L29.8 8.93845L28.9932 9.58649L29.2864 10.6132L28.4553 10.0005ZM25.0794 17.8033L25.9104 17.1906L26.7415 17.8033L26.4483 16.7766L27.2551 16.1285L26.2428 16.1067L25.9104 15.0935L25.578 16.1067L24.5658 16.1285L25.3726 16.7766L25.0794 17.8033ZM19.6895 17.1906L18.8585 17.8033L19.1517 16.7766L18.3449 16.1285L19.3571 16.1067L19.6895 15.0935L20.022 16.1067L21.0342 16.1285L20.2274 16.7766L20.5206 17.8033L19.6895 17.1906ZM21.969 20.2L22.8 19.5873L23.631 20.2L23.3378 19.1733L24.1446 18.5252L23.1324 18.5034L22.8 17.4902L22.4676 18.5034L21.4553 18.5252L22.2621 19.1733L21.969 20.2Z" fill="#F7FCFF"/>
<path fill-rule="evenodd" clip-rule="evenodd" d="M8 0H12V10H8V0Z" fill="#F50100"/>
<path fill-rule="evenodd" clip-rule="evenodd" d="M0 0H4V10H0V0Z" fill="#2E42A5"/>
<path fill-rule="evenodd" clip-rule="evenodd" d="M4 0H8V10H4V0Z" fill="#F7FCFF"/>
</g>
</g>
<defs>
<clipPath id="clip0_30_18142">
<rect width="32" height="24" fill="white"/>
</clipPath>
</defs>
</svg>
