<svg width="32" height="24" viewBox="0 0 32 24" fill="none" xmlns="http://www.w3.org/2000/svg">
<g clip-path="url(#clip0_30_18143)">
<rect width="32" height="24" fill="white"/>
<path fill-rule="evenodd" clip-rule="evenodd" d="M0 0V24H32V0H0Z" fill="#29C470"/>
<mask id="mask0_30_18143" style="mask-type:luminance" maskUnits="userSpaceOnUse" x="0" y="0" width="32" height="24">
<path fill-rule="evenodd" clip-rule="evenodd" d="M0 0V24H32V0H0Z" fill="white"/>
</mask>
<g mask="url(#mask0_30_18143)">
<rect x="2" y="-0.322876" width="10" height="26.3229" fill="#C51918"/>
<mask id="mask1_30_18143" style="mask-type:luminance" maskUnits="userSpaceOnUse" x="2" y="-1" width="10" height="27">
<rect x="2" y="-0.322876" width="10" height="26.3229" fill="white"/>
</mask>
<g mask="url(#mask1_30_18143)">
<path fill-rule="evenodd" clip-rule="evenodd" d="M2.59535 0.905626L2.04927 1.60734L2 1.55863L2.52982 0.87782V0.741155L2.53182 0.728459L2.59342 0.538775L2.55572 0.472698L2.24326 0.785112L2.84555 -0.152898V0.167626L2.96114 0.271955L3.23721 -0.210907L2.96021 -0.675624L2.76029 -0.521986L2.84136 -0.359119L2.78561 -0.32041L2.33431 -1.07543L2.62183 -0.878831L2.67248 -0.952274L2.39696 -1.23292L2.51883 -1.36713L2.11613 -1.95485L2.168 -2L2.60635 -1.36025L2.49264 -1.23502L2.76156 -0.961092L2.63775 -0.781553L2.55528 -0.837937L2.71261 -0.574742L2.9778 -0.77855L3.31566 -0.211753L2.97687 0.38079L2.78002 0.203106V0.0751505L2.58241 0.382915L2.66615 0.529695L2.59535 0.747702V0.905626ZM2.04927 6.63024L2.59535 5.92852V5.7706L2.66615 5.55259L2.58241 5.40581L2.78002 5.09804V5.226L2.97687 5.40368L3.31566 4.81114L2.9778 4.24434L2.71261 4.44815L2.55528 4.18496L2.63775 4.24134L2.76156 4.0618L2.49264 3.78787L2.60635 3.66265L2.168 3.02289L2.11613 3.06804L2.51883 3.65576L2.39696 3.78997L2.67248 4.07062L2.62183 4.14406L2.33431 3.94746L2.78561 4.70248L2.84136 4.66377L2.76029 4.50091L2.96021 4.34727L3.23721 4.81199L2.96114 5.29485L2.84555 5.19052V4.87L2.24326 5.80801L2.55572 5.49559L2.59342 5.56167L2.53182 5.75135L2.52982 5.76405V5.90071L2 6.58153L2.04927 6.63024ZM2.59535 10.5082L2.04927 11.2099L2 11.1612L2.52982 10.4804V10.3437L2.53182 10.3311L2.59342 10.1414L2.55572 10.0753L2.24326 10.3877L2.84555 9.44969V9.77022L2.96114 9.87455L3.23721 9.39168L2.96021 8.92697L2.76029 9.08061L2.84136 9.24347L2.78561 9.28218L2.33431 8.52716L2.62183 8.72376L2.67248 8.65032L2.39696 8.36967L2.51883 8.23546L2.11613 7.64774L2.168 7.60259L2.60635 8.24235L2.49264 8.36757L2.76156 8.6415L2.63775 8.82104L2.55528 8.76465L2.71261 9.02785L2.9778 8.82404L3.31566 9.39084L2.97687 9.98338L2.78002 9.8057V9.67774L2.58241 9.98551L2.66615 10.1323L2.59535 10.3503V10.5082ZM2.04927 15.8635L2.59535 15.1618V15.0039L2.66615 14.7859L2.58241 14.6391L2.78002 14.3313V14.4593L2.97687 14.6369L3.31566 14.0444L2.9778 13.4776L2.71261 13.6814L2.55528 13.4182L2.63775 13.4746L2.76156 13.2951L2.49264 13.0211L2.60635 12.8959L2.168 12.2562L2.11613 12.3013L2.51883 12.889L2.39696 13.0232L2.67248 13.3039L2.62183 13.3773L2.33431 13.1807L2.78561 13.9357L2.84136 13.897L2.76029 13.7342L2.96021 13.5805L3.23721 14.0452L2.96114 14.5281L2.84555 14.4238V14.1033L2.24326 15.0413L2.55572 14.7289L2.59342 14.7949L2.53182 14.9846L2.52982 14.9973V15.134L2 15.8148L2.04927 15.8635ZM2.04927 20L2.59535 19.2983V19.1404L2.66615 18.9224L2.58241 18.7756L2.78002 18.4678V18.5958L2.97687 18.7734L3.31566 18.1809L2.9778 17.6141L2.71261 17.8179L2.55528 17.5547L2.63775 17.6111L2.76156 17.4316L2.49264 17.1576L2.60635 17.0324L2.168 16.3927L2.11613 16.4378L2.51883 17.0255L2.39696 17.1597L2.67248 17.4404L2.62183 17.5138L2.33431 17.3172L2.78561 18.0722L2.84136 18.0335L2.76029 17.8707L2.96021 17.717L3.23721 18.1817L2.96114 18.6646L2.84555 18.5603V18.2398L2.24326 19.1778L2.55572 18.8654L2.59342 18.9314L2.53182 19.1211L2.52982 19.1338V19.2705L2 19.9513L2.04927 20ZM11.9507 20L11.4046 19.2983V19.1404L11.3338 18.9224L11.4176 18.7756L11.22 18.4678V18.5958L11.0231 18.7734L10.6843 18.1809L11.0222 17.6141L11.2874 17.8179L11.4447 17.5547L11.3623 17.6111L11.2384 17.4316L11.5074 17.1576L11.3937 17.0324L11.832 16.3927L11.8839 16.4378L11.4812 17.0255L11.603 17.1597L11.3275 17.4404L11.3782 17.5138L11.6657 17.3172L11.2144 18.0722L11.1586 18.0335L11.2397 17.8707L11.0398 17.717L10.7628 18.1817L11.0389 18.6646L11.1544 18.5603V18.2398L11.7567 19.1778L11.4443 18.8654L11.4066 18.9314L11.4682 19.1211L11.4702 19.1338V19.2705L12 19.9513L11.9507 20ZM11.4046 15.1618L11.9507 15.8635L12 15.8148L11.4702 15.134V14.9973L11.4682 14.9846L11.4066 14.7949L11.4443 14.7289L11.7567 15.0413L11.1544 14.1033V14.4238L11.0389 14.5281L10.7628 14.0452L11.0398 13.5805L11.2397 13.7342L11.1586 13.897L11.2144 13.9357L11.6657 13.1807L11.3782 13.3773L11.3275 13.3039L11.603 13.0232L11.4812 12.889L11.8839 12.3013L11.832 12.2562L11.3937 12.8959L11.5074 13.0211L11.2384 13.2951L11.3623 13.4746L11.4447 13.4182L11.2874 13.6814L11.0222 13.4776L10.6843 14.0444L11.0231 14.6369L11.22 14.4593V14.3313L11.4176 14.6391L11.3338 14.7859L11.4046 15.0039V15.1618ZM11.9507 11.2099L11.4046 10.5082V10.3503L11.3338 10.1323L11.4176 9.98551L11.22 9.67774V9.8057L11.0231 9.98338L10.6843 9.39084L11.0222 8.82404L11.2874 9.02785L11.4447 8.76465L11.3623 8.82104L11.2384 8.6415L11.5074 8.36757L11.3937 8.24235L11.832 7.60259L11.8839 7.64774L11.4812 8.23546L11.603 8.36967L11.3275 8.65032L11.3782 8.72376L11.6657 8.52716L11.2144 9.28218L11.1586 9.24347L11.2397 9.08061L11.0398 8.92697L10.7628 9.39168L11.0389 9.87455L11.1544 9.77022V9.44969L11.7567 10.3877L11.4443 10.0753L11.4066 10.1414L11.4682 10.3311L11.4702 10.3437V10.4804L12 11.1612L11.9507 11.2099ZM11.4046 5.92852L11.9507 6.63024L12 6.58153L11.4702 5.90071V5.76405L11.4682 5.75135L11.4066 5.56167L11.4443 5.49559L11.7567 5.80801L11.1544 4.87V5.19052L11.0389 5.29485L10.7628 4.81199L11.0398 4.34727L11.2397 4.50091L11.1586 4.66377L11.2144 4.70248L11.6657 3.94746L11.3782 4.14406L11.3275 4.07062L11.603 3.78997L11.4812 3.65576L11.8839 3.06804L11.832 3.02289L11.3937 3.66265L11.5074 3.78787L11.2384 4.0618L11.3623 4.24134L11.4447 4.18496L11.2874 4.44815L11.0222 4.24434L10.6843 4.81114L11.0231 5.40368L11.22 5.226V5.09804L11.4176 5.40581L11.3338 5.55259L11.4046 5.7706V5.92852ZM11.9507 1.60734L11.4046 0.905626V0.747702L11.3338 0.529695L11.4176 0.382915L11.22 0.0751505V0.203106L11.0231 0.38079L10.6843 -0.211753L11.0222 -0.77855L11.2874 -0.574742L11.4447 -0.837937L11.3623 -0.781553L11.2384 -0.961092L11.5074 -1.23502L11.3937 -1.36025L11.832 -2L11.8839 -1.95485L11.4812 -1.36713L11.603 -1.23292L11.3275 -0.952274L11.3782 -0.878831L11.6657 -1.07543L11.2144 -0.32041L11.1586 -0.359119L11.2397 -0.521986L11.0398 -0.675624L10.7628 -0.210907L11.0389 0.271955L11.1544 0.167626V-0.152898L11.7567 0.785112L11.4443 0.472698L11.4066 0.538775L11.4682 0.728459L11.4702 0.741155V0.87782L12 1.55863L11.9507 1.60734Z" fill="#E8AA00"/>
<path fill-rule="evenodd" clip-rule="evenodd" d="M7.3067 14.5647H8.8602V14.9293H9.21418V15.2209H9.63896V16.1688H9.21418V16.4605H8.8602V16.7522H7.34815L6.92983 17.1239L6.50952 16.7522H5.10799V16.4605H4.75401V16.1688H4.40002V15.2209H4.75401V14.9293H5.10799V14.5647H6.55116L6.92983 14.2297L7.3067 14.5647Z" fill="#389F5D"/>
<path d="M8.8602 14.5647H9.1102V14.3147H8.8602V14.5647ZM7.3067 14.5647L7.14063 14.7515L7.21166 14.8147H7.3067V14.5647ZM8.8602 14.9293H8.6102V15.1793H8.8602V14.9293ZM9.21418 14.9293H9.46418V14.6793H9.21418V14.9293ZM9.21418 15.2209H8.96418V15.4709H9.21418V15.2209ZM9.63896 15.2209H9.88896V14.9709H9.63896V15.2209ZM9.63896 16.1688V16.4188H9.88896V16.1688H9.63896ZM9.21418 16.1688V15.9188H8.96418V16.1688H9.21418ZM9.21418 16.4605V16.7105H9.46418V16.4605H9.21418ZM8.8602 16.4605V16.2105H8.6102V16.4605H8.8602ZM8.8602 16.7522V17.0022H9.1102V16.7522H8.8602ZM7.34815 16.7522V16.5022H7.25311L7.18208 16.5653L7.34815 16.7522ZM6.92983 17.1239L6.7642 17.3112L6.93022 17.4581L7.0959 17.3108L6.92983 17.1239ZM6.50952 16.7522L6.67515 16.5649L6.60422 16.5022H6.50952V16.7522ZM5.10799 16.7522H4.85799V17.0022H5.10799V16.7522ZM5.10799 16.4605H5.35799V16.2105H5.10799V16.4605ZM4.75401 16.4605H4.50401V16.7105H4.75401V16.4605ZM4.75401 16.1688H5.00401V15.9188H4.75401V16.1688ZM4.40002 16.1688H4.15002V16.4188H4.40002V16.1688ZM4.40002 15.2209V14.9709H4.15002V15.2209H4.40002ZM4.75401 15.2209V15.4709H5.00401V15.2209H4.75401ZM4.75401 14.9293V14.6793H4.50401V14.9293H4.75401ZM5.10799 14.9293V15.1793H5.35799V14.9293H5.10799ZM5.10799 14.5647V14.3147H4.85799V14.5647H5.10799ZM6.55116 14.5647V14.8147H6.64586L6.7168 14.7519L6.55116 14.5647ZM6.92983 14.2297L7.0959 14.0429L6.93022 13.8956L6.7642 14.0425L6.92983 14.2297ZM8.8602 14.3147H7.3067V14.8147H8.8602V14.3147ZM9.1102 14.9293V14.5647H8.6102V14.9293H9.1102ZM9.21418 14.6793H8.8602V15.1793H9.21418V14.6793ZM9.46418 15.2209V14.9293H8.96418V15.2209H9.46418ZM9.63896 14.9709H9.21418V15.4709H9.63896V14.9709ZM9.88896 16.1688V15.2209H9.38896V16.1688H9.88896ZM9.21418 16.4188H9.63896V15.9188H9.21418V16.4188ZM9.46418 16.4605V16.1688H8.96418V16.4605H9.46418ZM8.8602 16.7105H9.21418V16.2105H8.8602V16.7105ZM9.1102 16.7522V16.4605H8.6102V16.7522H9.1102ZM7.34815 17.0022H8.8602V16.5022H7.34815V17.0022ZM7.0959 17.3108L7.51423 16.939L7.18208 16.5653L6.76376 16.9371L7.0959 17.3108ZM6.34388 16.9394L6.7642 17.3112L7.09546 16.9367L6.67515 16.5649L6.34388 16.9394ZM5.10799 17.0022H6.50952V16.5022H5.10799V17.0022ZM4.85799 16.4605V16.7522H5.35799V16.4605H4.85799ZM4.75401 16.7105H5.10799V16.2105H4.75401V16.7105ZM4.50401 16.1688V16.4605H5.00401V16.1688H4.50401ZM4.40002 16.4188H4.75401V15.9188H4.40002V16.4188ZM4.15002 15.2209V16.1688H4.65002V15.2209H4.15002ZM4.75401 14.9709H4.40002V15.4709H4.75401V14.9709ZM4.50401 14.9293V15.2209H5.00401V14.9293H4.50401ZM5.10799 14.6793H4.75401V15.1793H5.10799V14.6793ZM4.85799 14.5647V14.9293H5.35799V14.5647H4.85799ZM6.55116 14.3147H5.10799V14.8147H6.55116V14.3147ZM6.7168 14.7519L7.09546 14.417L6.7642 14.0425L6.38553 14.3774L6.7168 14.7519ZM6.76376 14.4166L7.14063 14.7515L7.47278 14.3778L7.0959 14.0429L6.76376 14.4166Z" fill="#E8AA00"/>
<path fill-rule="evenodd" clip-rule="evenodd" d="M5.31525 15.4075V14.7633H6.06582L5.31525 15.4075ZM8.4729 15.4075V14.7633H7.72233L8.4729 15.4075ZM5.31525 16.5741V15.93L6.06582 16.5741H5.31525ZM8.4729 15.93V16.5741H7.72233L8.4729 15.93Z" fill="#C51918"/>
<path fill-rule="evenodd" clip-rule="evenodd" d="M6.64514 14.8187L6.90423 14.4794L7.16006 14.8187H6.64514ZM6.64514 15.1356L6.90423 15.4749L7.16006 15.1356H6.64514ZM6.90423 15.9377L6.64514 16.277H7.16006L6.90423 15.9377ZM6.64514 16.594L6.90423 16.9332L7.16006 16.594H6.64514Z" fill="#E8AA00"/>
<path fill-rule="evenodd" clip-rule="evenodd" d="M6.65046 14.7784V14.9243H6.50171V15.1243H6.65046V15.2701H7.16954V15.1243H7.31829V14.9243H7.16954V14.7784H6.65046ZM7.16954 16.3826V16.2368H6.65046V16.3826H6.50171V16.5826H6.65046V16.7284H7.16954V16.5826H7.31829V16.3826H7.16954Z" fill="#AF0100"/>
<path fill-rule="evenodd" clip-rule="evenodd" d="M5.65399 15.5494L5.90061 15.2086L6.14413 15.5494H5.65399ZM5.65399 15.8678L5.90061 16.2086L6.14413 15.8678H5.65399ZM7.95371 15.2086L7.70709 15.5494H8.19723L7.95371 15.2086ZM7.70709 15.8678L7.95371 16.2086L8.19723 15.8678H7.70709Z" fill="#AF0100"/>
<path fill-rule="evenodd" clip-rule="evenodd" d="M5.65215 15.5077V15.6564H5.51056V15.8604H5.65215V16.0092H6.14626V15.8604H6.28785V15.6564H6.14626V15.5077H5.65215ZM8.19936 15.6564V15.5077H7.70525V15.6564H7.56366V15.8604H7.70525V16.0092H8.19936V15.8604H8.34095V15.6564H8.19936Z" fill="#E8AA00"/>
<mask id="mask2_30_18143" style="mask-type:luminance" maskUnits="userSpaceOnUse" x="4" y="17" width="6" height="4">
<path fill-rule="evenodd" clip-rule="evenodd" d="M6.21701 17.251L4.44543 18.2499V19.9055L6.21701 20.9448H8.13579L9.94949 19.9055V18.2499L8.13579 17.251H6.21701Z" fill="white"/>
</mask>
<g mask="url(#mask2_30_18143)">
<path d="M4.47076 19.0959H7.23183V20.9189H4.47076V19.0959Z" fill="#E8AA00"/>
<rect x="4.18762" y="17.2729" width="3.04425" height="1.82292" fill="#F9E8E7"/>
<path d="M4.89557 18.3352L5.81209 17.7833V18.3352H4.89557Z" fill="#E8AA00"/>
<rect width="3.04425" height="1.82292" transform="matrix(-1 0 0 1 10.2761 17.2729)" fill="#E8AA00"/>
<path d="M9.35577 18.3352L8.43926 17.7833V18.3352H9.35577Z" fill="#F9E8E7"/>
<rect x="9.99292" y="20.9188" width="2.76106" height="1.82292" transform="rotate(180 9.99292 20.9188)" fill="#F9E8E7"/>
<path d="M9.28497 19.8565L8.36846 20.4084V19.8565H9.28497Z" fill="#E8AA00"/>
<path d="M4.89557 19.7413L5.81209 20.2932V19.7413H4.89557Z" fill="#FCFCFC"/>
</g>
<path fill-rule="evenodd" clip-rule="evenodd" d="M6.24072 18.3668H6.7009L7.16108 18.2209L7.62125 18.3668H8.08143V19.7522H7.62125L7.16108 19.9709L6.7009 19.7522H6.24072V18.3668Z" fill="#C51918"/>
<path fill-rule="evenodd" clip-rule="evenodd" d="M7.79823 17.5377H8.04823V17.8198H8.15068V18.0198H8.04823V18.1275H7.79823V17.5377ZM5.28717 18.4127H5.03717V19.0025H5.28717V18.8948H5.38961V18.6948H5.28717V18.4127ZM5.64115 18.4127H5.39115V19.0025H5.64115V18.4127ZM5.28717 19.1419H5.03717V19.7316H5.28717V19.624H5.38961V19.424H5.28717V19.1419ZM5.39115 19.1419H5.64115V19.7316H5.39115V19.1419ZM8.93098 18.4127H9.18098V18.6948H9.28342V18.8948H9.18098V19.0025H8.93098V18.4127ZM9.53496 18.4127H9.28496V19.0025H9.53496V18.4127ZM9.18098 19.1419H8.93098V19.7316H9.18098V19.624H9.28342V19.424H9.18098V19.1419ZM9.28496 19.1419H9.53496V19.7316H9.28496V19.1419ZM8.40221 17.5377H8.15221V18.1275H8.40221V17.5377ZM6.34912 17.5377H6.09912V18.1275H6.34912V18.0198H6.45156V17.8198H6.34912V17.5377ZM6.4531 17.5377H6.7031V18.1275H6.4531V17.5377ZM7.79823 20.0169H8.04823V20.299H8.15068V20.499H8.04823V20.6067H7.79823V20.0169ZM8.40221 20.0169H8.15221V20.6067H8.40221V20.0169ZM6.34912 20.0169H6.09912V20.6067H6.34912V20.499H6.45156V20.299H6.34912V20.0169ZM6.4531 20.0169H6.7031V20.6067H6.4531V20.0169Z" fill="#C9343F"/>
<path fill-rule="evenodd" clip-rule="evenodd" d="M7.02511 18.6664H7.0959V18.4681H6.74218V18.6948H6.45068V19.0197H6.72173V18.9468H6.52148V18.7677H6.7619L7.12377 19.0809L6.7619 19.394H6.52148V19.215H6.72173V19.1421H6.45068V19.4669H6.74218V19.6936H7.0959V19.4954H7.02511V19.6207H6.81297V19.4451L7.18097 19.1266L7.54897 19.4451V19.6207H7.33684V19.4954H7.26604V19.6936H7.61976V19.4669H7.91126V19.1421H7.64021V19.215H7.84046V19.394H7.60005L7.23818 19.0809L7.60005 18.7677H7.84046V18.9468H7.64021V19.0197H7.91126V18.6948H7.61976V18.4681H7.26604V18.6664H7.33684V18.5411H7.54897V18.7167L7.18097 19.0352L6.81297 18.7167V18.5411H7.02511V18.6664Z" fill="white"/>
<path fill-rule="evenodd" clip-rule="evenodd" d="M7.58443 4.80005H6.33768V8.80005H7.58443V4.80005ZM4.77924 5.6462H5.55846V7.80005H4.77924V5.6462ZM8.44157 5.6462H9.22079V7.80005H8.44157V5.6462Z" fill="#E8AA00"/>
<path fill-rule="evenodd" clip-rule="evenodd" d="M6.33766 5.10779H5.55844V8.18471H6.33766V5.10779ZM4.77922 5.95394H4V7.41548H4.77922V5.95394ZM9.22078 5.95394H10V7.41548H9.22078V5.95394ZM8.36364 5.10779H7.58442V8.18471H8.36364V5.10779Z" fill="#389F5D"/>
<path fill-rule="evenodd" clip-rule="evenodd" d="M6.1818 5.49237C6.1818 5.61982 6.07714 5.72314 5.94803 5.72314C5.81893 5.72314 5.71426 5.61982 5.71426 5.49237C5.71426 5.36492 5.81893 5.2616 5.94803 5.2616C6.07714 5.2616 6.1818 5.36492 6.1818 5.49237ZM4.62336 6.2616C4.62336 6.38905 4.51869 6.49237 4.38959 6.49237C4.26048 6.49237 4.15582 6.38905 4.15582 6.2616C4.15582 6.13415 4.26048 6.03083 4.38959 6.03083C4.51869 6.03083 4.62336 6.13415 4.62336 6.2616ZM4.62336 7.10775C4.62336 7.2352 4.51869 7.33852 4.38959 7.33852C4.26048 7.33852 4.15582 7.2352 4.15582 7.10775C4.15582 6.9803 4.26048 6.87698 4.38959 6.87698C4.51869 6.87698 4.62336 6.9803 4.62336 7.10775ZM5.94803 8.03083C6.07714 8.03083 6.1818 7.92751 6.1818 7.80006C6.1818 7.67261 6.07714 7.56929 5.94803 7.56929C5.81893 7.56929 5.71426 7.67261 5.71426 7.80006C5.71426 7.92751 5.81893 8.03083 5.94803 8.03083ZM9.61037 6.49237C9.73947 6.49237 9.84413 6.38905 9.84413 6.2616C9.84413 6.13415 9.73947 6.03083 9.61037 6.03083C9.48126 6.03083 9.3766 6.13415 9.3766 6.2616C9.3766 6.38905 9.48126 6.49237 9.61037 6.49237ZM9.84413 7.10775C9.84413 7.2352 9.73947 7.33852 9.61037 7.33852C9.48126 7.33852 9.3766 7.2352 9.3766 7.10775C9.3766 6.9803 9.48126 6.87698 9.61037 6.87698C9.73947 6.87698 9.84413 6.9803 9.84413 7.10775ZM7.974 8.03083C8.10311 8.03083 8.20777 7.92751 8.20777 7.80006C8.20777 7.67261 8.10311 7.56929 7.974 7.56929C7.8449 7.56929 7.74024 7.67261 7.74024 7.80006C7.74024 7.92751 7.8449 8.03083 7.974 8.03083ZM8.20777 5.49237C8.20777 5.61982 8.10311 5.72314 7.974 5.72314C7.8449 5.72314 7.74024 5.61982 7.74024 5.49237C7.74024 5.36492 7.8449 5.2616 7.974 5.2616C8.10311 5.2616 8.20777 5.36492 8.20777 5.49237Z" fill="#E1E5E8"/>
<path fill-rule="evenodd" clip-rule="evenodd" d="M7.1948 5.18463C7.1948 5.31208 7.09014 5.4154 6.96103 5.4154C6.83193 5.4154 6.72727 5.31208 6.72727 5.18463C6.72727 5.05718 6.83193 4.95386 6.96103 4.95386C7.09014 4.95386 7.1948 5.05718 7.1948 5.18463ZM5.40259 6.03078C5.40259 6.15823 5.29793 6.26155 5.16882 6.26155C5.03972 6.26155 4.93506 6.15823 4.93506 6.03078C4.93506 5.90333 5.03972 5.80001 5.16882 5.80001C5.29793 5.80001 5.40259 5.90333 5.40259 6.03078ZM6.96103 8.72309C7.09014 8.72309 7.1948 8.61977 7.1948 8.49232C7.1948 8.36487 7.09014 8.26155 6.96103 8.26155C6.83193 8.26155 6.72727 8.36487 6.72727 8.49232C6.72727 8.61977 6.83193 8.72309 6.96103 8.72309ZM9.06493 6.03078C9.06493 6.15823 8.96027 6.26155 8.83116 6.26155C8.70206 6.26155 8.5974 6.15823 8.5974 6.03078C8.5974 5.90333 8.70206 5.80001 8.83116 5.80001C8.96027 5.80001 9.06493 5.90333 9.06493 6.03078ZM5.16882 7.64617C5.29793 7.64617 5.40259 7.54285 5.40259 7.4154C5.40259 7.28795 5.29793 7.18463 5.16882 7.18463C5.03972 7.18463 4.93506 7.28795 4.93506 7.4154C4.93506 7.54285 5.03972 7.64617 5.16882 7.64617ZM9.06493 7.4154C9.06493 7.54285 8.96027 7.64617 8.83116 7.64617C8.70206 7.64617 8.5974 7.54285 8.5974 7.4154C8.5974 7.28795 8.70206 7.18463 8.83116 7.18463C8.96027 7.18463 9.06493 7.28795 9.06493 7.4154Z" fill="#C51918"/>
<path fill-rule="evenodd" clip-rule="evenodd" d="M5.60654 6.3915L6.36512 5.70642H7.59679L8.46123 6.49238H9.61041V6.80008H8.49239V6.81613L7.59679 7.727H6.36512L5.60654 6.90491V6.80008H4.31171V6.49238H5.60654V6.3915Z" fill="#C51918"/>
<path fill-rule="evenodd" clip-rule="evenodd" d="M7.01105 6.27655L7.37942 6.64986L6.9927 7.01619L6.60598 6.64986L6.97435 6.27655L6.9927 6.25961L7.01105 6.27655ZM7.07813 7.17791L7.12126 7.13797L7.07711 7.09614L7.46098 6.73252L7.86136 7.13829L7.68118 7.32832H7.57434L7.37561 7.45334L7.07813 7.17791ZM6.9927 7.25701L6.62353 7.59881L6.37698 7.4437H6.25353L5.96243 7.1367L6.44008 6.65263L5.95935 6.19726L6.27479 5.89116L6.38911 5.98097L6.55453 5.81389L6.50481 5.76349L6.58853 5.68298L6.9927 6.09258L7.39686 5.68298L7.48059 5.76349L7.43087 5.81389L7.59628 5.98097L7.7106 5.89116L8.02605 6.19726L7.54532 6.65263L8.02297 7.1367L7.73187 7.4437H7.60841L7.36187 7.59881L6.9927 7.25701ZM7.1987 6.30136L7.20356 6.29623L7.09287 6.1941L7.07897 6.18001L7.36689 5.91435L7.58647 6.13614L7.70244 6.04503L7.85828 6.19626L7.46376 6.56997L7.1987 6.30136ZM6.95144 7.13702L6.60979 7.45334L6.41106 7.32832H6.30422L6.12403 7.13829L6.52442 6.73252L6.95144 7.13702ZM6.12711 6.19626L6.52164 6.56997L6.90643 6.18001L6.61851 5.91435L6.39893 6.13614L6.28296 6.04503L6.12711 6.19626Z" fill="#E8AA00"/>
<path fill-rule="evenodd" clip-rule="evenodd" d="M4.44836 21.4417C4.23934 21.1764 4.09826 20.9973 4.0611 21C3.94444 21.0086 3.83503 22.2438 5.35145 23.1836C5.35145 23.1836 5.57528 23.308 5.70565 23.1836C5.83602 23.0591 5.70565 22.876 5.70565 22.876C5.21547 22.4153 4.75757 21.8341 4.44836 21.4417L4.44836 21.4417L4.44836 21.4417ZM9.55164 21.4417L9.55164 21.4417L9.55166 21.4416C9.76068 21.1764 9.90174 20.9973 9.9389 21C10.0556 21.0086 10.165 22.2438 8.64855 23.1836C8.64855 23.1836 8.42472 23.308 8.29435 23.1836C8.16398 23.0591 8.29435 22.876 8.29435 22.876C8.78453 22.4153 9.24243 21.8341 9.55164 21.4417ZM9.44071 23.1037C8.94241 23.2509 8.36529 23.2818 8.14461 23.1866C8.07422 23.1562 7.99949 23.1323 7.92096 23.1145C7.70143 23.0647 7.48745 23.0643 7.23351 23.0921C7.21197 23.0944 7.15882 23.1007 7.13999 23.1029L7.13983 23.1029L7.13329 23.1037C7.10938 23.1064 7.09557 23.1076 7.09293 23.1076C7.07805 23.1076 7.06173 23.1098 7.04384 23.1139C7.02595 23.1098 7.00964 23.1076 6.99475 23.1076C6.99212 23.1076 6.97831 23.1064 6.9544 23.1037C6.95404 23.1036 6.95167 23.1034 6.94786 23.1029C6.92917 23.1007 6.87578 23.0945 6.85417 23.0921C6.60024 23.0643 6.38626 23.0647 6.16673 23.1145C6.0882 23.1323 6.01346 23.1562 5.94307 23.1866C5.72239 23.2818 5.14527 23.2509 4.64698 23.1037C4.64698 23.1037 5.55375 23.4679 6.09229 23.3065C6.14451 23.284 6.19959 23.2664 6.25754 23.2532C6.41085 23.2184 6.56786 23.2153 6.75674 23.233C6.6773 23.27 6.58494 23.3123 6.47751 23.3559V23.4C6.68959 23.3139 6.93812 23.2732 7.04384 23.2607C7.14956 23.2732 7.39809 23.3139 7.61018 23.4V23.3559C7.50275 23.3123 7.41038 23.27 7.33095 23.233C7.51983 23.2153 7.67684 23.2184 7.83014 23.2532C7.8881 23.2664 7.94318 23.284 7.9954 23.3065C8.53394 23.4679 9.44071 23.1037 9.44071 23.1037Z" fill="#E8AA00"/>
<path fill-rule="evenodd" clip-rule="evenodd" d="M5.76395 9.97754L4.51202 11.0808V12.1316L5.6065 13.2314H7.84128L9.07345 12.0579V11.1633L7.84128 9.97754H5.76395Z" fill="#389F5D"/>
<path fill-rule="evenodd" clip-rule="evenodd" d="M6.19468 10.0942H5.9115V10.313H6.19468V10.0942ZM6.19468 12.9543H5.9115V13.173H6.19468V12.9543ZM6.61946 12.9543H6.90265V13.173H6.61946V12.9543ZM6.90265 10.0942H6.61946V10.313H6.90265V10.0942ZM7.32743 12.9543H7.61061V13.173H7.32743V12.9543ZM7.61061 10.0942H7.32743V10.313H7.61061V10.0942Z" fill="#C51918"/>
<path fill-rule="evenodd" clip-rule="evenodd" d="M6.55377 10.0376H6.2655V10.2563H6.55377V10.0376ZM6.55377 12.9543H6.2655V13.173H6.55377V12.9543ZM6.98617 10.0376H7.27443V10.2563H6.98617V10.0376ZM7.27443 12.9543H6.98617V13.173H7.27443V12.9543Z" fill="#E8AA00"/>
<path fill-rule="evenodd" clip-rule="evenodd" d="M4.91372 9.84204H8.69375V10.4262H9.235V12.841H8.69375V13.3402H4.91372V12.841H4.32599V10.4262H4.91372V9.84204ZM5.12611 10.6449H4.53838V12.6222H5.12611V13.1214H8.48136V12.6222H9.02261V10.6449H8.48136V10.0608H5.12611V10.6449Z" fill="#750100"/>
<path fill-rule="evenodd" clip-rule="evenodd" d="M6.40707 9.6001H6.05309V9.96468H6.40707V9.6001ZM6.97344 9.6001H6.61946V9.96468H6.97344V9.6001ZM7.18583 9.6001H7.53981V9.96468H7.18583V9.6001ZM6.40707 13.2459H6.05309V13.6105H6.40707V13.2459ZM6.61946 13.2459H6.97344V13.6105H6.61946V13.2459ZM7.53981 13.2459H7.18583V13.6105H7.53981V13.2459ZM3.99469 12.4385V12.0846H4.35927V12.4385H3.99469ZM3.99469 11.5012V11.8552H4.35927V11.5012H3.99469ZM3.99469 11.2719V10.9179H4.35927V11.2719H3.99469ZM9.09204 12.0846V12.4385H9.45662V12.0846H9.09204ZM9.09204 11.8552V11.5012H9.45662V11.8552H9.09204ZM9.09204 10.9179V11.2719H9.45662V10.9179H9.09204Z" fill="#389F5D"/>
<path fill-rule="evenodd" clip-rule="evenodd" d="M5.77837 10.2847L5.16785 10.8157V12.534L5.67453 12.8925H7.87116L8.37711 12.534V10.8157L7.8061 10.2847H5.77837Z" fill="#C51918"/>
<path fill-rule="evenodd" clip-rule="evenodd" d="M6.80328 10.9969L6.06659 11.6264H6.80328V10.9969Z" fill="#E1E5E8"/>
<path d="M6.80328 12.1974L6.06659 11.568H6.80328V12.1974Z" fill="#E8AA00"/>
<path fill-rule="evenodd" clip-rule="evenodd" d="M6.73908 10.9969L7.47577 11.6264H6.73908V10.9969Z" fill="#E8AA00"/>
<path fill-rule="evenodd" clip-rule="evenodd" d="M6.77177 11.7963C6.895 11.7963 6.9949 11.6965 6.9949 11.5732C6.9949 11.45 6.895 11.3501 6.77177 11.3501C6.64854 11.3501 6.54865 11.45 6.54865 11.5732C6.54865 11.6965 6.64854 11.7963 6.77177 11.7963Z" fill="#29AE66"/>
<path d="M6.73908 12.1974L7.47577 11.568H6.73908V12.1974Z" fill="#E1E5E8"/>
<path fill-rule="evenodd" clip-rule="evenodd" d="M5.20351 11.3501H4.56635V11.5541H5.20351V11.3501ZM5.20351 11.722H4.56635V11.926H5.20351V11.722ZM8.38935 11.3501H9.02652V11.5541H8.38935V11.3501ZM9.02652 11.722H8.38935V11.926H9.02652V11.722Z" fill="#C51918"/>
<path fill-rule="evenodd" clip-rule="evenodd" d="M5.13272 11.1313H4.56635V11.3545H5.13272V11.1313ZM5.13272 11.5032H4.56635V11.7263H5.13272V11.5032ZM4.56635 11.8751H5.13272V12.0982H4.56635V11.8751ZM8.95573 11.1313H8.38935V11.3545H8.95573V11.1313ZM8.38935 11.5032H8.95573V11.7263H8.38935V11.5032ZM8.95573 11.8751H8.38935V12.0982H8.95573V11.8751Z" fill="#E8AA00"/>
<path fill-rule="evenodd" clip-rule="evenodd" d="M9.98496 1.59041L9.98281 1.99559H7.02389L7.02177 3.83559H6.09397C5.93201 3.83559 5.48796 3.5246 5.48796 3.5246H4.7346L4.38682 3.16929V2.81228L4.01355 2.36908L4.0157 1.9639H6.97463L6.97674 0.123901H7.90454C8.0665 0.123901 8.51056 0.434896 8.51056 0.434896H9.26391L9.6117 0.7902V1.14721L9.98496 1.59041Z" fill="#E8AA00"/>
<path fill-rule="evenodd" clip-rule="evenodd" d="M4.01357 1.59041L4.01572 1.99559H6.97465L6.97676 3.83559H7.90456C8.06652 3.83559 8.51058 3.5246 8.51058 3.5246H9.26393L9.61172 3.16929V2.81228L9.98499 2.36908L9.98283 1.9639H7.02391L7.02179 0.123901H6.09399C5.93204 0.123901 5.48798 0.434896 5.48798 0.434896H4.73463L4.38684 0.7902V1.14721L4.01357 1.59041Z" fill="#E1E5E8"/>
<path fill-rule="evenodd" clip-rule="evenodd" d="M6.00217 0.685425L5.96977 0.528931L6.60803 0.382159C6.68466 0.345161 6.81763 0.239758 7.00079 0.0684814L7.0866 0.165057L7.10132 0.148481C7.28448 0.319758 7.41745 0.425161 7.49408 0.462159L8.13234 0.608931L8.09994 0.765425L7.74597 0.692308L7.77984 0.722588C7.75552 0.737161 7.72906 0.758404 7.70071 0.78619L7.55127 0.764185L7.56516 0.713648L7.52764 0.707539C7.50016 0.759387 7.46872 0.833571 7.43514 0.92876L7.28569 0.884756L7.3462 0.594871L7.00841 0.278049L6.77175 0.500012C6.8012 0.526702 6.83055 0.557339 6.85995 0.591999C6.83484 0.601552 6.81084 0.609983 6.78793 0.617295L6.7778 0.619712L6.81642 0.804756L6.66697 0.84876C6.64746 0.793454 6.62867 0.745239 6.61096 0.704376L6.59864 0.70619C6.57029 0.678404 6.54383 0.657161 6.51951 0.642588L6.56182 0.604764C6.55487 0.592896 6.54823 0.582611 6.54192 0.573931L6.00217 0.685425ZM6.02844 1.25842L6.11365 1.12446L5.67284 0.828898L5.72186 0.760346L5.59624 0.665655L5.54216 0.741279L5.36722 0.623984L5.28201 0.757947L5.44979 0.870444L5.41523 0.918767L5.54086 1.01346L5.58047 0.958063L6.02844 1.25842ZM5.48298 1.41842L5.5682 1.28446L5.12739 0.988898L5.17641 0.920346L5.05079 0.825655L4.99671 0.901279L4.82177 0.783984L4.73655 0.917947L4.90434 1.03044L4.86978 1.07877L4.9954 1.17346L5.03502 1.11806L5.48298 1.41842ZM5.24922 1.89842L5.33443 1.76446L4.89362 1.4689L4.94264 1.40035L4.81702 1.30566L4.76294 1.38128L4.588 1.26398L4.50279 1.39795L4.67057 1.51044L4.63601 1.55877L4.76163 1.65346L4.80125 1.59806L5.24922 1.89842ZM5.25651 2.28244L5.1713 2.14848L4.72333 2.44884L4.68371 2.39345L4.55809 2.48814L4.59265 2.53646L4.42487 2.64896L4.51008 2.78292L4.68502 2.66563L4.7391 2.74125L4.86472 2.64656L4.8157 2.57801L5.25651 2.28244ZM5.40506 2.62848L5.49028 2.76244L5.04946 3.05801L5.09849 3.12656L4.97287 3.22125L4.91879 3.14563L4.74385 3.26292L4.65863 3.12896L4.82641 3.01646L4.79186 2.96814L4.91748 2.87345L4.95709 2.92884L5.40506 2.62848ZM5.95052 2.78848L6.03573 2.92244L5.59492 3.21801L5.64394 3.28656L5.51832 3.38125L5.46424 3.30563L5.2893 3.42292L5.20409 3.28896L5.37187 3.17646L5.33731 3.12814L5.46293 3.03345L5.50255 3.08884L5.95052 2.78848ZM6.78203 3.55313C6.75692 3.54358 6.73292 3.53515 6.71001 3.52783L6.68034 3.52076L6.7385 3.24215L6.58904 3.19814C6.5413 3.3335 6.49788 3.42639 6.464 3.47297L5.92425 3.36148L5.89185 3.51797L6.50704 3.65944L6.50687 3.66003L6.59584 3.71912L6.60754 3.71182C6.68509 3.76589 6.79096 3.85508 6.92287 3.97842L6.97313 3.92185L7.0234 3.97842C7.20656 3.80715 7.33953 3.70174 7.41615 3.66475L7.43687 3.65998C7.46376 3.68294 7.49075 3.70264 7.51797 3.71912L7.60694 3.66003L7.59795 3.62953L7.60787 3.62066L8.05442 3.51797L8.02201 3.36148L7.48227 3.47297C7.44838 3.42639 7.40496 3.3335 7.35722 3.19814L7.20776 3.24215L7.26828 3.53203L6.97313 3.80886L6.7449 3.59479C6.75727 3.58161 6.76965 3.56773 6.78203 3.55313ZM8.68975 2.28244L8.77497 2.14848L9.22294 2.44884L9.26255 2.39345L9.38817 2.48814L9.35362 2.53646L9.5214 2.64896L9.43618 2.78292L9.26125 2.66563L9.20717 2.74125L9.08154 2.64656L9.13057 2.57801L8.68975 2.28244ZM8.45599 2.76244L8.5412 2.62848L8.98917 2.92884L9.02879 2.87345L9.15441 2.96814L9.11985 3.01646L9.28763 3.12896L9.20242 3.26292L9.02748 3.14563L8.9734 3.22125L8.84778 3.12656L8.8968 3.05801L8.45599 2.76244ZM7.91053 2.92244L7.99575 2.78848L8.44372 3.08884L8.48333 3.03345L8.60895 3.12814L8.5744 3.17646L8.74218 3.28896L8.65696 3.42292L8.48203 3.30563L8.42794 3.38125L8.30232 3.28656L8.35135 3.21801L7.91053 2.92244ZM8.76768 1.84446L8.85289 1.97842L9.30086 1.67806L9.34048 1.73346L9.4661 1.63877L9.43154 1.59044L9.59932 1.47795L9.51411 1.34398L9.33917 1.46128L9.28509 1.38566L9.15947 1.48035L9.20849 1.5489L8.76768 1.84446ZM8.53391 1.36446L8.61912 1.49842L9.06709 1.19806L9.10671 1.25346L9.23233 1.15877L9.19777 1.11044L9.36556 0.997947L9.28034 0.863984L9.1054 0.981279L9.05132 0.905655L8.9257 1.00035L8.97472 1.0689L8.53391 1.36446ZM7.98846 1.20446L8.07367 1.33842L8.52164 1.03806L8.56125 1.09346L8.68688 0.998767L8.65232 0.950444L8.8201 0.837947L8.73489 0.703984L8.55995 0.821279L8.50587 0.745655L8.38025 0.840346L8.42927 0.908898L7.98846 1.20446Z" fill="#C51918"/>
<path fill-rule="evenodd" clip-rule="evenodd" d="M6.20759 1.15307L7.09013 0.685059V1.96506H9.27194L8.75206 2.33949V2.82937H7.92922L7.04669 3.29738V2.01738H4.86487L5.38475 1.64295V1.15307H6.20759Z" fill="#C51918"/>
<path fill-rule="evenodd" clip-rule="evenodd" d="M7.92919 1.15307L7.04665 0.685059V1.96506H4.86483L5.38472 2.33949V2.82937H6.20756L7.09009 3.29738V2.01738H9.27191L8.75203 1.64295V1.15307H7.92919Z" fill="#29AE66"/>
<path fill-rule="evenodd" clip-rule="evenodd" d="M5.77887 1.48472L5.92288 1.20093L6.28922 1.39687L6.39014 1.2467L6.64668 1.42845L6.56777 1.54585L7.65208 2.1258L7.71892 2.02635L7.97546 2.20809L7.93063 2.27479L8.04776 2.33744L7.90375 2.62123L7.75224 2.5402L7.62926 2.72318L7.37272 2.54143L7.47369 2.39121L6.38938 1.81126L6.30048 1.94354L6.04394 1.76179L6.11083 1.66227L5.77887 1.48472Z" fill="#29AE66"/>
<path fill-rule="evenodd" clip-rule="evenodd" d="M8.08962 1.40676L7.92617 1.1337L7.57439 1.35472L7.46323 1.21196L7.22 1.41116L7.30691 1.52277L6.2657 2.17695L6.19207 2.0824L5.94884 2.28159L5.99821 2.345L5.88574 2.41567L6.04919 2.68873L6.19468 2.59732L6.33013 2.77128L6.57337 2.57208L6.46217 2.42927L7.50337 1.77509L7.60129 1.90084L7.84453 1.70164L7.77086 1.60704L8.08962 1.40676Z" fill="#C51918"/>
</g>
<path fill-rule="evenodd" clip-rule="evenodd" d="M19.0734 2C19.0734 2 21.4036 7.5216 19.3333 9.86652C17.263 12.2114 12 11.7593 12 11.7593C12 11.7593 18.7564 14.811 21.7001 10.6091C24.6439 6.40713 19.0734 2 19.0734 2Z" fill="#F7FCFF"/>
<path fill-rule="evenodd" clip-rule="evenodd" d="M14.8443 5.24848L14.2277 5.68245L14.4452 4.95522L13.8467 4.4962L14.5976 4.48072L14.8443 3.76306L15.0909 4.48072L15.8418 4.4962L15.2433 4.95522L15.4608 5.68245L14.8443 5.24848ZM14.9635 7.25381L14.347 7.68778L14.5645 6.96056L13.9659 6.50154L14.7169 6.48606L14.9635 5.7684L15.2101 6.48606L15.9611 6.50154L15.3626 6.96056L15.5801 7.68778L14.9635 7.25381ZM12.4727 7.84266L13.0892 7.40869L13.7058 7.84266L13.4882 7.11543L14.0868 6.65642L13.3358 6.64094L13.0892 5.92327L12.8426 6.64094L12.0916 6.65642L12.6902 7.11543L12.4727 7.84266ZM14.9635 9.35728L14.347 9.79125L14.5645 9.06402L13.9659 8.605L14.7169 8.58952L14.9635 7.87186L15.2101 8.58952L15.9611 8.605L15.3626 9.06402L15.5801 9.79125L14.9635 9.35728ZM16.3846 7.07491L17.0011 6.64094L17.6177 7.07491L17.4002 6.34768L17.9987 5.88866L17.2477 5.87318L17.0011 5.15552L16.7545 5.87318L16.0035 5.88866L16.6021 6.34768L16.3846 7.07491Z" fill="#F7FCFF"/>
</g>
</g>
<defs>
<clipPath id="clip0_30_18143">
<rect width="32" height="24" fill="white"/>
</clipPath>
</defs>
</svg>
