<svg width="32" height="24" viewBox="0 0 32 24" fill="none" xmlns="http://www.w3.org/2000/svg">
<g clip-path="url(#clip0_30_18028)">
<rect width="32" height="24" fill="white"/>
<path fill-rule="evenodd" clip-rule="evenodd" d="M0 0V24H32V0H0Z" fill="#00B4FF"/>
<mask id="mask0_30_18028" style="mask-type:luminance" maskUnits="userSpaceOnUse" x="0" y="0" width="32" height="24">
<path fill-rule="evenodd" clip-rule="evenodd" d="M0 0V24H32V0H0Z" fill="white"/>
</mask>
<g mask="url(#mask0_30_18028)">
</g>
<g clip-path="url(#clip1_30_18028)">
<rect width="18" height="14" fill="#2E42A5"/>
<path d="M-2.00427 12.9997L1.95668 14.7369L18.0899 1.88866L20.1792 -0.692871L15.9435 -1.27349L9.36317 4.2632L4.06667 7.99363L-2.00427 12.9997Z" fill="#F7FCFF"/>
<path d="M-1.46204 14.217L0.555885 15.2251L19.4289 -0.932617H16.5955L-1.46204 14.217Z" fill="#F50100"/>
<path d="M20.0043 12.9997L16.0433 14.7369L-0.0898743 1.88866L-2.17919 -0.692871L2.05648 -1.27349L8.63683 4.2632L13.9333 7.99363L20.0043 12.9997Z" fill="#F7FCFF"/>
<path d="M19.8691 13.8733L17.8512 14.8815L9.81489 7.96351L7.43229 7.19059L-2.3802 -0.683947H0.453194L10.2602 7.00368L12.8651 7.9305L19.8691 13.8733Z" fill="#F50100"/>
<path fill-rule="evenodd" clip-rule="evenodd" d="M9.98451 0H7.98451V6H0V8H7.98451V14H9.98451V8H18V6H9.98451V0Z" fill="#F50100"/>
<path fill-rule="evenodd" clip-rule="evenodd" d="M6.48451 0H11.4845V4.5H18V9.5H11.4845L11.5 14H6.5L6.48451 9.5H0V4.5H6.48451V0ZM7.98451 6H0V8H7.98451V14H9.98451V8H18V6H9.98451V0H7.98451V6Z" fill="#F7FCFF"/>
</g>
<path fill-rule="evenodd" clip-rule="evenodd" d="M26.8567 10.6848L27.4639 9.55935L28.796 9.51956L27.7646 8.65817L28.1202 7.49557L27.2311 8.0298L26.107 7.34814L26.2159 8.63981L25.2088 9.24492L26.5161 9.40834L26.8567 10.6848ZM23.4639 11.5594L22.8567 12.6848L22.5161 11.4083L21.2088 11.2449L22.2159 10.6398L22.107 9.34814L23.2311 10.0298L24.1202 9.49557L23.7646 10.6582L24.796 11.5196L23.4639 11.5594ZM20.8567 14.6848L21.4639 13.5594L22.796 13.5196L21.7646 12.6582L22.1202 11.4956L21.2311 12.0298L20.107 11.3481L20.2159 12.6398L19.2088 13.2449L20.5161 13.4083L20.8567 14.6848ZM16.8567 18.6848L17.4639 17.5594L18.796 17.5196L17.7646 16.6582L18.1202 15.4956L17.2311 16.0298L16.107 15.3481L16.2159 16.6398L15.2088 17.2449L16.5161 17.4083L16.8567 18.6848ZM12.9741 21.7355L11.874 22.3875L12.2395 21.118L11.2031 20.3046H12.378L12.9499 19.1413L13.5624 20.3046H14.5996L13.696 21.118L14.1365 22.3875L12.9741 21.7355ZM17.4639 21.5594L16.8567 22.6848L16.5161 21.4083L15.2088 21.2449L16.2159 20.6398L16.107 19.3481L17.2311 20.0298L18.1202 19.4956L17.7646 20.6582L18.796 21.5196L17.4639 21.5594ZM21.4639 19.5594L20.8567 20.6848L20.5161 19.4083L19.2088 19.2449L20.2159 18.6398L20.107 17.3481L21.2311 18.0298L22.1202 17.4956L21.7646 18.6582L22.796 19.5196L21.4639 19.5594ZM25.4639 17.5594L24.8567 18.6848L24.5161 17.4083L23.2088 17.2449L24.2159 16.6398L24.107 15.3481L25.2311 16.0298L26.1202 15.4956L25.7646 16.6582L26.796 17.5196L25.4639 17.5594ZM26.8567 16.6848L27.4639 15.5594L28.796 15.5196L27.7646 14.6582L28.1202 13.4956L27.2311 14.0298L26.107 13.3481L26.2159 14.6398L25.2088 15.2449L26.5161 15.4083L26.8567 16.6848Z" fill="#FFD018"/>
</g>
<defs>
<clipPath id="clip0_30_18028">
<rect width="32" height="24" fill="white"/>
</clipPath>
<clipPath id="clip1_30_18028">
<rect width="18" height="14" fill="white"/>
</clipPath>
</defs>
</svg>
