<svg width="32" height="24" viewBox="0 0 32 24" fill="none" xmlns="http://www.w3.org/2000/svg">
<g clip-path="url(#clip0_30_18149)">
<rect width="32" height="24" fill="white"/>
<path fill-rule="evenodd" clip-rule="evenodd" d="M0 0H32V24H0V0Z" fill="#F7FCFF"/>
<path fill-rule="evenodd" clip-rule="evenodd" d="M0 0H14V24H0V0Z" fill="#FFDC17"/>
<path d="M22.7816 12.7511L22.4364 12.7736C22.5189 13.9594 22.7736 14.8753 23.2059 15.5217C23.9031 16.5642 24.8232 17.3702 25.4389 17.3702C25.5787 17.3702 25.6112 17.4221 25.5651 17.5503C25.4995 17.7326 25.2921 17.9119 25.0253 17.9807C24.5815 18.0951 23.5722 18.1544 22.0145 18.1544V18.4893C23.6034 18.4893 24.631 18.429 25.1144 18.3043C25.4898 18.2075 25.7877 17.95 25.8918 17.6604C26.0123 17.3256 25.8305 17.0353 25.4389 17.0353C24.9816 17.0353 24.1333 16.2922 23.4963 15.3397C23.1004 14.7478 22.8604 13.8848 22.7816 12.7511Z" fill="#AF0100"/>
<path d="M21.147 12.7511L21.4921 12.7736C21.4097 13.9594 21.155 14.8753 20.7226 15.5217C20.0255 16.5642 19.1054 17.3702 18.4897 17.3702C18.3499 17.3702 18.3174 17.4221 18.3635 17.5503C18.4291 17.7326 18.6365 17.9119 18.9033 17.9807C19.3471 18.0951 20.3564 18.1544 21.914 18.1544V18.4893C20.3252 18.4893 19.2976 18.429 18.8142 18.3043C18.4388 18.2075 18.1409 17.95 18.0368 17.6604C17.9163 17.3256 18.0981 17.0353 18.4897 17.0353C18.947 17.0353 19.7952 16.2922 20.4322 15.3397C20.8282 14.7478 21.0682 13.8848 21.147 12.7511Z" fill="#AF0100"/>
<path fill-rule="evenodd" clip-rule="evenodd" d="M28.0668 6.7981L18.9254 13.9241C18.6053 13.8198 18.2559 13.7628 17.8919 13.7628C16.4087 13.7628 15.1675 14.7101 15.1675 15.9395C15.1675 17.1689 16.4087 18.1162 17.8919 18.1162C18.062 18.1162 18.2289 18.1038 18.3911 18.0799C18.241 17.9627 18.129 17.8162 18.0729 17.6604C18.0055 17.473 18.0328 17.2996 18.1385 17.1832C18.0581 17.1912 17.9758 17.1953 17.8919 17.1953C16.8912 17.1953 16.1189 16.6058 16.1189 15.9395C16.1189 15.2731 16.8912 14.6837 17.8919 14.6837C18.8925 14.6837 19.6648 15.2731 19.6648 15.9395C19.6648 16.1434 19.5926 16.34 19.4636 16.5148C19.4878 16.4932 19.5122 16.4709 19.5366 16.4482C19.8535 16.1532 19.1415 17.3702 18.5259 17.3702C18.386 17.3702 18.3535 17.4221 18.3996 17.5503C18.4611 17.7211 18.6469 17.8892 18.8895 17.9663C19.8923 17.6528 20.6162 16.8784 20.6162 15.9395C20.6162 15.5554 20.4951 15.1989 20.2833 14.8902L25.1961 10.7206L25.525 11.0603L25.7616 10.8456L26.5823 11.4538L26.2392 11.7183L26.9396 12.5697L28.3526 11.4804L28.3765 11.468L28.3724 11.4652L28.46 11.3976L27.7596 10.5463L27.4209 10.8073L26.5033 10.1729L26.6109 10.0754L26.3157 9.77038L26.7596 9.39361L26.9952 9.63705L27.2482 9.40757L28.0438 10.0373L27.7094 10.2951L28.4099 11.1465L29.6203 10.2133L29.7589 10.1374L29.7388 10.122L29.9303 9.97438L29.2298 9.123L28.8342 9.42798L27.9628 8.75944L28.0812 8.65213L27.8792 8.44343L28.7836 7.6758L28.0668 6.7981Z" fill="#F4B300"/>
<path fill-rule="evenodd" clip-rule="evenodd" d="M15.6864 14.7255C15.9491 14.7255 16.1621 14.5569 16.1621 14.3488C16.1621 14.1407 15.9491 13.972 15.6864 13.972C15.4237 13.972 15.2108 14.1407 15.2108 14.3488C15.2108 14.5569 15.4237 14.7255 15.6864 14.7255ZM15.8594 18.1581C16.1221 18.1581 16.3351 17.9894 16.3351 17.7813C16.3351 17.5733 16.1221 17.4046 15.8594 17.4046C15.5967 17.4046 15.3837 17.5733 15.3837 17.7813C15.3837 17.9894 15.5967 18.1581 15.8594 18.1581ZM20.5729 17.7813C20.5729 17.9894 20.3599 18.1581 20.0972 18.1581C19.8345 18.1581 19.6216 17.9894 19.6216 17.7813C19.6216 17.5733 19.8345 17.4046 20.0972 17.4046C20.3599 17.4046 20.5729 17.5733 20.5729 17.7813Z" fill="#BFBFBF"/>
<path fill-rule="evenodd" clip-rule="evenodd" d="M23.3837 15.9395C23.3837 15.3869 23.6345 14.8913 24.0453 14.5131L18.7957 10.4478L18.7359 10.4938L18.8889 10.6326L18.475 11.0603L18.257 10.8626L17.4535 11.4815L17.7608 11.7183L17.0603 12.5697L15.6624 11.492L15.6234 11.468L15.6275 11.4651L15.54 11.3976L16.2404 10.5462L16.579 10.8073L17.4966 10.1729L17.3891 10.0754L17.7857 9.66557L17.3235 9.30765L17.0047 9.63703L16.7612 9.41616L15.9758 10.0525L16.2905 10.2951L15.5901 11.1465L14.4181 10.243L14.241 10.1374L14.2611 10.122L14.0697 9.97436L14.7701 9.12299L15.1657 9.42797L16.0371 8.75943L15.9188 8.65211L16.158 8.40501L15.2163 7.67579L15.8106 6.95667L24.8924 13.9898C25.2602 13.844 25.6737 13.7627 26.1081 13.7627C27.5912 13.7627 28.8324 14.7101 28.8324 15.9395C28.8324 17.1689 27.5912 18.1162 26.1081 18.1162C25.938 18.1162 25.7711 18.1038 25.6088 18.0799C25.7589 17.9627 25.871 17.8162 25.927 17.6604C25.9944 17.473 25.9672 17.2996 25.8615 17.1832C25.9418 17.1912 26.0242 17.1953 26.1081 17.1953C27.1087 17.1953 27.881 16.6058 27.881 15.9395C27.881 15.2731 27.1087 14.6837 26.1081 14.6837C25.1074 14.6837 24.3351 15.2731 24.3351 15.9395C24.3351 16.1433 24.4074 16.34 24.5364 16.5148C24.5121 16.4931 24.4877 16.4709 24.4633 16.4482C24.1465 16.1532 24.8584 17.3702 25.4741 17.3702C25.6139 17.3702 25.6464 17.4221 25.6003 17.5503C25.5389 17.7211 25.353 17.8892 25.1104 17.9663C24.1077 17.6528 23.3837 16.8784 23.3837 15.9395Z" fill="#BFBFBF"/>
<path fill-rule="evenodd" clip-rule="evenodd" d="M28.3135 14.7255C28.0508 14.7255 27.8378 14.5569 27.8378 14.3488C27.8378 14.1407 28.0508 13.972 28.3135 13.972C28.5762 13.972 28.7892 14.1407 28.7892 14.3488C28.7892 14.5569 28.5762 14.7255 28.3135 14.7255ZM28.1405 18.1581C27.8778 18.1581 27.6649 17.9894 27.6649 17.7813C27.6649 17.5733 27.8778 17.4046 28.1405 17.4046C28.4032 17.4046 28.6162 17.5733 28.6162 17.7813C28.6162 17.9894 28.4032 18.1581 28.1405 18.1581ZM23.427 17.7813C23.427 17.9894 23.64 18.1581 23.9027 18.1581C24.1654 18.1581 24.3784 17.9894 24.3784 17.7813C24.3784 17.5733 24.1654 17.4046 23.9027 17.4046C23.64 17.4046 23.427 17.5733 23.427 17.7813Z" fill="#F4B300"/>
<path fill-rule="evenodd" clip-rule="evenodd" d="M21.7405 11.7953C21.6689 11.7953 21.6108 11.8534 21.6108 11.925V12.4651H21.131C21.0616 12.4651 21.0054 12.5213 21.0054 12.5906C21.0054 12.66 21.0616 12.7162 21.131 12.7162H21.6108V19.8702C21.6108 19.9419 21.6689 19.9999 21.7405 19.9999H22C22.0716 19.9999 22.1297 19.9419 22.1297 19.8702V12.7162H22.869C22.9383 12.7162 22.9946 12.66 22.9946 12.5906C22.9946 12.5213 22.9383 12.4651 22.869 12.4651H22.1297V11.925C22.1297 11.8534 22.0716 11.7953 22 11.7953H21.7405Z" fill="#AF0100"/>
<path fill-rule="evenodd" clip-rule="evenodd" d="M16.7545 7.5937L16.9662 7.73895C17.4595 7.06531 17.9035 6.93 18.355 7.28355C19.1346 7.89393 19.2021 9.38315 18.3684 9.88176C17.3741 10.4764 16.8701 11.6361 17.311 12.2673C17.7178 12.8497 18.6987 12.6293 19.667 11.8978C19.8389 11.7679 20.0028 11.6292 20.1568 11.4836L19.9523 11.3256C19.812 11.4568 19.6632 11.5821 19.5074 11.6998C18.6437 12.3523 17.8138 12.5387 17.5259 12.1266C17.1822 11.6346 17.6216 10.6236 18.5048 10.0954C19.5038 9.49794 19.4268 7.7997 18.5182 7.08827C17.9321 6.6294 17.3252 6.81436 16.7545 7.5937ZM20.5625 10.645L20.7735 10.7914C21.1408 10.2958 21.3916 9.75913 21.4749 9.23055L21.2184 9.19269C21.1417 9.67951 20.9071 10.1798 20.5625 10.645Z" fill="#979797"/>
<path fill-rule="evenodd" clip-rule="evenodd" d="M27.2695 7.5937L27.0578 7.73895C26.5645 7.06531 26.1205 6.93 25.669 7.28355C24.8894 7.89393 24.8219 9.38315 25.6556 9.88176C26.6499 10.4764 27.1539 11.6361 26.713 12.2673C26.3062 12.8497 25.3253 12.6293 24.357 11.8978C24.1851 11.7679 24.0212 11.6292 23.8672 11.4836L24.0717 11.3256C24.212 11.4568 24.3608 11.5821 24.5166 11.6998C25.3803 12.3523 26.2102 12.5387 26.4981 12.1266C26.8417 11.6346 26.4024 10.6236 25.5192 10.0954C24.5202 9.49794 24.5972 7.7997 25.5058 7.08827C26.0919 6.6294 26.6988 6.81436 27.2695 7.5937ZM23.4615 10.645L23.2505 10.7914C22.8832 10.2958 22.6324 9.75913 22.5491 9.23055L22.8056 9.19269C22.8823 9.67951 23.1168 10.1798 23.4615 10.645Z" fill="#979797"/>
<path fill-rule="evenodd" clip-rule="evenodd" d="M21.8702 20.0166C22.1568 20.0166 22.3892 19.9004 22.3892 19.7571C22.3892 19.6138 22.1568 19.4977 21.8702 19.4977C21.5836 19.4977 21.3513 19.6138 21.3513 19.7571C21.3513 19.9004 21.5836 20.0166 21.8702 20.0166Z" fill="#AF0100"/>
<path fill-rule="evenodd" clip-rule="evenodd" d="M21.7837 9.2193C22.7868 9.2193 23.6 9.08377 23.6 8.91659C23.6 8.74942 22.7868 8.61389 21.7837 8.61389C20.7807 8.61389 19.9675 8.74942 19.9675 8.91659C19.9675 9.08377 20.7807 9.2193 21.7837 9.2193Z" fill="#AF0100"/>
<path fill-rule="evenodd" clip-rule="evenodd" d="M21.886 2.03833H21.6266V2.33746H21.3808V2.58862H21.6266V3.32161H21.886V2.58862H22.1855V2.33746H21.886V2.03833ZM19.9351 5.65665L19.8192 5.46156C19.8826 5.43496 19.9474 5.40986 20.0135 5.38625L19.6759 4.64602L19.9133 4.54459L20.2608 5.30664C20.3345 5.28541 20.4096 5.26587 20.4862 5.24801C20.4329 5.18763 20.4 5.10502 20.4 5.01391C20.4 4.82896 20.5355 4.67903 20.7027 4.67903C20.8699 4.67903 21.0054 4.82896 21.0054 5.01391C21.0054 5.06611 20.9946 5.11551 20.9753 5.15955C21.1809 5.13229 21.3955 5.11542 21.6193 5.10889V4.8251H21.2944V4.6231H21.6193V4.38252H21.9624V4.6231H22.3584V4.8251H21.9624V5.10691C22.2174 5.11134 22.4562 5.12908 22.679 5.16021C22.6595 5.11601 22.6486 5.06637 22.6486 5.01391C22.6486 4.82896 22.7842 4.67903 22.9513 4.67903C23.1185 4.67903 23.254 4.82896 23.254 5.01391C23.254 5.10863 23.2185 5.19416 23.1614 5.25508C23.2581 5.2803 23.351 5.30873 23.44 5.34038L23.6884 4.79575L23.9258 4.89719L23.6794 5.43747C23.6989 5.44644 23.7181 5.4556 23.7372 5.46494L23.6065 5.65327L23.5856 5.64315L23.5457 5.73058L23.3083 5.62915L23.3471 5.54411C22.9686 5.40826 22.5072 5.33487 21.9624 5.32499V5.41464H21.6193V5.32706C20.9726 5.34677 20.4114 5.45689 19.9351 5.65665ZM19.8192 5.88017L19.8798 5.98216L19.6759 6.06928L20.0135 6.8095C19.9474 6.83311 19.8826 6.85822 19.8192 6.88482L19.9351 7.0799C20.4114 6.88015 20.9726 6.77002 21.6193 6.75031V6.83789H21.9624V6.74824C22.5072 6.75813 22.9686 6.83152 23.3471 6.96737L23.3083 7.0524L23.5457 7.15384L23.5856 7.06641L23.6065 7.07653L23.7372 6.88819C23.7181 6.87885 23.6989 6.8697 23.6794 6.86073L23.9258 6.32044L23.6884 6.21901L23.44 6.76364C23.351 6.73199 23.2581 6.70356 23.1614 6.67833C23.2185 6.61742 23.254 6.53189 23.254 6.43717C23.254 6.25222 23.1185 6.10228 22.9513 6.10228C22.7842 6.10228 22.6486 6.25222 22.6486 6.43717C22.6486 6.48963 22.6595 6.53927 22.679 6.58347C22.4562 6.55234 22.2174 6.5346 21.9624 6.53017V6.24836H22.3584V6.04635H21.9624V5.80577H21.6193V6.04635H21.2944V6.24836H21.6193V6.53215C21.3955 6.53868 21.1809 6.55555 20.9753 6.5828C20.9946 6.53877 21.0054 6.48936 21.0054 6.43717C21.0054 6.25222 20.8699 6.10228 20.7027 6.10228C20.5355 6.10228 20.4 6.25222 20.4 6.43717C20.4 6.52828 20.4329 6.61089 20.4862 6.67127C20.4096 6.68912 20.3345 6.70866 20.2608 6.72989L19.9579 6.06576C20.4816 5.85055 21.1065 5.74244 21.8338 5.74244C22.5695 5.74244 23.16 5.85304 23.6065 6.07188L23.7372 5.88354C23.2471 5.64333 22.6122 5.52441 21.8338 5.52441C21.0576 5.52441 20.3857 5.64264 19.8192 5.88017ZM19.8192 7.30342L19.8798 7.40541L19.6759 7.49254L20.0135 8.23276C19.9474 8.25637 19.8826 8.28147 19.8192 8.30807L19.9351 8.50316C20.4114 8.3034 20.9726 8.19328 21.6193 8.17357V8.26115H21.9624V8.1715C22.5072 8.18139 22.9686 8.25477 23.3471 8.39062L23.3083 8.47566L23.5457 8.57709L23.5856 8.48967L23.6065 8.49978L23.7372 8.31145C23.7181 8.30211 23.6989 8.29295 23.6794 8.28398L23.9258 7.7437L23.6884 7.64226L23.44 8.18689C23.351 8.15524 23.2581 8.12681 23.1614 8.10159C23.2185 8.04068 23.254 7.95514 23.254 7.86042C23.254 7.67547 23.1185 7.52554 22.9513 7.52554C22.7842 7.52554 22.6486 7.67547 22.6486 7.86042C22.6486 7.91288 22.6595 7.96252 22.679 8.00673C22.4562 7.97559 22.2174 7.95785 21.9624 7.95343V7.67162H22.3584V7.46961H21.9624V7.22903H21.6193V7.46961H21.2944V7.67162H21.6193V7.95541C21.3955 7.96193 21.1809 7.97881 20.9753 8.00606C20.9946 7.96202 21.0054 7.91262 21.0054 7.86042C21.0054 7.67547 20.8699 7.52554 20.7027 7.52554C20.5355 7.52554 20.4 7.67547 20.4 7.86042C20.4 7.95153 20.4329 8.03415 20.4862 8.09452C20.4096 8.11238 20.3345 8.13192 20.2608 8.15315L19.9579 7.48902C20.4816 7.27381 21.1065 7.16569 21.8338 7.16569C22.5695 7.16569 23.16 7.2763 23.6065 7.49513L23.7372 7.3068C23.2471 7.06659 22.6122 6.94767 21.8338 6.94767C21.0576 6.94767 20.3857 7.0659 19.8192 7.30342ZM19.8192 8.72668L19.9351 8.92176C20.4633 8.70024 21.0958 8.58895 21.8338 8.58895C22.5695 8.58895 23.16 8.69956 23.6065 8.91839L23.7372 8.73005C23.2471 8.48984 22.6122 8.37092 21.8338 8.37092C21.0576 8.37092 20.3857 8.48916 19.8192 8.72668Z" fill="#F4B300"/>
</g>
<defs>
<clipPath id="clip0_30_18149">
<rect width="32" height="24" fill="white"/>
</clipPath>
</defs>
</svg>
