<svg width="32" height="24" viewBox="0 0 32 24" fill="none" xmlns="http://www.w3.org/2000/svg">
<g clip-path="url(#clip0_30_18073)">
<rect width="32" height="24" fill="white"/>
<path fill-rule="evenodd" clip-rule="evenodd" d="M0 0V24H32V0H0Z" fill="#F7FCFF"/>
<mask id="mask0_30_18073" style="mask-type:luminance" maskUnits="userSpaceOnUse" x="0" y="0" width="32" height="24">
<path fill-rule="evenodd" clip-rule="evenodd" d="M0 0V24H32V0H0Z" fill="white"/>
</mask>
<g mask="url(#mask0_30_18073)">
<path fill-rule="evenodd" clip-rule="evenodd" d="M17.6025 8.21483C17.8445 8.35253 17.9896 8.70507 17.9896 8.70507H13.9016L14.1838 8.21483C14.1838 8.21483 13.9016 8.08673 14.0436 8.08673C14.1855 8.08673 14.5905 7.51861 14.5905 7.51861H14.4215C14.4215 7.51861 14.3346 7.37728 14.5905 7.37728C14.8463 7.37728 15.0507 6.46282 15.0507 6.46282C15.0507 6.46282 15.2186 6.03497 14.8076 5.92699C14.3967 5.81901 13.9016 6.28467 13.9016 6.28467C13.9016 6.28467 14.0224 5.53967 14.1838 5.3783C14.2588 5.30331 14.3989 5.29139 14.5273 5.28046C14.6752 5.26786 14.8076 5.25658 14.8076 5.15175C14.8076 4.9559 15.2887 4.80322 16.0751 4.80322C16.8615 4.80322 17.1472 5.74248 17.1472 5.92699C17.1472 6.1115 17.4162 7.0922 17.4162 7.0922C17.4162 7.0922 17.1472 7.0922 17.1472 7.21871C17.1472 7.34522 17.9896 7.89194 17.9896 7.89194C17.9896 7.89194 17.3605 8.07713 17.6025 8.21483ZM2.7772 4.86953C3.09084 4.73495 6.27814 5.68474 8.66571 6.39622L8.66574 6.39622L8.66576 6.39623L8.66577 6.39623C10.0387 6.80536 11.1472 7.13569 11.2927 7.13569C11.6913 7.13569 12.4412 8.10079 12.0663 8.50701C11.6913 8.91323 11.5645 9.15062 11.8154 9.15062C12.0663 9.15062 13.3317 8.82223 13.3317 8.82223V12.594C13.3317 12.594 12.1189 12.8818 11.8154 12.594C11.6684 12.4546 11.4442 12.4462 11.252 12.4391C11.0474 12.4314 10.8791 12.4251 10.8791 12.2634C10.8791 11.9497 10.1803 11.9004 10.1803 11.9004C10.1803 11.9004 9.5336 11.6872 9.5336 11.4865C9.5336 11.2859 9.11042 10.7188 9.11042 10.7188C9.11042 10.7188 7.49764 9.80571 6.12639 8.80372C5.84936 8.60129 5.57559 8.41058 5.31346 8.22798C4.27809 7.50675 3.42458 6.91219 3.2712 6.22299C2.55503 5.5138 2.2832 5.0815 2.7772 4.86953ZM12.8438 12.8319C12.8438 12.8319 12.3008 13.206 11.7 14.2079C11.4045 14.7008 11.3807 15.1349 11.3635 15.4489C11.3457 15.7731 11.335 15.9692 11.0392 15.9692C10.6939 15.9692 10.4434 16.0438 10.2395 16.1046C10.0996 16.1464 9.9816 16.1815 9.87003 16.1815C9.59589 16.1815 9.06952 17.2164 9.33271 17.4558C9.59589 17.6953 10.6986 18.077 10.6986 17.4558C10.6986 16.8347 10.9952 16.4818 11.5341 16.4818C12.0731 16.4818 13.0364 16.1249 13.0364 15.342C13.0364 14.559 14.0867 14.6149 14.0867 14.6149L12.8438 12.8319ZM23.5613 6.39622C25.9489 5.68474 29.1361 4.73495 29.4498 4.86953C29.9438 5.0815 29.672 5.5138 28.9558 6.22299C28.8024 6.91219 27.9489 7.50674 26.9135 8.22798C26.6514 8.41058 26.3776 8.60129 26.1006 8.80372C24.7293 9.80571 23.1166 10.7188 23.1166 10.7188C23.1166 10.7188 22.6934 11.2859 22.6934 11.4865C22.6934 11.6872 22.0467 11.9004 22.0467 11.9004C22.0467 11.9004 21.3479 11.9497 21.3479 12.2634C21.3479 12.4251 21.1796 12.4314 20.975 12.4391C20.7828 12.4462 20.5586 12.4546 20.4116 12.594C20.1081 12.8818 18.8953 12.594 18.8953 12.594V8.82223C18.8953 8.82223 20.1607 9.15062 20.4116 9.15062C20.6625 9.15062 20.5357 8.91323 20.1607 8.50701C19.7858 8.10079 20.5357 7.13569 20.9342 7.13569C21.0798 7.13569 22.1882 6.80539 23.561 6.39629L23.5611 6.39627L23.5613 6.39622L23.5613 6.39622ZM19.3832 12.8319C19.3832 12.8319 19.9262 13.206 20.527 14.2079C20.8225 14.7008 20.8463 15.1349 20.8635 15.4489C20.8812 15.7731 20.892 15.9692 21.1878 15.9692C21.5331 15.9692 21.7836 16.0438 21.9875 16.1046C22.1274 16.1464 22.2454 16.1815 22.357 16.1815C22.6311 16.1815 23.1575 17.2164 22.8943 17.4558C22.6311 17.6953 21.5284 18.077 21.5284 17.4558C21.5284 16.8347 21.2318 16.4818 20.6928 16.4818C20.1539 16.4818 19.1906 16.1249 19.1906 15.342C19.1906 14.559 18.1403 14.6149 18.1403 14.6149L19.3832 12.8319ZM13.541 15.4423C13.541 15.0974 14.1505 14.8373 14.1505 14.8373L15.9851 14.0631C15.9851 14.0631 15.9946 14.2378 16.0086 14.5279C16.0227 14.2378 16.0321 14.0631 16.0321 14.0631L17.8668 14.8373C17.8668 14.8373 18.4763 15.0974 18.4763 15.4423C18.4763 15.6152 18.7355 15.9208 18.9942 16.2258L18.9942 16.2258C19.2518 16.5294 19.5088 16.8324 19.5088 17.003C19.5088 17.3039 18.8127 17.9806 18.3925 18.3892C18.3351 18.445 18.2829 18.4957 18.2383 18.5398C18.1421 18.6351 18.038 18.7531 17.9299 18.8756C17.6208 19.2261 17.2787 19.6141 16.9917 19.6141C16.7898 19.6141 16.6267 19.7545 16.4704 19.8891C16.3267 20.0128 16.1889 20.1315 16.0321 20.1315C16.0239 20.1315 16.016 20.1276 16.0086 20.1202C16.0012 20.1276 15.9934 20.1315 15.9851 20.1315C15.8284 20.1315 15.6905 20.0128 15.5468 19.8891C15.3905 19.7545 15.2274 19.6141 15.0256 19.6141C14.7386 19.6141 14.3964 19.2261 14.0873 18.8756C13.9792 18.7531 13.8751 18.6351 13.7789 18.5398C13.7343 18.4957 13.6821 18.445 13.6248 18.3893L13.6248 18.3892C13.2045 17.9806 12.5084 17.3039 12.5084 17.003C12.5084 16.8324 12.7654 16.5294 13.023 16.2258C13.2817 15.9208 13.541 15.6152 13.541 15.4423Z" fill="#E8AA00"/>
<path fill-rule="evenodd" clip-rule="evenodd" d="M7.01024 10.6732C7.05023 11.1358 7.18177 11.4086 7.18177 11.4086C7.18177 11.4086 7.41329 11.7728 7.54459 11.7771C7.61203 11.9447 7.6855 12.1165 7.76406 12.2914C8.12442 13.2515 8.61546 14.5131 9.11835 15.6621C9.08607 15.6376 9.03942 15.6107 8.97566 15.5809C8.55498 15.3842 8.25295 15.3617 8.25295 15.3617C8.25295 15.3617 7.68908 15.3858 7.7473 15.5458C7.80551 15.7057 8.50462 16.0532 8.78847 15.9499C8.82011 15.9383 8.85225 15.9273 8.8838 15.9164C9.01437 15.8713 9.13487 15.8297 9.16827 15.7757C9.23511 15.9272 9.3021 16.0765 9.36894 16.2226C8.94931 16.0267 8.64825 16.0043 8.64825 16.0043C8.64825 16.0043 8.08437 16.0284 8.14259 16.1884C8.20081 16.3483 8.89991 16.6957 9.18377 16.5924C9.21541 16.5809 9.24755 16.5698 9.2791 16.5589C9.35772 16.5318 9.43269 16.5059 9.48719 16.4779C9.99391 17.5582 10.4831 18.4207 10.8323 18.6385H11.5368C11.5368 18.6385 10.9279 17.7779 10.1605 16.5731C10.3917 16.409 10.7138 16.0466 10.7138 15.8186C10.7138 15.7849 10.7144 15.751 10.715 15.7176C10.7195 15.4516 10.7233 15.2251 10.4312 15.5165C10.1025 15.8446 9.97804 16.1207 9.97804 16.1207C9.97804 16.1207 9.96308 16.168 9.94646 16.2346C9.88479 16.1363 9.82241 16.0362 9.75953 15.9345C9.9911 15.7724 10.3186 15.4059 10.3186 15.176C10.3186 15.1424 10.3191 15.1084 10.3197 15.075C10.3242 14.809 10.328 14.5825 10.0359 14.874C9.70717 15.202 9.58275 15.4781 9.58275 15.4781C9.58275 15.4781 9.56748 15.5264 9.55065 15.594C9.46189 15.4481 9.37262 15.2997 9.2834 15.1494C9.50967 15.0299 9.92326 14.599 9.92326 14.3407C9.92326 14.307 9.92383 14.273 9.9244 14.2397C9.92887 13.9737 9.93269 13.7472 9.6406 14.0386C9.31188 14.3667 9.18745 14.6428 9.18745 14.6428C9.18745 14.6428 9.15025 14.7604 9.12802 14.8856C9.0113 14.6859 8.89525 14.4837 8.78117 14.2805C8.78467 14.281 8.78833 14.2813 8.79216 14.2813C8.96238 14.2813 9.52797 13.7432 9.52797 13.4411C9.52797 13.4074 9.52854 13.3734 9.5291 13.3401C9.53358 13.0741 9.53739 12.8476 9.24531 13.139C8.91658 13.4671 8.79216 13.7432 8.79216 13.7432C8.79216 13.7432 8.70845 14.0078 8.71714 14.1659C8.55978 13.8832 8.40668 13.599 8.26133 13.3173L8.2651 13.3174C8.43532 13.3174 9.00091 12.7793 9.00091 12.4773C9.00091 12.4436 9.00148 12.4096 9.00204 12.3762C9.00652 12.1102 9.01033 11.8837 8.71825 12.1752C8.38952 12.5032 8.2651 12.7793 8.2651 12.7793C8.2651 12.7793 8.18974 13.0176 8.18945 13.177C8.0367 12.8765 7.89348 12.5797 7.76406 12.2914C7.69453 12.1062 7.62986 11.9322 7.57091 11.7723C7.5793 11.7687 7.58703 11.7628 7.59399 11.7545C7.7034 11.6241 7.65474 10.845 7.42333 10.6508C7.39754 10.6292 7.37187 10.6069 7.34667 10.585C7.14576 10.4106 6.97471 10.2621 7.01024 10.6732ZM7.79237 11.8568C7.79237 11.8568 7.81485 11.5547 8.01156 11.1341C8.18634 10.7603 8.26022 10.9744 8.347 11.2259C8.35789 11.2575 8.36897 11.2896 8.38049 11.3212C8.48381 11.6051 8.13637 12.3042 7.97642 12.3624C7.81646 12.4206 7.79237 11.8568 7.79237 11.8568ZM8.58036 14.7456C8.15969 14.5489 7.85766 14.5264 7.85766 14.5264C7.85766 14.5264 7.29378 14.5505 7.352 14.7104C7.41022 14.8704 8.10932 15.2178 8.39318 15.1145C8.42482 15.103 8.45696 15.0919 8.48851 15.081C8.74002 14.9943 8.95415 14.9204 8.58036 14.7456ZM7.46237 13.6268C7.46237 13.6268 7.76439 13.6493 8.18507 13.846C8.55886 14.0208 8.34472 14.0947 8.09321 14.1814C8.06166 14.1923 8.02953 14.2034 7.99789 14.2149C7.71403 14.3182 7.01493 13.9708 6.95671 13.8108C6.89849 13.6509 7.46237 13.6268 7.46237 13.6268ZM7.85566 12.9464C7.43498 12.7497 7.13295 12.7272 7.13295 12.7272C7.13295 12.7272 6.56908 12.7513 6.6273 12.9112C6.68551 13.0712 7.38462 13.4186 7.66847 13.3153C7.70007 13.3038 7.73215 13.2928 7.76366 13.2819L7.76376 13.2818L7.7638 13.2818C8.01531 13.1951 8.22945 13.1212 7.85566 12.9464ZM6.97497 11.6448C6.97497 11.6448 7.25109 11.7692 7.57912 12.0979C7.87059 12.39 7.6441 12.3862 7.37808 12.3817H7.37808C7.34471 12.3811 7.31071 12.3806 7.27705 12.3806C6.97497 12.3806 6.43686 11.815 6.43686 11.6448C6.43686 11.4745 6.97497 11.6448 6.97497 11.6448Z" fill="#46A000"/>
<path fill-rule="evenodd" clip-rule="evenodd" d="M28.6916 10.3386H26.5543C26.5543 10.3386 27.0074 10.3386 27.0572 10.7763C27.0572 10.7763 27.0676 14.4703 27.0572 14.7605C27.0468 15.0507 26.5543 15.1495 26.5543 15.1495C26.5543 15.1495 29.1471 15.1574 28.6916 15.1495C28.2361 15.1415 28.1356 14.7605 28.1356 14.7605V10.7763C28.1356 10.4391 28.6916 10.3386 28.6916 10.3386ZM4.56531 14.8533C4.32338 14.2287 2.82968 10.4042 2.82968 10.4042H4.30842C4.05153 10.4042 3.95615 10.7312 3.95615 10.7312L4.99192 13.6844C4.99192 13.6844 5.99353 11.2733 5.99353 10.8457C5.99353 10.4181 5.57308 10.4042 5.57308 10.4042H7.50093L7.03518 10.5597C7.03518 10.5597 5.4926 14.0962 5.4926 14.8533C5.4191 15.0211 6.20282 15.1327 6.20282 15.1327H4.13262L4.56531 14.8533ZM22.2665 13.4567L23.4122 11.3458L23.4459 13.6944L23.091 13.5793L22.8394 15.1476L24.1063 12.718L23.6845 12.5595L25.2528 10.8618L24.7187 13.1563L24.4149 12.8887L22.6182 16.241L24.6236 13.9433L24.237 13.7502L26.2173 12.4537L25.3552 14.5665L24.8742 14.2203L22.8394 16.782L21.9953 16.4574L22.8394 13.4567H22.2665ZM21.6049 17.46H20.9715V17.9419H20.4728L19.0603 19.5803H19.8399L20.1108 20.5029L20.4728 20.1773V20.5029L21.1808 20.1773L21.8577 20.7634L22.3628 18.5104L22.0228 18.2608L22.1975 18.1081L22.0228 17.46H21.6049Z" fill="#0093E1"/>
<path fill-rule="evenodd" clip-rule="evenodd" d="M12.3435 8.01282C12.3435 8.01282 13.2741 8.65539 14.2047 8.65539C15.1353 8.65539 16.0659 8.01282 16.0659 8.01282C16.0659 8.01282 16.9965 8.65539 17.9271 8.65539C18.8576 8.65539 19.7882 8.01282 19.7882 8.01282V10.9137C19.7882 13.9131 16.0659 16.2377 16.0659 16.2377C16.0659 16.2377 12.1633 14.1033 12.3435 10.8781V8.01282Z" fill="#F7FCFF"/>
<mask id="mask1_30_18073" style="mask-type:luminance" maskUnits="userSpaceOnUse" x="12" y="8" width="8" height="9">
<path fill-rule="evenodd" clip-rule="evenodd" d="M12.3435 8.01282C12.3435 8.01282 13.2741 8.65539 14.2047 8.65539C15.1353 8.65539 16.0659 8.01282 16.0659 8.01282C16.0659 8.01282 16.9965 8.65539 17.9271 8.65539C18.8576 8.65539 19.7882 8.01282 19.7882 8.01282V10.9137C19.7882 13.9131 16.0659 16.2377 16.0659 16.2377C16.0659 16.2377 12.1633 14.1033 12.3435 10.8781V8.01282Z" fill="white"/>
</mask>
<g mask="url(#mask1_30_18073)">
<path fill-rule="evenodd" clip-rule="evenodd" d="M12.08 7.82007H19.92V10.8401H12.08V7.82007Z" fill="#2E42A5"/>
<path fill-rule="evenodd" clip-rule="evenodd" d="M13.5953 10.8401H12.9365V16.9445H13.5953V10.8401ZM14.7153 10.8401H14.0565V16.9445H14.7153V10.8401ZM15.1765 10.8401H15.8353V16.9445H15.1765V10.8401ZM16.9553 10.8401H16.2965V16.9445H16.9553V10.8401ZM17.4165 10.8401H18.0753V16.9445H17.4165V10.8401ZM19.1953 10.8401H18.5365V16.9445H19.1953V10.8401Z" fill="#AF0100"/>
</g>
</g>
</g>
<defs>
<clipPath id="clip0_30_18073">
<rect width="32" height="24" fill="white"/>
</clipPath>
</defs>
</svg>
