<svg width="32" height="24" viewBox="0 0 32 24" fill="none" xmlns="http://www.w3.org/2000/svg">
<g clip-path="url(#clip0_30_18104)">
<rect width="32" height="24" fill="white"/>
<path fill-rule="evenodd" clip-rule="evenodd" d="M0 0V24H32V0H0Z" fill="#F7FCFF"/>
<mask id="mask0_30_18104" style="mask-type:luminance" maskUnits="userSpaceOnUse" x="0" y="0" width="32" height="24">
<path fill-rule="evenodd" clip-rule="evenodd" d="M0 0V24H32V0H0Z" fill="white"/>
</mask>
<g mask="url(#mask0_30_18104)">
<path fill-rule="evenodd" clip-rule="evenodd" d="M0 2V22H32V2H0Z" fill="#FECA00"/>
<path d="M0 8.25H-1.75V10V14V15.75H0H32H33.75V14V10V8.25H32H0Z" fill="#272727" stroke="#E31D1C" stroke-width="3.5"/>
<path fill-rule="evenodd" clip-rule="evenodd" d="M0 4V0H32V4H0ZM0 24V20H32V24H0Z" fill="#5EAA22"/>
</g>
<path d="M0.596961 -0.80227L-1 -1.99055V0V24V25.9609L0.587223 24.8094L16.9185 12.9614L18.0202 12.1622L16.9283 11.3497L0.596961 -0.80227Z" fill="#F7FCFF" stroke="#272727" stroke-width="2"/>
<mask id="mask1_30_18104" style="mask-type:luminance" maskUnits="userSpaceOnUse" x="-2" y="-4" width="22" height="32">
<path d="M0.596961 -0.80227L-1 -1.99055V0V24V25.9609L0.587223 24.8094L16.9185 12.9614L18.0202 12.1622L16.9283 11.3497L0.596961 -0.80227Z" fill="white" stroke="white" stroke-width="2"/>
</mask>
<g mask="url(#mask1_30_18104)">
<path fill-rule="evenodd" clip-rule="evenodd" d="M7.47845 14.2783L3.69951 17.3287L5.43289 13.2521L2.45447 10.3839H5.97007L7.41266 6.92505L8.94484 10.3839H12.4545L9.31872 13.2521L10.8881 17.3287L7.47845 14.2783Z" fill="#E31D1C"/>
<path fill-rule="evenodd" clip-rule="evenodd" d="M5.01762 8.42151C5.01762 8.42151 4.96276 8.28925 5.28658 8.17231C5.61041 8.05537 5.70918 7.80758 5.96303 7.98995C6.21688 8.17231 6.37568 7.80567 6.44852 8.33153C6.52135 8.8574 6.7221 9.68662 6.7221 9.68662L10.0097 12.1573H9.39199C9.39199 12.1573 8.43014 13.5705 8.58895 14.8104C8.58895 14.8104 7.92531 14.7095 7.0258 14.7095C6.12629 14.7095 5.53713 14.925 5.53713 14.925L5.01762 13.0014C5.01762 13.0014 5.20572 12.6782 5.28658 12.4177C5.36744 12.1573 5.70226 12.1092 5.70226 11.902C5.70226 11.6948 5.37201 11.5211 5.53713 10.9848C5.70226 10.4484 5.70226 8.84406 5.70226 8.84406C5.70226 8.84406 5.18038 8.61457 5.28658 8.61457C5.39278 8.61457 5.63487 8.42151 5.46073 8.42151C5.28658 8.42151 5.01762 8.42151 5.01762 8.42151Z" fill="#FECA00"/>
<path d="M6.7221 9.68662L6.60061 9.71603L6.61116 9.75961L6.647 9.78655L9.63528 12.0323H9.39199H9.32586L9.28865 12.0869L9.39199 12.1573L9.28861 12.087L9.28854 12.0871L9.28834 12.0874L9.28769 12.0884L9.28536 12.0918L9.27679 12.1048C9.2694 12.116 9.25875 12.1324 9.24535 12.1536C9.21855 12.1959 9.18071 12.2574 9.13593 12.335C9.04645 12.4899 8.92887 12.7096 8.81625 12.9691C8.61087 13.4423 8.41574 14.0618 8.45024 14.6662C8.37548 14.6572 8.27601 14.6463 8.15598 14.6355C7.87473 14.61 7.4801 14.5845 7.0258 14.5845C6.56615 14.5845 6.18539 14.6395 5.91875 14.6949C5.79473 14.7206 5.69526 14.7464 5.62389 14.7668L5.15165 13.0182C5.15361 13.0147 5.15566 13.0109 5.15781 13.007C5.17727 12.9716 5.20403 12.9218 5.2334 12.8635C5.29148 12.7483 5.36243 12.595 5.40596 12.4548C5.43256 12.3691 5.50059 12.3144 5.59982 12.2398L5.60293 12.2375C5.64682 12.2045 5.70115 12.1637 5.74318 12.1152C5.78938 12.0618 5.82726 11.9921 5.82726 11.902C5.82726 11.8178 5.79371 11.7451 5.7638 11.6884C5.75131 11.6647 5.73959 11.6439 5.72831 11.6239C5.70861 11.5889 5.69028 11.5563 5.67159 11.5151C5.62097 11.4037 5.58392 11.2576 5.6566 11.0216C5.70174 10.8749 5.73361 10.6637 5.75694 10.4368C5.78051 10.2076 5.79612 9.95414 5.8065 9.7188C5.81688 9.48325 5.82207 9.26473 5.82466 9.10515C5.82596 9.02533 5.82661 8.96019 5.82693 8.91494L5.82722 8.86263L5.82725 8.84888L5.82726 8.84532L5.82726 8.8444L5.82726 8.84415V8.84409L5.70226 8.84406H5.82726V8.76247L5.75258 8.72963L5.75258 8.72963L5.75257 8.72963L5.75251 8.7296L5.75227 8.72949L5.75122 8.72903L5.74703 8.72718L5.73098 8.72004L5.67416 8.69443C5.63534 8.67676 5.58687 8.65435 5.53884 8.63125C5.54755 8.62421 5.55591 8.617 5.5638 8.60968C5.58123 8.5935 5.59941 8.57403 5.61413 8.55197C5.627 8.53268 5.64725 8.49673 5.64691 8.45075C5.64647 8.39137 5.61259 8.34428 5.56669 8.31965C5.52999 8.29996 5.49026 8.29651 5.46073 8.29651H5.4597H5.45868H5.45765H5.45663H5.4556H5.45456H5.45353H5.45249H5.45146H5.45042H5.44937H5.44833H5.44728H5.44624H5.44519H5.44413H5.44308H5.44202H5.44097H5.43991H5.43884H5.43778H5.43672H5.43565H5.43458H5.43351H5.43244H5.43136H5.43029H5.42921H5.42813H5.42705H5.42597H5.42489H5.4238H5.42271H5.42162H5.42053H5.41944H5.41835H5.41725H5.41616H5.41506H5.41396H5.41286H5.41176H5.41065H5.40955H5.40844H5.40733H5.40622H5.40511H5.404H5.40289H5.40177H5.40066H5.39954H5.39842H5.3973H5.39618H5.39506H5.39394H5.39281H5.39169H5.39056H5.38943H5.38831H5.38718H5.38604H5.38491H5.38378H5.38265H5.38151H5.38037H5.37924H5.3781H5.37696H5.37582H5.37468H5.37354H5.3724H5.37125H5.37011H5.36896H5.36782H5.36667H5.36553H5.36438H5.36323H5.36208H5.36093H5.35978H5.35863H5.35747H5.35632H5.35517H5.35401H5.35286H5.3517H5.35055H5.34939H5.34824H5.34708H5.34592H5.34476H5.3436H5.34244H5.34128H5.34012H5.33896H5.3378H5.33664H5.33548H5.33432H5.33316H5.33199H5.33083H5.32967H5.3285H5.32734H5.32618H5.32501H5.32385H5.32268H5.32152H5.32035H5.31919H5.31802H5.31686H5.31569H5.31453H5.31336H5.3122H5.31118C5.31695 8.29431 5.3229 8.2921 5.32904 8.28988C5.42154 8.25648 5.4968 8.21409 5.55957 8.17476C5.58758 8.1572 5.61046 8.14212 5.63081 8.1287C5.66043 8.10917 5.6847 8.09317 5.7117 8.07819C5.75186 8.05591 5.77563 8.04984 5.79431 8.05005C5.81148 8.05026 5.84077 8.05603 5.8901 8.09147C6.03828 8.19792 6.19314 8.17102 6.25537 8.16021C6.26499 8.15854 6.27239 8.15726 6.27722 8.15691C6.28892 8.17698 6.30808 8.2287 6.3247 8.34868C6.36181 8.6166 6.43107 8.95927 6.49047 9.2328C6.52027 9.37003 6.54777 9.49072 6.56783 9.57711C6.57786 9.62032 6.58604 9.65497 6.59171 9.67886L6.59827 9.70634L6.6 9.71352L6.60045 9.71537L6.60056 9.71585L6.60059 9.71598L6.6006 9.71601L6.7221 9.68662Z" stroke="#0A0A0A" stroke-width="0.25"/>
</g>
</g>
<defs>
<clipPath id="clip0_30_18104">
<rect width="32" height="24" fill="white"/>
</clipPath>
</defs>
</svg>
